<?xml version="1.0" encoding="utf-8" standalone="no"?>
<!DOCTYPE svg PUBLIC "-//W3C//DTD SVG 1.1//EN"
  "http://www.w3.org/Graphics/SVG/1.1/DTD/svg11.dtd">
<svg xmlns:xlink="http://www.w3.org/1999/xlink" width="388.61928pt" height="218.623104pt" viewBox="0 0 388.61928 218.623104" xmlns="http://www.w3.org/2000/svg" version="1.1">
 <metadata>
  <rdf:RDF xmlns:dc="http://purl.org/dc/elements/1.1/" xmlns:cc="http://creativecommons.org/ns#" xmlns:rdf="http://www.w3.org/1999/02/22-rdf-syntax-ns#">
   <cc:Work>
    <dc:type rdf:resource="http://purl.org/dc/dcmitype/StillImage"/>
    <dc:date>2025-04-14T08:24:01.499225</dc:date>
    <dc:format>image/svg+xml</dc:format>
    <dc:creator>
     <cc:Agent>
      <dc:title>Matplotlib v3.8.2, https://matplotlib.org/</dc:title>
     </cc:Agent>
    </dc:creator>
   </cc:Work>
  </rdf:RDF>
 </metadata>
 <defs>
  <style type="text/css">*{stroke-linejoin: round; stroke-linecap: butt}</style>
 </defs>
 <g id="figure_1">
  <g id="patch_1">
   <path d="M 0 218.623104 
L 388.61928 218.623104 
L 388.61928 0 
L 0 0 
z
" style="fill: #ffffff"/>
  </g>
  <g id="axes_1">
   <g id="patch_2">
    <path d="M 44.352 59.7775 
L 377.81928 59.7775 
L 377.81928 10.8 
L 44.352 10.8 
z
" style="fill: #ffffff"/>
   </g>
   <g id="matplotlib.axis_1">
    <g id="xtick_1">
     <g id="line2d_1">
      <path d="M 59.509604 59.7775 
L 59.509604 10.8 
" clip-path="url(#p69dd6d1fb3)" style="fill: none; stroke: #b0b0b0; stroke-width: 0.1; stroke-linecap: round"/>
     </g>
     <g id="line2d_2"/>
    </g>
    <g id="xtick_2">
     <g id="line2d_3">
      <path d="M 97.403615 59.7775 
L 97.403615 10.8 
" clip-path="url(#p69dd6d1fb3)" style="fill: none; stroke: #b0b0b0; stroke-width: 0.1; stroke-linecap: round"/>
     </g>
     <g id="line2d_4"/>
    </g>
    <g id="xtick_3">
     <g id="line2d_5">
      <path d="M 135.297626 59.7775 
L 135.297626 10.8 
" clip-path="url(#p69dd6d1fb3)" style="fill: none; stroke: #b0b0b0; stroke-width: 0.1; stroke-linecap: round"/>
     </g>
     <g id="line2d_6"/>
    </g>
    <g id="xtick_4">
     <g id="line2d_7">
      <path d="M 173.191637 59.7775 
L 173.191637 10.8 
" clip-path="url(#p69dd6d1fb3)" style="fill: none; stroke: #b0b0b0; stroke-width: 0.1; stroke-linecap: round"/>
     </g>
     <g id="line2d_8"/>
    </g>
    <g id="xtick_5">
     <g id="line2d_9">
      <path d="M 211.085648 59.7775 
L 211.085648 10.8 
" clip-path="url(#p69dd6d1fb3)" style="fill: none; stroke: #b0b0b0; stroke-width: 0.1; stroke-linecap: round"/>
     </g>
     <g id="line2d_10"/>
    </g>
    <g id="xtick_6">
     <g id="line2d_11">
      <path d="M 248.979659 59.7775 
L 248.979659 10.8 
" clip-path="url(#p69dd6d1fb3)" style="fill: none; stroke: #b0b0b0; stroke-width: 0.1; stroke-linecap: round"/>
     </g>
     <g id="line2d_12"/>
    </g>
    <g id="xtick_7">
     <g id="line2d_13">
      <path d="M 286.87367 59.7775 
L 286.87367 10.8 
" clip-path="url(#p69dd6d1fb3)" style="fill: none; stroke: #b0b0b0; stroke-width: 0.1; stroke-linecap: round"/>
     </g>
     <g id="line2d_14"/>
    </g>
    <g id="xtick_8">
     <g id="line2d_15">
      <path d="M 324.767681 59.7775 
L 324.767681 10.8 
" clip-path="url(#p69dd6d1fb3)" style="fill: none; stroke: #b0b0b0; stroke-width: 0.1; stroke-linecap: round"/>
     </g>
     <g id="line2d_16"/>
    </g>
    <g id="xtick_9">
     <g id="line2d_17">
      <path d="M 362.661692 59.7775 
L 362.661692 10.8 
" clip-path="url(#p69dd6d1fb3)" style="fill: none; stroke: #b0b0b0; stroke-width: 0.1; stroke-linecap: round"/>
     </g>
     <g id="line2d_18"/>
    </g>
   </g>
   <g id="matplotlib.axis_2">
    <g id="ytick_1">
     <g id="line2d_19">
      <path d="M 44.352 59.7135 
L 377.81928 59.7135 
" clip-path="url(#p69dd6d1fb3)" style="fill: none; stroke: #b0b0b0; stroke-width: 0.1; stroke-linecap: round"/>
     </g>
     <g id="line2d_20"/>
     <g id="text_1">
      <!-- −0.2 -->
      <g style="fill: #262626" transform="translate(23.854031 62.372953) scale(0.07 -0.07)">
       <defs>
        <path id="DejaVuSerif-2212" d="M 678 2259 
L 4684 2259 
L 4684 1753 
L 678 1753 
L 678 2259 
z
" transform="scale(0.015625)"/>
        <path id="DejaVuSerif-30" d="M 2034 219 
Q 2513 219 2750 744 
Q 2988 1269 2988 2328 
Q 2988 3391 2750 3916 
Q 2513 4441 2034 4441 
Q 1556 4441 1318 3916 
Q 1081 3391 1081 2328 
Q 1081 1269 1318 744 
Q 1556 219 2034 219 
z
M 2034 -91 
Q 1275 -91 848 546 
Q 422 1184 422 2328 
Q 422 3475 848 4112 
Q 1275 4750 2034 4750 
Q 2797 4750 3222 4112 
Q 3647 3475 3647 2328 
Q 3647 1184 3222 546 
Q 2797 -91 2034 -91 
z
" transform="scale(0.015625)"/>
        <path id="DejaVuSerif-2e" d="M 603 325 
Q 603 500 722 622 
Q 841 744 1019 744 
Q 1191 744 1312 622 
Q 1434 500 1434 325 
Q 1434 153 1312 31 
Q 1191 -91 1019 -91 
Q 841 -91 722 29 
Q 603 150 603 325 
z
" transform="scale(0.015625)"/>
        <path id="DejaVuSerif-32" d="M 819 3553 
L 469 3553 
L 469 4384 
Q 803 4563 1142 4656 
Q 1481 4750 1806 4750 
Q 2534 4750 2956 4397 
Q 3378 4044 3378 3438 
Q 3378 2753 2422 1800 
Q 2347 1728 2309 1691 
L 1131 513 
L 3078 513 
L 3078 1088 
L 3444 1088 
L 3444 0 
L 434 0 
L 434 341 
L 1850 1753 
Q 2319 2222 2519 2614 
Q 2719 3006 2719 3438 
Q 2719 3909 2473 4175 
Q 2228 4441 1797 4441 
Q 1350 4441 1106 4219 
Q 863 3997 819 3553 
z
" transform="scale(0.015625)"/>
       </defs>
       <use xlink:href="#DejaVuSerif-2212"/>
       <use xlink:href="#DejaVuSerif-30" x="83.789062"/>
       <use xlink:href="#DejaVuSerif-2e" x="147.412109"/>
       <use xlink:href="#DejaVuSerif-32" x="179.199219"/>
      </g>
     </g>
    </g>
    <g id="ytick_2">
     <g id="line2d_21">
      <path d="M 44.352 43.064587 
L 377.81928 43.064587 
" clip-path="url(#p69dd6d1fb3)" style="fill: none; stroke: #b0b0b0; stroke-width: 0.1; stroke-linecap: round"/>
     </g>
     <g id="line2d_22"/>
     <g id="text_2">
      <!-- 0.0 -->
      <g style="fill: #262626" transform="translate(29.719813 45.72404) scale(0.07 -0.07)">
       <use xlink:href="#DejaVuSerif-30"/>
       <use xlink:href="#DejaVuSerif-2e" x="63.623047"/>
       <use xlink:href="#DejaVuSerif-30" x="95.410156"/>
      </g>
     </g>
    </g>
    <g id="ytick_3">
     <g id="line2d_23">
      <path d="M 44.352 26.415675 
L 377.81928 26.415675 
" clip-path="url(#p69dd6d1fb3)" style="fill: none; stroke: #b0b0b0; stroke-width: 0.1; stroke-linecap: round"/>
     </g>
     <g id="line2d_24"/>
     <g id="text_3">
      <!-- 0.2 -->
      <g style="fill: #262626" transform="translate(29.719813 29.075128) scale(0.07 -0.07)">
       <use xlink:href="#DejaVuSerif-30"/>
       <use xlink:href="#DejaVuSerif-2e" x="63.623047"/>
       <use xlink:href="#DejaVuSerif-32" x="95.410156"/>
      </g>
     </g>
    </g>
    <g id="text_4">
     <!-- $\beta^{(\bullet)}-\beta^A$ [deg] -->
     <g style="fill: #262626" transform="translate(18.474031 56.73875) rotate(-90) scale(0.06 -0.06)">
      <defs>
       <path id="DejaVuSans-Oblique-3b2" d="M 872 216 
L 572 -1331 
L -6 -1331 
L 928 3478 
Q 1206 4903 2538 4903 
Q 3888 4903 3659 3700 
Q 3503 2844 2894 2531 
Q 3713 2250 3553 1416 
Q 3272 -69 1759 -66 
Q 1097 -63 872 216 
z
M 1019 966 
Q 1259 422 1875 425 
Q 2775 425 2966 1406 
Q 3138 2288 1675 2219 
L 1778 2750 
Q 2909 2731 3106 3750 
Q 3241 4438 2509 4434 
Q 1691 4434 1503 3459 
L 1019 966 
z
" transform="scale(0.015625)"/>
       <path id="DejaVuSans-28" d="M 1984 4856 
Q 1566 4138 1362 3434 
Q 1159 2731 1159 2009 
Q 1159 1288 1364 580 
Q 1569 -128 1984 -844 
L 1484 -844 
Q 1016 -109 783 600 
Q 550 1309 550 2009 
Q 550 2706 781 3412 
Q 1013 4119 1484 4856 
L 1984 4856 
z
" transform="scale(0.015625)"/>
       <path id="DejaVuSans-2219" d="M 1075 2006 
Q 1075 2394 1345 2661 
Q 1616 2928 2009 2928 
Q 2397 2928 2664 2661 
Q 2931 2394 2931 2006 
Q 2931 1616 2662 1347 
Q 2394 1078 2003 1078 
Q 1613 1078 1344 1347 
Q 1075 1616 1075 2006 
z
" transform="scale(0.015625)"/>
       <path id="DejaVuSans-29" d="M 513 4856 
L 1013 4856 
Q 1481 4119 1714 3412 
Q 1947 2706 1947 2009 
Q 1947 1309 1714 600 
Q 1481 -109 1013 -844 
L 513 -844 
Q 928 -128 1133 580 
Q 1338 1288 1338 2009 
Q 1338 2731 1133 3434 
Q 928 4138 513 4856 
z
" transform="scale(0.015625)"/>
       <path id="DejaVuSans-2212" d="M 678 2272 
L 4684 2272 
L 4684 1741 
L 678 1741 
L 678 2272 
z
" transform="scale(0.015625)"/>
       <path id="DejaVuSans-Oblique-41" d="M 2356 4666 
L 3072 4666 
L 3938 0 
L 3278 0 
L 3084 1197 
L 984 1197 
L 325 0 
L -341 0 
L 2356 4666 
z
M 2584 4044 
L 1275 1722 
L 2988 1722 
L 2584 4044 
z
" transform="scale(0.015625)"/>
       <path id="DejaVuSerif-20" transform="scale(0.015625)"/>
       <path id="DejaVuSerif-5b" d="M 550 4863 
L 2003 4863 
L 2003 4531 
L 1147 4531 
L 1147 -513 
L 2003 -513 
L 2003 -844 
L 550 -844 
L 550 4863 
z
" transform="scale(0.015625)"/>
       <path id="DejaVuSerif-64" d="M 3359 331 
L 3909 331 
L 3909 0 
L 2784 0 
L 2784 519 
Q 2616 206 2355 57 
Q 2094 -91 1709 -91 
Q 1097 -91 708 395 
Q 319 881 319 1663 
Q 319 2444 706 2928 
Q 1094 3413 1709 3413 
Q 2094 3413 2355 3264 
Q 2616 3116 2784 2803 
L 2784 4531 
L 2241 4531 
L 2241 4863 
L 3359 4863 
L 3359 331 
z
M 2784 1497 
L 2784 1825 
Q 2784 2422 2554 2737 
Q 2325 3053 1888 3053 
Q 1444 3053 1217 2703 
Q 991 2353 991 1663 
Q 991 975 1217 622 
Q 1444 269 1888 269 
Q 2325 269 2554 583 
Q 2784 897 2784 1497 
z
" transform="scale(0.015625)"/>
       <path id="DejaVuSerif-65" d="M 3469 1600 
L 991 1600 
L 991 1575 
Q 991 903 1244 561 
Q 1497 219 1991 219 
Q 2369 219 2611 417 
Q 2853 616 2950 1006 
L 3413 1006 
Q 3275 459 2904 184 
Q 2534 -91 1931 -91 
Q 1203 -91 761 389 
Q 319 869 319 1663 
Q 319 2450 753 2931 
Q 1188 3413 1894 3413 
Q 2647 3413 3050 2948 
Q 3453 2484 3469 1600 
z
M 2791 1931 
Q 2772 2513 2545 2808 
Q 2319 3103 1894 3103 
Q 1497 3103 1269 2806 
Q 1041 2509 991 1931 
L 2791 1931 
z
" transform="scale(0.015625)"/>
       <path id="DejaVuSerif-67" d="M 3359 2988 
L 3359 72 
Q 3359 -644 2965 -1033 
Q 2572 -1422 1844 -1422 
Q 1516 -1422 1216 -1362 
Q 916 -1303 641 -1184 
L 641 -488 
L 941 -488 
Q 997 -813 1206 -963 
Q 1416 -1113 1806 -1113 
Q 2313 -1113 2548 -827 
Q 2784 -541 2784 72 
L 2784 519 
Q 2616 206 2355 57 
Q 2094 -91 1709 -91 
Q 1097 -91 708 395 
Q 319 881 319 1663 
Q 319 2444 706 2928 
Q 1094 3413 1709 3413 
Q 2094 3413 2355 3264 
Q 2616 3116 2784 2803 
L 2784 3322 
L 3909 3322 
L 3909 2988 
L 3359 2988 
z
M 2784 1825 
Q 2784 2422 2554 2737 
Q 2325 3053 1888 3053 
Q 1444 3053 1217 2703 
Q 991 2353 991 1663 
Q 991 975 1217 622 
Q 1444 269 1888 269 
Q 2325 269 2554 583 
Q 2784 897 2784 1497 
L 2784 1825 
z
" transform="scale(0.015625)"/>
       <path id="DejaVuSerif-5d" d="M 1947 4863 
L 1947 -844 
L 494 -844 
L 494 -513 
L 1350 -513 
L 1350 4531 
L 494 4531 
L 494 4863 
L 1947 4863 
z
" transform="scale(0.015625)"/>
      </defs>
      <use xlink:href="#DejaVuSans-Oblique-3b2" transform="translate(0 0.60625)"/>
      <use xlink:href="#DejaVuSans-28" transform="translate(71.353568 38.8875) scale(0.7)"/>
      <use xlink:href="#DejaVuSans-2219" transform="translate(98.663138 38.8875) scale(0.7)"/>
      <use xlink:href="#DejaVuSans-29" transform="translate(142.481497 38.8875) scale(0.7)"/>
      <use xlink:href="#DejaVuSans-2212" transform="translate(192.007865 0.60625)"/>
      <use xlink:href="#DejaVuSans-Oblique-3b2" transform="translate(295.279349 0.60625)"/>
      <use xlink:href="#DejaVuSans-Oblique-41" transform="translate(366.632917 38.8875) scale(0.7)"/>
      <use xlink:href="#DejaVuSerif-20" transform="translate(417.253034 0.60625)"/>
      <use xlink:href="#DejaVuSerif-5b" transform="translate(449.040143 0.60625)"/>
      <use xlink:href="#DejaVuSerif-64" transform="translate(488.053815 0.60625)"/>
      <use xlink:href="#DejaVuSerif-65" transform="translate(552.067487 0.60625)"/>
      <use xlink:href="#DejaVuSerif-67" transform="translate(611.247174 0.60625)"/>
      <use xlink:href="#DejaVuSerif-5d" transform="translate(675.260846 0.60625)"/>
     </g>
    </g>
   </g>
   <g id="line2d_25">
    <path d="M 59.509604 43.064587 
L 362.661676 43.064587 
L 362.661676 43.064587 
" clip-path="url(#p69dd6d1fb3)" style="fill: none; stroke: #2a2eec; stroke-width: 0.4; stroke-linecap: round"/>
   </g>
   <g id="line2d_26">
    <path d="M 59.509604 43.064587 
L 60.949614 42.490603 
L 62.768466 42.03257 
L 65.496903 41.615849 
L 70.877784 40.823419 
L 76.182968 40.119599 
L 84.443923 40.070772 
L 85.429084 39.968633 
L 90.50692 39.849832 
L 92.250234 39.736053 
L 93.765865 39.530874 
L 94.902595 39.212993 
L 96.115196 38.918664 
L 99.222739 37.987355 
L 100.359552 37.61004 
L 102.405624 37.171212 
L 104.148741 37.228145 
L 105.816115 37.442209 
L 107.028671 37.477219 
L 107.786566 37.472386 
L 108.77181 37.386807 
L 111.045542 37.455242 
L 113.091819 37.375761 
L 115.213792 36.998359 
L 118.093729 36.277058 
L 119.154762 36.001469 
L 120.291597 35.587286 
L 121.883191 35.61586 
L 124.53581 36.017756 
L 125.596766 35.816851 
L 126.960913 35.592877 
L 130.674768 34.98799 
L 133.25147 35.056629 
L 134.53973 35.267617 
L 136.131264 35.660954 
L 137.495569 35.792454 
L 138.783943 35.665281 
L 139.845021 35.66886 
L 140.75434 35.921297 
L 144.392173 37.507884 
L 145.680607 38.223492 
L 147.726929 38.63045 
L 149.318448 38.912193 
L 150.152093 39.18489 
L 153.486721 40.824932 
L 154.85092 41.531986 
L 156.366658 41.874883 
L 160.004506 41.199276 
L 162.73289 39.866908 
L 163.490808 39.682619 
L 166.219123 39.428756 
L 167.659141 39.299106 
L 169.250758 39.304701 
L 170.690632 38.895621 
L 172.509582 38.225719 
L 175.162193 37.205239 
L 176.071566 36.995534 
L 178.34548 36.669965 
L 180.543113 36.586659 
L 181.604145 36.714987 
L 184.711401 37.512222 
L 187.742967 38.411261 
L 189.486054 38.547441 
L 190.547283 38.459011 
L 192.669143 37.969108 
L 194.866981 37.853454 
L 196.989113 37.989126 
L 198.125873 38.2597 
L 200.248059 39.258952 
L 202.142744 40.469219 
L 205.022606 42.037423 
L 207.826763 43.063705 
L 209.569895 43.198075 
L 211.995142 42.938496 
L 213.132038 42.658499 
L 214.42029 42.383386 
L 215.784535 42.026476 
L 217.830857 41.313133 
L 219.043435 40.805838 
L 221.089773 40.141982 
L 224.272794 39.309199 
L 225.333796 39.292238 
L 226.319063 39.188436 
L 228.89581 38.556383 
L 231.017897 37.755199 
L 235.337845 36.249596 
L 236.47462 36.178451 
L 237.838834 36.378568 
L 240.870386 37.362046 
L 241.93138 37.701565 
L 244.583999 38.644034 
L 246.023888 39.378205 
L 247.767012 39.785144 
L 248.903855 39.739006 
L 249.737539 39.404867 
L 253.072227 37.512098 
L 254.133479 37.285955 
L 255.118746 37.41906 
L 256.558696 38.105044 
L 257.69538 38.670861 
L 258.52898 39.041974 
L 259.893172 39.673724 
L 262.394138 40.877619 
L 264.51618 41.475963 
L 265.5015 41.568429 
L 267.320367 41.49345 
L 268.229793 41.256289 
L 270.351858 41.018053 
L 272.5499 40.804144 
L 274.292843 40.523765 
L 275.581277 40.648139 
L 277.85488 40.906289 
L 280.204308 41.655173 
L 281.492735 41.925191 
L 282.402252 42.123079 
L 285.282129 42.405371 
L 289.298917 41.314287 
L 290.890511 41.550787 
L 292.103035 41.695065 
L 293.543 42.186513 
L 294.225214 42.520629 
L 298.469335 44.035749 
L 300.136611 44.364604 
L 300.970234 44.264749 
L 302.031274 43.944551 
L 302.789192 43.710674 
L 303.698603 43.441226 
L 305.593281 42.606259 
L 306.502813 42.454396 
L 309.761652 42.46293 
L 310.595298 42.375585 
L 311.353208 42.42064 
L 312.414263 42.519621 
L 314.081759 42.261407 
L 314.915298 42.687153 
L 320.144687 45.902138 
L 324.237301 48.873219 
L 326.207729 50.75312 
L 327.950838 52.600758 
L 329.466576 54.708654 
L 329.769804 54.820921 
L 330.148774 54.586093 
L 330.451835 54.215263 
L 330.982351 53.458709 
L 332.119164 52.434162 
L 332.801226 52.022652 
L 334.241191 51.112897 
L 336.590612 48.864094 
L 337.500053 48.354599 
L 338.106365 48.044548 
L 338.63698 47.926591 
L 340.076846 48.340531 
L 341.137901 48.805977 
L 341.668447 49.012485 
L 344.169414 49.883537 
L 345.154742 49.839513 
L 347.428269 49.920045 
L 348.71668 50.131172 
L 350.45982 50.603585 
L 351.369231 50.935428 
L 351.899755 51.151908 
L 352.430278 51.304665 
L 353.112423 51.383567 
L 353.718697 51.335892 
L 355.461852 51.614609 
L 358.190183 51.704702 
L 361.145893 52.178861 
L 362.055418 52.618976 
L 362.661676 52.997276 
L 362.661676 52.997276 
" clip-path="url(#p69dd6d1fb3)" style="fill: none; stroke: #fa7c17; stroke-width: 0.4; stroke-linecap: round"/>
   </g>
   <g id="line2d_27">
    <path d="M 59.509604 43.064587 
L 60.49484 44.779753 
L 61.404388 45.954449 
L 62.31376 46.769665 
L 63.299262 47.339069 
L 64.284272 47.656514 
L 65.193728 47.737287 
L 66.936936 47.554333 
L 73.227524 46.738873 
L 75.576907 46.746587 
L 76.334545 46.630635 
L 78.001866 46.261338 
L 80.957644 45.535759 
L 83.307035 44.72787 
L 84.368067 44.384863 
L 85.732237 43.914352 
L 87.172338 43.468681 
L 88.233378 43.266517 
L 91.871074 42.865006 
L 93.993123 42.436515 
L 100.283529 41.692606 
L 101.571979 41.574236 
L 102.557185 41.555889 
L 105.285569 41.849029 
L 106.498177 41.784427 
L 110.136071 41.711282 
L 112.485423 41.914132 
L 113.47066 41.866699 
L 116.350688 41.178602 
L 118.548549 40.584039 
L 119.382111 40.355055 
L 120.367385 40.045121 
L 121.125364 39.930694 
L 123.019966 39.626293 
L 123.853718 39.67454 
L 124.384188 39.654102 
L 127.264065 39.272256 
L 128.93147 39.010256 
L 129.68935 38.941326 
L 134.009214 40.480931 
L 135.600763 41.573946 
L 137.04075 42.396981 
L 138.026085 42.718629 
L 138.935451 42.765332 
L 140.299597 42.577387 
L 142.194389 42.423308 
L 143.103906 42.573672 
L 144.013203 42.959 
L 145.225879 43.666282 
L 145.604766 43.489239 
L 146.362677 42.996304 
L 148.181612 42.235203 
L 149.166811 42.06131 
L 150.30376 42.16395 
L 151.516353 42.596773 
L 152.274211 43.017724 
L 155.078405 44.541432 
L 156.594166 44.72023 
L 157.882433 44.629822 
L 159.322429 44.347782 
L 159.852975 44.341574 
L 161.444508 44.602737 
L 163.566603 45.177263 
L 164.55184 45.366592 
L 165.309652 45.497237 
L 167.735066 45.967845 
L 169.250758 46.090179 
L 171.448489 45.782952 
L 172.737181 45.556139 
L 173.494842 45.364017 
L 174.859041 44.990252 
L 176.298908 44.821547 
L 177.663327 45.059073 
L 179.103254 45.777303 
L 180.694704 46.991997 
L 182.665101 48.745171 
L 183.726217 49.509891 
L 186.757677 51.403138 
L 187.742967 51.772191 
L 189.334485 52.137862 
L 191.077595 52.119972 
L 192.214423 51.932905 
L 193.123864 51.83523 
L 196.079725 51.793365 
L 198.050093 52.217727 
L 199.793217 52.971097 
L 204.946863 55.976863 
L 206.159426 56.523397 
L 207.296231 56.893493 
L 209.342546 57.33657 
L 211.540398 57.231437 
L 212.904583 57.062758 
L 214.268798 56.79085 
L 215.784535 56.338698 
L 216.769711 56.101792 
L 217.754986 55.900575 
L 222.454048 54.617798 
L 223.893831 54.63835 
L 227.68333 54.6315 
L 233.670539 53.085506 
L 235.262004 53.234779 
L 237.838834 54.001862 
L 239.27886 54.279384 
L 241.628205 54.711889 
L 242.992579 55.152443 
L 244.432574 55.675871 
L 245.26603 55.99308 
L 245.94832 56.106907 
L 246.554525 56.063339 
L 247.085094 55.923957 
L 248.297544 55.371092 
L 250.192237 54.06936 
L 251.556474 53.282618 
L 252.693256 53.127766 
L 253.90588 53.369138 
L 258.301563 54.513269 
L 259.135254 54.947436 
L 262.394138 56.672279 
L 265.95616 57.540291 
L 267.092966 57.496622 
L 269.215144 56.991337 
L 273.989675 55.656703 
L 277.627607 54.905277 
L 279.597997 55.262631 
L 281.113757 55.46145 
L 282.402252 55.382944 
L 283.766406 54.827541 
L 286.646328 52.917321 
L 287.404201 52.434948 
L 288.010475 52.196589 
L 288.919939 52.037033 
L 291.34517 51.691413 
L 292.254702 51.24111 
L 293.543 50.700765 
L 294.907344 50.514749 
L 296.044187 50.392249 
L 296.726158 50.305947 
L 297.787107 50.355393 
L 298.62079 50.342853 
L 300.21246 50.020508 
L 301.121871 49.616223 
L 302.410222 48.668464 
L 304.759825 46.502514 
L 306.12391 45.711153 
L 306.805912 45.567553 
L 308.927954 45.695158 
L 310.216494 45.877533 
L 312.262619 45.706114 
L 312.717438 45.252683 
L 313.247924 44.376185 
L 314.763662 41.522509 
L 316.658347 38.239186 
L 318.098327 36.124251 
L 320.826703 32.780992 
L 323.024564 30.025997 
L 324.616059 27.702679 
L 325.753145 25.86746 
L 327.950838 23.188022 
L 328.329778 23.321676 
L 328.632915 23.561741 
L 329.087575 24.325106 
L 329.921251 25.636617 
L 330.603358 26.269185 
L 332.422278 27.449873 
L 333.331712 27.710378 
L 334.771699 27.390943 
L 336.742355 25.971534 
L 337.424348 25.891029 
L 339.318981 25.552982 
L 340.380043 25.695286 
L 341.137901 25.524176 
L 343.411564 24.045727 
L 344.699908 22.675686 
L 347.883073 18.47476 
L 350.990321 15.885442 
L 351.596602 15.616186 
L 352.506081 15.256183 
L 353.56744 14.661012 
L 354.249229 14.449624 
L 354.628154 14.316334 
L 355.386011 13.850504 
L 356.371293 13.562358 
L 358.720699 13.344124 
L 359.251215 13.387312 
L 360.084876 13.399725 
L 360.691188 13.258222 
L 361.221749 13.104069 
L 361.903925 13.02888 
L 362.661676 13.055513 
L 362.661676 13.055513 
" clip-path="url(#p69dd6d1fb3)" style="fill: none; stroke: #328c06; stroke-width: 0.4; stroke-linecap: round"/>
   </g>
   <g id="patch_3">
    <path d="M 44.352 59.7775 
L 44.352 10.8 
" style="fill: none; stroke: #000000; stroke-linejoin: miter; stroke-linecap: square"/>
   </g>
   <g id="patch_4">
    <path d="M 44.352 59.7775 
L 377.81928 59.7775 
" style="fill: none; stroke: #000000; stroke-linejoin: miter; stroke-linecap: square"/>
   </g>
   <g id="legend_1">
    <g id="line2d_28">
     <path d="M 346.563186 19.968906 
L 353.563186 19.968906 
L 360.563186 19.968906 
" style="fill: none; stroke: #2a2eec; stroke-width: 0.4; stroke-linecap: round"/>
    </g>
    <g id="text_5">
     <!-- A -->
     <g style="fill: #262626" transform="translate(366.163186 22.418906) scale(0.07 -0.07)">
      <defs>
       <path id="DejaVuSerif-41" d="M 1281 1691 
L 2994 1691 
L 2138 3909 
L 1281 1691 
z
M -38 0 
L -38 331 
L 372 331 
L 2034 4666 
L 2559 4666 
L 4225 331 
L 4684 331 
L 4684 0 
L 2988 0 
L 2988 331 
L 3506 331 
L 3116 1356 
L 1153 1356 
L 763 331 
L 1275 331 
L 1275 0 
L -38 0 
z
" transform="scale(0.015625)"/>
      </defs>
      <use xlink:href="#DejaVuSerif-41"/>
     </g>
    </g>
    <g id="line2d_29">
     <path d="M 346.563186 30.243594 
L 353.563186 30.243594 
L 360.563186 30.243594 
" style="fill: none; stroke: #fa7c17; stroke-width: 0.4; stroke-linecap: round"/>
    </g>
    <g id="text_6">
     <!-- B -->
     <g style="fill: #262626" transform="translate(366.163186 32.693594) scale(0.07 -0.07)">
      <defs>
       <path id="DejaVuSerif-42" d="M 1581 331 
L 2516 331 
Q 3078 331 3337 575 
Q 3597 819 3597 1350 
Q 3597 1878 3339 2120 
Q 3081 2363 2516 2363 
L 1581 2363 
L 1581 331 
z
M 1581 2694 
L 2375 2694 
Q 2888 2694 3123 2891 
Q 3359 3088 3359 3513 
Q 3359 3941 3123 4136 
Q 2888 4331 2375 4331 
L 1581 4331 
L 1581 2694 
z
M 353 0 
L 353 331 
L 947 331 
L 947 4331 
L 353 4331 
L 353 4666 
L 2656 4666 
Q 3363 4666 3720 4377 
Q 4078 4088 4078 3513 
Q 4078 3097 3829 2850 
Q 3581 2603 3103 2547 
Q 3697 2472 4005 2167 
Q 4313 1863 4313 1350 
Q 4313 656 3875 328 
Q 3438 0 2509 0 
L 353 0 
z
" transform="scale(0.015625)"/>
      </defs>
      <use xlink:href="#DejaVuSerif-42"/>
     </g>
    </g>
    <g id="line2d_30">
     <path d="M 346.563186 40.518281 
L 353.563186 40.518281 
L 360.563186 40.518281 
" style="fill: none; stroke: #328c06; stroke-width: 0.4; stroke-linecap: round"/>
    </g>
    <g id="text_7">
     <!-- C -->
     <g style="fill: #262626" transform="translate(366.163186 42.968281) scale(0.07 -0.07)">
      <defs>
       <path id="DejaVuSerif-43" d="M 4513 1234 
Q 4306 581 3820 245 
Q 3334 -91 2591 -91 
Q 2134 -91 1743 65 
Q 1353 222 1050 525 
Q 700 875 529 1320 
Q 359 1766 359 2328 
Q 359 3416 987 4083 
Q 1616 4750 2644 4750 
Q 3025 4750 3456 4650 
Q 3888 4550 4384 4347 
L 4384 3272 
L 4031 3272 
Q 3916 3859 3567 4137 
Q 3219 4416 2591 4416 
Q 1844 4416 1459 3886 
Q 1075 3356 1075 2328 
Q 1075 1303 1459 773 
Q 1844 244 2591 244 
Q 3113 244 3450 492 
Q 3788 741 3938 1234 
L 4513 1234 
z
" transform="scale(0.015625)"/>
      </defs>
      <use xlink:href="#DejaVuSerif-43"/>
     </g>
    </g>
   </g>
  </g>
  <g id="axes_2">
   <g id="patch_5">
    <path d="M 44.352 123.570302 
L 377.81928 123.570302 
L 377.81928 74.592802 
L 44.352 74.592802 
z
" style="fill: #ffffff"/>
   </g>
   <g id="matplotlib.axis_3">
    <g id="xtick_10">
     <g id="line2d_31">
      <path d="M 59.509604 123.570302 
L 59.509604 74.592802 
" clip-path="url(#p8326993dec)" style="fill: none; stroke: #b0b0b0; stroke-width: 0.1; stroke-linecap: round"/>
     </g>
     <g id="line2d_32"/>
    </g>
    <g id="xtick_11">
     <g id="line2d_33">
      <path d="M 97.403615 123.570302 
L 97.403615 74.592802 
" clip-path="url(#p8326993dec)" style="fill: none; stroke: #b0b0b0; stroke-width: 0.1; stroke-linecap: round"/>
     </g>
     <g id="line2d_34"/>
    </g>
    <g id="xtick_12">
     <g id="line2d_35">
      <path d="M 135.297626 123.570302 
L 135.297626 74.592802 
" clip-path="url(#p8326993dec)" style="fill: none; stroke: #b0b0b0; stroke-width: 0.1; stroke-linecap: round"/>
     </g>
     <g id="line2d_36"/>
    </g>
    <g id="xtick_13">
     <g id="line2d_37">
      <path d="M 173.191637 123.570302 
L 173.191637 74.592802 
" clip-path="url(#p8326993dec)" style="fill: none; stroke: #b0b0b0; stroke-width: 0.1; stroke-linecap: round"/>
     </g>
     <g id="line2d_38"/>
    </g>
    <g id="xtick_14">
     <g id="line2d_39">
      <path d="M 211.085648 123.570302 
L 211.085648 74.592802 
" clip-path="url(#p8326993dec)" style="fill: none; stroke: #b0b0b0; stroke-width: 0.1; stroke-linecap: round"/>
     </g>
     <g id="line2d_40"/>
    </g>
    <g id="xtick_15">
     <g id="line2d_41">
      <path d="M 248.979659 123.570302 
L 248.979659 74.592802 
" clip-path="url(#p8326993dec)" style="fill: none; stroke: #b0b0b0; stroke-width: 0.1; stroke-linecap: round"/>
     </g>
     <g id="line2d_42"/>
    </g>
    <g id="xtick_16">
     <g id="line2d_43">
      <path d="M 286.87367 123.570302 
L 286.87367 74.592802 
" clip-path="url(#p8326993dec)" style="fill: none; stroke: #b0b0b0; stroke-width: 0.1; stroke-linecap: round"/>
     </g>
     <g id="line2d_44"/>
    </g>
    <g id="xtick_17">
     <g id="line2d_45">
      <path d="M 324.767681 123.570302 
L 324.767681 74.592802 
" clip-path="url(#p8326993dec)" style="fill: none; stroke: #b0b0b0; stroke-width: 0.1; stroke-linecap: round"/>
     </g>
     <g id="line2d_46"/>
    </g>
    <g id="xtick_18">
     <g id="line2d_47">
      <path d="M 362.661692 123.570302 
L 362.661692 74.592802 
" clip-path="url(#p8326993dec)" style="fill: none; stroke: #b0b0b0; stroke-width: 0.1; stroke-linecap: round"/>
     </g>
     <g id="line2d_48"/>
    </g>
   </g>
   <g id="matplotlib.axis_4">
    <g id="ytick_4">
     <g id="line2d_49">
      <path d="M 44.352 113.963527 
L 377.81928 113.963527 
" clip-path="url(#p8326993dec)" style="fill: none; stroke: #b0b0b0; stroke-width: 0.1; stroke-linecap: round"/>
     </g>
     <g id="line2d_50"/>
     <g id="text_8">
      <!-- −2.5 -->
      <g style="fill: #262626" transform="translate(23.854031 116.62298) scale(0.07 -0.07)">
       <defs>
        <path id="DejaVuSerif-35" d="M 3219 4666 
L 3219 4153 
L 1081 4153 
L 1081 2816 
Q 1244 2928 1461 2984 
Q 1678 3041 1947 3041 
Q 2703 3041 3140 2622 
Q 3578 2203 3578 1478 
Q 3578 738 3136 323 
Q 2694 -91 1894 -91 
Q 1572 -91 1234 -12 
Q 897 66 544 225 
L 544 1131 
L 897 1131 
Q 925 688 1179 453 
Q 1434 219 1894 219 
Q 2388 219 2653 544 
Q 2919 869 2919 1478 
Q 2919 2084 2655 2407 
Q 2391 2731 1894 2731 
Q 1613 2731 1398 2631 
Q 1184 2531 1019 2322 
L 750 2322 
L 750 4666 
L 3219 4666 
z
" transform="scale(0.015625)"/>
       </defs>
       <use xlink:href="#DejaVuSerif-2212"/>
       <use xlink:href="#DejaVuSerif-32" x="83.789062"/>
       <use xlink:href="#DejaVuSerif-2e" x="147.412109"/>
       <use xlink:href="#DejaVuSerif-35" x="179.199219"/>
      </g>
     </g>
    </g>
    <g id="ytick_5">
     <g id="line2d_51">
      <path d="M 44.352 99.06667 
L 377.81928 99.06667 
" clip-path="url(#p8326993dec)" style="fill: none; stroke: #b0b0b0; stroke-width: 0.1; stroke-linecap: round"/>
     </g>
     <g id="line2d_52"/>
     <g id="text_9">
      <!-- 0.0 -->
      <g style="fill: #262626" transform="translate(29.719813 101.726123) scale(0.07 -0.07)">
       <use xlink:href="#DejaVuSerif-30"/>
       <use xlink:href="#DejaVuSerif-2e" x="63.623047"/>
       <use xlink:href="#DejaVuSerif-30" x="95.410156"/>
      </g>
     </g>
    </g>
    <g id="ytick_6">
     <g id="line2d_53">
      <path d="M 44.352 84.169813 
L 377.81928 84.169813 
" clip-path="url(#p8326993dec)" style="fill: none; stroke: #b0b0b0; stroke-width: 0.1; stroke-linecap: round"/>
     </g>
     <g id="line2d_54"/>
     <g id="text_10">
      <!-- 2.5 -->
      <g style="fill: #262626" transform="translate(29.719813 86.829266) scale(0.07 -0.07)">
       <use xlink:href="#DejaVuSerif-32"/>
       <use xlink:href="#DejaVuSerif-2e" x="63.623047"/>
       <use xlink:href="#DejaVuSerif-35" x="95.410156"/>
      </g>
     </g>
    </g>
    <g id="text_11">
     <!-- $\delta^{(\bullet)}-\delta^A$ [deg] -->
     <g style="fill: #262626" transform="translate(18.474031 120.351552) rotate(-90) scale(0.06 -0.06)">
      <defs>
       <path id="DejaVuSans-Oblique-3b4" d="M 3472 4053 
Q 3197 4272 2450 4272 
Q 1659 4272 1588 3906 
Q 1531 3619 2328 3469 
Q 2953 3353 3253 3003 
Q 3616 2581 3447 1716 
Q 3284 888 2763 400 
Q 2238 -91 1488 -91 
Q 741 -91 406 400 
Q 72 888 241 1747 
Q 363 2384 891 2900 
Q 1097 3100 1353 3213 
Q 913 3459 1000 3900 
Q 1166 4750 2544 4750 
Q 3234 4750 3566 4531 
L 3472 4053 
z
M 1753 3056 
Q 1525 2966 1306 2738 
Q 969 2384 847 1747 
Q 722 1113 919 756 
Q 1119 397 1584 397 
Q 2044 397 2381 759 
Q 2722 1122 2838 1716 
Q 2956 2338 2731 2638 
Q 2491 2959 2103 2994 
Q 1906 3013 1753 3056 
z
" transform="scale(0.015625)"/>
      </defs>
      <use xlink:href="#DejaVuSans-Oblique-3b4" transform="translate(0 0.60625)"/>
      <use xlink:href="#DejaVuSans-28" transform="translate(68.382161 38.8875) scale(0.7)"/>
      <use xlink:href="#DejaVuSans-2219" transform="translate(95.691732 38.8875) scale(0.7)"/>
      <use xlink:href="#DejaVuSans-29" transform="translate(139.510091 38.8875) scale(0.7)"/>
      <use xlink:href="#DejaVuSans-2212" transform="translate(189.036458 0.60625)"/>
      <use xlink:href="#DejaVuSans-Oblique-3b4" transform="translate(292.307943 0.60625)"/>
      <use xlink:href="#DejaVuSans-Oblique-41" transform="translate(360.690104 38.8875) scale(0.7)"/>
      <use xlink:href="#DejaVuSerif-20" transform="translate(411.310221 0.60625)"/>
      <use xlink:href="#DejaVuSerif-5b" transform="translate(443.097331 0.60625)"/>
      <use xlink:href="#DejaVuSerif-64" transform="translate(482.111003 0.60625)"/>
      <use xlink:href="#DejaVuSerif-65" transform="translate(546.124674 0.60625)"/>
      <use xlink:href="#DejaVuSerif-67" transform="translate(605.304362 0.60625)"/>
      <use xlink:href="#DejaVuSerif-5d" transform="translate(669.318034 0.60625)"/>
     </g>
    </g>
   </g>
   <g id="line2d_55">
    <path d="M 59.509604 99.06667 
L 362.661676 99.06667 
L 362.661676 99.06667 
" clip-path="url(#p8326993dec)" style="fill: none; stroke: #2a2eec; stroke-width: 0.4; stroke-linecap: round"/>
   </g>
   <g id="line2d_56">
    <path d="M 59.509604 99.06667 
L 61.252698 99.059678 
L 62.23795 99.073663 
L 63.450596 99.068998 
L 65.875888 99.044516 
L 66.027381 99.041486 
L 66.17898 99.047581 
L 66.557928 99.060668 
L 66.785208 99.08054 
L 67.391543 99.068996 
L 67.770475 99.034456 
L 87.020648 99.06667 
L 88.763992 99.066687 
L 92.401613 99.069002 
L 96.039597 99.06431 
L 99.601429 99.066669 
L 103.011921 99.069006 
L 104.072945 99.068998 
L 105.285569 99.06433 
L 108.847583 99.069002 
L 109.75707 99.064336 
L 113.319122 99.068994 
L 114.531708 99.066662 
L 129.462001 99.066041 
L 129.537766 98.550866 
L 129.765297 95.136027 
L 129.916699 95.58782 
L 129.992464 95.537789 
L 130.144025 95.806286 
L 130.295662 95.623149 
L 130.447185 95.623331 
L 130.598806 95.781836 
L 130.826132 95.619354 
L 131.053527 95.636551 
L 131.205163 95.697367 
L 131.356633 95.500791 
L 131.508255 95.761158 
L 131.584088 95.720662 
L 131.735626 95.646685 
L 132.114491 95.737944 
L 132.26612 95.574602 
L 132.493499 95.619099 
L 132.569272 95.570556 
L 132.720924 95.731391 
L 132.872386 95.561622 
L 132.948182 95.651186 
L 133.024159 95.725801 
L 133.175531 95.555052 
L 133.402963 95.712762 
L 133.554486 95.631103 
L 133.70607 95.711982 
L 133.857646 95.589253 
L 134.009214 95.70159 
L 134.160866 95.618567 
L 134.236601 95.728138 
L 134.312396 95.663922 
L 134.46395 95.585031 
L 134.615549 95.684185 
L 134.767185 95.60881 
L 134.994481 95.618116 
L 135.070352 95.578252 
L 135.221807 95.685734 
L 135.373391 95.55431 
L 135.524959 95.676408 
L 135.676581 95.567597 
L 135.903907 95.690058 
L 135.979763 95.591073 
L 136.055468 95.652982 
L 136.131264 95.763115 
L 136.282855 95.533677 
L 136.434416 95.736517 
L 136.661999 95.651977 
L 137.571244 95.649354 
L 137.722842 95.682718 
L 137.874449 95.635094 
L 138.026085 95.724178 
L 138.253419 95.601856 
L 138.329162 95.64733 
L 138.480715 95.576918 
L 138.632291 95.699005 
L 138.859867 95.598033 
L 139.011208 95.677828 
L 139.162815 95.677637 
L 139.238625 95.754014 
L 139.390171 95.625688 
L 139.541747 95.699354 
L 139.693361 95.621707 
L 139.920665 95.648663 
L 140.072294 95.595229 
L 140.223817 95.685619 
L 140.299597 95.571943 
L 140.375461 95.644085 
L 140.526961 95.645979 
L 140.75434 95.689811 
L 141.360902 95.690588 
L 141.436433 95.750669 
L 141.588138 95.569309 
L 141.739592 95.715095 
L 141.891221 95.585933 
L 142.118578 95.633178 
L 142.194389 95.595666 
L 142.345904 95.726747 
L 142.573412 95.65558 
L 142.649041 95.707406 
L 142.800723 95.599225 
L 142.952178 95.684806 
L 143.103906 95.572463 
L 143.331277 95.679128 
L 143.482694 95.561834 
L 143.634414 95.683254 
L 143.710073 95.600289 
L 143.861793 95.801673 
L 144.089059 95.637612 
L 144.392173 95.588032 
L 144.998705 95.595788 
L 145.150076 95.661174 
L 145.301713 95.675323 
L 145.377463 96.161461 
L 145.604766 99.351126 
L 146.135305 99.076 
L 146.893155 99.113304 
L 147.347921 99.04103 
L 148.105816 99.055006 
L 149.394198 99.045685 
L 151.364792 99.071318 
L 152.122688 99.050351 
L 152.880485 99.078322 
L 153.865782 99.059675 
L 154.85092 99.071333 
L 156.669833 99.066678 
L 158.564579 99.080659 
L 159.852975 99.057349 
L 160.383453 99.073664 
L 313.096371 99.066669 
L 313.17206 98.521059 
L 313.551084 92.181226 
L 314.157312 83.176272 
L 314.612169 76.819052 
L 314.763662 77.537049 
L 314.83945 77.209928 
L 314.991011 77.525069 
L 315.142609 77.328301 
L 315.218458 77.37912 
L 315.29417 77.25941 
L 315.369966 77.322342 
L 315.445731 77.464019 
L 315.597474 77.354611 
L 315.748936 77.492849 
L 315.824762 77.347667 
L 315.900459 77.429526 
L 315.976285 77.513887 
L 316.052081 77.435359 
L 316.279437 77.374174 
L 316.355195 77.481825 
L 316.431059 77.419023 
L 316.582574 77.397037 
L 316.658347 77.466556 
L 316.809893 77.317115 
L 316.961492 77.456661 
L 317.188977 77.440747 
L 317.795175 77.355045 
L 317.870978 77.509217 
L 317.946781 77.459927 
L 318.022569 77.302329 
L 318.174138 77.426231 
L 318.401509 77.416099 
L 318.62882 77.370837 
L 318.704624 77.337297 
L 318.856275 77.528139 
L 319.007798 77.386711 
L 319.159428 77.469815 
L 319.235147 77.298788 
L 319.310951 77.379034 
L 319.386723 77.532179 
L 319.462504 77.475421 
L 319.614065 77.375287 
L 320.144687 77.362073 
L 320.220392 77.289833 
L 320.372043 77.505113 
L 320.523551 77.314546 
L 320.675112 77.494078 
L 320.826703 77.417828 
L 320.978264 77.476096 
L 321.205841 77.360962 
L 321.357204 77.40846 
L 321.433008 77.306138 
L 321.50878 77.387537 
L 321.660478 77.452521 
L 321.811933 77.439348 
L 321.963645 77.419765 
L 322.115085 77.375901 
L 322.266668 77.471096 
L 322.418214 77.410252 
L 322.569851 77.441379 
L 322.721389 77.398148 
L 322.872972 77.457323 
L 323.024564 77.306433 
L 323.176109 77.475523 
L 323.327663 77.338223 
L 323.479368 77.398222 
L 323.706663 77.389042 
L 323.858202 77.415019 
L 324.009762 77.401198 
L 324.085611 77.517285 
L 324.161422 77.446659 
L 324.237301 77.289509 
L 324.312899 77.372603 
L 324.464528 77.411403 
L 326.510843 77.467725 
L 326.586684 77.486395 
L 326.738222 77.367606 
L 326.889745 77.434351 
L 327.117102 77.427042 
L 327.268678 77.371963 
L 327.420299 77.323012 
L 327.571898 77.453859 
L 327.723573 77.450094 
L 327.874974 77.39792 
L 327.950838 77.307788 
L 328.178134 77.447555 
L 328.329778 77.469479 
L 328.481309 77.457336 
L 328.632915 77.341213 
L 328.784431 77.417947 
L 328.935999 77.345807 
L 329.087575 79.227281 
L 330.451835 99.542095 
L 330.527798 99.40232 
L 331.361216 99.150627 
L 337.500053 99.069005 
L 339.167488 99.071345 
L 339.849648 99.064359 
L 340.986401 99.066678 
L 342.805359 99.064349 
L 343.942027 99.064345 
L 345.609364 99.068989 
L 347.352602 99.066675 
L 350.914654 99.06667 
L 354.552358 99.064337 
L 362.661676 99.071333 
L 362.661676 99.071333 
" clip-path="url(#p8326993dec)" style="fill: none; stroke: #fa7c17; stroke-width: 0.4; stroke-linecap: round"/>
   </g>
   <g id="line2d_57">
    <path d="M 59.509604 99.06667 
L 63.071626 99.066668 
L 64.511575 99.064336 
L 64.587431 99.491036 
L 64.663212 100.730721 
L 64.739114 100.374056 
L 64.81475 99.840631 
L 64.966402 100.494384 
L 65.117887 99.946462 
L 65.193728 100.523532 
L 65.26963 100.37147 
L 65.345259 99.960905 
L 65.496903 100.508488 
L 65.648441 100.041865 
L 65.724252 100.451808 
L 65.800047 100.320152 
L 65.875888 100.113067 
L 65.951563 100.225034 
L 66.330495 100.22739 
L 66.482087 100.211294 
L 66.557928 100.163023 
L 66.709572 100.328331 
L 66.861034 100.216306 
L 67.239982 100.255026 
L 67.391543 100.267931 
L 67.543088 100.154367 
L 67.694687 100.24027 
L 67.770475 100.114581 
L 67.846422 100.174519 
L 67.997832 100.226709 
L 68.1494 100.193036 
L 68.300999 100.22129 
L 69.437918 100.191007 
L 69.665282 100.21686 
L 70.044169 100.232054 
L 70.196063 100.219161 
L 70.271495 100.127817 
L 70.423086 100.251812 
L 70.574769 100.14515 
L 71.105307 100.241147 
L 71.256724 100.20652 
L 71.408429 100.241468 
L 71.559876 100.185299 
L 71.711521 100.200088 
L 71.938824 100.220735 
L 72.242022 100.195552 
L 72.393636 100.16556 
L 72.469507 100.123046 
L 72.620924 100.258601 
L 72.696719 100.179958 
L 72.848508 98.956958 
L 72.924084 98.999074 
L 73.227524 98.987425 
L 75.27358 99.066669 
L 77.016705 99.064336 
L 80.730348 99.071333 
L 81.942851 99.066648 
L 83.761771 99.069001 
L 87.475604 99.06201 
L 88.384855 99.06901 
L 92.098423 99.064319 
L 93.91751 99.07133 
L 97.630979 99.066682 
L 101.268789 99.069002 
L 104.982409 99.064337 
L 128.93147 99.059689 
L 129.007417 98.551877 
L 129.386137 92.082626 
L 129.765297 87.008322 
L 129.84085 87.424961 
L 129.916699 87.723258 
L 129.992464 87.574678 
L 130.144025 87.816548 
L 130.219896 87.683079 
L 130.523011 87.701639 
L 130.598806 87.870578 
L 130.826132 87.530861 
L 130.977761 87.687248 
L 131.129322 87.654112 
L 131.205163 87.723855 
L 131.356633 87.534874 
L 131.508255 87.810301 
L 131.584088 87.747048 
L 131.735626 87.652875 
L 131.887149 87.688072 
L 131.962937 87.581416 
L 132.038824 87.640818 
L 132.114491 87.786313 
L 132.342006 87.61162 
L 132.493499 87.753359 
L 132.645052 87.643313 
L 132.796598 87.723953 
L 132.948182 87.566612 
L 133.099735 87.747684 
L 133.25147 87.546484 
L 133.402963 87.818529 
L 133.554486 87.599836 
L 133.70607 87.818868 
L 133.857646 87.554951 
L 134.009214 87.794842 
L 134.160866 87.577485 
L 134.312396 87.715565 
L 134.46395 87.544236 
L 134.615549 87.72935 
L 134.691443 87.637455 
L 134.84286 87.637232 
L 134.918716 87.76154 
L 134.994481 87.699268 
L 135.146019 87.642372 
L 135.297648 87.674431 
L 135.449285 87.593636 
L 135.600763 87.693061 
L 135.752323 87.585456 
L 135.903907 87.721533 
L 136.055468 87.689609 
L 136.207105 87.755574 
L 136.35884 87.654099 
L 136.586083 87.703168 
L 136.661999 87.580913 
L 136.737598 87.659863 
L 136.889189 87.61351 
L 136.965 87.568616 
L 137.116568 87.650301 
L 137.268084 87.597807 
L 137.798676 87.724889 
L 137.874449 87.573271 
L 137.950244 87.657433 
L 138.026085 87.726252 
L 138.253419 87.562054 
L 138.404912 87.650397 
L 138.556768 87.610395 
L 138.708124 87.706271 
L 138.859867 87.620228 
L 139.011208 87.732255 
L 139.162815 87.60915 
L 139.314421 87.723703 
L 139.466103 87.641514 
L 139.617543 87.715931 
L 139.769217 87.618515 
L 139.920665 87.750146 
L 140.072294 87.575698 
L 140.223817 87.750126 
L 140.375461 87.603679 
L 140.526961 87.683628 
L 140.75434 87.623108 
L 140.830128 87.74932 
L 140.906023 87.693637 
L 141.05753 87.650545 
L 141.133341 87.776328 
L 141.209122 87.702294 
L 141.284887 87.563844 
L 141.436433 87.791848 
L 141.512274 87.695294 
L 141.588138 87.564493 
L 141.663865 87.621704 
L 141.815418 87.681077 
L 141.967123 87.615611 
L 142.118578 87.723047 
L 142.270252 87.689201 
L 142.421783 87.80625 
L 142.649041 87.679801 
L 143.255345 87.713821 
L 143.331277 87.765103 
L 143.482694 87.580928 
L 143.710073 87.723083 
L 143.861793 87.726399 
L 144.013203 87.727772 
L 144.089059 87.582594 
L 144.16487 87.636561 
L 144.316438 87.649615 
L 144.468007 87.585024 
L 144.61978 87.646295 
L 144.771151 87.65512 
L 144.922742 89.4436 
L 145.604766 99.493356 
L 145.680607 99.362795 
L 145.832199 99.257869 
L 146.059547 99.106309 
L 146.893155 99.136619 
L 147.347921 99.057362 
L 147.878468 99.055009 
L 311.656429 99.055444 
L 311.732179 99.58821 
L 312.111111 105.974726 
L 312.641673 113.895486 
L 313.17206 121.344052 
L 313.32381 120.680884 
L 313.399439 120.916257 
L 313.475235 120.794988 
L 313.551084 120.697224 
L 313.62697 120.816563 
L 313.702599 120.756783 
L 314.005766 120.659996 
L 314.157312 120.812645 
L 314.309017 120.69462 
L 314.384699 120.774263 
L 314.536335 120.670149 
L 314.83945 120.735083 
L 314.991011 120.725528 
L 315.066806 120.800025 
L 315.142609 120.718764 
L 315.218458 120.642074 
L 315.369966 120.730416 
L 315.521519 120.656375 
L 315.597474 120.809299 
L 315.67308 120.764314 
L 315.900459 120.719005 
L 316.052081 120.769834 
L 316.279437 120.781932 
L 316.506771 120.760497 
L 316.582574 120.886292 
L 316.734203 120.576308 
L 316.809893 120.670935 
L 316.885711 120.75084 
L 317.037287 120.71979 
L 317.264651 120.760052 
L 317.416242 120.646605 
L 317.567788 120.780234 
L 317.719379 120.646134 
L 317.870978 120.780963 
L 318.022569 120.649518 
L 318.098327 120.765393 
L 318.325646 120.65506 
L 318.553116 120.704883 
L 318.704624 120.716553 
L 318.780457 120.831299 
L 318.856275 120.765075 
L 318.931988 120.684044 
L 319.007798 120.762212 
L 319.083564 120.804352 
L 319.235147 120.628064 
L 319.386723 120.769505 
L 319.614065 120.699656 
L 319.841429 120.697231 
L 320.372043 120.758967 
L 320.523551 120.606956 
L 320.675112 120.724954 
L 320.826703 120.740928 
L 320.978264 120.797815 
L 321.129848 120.657909 
L 321.281416 120.786042 
L 321.433008 120.658974 
L 321.584576 120.751406 
L 321.73619 120.68217 
L 321.887728 120.782668 
L 322.115085 120.73417 
L 322.266668 120.793375 
L 322.418214 120.743249 
L 322.569851 120.707676 
L 322.645608 120.630167 
L 322.79729 120.807253 
L 323.024564 120.669684 
L 323.252102 120.707314 
L 323.630891 120.713053 
L 323.782459 120.798363 
L 323.934134 120.728917 
L 324.085611 120.774722 
L 324.237301 120.666067 
L 324.38874 120.695112 
L 324.5404 120.715647 
L 324.69187 120.850385 
L 324.919226 120.752487 
L 324.995052 120.837778 
L 325.14659 120.680001 
L 325.298235 120.780041 
L 325.449735 120.665252 
L 325.601372 120.763168 
L 325.828698 120.695602 
L 325.98038 120.759395 
L 326.131857 120.681226 
L 326.283464 120.757964 
L 326.359206 120.645929 
L 326.43504 120.724009 
L 326.510843 120.819439 
L 326.738222 120.7078 
L 326.814048 120.759403 
L 326.965563 120.652568 
L 327.19289 120.760919 
L 327.344504 120.642853 
L 327.49611 120.718708 
L 327.647663 118.869623 
L 329.011795 98.549039 
L 329.163363 98.674943 
L 329.466576 98.936098 
L 331.437042 99.071336 
L 362.661676 99.075992 
L 362.661676 99.075992 
" clip-path="url(#p8326993dec)" style="fill: none; stroke: #328c06; stroke-width: 0.4; stroke-linecap: round"/>
   </g>
   <g id="patch_6">
    <path d="M 44.352 123.570302 
L 44.352 74.592802 
" style="fill: none; stroke: #000000; stroke-linejoin: miter; stroke-linecap: square"/>
   </g>
   <g id="patch_7">
    <path d="M 44.352 123.570302 
L 377.81928 123.570302 
" style="fill: none; stroke: #000000; stroke-linejoin: miter; stroke-linecap: square"/>
   </g>
  </g>
  <g id="axes_3">
   <g id="patch_8">
    <path d="M 44.352 187.363104 
L 377.81928 187.363104 
L 377.81928 138.385604 
L 44.352 138.385604 
z
" style="fill: #ffffff"/>
   </g>
   <g id="matplotlib.axis_5">
    <g id="xtick_19">
     <g id="line2d_58">
      <path d="M 59.509604 187.363104 
L 59.509604 138.385604 
" clip-path="url(#p07ea09e01d)" style="fill: none; stroke: #b0b0b0; stroke-width: 0.1; stroke-linecap: round"/>
     </g>
     <g id="line2d_59"/>
     <g id="text_12">
      <!-- 0 -->
      <g style="fill: #262626" transform="translate(57.282729 196.18201) scale(0.07 -0.07)">
       <use xlink:href="#DejaVuSerif-30"/>
      </g>
     </g>
    </g>
    <g id="xtick_20">
     <g id="line2d_60">
      <path d="M 97.403615 187.363104 
L 97.403615 138.385604 
" clip-path="url(#p07ea09e01d)" style="fill: none; stroke: #b0b0b0; stroke-width: 0.1; stroke-linecap: round"/>
     </g>
     <g id="line2d_61"/>
     <g id="text_13">
      <!-- 5 -->
      <g style="fill: #262626" transform="translate(95.17674 196.18201) scale(0.07 -0.07)">
       <use xlink:href="#DejaVuSerif-35"/>
      </g>
     </g>
    </g>
    <g id="xtick_21">
     <g id="line2d_62">
      <path d="M 135.297626 187.363104 
L 135.297626 138.385604 
" clip-path="url(#p07ea09e01d)" style="fill: none; stroke: #b0b0b0; stroke-width: 0.1; stroke-linecap: round"/>
     </g>
     <g id="line2d_63"/>
     <g id="text_14">
      <!-- 10 -->
      <g style="fill: #262626" transform="translate(130.843876 196.18201) scale(0.07 -0.07)">
       <defs>
        <path id="DejaVuSerif-31" d="M 909 0 
L 909 331 
L 1722 331 
L 1722 4213 
L 781 3603 
L 781 4013 
L 1919 4750 
L 2350 4750 
L 2350 331 
L 3163 331 
L 3163 0 
L 909 0 
z
" transform="scale(0.015625)"/>
       </defs>
       <use xlink:href="#DejaVuSerif-31"/>
       <use xlink:href="#DejaVuSerif-30" x="63.623047"/>
      </g>
     </g>
    </g>
    <g id="xtick_22">
     <g id="line2d_64">
      <path d="M 173.191637 187.363104 
L 173.191637 138.385604 
" clip-path="url(#p07ea09e01d)" style="fill: none; stroke: #b0b0b0; stroke-width: 0.1; stroke-linecap: round"/>
     </g>
     <g id="line2d_65"/>
     <g id="text_15">
      <!-- 15 -->
      <g style="fill: #262626" transform="translate(168.737887 196.18201) scale(0.07 -0.07)">
       <use xlink:href="#DejaVuSerif-31"/>
       <use xlink:href="#DejaVuSerif-35" x="63.623047"/>
      </g>
     </g>
    </g>
    <g id="xtick_23">
     <g id="line2d_66">
      <path d="M 211.085648 187.363104 
L 211.085648 138.385604 
" clip-path="url(#p07ea09e01d)" style="fill: none; stroke: #b0b0b0; stroke-width: 0.1; stroke-linecap: round"/>
     </g>
     <g id="line2d_67"/>
     <g id="text_16">
      <!-- 20 -->
      <g style="fill: #262626" transform="translate(206.631898 196.18201) scale(0.07 -0.07)">
       <use xlink:href="#DejaVuSerif-32"/>
       <use xlink:href="#DejaVuSerif-30" x="63.623047"/>
      </g>
     </g>
    </g>
    <g id="xtick_24">
     <g id="line2d_68">
      <path d="M 248.979659 187.363104 
L 248.979659 138.385604 
" clip-path="url(#p07ea09e01d)" style="fill: none; stroke: #b0b0b0; stroke-width: 0.1; stroke-linecap: round"/>
     </g>
     <g id="line2d_69"/>
     <g id="text_17">
      <!-- 25 -->
      <g style="fill: #262626" transform="translate(244.525909 196.18201) scale(0.07 -0.07)">
       <use xlink:href="#DejaVuSerif-32"/>
       <use xlink:href="#DejaVuSerif-35" x="63.623047"/>
      </g>
     </g>
    </g>
    <g id="xtick_25">
     <g id="line2d_70">
      <path d="M 286.87367 187.363104 
L 286.87367 138.385604 
" clip-path="url(#p07ea09e01d)" style="fill: none; stroke: #b0b0b0; stroke-width: 0.1; stroke-linecap: round"/>
     </g>
     <g id="line2d_71"/>
     <g id="text_18">
      <!-- 30 -->
      <g style="fill: #262626" transform="translate(282.41992 196.18201) scale(0.07 -0.07)">
       <defs>
        <path id="DejaVuSerif-33" d="M 622 4469 
Q 988 4606 1323 4678 
Q 1659 4750 1953 4750 
Q 2638 4750 3022 4454 
Q 3406 4159 3406 3634 
Q 3406 3213 3140 2930 
Q 2875 2647 2388 2547 
Q 2963 2466 3280 2130 
Q 3597 1794 3597 1259 
Q 3597 606 3158 257 
Q 2719 -91 1894 -91 
Q 1528 -91 1179 -12 
Q 831 66 488 225 
L 488 1131 
L 838 1131 
Q 869 681 1141 450 
Q 1413 219 1906 219 
Q 2384 219 2661 495 
Q 2938 772 2938 1253 
Q 2938 1803 2653 2086 
Q 2369 2369 1819 2369 
L 1522 2369 
L 1522 2688 
L 1678 2688 
Q 2225 2688 2498 2914 
Q 2772 3141 2772 3597 
Q 2772 4006 2547 4223 
Q 2322 4441 1900 4441 
Q 1478 4441 1245 4241 
Q 1013 4041 972 3647 
L 622 3647 
L 622 4469 
z
" transform="scale(0.015625)"/>
       </defs>
       <use xlink:href="#DejaVuSerif-33"/>
       <use xlink:href="#DejaVuSerif-30" x="63.623047"/>
      </g>
     </g>
    </g>
    <g id="xtick_26">
     <g id="line2d_72">
      <path d="M 324.767681 187.363104 
L 324.767681 138.385604 
" clip-path="url(#p07ea09e01d)" style="fill: none; stroke: #b0b0b0; stroke-width: 0.1; stroke-linecap: round"/>
     </g>
     <g id="line2d_73"/>
     <g id="text_19">
      <!-- 35 -->
      <g style="fill: #262626" transform="translate(320.313931 196.18201) scale(0.07 -0.07)">
       <use xlink:href="#DejaVuSerif-33"/>
       <use xlink:href="#DejaVuSerif-35" x="63.623047"/>
      </g>
     </g>
    </g>
    <g id="xtick_27">
     <g id="line2d_74">
      <path d="M 362.661692 187.363104 
L 362.661692 138.385604 
" clip-path="url(#p07ea09e01d)" style="fill: none; stroke: #b0b0b0; stroke-width: 0.1; stroke-linecap: round"/>
     </g>
     <g id="line2d_75"/>
     <g id="text_20">
      <!-- 40 -->
      <g style="fill: #262626" transform="translate(358.207942 196.18201) scale(0.07 -0.07)">
       <defs>
        <path id="DejaVuSerif-34" d="M 2234 1581 
L 2234 4063 
L 641 1581 
L 2234 1581 
z
M 3609 0 
L 1484 0 
L 1484 331 
L 2234 331 
L 2234 1247 
L 197 1247 
L 197 1588 
L 2241 4750 
L 2859 4750 
L 2859 1581 
L 3750 1581 
L 3750 1247 
L 2859 1247 
L 2859 331 
L 3609 331 
L 3609 0 
z
" transform="scale(0.015625)"/>
       </defs>
       <use xlink:href="#DejaVuSerif-34"/>
       <use xlink:href="#DejaVuSerif-30" x="63.623047"/>
      </g>
     </g>
    </g>
    <g id="text_21">
     <!-- Time [s] -->
     <g style="fill: #262626" transform="translate(198.670796 206.196854) scale(0.06 -0.06)">
      <defs>
       <path id="DejaVuSerif-54" d="M 1222 0 
L 1222 331 
L 1819 331 
L 1819 4294 
L 447 4294 
L 447 3566 
L 63 3566 
L 63 4666 
L 4206 4666 
L 4206 3566 
L 3822 3566 
L 3822 4294 
L 2450 4294 
L 2450 331 
L 3047 331 
L 3047 0 
L 1222 0 
z
" transform="scale(0.015625)"/>
       <path id="DejaVuSerif-69" d="M 622 4353 
Q 622 4497 726 4603 
Q 831 4709 978 4709 
Q 1122 4709 1226 4603 
Q 1331 4497 1331 4353 
Q 1331 4206 1228 4103 
Q 1125 4000 978 4000 
Q 831 4000 726 4103 
Q 622 4206 622 4353 
z
M 1356 331 
L 1900 331 
L 1900 0 
L 231 0 
L 231 331 
L 781 331 
L 781 2988 
L 231 2988 
L 231 3322 
L 1356 3322 
L 1356 331 
z
" transform="scale(0.015625)"/>
       <path id="DejaVuSerif-6d" d="M 3316 2675 
Q 3481 3041 3739 3227 
Q 3997 3413 4341 3413 
Q 4863 3413 5119 3089 
Q 5375 2766 5375 2113 
L 5375 331 
L 5894 331 
L 5894 0 
L 4300 0 
L 4300 331 
L 4800 331 
L 4800 2047 
Q 4800 2556 4650 2772 
Q 4500 2988 4153 2988 
Q 3769 2988 3567 2697 
Q 3366 2406 3366 1850 
L 3366 331 
L 3866 331 
L 3866 0 
L 2291 0 
L 2291 331 
L 2791 331 
L 2791 2069 
Q 2791 2566 2641 2777 
Q 2491 2988 2144 2988 
Q 1759 2988 1557 2697 
Q 1356 2406 1356 1850 
L 1356 331 
L 1856 331 
L 1856 0 
L 263 0 
L 263 331 
L 781 331 
L 781 2994 
L 231 2994 
L 231 3322 
L 1356 3322 
L 1356 2731 
Q 1516 3063 1762 3238 
Q 2009 3413 2322 3413 
Q 2709 3413 2968 3220 
Q 3228 3028 3316 2675 
z
" transform="scale(0.015625)"/>
       <path id="DejaVuSerif-73" d="M 359 184 
L 359 959 
L 691 959 
Q 703 588 923 403 
Q 1144 219 1575 219 
Q 1963 219 2166 364 
Q 2369 509 2369 788 
Q 2369 1006 2220 1140 
Q 2072 1275 1594 1428 
L 1178 1569 
Q 750 1706 558 1912 
Q 366 2119 366 2438 
Q 366 2894 700 3153 
Q 1034 3413 1625 3413 
Q 1888 3413 2178 3344 
Q 2469 3275 2778 3144 
L 2778 2419 
L 2447 2419 
Q 2434 2741 2221 2922 
Q 2009 3103 1644 3103 
Q 1281 3103 1095 2975 
Q 909 2847 909 2591 
Q 909 2381 1050 2254 
Q 1191 2128 1613 1997 
L 2069 1856 
Q 2541 1709 2748 1489 
Q 2956 1269 2956 922 
Q 2956 450 2595 179 
Q 2234 -91 1600 -91 
Q 1278 -91 972 -22 
Q 666 47 359 184 
z
" transform="scale(0.015625)"/>
      </defs>
      <use xlink:href="#DejaVuSerif-54"/>
      <use xlink:href="#DejaVuSerif-69" x="66.699219"/>
      <use xlink:href="#DejaVuSerif-6d" x="98.681641"/>
      <use xlink:href="#DejaVuSerif-65" x="193.505859"/>
      <use xlink:href="#DejaVuSerif-20" x="252.685547"/>
      <use xlink:href="#DejaVuSerif-5b" x="284.472656"/>
      <use xlink:href="#DejaVuSerif-73" x="323.486328"/>
      <use xlink:href="#DejaVuSerif-5d" x="374.804688"/>
     </g>
    </g>
   </g>
   <g id="matplotlib.axis_6">
    <g id="ytick_7">
     <g id="line2d_76">
      <path d="M 44.352 174.742455 
L 377.81928 174.742455 
" clip-path="url(#p07ea09e01d)" style="fill: none; stroke: #b0b0b0; stroke-width: 0.1; stroke-linecap: round"/>
     </g>
     <g id="line2d_77"/>
     <g id="text_22">
      <!-- −0.5 -->
      <g style="fill: #262626" transform="translate(23.854031 177.401908) scale(0.07 -0.07)">
       <use xlink:href="#DejaVuSerif-2212"/>
       <use xlink:href="#DejaVuSerif-30" x="83.789062"/>
       <use xlink:href="#DejaVuSerif-2e" x="147.412109"/>
       <use xlink:href="#DejaVuSerif-35" x="179.199219"/>
      </g>
     </g>
    </g>
    <g id="ytick_8">
     <g id="line2d_78">
      <path d="M 44.352 161.641771 
L 377.81928 161.641771 
" clip-path="url(#p07ea09e01d)" style="fill: none; stroke: #b0b0b0; stroke-width: 0.1; stroke-linecap: round"/>
     </g>
     <g id="line2d_79"/>
     <g id="text_23">
      <!-- 0.0 -->
      <g style="fill: #262626" transform="translate(29.719813 164.301224) scale(0.07 -0.07)">
       <use xlink:href="#DejaVuSerif-30"/>
       <use xlink:href="#DejaVuSerif-2e" x="63.623047"/>
       <use xlink:href="#DejaVuSerif-30" x="95.410156"/>
      </g>
     </g>
    </g>
    <g id="ytick_9">
     <g id="line2d_80">
      <path d="M 44.352 148.541088 
L 377.81928 148.541088 
" clip-path="url(#p07ea09e01d)" style="fill: none; stroke: #b0b0b0; stroke-width: 0.1; stroke-linecap: round"/>
     </g>
     <g id="line2d_81"/>
     <g id="text_24">
      <!-- 0.5 -->
      <g style="fill: #262626" transform="translate(29.719813 151.200541) scale(0.07 -0.07)">
       <use xlink:href="#DejaVuSerif-30"/>
       <use xlink:href="#DejaVuSerif-2e" x="63.623047"/>
       <use xlink:href="#DejaVuSerif-35" x="95.410156"/>
      </g>
     </g>
    </g>
    <g id="text_25">
     <!-- $\psi^{(\bullet)}-\psi^A$ [deg] -->
     <g style="fill: #262626" transform="translate(18.474031 184.264354) rotate(-90) scale(0.06 -0.06)">
      <defs>
       <path id="DejaVuSans-Oblique-3c8" d="M 1591 -78 
Q 891 38 616 341 
Q 278 713 425 1472 
L 819 3500 
L 1400 3500 
L 1009 1494 
Q 900 922 1119 684 
Q 1313 478 1691 434 
L 2284 3500 
L 2856 3500 
L 2263 438 
Q 2681 481 2928 688 
Q 3247 950 3353 1497 
L 3741 3500 
L 4322 3500 
L 3928 1475 
Q 3775 688 3300 344 
Q 2872 34 2163 -75 
L 1919 -1331 
L 1347 -1331 
L 1591 -78 
z
" transform="scale(0.015625)"/>
      </defs>
      <use xlink:href="#DejaVuSans-Oblique-3c8" transform="translate(0 0.60625)"/>
      <use xlink:href="#DejaVuSans-28" transform="translate(70.432943 38.8875) scale(0.7)"/>
      <use xlink:href="#DejaVuSans-2219" transform="translate(97.742513 38.8875) scale(0.7)"/>
      <use xlink:href="#DejaVuSans-29" transform="translate(141.560872 38.8875) scale(0.7)"/>
      <use xlink:href="#DejaVuSans-2212" transform="translate(191.08724 0.60625)"/>
      <use xlink:href="#DejaVuSans-Oblique-3c8" transform="translate(294.358724 0.60625)"/>
      <use xlink:href="#DejaVuSans-Oblique-41" transform="translate(364.791667 38.8875) scale(0.7)"/>
      <use xlink:href="#DejaVuSerif-20" transform="translate(415.411784 0.60625)"/>
      <use xlink:href="#DejaVuSerif-5b" transform="translate(447.198893 0.60625)"/>
      <use xlink:href="#DejaVuSerif-64" transform="translate(486.212565 0.60625)"/>
      <use xlink:href="#DejaVuSerif-65" transform="translate(550.226237 0.60625)"/>
      <use xlink:href="#DejaVuSerif-67" transform="translate(609.405924 0.60625)"/>
      <use xlink:href="#DejaVuSerif-5d" transform="translate(673.419596 0.60625)"/>
     </g>
    </g>
   </g>
   <g id="line2d_82">
    <path d="M 59.509604 161.641771 
L 362.661676 161.641771 
L 362.661676 161.641771 
" clip-path="url(#p07ea09e01d)" style="fill: none; stroke: #2a2eec; stroke-width: 0.4; stroke-linecap: round"/>
   </g>
   <g id="line2d_83">
    <path d="M 59.509604 162.078073 
L 62.541117 162.184894 
L 67.467437 162.618394 
L 73.985305 163.135912 
L 78.001866 163.216052 
L 82.170586 163.073206 
L 86.262821 162.69845 
L 91.71949 161.971215 
L 97.555198 160.993418 
L 113.243304 158.211189 
L 118.396874 157.56553 
L 123.777861 157.148627 
L 131.205163 156.59999 
L 136.207105 156.303177 
L 139.769217 156.325264 
L 144.392173 156.600412 
L 149.924706 156.923162 
L 154.775132 156.90965 
L 160.762446 156.689729 
L 165.916077 156.306533 
L 181.604145 154.720677 
L 188.121892 153.68923 
L 198.353222 151.912242 
L 210.706829 149.505216 
L 236.5504 145.281682 
L 242.310419 144.621091 
L 249.813319 143.99814 
L 253.90588 143.953362 
L 261.560501 144.136377 
L 269.669773 144.260134 
L 277.324485 144.100685 
L 283.311701 143.80277 
L 287.404201 143.356869 
L 296.423021 142.338255 
L 303.16817 141.649295 
L 312.868976 140.718804 
L 315.748936 140.626003 
L 317.643606 140.814272 
L 319.538277 141.227003 
L 321.50878 141.886892 
L 323.630891 142.83799 
L 325.828698 144.074622 
L 328.102346 145.611036 
L 333.862342 149.714611 
L 336.514801 151.148857 
L 342.123145 153.818101 
L 348.489331 156.640923 
L 355.537655 159.483111 
L 361.070242 161.752446 
L 362.661676 162.453312 
L 362.661676 162.453312 
" clip-path="url(#p07ea09e01d)" style="fill: none; stroke: #fa7c17; stroke-width: 0.4; stroke-linecap: round"/>
   </g>
   <g id="line2d_84">
    <path d="M 59.509604 161.130151 
L 62.920103 161.021 
L 67.088436 160.669478 
L 71.332558 160.072732 
L 76.486105 159.119911 
L 83.761771 157.571869 
L 89.824828 156.067298 
L 95.96365 154.329982 
L 104.75503 151.77313 
L 109.454016 150.674639 
L 113.243304 150.008343 
L 117.032743 149.554898 
L 120.367385 149.367572 
L 125.21791 149.356062 
L 130.674768 149.516578 
L 133.175531 149.825872 
L 135.600763 150.341624 
L 138.026085 151.100079 
L 140.526961 152.119621 
L 143.255345 153.479616 
L 146.286889 155.257862 
L 149.242622 156.845287 
L 153.183614 158.695769 
L 158.640412 161.015555 
L 163.036049 162.676727 
L 167.12861 163.952642 
L 174.707397 166.022726 
L 181.14944 167.611908 
L 186.909223 168.790799 
L 192.138619 169.654514 
L 195.85227 170.047523 
L 199.793217 170.225288 
L 209.418334 170.565609 
L 252.844984 173.448535 
L 260.423657 174.207788 
L 271.943406 175.272556 
L 277.703289 176.008831 
L 284.14527 177.112267 
L 289.071696 178.138101 
L 294.149418 179.450149 
L 306.12391 182.879624 
L 313.551084 184.892687 
L 315.29417 185.11152 
L 317.037287 185.108502 
L 318.780457 184.888511 
L 320.599347 184.435462 
L 322.49401 183.732186 
L 324.5404 182.730489 
L 326.510843 181.517677 
L 328.708627 179.896766 
L 330.679116 178.55151 
L 333.028598 177.202861 
L 336.060103 175.739205 
L 339.546436 174.261882 
L 343.184299 172.965111 
L 348.034573 171.489003 
L 357.887099 168.75566 
L 362.661676 167.541309 
L 362.661676 167.541309 
" clip-path="url(#p07ea09e01d)" style="fill: none; stroke: #328c06; stroke-width: 0.4; stroke-linecap: round"/>
   </g>
   <g id="patch_9">
    <path d="M 44.352 187.363104 
L 44.352 138.385604 
" style="fill: none; stroke: #000000; stroke-linejoin: miter; stroke-linecap: square"/>
   </g>
   <g id="patch_10">
    <path d="M 44.352 187.363104 
L 377.81928 187.363104 
" style="fill: none; stroke: #000000; stroke-linejoin: miter; stroke-linecap: square"/>
   </g>
  </g>
 </g>
 <defs>
  <clipPath id="p69dd6d1fb3">
   <rect x="44.352" y="10.8" width="333.46728" height="48.9775"/>
  </clipPath>
  <clipPath id="p8326993dec">
   <rect x="44.352" y="74.592802" width="333.46728" height="48.9775"/>
  </clipPath>
  <clipPath id="p07ea09e01d">
   <rect x="44.352" y="138.385604" width="333.46728" height="48.9775"/>
  </clipPath>
 </defs>
</svg>
