<?xml version="1.0" encoding="utf-8" standalone="no"?>
<!DOCTYPE svg PUBLIC "-//W3C//DTD SVG 1.1//EN"
  "http://www.w3.org/Graphics/SVG/1.1/DTD/svg11.dtd">
<svg xmlns:xlink="http://www.w3.org/1999/xlink" width="388.61928pt" height="218.623104pt" viewBox="0 0 388.61928 218.623104" xmlns="http://www.w3.org/2000/svg" version="1.1">
 <metadata>
  <rdf:RDF xmlns:dc="http://purl.org/dc/elements/1.1/" xmlns:cc="http://creativecommons.org/ns#" xmlns:rdf="http://www.w3.org/1999/02/22-rdf-syntax-ns#">
   <cc:Work>
    <dc:type rdf:resource="http://purl.org/dc/dcmitype/StillImage"/>
    <dc:date>2024-11-15T08:17:32.221078</dc:date>
    <dc:format>image/svg+xml</dc:format>
    <dc:creator>
     <cc:Agent>
      <dc:title>Matplotlib v3.8.2, https://matplotlib.org/</dc:title>
     </cc:Agent>
    </dc:creator>
   </cc:Work>
  </rdf:RDF>
 </metadata>
 <defs>
  <style type="text/css">*{stroke-linejoin: round; stroke-linecap: butt}</style>
 </defs>
 <g id="figure_1">
  <g id="patch_1">
   <path d="M 0 218.623104 
L 388.61928 218.623104 
L 388.61928 0 
L 0 0 
z
" style="fill: #ffffff"/>
  </g>
  <g id="axes_1">
   <g id="patch_2">
    <path d="M 33.305084 195.348177 
L 385.61904 195.348177 
L 385.61904 3.00024 
L 33.305084 3.00024 
z
" style="fill: #ffffff"/>
   </g>
   <g id="matplotlib.axis_1">
    <g id="xtick_1">
     <g id="line2d_1"/>
     <g id="text_1">
      <!-- −10 -->
      <g style="fill: #262626" transform="translate(49.166829 204.167083) scale(0.07 -0.07)">
       <defs>
        <path id="DejaVuSerif-2212" d="M 678 2259 
L 4684 2259 
L 4684 1753 
L 678 1753 
L 678 2259 
z
" transform="scale(0.015625)"/>
        <path id="DejaVuSerif-31" d="M 909 0 
L 909 331 
L 1722 331 
L 1722 4213 
L 781 3603 
L 781 4013 
L 1919 4750 
L 2350 4750 
L 2350 331 
L 3163 331 
L 3163 0 
L 909 0 
z
" transform="scale(0.015625)"/>
        <path id="DejaVuSerif-30" d="M 2034 219 
Q 2513 219 2750 744 
Q 2988 1269 2988 2328 
Q 2988 3391 2750 3916 
Q 2513 4441 2034 4441 
Q 1556 4441 1318 3916 
Q 1081 3391 1081 2328 
Q 1081 1269 1318 744 
Q 1556 219 2034 219 
z
M 2034 -91 
Q 1275 -91 848 546 
Q 422 1184 422 2328 
Q 422 3475 848 4112 
Q 1275 4750 2034 4750 
Q 2797 4750 3222 4112 
Q 3647 3475 3647 2328 
Q 3647 1184 3222 546 
Q 2797 -91 2034 -91 
z
" transform="scale(0.015625)"/>
       </defs>
       <use xlink:href="#DejaVuSerif-2212"/>
       <use xlink:href="#DejaVuSerif-31" x="83.789062"/>
       <use xlink:href="#DejaVuSerif-30" x="147.412109"/>
      </g>
     </g>
    </g>
    <g id="xtick_2">
     <g id="line2d_2"/>
     <g id="text_2">
      <!-- −5 -->
      <g style="fill: #262626" transform="translate(126.500329 204.167083) scale(0.07 -0.07)">
       <defs>
        <path id="DejaVuSerif-35" d="M 3219 4666 
L 3219 4153 
L 1081 4153 
L 1081 2816 
Q 1244 2928 1461 2984 
Q 1678 3041 1947 3041 
Q 2703 3041 3140 2622 
Q 3578 2203 3578 1478 
Q 3578 738 3136 323 
Q 2694 -91 1894 -91 
Q 1572 -91 1234 -12 
Q 897 66 544 225 
L 544 1131 
L 897 1131 
Q 925 688 1179 453 
Q 1434 219 1894 219 
Q 2388 219 2653 544 
Q 2919 869 2919 1478 
Q 2919 2084 2655 2407 
Q 2391 2731 1894 2731 
Q 1613 2731 1398 2631 
Q 1184 2531 1019 2322 
L 750 2322 
L 750 4666 
L 3219 4666 
z
" transform="scale(0.015625)"/>
       </defs>
       <use xlink:href="#DejaVuSerif-2212"/>
       <use xlink:href="#DejaVuSerif-35" x="83.789062"/>
      </g>
     </g>
    </g>
    <g id="xtick_3">
     <g id="line2d_3"/>
     <g id="text_3">
      <!-- 0 -->
      <g style="fill: #262626" transform="translate(204.539845 204.167083) scale(0.07 -0.07)">
       <use xlink:href="#DejaVuSerif-30"/>
      </g>
     </g>
    </g>
    <g id="xtick_4">
     <g id="line2d_4"/>
     <g id="text_4">
      <!-- 5 -->
      <g style="fill: #262626" transform="translate(279.646469 204.167083) scale(0.07 -0.07)">
       <use xlink:href="#DejaVuSerif-35"/>
      </g>
     </g>
    </g>
    <g id="xtick_5">
     <g id="line2d_5"/>
     <g id="text_5">
      <!-- 10 -->
      <g style="fill: #262626" transform="translate(352.526219 204.167083) scale(0.07 -0.07)">
       <use xlink:href="#DejaVuSerif-31"/>
       <use xlink:href="#DejaVuSerif-30" x="63.623047"/>
      </g>
     </g>
    </g>
    <g id="text_6">
     <!-- Drift angle $\beta$ [deg] -->
     <g style="fill: #262626" transform="translate(181.232062 214.242864) scale(0.06 -0.06)">
      <defs>
       <path id="DejaVuSerif-44" d="M 1581 331 
L 2163 331 
Q 3072 331 3558 850 
Q 4044 1369 4044 2338 
Q 4044 3306 3559 3818 
Q 3075 4331 2163 4331 
L 1581 4331 
L 1581 331 
z
M 353 0 
L 353 331 
L 947 331 
L 947 4331 
L 353 4331 
L 353 4666 
L 2209 4666 
Q 3416 4666 4089 4050 
Q 4763 3434 4763 2338 
Q 4763 1238 4088 619 
Q 3413 0 2209 0 
L 353 0 
z
" transform="scale(0.015625)"/>
       <path id="DejaVuSerif-72" d="M 3059 3328 
L 3059 2497 
L 2728 2497 
Q 2713 2744 2591 2866 
Q 2469 2988 2234 2988 
Q 1809 2988 1582 2694 
Q 1356 2400 1356 1850 
L 1356 331 
L 2022 331 
L 2022 0 
L 263 0 
L 263 331 
L 781 331 
L 781 2994 
L 231 2994 
L 231 3322 
L 1356 3322 
L 1356 2731 
Q 1525 3078 1790 3245 
Q 2056 3413 2438 3413 
Q 2578 3413 2733 3391 
Q 2888 3369 3059 3328 
z
" transform="scale(0.015625)"/>
       <path id="DejaVuSerif-69" d="M 622 4353 
Q 622 4497 726 4603 
Q 831 4709 978 4709 
Q 1122 4709 1226 4603 
Q 1331 4497 1331 4353 
Q 1331 4206 1228 4103 
Q 1125 4000 978 4000 
Q 831 4000 726 4103 
Q 622 4206 622 4353 
z
M 1356 331 
L 1900 331 
L 1900 0 
L 231 0 
L 231 331 
L 781 331 
L 781 2988 
L 231 2988 
L 231 3322 
L 1356 3322 
L 1356 331 
z
" transform="scale(0.015625)"/>
       <path id="DejaVuSerif-66" d="M 2753 4078 
L 2450 4078 
Q 2447 4313 2317 4434 
Q 2188 4556 1941 4556 
Q 1619 4556 1487 4379 
Q 1356 4203 1356 3750 
L 1356 3322 
L 2284 3322 
L 2284 2988 
L 1356 2988 
L 1356 331 
L 2094 331 
L 2094 0 
L 231 0 
L 231 331 
L 781 331 
L 781 2988 
L 231 2988 
L 231 3322 
L 781 3322 
L 781 3738 
Q 781 4294 1070 4578 
Q 1359 4863 1919 4863 
Q 2128 4863 2337 4825 
Q 2547 4788 2753 4709 
L 2753 4078 
z
" transform="scale(0.015625)"/>
       <path id="DejaVuSerif-74" d="M 691 2988 
L 184 2988 
L 184 3322 
L 691 3322 
L 691 4353 
L 1269 4353 
L 1269 3322 
L 2350 3322 
L 2350 2988 
L 1269 2988 
L 1269 878 
Q 1269 456 1350 337 
Q 1431 219 1650 219 
Q 1875 219 1978 351 
Q 2081 484 2088 781 
L 2522 781 
Q 2497 328 2275 118 
Q 2053 -91 1600 -91 
Q 1103 -91 897 129 
Q 691 350 691 878 
L 691 2988 
z
" transform="scale(0.015625)"/>
       <path id="DejaVuSerif-20" transform="scale(0.015625)"/>
       <path id="DejaVuSerif-61" d="M 2547 1044 
L 2547 1747 
L 1806 1747 
Q 1378 1747 1168 1562 
Q 959 1378 959 997 
Q 959 650 1171 447 
Q 1384 244 1747 244 
Q 2106 244 2326 466 
Q 2547 688 2547 1044 
z
M 3122 2075 
L 3122 331 
L 3634 331 
L 3634 0 
L 2547 0 
L 2547 359 
Q 2356 128 2106 18 
Q 1856 -91 1522 -91 
Q 969 -91 644 203 
Q 319 497 319 997 
Q 319 1513 691 1797 
Q 1063 2081 1741 2081 
L 2547 2081 
L 2547 2309 
Q 2547 2688 2317 2895 
Q 2088 3103 1672 3103 
Q 1328 3103 1125 2947 
Q 922 2791 872 2484 
L 575 2484 
L 575 3156 
Q 875 3284 1158 3348 
Q 1441 3413 1709 3413 
Q 2400 3413 2761 3070 
Q 3122 2728 3122 2075 
z
" transform="scale(0.015625)"/>
       <path id="DejaVuSerif-6e" d="M 263 0 
L 263 331 
L 781 331 
L 781 2988 
L 231 2988 
L 231 3322 
L 1356 3322 
L 1356 2731 
Q 1516 3069 1770 3241 
Q 2025 3413 2363 3413 
Q 2913 3413 3172 3097 
Q 3431 2781 3431 2113 
L 3431 331 
L 3944 331 
L 3944 0 
L 2356 0 
L 2356 331 
L 2853 331 
L 2853 1931 
Q 2853 2541 2703 2767 
Q 2553 2994 2175 2994 
Q 1775 2994 1565 2701 
Q 1356 2409 1356 1850 
L 1356 331 
L 1856 331 
L 1856 0 
L 263 0 
z
" transform="scale(0.015625)"/>
       <path id="DejaVuSerif-67" d="M 3359 2988 
L 3359 72 
Q 3359 -644 2965 -1033 
Q 2572 -1422 1844 -1422 
Q 1516 -1422 1216 -1362 
Q 916 -1303 641 -1184 
L 641 -488 
L 941 -488 
Q 997 -813 1206 -963 
Q 1416 -1113 1806 -1113 
Q 2313 -1113 2548 -827 
Q 2784 -541 2784 72 
L 2784 519 
Q 2616 206 2355 57 
Q 2094 -91 1709 -91 
Q 1097 -91 708 395 
Q 319 881 319 1663 
Q 319 2444 706 2928 
Q 1094 3413 1709 3413 
Q 2094 3413 2355 3264 
Q 2616 3116 2784 2803 
L 2784 3322 
L 3909 3322 
L 3909 2988 
L 3359 2988 
z
M 2784 1825 
Q 2784 2422 2554 2737 
Q 2325 3053 1888 3053 
Q 1444 3053 1217 2703 
Q 991 2353 991 1663 
Q 991 975 1217 622 
Q 1444 269 1888 269 
Q 2325 269 2554 583 
Q 2784 897 2784 1497 
L 2784 1825 
z
" transform="scale(0.015625)"/>
       <path id="DejaVuSerif-6c" d="M 1313 331 
L 1856 331 
L 1856 0 
L 184 0 
L 184 331 
L 738 331 
L 738 4531 
L 184 4531 
L 184 4863 
L 1313 4863 
L 1313 331 
z
" transform="scale(0.015625)"/>
       <path id="DejaVuSerif-65" d="M 3469 1600 
L 991 1600 
L 991 1575 
Q 991 903 1244 561 
Q 1497 219 1991 219 
Q 2369 219 2611 417 
Q 2853 616 2950 1006 
L 3413 1006 
Q 3275 459 2904 184 
Q 2534 -91 1931 -91 
Q 1203 -91 761 389 
Q 319 869 319 1663 
Q 319 2450 753 2931 
Q 1188 3413 1894 3413 
Q 2647 3413 3050 2948 
Q 3453 2484 3469 1600 
z
M 2791 1931 
Q 2772 2513 2545 2808 
Q 2319 3103 1894 3103 
Q 1497 3103 1269 2806 
Q 1041 2509 991 1931 
L 2791 1931 
z
" transform="scale(0.015625)"/>
       <path id="DejaVuSans-Oblique-3b2" d="M 872 216 
L 572 -1331 
L -6 -1331 
L 928 3478 
Q 1206 4903 2538 4903 
Q 3888 4903 3659 3700 
Q 3503 2844 2894 2531 
Q 3713 2250 3553 1416 
Q 3272 -69 1759 -66 
Q 1097 -63 872 216 
z
M 1019 966 
Q 1259 422 1875 425 
Q 2775 425 2966 1406 
Q 3138 2288 1675 2219 
L 1778 2750 
Q 2909 2731 3106 3750 
Q 3241 4438 2509 4434 
Q 1691 4434 1503 3459 
L 1019 966 
z
" transform="scale(0.015625)"/>
       <path id="DejaVuSerif-5b" d="M 550 4863 
L 2003 4863 
L 2003 4531 
L 1147 4531 
L 1147 -513 
L 2003 -513 
L 2003 -844 
L 550 -844 
L 550 4863 
z
" transform="scale(0.015625)"/>
       <path id="DejaVuSerif-64" d="M 3359 331 
L 3909 331 
L 3909 0 
L 2784 0 
L 2784 519 
Q 2616 206 2355 57 
Q 2094 -91 1709 -91 
Q 1097 -91 708 395 
Q 319 881 319 1663 
Q 319 2444 706 2928 
Q 1094 3413 1709 3413 
Q 2094 3413 2355 3264 
Q 2616 3116 2784 2803 
L 2784 4531 
L 2241 4531 
L 2241 4863 
L 3359 4863 
L 3359 331 
z
M 2784 1497 
L 2784 1825 
Q 2784 2422 2554 2737 
Q 2325 3053 1888 3053 
Q 1444 3053 1217 2703 
Q 991 2353 991 1663 
Q 991 975 1217 622 
Q 1444 269 1888 269 
Q 2325 269 2554 583 
Q 2784 897 2784 1497 
z
" transform="scale(0.015625)"/>
       <path id="DejaVuSerif-5d" d="M 1947 4863 
L 1947 -844 
L 494 -844 
L 494 -513 
L 1350 -513 
L 1350 4531 
L 494 4531 
L 494 4863 
L 1947 4863 
z
" transform="scale(0.015625)"/>
      </defs>
      <use xlink:href="#DejaVuSerif-44" transform="translate(0 0.390625)"/>
      <use xlink:href="#DejaVuSerif-72" transform="translate(80.175781 0.390625)"/>
      <use xlink:href="#DejaVuSerif-69" transform="translate(127.978516 0.390625)"/>
      <use xlink:href="#DejaVuSerif-66" transform="translate(159.960938 0.390625)"/>
      <use xlink:href="#DejaVuSerif-74" transform="translate(196.972656 0.390625)"/>
      <use xlink:href="#DejaVuSerif-20" transform="translate(237.158203 0.390625)"/>
      <use xlink:href="#DejaVuSerif-61" transform="translate(268.945312 0.390625)"/>
      <use xlink:href="#DejaVuSerif-6e" transform="translate(328.564453 0.390625)"/>
      <use xlink:href="#DejaVuSerif-67" transform="translate(392.96875 0.390625)"/>
      <use xlink:href="#DejaVuSerif-6c" transform="translate(456.982422 0.390625)"/>
      <use xlink:href="#DejaVuSerif-65" transform="translate(488.964844 0.390625)"/>
      <use xlink:href="#DejaVuSerif-20" transform="translate(548.144531 0.390625)"/>
      <use xlink:href="#DejaVuSans-Oblique-3b2" transform="translate(579.931641 0.390625)"/>
      <use xlink:href="#DejaVuSerif-20" transform="translate(643.75 0.390625)"/>
      <use xlink:href="#DejaVuSerif-5b" transform="translate(675.537109 0.390625)"/>
      <use xlink:href="#DejaVuSerif-64" transform="translate(714.550781 0.390625)"/>
      <use xlink:href="#DejaVuSerif-65" transform="translate(778.564453 0.390625)"/>
      <use xlink:href="#DejaVuSerif-67" transform="translate(837.744141 0.390625)"/>
      <use xlink:href="#DejaVuSerif-5d" transform="translate(901.757812 0.390625)"/>
     </g>
    </g>
   </g>
   <g id="matplotlib.axis_2">
    <g id="ytick_1">
     <g id="line2d_6"/>
     <g id="text_7">
      <!-- −0.4 -->
      <g style="fill: #262626" transform="translate(12.807115 170.944776) scale(0.07 -0.07)">
       <defs>
        <path id="DejaVuSerif-2e" d="M 603 325 
Q 603 500 722 622 
Q 841 744 1019 744 
Q 1191 744 1312 622 
Q 1434 500 1434 325 
Q 1434 153 1312 31 
Q 1191 -91 1019 -91 
Q 841 -91 722 29 
Q 603 150 603 325 
z
" transform="scale(0.015625)"/>
        <path id="DejaVuSerif-34" d="M 2234 1581 
L 2234 4063 
L 641 1581 
L 2234 1581 
z
M 3609 0 
L 1484 0 
L 1484 331 
L 2234 331 
L 2234 1247 
L 197 1247 
L 197 1588 
L 2241 4750 
L 2859 4750 
L 2859 1581 
L 3750 1581 
L 3750 1247 
L 2859 1247 
L 2859 331 
L 3609 331 
L 3609 0 
z
" transform="scale(0.015625)"/>
       </defs>
       <use xlink:href="#DejaVuSerif-2212"/>
       <use xlink:href="#DejaVuSerif-30" x="83.789062"/>
       <use xlink:href="#DejaVuSerif-2e" x="147.412109"/>
       <use xlink:href="#DejaVuSerif-34" x="179.199219"/>
      </g>
     </g>
    </g>
    <g id="ytick_2">
     <g id="line2d_7"/>
     <g id="text_8">
      <!-- −0.2 -->
      <g style="fill: #262626" transform="translate(12.807115 136.547656) scale(0.07 -0.07)">
       <defs>
        <path id="DejaVuSerif-32" d="M 819 3553 
L 469 3553 
L 469 4384 
Q 803 4563 1142 4656 
Q 1481 4750 1806 4750 
Q 2534 4750 2956 4397 
Q 3378 4044 3378 3438 
Q 3378 2753 2422 1800 
Q 2347 1728 2309 1691 
L 1131 513 
L 3078 513 
L 3078 1088 
L 3444 1088 
L 3444 0 
L 434 0 
L 434 341 
L 1850 1753 
Q 2319 2222 2519 2614 
Q 2719 3006 2719 3438 
Q 2719 3909 2473 4175 
Q 2228 4441 1797 4441 
Q 1350 4441 1106 4219 
Q 863 3997 819 3553 
z
" transform="scale(0.015625)"/>
       </defs>
       <use xlink:href="#DejaVuSerif-2212"/>
       <use xlink:href="#DejaVuSerif-30" x="83.789062"/>
       <use xlink:href="#DejaVuSerif-2e" x="147.412109"/>
       <use xlink:href="#DejaVuSerif-32" x="179.199219"/>
      </g>
     </g>
    </g>
    <g id="ytick_3">
     <g id="line2d_8"/>
     <g id="text_9">
      <!-- 0.0 -->
      <g style="fill: #262626" transform="translate(18.672896 102.150536) scale(0.07 -0.07)">
       <use xlink:href="#DejaVuSerif-30"/>
       <use xlink:href="#DejaVuSerif-2e" x="63.623047"/>
       <use xlink:href="#DejaVuSerif-30" x="95.410156"/>
      </g>
     </g>
    </g>
    <g id="ytick_4">
     <g id="line2d_9"/>
     <g id="text_10">
      <!-- 0.2 -->
      <g style="fill: #262626" transform="translate(18.672896 67.753416) scale(0.07 -0.07)">
       <use xlink:href="#DejaVuSerif-30"/>
       <use xlink:href="#DejaVuSerif-2e" x="63.623047"/>
       <use xlink:href="#DejaVuSerif-32" x="95.410156"/>
      </g>
     </g>
    </g>
    <g id="ytick_5">
     <g id="line2d_10"/>
     <g id="text_11">
      <!-- 0.4 -->
      <g style="fill: #262626" transform="translate(18.672896 33.356296) scale(0.07 -0.07)">
       <use xlink:href="#DejaVuSerif-30"/>
       <use xlink:href="#DejaVuSerif-2e" x="63.623047"/>
       <use xlink:href="#DejaVuSerif-34" x="95.410156"/>
      </g>
     </g>
    </g>
    <g id="text_12">
     <!-- Yaw rate $r'$ [-] -->
     <g style="fill: #262626" transform="translate(7.559302 119.964208) rotate(-90) scale(0.06 -0.06)">
      <defs>
       <path id="DejaVuSerif-59" d="M 1209 0 
L 1209 331 
L 1806 331 
L 1806 2009 
L 366 4331 
L -72 4331 
L -72 4666 
L 1663 4666 
L 1663 4331 
L 1119 4331 
L 2284 2444 
L 3450 4331 
L 2925 4331 
L 2925 4666 
L 4281 4666 
L 4281 4331 
L 3841 4331 
L 2438 2069 
L 2438 331 
L 3034 331 
L 3034 0 
L 1209 0 
z
" transform="scale(0.015625)"/>
       <path id="DejaVuSerif-77" d="M 3072 3322 
L 3922 728 
L 4672 2988 
L 4191 2988 
L 4191 3322 
L 5394 3322 
L 5394 2988 
L 5025 2988 
L 4038 0 
L 3559 0 
L 2741 2484 
L 1919 0 
L 1459 0 
L 475 2988 
L 103 2988 
L 103 3322 
L 1606 3322 
L 1606 2988 
L 1069 2988 
L 1813 728 
L 2669 3322 
L 3072 3322 
z
" transform="scale(0.015625)"/>
       <path id="DejaVuSans-Oblique-72" d="M 2853 2969 
Q 2766 3016 2653 3041 
Q 2541 3066 2413 3066 
Q 1953 3066 1609 2717 
Q 1266 2369 1153 1784 
L 800 0 
L 225 0 
L 909 3500 
L 1484 3500 
L 1375 2956 
Q 1603 3259 1920 3421 
Q 2238 3584 2597 3584 
Q 2691 3584 2781 3573 
Q 2872 3563 2963 3538 
L 2853 2969 
z
" transform="scale(0.015625)"/>
       <path id="Cmsy10-30" d="M 225 347 
Q 184 359 184 409 
L 966 3316 
Q 1003 3434 1093 3506 
Q 1184 3578 1300 3578 
Q 1450 3578 1564 3479 
Q 1678 3381 1678 3231 
Q 1678 3166 1644 3084 
L 488 319 
Q 466 275 428 275 
Q 394 275 320 306 
Q 247 338 225 347 
z
" transform="scale(0.015625)"/>
       <path id="DejaVuSerif-2d" d="M 281 1959 
L 1881 1959 
L 1881 1472 
L 281 1472 
L 281 1959 
z
" transform="scale(0.015625)"/>
      </defs>
      <use xlink:href="#DejaVuSerif-59" transform="translate(0 0.584375)"/>
      <use xlink:href="#DejaVuSerif-61" transform="translate(66.015625 0.584375)"/>
      <use xlink:href="#DejaVuSerif-77" transform="translate(125.634766 0.584375)"/>
      <use xlink:href="#DejaVuSerif-20" transform="translate(211.230469 0.584375)"/>
      <use xlink:href="#DejaVuSerif-72" transform="translate(243.017578 0.584375)"/>
      <use xlink:href="#DejaVuSerif-61" transform="translate(290.820312 0.584375)"/>
      <use xlink:href="#DejaVuSerif-74" transform="translate(350.439453 0.584375)"/>
      <use xlink:href="#DejaVuSerif-65" transform="translate(390.625 0.584375)"/>
      <use xlink:href="#DejaVuSerif-20" transform="translate(449.804688 0.584375)"/>
      <use xlink:href="#DejaVuSans-Oblique-72" transform="translate(481.591797 0.584375)"/>
      <use xlink:href="#Cmsy10-30" transform="translate(527.354974 38.865625) scale(0.7)"/>
      <use xlink:href="#DejaVuSerif-20" transform="translate(549.332513 0.584375)"/>
      <use xlink:href="#DejaVuSerif-5b" transform="translate(581.119622 0.584375)"/>
      <use xlink:href="#DejaVuSerif-2d" transform="translate(620.133294 0.584375)"/>
      <use xlink:href="#DejaVuSerif-5d" transform="translate(653.922357 0.584375)"/>
     </g>
    </g>
   </g>
   <g id="line2d_11">
    <path d="M 206.76672 99.491083 
L 206.041352 100.797454 
L 205.471376 101.386276 
L 204.190563 102.692149 
L 200.321828 106.670665 
L 196.57338 110.590674 
L 194.147845 113.008937 
L 191.902924 114.923749 
L 189.702831 116.530718 
L 186.797976 118.340838 
L 183.07482 120.362821 
L 177.427398 123.173363 
L 153.118197 134.643542 
L 152.216989 134.714621 
L 151.526073 134.547723 
L 151.016835 134.197416 
L 150.670333 133.706962 
L 150.43446 132.983308 
L 150.346314 131.902181 
L 150.458949 130.573213 
L 150.82002 127.319019 
L 150.994492 123.191515 
L 151.336715 117.740394 
L 151.665724 116.484402 
L 152.243905 115.104978 
L 153.018964 113.793487 
L 154.018008 112.535867 
L 155.24805 111.354061 
L 156.679417 110.2777 
L 158.531737 109.171893 
L 161.215769 107.850053 
L 167.473107 105.210017 
L 172.5213 103.217136 
L 183.246632 99.223054 
L 188.271484 96.990939 
L 192.16135 95.071716 
L 201.953532 90.184085 
L 207.372242 87.845518 
L 220.974613 82.258867 
L 270.967307 59.418516 
L 286.101844 53.168782 
L 289.407251 52.1094 
L 295.548764 50.400198 
L 300.547263 48.941301 
L 308.453377 46.728884 
L 309.568629 46.595396 
L 310.09874 46.737688 
L 310.495545 47.076465 
L 310.763876 47.598046 
L 310.886956 48.385668 
L 310.819794 49.490842 
L 310.469611 51.184554 
L 309.672542 53.746953 
L 308.269127 58.47412 
L 305.920391 66.755489 
L 305.171985 68.394848 
L 304.085992 70.124691 
L 302.988691 71.453968 
L 301.302712 73.134005 
L 299.637824 74.465305 
L 297.187333 76.127728 
L 294.310375 77.80932 
L 290.965804 79.470659 
L 286.7388 81.312815 
L 279.340801 84.209465 
L 259.556406 91.645181 
L 254.032419 93.766804 
L 246.249803 96.892184 
L 237.163932 100.388674 
L 233.084643 102.035783 
L 230.059854 103.49735 
L 225.620112 105.616683 
L 210.307911 112.194553 
L 202.455186 115.36804 
L 195.153802 118.152702 
L 184.464713 121.941138 
L 173.179845 125.959047 
L 167.580097 128.20853 
L 161.480357 130.869339 
L 154.915988 133.996406 
L 144.299927 139.126561 
L 140.904063 140.459214 
L 137.990936 141.367014 
L 137.47459 141.512347 
L 137.47459 141.512347 
" clip-path="url(#pd8da9ab53b)" style="fill: none; stroke: #2a2eec; stroke-width: 0.4; stroke-linecap: round"/>
   </g>
   <g id="line2d_12">
    <path d="M 206.76672 99.491083 
L 205.130351 101.635691 
L 198.037277 110.687385 
L 192.387054 117.628436 
L 187.824258 122.870248 
L 184.207836 126.696706 
L 181.145604 129.615519 
L 177.773433 132.490958 
L 174.349234 135.087891 
L 170.6195 137.63155 
L 166.277383 140.328622 
L 161.209735 143.195561 
L 155.066519 146.414704 
L 144.788291 151.421115 
L 127.737966 159.440978 
L 118.397995 163.629095 
L 111.116842 166.704111 
L 105.527328 168.940853 
L 103.813984 169.462689 
L 102.522121 169.65408 
L 101.291174 169.609246 
L 100.305346 169.336761 
L 99.52363 168.89994 
L 98.854663 168.286923 
L 98.248207 167.425375 
L 97.726928 166.275275 
L 97.323186 164.79519 
L 97.084551 163.075831 
L 97.019326 160.679406 
L 97.189344 157.973666 
L 97.650504 154.767402 
L 98.405021 151.242425 
L 99.261222 148.232176 
L 101.913443 139.398716 
L 104.199497 132.091736 
L 105.27215 129.36748 
L 106.32996 127.244296 
L 107.725065 124.95713 
L 109.186575 122.976702 
L 110.833903 121.109735 
L 112.902495 119.103297 
L 115.223191 117.169545 
L 118.277957 114.910333 
L 122.491698 112.07947 
L 128.076612 108.671478 
L 137.16052 103.4914 
L 167.466339 86.703146 
L 174.865408 82.892016 
L 182.777987 79.137149 
L 190.640302 75.626232 
L 200.375746 71.565083 
L 207.706539 68.721858 
L 216.974835 65.308659 
L 231.46403 59.969867 
L 276.511031 43.135 
L 283.450846 40.789173 
L 290.595974 38.567638 
L 298.491387 36.178425 
L 316.087168 30.971733 
L 322.41361 29.502797 
L 327.696431 28.235454 
L 331.906405 27.01574 
L 344.546391 23.288032 
L 348.227339 22.383893 
L 365.095575 17.5842 
L 367.004483 17.176361 
L 368.578569 17.174651 
L 369.19785 17.396871 
L 369.473172 17.811377 
L 369.592107 18.445133 
L 369.55767 19.517917 
L 369.269069 20.975779 
L 368.632108 22.958418 
L 366.096944 29.614865 
L 363.746121 35.616125 
L 361.782776 39.977687 
L 359.382677 44.799268 
L 354.034083 54.729029 
L 350.703018 60.591142 
L 348.203063 64.573045 
L 345.927044 67.798019 
L 343.458011 70.910838 
L 341.089048 73.552671 
L 338.752726 75.821912 
L 336.415951 77.771027 
L 333.189776 80.141573 
L 329.955974 82.242913 
L 326.766846 84.12065 
L 322.366992 86.434394 
L 317.883439 88.508248 
L 306.243251 93.352212 
L 283.178112 102.735247 
L 273.990165 106.93151 
L 259.565026 113.511496 
L 247.716299 118.402214 
L 237.599517 122.419308 
L 222.463868 127.983959 
L 170.275871 147.301326 
L 156.412795 152.72817 
L 142.181289 158.634603 
L 119.693713 167.972584 
L 114.618251 169.746473 
L 106.306282 172.368674 
L 101.675481 173.644981 
L 92.008468 175.995353 
L 64.375831 183.224541 
L 60.431522 184.348183 
L 52.597558 186.498831 
L 50.040514 186.559561 
L 49.736368 186.373214 
L 49.479699 185.933709 
L 49.335969 185.17979 
L 49.360976 184.062767 
L 49.645495 182.486653 
L 50.30995 180.13225 
L 51.665185 176.189593 
L 53.651184 171.126359 
L 57.15052 163.019062 
L 60.4004 156.12238 
L 68.262566 140.292798 
L 70.414854 136.320117 
L 72.279228 133.321353 
L 74.38036 130.357072 
L 76.505737 127.737928 
L 78.800009 125.271508 
L 81.758143 122.463815 
L 84.572004 120.068762 
L 87.531536 117.823167 
L 90.813877 115.619581 
L 94.856376 113.117591 
L 100.607364 109.933629 
L 106.687665 106.92529 
L 118.551664 101.270118 
L 134.191042 93.742345 
L 153.840631 83.295219 
L 160.348402 80.17295 
L 168.479719 76.469666 
L 175.80685 73.333095 
L 185.488244 69.484202 
L 196.349421 65.022522 
L 202.948327 62.055847 
L 211.062227 58.19458 
L 211.062227 58.19458 
" clip-path="url(#pd8da9ab53b)" style="fill: none; stroke: #fa7c17; stroke-width: 0.4; stroke-linecap: round"/>
   </g>
   <g id="line2d_13">
    <defs>
     <path id="mc46c4197d7" d="M -1.5 1.5 
L 1.5 -1.5 
M -1.5 -1.5 
L 1.5 1.5 
" style="stroke: #328c06"/>
    </defs>
    <g clip-path="url(#pd8da9ab53b)">
     <use xlink:href="#mc46c4197d7" x="206.76672" y="42.16255" style="fill: #328c06; stroke: #328c06"/>
     <use xlink:href="#mc46c4197d7" x="206.76672" y="56.494683" style="fill: #328c06; stroke: #328c06"/>
     <use xlink:href="#mc46c4197d7" x="206.76672" y="77.992883" style="fill: #328c06; stroke: #328c06"/>
     <use xlink:href="#mc46c4197d7" x="206.76672" y="156.819616" style="fill: #328c06; stroke: #328c06"/>
     <use xlink:href="#mc46c4197d7" x="206.76672" y="142.487483" style="fill: #328c06; stroke: #328c06"/>
     <use xlink:href="#mc46c4197d7" x="206.76672" y="120.989283" style="fill: #328c06; stroke: #328c06"/>
     <use xlink:href="#mc46c4197d7" x="236.80937" y="56.494683" style="fill: #328c06; stroke: #328c06"/>
     <use xlink:href="#mc46c4197d7" x="56.55347" y="156.819616" style="fill: #328c06; stroke: #328c06"/>
     <use xlink:href="#mc46c4197d7" x="131.660095" y="156.819616" style="fill: #328c06; stroke: #328c06"/>
     <use xlink:href="#mc46c4197d7" x="56.55347" y="142.487483" style="fill: #328c06; stroke: #328c06"/>
     <use xlink:href="#mc46c4197d7" x="176.72407" y="142.487483" style="fill: #328c06; stroke: #328c06"/>
     <use xlink:href="#mc46c4197d7" x="131.660095" y="142.487483" style="fill: #328c06; stroke: #328c06"/>
     <use xlink:href="#mc46c4197d7" x="176.72407" y="120.989283" style="fill: #328c06; stroke: #328c06"/>
     <use xlink:href="#mc46c4197d7" x="131.660095" y="120.989283" style="fill: #328c06; stroke: #328c06"/>
     <use xlink:href="#mc46c4197d7" x="236.80937" y="120.989283" style="fill: #328c06; stroke: #328c06"/>
     <use xlink:href="#mc46c4197d7" x="56.55347" y="120.962443" style="fill: #328c06; stroke: #328c06"/>
     <use xlink:href="#mc46c4197d7" x="356.979969" y="11.743328" style="fill: #328c06; stroke: #328c06"/>
     <use xlink:href="#mc46c4197d7" x="356.979969" y="42.16255" style="fill: #328c06; stroke: #328c06"/>
     <use xlink:href="#mc46c4197d7" x="281.873344" y="42.16255" style="fill: #328c06; stroke: #328c06"/>
     <use xlink:href="#mc46c4197d7" x="356.979969" y="56.494683" style="fill: #328c06; stroke: #328c06"/>
     <use xlink:href="#mc46c4197d7" x="281.873344" y="56.494683" style="fill: #328c06; stroke: #328c06"/>
     <use xlink:href="#mc46c4197d7" x="356.979969" y="78.019722" style="fill: #328c06; stroke: #328c06"/>
     <use xlink:href="#mc46c4197d7" x="131.660095" y="77.992883" style="fill: #328c06; stroke: #328c06"/>
     <use xlink:href="#mc46c4197d7" x="236.80937" y="78.019722" style="fill: #328c06; stroke: #328c06"/>
     <use xlink:href="#mc46c4197d7" x="236.80937" y="78.019722" style="fill: #328c06; stroke: #328c06"/>
     <use xlink:href="#mc46c4197d7" x="266.85202" y="78.019722" style="fill: #328c06; stroke: #328c06"/>
     <use xlink:href="#mc46c4197d7" x="266.85202" y="78.019722" style="fill: #328c06; stroke: #328c06"/>
     <use xlink:href="#mc46c4197d7" x="311.915994" y="78.019722" style="fill: #328c06; stroke: #328c06"/>
     <use xlink:href="#mc46c4197d7" x="311.915994" y="78.019722" style="fill: #328c06; stroke: #328c06"/>
     <use xlink:href="#mc46c4197d7" x="206.76672" y="57.33775" style="fill: #328c06; stroke: #328c06"/>
     <use xlink:href="#mc46c4197d7" x="206.76672" y="78.019722" style="fill: #328c06; stroke: #328c06"/>
     <use xlink:href="#mc46c4197d7" x="206.76672" y="77.992883" style="fill: #328c06; stroke: #328c06"/>
     <use xlink:href="#mc46c4197d7" x="206.76672" y="77.992883" style="fill: #328c06; stroke: #328c06"/>
     <use xlink:href="#mc46c4197d7" x="206.76672" y="120.989283" style="fill: #328c06; stroke: #328c06"/>
     <use xlink:href="#mc46c4197d7" x="206.76672" y="120.989283" style="fill: #328c06; stroke: #328c06"/>
     <use xlink:href="#mc46c4197d7" x="56.55347" y="99.491083" style="fill: #328c06; stroke: #328c06"/>
     <use xlink:href="#mc46c4197d7" x="191.745395" y="99.491083" style="fill: #328c06; stroke: #328c06"/>
     <use xlink:href="#mc46c4197d7" x="176.72407" y="99.491083" style="fill: #328c06; stroke: #328c06"/>
     <use xlink:href="#mc46c4197d7" x="146.68142" y="99.491083" style="fill: #328c06; stroke: #328c06"/>
     <use xlink:href="#mc46c4197d7" x="356.979969" y="99.491083" style="fill: #328c06; stroke: #328c06"/>
     <use xlink:href="#mc46c4197d7" x="221.788045" y="99.491083" style="fill: #328c06; stroke: #328c06"/>
     <use xlink:href="#mc46c4197d7" x="236.80937" y="99.491083" style="fill: #328c06; stroke: #328c06"/>
     <use xlink:href="#mc46c4197d7" x="266.85202" y="99.491083" style="fill: #328c06; stroke: #328c06"/>
     <use xlink:href="#mc46c4197d7" x="236.80937" y="99.491083" style="fill: #328c06; stroke: #328c06"/>
     <use xlink:href="#mc46c4197d7" x="266.85202" y="99.491083" style="fill: #328c06; stroke: #328c06"/>
     <use xlink:href="#mc46c4197d7" x="311.915994" y="99.491083" style="fill: #328c06; stroke: #328c06"/>
     <use xlink:href="#mc46c4197d7" x="146.68142" y="99.491083" style="fill: #328c06; stroke: #328c06"/>
     <use xlink:href="#mc46c4197d7" x="146.68142" y="99.491083" style="fill: #328c06; stroke: #328c06"/>
     <use xlink:href="#mc46c4197d7" x="266.85202" y="99.491083" style="fill: #328c06; stroke: #328c06"/>
     <use xlink:href="#mc46c4197d7" x="266.85202" y="99.491083" style="fill: #328c06; stroke: #328c06"/>
     <use xlink:href="#mc46c4197d7" x="206.76672" y="99.491083" style="fill: #328c06; stroke: #328c06"/>
     <use xlink:href="#mc46c4197d7" x="206.76672" y="99.491083" style="fill: #328c06; stroke: #328c06"/>
     <use xlink:href="#mc46c4197d7" x="206.76672" y="99.491083" style="fill: #328c06; stroke: #328c06"/>
     <use xlink:href="#mc46c4197d7" x="206.76672" y="99.491083" style="fill: #328c06; stroke: #328c06"/>
     <use xlink:href="#mc46c4197d7" x="206.76672" y="99.491083" style="fill: #328c06; stroke: #328c06"/>
     <use xlink:href="#mc46c4197d7" x="206.76672" y="99.491083" style="fill: #328c06; stroke: #328c06"/>
     <use xlink:href="#mc46c4197d7" x="206.76672" y="99.491083" style="fill: #328c06; stroke: #328c06"/>
     <use xlink:href="#mc46c4197d7" x="206.76672" y="99.491083" style="fill: #328c06; stroke: #328c06"/>
     <use xlink:href="#mc46c4197d7" x="206.76672" y="99.491083" style="fill: #328c06; stroke: #328c06"/>
     <use xlink:href="#mc46c4197d7" x="206.76672" y="99.491083" style="fill: #328c06; stroke: #328c06"/>
     <use xlink:href="#mc46c4197d7" x="206.76672" y="99.491083" style="fill: #328c06; stroke: #328c06"/>
     <use xlink:href="#mc46c4197d7" x="206.76672" y="99.491083" style="fill: #328c06; stroke: #328c06"/>
     <use xlink:href="#mc46c4197d7" x="206.76672" y="99.491083" style="fill: #328c06; stroke: #328c06"/>
     <use xlink:href="#mc46c4197d7" x="206.76672" y="99.491083" style="fill: #328c06; stroke: #328c06"/>
     <use xlink:href="#mc46c4197d7" x="206.76672" y="99.491083" style="fill: #328c06; stroke: #328c06"/>
     <use xlink:href="#mc46c4197d7" x="206.76672" y="99.491083" style="fill: #328c06; stroke: #328c06"/>
     <use xlink:href="#mc46c4197d7" x="206.76672" y="99.491083" style="fill: #328c06; stroke: #328c06"/>
     <use xlink:href="#mc46c4197d7" x="206.76672" y="99.491083" style="fill: #328c06; stroke: #328c06"/>
     <use xlink:href="#mc46c4197d7" x="206.76672" y="99.491083" style="fill: #328c06; stroke: #328c06"/>
     <use xlink:href="#mc46c4197d7" x="206.76672" y="99.491083" style="fill: #328c06; stroke: #328c06"/>
     <use xlink:href="#mc46c4197d7" x="206.76672" y="99.491083" style="fill: #328c06; stroke: #328c06"/>
     <use xlink:href="#mc46c4197d7" x="206.76672" y="99.491083" style="fill: #328c06; stroke: #328c06"/>
     <use xlink:href="#mc46c4197d7" x="206.76672" y="99.491083" style="fill: #328c06; stroke: #328c06"/>
     <use xlink:href="#mc46c4197d7" x="357.366017" y="43.102362" style="fill: #328c06; stroke: #328c06"/>
     <use xlink:href="#mc46c4197d7" x="365.821521" y="17.201322" style="fill: #328c06; stroke: #328c06"/>
     <use xlink:href="#mc46c4197d7" x="53.758001" y="159.208305" style="fill: #328c06; stroke: #328c06"/>
     <use xlink:href="#mc46c4197d7" x="293.402812" y="35.555916" style="fill: #328c06; stroke: #328c06"/>
     <use xlink:href="#mc46c4197d7" x="109.370401" y="132.064113" style="fill: #328c06; stroke: #328c06"/>
     <use xlink:href="#mc46c4197d7" x="312.261485" y="67.102081" style="fill: #328c06; stroke: #328c06"/>
     <use xlink:href="#mc46c4197d7" x="106.058349" y="147.666321" style="fill: #328c06; stroke: #328c06"/>
     <use xlink:href="#mc46c4197d7" x="317.434529" y="41.19088" style="fill: #328c06; stroke: #328c06"/>
     <use xlink:href="#mc46c4197d7" x="264.385368" y="78.31059" style="fill: #328c06; stroke: #328c06"/>
     <use xlink:href="#mc46c4197d7" x="264.016144" y="66.856244" style="fill: #328c06; stroke: #328c06"/>
     <use xlink:href="#mc46c4197d7" x="206.76672" y="99.491083" style="fill: #328c06; stroke: #328c06"/>
     <use xlink:href="#mc46c4197d7" x="206.76672" y="99.491083" style="fill: #328c06; stroke: #328c06"/>
     <use xlink:href="#mc46c4197d7" x="206.76672" y="99.491083" style="fill: #328c06; stroke: #328c06"/>
     <use xlink:href="#mc46c4197d7" x="206.76672" y="99.491083" style="fill: #328c06; stroke: #328c06"/>
     <use xlink:href="#mc46c4197d7" x="206.76672" y="99.491083" style="fill: #328c06; stroke: #328c06"/>
     <use xlink:href="#mc46c4197d7" x="206.76672" y="99.491083" style="fill: #328c06; stroke: #328c06"/>
     <use xlink:href="#mc46c4197d7" x="206.76672" y="99.491083" style="fill: #328c06; stroke: #328c06"/>
     <use xlink:href="#mc46c4197d7" x="206.76672" y="99.491083" style="fill: #328c06; stroke: #328c06"/>
    </g>
   </g>
   <g id="patch_3">
    <path d="M 33.305084 195.348176 
L 33.305084 3.00024 
" style="fill: none; stroke: #000000; stroke-linejoin: miter; stroke-linecap: square"/>
   </g>
   <g id="patch_4">
    <path d="M 33.305084 195.348177 
L 385.61904 195.348177 
" style="fill: none; stroke: #000000; stroke-linejoin: miter; stroke-linecap: square"/>
   </g>
   <g id="legend_1">
    <g id="line2d_14">
     <path d="M 39.605084 12.169146 
L 46.605084 12.169146 
L 53.605084 12.169146 
" style="fill: none; stroke: #2a2eec; stroke-width: 0.4; stroke-linecap: round"/>
    </g>
    <g id="text_13">
     <!-- zigzag 10/10 -->
     <g style="fill: #262626" transform="translate(59.205084 14.619146) scale(0.07 -0.07)">
      <defs>
       <path id="DejaVuSerif-7a" d="M 256 0 
L 256 269 
L 2338 2988 
L 691 2988 
L 691 2413 
L 359 2413 
L 359 3322 
L 3078 3322 
L 3078 3053 
L 997 331 
L 2803 331 
L 2803 934 
L 3138 934 
L 3138 0 
L 256 0 
z
" transform="scale(0.015625)"/>
       <path id="DejaVuSerif-2f" d="M 1656 4666 
L 2156 4666 
L 500 -594 
L 0 -594 
L 1656 4666 
z
" transform="scale(0.015625)"/>
      </defs>
      <use xlink:href="#DejaVuSerif-7a"/>
      <use xlink:href="#DejaVuSerif-69" x="52.685547"/>
      <use xlink:href="#DejaVuSerif-67" x="84.667969"/>
      <use xlink:href="#DejaVuSerif-7a" x="148.681641"/>
      <use xlink:href="#DejaVuSerif-61" x="201.367188"/>
      <use xlink:href="#DejaVuSerif-67" x="260.986328"/>
      <use xlink:href="#DejaVuSerif-20" x="325"/>
      <use xlink:href="#DejaVuSerif-31" x="356.787109"/>
      <use xlink:href="#DejaVuSerif-30" x="420.410156"/>
      <use xlink:href="#DejaVuSerif-2f" x="484.033203"/>
      <use xlink:href="#DejaVuSerif-31" x="517.724609"/>
      <use xlink:href="#DejaVuSerif-30" x="581.347656"/>
     </g>
    </g>
    <g id="line2d_15">
     <path d="M 39.605084 22.543365 
L 46.605084 22.543365 
L 53.605084 22.543365 
" style="fill: none; stroke: #fa7c17; stroke-width: 0.4; stroke-linecap: round"/>
    </g>
    <g id="text_14">
     <!-- zigzag 20/20 -->
     <g style="fill: #262626" transform="translate(59.205084 24.993365) scale(0.07 -0.07)">
      <use xlink:href="#DejaVuSerif-7a"/>
      <use xlink:href="#DejaVuSerif-69" x="52.685547"/>
      <use xlink:href="#DejaVuSerif-67" x="84.667969"/>
      <use xlink:href="#DejaVuSerif-7a" x="148.681641"/>
      <use xlink:href="#DejaVuSerif-61" x="201.367188"/>
      <use xlink:href="#DejaVuSerif-67" x="260.986328"/>
      <use xlink:href="#DejaVuSerif-20" x="325"/>
      <use xlink:href="#DejaVuSerif-32" x="356.787109"/>
      <use xlink:href="#DejaVuSerif-30" x="420.410156"/>
      <use xlink:href="#DejaVuSerif-2f" x="484.033203"/>
      <use xlink:href="#DejaVuSerif-32" x="517.724609"/>
      <use xlink:href="#DejaVuSerif-30" x="581.347656"/>
     </g>
    </g>
    <g id="line2d_16">
     <g>
      <use xlink:href="#mc46c4197d7" x="46.605084" y="32.917584" style="fill: #328c06; stroke: #328c06"/>
     </g>
    </g>
    <g id="text_15">
     <!-- VCT -->
     <g style="fill: #262626" transform="translate(59.205084 35.367584) scale(0.07 -0.07)">
      <defs>
       <path id="DejaVuSerif-56" d="M 1119 4331 
L 2497 750 
L 3872 4331 
L 3347 4331 
L 3347 4666 
L 4716 4666 
L 4716 4331 
L 4263 4331 
L 2597 0 
L 2059 0 
L 403 4331 
L -63 4331 
L -63 4666 
L 1638 4666 
L 1638 4331 
L 1119 4331 
z
" transform="scale(0.015625)"/>
       <path id="DejaVuSerif-43" d="M 4513 1234 
Q 4306 581 3820 245 
Q 3334 -91 2591 -91 
Q 2134 -91 1743 65 
Q 1353 222 1050 525 
Q 700 875 529 1320 
Q 359 1766 359 2328 
Q 359 3416 987 4083 
Q 1616 4750 2644 4750 
Q 3025 4750 3456 4650 
Q 3888 4550 4384 4347 
L 4384 3272 
L 4031 3272 
Q 3916 3859 3567 4137 
Q 3219 4416 2591 4416 
Q 1844 4416 1459 3886 
Q 1075 3356 1075 2328 
Q 1075 1303 1459 773 
Q 1844 244 2591 244 
Q 3113 244 3450 492 
Q 3788 741 3938 1234 
L 4513 1234 
z
" transform="scale(0.015625)"/>
       <path id="DejaVuSerif-54" d="M 1222 0 
L 1222 331 
L 1819 331 
L 1819 4294 
L 447 4294 
L 447 3566 
L 63 3566 
L 63 4666 
L 4206 4666 
L 4206 3566 
L 3822 3566 
L 3822 4294 
L 2450 4294 
L 2450 331 
L 3047 331 
L 3047 0 
L 1222 0 
z
" transform="scale(0.015625)"/>
      </defs>
      <use xlink:href="#DejaVuSerif-56"/>
      <use xlink:href="#DejaVuSerif-43" x="72.216797"/>
      <use xlink:href="#DejaVuSerif-54" x="148.730469"/>
     </g>
    </g>
   </g>
  </g>
 </g>
 <defs>
  <clipPath id="pd8da9ab53b">
   <rect x="33.305084" y="3.00024" width="352.313956" height="192.347937"/>
  </clipPath>
 </defs>
</svg>
