<?xml version="1.0" encoding="utf-8" standalone="no"?>
<!DOCTYPE svg PUBLIC "-//W3C//DTD SVG 1.1//EN"
  "http://www.w3.org/Graphics/SVG/1.1/DTD/svg11.dtd">
<svg xmlns:xlink="http://www.w3.org/1999/xlink" width="388.61928pt" height="218.623104pt" viewBox="0 0 388.61928 218.623104" xmlns="http://www.w3.org/2000/svg" version="1.1">
 <metadata>
  <rdf:RDF xmlns:dc="http://purl.org/dc/elements/1.1/" xmlns:cc="http://creativecommons.org/ns#" xmlns:rdf="http://www.w3.org/1999/02/22-rdf-syntax-ns#">
   <cc:Work>
    <dc:type rdf:resource="http://purl.org/dc/dcmitype/StillImage"/>
    <dc:date>2024-12-03T18:51:44.964533</dc:date>
    <dc:format>image/svg+xml</dc:format>
    <dc:creator>
     <cc:Agent>
      <dc:title>Matplotlib v3.8.2, https://matplotlib.org/</dc:title>
     </cc:Agent>
    </dc:creator>
   </cc:Work>
  </rdf:RDF>
 </metadata>
 <defs>
  <style type="text/css">*{stroke-linejoin: round; stroke-linecap: butt}</style>
 </defs>
 <g id="figure_1">
  <g id="patch_1">
   <path d="M 0 218.623104 
L 388.61928 218.623104 
L 388.61928 0 
L 0 0 
z
" style="fill: #ffffff"/>
  </g>
  <g id="axes_1">
   <g id="patch_2">
    <path d="M 40.308 187.363104 
L 377.81928 187.363104 
L 377.81928 10.8 
L 40.308 10.8 
z
" style="fill: #ffffff"/>
   </g>
   <g id="matplotlib.axis_1">
    <g id="xtick_1">
     <g id="line2d_1">
      <path d="M 50.553673 187.363104 
L 50.553673 10.8 
" clip-path="url(#p8f0f5ec9cb)" style="fill: none; stroke: #b0b0b0; stroke-width: 0.1; stroke-linecap: round"/>
     </g>
     <g id="line2d_2"/>
     <g id="text_1">
      <!-- 35 -->
      <g style="fill: #262626" transform="translate(46.099923 196.18201) scale(0.07 -0.07)">
       <defs>
        <path id="DejaVuSerif-33" d="M 622 4469 
Q 988 4606 1323 4678 
Q 1659 4750 1953 4750 
Q 2638 4750 3022 4454 
Q 3406 4159 3406 3634 
Q 3406 3213 3140 2930 
Q 2875 2647 2388 2547 
Q 2963 2466 3280 2130 
Q 3597 1794 3597 1259 
Q 3597 606 3158 257 
Q 2719 -91 1894 -91 
Q 1528 -91 1179 -12 
Q 831 66 488 225 
L 488 1131 
L 838 1131 
Q 869 681 1141 450 
Q 1413 219 1906 219 
Q 2384 219 2661 495 
Q 2938 772 2938 1253 
Q 2938 1803 2653 2086 
Q 2369 2369 1819 2369 
L 1522 2369 
L 1522 2688 
L 1678 2688 
Q 2225 2688 2498 2914 
Q 2772 3141 2772 3597 
Q 2772 4006 2547 4223 
Q 2322 4441 1900 4441 
Q 1478 4441 1245 4241 
Q 1013 4041 972 3647 
L 622 3647 
L 622 4469 
z
" transform="scale(0.015625)"/>
        <path id="DejaVuSerif-35" d="M 3219 4666 
L 3219 4153 
L 1081 4153 
L 1081 2816 
Q 1244 2928 1461 2984 
Q 1678 3041 1947 3041 
Q 2703 3041 3140 2622 
Q 3578 2203 3578 1478 
Q 3578 738 3136 323 
Q 2694 -91 1894 -91 
Q 1572 -91 1234 -12 
Q 897 66 544 225 
L 544 1131 
L 897 1131 
Q 925 688 1179 453 
Q 1434 219 1894 219 
Q 2388 219 2653 544 
Q 2919 869 2919 1478 
Q 2919 2084 2655 2407 
Q 2391 2731 1894 2731 
Q 1613 2731 1398 2631 
Q 1184 2531 1019 2322 
L 750 2322 
L 750 4666 
L 3219 4666 
z
" transform="scale(0.015625)"/>
       </defs>
       <use xlink:href="#DejaVuSerif-33"/>
       <use xlink:href="#DejaVuSerif-35" x="63.623047"/>
      </g>
     </g>
    </g>
    <g id="xtick_2">
     <g id="line2d_3">
      <path d="M 93.090317 187.363104 
L 93.090317 10.8 
" clip-path="url(#p8f0f5ec9cb)" style="fill: none; stroke: #b0b0b0; stroke-width: 0.1; stroke-linecap: round"/>
     </g>
     <g id="line2d_4"/>
     <g id="text_2">
      <!-- 40 -->
      <g style="fill: #262626" transform="translate(88.636567 196.18201) scale(0.07 -0.07)">
       <defs>
        <path id="DejaVuSerif-34" d="M 2234 1581 
L 2234 4063 
L 641 1581 
L 2234 1581 
z
M 3609 0 
L 1484 0 
L 1484 331 
L 2234 331 
L 2234 1247 
L 197 1247 
L 197 1588 
L 2241 4750 
L 2859 4750 
L 2859 1581 
L 3750 1581 
L 3750 1247 
L 2859 1247 
L 2859 331 
L 3609 331 
L 3609 0 
z
" transform="scale(0.015625)"/>
        <path id="DejaVuSerif-30" d="M 2034 219 
Q 2513 219 2750 744 
Q 2988 1269 2988 2328 
Q 2988 3391 2750 3916 
Q 2513 4441 2034 4441 
Q 1556 4441 1318 3916 
Q 1081 3391 1081 2328 
Q 1081 1269 1318 744 
Q 1556 219 2034 219 
z
M 2034 -91 
Q 1275 -91 848 546 
Q 422 1184 422 2328 
Q 422 3475 848 4112 
Q 1275 4750 2034 4750 
Q 2797 4750 3222 4112 
Q 3647 3475 3647 2328 
Q 3647 1184 3222 546 
Q 2797 -91 2034 -91 
z
" transform="scale(0.015625)"/>
       </defs>
       <use xlink:href="#DejaVuSerif-34"/>
       <use xlink:href="#DejaVuSerif-30" x="63.623047"/>
      </g>
     </g>
    </g>
    <g id="xtick_3">
     <g id="line2d_5">
      <path d="M 135.626961 187.363104 
L 135.626961 10.8 
" clip-path="url(#p8f0f5ec9cb)" style="fill: none; stroke: #b0b0b0; stroke-width: 0.1; stroke-linecap: round"/>
     </g>
     <g id="line2d_6"/>
     <g id="text_3">
      <!-- 45 -->
      <g style="fill: #262626" transform="translate(131.173211 196.18201) scale(0.07 -0.07)">
       <use xlink:href="#DejaVuSerif-34"/>
       <use xlink:href="#DejaVuSerif-35" x="63.623047"/>
      </g>
     </g>
    </g>
    <g id="xtick_4">
     <g id="line2d_7">
      <path d="M 178.163605 187.363104 
L 178.163605 10.8 
" clip-path="url(#p8f0f5ec9cb)" style="fill: none; stroke: #b0b0b0; stroke-width: 0.1; stroke-linecap: round"/>
     </g>
     <g id="line2d_8"/>
     <g id="text_4">
      <!-- 50 -->
      <g style="fill: #262626" transform="translate(173.709855 196.18201) scale(0.07 -0.07)">
       <use xlink:href="#DejaVuSerif-35"/>
       <use xlink:href="#DejaVuSerif-30" x="63.623047"/>
      </g>
     </g>
    </g>
    <g id="xtick_5">
     <g id="line2d_9">
      <path d="M 220.700249 187.363104 
L 220.700249 10.8 
" clip-path="url(#p8f0f5ec9cb)" style="fill: none; stroke: #b0b0b0; stroke-width: 0.1; stroke-linecap: round"/>
     </g>
     <g id="line2d_10"/>
     <g id="text_5">
      <!-- 55 -->
      <g style="fill: #262626" transform="translate(216.246499 196.18201) scale(0.07 -0.07)">
       <use xlink:href="#DejaVuSerif-35"/>
       <use xlink:href="#DejaVuSerif-35" x="63.623047"/>
      </g>
     </g>
    </g>
    <g id="xtick_6">
     <g id="line2d_11">
      <path d="M 263.236893 187.363104 
L 263.236893 10.8 
" clip-path="url(#p8f0f5ec9cb)" style="fill: none; stroke: #b0b0b0; stroke-width: 0.1; stroke-linecap: round"/>
     </g>
     <g id="line2d_12"/>
     <g id="text_6">
      <!-- 60 -->
      <g style="fill: #262626" transform="translate(258.783143 196.18201) scale(0.07 -0.07)">
       <defs>
        <path id="DejaVuSerif-36" d="M 2094 219 
Q 2534 219 2771 542 
Q 3009 866 3009 1472 
Q 3009 2078 2771 2401 
Q 2534 2725 2094 2725 
Q 1647 2725 1412 2412 
Q 1178 2100 1178 1509 
Q 1178 888 1415 553 
Q 1653 219 2094 219 
z
M 1075 2569 
Q 1288 2803 1556 2918 
Q 1825 3034 2163 3034 
Q 2859 3034 3264 2615 
Q 3669 2197 3669 1472 
Q 3669 763 3233 336 
Q 2797 -91 2069 -91 
Q 1278 -91 853 498 
Q 428 1088 428 2181 
Q 428 3406 931 4078 
Q 1434 4750 2350 4750 
Q 2597 4750 2869 4703 
Q 3141 4656 3425 4563 
L 3425 3794 
L 3072 3794 
Q 3034 4109 2831 4275 
Q 2628 4441 2284 4441 
Q 1678 4441 1381 3981 
Q 1084 3522 1075 2569 
z
" transform="scale(0.015625)"/>
       </defs>
       <use xlink:href="#DejaVuSerif-36"/>
       <use xlink:href="#DejaVuSerif-30" x="63.623047"/>
      </g>
     </g>
    </g>
    <g id="xtick_7">
     <g id="line2d_13">
      <path d="M 305.773538 187.363104 
L 305.773538 10.8 
" clip-path="url(#p8f0f5ec9cb)" style="fill: none; stroke: #b0b0b0; stroke-width: 0.1; stroke-linecap: round"/>
     </g>
     <g id="line2d_14"/>
     <g id="text_7">
      <!-- 65 -->
      <g style="fill: #262626" transform="translate(301.319788 196.18201) scale(0.07 -0.07)">
       <use xlink:href="#DejaVuSerif-36"/>
       <use xlink:href="#DejaVuSerif-35" x="63.623047"/>
      </g>
     </g>
    </g>
    <g id="xtick_8">
     <g id="line2d_15">
      <path d="M 348.310182 187.363104 
L 348.310182 10.8 
" clip-path="url(#p8f0f5ec9cb)" style="fill: none; stroke: #b0b0b0; stroke-width: 0.1; stroke-linecap: round"/>
     </g>
     <g id="line2d_16"/>
     <g id="text_8">
      <!-- 70 -->
      <g style="fill: #262626" transform="translate(343.856432 196.18201) scale(0.07 -0.07)">
       <defs>
        <path id="DejaVuSerif-37" d="M 3609 4347 
L 1784 0 
L 1319 0 
L 3059 4153 
L 903 4153 
L 903 3578 
L 538 3578 
L 538 4666 
L 3609 4666 
L 3609 4347 
z
" transform="scale(0.015625)"/>
       </defs>
       <use xlink:href="#DejaVuSerif-37"/>
       <use xlink:href="#DejaVuSerif-30" x="63.623047"/>
      </g>
     </g>
    </g>
    <g id="text_9">
     <!-- Time [s] -->
     <g style="fill: #262626" transform="translate(196.648796 206.196854) scale(0.06 -0.06)">
      <defs>
       <path id="DejaVuSerif-54" d="M 1222 0 
L 1222 331 
L 1819 331 
L 1819 4294 
L 447 4294 
L 447 3566 
L 63 3566 
L 63 4666 
L 4206 4666 
L 4206 3566 
L 3822 3566 
L 3822 4294 
L 2450 4294 
L 2450 331 
L 3047 331 
L 3047 0 
L 1222 0 
z
" transform="scale(0.015625)"/>
       <path id="DejaVuSerif-69" d="M 622 4353 
Q 622 4497 726 4603 
Q 831 4709 978 4709 
Q 1122 4709 1226 4603 
Q 1331 4497 1331 4353 
Q 1331 4206 1228 4103 
Q 1125 4000 978 4000 
Q 831 4000 726 4103 
Q 622 4206 622 4353 
z
M 1356 331 
L 1900 331 
L 1900 0 
L 231 0 
L 231 331 
L 781 331 
L 781 2988 
L 231 2988 
L 231 3322 
L 1356 3322 
L 1356 331 
z
" transform="scale(0.015625)"/>
       <path id="DejaVuSerif-6d" d="M 3316 2675 
Q 3481 3041 3739 3227 
Q 3997 3413 4341 3413 
Q 4863 3413 5119 3089 
Q 5375 2766 5375 2113 
L 5375 331 
L 5894 331 
L 5894 0 
L 4300 0 
L 4300 331 
L 4800 331 
L 4800 2047 
Q 4800 2556 4650 2772 
Q 4500 2988 4153 2988 
Q 3769 2988 3567 2697 
Q 3366 2406 3366 1850 
L 3366 331 
L 3866 331 
L 3866 0 
L 2291 0 
L 2291 331 
L 2791 331 
L 2791 2069 
Q 2791 2566 2641 2777 
Q 2491 2988 2144 2988 
Q 1759 2988 1557 2697 
Q 1356 2406 1356 1850 
L 1356 331 
L 1856 331 
L 1856 0 
L 263 0 
L 263 331 
L 781 331 
L 781 2994 
L 231 2994 
L 231 3322 
L 1356 3322 
L 1356 2731 
Q 1516 3063 1762 3238 
Q 2009 3413 2322 3413 
Q 2709 3413 2968 3220 
Q 3228 3028 3316 2675 
z
" transform="scale(0.015625)"/>
       <path id="DejaVuSerif-65" d="M 3469 1600 
L 991 1600 
L 991 1575 
Q 991 903 1244 561 
Q 1497 219 1991 219 
Q 2369 219 2611 417 
Q 2853 616 2950 1006 
L 3413 1006 
Q 3275 459 2904 184 
Q 2534 -91 1931 -91 
Q 1203 -91 761 389 
Q 319 869 319 1663 
Q 319 2450 753 2931 
Q 1188 3413 1894 3413 
Q 2647 3413 3050 2948 
Q 3453 2484 3469 1600 
z
M 2791 1931 
Q 2772 2513 2545 2808 
Q 2319 3103 1894 3103 
Q 1497 3103 1269 2806 
Q 1041 2509 991 1931 
L 2791 1931 
z
" transform="scale(0.015625)"/>
       <path id="DejaVuSerif-20" transform="scale(0.015625)"/>
       <path id="DejaVuSerif-5b" d="M 550 4863 
L 2003 4863 
L 2003 4531 
L 1147 4531 
L 1147 -513 
L 2003 -513 
L 2003 -844 
L 550 -844 
L 550 4863 
z
" transform="scale(0.015625)"/>
       <path id="DejaVuSerif-73" d="M 359 184 
L 359 959 
L 691 959 
Q 703 588 923 403 
Q 1144 219 1575 219 
Q 1963 219 2166 364 
Q 2369 509 2369 788 
Q 2369 1006 2220 1140 
Q 2072 1275 1594 1428 
L 1178 1569 
Q 750 1706 558 1912 
Q 366 2119 366 2438 
Q 366 2894 700 3153 
Q 1034 3413 1625 3413 
Q 1888 3413 2178 3344 
Q 2469 3275 2778 3144 
L 2778 2419 
L 2447 2419 
Q 2434 2741 2221 2922 
Q 2009 3103 1644 3103 
Q 1281 3103 1095 2975 
Q 909 2847 909 2591 
Q 909 2381 1050 2254 
Q 1191 2128 1613 1997 
L 2069 1856 
Q 2541 1709 2748 1489 
Q 2956 1269 2956 922 
Q 2956 450 2595 179 
Q 2234 -91 1600 -91 
Q 1278 -91 972 -22 
Q 666 47 359 184 
z
" transform="scale(0.015625)"/>
       <path id="DejaVuSerif-5d" d="M 1947 4863 
L 1947 -844 
L 494 -844 
L 494 -513 
L 1350 -513 
L 1350 4531 
L 494 4531 
L 494 4863 
L 1947 4863 
z
" transform="scale(0.015625)"/>
      </defs>
      <use xlink:href="#DejaVuSerif-54"/>
      <use xlink:href="#DejaVuSerif-69" x="66.699219"/>
      <use xlink:href="#DejaVuSerif-6d" x="98.681641"/>
      <use xlink:href="#DejaVuSerif-65" x="193.505859"/>
      <use xlink:href="#DejaVuSerif-20" x="252.685547"/>
      <use xlink:href="#DejaVuSerif-5b" x="284.472656"/>
      <use xlink:href="#DejaVuSerif-73" x="323.486328"/>
      <use xlink:href="#DejaVuSerif-5d" x="374.804688"/>
     </g>
    </g>
   </g>
   <g id="matplotlib.axis_2">
    <g id="ytick_1">
     <g id="line2d_17">
      <path d="M 40.308 184.912408 
L 377.81928 184.912408 
" clip-path="url(#p8f0f5ec9cb)" style="fill: none; stroke: #b0b0b0; stroke-width: 0.1; stroke-linecap: round"/>
     </g>
     <g id="line2d_18"/>
     <g id="text_10">
      <!-- −20 -->
      <g style="fill: #262626" transform="translate(22.034719 187.571861) scale(0.07 -0.07)">
       <defs>
        <path id="DejaVuSerif-2212" d="M 678 2259 
L 4684 2259 
L 4684 1753 
L 678 1753 
L 678 2259 
z
" transform="scale(0.015625)"/>
        <path id="DejaVuSerif-32" d="M 819 3553 
L 469 3553 
L 469 4384 
Q 803 4563 1142 4656 
Q 1481 4750 1806 4750 
Q 2534 4750 2956 4397 
Q 3378 4044 3378 3438 
Q 3378 2753 2422 1800 
Q 2347 1728 2309 1691 
L 1131 513 
L 3078 513 
L 3078 1088 
L 3444 1088 
L 3444 0 
L 434 0 
L 434 341 
L 1850 1753 
Q 2319 2222 2519 2614 
Q 2719 3006 2719 3438 
Q 2719 3909 2473 4175 
Q 2228 4441 1797 4441 
Q 1350 4441 1106 4219 
Q 863 3997 819 3553 
z
" transform="scale(0.015625)"/>
       </defs>
       <use xlink:href="#DejaVuSerif-2212"/>
       <use xlink:href="#DejaVuSerif-32" x="83.789062"/>
       <use xlink:href="#DejaVuSerif-30" x="147.412109"/>
      </g>
     </g>
    </g>
    <g id="ytick_2">
     <g id="line2d_19">
      <path d="M 40.308 163.497183 
L 377.81928 163.497183 
" clip-path="url(#p8f0f5ec9cb)" style="fill: none; stroke: #b0b0b0; stroke-width: 0.1; stroke-linecap: round"/>
     </g>
     <g id="line2d_20"/>
     <g id="text_11">
      <!-- −15 -->
      <g style="fill: #262626" transform="translate(22.034719 166.156637) scale(0.07 -0.07)">
       <defs>
        <path id="DejaVuSerif-31" d="M 909 0 
L 909 331 
L 1722 331 
L 1722 4213 
L 781 3603 
L 781 4013 
L 1919 4750 
L 2350 4750 
L 2350 331 
L 3163 331 
L 3163 0 
L 909 0 
z
" transform="scale(0.015625)"/>
       </defs>
       <use xlink:href="#DejaVuSerif-2212"/>
       <use xlink:href="#DejaVuSerif-31" x="83.789062"/>
       <use xlink:href="#DejaVuSerif-35" x="147.412109"/>
      </g>
     </g>
    </g>
    <g id="ytick_3">
     <g id="line2d_21">
      <path d="M 40.308 142.081959 
L 377.81928 142.081959 
" clip-path="url(#p8f0f5ec9cb)" style="fill: none; stroke: #b0b0b0; stroke-width: 0.1; stroke-linecap: round"/>
     </g>
     <g id="line2d_22"/>
     <g id="text_12">
      <!-- −10 -->
      <g style="fill: #262626" transform="translate(22.034719 144.741412) scale(0.07 -0.07)">
       <use xlink:href="#DejaVuSerif-2212"/>
       <use xlink:href="#DejaVuSerif-31" x="83.789062"/>
       <use xlink:href="#DejaVuSerif-30" x="147.412109"/>
      </g>
     </g>
    </g>
    <g id="ytick_4">
     <g id="line2d_23">
      <path d="M 40.308 120.666734 
L 377.81928 120.666734 
" clip-path="url(#p8f0f5ec9cb)" style="fill: none; stroke: #b0b0b0; stroke-width: 0.1; stroke-linecap: round"/>
     </g>
     <g id="line2d_24"/>
     <g id="text_13">
      <!-- −5 -->
      <g style="fill: #262626" transform="translate(26.488469 123.326187) scale(0.07 -0.07)">
       <use xlink:href="#DejaVuSerif-2212"/>
       <use xlink:href="#DejaVuSerif-35" x="83.789062"/>
      </g>
     </g>
    </g>
    <g id="ytick_5">
     <g id="line2d_25">
      <path d="M 40.308 99.251509 
L 377.81928 99.251509 
" clip-path="url(#p8f0f5ec9cb)" style="fill: none; stroke: #b0b0b0; stroke-width: 0.1; stroke-linecap: round"/>
     </g>
     <g id="line2d_26"/>
     <g id="text_14">
      <!-- 0 -->
      <g style="fill: #262626" transform="translate(32.35425 101.910962) scale(0.07 -0.07)">
       <use xlink:href="#DejaVuSerif-30"/>
      </g>
     </g>
    </g>
    <g id="ytick_6">
     <g id="line2d_27">
      <path d="M 40.308 77.836284 
L 377.81928 77.836284 
" clip-path="url(#p8f0f5ec9cb)" style="fill: none; stroke: #b0b0b0; stroke-width: 0.1; stroke-linecap: round"/>
     </g>
     <g id="line2d_28"/>
     <g id="text_15">
      <!-- 5 -->
      <g style="fill: #262626" transform="translate(32.35425 80.495737) scale(0.07 -0.07)">
       <use xlink:href="#DejaVuSerif-35"/>
      </g>
     </g>
    </g>
    <g id="ytick_7">
     <g id="line2d_29">
      <path d="M 40.308 56.421059 
L 377.81928 56.421059 
" clip-path="url(#p8f0f5ec9cb)" style="fill: none; stroke: #b0b0b0; stroke-width: 0.1; stroke-linecap: round"/>
     </g>
     <g id="line2d_30"/>
     <g id="text_16">
      <!-- 10 -->
      <g style="fill: #262626" transform="translate(27.9005 59.080512) scale(0.07 -0.07)">
       <use xlink:href="#DejaVuSerif-31"/>
       <use xlink:href="#DejaVuSerif-30" x="63.623047"/>
      </g>
     </g>
    </g>
    <g id="ytick_8">
     <g id="line2d_31">
      <path d="M 40.308 35.005834 
L 377.81928 35.005834 
" clip-path="url(#p8f0f5ec9cb)" style="fill: none; stroke: #b0b0b0; stroke-width: 0.1; stroke-linecap: round"/>
     </g>
     <g id="line2d_32"/>
     <g id="text_17">
      <!-- 15 -->
      <g style="fill: #262626" transform="translate(27.9005 37.665287) scale(0.07 -0.07)">
       <use xlink:href="#DejaVuSerif-31"/>
       <use xlink:href="#DejaVuSerif-35" x="63.623047"/>
      </g>
     </g>
    </g>
    <g id="ytick_9">
     <g id="line2d_33">
      <path d="M 40.308 13.590609 
L 377.81928 13.590609 
" clip-path="url(#p8f0f5ec9cb)" style="fill: none; stroke: #b0b0b0; stroke-width: 0.1; stroke-linecap: round"/>
     </g>
     <g id="line2d_34"/>
     <g id="text_18">
      <!-- 20 -->
      <g style="fill: #262626" transform="translate(27.9005 16.250062) scale(0.07 -0.07)">
       <use xlink:href="#DejaVuSerif-32"/>
       <use xlink:href="#DejaVuSerif-30" x="63.623047"/>
      </g>
     </g>
    </g>
    <g id="text_19">
     <!-- $N_M$ [Nm] -->
     <g style="fill: #262626" transform="translate(16.786906 112.011552) rotate(-90) scale(0.06 -0.06)">
      <defs>
       <path id="DejaVuSans-Oblique-4e" d="M 1081 4666 
L 1931 4666 
L 3219 666 
L 4000 4666 
L 4616 4666 
L 3706 0 
L 2853 0 
L 1569 4025 
L 788 0 
L 172 0 
L 1081 4666 
z
" transform="scale(0.015625)"/>
       <path id="DejaVuSans-Oblique-4d" d="M 1081 4666 
L 2028 4666 
L 2572 1522 
L 4378 4666 
L 5350 4666 
L 4441 0 
L 3828 0 
L 4622 4091 
L 2791 897 
L 2175 897 
L 1581 4103 
L 788 0 
L 172 0 
L 1081 4666 
z
" transform="scale(0.015625)"/>
       <path id="DejaVuSerif-4e" d="M 313 0 
L 313 331 
L 941 331 
L 941 4331 
L 313 4331 
L 313 4666 
L 1509 4666 
L 4306 984 
L 4306 4331 
L 3681 4331 
L 3681 4666 
L 5319 4666 
L 5319 4331 
L 4691 4331 
L 4691 -91 
L 4313 -91 
L 1325 3841 
L 1325 331 
L 1953 331 
L 1953 0 
L 313 0 
z
" transform="scale(0.015625)"/>
      </defs>
      <use xlink:href="#DejaVuSans-Oblique-4e" transform="translate(0 0.015625)"/>
      <use xlink:href="#DejaVuSans-Oblique-4d" transform="translate(74.804688 -16.390625) scale(0.7)"/>
      <use xlink:href="#DejaVuSerif-20" transform="translate(137.93457 0.015625)"/>
      <use xlink:href="#DejaVuSerif-5b" transform="translate(169.72168 0.015625)"/>
      <use xlink:href="#DejaVuSerif-4e" transform="translate(208.735352 0.015625)"/>
      <use xlink:href="#DejaVuSerif-6d" transform="translate(296.235352 0.015625)"/>
      <use xlink:href="#DejaVuSerif-5d" transform="translate(391.05957 0.015625)"/>
     </g>
    </g>
   </g>
   <g id="line2d_35">
    <path d="M 55.649422 121.653268 
L 56.444658 123.293439 
L 56.577197 122.752821 
L 56.709736 124.358574 
L 56.842275 123.128328 
L 57.107354 124.647009 
L 57.239893 123.576589 
L 57.372432 124.034538 
L 57.504972 126.408991 
L 57.77005 123.442761 
L 57.90259 125.07519 
L 58.035129 123.782011 
L 58.300207 125.072711 
L 58.432747 123.823888 
L 58.697825 125.088133 
L 58.962904 124.339687 
L 59.095443 125.114858 
L 59.227982 124.747318 
L 59.360522 125.919892 
L 59.493061 124.434383 
L 59.6256 126.770311 
L 60.023218 125.355747 
L 60.155757 127.345831 
L 60.420836 126.305954 
L 60.553375 128.396275 
L 60.685915 127.824235 
L 61.348611 129.876762 
L 61.48115 129.677272 
L 61.613689 130.563084 
L 61.746229 130.483547 
L 61.878768 131.284 
L 62.011307 130.618005 
L 62.143847 132.371159 
L 62.276386 132.188369 
L 62.408925 131.265798 
L 62.541464 132.853229 
L 62.674004 132.373939 
L 62.806543 133.762572 
L 63.071622 133.44607 
L 63.204161 133.767734 
L 63.3367 133.666391 
L 63.469239 133.047922 
L 63.601779 134.918891 
L 63.734318 133.270401 
L 63.999397 135.108097 
L 64.131936 133.65141 
L 64.264475 134.667272 
L 64.397014 134.598843 
L 64.529554 134.693347 
L 64.662093 138.034967 
L 64.794632 134.795984 
L 65.059711 135.194783 
L 65.19225 135.049657 
L 65.324789 135.303399 
L 65.457329 136.659439 
L 65.722407 135.283872 
L 66.120025 136.418355 
L 66.385104 135.428241 
L 66.517643 136.848901 
L 66.650182 135.933025 
L 66.782721 137.018349 
L 66.915261 136.966183 
L 67.0478 138.088012 
L 67.312879 138.024093 
L 67.445418 136.517391 
L 67.577957 139.750601 
L 67.710496 138.14318 
L 67.843036 139.781792 
L 68.108114 138.752665 
L 68.373193 140.784013 
L 68.505732 140.528939 
L 68.770811 141.044807 
L 68.90335 141.746587 
L 69.035889 141.447361 
L 69.168429 140.827505 
L 69.300968 142.632043 
L 69.433507 141.759095 
L 69.698586 142.256108 
L 69.963664 142.084305 
L 70.361282 142.310326 
L 70.493821 142.663002 
L 70.626361 144.046822 
L 70.7589 142.947069 
L 70.891439 142.783014 
L 71.156518 143.146804 
L 71.289057 143.242792 
L 71.819214 145.112425 
L 71.951753 144.521554 
L 72.084293 145.52325 
L 72.216832 144.744612 
L 72.481911 145.402463 
L 72.879528 146.212331 
L 73.012068 145.450022 
L 73.277146 146.738259 
L 73.409686 147.174378 
L 73.542225 147.135794 
L 73.807303 147.483331 
L 73.939843 148.409438 
L 74.072382 148.060713 
L 74.204921 150.453498 
L 74.33746 148.925319 
L 74.47 148.704397 
L 74.602539 149.574035 
L 74.735078 149.564319 
L 74.867618 149.844268 
L 75.000157 149.849544 
L 75.265235 151.120759 
L 75.397775 150.797693 
L 75.530314 149.738031 
L 75.795393 150.944948 
L 75.927932 150.89445 
L 76.060471 152.037193 
L 76.32555 151.012686 
L 76.458089 151.528427 
L 76.590628 151.387569 
L 76.723168 152.878436 
L 76.855707 150.227192 
L 77.120785 152.116062 
L 77.253325 149.774396 
L 77.518403 154.196316 
L 77.650943 153.389118 
L 77.783482 150.700784 
L 78.04856 153.281903 
L 78.1811 152.145106 
L 78.313639 151.981697 
L 78.446178 153.589291 
L 78.578717 152.054267 
L 78.711257 153.574818 
L 78.843796 152.324017 
L 79.108875 154.253524 
L 79.241414 152.701192 
L 79.373953 155.658967 
L 79.506492 153.114954 
L 79.771571 155.401111 
L 79.90411 154.144286 
L 80.03665 155.829738 
L 80.169189 154.529825 
L 80.434267 156.880314 
L 80.566807 155.121286 
L 80.699346 157.078626 
L 80.831885 155.592536 
L 81.096964 157.690485 
L 81.229503 156.012874 
L 81.362042 158.547866 
L 81.494582 155.801049 
L 81.627121 157.665112 
L 81.75966 157.638963 
L 81.8922 157.170437 
L 82.024739 157.50819 
L 82.157278 158.230688 
L 82.289817 157.603944 
L 82.687435 158.513661 
L 82.819974 158.304069 
L 82.952514 157.589047 
L 83.085053 159.175127 
L 83.217592 157.980748 
L 83.350132 157.922475 
L 83.482671 159.834208 
L 83.747749 159.518495 
L 83.880289 158.843348 
L 84.012828 160.342247 
L 84.277907 159.525659 
L 84.542985 161.217992 
L 84.675524 160.041945 
L 84.808064 161.62307 
L 84.940603 161.0739 
L 85.073142 159.952867 
L 85.205682 161.849133 
L 85.338221 161.935406 
L 85.47076 164.007233 
L 85.735839 161.526318 
L 85.868378 162.692836 
L 86.000917 162.017569 
L 86.133457 163.246933 
L 86.265996 162.219352 
L 86.398535 163.340824 
L 86.531074 162.639 
L 86.663614 163.611264 
L 86.796153 162.482952 
L 86.928692 164.176106 
L 87.061232 162.919203 
L 87.193771 163.89485 
L 87.32631 162.953583 
L 87.458849 164.516561 
L 87.723928 163.059216 
L 87.856467 164.92701 
L 87.989006 162.25978 
L 88.254085 164.583334 
L 88.386624 164.060758 
L 88.519164 164.361895 
L 88.651703 164.207887 
L 88.784242 162.953673 
L 88.916781 164.793021 
L 89.049321 164.683019 
L 89.18186 164.34806 
L 89.314399 164.50269 
L 89.446939 163.559091 
L 89.579478 165.239044 
L 89.712017 163.608454 
L 89.844556 165.864165 
L 89.977096 164.991091 
L 90.109635 165.174181 
L 90.242174 165.056096 
L 90.374714 165.335589 
L 90.507253 165.206404 
L 90.639792 165.447844 
L 90.772331 165.094083 
L 90.904871 166.030549 
L 91.03741 165.173032 
L 91.169949 166.520064 
L 91.302489 166.130221 
L 91.435028 166.397647 
L 91.567567 166.06409 
L 91.700106 169.481494 
L 91.832646 166.51688 
L 91.965185 166.928067 
L 92.097724 169.707303 
L 92.230263 167.411233 
L 92.760421 168.502226 
L 92.89296 168.203633 
L 93.158038 168.597669 
L 93.290578 168.791406 
L 93.423117 168.746105 
L 93.688196 169.441576 
L 93.820735 168.694257 
L 94.085813 169.627208 
L 94.218353 168.621374 
L 94.350892 169.190373 
L 94.483431 169.160923 
L 94.615971 168.905899 
L 94.881049 169.563696 
L 95.146128 169.585339 
L 95.278667 169.840997 
L 95.411206 169.305102 
L 95.543746 170.25706 
L 95.676285 170.175362 
L 95.808824 169.604663 
L 95.941363 170.624167 
L 96.073903 170.158911 
L 96.338981 171.895681 
L 96.47152 171.084668 
L 96.60406 171.130485 
L 96.869138 171.38285 
L 97.001678 171.259032 
L 97.134217 171.548855 
L 97.399295 171.244485 
L 97.531835 171.835568 
L 97.664374 171.68257 
L 97.929453 172.03068 
L 98.32707 172.802692 
L 98.45961 172.578018 
L 98.724688 173.920285 
L 98.857228 173.328428 
L 98.989767 173.820101 
L 99.122306 177.504616 
L 99.387385 173.95771 
L 99.519924 174.879098 
L 99.652463 174.407545 
L 99.785003 175.189564 
L 99.917542 174.55045 
L 100.050081 175.016647 
L 100.18262 174.648174 
L 100.31516 175.527864 
L 100.447699 174.725737 
L 100.580238 175.563062 
L 100.712777 175.040697 
L 100.845317 175.475339 
L 100.977856 174.947447 
L 101.110395 175.624786 
L 101.242935 174.684591 
L 101.375474 175.567687 
L 101.508013 174.61704 
L 101.640552 175.799301 
L 101.773092 174.149608 
L 101.905631 175.777112 
L 102.03817 174.443726 
L 102.17071 175.433654 
L 102.303249 174.536282 
L 102.435788 175.561809 
L 102.568327 174.575036 
L 102.700867 175.361146 
L 102.965945 174.749829 
L 103.098485 175.789751 
L 103.363563 174.448894 
L 103.496102 175.28231 
L 103.628642 175.015057 
L 103.761181 173.831581 
L 103.89372 175.352506 
L 104.02626 174.709567 
L 104.158799 175.405738 
L 104.291338 175.13035 
L 104.423877 175.873527 
L 104.556417 174.650144 
L 104.688956 176.378046 
L 104.821495 174.125666 
L 104.954034 176.176073 
L 105.086574 174.621265 
L 105.219113 174.81115 
L 105.484192 176.503934 
L 105.616731 174.714214 
L 105.74927 175.62912 
L 105.881809 175.377824 
L 106.014349 174.22172 
L 106.279427 175.985349 
L 106.411967 173.030526 
L 106.677045 175.685804 
L 106.809584 174.83637 
L 106.942124 176.10104 
L 107.074663 175.814171 
L 107.207202 176.911373 
L 107.339742 176.717538 
L 107.472281 176.820802 
L 107.60482 177.32818 
L 107.869899 176.777021 
L 108.002438 177.683645 
L 108.134977 177.766905 
L 108.267517 177.555425 
L 108.400056 177.578785 
L 108.532595 178.407486 
L 108.665134 177.770628 
L 108.797674 178.063182 
L 108.930213 178.88224 
L 109.062752 177.112644 
L 109.327831 177.90645 
L 109.46037 177.948226 
L 109.592909 177.487829 
L 109.725449 177.87643 
L 109.857988 176.907947 
L 109.990527 178.216546 
L 110.123066 176.339961 
L 110.255606 176.588739 
L 110.388145 177.391151 
L 110.520684 176.220686 
L 110.785763 177.177705 
L 110.918302 176.188187 
L 111.050841 177.988614 
L 111.183381 176.628843 
L 111.31592 178.402842 
L 111.448459 176.974824 
L 111.580999 178.63627 
L 111.713538 177.112234 
L 111.846077 178.699846 
L 111.978616 177.906422 
L 112.111156 178.618183 
L 112.243695 177.749284 
L 112.376234 178.724429 
L 112.508774 178.519894 
L 112.641313 177.959637 
L 112.773852 179.318541 
L 113.038931 178.409597 
L 113.304009 177.752363 
L 113.436548 178.805274 
L 113.569088 178.403012 
L 113.966706 178.837117 
L 114.099245 178.961565 
L 114.231784 178.331337 
L 114.364323 179.337508 
L 114.496863 178.661598 
L 114.629402 178.590866 
L 114.761941 178.359865 
L 114.894481 178.380035 
L 115.159559 178.269034 
L 115.292098 178.406808 
L 115.822256 177.655912 
L 115.954795 177.281343 
L 116.087334 177.447738 
L 116.219873 177.166869 
L 116.484952 177.567425 
L 116.617491 177.671793 
L 116.88257 178.237185 
L 117.015109 178.328755 
L 117.147648 178.283751 
L 117.280188 178.420751 
L 117.545266 178.082973 
L 117.677805 178.172253 
L 117.810345 177.991672 
L 118.075423 178.510436 
L 118.207963 177.980958 
L 118.340502 178.119238 
L 118.473041 178.000843 
L 118.73812 177.327826 
L 119.003198 177.214822 
L 119.135738 177.558743 
L 119.268277 177.569447 
L 119.400816 178.036671 
L 119.533355 178.085019 
L 119.798434 178.511309 
L 119.930973 178.292543 
L 120.196052 178.315588 
L 120.328591 178.11588 
L 120.46113 178.326156 
L 120.59367 177.980666 
L 120.726209 178.717952 
L 120.858748 178.213079 
L 120.991288 178.285457 
L 121.123827 177.866851 
L 121.521445 177.968587 
L 121.653984 178.284527 
L 121.786523 178.038516 
L 121.919063 178.219928 
L 122.051602 178.203818 
L 122.31668 178.546012 
L 122.714298 178.937795 
L 122.846837 178.780884 
L 122.979377 178.839531 
L 123.111916 178.755767 
L 123.376995 179.061937 
L 123.509534 178.712074 
L 123.642073 179.026705 
L 124.30477 177.307016 
L 124.437309 177.228216 
L 124.569848 177.595938 
L 124.702387 177.45584 
L 124.834927 177.630667 
L 125.232545 178.56975 
L 125.497623 178.730367 
L 125.630162 178.329276 
L 125.762702 178.837498 
L 125.895241 178.430449 
L 126.02778 178.582602 
L 126.425398 178.27365 
L 126.557937 177.392345 
L 126.690477 178.364209 
L 126.955555 177.97492 
L 127.088094 177.995042 
L 127.220634 177.395292 
L 127.353173 177.796163 
L 127.485712 177.240236 
L 127.618252 177.50054 
L 127.750791 177.238667 
L 127.88333 177.511112 
L 128.015869 177.014442 
L 128.148409 177.025811 
L 128.413487 176.925276 
L 128.546027 176.251339 
L 128.811105 176.111387 
L 129.076184 175.88911 
L 129.341262 174.929888 
L 129.473802 174.68265 
L 129.73888 173.594587 
L 129.871419 174.2551 
L 130.003959 174.000619 
L 130.269037 174.310883 
L 130.401577 175.037229 
L 130.534116 172.741675 
L 130.799194 174.170808 
L 130.931734 173.840815 
L 131.064273 173.940799 
L 131.329351 174.507696 
L 131.461891 174.378034 
L 131.59443 174.692307 
L 131.726969 174.666875 
L 131.859509 175.082959 
L 131.992048 174.650475 
L 132.124587 174.755489 
L 132.257126 174.703714 
L 132.389666 174.037744 
L 132.654744 173.994982 
L 132.787284 174.302506 
L 132.919823 174.116126 
L 133.317441 175.427166 
L 133.44998 175.100042 
L 133.582519 175.19287 
L 133.715059 174.889451 
L 133.847598 174.931765 
L 133.980137 174.357524 
L 134.112676 174.339034 
L 134.245216 174.511064 
L 134.377755 174.966799 
L 134.510294 174.661693 
L 134.907912 175.618706 
L 135.172991 175.030765 
L 135.30553 175.02399 
L 135.438069 173.87847 
L 135.570608 173.882937 
L 135.703148 173.63018 
L 135.835687 173.952041 
L 135.968226 173.548357 
L 136.233305 174.401677 
L 136.365844 176.257946 
L 136.498383 174.374556 
L 136.630923 174.548238 
L 136.763462 174.515604 
L 137.028541 173.235358 
L 137.16108 173.255221 
L 137.293619 172.643696 
L 137.426158 172.777266 
L 137.558698 173.071774 
L 137.691237 172.8961 
L 137.823776 172.98547 
L 137.956316 173.482231 
L 138.221394 172.599298 
L 138.353933 172.493088 
L 138.619012 170.988614 
L 138.751551 170.913528 
L 138.884091 170.380726 
L 139.01663 170.535625 
L 139.149169 171.015647 
L 139.281708 170.55941 
L 139.546787 171.002755 
L 139.811865 170.410074 
L 139.944405 170.287688 
L 140.209483 169.217352 
L 140.474562 168.533665 
L 140.607101 169.226719 
L 140.73964 168.547311 
L 140.87218 169.314388 
L 141.004719 169.172401 
L 141.137258 169.354152 
L 141.534876 168.606854 
L 141.799955 167.753036 
L 141.932494 167.715365 
L 142.065033 167.961021 
L 142.197573 167.685682 
L 142.330112 168.747446 
L 142.462651 168.126729 
L 142.59519 169.138611 
L 142.72773 168.548006 
L 142.860269 169.446089 
L 142.992808 168.290495 
L 143.125348 168.650283 
L 143.257887 167.725923 
L 143.390426 167.96329 
L 143.522965 167.627173 
L 143.655505 168.285521 
L 143.788044 167.730753 
L 143.920583 168.502649 
L 144.053122 168.279321 
L 144.185662 168.790334 
L 144.45074 168.665351 
L 144.58328 168.235061 
L 144.715819 168.215012 
L 144.848358 167.324015 
L 144.980897 167.488659 
L 145.113437 167.044577 
L 145.643594 167.207367 
L 145.776133 166.103358 
L 145.908672 166.951296 
L 146.041212 166.636535 
L 146.173751 166.768365 
L 146.30629 164.743308 
L 146.43883 164.92704 
L 146.571369 164.905119 
L 146.703908 164.128042 
L 146.836447 165.174691 
L 146.968987 164.049059 
L 147.101526 165.285859 
L 147.234065 162.392834 
L 147.366605 165.590251 
L 147.499144 164.649119 
L 147.631683 164.951862 
L 147.764222 163.876995 
L 147.896762 163.819462 
L 148.029301 161.997015 
L 148.16184 162.725349 
L 148.294379 161.919498 
L 148.426919 162.300505 
L 148.559458 161.566559 
L 148.824537 163.006727 
L 148.957076 162.878778 
L 149.089615 162.959767 
L 149.222154 162.647089 
L 149.354694 162.732503 
L 149.487233 161.953139 
L 149.619772 162.454448 
L 149.752312 161.618207 
L 149.884851 161.804427 
L 150.415008 160.640757 
L 150.547547 160.685073 
L 150.680087 162.096367 
L 150.945165 159.512812 
L 151.210244 159.628309 
L 151.342783 159.281508 
L 151.475322 157.898586 
L 151.607862 160.960307 
L 151.740401 159.303003 
L 152.138019 158.980138 
L 152.270558 159.137763 
L 152.535636 158.587595 
L 152.668176 158.490832 
L 152.800715 158.590189 
L 152.933254 157.165451 
L 153.198333 158.981665 
L 153.463411 159.114652 
L 153.595951 159.142396 
L 154.126108 158.1875 
L 154.258647 158.160046 
L 154.391186 157.295237 
L 154.523726 157.576463 
L 154.656265 155.846127 
L 154.788804 156.452039 
L 154.921344 155.504212 
L 155.053883 156.226702 
L 155.318961 154.786685 
L 155.451501 155.66723 
L 155.58404 154.664155 
L 155.716579 154.617929 
L 155.981658 155.114302 
L 156.114197 155.708798 
L 156.246736 154.797267 
L 156.379276 155.795205 
L 156.511815 154.887761 
L 156.644354 155.758482 
L 156.776894 154.814299 
L 156.909433 155.568857 
L 157.041972 154.114264 
L 157.174511 156.154804 
L 157.307051 154.18375 
L 157.572129 153.728066 
L 157.704668 154.367816 
L 157.969747 152.685831 
L 158.102286 154.421013 
L 158.367365 151.716661 
L 158.499904 153.253715 
L 158.764983 150.949176 
L 158.897522 152.353816 
L 159.030061 150.506498 
L 159.162601 151.877444 
L 159.427679 149.701646 
L 159.560218 150.656862 
L 159.825297 149.751508 
L 159.957836 150.357859 
L 160.222915 149.026359 
L 160.487993 150.078436 
L 160.620533 148.96888 
L 160.753072 149.464977 
L 160.885611 149.436039 
L 161.15069 148.727465 
L 161.283229 149.477442 
L 161.415768 147.711429 
L 161.548308 149.999412 
L 161.680847 147.891532 
L 161.813386 147.924018 
L 161.945925 148.994351 
L 162.078465 147.294518 
L 162.211004 148.634195 
L 162.343543 148.445787 
L 162.476083 146.621105 
L 162.608622 147.751356 
L 162.8737 147.043222 
L 163.00624 146.013563 
L 163.138779 146.620662 
L 163.403858 146.004362 
L 163.536397 144.946001 
L 163.668936 145.298834 
L 163.801475 143.724541 
L 163.934015 144.864968 
L 164.066554 144.730093 
L 164.331633 143.395337 
L 164.464172 143.608493 
L 164.596711 144.038372 
L 164.72925 142.617769 
L 164.86179 143.219524 
L 165.126868 141.308763 
L 165.259408 143.239592 
L 165.391947 142.048358 
L 166.452261 140.762956 
L 166.5848 140.749006 
L 166.71734 140.563127 
L 166.849879 141.552781 
L 167.114957 140.130612 
L 168.175272 139.334115 
L 168.307811 138.657514 
L 168.57289 138.518868 
L 168.970507 137.777238 
L 169.103047 138.207465 
L 169.368125 137.966362 
L 169.500665 138.015451 
L 169.765743 137.194286 
L 169.898282 137.010196 
L 170.030822 136.619876 
L 170.163361 136.97443 
L 170.560979 136.546765 
L 170.826057 135.975311 
L 170.958597 134.696715 
L 171.091136 135.482869 
L 171.886372 133.617403 
L 172.15145 133.462552 
L 172.416529 132.705114 
L 172.814147 131.953318 
L 173.609382 130.671558 
L 173.874461 130.384673 
L 174.007 124.507477 
L 174.139539 129.912124 
L 174.272079 127.290785 
L 174.404618 130.649385 
L 174.669696 129.096223 
L 175.067314 128.895029 
L 175.199854 125.701631 
L 175.332393 128.680168 
L 175.464932 126.984546 
L 175.597471 128.208064 
L 175.730011 128.02996 
L 175.86255 127.479392 
L 175.995089 128.712563 
L 176.127629 126.45537 
L 176.392707 128.108288 
L 176.525246 127.024841 
L 176.657786 124.237855 
L 176.790325 127.376107 
L 177.055404 127.303664 
L 177.187943 127.610671 
L 177.320482 126.211725 
L 177.453021 128.664964 
L 177.585561 124.864875 
L 177.7181 126.800484 
L 177.850639 126.568013 
L 177.983179 125.77309 
L 178.115718 123.072733 
L 178.248257 126.58049 
L 178.380796 124.258275 
L 178.513336 124.739994 
L 178.645875 124.060586 
L 178.778414 124.337133 
L 178.910953 122.66853 
L 179.043493 123.83981 
L 179.176032 123.476933 
L 179.308571 122.014223 
L 179.441111 121.986535 
L 179.57365 120.068863 
L 179.706189 121.194514 
L 179.838728 121.284588 
L 180.103807 120.544034 
L 180.368886 119.95175 
L 180.766503 119.041685 
L 181.296661 118.117455 
L 181.4292 118.220919 
L 181.561739 117.591358 
L 181.694278 117.874952 
L 182.091896 117.027552 
L 182.224436 117.170877 
L 182.356975 116.370295 
L 182.489514 117.568946 
L 182.622053 115.761693 
L 182.887132 117.079759 
L 183.019671 116.009543 
L 183.28475 116.190079 
L 183.417289 116.106931 
L 183.549828 116.532748 
L 183.682368 115.446138 
L 183.814907 115.849577 
L 183.947446 115.786093 
L 184.079985 116.998848 
L 184.345064 115.590518 
L 184.875221 114.845173 
L 185.802996 112.589484 
L 185.935535 112.017861 
L 186.068075 112.070118 
L 186.200614 110.717228 
L 186.333153 111.210733 
L 186.598232 109.211561 
L 186.730771 110.146198 
L 186.99585 108.870248 
L 187.260928 108.18058 
L 188.056164 106.144238 
L 188.188703 106.802832 
L 188.453782 105.560133 
L 188.586321 106.504445 
L 188.71886 105.089205 
L 188.8514 106.771018 
L 188.983939 104.974713 
L 189.116478 105.764987 
L 189.381557 105.789726 
L 189.514096 105.660692 
L 189.646635 105.717042 
L 189.779175 105.477935 
L 189.911714 105.611589 
L 190.176792 105.324251 
L 190.309332 105.341805 
L 190.441871 102.606734 
L 190.57441 104.864544 
L 190.70695 104.777072 
L 190.839489 104.923109 
L 190.972028 104.49385 
L 191.237107 104.504853 
L 192.032342 103.853299 
L 192.164882 102.80065 
L 192.297421 103.179969 
L 192.695039 102.193247 
L 193.092657 101.238748 
L 193.225196 101.450279 
L 193.357735 100.595207 
L 193.490274 100.529475 
L 193.755353 99.961595 
L 194.418049 98.457632 
L 194.550589 97.796622 
L 194.683128 97.88776 
L 195.213285 96.719586 
L 195.478364 93.524931 
L 195.610903 95.542398 
L 196.406139 93.492454 
L 196.803756 92.944095 
L 196.936296 92.834513 
L 197.068835 93.435468 
L 197.201374 92.647435 
L 197.333914 92.949035 
L 197.466453 92.548282 
L 197.598992 91.703873 
L 197.731531 93.237333 
L 197.864071 91.507431 
L 197.99661 92.036182 
L 198.129149 91.187171 
L 198.261689 91.607273 
L 198.394228 92.529911 
L 198.526767 90.599386 
L 198.791846 91.888174 
L 198.924385 89.439538 
L 199.189464 91.233879 
L 199.322003 88.614429 
L 199.587081 90.414471 
L 199.719621 88.471019 
L 199.984699 89.724892 
L 200.117239 87.748867 
L 200.249778 88.351374 
L 200.912474 86.630876 
L 201.045013 87.420345 
L 201.177553 86.139499 
L 201.310092 86.244341 
L 201.442631 86.663199 
L 201.575171 85.352725 
L 201.70771 86.024143 
L 201.840249 85.297011 
L 201.972788 85.663775 
L 202.237867 84.77164 
L 202.370406 84.70863 
L 202.502946 84.44881 
L 202.768024 82.872223 
L 202.900563 83.209754 
L 203.033103 84.194015 
L 203.165642 82.627437 
L 203.298181 82.915751 
L 203.56326 82.451442 
L 203.828338 82.146284 
L 203.960878 81.067999 
L 204.093417 81.12301 
L 204.225956 82.390982 
L 204.358496 80.754801 
L 204.623574 80.370921 
L 204.756113 77.695559 
L 204.888653 79.976234 
L 205.021192 80.065182 
L 205.28627 79.308691 
L 205.41881 77.53591 
L 205.551349 78.86764 
L 206.081506 78.063555 
L 206.214045 78.05888 
L 206.479124 77.86801 
L 206.611663 78.067476 
L 206.744203 77.837915 
L 206.876742 77.846263 
L 207.009281 76.034298 
L 207.14182 79.141226 
L 207.27436 77.464199 
L 207.406899 77.48276 
L 207.671978 76.958479 
L 207.804517 76.97966 
L 208.334674 75.613605 
L 208.467213 76.08905 
L 208.599753 75.133653 
L 208.732292 75.239597 
L 208.99737 74.531782 
L 209.12991 72.626983 
L 209.262449 73.848676 
L 209.660067 72.730929 
L 209.792606 72.71507 
L 209.925145 72.227315 
L 210.057685 72.204697 
L 210.322763 71.499704 
L 210.587842 71.446636 
L 210.720381 71.039536 
L 210.85292 71.025664 
L 211.515617 70.496915 
L 211.648156 69.806843 
L 211.913235 69.972237 
L 212.045774 68.041744 
L 212.178313 69.447657 
L 212.310852 69.572137 
L 212.443392 69.207294 
L 212.575931 69.282982 
L 212.84101 68.427251 
L 212.973549 69.189301 
L 213.106088 68.157888 
L 213.238627 68.190588 
L 213.371167 64.441588 
L 213.503706 67.401613 
L 213.768784 66.395562 
L 213.901324 66.166253 
L 214.033863 65.405031 
L 214.298942 65.093688 
L 214.56402 63.888286 
L 214.696559 64.993402 
L 214.829099 63.68438 
L 214.961638 64.726233 
L 215.094177 63.775699 
L 215.359256 64.384196 
L 215.491795 63.346778 
L 215.624334 63.689866 
L 215.756874 63.355439 
L 215.889413 63.641043 
L 216.154492 63.435892 
L 216.287031 62.522582 
L 216.41957 63.148096 
L 216.552109 62.706255 
L 216.684649 60.797908 
L 216.817188 62.668074 
L 216.949727 62.883644 
L 217.082267 62.284205 
L 217.214806 62.563336 
L 217.347345 62.502776 
L 217.479884 62.175749 
L 217.612424 61.14332 
L 217.744963 64.058008 
L 218.010041 60.426852 
L 218.142581 60.611703 
L 218.27512 61.768626 
L 218.407659 60.553641 
L 218.540199 61.34039 
L 218.672738 59.235761 
L 218.805277 60.822922 
L 218.937816 59.555547 
L 219.070356 59.635338 
L 219.335434 59.19681 
L 219.600513 58.547242 
L 219.998131 57.874412 
L 220.13067 56.606106 
L 220.263209 57.566494 
L 220.528288 57.008346 
L 220.660827 56.833568 
L 220.793366 55.806999 
L 220.925906 56.452302 
L 221.058445 55.447088 
L 221.190984 55.751478 
L 221.98622 54.405668 
L 222.118759 54.298575 
L 222.251298 54.945402 
L 222.516377 53.971044 
L 222.781456 53.930242 
L 222.913995 54.309427 
L 223.046534 53.87751 
L 223.179073 54.034988 
L 223.311613 53.078091 
L 223.444152 53.576359 
L 223.576691 53.350706 
L 223.709231 53.468765 
L 224.106848 53.246326 
L 224.504466 52.047649 
L 224.637006 52.367843 
L 224.769545 50.665789 
L 224.902084 51.454363 
L 225.034623 51.108311 
L 225.167163 49.384063 
L 225.299702 50.434179 
L 225.564781 50.008541 
L 226.094938 48.930471 
L 226.625095 48.137602 
L 226.757634 47.827896 
L 226.890173 47.896299 
L 227.155252 47.362043 
L 227.287791 45.052185 
L 227.42033 47.200321 
L 227.55287 46.990204 
L 227.685409 47.658911 
L 227.817948 45.523663 
L 227.950488 47.451695 
L 228.083027 45.232793 
L 228.215566 47.147491 
L 228.348105 45.125624 
L 228.613184 46.997308 
L 228.878263 44.81235 
L 229.010802 45.396203 
L 229.143341 46.848033 
L 229.27588 45.860958 
L 229.40842 45.754629 
L 229.540959 44.639595 
L 229.673498 46.860044 
L 229.806038 44.573689 
L 229.938577 45.731092 
L 230.071116 44.593984 
L 230.203655 46.478865 
L 230.336195 42.582485 
L 230.468734 45.249096 
L 230.733813 44.925064 
L 230.866352 44.856563 
L 230.998891 44.412704 
L 231.13143 43.32638 
L 231.26397 44.786374 
L 231.661587 42.30286 
L 231.794127 43.974475 
L 232.059205 41.508831 
L 232.191745 42.995731 
L 232.324284 41.134269 
L 232.456823 42.323804 
L 232.589362 40.518152 
L 232.854441 41.638459 
L 232.98698 39.658866 
L 233.252059 40.964859 
L 233.384598 39.02479 
L 233.517137 39.713906 
L 233.649677 39.377232 
L 233.782216 39.978403 
L 233.914755 39.872927 
L 234.179834 39.069435 
L 234.312373 38.898558 
L 234.444912 38.954098 
L 234.577452 36.294016 
L 234.709991 40.347321 
L 234.84253 36.498295 
L 234.97507 38.836764 
L 235.107609 37.227934 
L 235.372687 38.632862 
L 235.505227 37.319548 
L 235.902844 37.727535 
L 236.035384 37.441734 
L 236.167923 34.700998 
L 236.300462 37.518261 
L 236.433002 37.472698 
L 236.565541 37.062801 
L 236.69808 37.197727 
L 236.963159 36.990699 
L 237.095698 36.173302 
L 237.228237 36.817309 
L 237.360777 36.325585 
L 237.493316 36.685599 
L 237.625855 36.025775 
L 237.758394 36.811104 
L 238.023473 36.114887 
L 238.156012 36.140834 
L 238.288552 35.272619 
L 238.421091 35.92537 
L 238.55363 35.712826 
L 238.818709 36.443337 
L 238.951248 35.258383 
L 239.083787 35.093118 
L 239.216327 35.96261 
L 239.481405 34.390893 
L 239.613944 34.837892 
L 239.746484 34.325899 
L 239.879023 34.405887 
L 240.011562 33.495207 
L 240.144101 34.505912 
L 240.40918 32.691256 
L 240.541719 34.121563 
L 240.674259 33.571983 
L 240.806798 33.631922 
L 240.939337 33.307601 
L 241.071876 33.339448 
L 241.204416 30.685719 
L 241.336955 32.7852 
L 241.469494 31.423637 
L 241.602034 32.15003 
L 241.734573 33.770795 
L 241.999651 32.679375 
L 242.132191 32.776047 
L 242.26473 32.091454 
L 242.397269 32.749228 
L 242.662348 32.242649 
L 242.794887 32.533137 
L 242.927426 31.172716 
L 243.059966 32.328891 
L 243.325044 30.304576 
L 243.722662 30.733468 
L 243.855201 29.499566 
L 244.12028 30.100245 
L 244.252819 29.227986 
L 244.385358 29.92146 
L 244.517898 28.444278 
L 244.650437 29.660413 
L 244.915516 29.444282 
L 245.048055 28.893967 
L 245.180594 29.809138 
L 245.445673 28.563904 
L 245.710751 29.076279 
L 245.843291 28.656205 
L 245.97583 28.841066 
L 246.108369 28.002088 
L 246.240908 28.753012 
L 246.373448 28.474031 
L 246.505987 27.511261 
L 246.638526 27.837459 
L 246.771066 27.450391 
L 247.036144 28.378558 
L 247.168683 27.404798 
L 247.433762 28.007688 
L 247.566301 28.034284 
L 247.698841 25.959072 
L 247.963919 28.843928 
L 248.096458 21.9071 
L 248.228998 27.398282 
L 248.361537 26.610926 
L 248.494076 27.126977 
L 248.626615 26.045068 
L 248.759155 26.992058 
L 248.891694 25.781272 
L 249.024233 26.621071 
L 249.156773 25.458837 
L 249.289312 26.095252 
L 249.421851 25.229153 
L 249.55439 25.397077 
L 249.68693 23.946628 
L 249.819469 24.970188 
L 250.084548 22.163798 
L 250.217087 23.386756 
L 250.349626 23.573577 
L 250.482165 22.254521 
L 250.614705 23.176499 
L 250.747244 21.25359 
L 250.879783 23.698493 
L 251.012323 21.55214 
L 251.144862 23.009326 
L 251.277401 21.935296 
L 251.40994 23.878144 
L 251.54248 22.437278 
L 251.675019 24.347761 
L 251.807558 23.075917 
L 251.940098 25.627065 
L 252.072637 23.568181 
L 252.205176 25.063661 
L 252.337715 24.222619 
L 252.735333 26.170717 
L 252.867872 25.704695 
L 253.000412 26.038461 
L 253.132951 25.695321 
L 253.26549 26.400527 
L 253.39803 25.431351 
L 253.530569 26.033736 
L 253.663108 25.53512 
L 253.795647 25.704655 
L 253.928187 24.893766 
L 254.060726 25.285523 
L 254.193265 24.462175 
L 254.325805 24.887649 
L 254.590883 23.309817 
L 254.723422 23.491639 
L 254.988501 22.579721 
L 255.12104 22.777973 
L 255.25358 22.637178 
L 255.386119 22.756361 
L 255.518658 22.643959 
L 255.651197 22.777357 
L 255.916276 21.251352 
L 256.048815 21.858731 
L 256.313894 21.467396 
L 256.446433 21.812898 
L 256.578972 21.835041 
L 256.711512 22.1419 
L 256.844051 22.083712 
L 256.97659 22.40094 
L 257.109129 22.299163 
L 257.241669 21.856802 
L 257.374208 23.545347 
L 257.506747 22.496443 
L 257.639287 22.516882 
L 257.904365 23.360209 
L 258.036904 22.508189 
L 258.169444 23.416771 
L 258.301983 22.881805 
L 258.434522 23.049121 
L 258.567062 24.711789 
L 258.699601 23.37458 
L 258.83214 23.896163 
L 258.964679 22.618094 
L 259.229758 22.49176 
L 259.362297 22.585219 
L 259.494837 22.43268 
L 259.759915 20.596562 
L 259.892454 22.6306 
L 260.157533 19.946537 
L 260.290072 22.730129 
L 260.422612 20.471279 
L 260.555151 21.850606 
L 260.68769 20.37986 
L 260.820229 21.439417 
L 260.952769 21.027999 
L 261.085308 20.080904 
L 261.217847 21.685589 
L 261.350386 20.369892 
L 261.482926 21.968935 
L 261.615465 21.185137 
L 261.748004 22.280868 
L 261.880544 22.207111 
L 262.013083 21.101034 
L 262.278161 22.397548 
L 262.54324 20.415055 
L 262.675779 21.285331 
L 262.808319 21.392486 
L 262.940858 19.884115 
L 263.073397 20.765694 
L 263.205936 20.743026 
L 263.338476 20.585157 
L 263.471015 20.819489 
L 263.603554 19.930437 
L 263.736094 19.91356 
L 263.868633 20.219277 
L 264.001172 19.350459 
L 264.266251 19.778766 
L 264.39879 19.410713 
L 264.663869 20.762511 
L 264.796408 19.140715 
L 264.928947 20.165455 
L 265.061486 19.16432 
L 265.194026 19.248494 
L 265.326565 19.720737 
L 265.459104 18.825596 
L 265.591644 19.009344 
L 265.724183 20.104629 
L 265.856722 18.970273 
L 266.121801 19.977931 
L 266.25434 20.412723 
L 266.386879 20.14385 
L 266.519418 20.143169 
L 266.651958 20.723628 
L 266.784497 20.014699 
L 267.049576 21.050753 
L 267.182115 21.045282 
L 267.447193 21.441178 
L 267.712272 20.932678 
L 267.977351 20.486905 
L 268.10989 21.021678 
L 268.242429 19.723187 
L 268.507508 20.216697 
L 268.640047 20.02699 
L 268.905126 20.187477 
L 269.037665 20.88418 
L 269.170204 19.562795 
L 269.302743 19.791699 
L 269.435283 19.696494 
L 269.96544 20.605173 
L 270.097979 20.727913 
L 270.363058 20.627043 
L 270.495597 20.718962 
L 270.628136 19.677339 
L 270.893215 19.601472 
L 271.025754 19.239484 
L 271.158293 19.601707 
L 271.290833 19.319807 
L 271.68845 19.940563 
L 271.82099 19.066886 
L 271.953529 19.491016 
L 272.086068 19.18888 
L 272.483686 20.013364 
L 272.616225 19.886419 
L 272.748765 20.382588 
L 272.881304 20.009417 
L 273.013843 20.126358 
L 273.411461 19.598492 
L 273.941618 19.992171 
L 274.074158 20.685837 
L 274.206697 19.863993 
L 274.339236 20.421859 
L 274.471775 20.206862 
L 274.736854 20.74956 
L 275.001932 21.000585 
L 275.267011 21.885542 
L 275.39955 22.199841 
L 275.53209 22.066192 
L 275.664629 22.150227 
L 275.797168 21.971046 
L 276.194786 21.077626 
L 276.327325 21.044837 
L 276.459865 21.127208 
L 276.592404 20.819553 
L 276.724943 20.951282 
L 276.857482 20.725416 
L 276.990022 20.978682 
L 277.122561 20.936107 
L 277.38764 20.575319 
L 277.520179 20.548685 
L 277.652718 20.77788 
L 277.785257 20.749231 
L 278.050336 21.812793 
L 278.182875 21.877502 
L 278.315415 22.121005 
L 278.447954 21.619083 
L 278.580493 21.696825 
L 278.978111 21.007867 
L 279.11065 20.969567 
L 279.243189 20.63861 
L 279.375729 21.342528 
L 279.508268 21.342269 
L 279.640807 21.652133 
L 279.773347 21.288964 
L 279.905886 21.822716 
L 280.038425 21.592359 
L 280.303504 21.738825 
L 280.568582 22.514234 
L 280.701122 23.038223 
L 280.833661 22.936566 
L 280.9662 23.980524 
L 281.231279 23.621161 
L 281.363818 23.972399 
L 281.628897 23.499461 
L 281.761436 23.146173 
L 281.893975 23.473978 
L 282.291593 23.366021 
L 282.556672 24.008211 
L 282.82175 23.709104 
L 282.954289 24.128247 
L 283.351907 23.614427 
L 283.616986 24.577087 
L 283.749525 24.557208 
L 283.882064 25.466157 
L 284.014604 25.286058 
L 284.147143 25.334852 
L 284.412221 24.904597 
L 284.544761 24.691765 
L 284.6773 23.863181 
L 284.809839 24.491274 
L 285.207457 23.637884 
L 285.339996 24.161692 
L 285.472536 23.998751 
L 285.737614 24.084948 
L 285.870154 21.611558 
L 286.002693 23.599579 
L 286.267771 23.595757 
L 286.53285 24.111977 
L 286.665389 24.145864 
L 286.797929 24.41327 
L 287.328086 23.376302 
L 287.460625 23.542941 
L 287.858243 23.129701 
L 287.990782 23.729635 
L 288.255861 23.74108 
L 288.3884 24.260526 
L 288.653478 24.376929 
L 288.786018 24.071741 
L 288.918557 24.666175 
L 289.183636 24.8749 
L 289.316175 25.869554 
L 289.448714 25.955023 
L 289.713793 26.873508 
L 289.978871 27.463384 
L 290.111411 26.953789 
L 290.24395 27.546662 
L 290.376489 27.05431 
L 290.641568 27.440881 
L 291.701882 30.162184 
L 291.834421 29.472254 
L 291.96696 30.620182 
L 292.0995 30.01338 
L 292.232039 30.953889 
L 292.364578 30.96778 
L 292.497118 32.144159 
L 292.629657 31.331058 
L 292.762196 32.589708 
L 292.894735 31.264675 
L 293.027275 31.606196 
L 293.159814 31.016198 
L 293.292353 31.250626 
L 293.424893 30.539847 
L 293.557432 30.938456 
L 293.689971 30.271389 
L 293.82251 31.025119 
L 293.95505 30.462188 
L 294.087589 30.649396 
L 294.220128 30.462188 
L 294.352668 31.029333 
L 294.485207 30.046005 
L 294.617746 30.456136 
L 294.750285 29.824843 
L 294.882825 30.550422 
L 295.015364 30.064788 
L 295.280443 30.830662 
L 295.545521 30.870574 
L 296.075678 30.24852 
L 296.208217 31.30778 
L 296.340757 30.172804 
L 296.473296 32.000826 
L 296.605835 30.660755 
L 296.738375 32.141733 
L 296.870914 31.341515 
L 297.003453 32.644251 
L 297.135992 31.473942 
L 297.268532 34.75744 
L 297.401071 31.785002 
L 297.53361 32.836609 
L 297.66615 32.220066 
L 297.798689 33.131638 
L 297.931228 32.595561 
L 298.461385 33.084635 
L 298.593925 33.922345 
L 298.726464 33.817756 
L 298.991542 35.013433 
L 299.5217 36.563597 
L 299.654239 36.851444 
L 299.786778 36.867239 
L 299.919317 35.51985 
L 300.051857 39.12087 
L 300.184396 37.492321 
L 300.316935 37.393667 
L 300.714553 37.622599 
L 300.847092 38.61786 
L 300.979632 36.942893 
L 301.112171 37.81158 
L 301.509789 37.898533 
L 301.642328 37.757305 
L 301.774867 37.784674 
L 301.907407 37.617471 
L 302.039946 38.599692 
L 302.172485 36.861283 
L 302.305024 37.915319 
L 302.437564 37.954922 
L 302.570103 38.368139 
L 302.702642 38.045781 
L 302.967721 39.772894 
L 303.10026 37.796985 
L 303.232799 39.207811 
L 303.497878 37.70261 
L 303.762957 39.12557 
L 303.895496 37.020434 
L 304.028035 39.295402 
L 304.160574 37.655045 
L 304.425653 39.815048 
L 304.558192 38.852887 
L 304.690732 40.995512 
L 304.823271 39.256353 
L 304.95581 40.130691 
L 305.088349 39.243228 
L 305.220889 40.720608 
L 305.353428 40.18769 
L 305.485967 41.901615 
L 305.618506 42.1171 
L 305.883585 42.749717 
L 306.016124 42.801309 
L 306.148664 42.217794 
L 306.281203 42.685642 
L 306.413742 41.207073 
L 306.546281 42.490852 
L 306.678821 42.06738 
L 306.943899 42.12232 
L 307.076439 42.568504 
L 307.208978 42.209055 
L 307.474056 43.596507 
L 307.606596 43.440776 
L 307.739135 43.797 
L 307.871674 44.967747 
L 308.004214 44.397261 
L 308.136753 44.479051 
L 308.401831 45.716564 
L 308.534371 46.013924 
L 308.799449 47.367137 
L 308.931989 45.512493 
L 309.197067 49.07847 
L 309.329606 47.578856 
L 309.594685 49.206419 
L 309.727224 47.17375 
L 309.859763 49.903668 
L 310.124842 48.256463 
L 310.257381 49.089235 
L 310.389921 48.211394 
L 310.654999 49.41814 
L 310.787538 48.639156 
L 310.920078 48.61794 
L 311.052617 49.100118 
L 311.185156 48.470654 
L 311.317696 49.161935 
L 311.450235 48.843847 
L 311.582774 48.144197 
L 311.980392 49.19257 
L 312.112931 48.227712 
L 312.245471 49.864574 
L 312.37801 48.583738 
L 312.510549 49.507085 
L 312.643088 49.327497 
L 312.775628 50.1604 
L 312.908167 48.77598 
L 313.040706 50.619384 
L 313.173246 49.740478 
L 313.438324 50.13941 
L 313.570863 51.253898 
L 313.703403 50.410463 
L 314.10102 52.022239 
L 314.23356 51.95459 
L 314.366099 51.317558 
L 314.631178 53.580033 
L 314.763717 53.471905 
L 314.896256 53.201624 
L 315.293874 54.672934 
L 315.426413 53.839419 
L 315.558953 54.152326 
L 315.691492 55.475652 
L 315.824031 54.775887 
L 315.95657 56.153597 
L 316.08911 55.038889 
L 316.221649 56.568674 
L 316.354188 55.889305 
L 316.486728 56.595572 
L 316.619267 55.80056 
L 316.751806 56.894964 
L 316.884345 56.229203 
L 317.016885 57.235188 
L 317.149424 56.536839 
L 317.281963 57.579074 
L 317.414503 57.617605 
L 317.547042 56.798492 
L 317.679581 58.254075 
L 317.94466 57.520925 
L 318.077199 58.527561 
L 318.342277 58.237551 
L 318.474817 58.553566 
L 318.607356 58.481659 
L 318.739895 59.419363 
L 318.872435 57.898462 
L 319.004974 59.301852 
L 319.137513 59.376085 
L 319.66767 60.309124 
L 319.80021 59.839083 
L 320.065288 60.179469 
L 320.197827 60.052297 
L 320.462906 61.0195 
L 320.595445 61.123552 
L 320.727985 61.592248 
L 320.860524 61.199328 
L 321.920838 62.71657 
L 322.053377 63.292595 
L 322.185917 63.129177 
L 322.450995 63.717019 
L 324.306545 66.704627 
L 324.439084 66.537608 
L 324.571624 66.876676 
L 324.704163 69.221279 
L 324.836702 67.841691 
L 324.969242 69.324581 
L 325.101781 67.45828 
L 325.23432 67.534063 
L 325.366859 71.25462 
L 325.499399 67.732285 
L 325.764477 69.107816 
L 325.897017 69.031659 
L 326.029556 71.405187 
L 326.162095 69.170714 
L 326.294634 70.154745 
L 326.559713 68.803265 
L 326.692252 69.906762 
L 326.824791 69.212709 
L 326.957331 70.627283 
L 327.08987 69.643535 
L 327.222409 74.292145 
L 327.354949 70.751179 
L 327.487488 71.051944 
L 327.620027 70.802919 
L 327.752566 72.507877 
L 327.885106 72.090097 
L 328.017645 72.808778 
L 328.150184 72.099544 
L 328.415263 72.908238 
L 328.680341 73.395996 
L 328.812881 74.970871 
L 328.94542 73.67863 
L 329.077959 74.215451 
L 329.210499 74.247025 
L 329.475577 75.089031 
L 329.608116 74.844409 
L 329.740656 75.585793 
L 329.873195 75.637102 
L 330.005734 76.051208 
L 330.138274 76.041452 
L 330.270813 76.644405 
L 330.403352 76.658156 
L 330.535891 77.043908 
L 330.668431 78.614179 
L 330.80097 77.487048 
L 331.198588 78.592107 
L 331.331127 78.191742 
L 331.596206 79.624505 
L 331.728745 79.324471 
L 331.861284 78.734266 
L 331.993823 80.278239 
L 332.126363 79.179241 
L 332.258902 80.395377 
L 332.523981 79.631104 
L 332.789059 80.412907 
L 332.921598 80.155018 
L 333.319216 80.415481 
L 334.379531 81.448824 
L 334.51207 81.667797 
L 334.644609 80.7358 
L 334.909688 82.434796 
L 335.042227 82.376216 
L 335.439845 82.991316 
L 336.23508 85.235225 
L 336.36762 85.068265 
L 336.500159 86.606785 
L 336.632698 85.978507 
L 336.897777 87.304813 
L 337.295395 88.516298 
L 337.427934 89.824526 
L 337.560473 88.295764 
L 337.693013 90.465004 
L 337.825552 88.892239 
L 338.09063 90.183506 
L 338.22317 90.251977 
L 338.355709 91.405777 
L 338.488248 90.08935 
L 338.753327 91.05869 
L 338.885866 91.82961 
L 339.018405 91.45919 
L 339.150945 89.801793 
L 339.283484 91.992538 
L 339.416023 91.739612 
L 339.548563 90.772191 
L 339.681102 91.702738 
L 339.813641 91.035514 
L 339.94618 91.896863 
L 340.211259 91.178562 
L 340.343798 92.107032 
L 340.476337 91.928015 
L 340.608877 91.936958 
L 340.741416 92.274983 
L 340.873955 92.099609 
L 341.271573 92.628755 
L 341.404112 92.635026 
L 341.536652 95.398881 
L 341.669191 93.381381 
L 341.80173 93.373569 
L 342.331887 94.327401 
L 342.596966 94.965327 
L 342.729505 95.810939 
L 342.994584 95.426081 
L 343.392202 96.067409 
L 343.524741 96.726127 
L 343.65728 96.342841 
L 343.78982 96.646092 
L 343.922359 96.241981 
L 344.054898 96.993907 
L 344.187437 96.999218 
L 344.585055 97.804049 
L 344.850134 97.964477 
L 344.982673 98.364408 
L 345.115212 98.341773 
L 345.380291 98.923066 
L 345.645369 99.421734 
L 346.308066 101.213776 
L 346.440605 101.569059 
L 346.573144 102.420748 
L 346.705684 102.342824 
L 346.970762 102.998536 
L 347.103302 105.598922 
L 347.235841 103.671119 
L 347.500919 104.278822 
L 347.633459 105.372715 
L 347.765998 105.053594 
L 347.898537 106.048811 
L 348.031077 104.625969 
L 348.163616 106.506474 
L 348.296155 105.040264 
L 348.428694 106.759706 
L 348.693773 105.37134 
L 348.826312 107.283306 
L 348.958851 105.697692 
L 349.091391 107.502874 
L 349.22393 105.871047 
L 349.356469 107.502872 
L 349.489009 106.949884 
L 349.621548 105.491104 
L 349.754087 107.624936 
L 349.886626 106.273357 
L 350.019166 109.094532 
L 350.284244 106.768889 
L 350.416784 108.742008 
L 350.549323 107.160778 
L 350.681862 109.133898 
L 350.814401 108.703084 
L 350.946941 109.020415 
L 351.07948 109.935742 
L 351.212019 109.713697 
L 351.874716 112.19749 
L 352.007255 111.944628 
L 353.067569 114.538445 
L 353.597726 115.580817 
L 353.730266 115.595948 
L 353.862805 118.362605 
L 353.995344 116.131999 
L 354.392962 116.412965 
L 354.658041 116.928563 
L 354.79058 116.37187 
L 354.923119 116.817133 
L 355.055658 116.867295 
L 355.188198 118.471429 
L 355.453276 116.844572 
L 355.585816 117.973338 
L 355.718355 117.066464 
L 355.850894 118.275288 
L 355.983433 117.676371 
L 356.115973 119.246415 
L 356.248512 117.550465 
L 356.381051 119.162707 
L 356.513591 117.62418 
L 356.64613 119.449431 
L 356.911208 118.188347 
L 357.043748 120.018061 
L 357.308826 118.611192 
L 357.441365 120.348653 
L 357.573905 119.646524 
L 357.838983 120.129592 
L 357.971523 120.022758 
L 358.104062 120.433442 
L 358.236601 120.437029 
L 358.36914 120.624538 
L 358.50168 121.007126 
L 358.634219 120.872904 
L 359.031837 121.819912 
L 359.296915 122.189566 
L 359.429455 122.722431 
L 359.561994 122.461881 
L 359.827073 123.183766 
L 360.622308 125.033877 
L 360.754848 125.538654 
L 360.887387 125.037034 
L 361.152465 126.273604 
L 361.285005 128.001062 
L 361.417544 126.844368 
L 361.550083 127.052863 
L 361.947701 128.651985 
L 362.08024 127.682196 
L 362.21278 129.166252 
L 362.345319 127.979482 
L 362.477858 129.008627 
L 362.477858 129.008627 
" clip-path="url(#p8f0f5ec9cb)" style="fill: none; stroke: #2a2eec; stroke-width: 0.4; stroke-linecap: round"/>
   </g>
   <g id="line2d_36">
    <path d="M 55.649422 122.819165 
L 61.48115 131.887357 
L 66.517643 139.316904 
L 71.023978 145.579241 
L 75.132696 150.92496 
L 78.976335 155.577197 
L 82.687435 159.722309 
L 86.133457 163.245979 
L 89.446939 166.322757 
L 92.627881 168.976824 
L 95.676285 171.235151 
L 98.592149 173.126695 
L 101.508013 174.749552 
L 104.291338 176.043404 
L 106.942124 177.040582 
L 109.592909 177.806031 
L 112.243695 178.338065 
L 114.894481 178.635657 
L 117.412727 178.700876 
L 119.930973 178.554405 
L 122.581759 178.172369 
L 125.232545 177.558122 
L 127.88333 176.713799 
L 130.534116 175.642156 
L 133.317441 174.275968 
L 136.233305 172.58493 
L 139.149169 170.634104 
L 142.197573 168.324406 
L 145.378515 165.629332 
L 148.691997 162.524452 
L 152.138019 158.988122 
L 155.849119 154.848769 
L 159.692758 150.223773 
L 163.801475 144.93058 
L 168.307811 138.752149 
L 173.211764 131.642825 
L 178.778414 123.171097 
L 185.537918 112.458289 
L 196.273599 94.955991 
L 207.009281 77.590847 
L 213.503706 67.510633 
L 218.805277 59.677947 
L 223.576691 53.019483 
L 227.817948 47.468718 
L 231.794127 42.621262 
L 235.505227 38.439824 
L 238.951248 34.877384 
L 242.26473 31.761802 
L 245.445673 29.071886 
L 248.494076 26.783032 
L 251.40994 24.86803 
L 254.193265 23.297799 
L 256.97659 21.98549 
L 259.627376 20.980224 
L 262.278161 20.217319 
L 264.796408 19.719722 
L 267.314654 19.445345 
L 269.832901 19.395375 
L 272.351147 19.57033 
L 274.869393 19.970057 
L 277.38764 20.593728 
L 279.905886 21.439841 
L 282.556672 22.568392 
L 285.207457 23.937654 
L 287.990782 25.629891 
L 290.906646 27.676147 
L 293.82251 29.994565 
L 296.870914 32.699742 
L 300.051857 35.817038 
L 303.497878 39.517045 
L 307.076439 43.693801 
L 310.920078 48.531785 
L 315.028795 54.069999 
L 319.535131 60.529668 
L 324.571624 68.154372 
L 330.403352 77.404195 
L 337.958091 89.833665 
L 357.043748 121.4295 
L 362.477858 129.953286 
L 362.477858 129.953286 
" clip-path="url(#p8f0f5ec9cb)" style="fill: none; stroke: #fa7c17; stroke-width: 0.4; stroke-linecap: round"/>
   </g>
   <g id="patch_3">
    <path d="M 40.308 187.363104 
L 40.308 10.8 
" style="fill: none; stroke: #000000; stroke-linejoin: miter; stroke-linecap: square"/>
   </g>
   <g id="patch_4">
    <path d="M 40.308 187.363104 
L 377.81928 187.363104 
" style="fill: none; stroke: #000000; stroke-linejoin: miter; stroke-linecap: square"/>
   </g>
   <g id="legend_1">
    <g id="line2d_37">
     <path d="M 46.608 19.968906 
L 53.608 19.968906 
L 60.608 19.968906 
" style="fill: none; stroke: #2a2eec; stroke-width: 0.4; stroke-linecap: round"/>
    </g>
    <g id="text_20">
     <!-- ShipFlow Motions -->
     <g style="fill: #262626" transform="translate(66.208 22.418906) scale(0.07 -0.07)">
      <defs>
       <path id="DejaVuSerif-53" d="M 594 225 
L 594 1288 
L 953 1284 
Q 969 753 1261 498 
Q 1553 244 2150 244 
Q 2706 244 2998 464 
Q 3291 684 3291 1106 
Q 3291 1444 3114 1625 
Q 2938 1806 2369 1978 
L 1753 2163 
Q 1084 2366 811 2669 
Q 538 2972 538 3500 
Q 538 4094 959 4422 
Q 1381 4750 2144 4750 
Q 2469 4750 2856 4679 
Q 3244 4609 3681 4475 
L 3681 3481 
L 3328 3481 
Q 3275 3975 2998 4195 
Q 2722 4416 2156 4416 
Q 1663 4416 1405 4214 
Q 1147 4013 1147 3628 
Q 1147 3294 1340 3103 
Q 1534 2913 2163 2725 
L 2741 2553 
Q 3375 2363 3645 2067 
Q 3916 1772 3916 1275 
Q 3916 597 3481 253 
Q 3047 -91 2188 -91 
Q 1803 -91 1404 -12 
Q 1006 66 594 225 
z
" transform="scale(0.015625)"/>
       <path id="DejaVuSerif-68" d="M 263 0 
L 263 331 
L 781 331 
L 781 4531 
L 231 4531 
L 231 4863 
L 1356 4863 
L 1356 2731 
Q 1516 3069 1770 3241 
Q 2025 3413 2363 3413 
Q 2913 3413 3172 3097 
Q 3431 2781 3431 2113 
L 3431 331 
L 3944 331 
L 3944 0 
L 2356 0 
L 2356 331 
L 2853 331 
L 2853 1931 
Q 2853 2541 2704 2764 
Q 2556 2988 2175 2988 
Q 1775 2988 1565 2697 
Q 1356 2406 1356 1850 
L 1356 331 
L 1856 331 
L 1856 0 
L 263 0 
z
" transform="scale(0.015625)"/>
       <path id="DejaVuSerif-70" d="M 1313 1825 
L 1313 1497 
Q 1313 897 1542 583 
Q 1772 269 2209 269 
Q 2650 269 2876 622 
Q 3103 975 3103 1663 
Q 3103 2353 2876 2703 
Q 2650 3053 2209 3053 
Q 1772 3053 1542 2737 
Q 1313 2422 1313 1825 
z
M 738 2988 
L 184 2988 
L 184 3322 
L 1313 3322 
L 1313 2803 
Q 1481 3116 1742 3264 
Q 2003 3413 2388 3413 
Q 3000 3413 3387 2928 
Q 3775 2444 3775 1663 
Q 3775 881 3387 395 
Q 3000 -91 2388 -91 
Q 2003 -91 1742 57 
Q 1481 206 1313 519 
L 1313 -997 
L 1856 -997 
L 1856 -1331 
L 184 -1331 
L 184 -997 
L 738 -997 
L 738 2988 
z
" transform="scale(0.015625)"/>
       <path id="DejaVuSerif-46" d="M 353 0 
L 353 331 
L 947 331 
L 947 4331 
L 353 4331 
L 353 4666 
L 4172 4666 
L 4172 3628 
L 3788 3628 
L 3788 4281 
L 1581 4281 
L 1581 2719 
L 3175 2719 
L 3175 3303 
L 3559 3303 
L 3559 1753 
L 3175 1753 
L 3175 2338 
L 1581 2338 
L 1581 331 
L 2328 331 
L 2328 0 
L 353 0 
z
" transform="scale(0.015625)"/>
       <path id="DejaVuSerif-6c" d="M 1313 331 
L 1856 331 
L 1856 0 
L 184 0 
L 184 331 
L 738 331 
L 738 4531 
L 184 4531 
L 184 4863 
L 1313 4863 
L 1313 331 
z
" transform="scale(0.015625)"/>
       <path id="DejaVuSerif-6f" d="M 1925 219 
Q 2388 219 2623 584 
Q 2859 950 2859 1663 
Q 2859 2375 2623 2739 
Q 2388 3103 1925 3103 
Q 1463 3103 1227 2739 
Q 991 2375 991 1663 
Q 991 950 1228 584 
Q 1466 219 1925 219 
z
M 1925 -91 
Q 1200 -91 759 389 
Q 319 869 319 1663 
Q 319 2456 758 2934 
Q 1197 3413 1925 3413 
Q 2653 3413 3092 2934 
Q 3531 2456 3531 1663 
Q 3531 869 3092 389 
Q 2653 -91 1925 -91 
z
" transform="scale(0.015625)"/>
       <path id="DejaVuSerif-77" d="M 3072 3322 
L 3922 728 
L 4672 2988 
L 4191 2988 
L 4191 3322 
L 5394 3322 
L 5394 2988 
L 5025 2988 
L 4038 0 
L 3559 0 
L 2741 2484 
L 1919 0 
L 1459 0 
L 475 2988 
L 103 2988 
L 103 3322 
L 1606 3322 
L 1606 2988 
L 1069 2988 
L 1813 728 
L 2669 3322 
L 3072 3322 
z
" transform="scale(0.015625)"/>
       <path id="DejaVuSerif-4d" d="M 353 0 
L 353 331 
L 947 331 
L 947 4331 
L 319 4331 
L 319 4666 
L 1678 4666 
L 3316 1344 
L 4953 4666 
L 6228 4666 
L 6228 4331 
L 5606 4331 
L 5606 331 
L 6203 331 
L 6203 0 
L 4378 0 
L 4378 331 
L 4972 331 
L 4972 3938 
L 3372 684 
L 2931 684 
L 1331 3938 
L 1331 331 
L 1925 331 
L 1925 0 
L 353 0 
z
" transform="scale(0.015625)"/>
       <path id="DejaVuSerif-74" d="M 691 2988 
L 184 2988 
L 184 3322 
L 691 3322 
L 691 4353 
L 1269 4353 
L 1269 3322 
L 2350 3322 
L 2350 2988 
L 1269 2988 
L 1269 878 
Q 1269 456 1350 337 
Q 1431 219 1650 219 
Q 1875 219 1978 351 
Q 2081 484 2088 781 
L 2522 781 
Q 2497 328 2275 118 
Q 2053 -91 1600 -91 
Q 1103 -91 897 129 
Q 691 350 691 878 
L 691 2988 
z
" transform="scale(0.015625)"/>
       <path id="DejaVuSerif-6e" d="M 263 0 
L 263 331 
L 781 331 
L 781 2988 
L 231 2988 
L 231 3322 
L 1356 3322 
L 1356 2731 
Q 1516 3069 1770 3241 
Q 2025 3413 2363 3413 
Q 2913 3413 3172 3097 
Q 3431 2781 3431 2113 
L 3431 331 
L 3944 331 
L 3944 0 
L 2356 0 
L 2356 331 
L 2853 331 
L 2853 1931 
Q 2853 2541 2703 2767 
Q 2553 2994 2175 2994 
Q 1775 2994 1565 2701 
Q 1356 2409 1356 1850 
L 1356 331 
L 1856 331 
L 1856 0 
L 263 0 
z
" transform="scale(0.015625)"/>
      </defs>
      <use xlink:href="#DejaVuSerif-53"/>
      <use xlink:href="#DejaVuSerif-68" x="68.505859"/>
      <use xlink:href="#DejaVuSerif-69" x="132.910156"/>
      <use xlink:href="#DejaVuSerif-70" x="164.892578"/>
      <use xlink:href="#DejaVuSerif-46" x="228.90625"/>
      <use xlink:href="#DejaVuSerif-6c" x="298.291016"/>
      <use xlink:href="#DejaVuSerif-6f" x="330.273438"/>
      <use xlink:href="#DejaVuSerif-77" x="390.478516"/>
      <use xlink:href="#DejaVuSerif-20" x="476.074219"/>
      <use xlink:href="#DejaVuSerif-4d" x="507.861328"/>
      <use xlink:href="#DejaVuSerif-6f" x="610.253906"/>
      <use xlink:href="#DejaVuSerif-74" x="670.458984"/>
      <use xlink:href="#DejaVuSerif-69" x="710.644531"/>
      <use xlink:href="#DejaVuSerif-6f" x="742.626953"/>
      <use xlink:href="#DejaVuSerif-6e" x="802.832031"/>
      <use xlink:href="#DejaVuSerif-73" x="867.236328"/>
     </g>
    </g>
    <g id="line2d_38">
     <path d="M 46.608 30.243594 
L 53.608 30.243594 
L 60.608 30.243594 
" style="fill: none; stroke: #fa7c17; stroke-width: 0.4; stroke-linecap: round"/>
    </g>
    <g id="text_21">
     <!-- Fourier -->
     <g style="fill: #262626" transform="translate(66.208 32.693594) scale(0.07 -0.07)">
      <defs>
       <path id="DejaVuSerif-75" d="M 2266 3322 
L 3341 3322 
L 3341 331 
L 3884 331 
L 3884 0 
L 2766 0 
L 2766 588 
Q 2606 256 2353 82 
Q 2100 -91 1766 -91 
Q 1213 -91 952 223 
Q 691 538 691 1209 
L 691 2988 
L 172 2988 
L 172 3322 
L 1269 3322 
L 1269 1388 
Q 1269 781 1417 556 
Q 1566 331 1947 331 
Q 2347 331 2556 625 
Q 2766 919 2766 1478 
L 2766 2988 
L 2266 2988 
L 2266 3322 
z
" transform="scale(0.015625)"/>
       <path id="DejaVuSerif-72" d="M 3059 3328 
L 3059 2497 
L 2728 2497 
Q 2713 2744 2591 2866 
Q 2469 2988 2234 2988 
Q 1809 2988 1582 2694 
Q 1356 2400 1356 1850 
L 1356 331 
L 2022 331 
L 2022 0 
L 263 0 
L 263 331 
L 781 331 
L 781 2994 
L 231 2994 
L 231 3322 
L 1356 3322 
L 1356 2731 
Q 1525 3078 1790 3245 
Q 2056 3413 2438 3413 
Q 2578 3413 2733 3391 
Q 2888 3369 3059 3328 
z
" transform="scale(0.015625)"/>
      </defs>
      <use xlink:href="#DejaVuSerif-46"/>
      <use xlink:href="#DejaVuSerif-6f" x="63.884766"/>
      <use xlink:href="#DejaVuSerif-75" x="124.089844"/>
      <use xlink:href="#DejaVuSerif-72" x="188.494141"/>
      <use xlink:href="#DejaVuSerif-69" x="236.296875"/>
      <use xlink:href="#DejaVuSerif-65" x="268.279297"/>
      <use xlink:href="#DejaVuSerif-72" x="327.458984"/>
     </g>
    </g>
   </g>
  </g>
 </g>
 <defs>
  <clipPath id="p8f0f5ec9cb">
   <rect x="40.308" y="10.8" width="337.51128" height="176.563104"/>
  </clipPath>
 </defs>
</svg>
