<?xml version="1.0" encoding="utf-8" standalone="no"?>
<!DOCTYPE svg PUBLIC "-//W3C//DTD SVG 1.1//EN"
  "http://www.w3.org/Graphics/SVG/1.1/DTD/svg11.dtd">
<svg xmlns:xlink="http://www.w3.org/1999/xlink" width="388.61928pt" height="218.623104pt" viewBox="0 0 388.61928 218.623104" xmlns="http://www.w3.org/2000/svg" version="1.1">
 <metadata>
  <rdf:RDF xmlns:dc="http://purl.org/dc/elements/1.1/" xmlns:cc="http://creativecommons.org/ns#" xmlns:rdf="http://www.w3.org/1999/02/22-rdf-syntax-ns#">
   <cc:Work>
    <dc:type rdf:resource="http://purl.org/dc/dcmitype/StillImage"/>
    <dc:date>2024-11-13T09:37:37.892100</dc:date>
    <dc:format>image/svg+xml</dc:format>
    <dc:creator>
     <cc:Agent>
      <dc:title>Matplotlib v3.8.2, https://matplotlib.org/</dc:title>
     </cc:Agent>
    </dc:creator>
   </cc:Work>
  </rdf:RDF>
 </metadata>
 <defs>
  <style type="text/css">*{stroke-linejoin: round; stroke-linecap: butt}</style>
 </defs>
 <g id="figure_1">
  <g id="patch_1">
   <path d="M 0 218.623104 
L 388.61928 218.623104 
L 388.61928 0 
L 0 0 
z
" style="fill: #ffffff"/>
  </g>
  <g id="axes_1">
   <g id="patch_2">
    <path d="M 37.758834 195.348177 
L 385.61904 195.348177 
L 385.61904 3.00024 
L 37.758834 3.00024 
z
" style="fill: #ffffff"/>
   </g>
   <g id="matplotlib.axis_1">
    <g id="xtick_1">
     <g id="line2d_1"/>
     <g id="text_1">
      <!-- −10 -->
      <g style="fill: #262626" transform="translate(78.569192 204.167083) scale(0.07 -0.07)">
       <defs>
        <path id="DejaVuSerif-2212" d="M 678 2259 
L 4684 2259 
L 4684 1753 
L 678 1753 
L 678 2259 
z
" transform="scale(0.015625)"/>
        <path id="DejaVuSerif-31" d="M 909 0 
L 909 331 
L 1722 331 
L 1722 4213 
L 781 3603 
L 781 4013 
L 1919 4750 
L 2350 4750 
L 2350 331 
L 3163 331 
L 3163 0 
L 909 0 
z
" transform="scale(0.015625)"/>
        <path id="DejaVuSerif-30" d="M 2034 219 
Q 2513 219 2750 744 
Q 2988 1269 2988 2328 
Q 2988 3391 2750 3916 
Q 2513 4441 2034 4441 
Q 1556 4441 1318 3916 
Q 1081 3391 1081 2328 
Q 1081 1269 1318 744 
Q 1556 219 2034 219 
z
M 2034 -91 
Q 1275 -91 848 546 
Q 422 1184 422 2328 
Q 422 3475 848 4112 
Q 1275 4750 2034 4750 
Q 2797 4750 3222 4112 
Q 3647 3475 3647 2328 
Q 3647 1184 3222 546 
Q 2797 -91 2034 -91 
z
" transform="scale(0.015625)"/>
       </defs>
       <use xlink:href="#DejaVuSerif-2212"/>
       <use xlink:href="#DejaVuSerif-31" x="83.789062"/>
       <use xlink:href="#DejaVuSerif-30" x="147.412109"/>
      </g>
     </g>
    </g>
    <g id="xtick_2">
     <g id="line2d_2"/>
     <g id="text_2">
      <!-- −5 -->
      <g style="fill: #262626" transform="translate(137.566343 204.167083) scale(0.07 -0.07)">
       <defs>
        <path id="DejaVuSerif-35" d="M 3219 4666 
L 3219 4153 
L 1081 4153 
L 1081 2816 
Q 1244 2928 1461 2984 
Q 1678 3041 1947 3041 
Q 2703 3041 3140 2622 
Q 3578 2203 3578 1478 
Q 3578 738 3136 323 
Q 2694 -91 1894 -91 
Q 1572 -91 1234 -12 
Q 897 66 544 225 
L 544 1131 
L 897 1131 
Q 925 688 1179 453 
Q 1434 219 1894 219 
Q 2388 219 2653 544 
Q 2919 869 2919 1478 
Q 2919 2084 2655 2407 
Q 2391 2731 1894 2731 
Q 1613 2731 1398 2631 
Q 1184 2531 1019 2322 
L 750 2322 
L 750 4666 
L 3219 4666 
z
" transform="scale(0.015625)"/>
       </defs>
       <use xlink:href="#DejaVuSerif-2212"/>
       <use xlink:href="#DejaVuSerif-35" x="83.789062"/>
      </g>
     </g>
    </g>
    <g id="xtick_3">
     <g id="line2d_3"/>
     <g id="text_3">
      <!-- 0 -->
      <g style="fill: #262626" transform="translate(197.26951 204.167083) scale(0.07 -0.07)">
       <use xlink:href="#DejaVuSerif-30"/>
      </g>
     </g>
    </g>
    <g id="xtick_4">
     <g id="line2d_4"/>
     <g id="text_4">
      <!-- 5 -->
      <g style="fill: #262626" transform="translate(254.039786 204.167083) scale(0.07 -0.07)">
       <use xlink:href="#DejaVuSerif-35"/>
      </g>
     </g>
    </g>
    <g id="xtick_5">
     <g id="line2d_5"/>
     <g id="text_5">
      <!-- 10 -->
      <g style="fill: #262626" transform="translate(308.583187 204.167083) scale(0.07 -0.07)">
       <use xlink:href="#DejaVuSerif-31"/>
       <use xlink:href="#DejaVuSerif-30" x="63.623047"/>
      </g>
     </g>
    </g>
    <g id="xtick_6">
     <g id="line2d_6"/>
     <g id="text_6">
      <!-- 15 -->
      <g style="fill: #262626" transform="translate(365.353462 204.167083) scale(0.07 -0.07)">
       <use xlink:href="#DejaVuSerif-31"/>
       <use xlink:href="#DejaVuSerif-35" x="63.623047"/>
      </g>
     </g>
    </g>
    <g id="text_7">
     <!-- Drift angle $\beta$ [deg] -->
     <g style="fill: #262626" transform="translate(183.458937 214.242864) scale(0.06 -0.06)">
      <defs>
       <path id="DejaVuSerif-44" d="M 1581 331 
L 2163 331 
Q 3072 331 3558 850 
Q 4044 1369 4044 2338 
Q 4044 3306 3559 3818 
Q 3075 4331 2163 4331 
L 1581 4331 
L 1581 331 
z
M 353 0 
L 353 331 
L 947 331 
L 947 4331 
L 353 4331 
L 353 4666 
L 2209 4666 
Q 3416 4666 4089 4050 
Q 4763 3434 4763 2338 
Q 4763 1238 4088 619 
Q 3413 0 2209 0 
L 353 0 
z
" transform="scale(0.015625)"/>
       <path id="DejaVuSerif-72" d="M 3059 3328 
L 3059 2497 
L 2728 2497 
Q 2713 2744 2591 2866 
Q 2469 2988 2234 2988 
Q 1809 2988 1582 2694 
Q 1356 2400 1356 1850 
L 1356 331 
L 2022 331 
L 2022 0 
L 263 0 
L 263 331 
L 781 331 
L 781 2994 
L 231 2994 
L 231 3322 
L 1356 3322 
L 1356 2731 
Q 1525 3078 1790 3245 
Q 2056 3413 2438 3413 
Q 2578 3413 2733 3391 
Q 2888 3369 3059 3328 
z
" transform="scale(0.015625)"/>
       <path id="DejaVuSerif-69" d="M 622 4353 
Q 622 4497 726 4603 
Q 831 4709 978 4709 
Q 1122 4709 1226 4603 
Q 1331 4497 1331 4353 
Q 1331 4206 1228 4103 
Q 1125 4000 978 4000 
Q 831 4000 726 4103 
Q 622 4206 622 4353 
z
M 1356 331 
L 1900 331 
L 1900 0 
L 231 0 
L 231 331 
L 781 331 
L 781 2988 
L 231 2988 
L 231 3322 
L 1356 3322 
L 1356 331 
z
" transform="scale(0.015625)"/>
       <path id="DejaVuSerif-66" d="M 2753 4078 
L 2450 4078 
Q 2447 4313 2317 4434 
Q 2188 4556 1941 4556 
Q 1619 4556 1487 4379 
Q 1356 4203 1356 3750 
L 1356 3322 
L 2284 3322 
L 2284 2988 
L 1356 2988 
L 1356 331 
L 2094 331 
L 2094 0 
L 231 0 
L 231 331 
L 781 331 
L 781 2988 
L 231 2988 
L 231 3322 
L 781 3322 
L 781 3738 
Q 781 4294 1070 4578 
Q 1359 4863 1919 4863 
Q 2128 4863 2337 4825 
Q 2547 4788 2753 4709 
L 2753 4078 
z
" transform="scale(0.015625)"/>
       <path id="DejaVuSerif-74" d="M 691 2988 
L 184 2988 
L 184 3322 
L 691 3322 
L 691 4353 
L 1269 4353 
L 1269 3322 
L 2350 3322 
L 2350 2988 
L 1269 2988 
L 1269 878 
Q 1269 456 1350 337 
Q 1431 219 1650 219 
Q 1875 219 1978 351 
Q 2081 484 2088 781 
L 2522 781 
Q 2497 328 2275 118 
Q 2053 -91 1600 -91 
Q 1103 -91 897 129 
Q 691 350 691 878 
L 691 2988 
z
" transform="scale(0.015625)"/>
       <path id="DejaVuSerif-20" transform="scale(0.015625)"/>
       <path id="DejaVuSerif-61" d="M 2547 1044 
L 2547 1747 
L 1806 1747 
Q 1378 1747 1168 1562 
Q 959 1378 959 997 
Q 959 650 1171 447 
Q 1384 244 1747 244 
Q 2106 244 2326 466 
Q 2547 688 2547 1044 
z
M 3122 2075 
L 3122 331 
L 3634 331 
L 3634 0 
L 2547 0 
L 2547 359 
Q 2356 128 2106 18 
Q 1856 -91 1522 -91 
Q 969 -91 644 203 
Q 319 497 319 997 
Q 319 1513 691 1797 
Q 1063 2081 1741 2081 
L 2547 2081 
L 2547 2309 
Q 2547 2688 2317 2895 
Q 2088 3103 1672 3103 
Q 1328 3103 1125 2947 
Q 922 2791 872 2484 
L 575 2484 
L 575 3156 
Q 875 3284 1158 3348 
Q 1441 3413 1709 3413 
Q 2400 3413 2761 3070 
Q 3122 2728 3122 2075 
z
" transform="scale(0.015625)"/>
       <path id="DejaVuSerif-6e" d="M 263 0 
L 263 331 
L 781 331 
L 781 2988 
L 231 2988 
L 231 3322 
L 1356 3322 
L 1356 2731 
Q 1516 3069 1770 3241 
Q 2025 3413 2363 3413 
Q 2913 3413 3172 3097 
Q 3431 2781 3431 2113 
L 3431 331 
L 3944 331 
L 3944 0 
L 2356 0 
L 2356 331 
L 2853 331 
L 2853 1931 
Q 2853 2541 2703 2767 
Q 2553 2994 2175 2994 
Q 1775 2994 1565 2701 
Q 1356 2409 1356 1850 
L 1356 331 
L 1856 331 
L 1856 0 
L 263 0 
z
" transform="scale(0.015625)"/>
       <path id="DejaVuSerif-67" d="M 3359 2988 
L 3359 72 
Q 3359 -644 2965 -1033 
Q 2572 -1422 1844 -1422 
Q 1516 -1422 1216 -1362 
Q 916 -1303 641 -1184 
L 641 -488 
L 941 -488 
Q 997 -813 1206 -963 
Q 1416 -1113 1806 -1113 
Q 2313 -1113 2548 -827 
Q 2784 -541 2784 72 
L 2784 519 
Q 2616 206 2355 57 
Q 2094 -91 1709 -91 
Q 1097 -91 708 395 
Q 319 881 319 1663 
Q 319 2444 706 2928 
Q 1094 3413 1709 3413 
Q 2094 3413 2355 3264 
Q 2616 3116 2784 2803 
L 2784 3322 
L 3909 3322 
L 3909 2988 
L 3359 2988 
z
M 2784 1825 
Q 2784 2422 2554 2737 
Q 2325 3053 1888 3053 
Q 1444 3053 1217 2703 
Q 991 2353 991 1663 
Q 991 975 1217 622 
Q 1444 269 1888 269 
Q 2325 269 2554 583 
Q 2784 897 2784 1497 
L 2784 1825 
z
" transform="scale(0.015625)"/>
       <path id="DejaVuSerif-6c" d="M 1313 331 
L 1856 331 
L 1856 0 
L 184 0 
L 184 331 
L 738 331 
L 738 4531 
L 184 4531 
L 184 4863 
L 1313 4863 
L 1313 331 
z
" transform="scale(0.015625)"/>
       <path id="DejaVuSerif-65" d="M 3469 1600 
L 991 1600 
L 991 1575 
Q 991 903 1244 561 
Q 1497 219 1991 219 
Q 2369 219 2611 417 
Q 2853 616 2950 1006 
L 3413 1006 
Q 3275 459 2904 184 
Q 2534 -91 1931 -91 
Q 1203 -91 761 389 
Q 319 869 319 1663 
Q 319 2450 753 2931 
Q 1188 3413 1894 3413 
Q 2647 3413 3050 2948 
Q 3453 2484 3469 1600 
z
M 2791 1931 
Q 2772 2513 2545 2808 
Q 2319 3103 1894 3103 
Q 1497 3103 1269 2806 
Q 1041 2509 991 1931 
L 2791 1931 
z
" transform="scale(0.015625)"/>
       <path id="DejaVuSans-Oblique-3b2" d="M 872 216 
L 572 -1331 
L -6 -1331 
L 928 3478 
Q 1206 4903 2538 4903 
Q 3888 4903 3659 3700 
Q 3503 2844 2894 2531 
Q 3713 2250 3553 1416 
Q 3272 -69 1759 -66 
Q 1097 -63 872 216 
z
M 1019 966 
Q 1259 422 1875 425 
Q 2775 425 2966 1406 
Q 3138 2288 1675 2219 
L 1778 2750 
Q 2909 2731 3106 3750 
Q 3241 4438 2509 4434 
Q 1691 4434 1503 3459 
L 1019 966 
z
" transform="scale(0.015625)"/>
       <path id="DejaVuSerif-5b" d="M 550 4863 
L 2003 4863 
L 2003 4531 
L 1147 4531 
L 1147 -513 
L 2003 -513 
L 2003 -844 
L 550 -844 
L 550 4863 
z
" transform="scale(0.015625)"/>
       <path id="DejaVuSerif-64" d="M 3359 331 
L 3909 331 
L 3909 0 
L 2784 0 
L 2784 519 
Q 2616 206 2355 57 
Q 2094 -91 1709 -91 
Q 1097 -91 708 395 
Q 319 881 319 1663 
Q 319 2444 706 2928 
Q 1094 3413 1709 3413 
Q 2094 3413 2355 3264 
Q 2616 3116 2784 2803 
L 2784 4531 
L 2241 4531 
L 2241 4863 
L 3359 4863 
L 3359 331 
z
M 2784 1497 
L 2784 1825 
Q 2784 2422 2554 2737 
Q 2325 3053 1888 3053 
Q 1444 3053 1217 2703 
Q 991 2353 991 1663 
Q 991 975 1217 622 
Q 1444 269 1888 269 
Q 2325 269 2554 583 
Q 2784 897 2784 1497 
z
" transform="scale(0.015625)"/>
       <path id="DejaVuSerif-5d" d="M 1947 4863 
L 1947 -844 
L 494 -844 
L 494 -513 
L 1350 -513 
L 1350 4531 
L 494 4531 
L 494 4863 
L 1947 4863 
z
" transform="scale(0.015625)"/>
      </defs>
      <use xlink:href="#DejaVuSerif-44" transform="translate(0 0.390625)"/>
      <use xlink:href="#DejaVuSerif-72" transform="translate(80.175781 0.390625)"/>
      <use xlink:href="#DejaVuSerif-69" transform="translate(127.978516 0.390625)"/>
      <use xlink:href="#DejaVuSerif-66" transform="translate(159.960938 0.390625)"/>
      <use xlink:href="#DejaVuSerif-74" transform="translate(196.972656 0.390625)"/>
      <use xlink:href="#DejaVuSerif-20" transform="translate(237.158203 0.390625)"/>
      <use xlink:href="#DejaVuSerif-61" transform="translate(268.945312 0.390625)"/>
      <use xlink:href="#DejaVuSerif-6e" transform="translate(328.564453 0.390625)"/>
      <use xlink:href="#DejaVuSerif-67" transform="translate(392.96875 0.390625)"/>
      <use xlink:href="#DejaVuSerif-6c" transform="translate(456.982422 0.390625)"/>
      <use xlink:href="#DejaVuSerif-65" transform="translate(488.964844 0.390625)"/>
      <use xlink:href="#DejaVuSerif-20" transform="translate(548.144531 0.390625)"/>
      <use xlink:href="#DejaVuSans-Oblique-3b2" transform="translate(579.931641 0.390625)"/>
      <use xlink:href="#DejaVuSerif-20" transform="translate(643.75 0.390625)"/>
      <use xlink:href="#DejaVuSerif-5b" transform="translate(675.537109 0.390625)"/>
      <use xlink:href="#DejaVuSerif-64" transform="translate(714.550781 0.390625)"/>
      <use xlink:href="#DejaVuSerif-65" transform="translate(778.564453 0.390625)"/>
      <use xlink:href="#DejaVuSerif-67" transform="translate(837.744141 0.390625)"/>
      <use xlink:href="#DejaVuSerif-5d" transform="translate(901.757812 0.390625)"/>
     </g>
    </g>
   </g>
   <g id="matplotlib.axis_2">
    <g id="ytick_1">
     <g id="line2d_7"/>
     <g id="text_8">
      <!-- −0.08 -->
      <g style="fill: #262626" transform="translate(12.807115 197.871059) scale(0.07 -0.07)">
       <defs>
        <path id="DejaVuSerif-2e" d="M 603 325 
Q 603 500 722 622 
Q 841 744 1019 744 
Q 1191 744 1312 622 
Q 1434 500 1434 325 
Q 1434 153 1312 31 
Q 1191 -91 1019 -91 
Q 841 -91 722 29 
Q 603 150 603 325 
z
" transform="scale(0.015625)"/>
        <path id="DejaVuSerif-38" d="M 2981 1275 
Q 2981 1775 2732 2051 
Q 2484 2328 2034 2328 
Q 1584 2328 1336 2051 
Q 1088 1775 1088 1275 
Q 1088 772 1336 495 
Q 1584 219 2034 219 
Q 2484 219 2732 495 
Q 2981 772 2981 1275 
z
M 2853 3541 
Q 2853 3966 2637 4203 
Q 2422 4441 2034 4441 
Q 1650 4441 1433 4203 
Q 1216 3966 1216 3541 
Q 1216 3113 1433 2875 
Q 1650 2638 2034 2638 
Q 2422 2638 2637 2875 
Q 2853 3113 2853 3541 
z
M 2516 2484 
Q 3047 2413 3344 2092 
Q 3641 1772 3641 1275 
Q 3641 619 3225 264 
Q 2809 -91 2034 -91 
Q 1263 -91 845 264 
Q 428 619 428 1275 
Q 428 1772 725 2092 
Q 1022 2413 1556 2484 
Q 1084 2569 832 2842 
Q 581 3116 581 3541 
Q 581 4103 968 4426 
Q 1356 4750 2034 4750 
Q 2713 4750 3100 4426 
Q 3488 4103 3488 3541 
Q 3488 3116 3236 2842 
Q 2984 2569 2516 2484 
z
" transform="scale(0.015625)"/>
       </defs>
       <use xlink:href="#DejaVuSerif-2212"/>
       <use xlink:href="#DejaVuSerif-30" x="83.789062"/>
       <use xlink:href="#DejaVuSerif-2e" x="147.412109"/>
       <use xlink:href="#DejaVuSerif-30" x="179.199219"/>
       <use xlink:href="#DejaVuSerif-38" x="242.822266"/>
      </g>
     </g>
    </g>
    <g id="ytick_2">
     <g id="line2d_8"/>
     <g id="text_9">
      <!-- −0.06 -->
      <g style="fill: #262626" transform="translate(12.807115 172.866824) scale(0.07 -0.07)">
       <defs>
        <path id="DejaVuSerif-36" d="M 2094 219 
Q 2534 219 2771 542 
Q 3009 866 3009 1472 
Q 3009 2078 2771 2401 
Q 2534 2725 2094 2725 
Q 1647 2725 1412 2412 
Q 1178 2100 1178 1509 
Q 1178 888 1415 553 
Q 1653 219 2094 219 
z
M 1075 2569 
Q 1288 2803 1556 2918 
Q 1825 3034 2163 3034 
Q 2859 3034 3264 2615 
Q 3669 2197 3669 1472 
Q 3669 763 3233 336 
Q 2797 -91 2069 -91 
Q 1278 -91 853 498 
Q 428 1088 428 2181 
Q 428 3406 931 4078 
Q 1434 4750 2350 4750 
Q 2597 4750 2869 4703 
Q 3141 4656 3425 4563 
L 3425 3794 
L 3072 3794 
Q 3034 4109 2831 4275 
Q 2628 4441 2284 4441 
Q 1678 4441 1381 3981 
Q 1084 3522 1075 2569 
z
" transform="scale(0.015625)"/>
       </defs>
       <use xlink:href="#DejaVuSerif-2212"/>
       <use xlink:href="#DejaVuSerif-30" x="83.789062"/>
       <use xlink:href="#DejaVuSerif-2e" x="147.412109"/>
       <use xlink:href="#DejaVuSerif-30" x="179.199219"/>
       <use xlink:href="#DejaVuSerif-36" x="242.822266"/>
      </g>
     </g>
    </g>
    <g id="ytick_3">
     <g id="line2d_9"/>
     <g id="text_10">
      <!-- −0.04 -->
      <g style="fill: #262626" transform="translate(12.807115 147.862588) scale(0.07 -0.07)">
       <defs>
        <path id="DejaVuSerif-34" d="M 2234 1581 
L 2234 4063 
L 641 1581 
L 2234 1581 
z
M 3609 0 
L 1484 0 
L 1484 331 
L 2234 331 
L 2234 1247 
L 197 1247 
L 197 1588 
L 2241 4750 
L 2859 4750 
L 2859 1581 
L 3750 1581 
L 3750 1247 
L 2859 1247 
L 2859 331 
L 3609 331 
L 3609 0 
z
" transform="scale(0.015625)"/>
       </defs>
       <use xlink:href="#DejaVuSerif-2212"/>
       <use xlink:href="#DejaVuSerif-30" x="83.789062"/>
       <use xlink:href="#DejaVuSerif-2e" x="147.412109"/>
       <use xlink:href="#DejaVuSerif-30" x="179.199219"/>
       <use xlink:href="#DejaVuSerif-34" x="242.822266"/>
      </g>
     </g>
    </g>
    <g id="ytick_4">
     <g id="line2d_10"/>
     <g id="text_11">
      <!-- −0.02 -->
      <g style="fill: #262626" transform="translate(12.807115 122.858353) scale(0.07 -0.07)">
       <defs>
        <path id="DejaVuSerif-32" d="M 819 3553 
L 469 3553 
L 469 4384 
Q 803 4563 1142 4656 
Q 1481 4750 1806 4750 
Q 2534 4750 2956 4397 
Q 3378 4044 3378 3438 
Q 3378 2753 2422 1800 
Q 2347 1728 2309 1691 
L 1131 513 
L 3078 513 
L 3078 1088 
L 3444 1088 
L 3444 0 
L 434 0 
L 434 341 
L 1850 1753 
Q 2319 2222 2519 2614 
Q 2719 3006 2719 3438 
Q 2719 3909 2473 4175 
Q 2228 4441 1797 4441 
Q 1350 4441 1106 4219 
Q 863 3997 819 3553 
z
" transform="scale(0.015625)"/>
       </defs>
       <use xlink:href="#DejaVuSerif-2212"/>
       <use xlink:href="#DejaVuSerif-30" x="83.789062"/>
       <use xlink:href="#DejaVuSerif-2e" x="147.412109"/>
       <use xlink:href="#DejaVuSerif-30" x="179.199219"/>
       <use xlink:href="#DejaVuSerif-32" x="242.822266"/>
      </g>
     </g>
    </g>
    <g id="ytick_5">
     <g id="line2d_11"/>
     <g id="text_12">
      <!-- 0.00 -->
      <g style="fill: #262626" transform="translate(18.672896 97.854118) scale(0.07 -0.07)">
       <use xlink:href="#DejaVuSerif-30"/>
       <use xlink:href="#DejaVuSerif-2e" x="63.623047"/>
       <use xlink:href="#DejaVuSerif-30" x="95.410156"/>
       <use xlink:href="#DejaVuSerif-30" x="159.033203"/>
      </g>
     </g>
    </g>
    <g id="ytick_6">
     <g id="line2d_12"/>
     <g id="text_13">
      <!-- 0.02 -->
      <g style="fill: #262626" transform="translate(18.672896 72.849883) scale(0.07 -0.07)">
       <use xlink:href="#DejaVuSerif-30"/>
       <use xlink:href="#DejaVuSerif-2e" x="63.623047"/>
       <use xlink:href="#DejaVuSerif-30" x="95.410156"/>
       <use xlink:href="#DejaVuSerif-32" x="159.033203"/>
      </g>
     </g>
    </g>
    <g id="ytick_7">
     <g id="line2d_13"/>
     <g id="text_14">
      <!-- 0.04 -->
      <g style="fill: #262626" transform="translate(18.672896 47.845647) scale(0.07 -0.07)">
       <use xlink:href="#DejaVuSerif-30"/>
       <use xlink:href="#DejaVuSerif-2e" x="63.623047"/>
       <use xlink:href="#DejaVuSerif-30" x="95.410156"/>
       <use xlink:href="#DejaVuSerif-34" x="159.033203"/>
      </g>
     </g>
    </g>
    <g id="ytick_8">
     <g id="line2d_14"/>
     <g id="text_15">
      <!-- 0.06 -->
      <g style="fill: #262626" transform="translate(18.672896 22.841412) scale(0.07 -0.07)">
       <use xlink:href="#DejaVuSerif-30"/>
       <use xlink:href="#DejaVuSerif-2e" x="63.623047"/>
       <use xlink:href="#DejaVuSerif-30" x="95.410156"/>
       <use xlink:href="#DejaVuSerif-36" x="159.033203"/>
      </g>
     </g>
    </g>
    <g id="text_16">
     <!-- Yaw rate $r$ [rad/s] -->
     <g style="fill: #262626" transform="translate(7.559302 125.844208) rotate(-90) scale(0.06 -0.06)">
      <defs>
       <path id="DejaVuSerif-59" d="M 1209 0 
L 1209 331 
L 1806 331 
L 1806 2009 
L 366 4331 
L -72 4331 
L -72 4666 
L 1663 4666 
L 1663 4331 
L 1119 4331 
L 2284 2444 
L 3450 4331 
L 2925 4331 
L 2925 4666 
L 4281 4666 
L 4281 4331 
L 3841 4331 
L 2438 2069 
L 2438 331 
L 3034 331 
L 3034 0 
L 1209 0 
z
" transform="scale(0.015625)"/>
       <path id="DejaVuSerif-77" d="M 3072 3322 
L 3922 728 
L 4672 2988 
L 4191 2988 
L 4191 3322 
L 5394 3322 
L 5394 2988 
L 5025 2988 
L 4038 0 
L 3559 0 
L 2741 2484 
L 1919 0 
L 1459 0 
L 475 2988 
L 103 2988 
L 103 3322 
L 1606 3322 
L 1606 2988 
L 1069 2988 
L 1813 728 
L 2669 3322 
L 3072 3322 
z
" transform="scale(0.015625)"/>
       <path id="DejaVuSans-Oblique-72" d="M 2853 2969 
Q 2766 3016 2653 3041 
Q 2541 3066 2413 3066 
Q 1953 3066 1609 2717 
Q 1266 2369 1153 1784 
L 800 0 
L 225 0 
L 909 3500 
L 1484 3500 
L 1375 2956 
Q 1603 3259 1920 3421 
Q 2238 3584 2597 3584 
Q 2691 3584 2781 3573 
Q 2872 3563 2963 3538 
L 2853 2969 
z
" transform="scale(0.015625)"/>
       <path id="DejaVuSerif-2f" d="M 1656 4666 
L 2156 4666 
L 500 -594 
L 0 -594 
L 1656 4666 
z
" transform="scale(0.015625)"/>
       <path id="DejaVuSerif-73" d="M 359 184 
L 359 959 
L 691 959 
Q 703 588 923 403 
Q 1144 219 1575 219 
Q 1963 219 2166 364 
Q 2369 509 2369 788 
Q 2369 1006 2220 1140 
Q 2072 1275 1594 1428 
L 1178 1569 
Q 750 1706 558 1912 
Q 366 2119 366 2438 
Q 366 2894 700 3153 
Q 1034 3413 1625 3413 
Q 1888 3413 2178 3344 
Q 2469 3275 2778 3144 
L 2778 2419 
L 2447 2419 
Q 2434 2741 2221 2922 
Q 2009 3103 1644 3103 
Q 1281 3103 1095 2975 
Q 909 2847 909 2591 
Q 909 2381 1050 2254 
Q 1191 2128 1613 1997 
L 2069 1856 
Q 2541 1709 2748 1489 
Q 2956 1269 2956 922 
Q 2956 450 2595 179 
Q 2234 -91 1600 -91 
Q 1278 -91 972 -22 
Q 666 47 359 184 
z
" transform="scale(0.015625)"/>
      </defs>
      <use xlink:href="#DejaVuSerif-59" transform="translate(0 0.015625)"/>
      <use xlink:href="#DejaVuSerif-61" transform="translate(66.015625 0.015625)"/>
      <use xlink:href="#DejaVuSerif-77" transform="translate(125.634766 0.015625)"/>
      <use xlink:href="#DejaVuSerif-20" transform="translate(211.230469 0.015625)"/>
      <use xlink:href="#DejaVuSerif-72" transform="translate(243.017578 0.015625)"/>
      <use xlink:href="#DejaVuSerif-61" transform="translate(290.820312 0.015625)"/>
      <use xlink:href="#DejaVuSerif-74" transform="translate(350.439453 0.015625)"/>
      <use xlink:href="#DejaVuSerif-65" transform="translate(390.625 0.015625)"/>
      <use xlink:href="#DejaVuSerif-20" transform="translate(449.804688 0.015625)"/>
      <use xlink:href="#DejaVuSans-Oblique-72" transform="translate(481.591797 0.015625)"/>
      <use xlink:href="#DejaVuSerif-20" transform="translate(522.705078 0.015625)"/>
      <use xlink:href="#DejaVuSerif-5b" transform="translate(554.492188 0.015625)"/>
      <use xlink:href="#DejaVuSerif-72" transform="translate(593.505859 0.015625)"/>
      <use xlink:href="#DejaVuSerif-61" transform="translate(641.308594 0.015625)"/>
      <use xlink:href="#DejaVuSerif-64" transform="translate(700.927734 0.015625)"/>
      <use xlink:href="#DejaVuSerif-2f" transform="translate(764.941406 0.015625)"/>
      <use xlink:href="#DejaVuSerif-73" transform="translate(798.632812 0.015625)"/>
      <use xlink:href="#DejaVuSerif-5d" transform="translate(849.951172 0.015625)"/>
     </g>
    </g>
   </g>
   <g id="line2d_15">
    <path d="M 199.496385 95.194665 
L 199.495341 93.94943 
L 199.391239 95.024025 
L 198.92479 96.570099 
L 197.63977 99.972409 
L 195.448402 105.083327 
L 192.793514 110.705757 
L 189.610216 116.938232 
L 185.77466 123.946359 
L 182.404725 129.671431 
L 179.246933 134.589312 
L 176.100433 139.077272 
L 172.944545 143.195766 
L 169.780199 146.97643 
L 166.397953 150.667613 
L 163.002377 154.055729 
L 159.404768 157.340901 
L 155.407461 160.666044 
L 151.449454 163.660502 
L 147.538004 166.366814 
L 142.885389 169.255321 
L 139.1361 171.378241 
L 133.936478 174.046175 
L 129.204761 176.205341 
L 123.883913 178.338139 
L 117.950423 180.388296 
L 111.337695 182.340011 
L 104.938023 183.896648 
L 96.356404 185.647289 
L 91.758813 186.31995 
L 88.562025 186.571501 
L 85.959088 186.582334 
L 84.053685 186.426271 
L 83.228803 186.063757 
L 82.597507 185.570133 
L 81.990955 184.782876 
L 81.461402 183.615323 
L 81.093279 182.177041 
L 80.886043 180.459726 
L 80.833063 178.273826 
L 80.991806 175.529172 
L 81.374892 172.468751 
L 82.063805 168.77526 
L 83.038294 164.753585 
L 84.308556 160.440623 
L 86.126302 155.083979 
L 88.288362 149.429355 
L 90.787963 143.516071 
L 94.017476 136.517815 
L 96.958831 130.649859 
L 100.198213 124.683467 
L 103.994531 118.179998 
L 108.09533 111.598476 
L 112.179195 105.441037 
L 116.866792 98.769807 
L 121.077981 93.111681 
L 124.583489 88.765219 
L 128.069992 84.766193 
L 131.858623 80.756963 
L 135.611883 77.093755 
L 139.670149 73.440617 
L 144.040856 69.813241 
L 148.373372 66.505226 
L 152.986643 63.27077 
L 157.570797 60.298121 
L 162.741807 57.213636 
L 168.8175 53.843514 
L 175.101773 50.620811 
L 182.475309 47.089988 
L 189.581625 43.945003 
L 198.689977 40.163497 
L 207.114104 36.880368 
L 214.868149 34.106211 
L 221.749966 31.8565 
L 228.719553 29.830797 
L 238.585731 27.227905 
L 245.464773 25.615531 
L 254.438508 23.762679 
L 271.145837 20.36616 
L 283.074239 17.798187 
L 291.682948 16.223637 
L 313.653481 12.719556 
L 317.172947 12.427516 
L 327.816736 12.014828 
L 330.851842 11.834555 
L 333.475456 11.750609 
L 338.439548 11.913922 
L 341.481411 12.333194 
L 342.704389 12.607598 
L 343.988814 13.075306 
L 344.973175 13.713564 
L 346.045126 14.705328 
L 346.655604 15.398239 
L 346.804521 16.121959 
L 346.755915 17.284984 
L 346.433851 18.952507 
L 345.717006 21.425362 
L 344.557646 24.626356 
L 342.871998 28.630918 
L 340.724288 33.152017 
L 337.790942 38.765121 
L 334.340863 44.856947 
L 330.843755 50.597549 
L 326.699622 56.965764 
L 321.865028 63.940268 
L 317.189082 70.296181 
L 311.854349 77.161389 
L 306.487549 83.705307 
L 300.793817 90.288306 
L 294.728285 96.942469 
L 290.874762 100.89397 
L 286.677619 104.865653 
L 282.537903 108.468473 
L 278.086128 112.035595 
L 273.33816 115.525759 
L 268.649185 118.699758 
L 263.662468 121.814512 
L 258.068302 125.027712 
L 251.893885 128.28364 
L 245.838311 131.223434 
L 239.544998 134.052155 
L 229.924484 138.032431 
L 217.048001 143.083402 
L 203.073082 148.139972 
L 194.318588 151.033487 
L 184.649283 153.955255 
L 177.506849 155.832976 
L 170.23734 157.432028 
L 156.149892 160.057388 
L 141.334136 162.630035 
L 130.277873 164.862059 
L 120.850079 166.915692 
L 112.411069 168.736002 
L 105.401069 170.203198 
L 91.143609 172.731646 
L 87.744449 173.090524 
L 83.290583 173.347597 
L 76.504089 173.56487 
L 68.91294 174.063719 
L 63.377384 174.12286 
L 60.256891 173.867072 
L 58.687214 173.223533 
L 57.962368 172.731888 
L 57.523127 172.313766 
L 57.37582 171.78549 
L 57.364419 170.916149 
L 57.576007 169.47399 
L 58.178897 167.118782 
L 59.097038 164.381839 
L 60.405854 161.199868 
L 62.372485 157.060084 
L 64.789263 152.463178 
L 67.985029 146.806574 
L 71.708006 140.720535 
L 75.879557 134.305853 
L 80.720108 127.220922 
L 86.000232 119.911491 
L 91.108794 113.225822 
L 95.63275 107.645613 
L 100.794399 101.64558 
L 106.624092 95.234405 
L 111.15096 90.53522 
L 115.237883 86.638904 
L 119.255301 83.109805 
L 123.578596 79.6023 
L 128.194303 76.168527 
L 132.732136 73.066003 
L 137.543586 70.030359 
L 142.625313 67.083144 
L 148.271637 64.081301 
L 154.772219 60.897809 
L 161.13783 58.013982 
L 168.559099 54.906333 
L 180.461148 50.263822 
L 189.738677 46.891628 
L 203.611574 42.14722 
L 212.61457 39.365065 
L 218.167458 37.840368 
L 223.912259 36.484391 
L 230.739268 35.133492 
L 239.40434 33.620929 
L 252.446763 31.380893 
L 265.950073 28.817896 
L 276.371618 26.514706 
L 283.828072 24.904434 
L 310.783688 19.587995 
L 317.786907 18.973617 
L 327.045069 18.492054 
L 329.743251 18.316818 
L 337.632006 18.017081 
L 339.591234 18.155623 
L 340.850838 18.507164 
L 341.436701 18.844233 
L 342.113004 19.557495 
L 342.664799 20.343587 
L 342.709456 21.062858 
L 342.533772 22.433421 
L 342.046535 24.445623 
L 341.214667 26.966135 
L 339.725663 30.65124 
L 337.63547 35.219528 
L 335.307225 39.79595 
L 332.337937 45.099669 
L 328.691012 51.115912 
L 324.569343 57.476572 
L 319.763307 64.478595 
L 315.045374 70.952038 
L 310.520349 76.768245 
L 305.047355 83.433297 
L 299.21244 90.171996 
L 293.417326 96.549677 
L 288.536521 101.646108 
L 284.446667 105.549219 
L 280.410391 109.088781 
L 276.057256 112.598946 
L 271.759122 115.786161 
L 266.839801 119.131986 
L 261.986978 122.178903 
L 256.875072 125.126351 
L 250.871828 128.297734 
L 244.037933 131.652536 
L 237.371538 134.646766 
L 230.256144 137.599393 
L 219.210445 141.854633 
L 211.588904 144.563495 
L 200.895139 148.093261 
L 189.105835 151.618359 
L 180.357076 154.063037 
L 174.841224 155.67918 
L 170.026667 157.34014 
L 165.40754 159.246855 
L 161.426429 161.180743 
L 157.846481 163.135856 
L 152.944875 166.131122 
L 148.44704 169.077104 
L 148.44704 169.077104 
" clip-path="url(#p6f29a1b2e8)" style="fill: none; stroke: #2a2eec; stroke-width: 0.4; stroke-linecap: round"/>
   </g>
   <g id="line2d_16">
    <path d="M 199.496385 95.194665 
L 199.984941 95.954355 
L 200.135308 96.595212 
L 200.086492 97.345567 
L 199.563388 98.780539 
L 198.016253 102.35501 
L 195.68819 107.199321 
L 193.564944 111.124387 
L 191.385393 114.672053 
L 189.304805 117.633316 
L 187.198653 120.254089 
L 185.06939 122.583149 
L 182.834313 124.728339 
L 180.31708 126.855029 
L 177.55574 128.906113 
L 173.996279 131.211833 
L 170.187219 133.385038 
L 162.237847 137.459152 
L 158.835323 138.985979 
L 153.738775 141.024263 
L 151.897524 141.499559 
L 150.094507 141.702425 
L 149.073196 141.632548 
L 148.349563 141.414466 
L 148.078541 141.025707 
L 147.905696 140.419141 
L 147.832206 139.364746 
L 147.955569 137.683318 
L 148.390469 135.169594 
L 149.198585 131.886982 
L 150.36322 128.057382 
L 151.998178 123.442623 
L 154.045766 118.340363 
L 156.499913 112.830175 
L 158.930982 107.896448 
L 161.327483 103.508748 
L 163.863133 99.334082 
L 166.381037 95.630345 
L 168.889584 92.326833 
L 171.395873 89.366207 
L 174.198933 86.4007 
L 177.432736 83.327389 
L 180.94589 80.324767 
L 184.881046 77.290596 
L 188.465085 74.777512 
L 193.569928 71.499708 
L 199.131245 68.214447 
L 205.083858 64.9905 
L 210.3605 62.429318 
L 215.073337 60.455551 
L 218.671476 59.124805 
L 222.538745 57.861564 
L 227.953619 56.370605 
L 232.589243 55.42241 
L 240.384213 53.998316 
L 243.892182 53.043473 
L 250.755439 50.553423 
L 254.227426 49.266589 
L 256.651164 48.550569 
L 258.574757 48.156734 
L 262.113844 47.826461 
L 266.201626 47.601974 
L 267.423317 47.396194 
L 270.095933 47.300657 
L 270.439644 47.57369 
L 270.790258 48.212878 
L 270.919596 48.777613 
L 270.788054 49.778905 
L 270.271949 51.762116 
L 269.341696 54.4995 
L 267.775012 58.368773 
L 265.205902 64.08408 
L 262.540448 69.470868 
L 259.179439 75.72098 
L 256.229873 80.778484 
L 253.51905 84.992058 
L 250.851041 88.752358 
L 248.030755 92.349389 
L 245.247485 95.548807 
L 242.134528 98.767032 
L 239.247543 101.44302 
L 236.034988 104.110704 
L 232.365263 106.830878 
L 228.60547 109.331217 
L 223.770834 112.229925 
L 215.02938 117.018167 
L 201.658648 124.034 
L 195.70812 126.854373 
L 189.698927 129.414675 
L 184.120163 131.558343 
L 179.372344 133.051412 
L 175.536091 133.958147 
L 170.851838 134.717368 
L 164.605893 135.763674 
L 160.457874 136.821569 
L 154.420694 138.44458 
L 149.674876 139.701847 
L 147.480166 140.232074 
L 141.296155 141.229836 
L 139.604557 141.426739 
L 134.92732 141.977255 
L 132.19525 141.732148 
L 131.554964 141.386603 
L 131.031178 140.813813 
L 130.941313 140.429028 
L 131.143011 139.401852 
L 131.974906 135.98637 
L 133.07752 132.47115 
L 134.691733 128.153437 
L 136.58593 123.736139 
L 138.772819 119.180774 
L 141.703129 113.624202 
L 144.739947 108.286103 
L 147.550422 103.81221 
L 150.308748 99.843951 
L 153.034085 96.31045 
L 155.899065 92.98323 
L 158.731542 90.027737 
L 161.86116 87.102866 
L 164.962409 84.52099 
L 168.174489 82.122471 
L 171.826166 79.666714 
L 175.43166 77.490093 
L 179.742865 75.114034 
L 186.966496 71.429976 
L 192.550908 68.775742 
L 199.392282 65.772077 
L 205.080993 63.592426 
L 210.771839 61.744817 
L 215.678859 60.409219 
L 220.596771 59.383226 
L 224.964957 58.731637 
L 237.055227 56.899972 
L 242.409832 55.544604 
L 248.713963 53.8699 
L 251.538462 53.374477 
L 261.238762 52.337314 
L 266.028026 51.645893 
L 267.047881 51.580794 
L 268.009154 51.834936 
L 268.604483 52.252701 
L 269.056332 52.781201 
L 269.117569 53.276698 
L 268.989737 54.402014 
L 268.500666 56.48194 
L 267.545212 59.478507 
L 266.115467 63.175175 
L 263.988914 68.038604 
L 261.466574 73.26211 
L 258.427207 78.982491 
L 255.474243 84.102466 
L 252.75546 88.368296 
L 250.074445 92.156951 
L 247.4179 95.533122 
L 244.44629 98.925998 
L 241.517318 101.92757 
L 238.441357 104.748472 
L 235.239907 107.366613 
L 231.749164 109.924246 
L 227.839975 112.496034 
L 223.214119 115.228812 
L 218.103726 117.951179 
L 211.091296 121.325918 
L 206.745141 123.226499 
L 191.191669 129.904405 
L 187.978724 131.624691 
L 184.765483 133.500413 
L 184.765483 133.500413 
" clip-path="url(#p6f29a1b2e8)" style="fill: none; stroke: #fa7c17; stroke-width: 0.4; stroke-linecap: round"/>
   </g>
   <g id="line2d_17">
    <defs>
     <path id="m0fa8ddb9cd" d="M -1.5 1.5 
L 1.5 -1.5 
M -1.5 -1.5 
L 1.5 1.5 
" style="stroke: #328c06"/>
    </defs>
    <g clip-path="url(#p6f29a1b2e8)">
     <use xlink:href="#m0fa8ddb9cd" x="199.496385" y="175.122922" style="fill: #328c06; stroke: #328c06"/>
     <use xlink:href="#m0fa8ddb9cd" x="199.496385" y="155.140858" style="fill: #328c06; stroke: #328c06"/>
     <use xlink:href="#m0fa8ddb9cd" x="199.496385" y="125.167761" style="fill: #328c06; stroke: #328c06"/>
     <use xlink:href="#m0fa8ddb9cd" x="63.247723" y="182.707356" style="fill: #328c06; stroke: #328c06"/>
     <use xlink:href="#m0fa8ddb9cd" x="120.017998" y="182.707356" style="fill: #328c06; stroke: #328c06"/>
     <use xlink:href="#m0fa8ddb9cd" x="63.247723" y="155.140858" style="fill: #328c06; stroke: #328c06"/>
     <use xlink:href="#m0fa8ddb9cd" x="120.017998" y="155.140858" style="fill: #328c06; stroke: #328c06"/>
     <use xlink:href="#m0fa8ddb9cd" x="120.017998" y="125.167761" style="fill: #328c06; stroke: #328c06"/>
     <use xlink:href="#m0fa8ddb9cd" x="222.204495" y="155.140858" style="fill: #328c06; stroke: #328c06"/>
     <use xlink:href="#m0fa8ddb9cd" x="222.204495" y="125.167761" style="fill: #328c06; stroke: #328c06"/>
     <use xlink:href="#m0fa8ddb9cd" x="244.912605" y="125.167761" style="fill: #328c06; stroke: #328c06"/>
     <use xlink:href="#m0fa8ddb9cd" x="278.974771" y="125.167761" style="fill: #328c06; stroke: #328c06"/>
     <use xlink:href="#m0fa8ddb9cd" x="85.955833" y="155.140858" style="fill: #328c06; stroke: #328c06"/>
     <use xlink:href="#m0fa8ddb9cd" x="176.788274" y="155.140858" style="fill: #328c06; stroke: #328c06"/>
     <use xlink:href="#m0fa8ddb9cd" x="154.080164" y="155.140858" style="fill: #328c06; stroke: #328c06"/>
     <use xlink:href="#m0fa8ddb9cd" x="85.955833" y="125.167761" style="fill: #328c06; stroke: #328c06"/>
     <use xlink:href="#m0fa8ddb9cd" x="176.788274" y="125.167761" style="fill: #328c06; stroke: #328c06"/>
     <use xlink:href="#m0fa8ddb9cd" x="154.080164" y="125.167761" style="fill: #328c06; stroke: #328c06"/>
     <use xlink:href="#m0fa8ddb9cd" x="176.788274" y="125.167761" style="fill: #328c06; stroke: #328c06"/>
     <use xlink:href="#m0fa8ddb9cd" x="176.788274" y="125.167761" style="fill: #328c06; stroke: #328c06"/>
     <use xlink:href="#m0fa8ddb9cd" x="154.080164" y="125.167761" style="fill: #328c06; stroke: #328c06"/>
     <use xlink:href="#m0fa8ddb9cd" x="120.017998" y="125.167761" style="fill: #328c06; stroke: #328c06"/>
     <use xlink:href="#m0fa8ddb9cd" x="120.017998" y="125.167761" style="fill: #328c06; stroke: #328c06"/>
     <use xlink:href="#m0fa8ddb9cd" x="199.496385" y="155.140858" style="fill: #328c06; stroke: #328c06"/>
     <use xlink:href="#m0fa8ddb9cd" x="199.496385" y="125.167761" style="fill: #328c06; stroke: #328c06"/>
     <use xlink:href="#m0fa8ddb9cd" x="199.496385" y="125.167761" style="fill: #328c06; stroke: #328c06"/>
     <use xlink:href="#m0fa8ddb9cd" x="199.496385" y="125.167761" style="fill: #328c06; stroke: #328c06"/>
     <use xlink:href="#m0fa8ddb9cd" x="278.974771" y="95.194665" style="fill: #328c06; stroke: #328c06"/>
     <use xlink:href="#m0fa8ddb9cd" x="313.036937" y="95.194665" style="fill: #328c06; stroke: #328c06"/>
     <use xlink:href="#m0fa8ddb9cd" x="369.807212" y="95.194665" style="fill: #328c06; stroke: #328c06"/>
     <use xlink:href="#m0fa8ddb9cd" x="222.204495" y="95.194665" style="fill: #328c06; stroke: #328c06"/>
     <use xlink:href="#m0fa8ddb9cd" x="244.912605" y="95.194665" style="fill: #328c06; stroke: #328c06"/>
     <use xlink:href="#m0fa8ddb9cd" x="222.204495" y="95.194665" style="fill: #328c06; stroke: #328c06"/>
     <use xlink:href="#m0fa8ddb9cd" x="244.912605" y="95.194665" style="fill: #328c06; stroke: #328c06"/>
     <use xlink:href="#m0fa8ddb9cd" x="244.912605" y="95.194665" style="fill: #328c06; stroke: #328c06"/>
     <use xlink:href="#m0fa8ddb9cd" x="244.912605" y="95.194665" style="fill: #328c06; stroke: #328c06"/>
     <use xlink:href="#m0fa8ddb9cd" x="199.496385" y="95.194665" style="fill: #328c06; stroke: #328c06"/>
     <use xlink:href="#m0fa8ddb9cd" x="199.496385" y="95.194665" style="fill: #328c06; stroke: #328c06"/>
     <use xlink:href="#m0fa8ddb9cd" x="199.496385" y="95.194665" style="fill: #328c06; stroke: #328c06"/>
     <use xlink:href="#m0fa8ddb9cd" x="199.496385" y="95.194665" style="fill: #328c06; stroke: #328c06"/>
     <use xlink:href="#m0fa8ddb9cd" x="199.496385" y="95.194665" style="fill: #328c06; stroke: #328c06"/>
     <use xlink:href="#m0fa8ddb9cd" x="199.496385" y="95.194665" style="fill: #328c06; stroke: #328c06"/>
     <use xlink:href="#m0fa8ddb9cd" x="199.496385" y="95.194665" style="fill: #328c06; stroke: #328c06"/>
     <use xlink:href="#m0fa8ddb9cd" x="199.496385" y="95.194665" style="fill: #328c06; stroke: #328c06"/>
     <use xlink:href="#m0fa8ddb9cd" x="199.496385" y="95.194665" style="fill: #328c06; stroke: #328c06"/>
     <use xlink:href="#m0fa8ddb9cd" x="199.496385" y="95.194665" style="fill: #328c06; stroke: #328c06"/>
     <use xlink:href="#m0fa8ddb9cd" x="110.848691" y="173.278084" style="fill: #328c06; stroke: #328c06"/>
     <use xlink:href="#m0fa8ddb9cd" x="85.19284" y="158.521685" style="fill: #328c06; stroke: #328c06"/>
     <use xlink:href="#m0fa8ddb9cd" x="128.450996" y="142.634264" style="fill: #328c06; stroke: #328c06"/>
     <use xlink:href="#m0fa8ddb9cd" x="155.069329" y="115.967976" style="fill: #328c06; stroke: #328c06"/>
     <use xlink:href="#m0fa8ddb9cd" x="148.76851" y="141.624561" style="fill: #328c06; stroke: #328c06"/>
     <use xlink:href="#m0fa8ddb9cd" x="184.827854" y="123.871947" style="fill: #328c06; stroke: #328c06"/>
     <use xlink:href="#m0fa8ddb9cd" x="53.570661" y="179.007606" style="fill: #328c06; stroke: #328c06"/>
     <use xlink:href="#m0fa8ddb9cd" x="199.496385" y="95.194665" style="fill: #328c06; stroke: #328c06"/>
     <use xlink:href="#m0fa8ddb9cd" x="199.496385" y="95.194665" style="fill: #328c06; stroke: #328c06"/>
     <use xlink:href="#m0fa8ddb9cd" x="199.496385" y="95.194665" style="fill: #328c06; stroke: #328c06"/>
     <use xlink:href="#m0fa8ddb9cd" x="199.496385" y="95.194665" style="fill: #328c06; stroke: #328c06"/>
     <use xlink:href="#m0fa8ddb9cd" x="199.496385" y="95.194665" style="fill: #328c06; stroke: #328c06"/>
    </g>
   </g>
   <g id="patch_3">
    <path d="M 37.758834 195.348176 
L 37.758834 3.00024 
" style="fill: none; stroke: #000000; stroke-linejoin: miter; stroke-linecap: square"/>
   </g>
   <g id="patch_4">
    <path d="M 37.758834 195.348177 
L 385.61904 195.348177 
" style="fill: none; stroke: #000000; stroke-linejoin: miter; stroke-linecap: square"/>
   </g>
   <g id="legend_1">
    <g id="line2d_18">
     <path d="M 44.058834 12.169146 
L 51.058834 12.169146 
L 58.058834 12.169146 
" style="fill: none; stroke: #2a2eec; stroke-width: 0.4; stroke-linecap: round"/>
    </g>
    <g id="text_17">
     <!-- zigzag 20/20 -->
     <g style="fill: #262626" transform="translate(63.658834 14.619146) scale(0.07 -0.07)">
      <defs>
       <path id="DejaVuSerif-7a" d="M 256 0 
L 256 269 
L 2338 2988 
L 691 2988 
L 691 2413 
L 359 2413 
L 359 3322 
L 3078 3322 
L 3078 3053 
L 997 331 
L 2803 331 
L 2803 934 
L 3138 934 
L 3138 0 
L 256 0 
z
" transform="scale(0.015625)"/>
      </defs>
      <use xlink:href="#DejaVuSerif-7a"/>
      <use xlink:href="#DejaVuSerif-69" x="52.685547"/>
      <use xlink:href="#DejaVuSerif-67" x="84.667969"/>
      <use xlink:href="#DejaVuSerif-7a" x="148.681641"/>
      <use xlink:href="#DejaVuSerif-61" x="201.367188"/>
      <use xlink:href="#DejaVuSerif-67" x="260.986328"/>
      <use xlink:href="#DejaVuSerif-20" x="325"/>
      <use xlink:href="#DejaVuSerif-32" x="356.787109"/>
      <use xlink:href="#DejaVuSerif-30" x="420.410156"/>
      <use xlink:href="#DejaVuSerif-2f" x="484.033203"/>
      <use xlink:href="#DejaVuSerif-32" x="517.724609"/>
      <use xlink:href="#DejaVuSerif-30" x="581.347656"/>
     </g>
    </g>
    <g id="line2d_19">
     <path d="M 44.058834 22.543365 
L 51.058834 22.543365 
L 58.058834 22.543365 
" style="fill: none; stroke: #fa7c17; stroke-width: 0.4; stroke-linecap: round"/>
    </g>
    <g id="text_18">
     <!-- zigzag 10/10 -->
     <g style="fill: #262626" transform="translate(63.658834 24.993365) scale(0.07 -0.07)">
      <use xlink:href="#DejaVuSerif-7a"/>
      <use xlink:href="#DejaVuSerif-69" x="52.685547"/>
      <use xlink:href="#DejaVuSerif-67" x="84.667969"/>
      <use xlink:href="#DejaVuSerif-7a" x="148.681641"/>
      <use xlink:href="#DejaVuSerif-61" x="201.367188"/>
      <use xlink:href="#DejaVuSerif-67" x="260.986328"/>
      <use xlink:href="#DejaVuSerif-20" x="325"/>
      <use xlink:href="#DejaVuSerif-31" x="356.787109"/>
      <use xlink:href="#DejaVuSerif-30" x="420.410156"/>
      <use xlink:href="#DejaVuSerif-2f" x="484.033203"/>
      <use xlink:href="#DejaVuSerif-31" x="517.724609"/>
      <use xlink:href="#DejaVuSerif-30" x="581.347656"/>
     </g>
    </g>
    <g id="line2d_20">
     <g>
      <use xlink:href="#m0fa8ddb9cd" x="51.058834" y="32.917584" style="fill: #328c06; stroke: #328c06"/>
     </g>
    </g>
    <g id="text_19">
     <!-- VCT -->
     <g style="fill: #262626" transform="translate(63.658834 35.367584) scale(0.07 -0.07)">
      <defs>
       <path id="DejaVuSerif-56" d="M 1119 4331 
L 2497 750 
L 3872 4331 
L 3347 4331 
L 3347 4666 
L 4716 4666 
L 4716 4331 
L 4263 4331 
L 2597 0 
L 2059 0 
L 403 4331 
L -63 4331 
L -63 4666 
L 1638 4666 
L 1638 4331 
L 1119 4331 
z
" transform="scale(0.015625)"/>
       <path id="DejaVuSerif-43" d="M 4513 1234 
Q 4306 581 3820 245 
Q 3334 -91 2591 -91 
Q 2134 -91 1743 65 
Q 1353 222 1050 525 
Q 700 875 529 1320 
Q 359 1766 359 2328 
Q 359 3416 987 4083 
Q 1616 4750 2644 4750 
Q 3025 4750 3456 4650 
Q 3888 4550 4384 4347 
L 4384 3272 
L 4031 3272 
Q 3916 3859 3567 4137 
Q 3219 4416 2591 4416 
Q 1844 4416 1459 3886 
Q 1075 3356 1075 2328 
Q 1075 1303 1459 773 
Q 1844 244 2591 244 
Q 3113 244 3450 492 
Q 3788 741 3938 1234 
L 4513 1234 
z
" transform="scale(0.015625)"/>
       <path id="DejaVuSerif-54" d="M 1222 0 
L 1222 331 
L 1819 331 
L 1819 4294 
L 447 4294 
L 447 3566 
L 63 3566 
L 63 4666 
L 4206 4666 
L 4206 3566 
L 3822 3566 
L 3822 4294 
L 2450 4294 
L 2450 331 
L 3047 331 
L 3047 0 
L 1222 0 
z
" transform="scale(0.015625)"/>
      </defs>
      <use xlink:href="#DejaVuSerif-56"/>
      <use xlink:href="#DejaVuSerif-43" x="72.216797"/>
      <use xlink:href="#DejaVuSerif-54" x="148.730469"/>
     </g>
    </g>
   </g>
  </g>
 </g>
 <defs>
  <clipPath id="p6f29a1b2e8">
   <rect x="37.758834" y="3.00024" width="347.860206" height="192.347937"/>
  </clipPath>
 </defs>
</svg>
