<?xml version="1.0" encoding="utf-8" standalone="no"?>
<!DOCTYPE svg PUBLIC "-//W3C//DTD SVG 1.1//EN"
  "http://www.w3.org/Graphics/SVG/1.1/DTD/svg11.dtd">
<svg xmlns:xlink="http://www.w3.org/1999/xlink" width="388.61928pt" height="218.623104pt" viewBox="0 0 388.61928 218.623104" xmlns="http://www.w3.org/2000/svg" version="1.1">
 <metadata>
  <rdf:RDF xmlns:dc="http://purl.org/dc/elements/1.1/" xmlns:cc="http://creativecommons.org/ns#" xmlns:rdf="http://www.w3.org/1999/02/22-rdf-syntax-ns#">
   <cc:Work>
    <dc:type rdf:resource="http://purl.org/dc/dcmitype/StillImage"/>
    <dc:date>2024-11-28T17:34:04.217840</dc:date>
    <dc:format>image/svg+xml</dc:format>
    <dc:creator>
     <cc:Agent>
      <dc:title>Matplotlib v3.8.2, https://matplotlib.org/</dc:title>
     </cc:Agent>
    </dc:creator>
   </cc:Work>
  </rdf:RDF>
 </metadata>
 <defs>
  <style type="text/css">*{stroke-linejoin: round; stroke-linecap: butt}</style>
 </defs>
 <g id="figure_1">
  <g id="patch_1">
   <path d="M 0 218.623104 
L 388.61928 218.623104 
L 388.61928 0 
L 0 0 
z
" style="fill: #ffffff"/>
  </g>
  <g id="axes_1">
   <g id="patch_2">
    <path d="M 42.212584 195.348177 
L 385.61904 195.348177 
L 385.61904 3.00024 
L 42.212584 3.00024 
z
" style="fill: #ffffff"/>
   </g>
   <g id="matplotlib.axis_1">
    <g id="xtick_1">
     <g id="line2d_1"/>
     <g id="text_1">
      <!-- −10 -->
      <g style="fill: #262626" transform="translate(57.486544 204.167083) scale(0.07 -0.07)">
       <defs>
        <path id="DejaVuSerif-2212" d="M 678 2259 
L 4684 2259 
L 4684 1753 
L 678 1753 
L 678 2259 
z
" transform="scale(0.015625)"/>
        <path id="DejaVuSerif-31" d="M 909 0 
L 909 331 
L 1722 331 
L 1722 4213 
L 781 3603 
L 781 4013 
L 1919 4750 
L 2350 4750 
L 2350 331 
L 3163 331 
L 3163 0 
L 909 0 
z
" transform="scale(0.015625)"/>
        <path id="DejaVuSerif-30" d="M 2034 219 
Q 2513 219 2750 744 
Q 2988 1269 2988 2328 
Q 2988 3391 2750 3916 
Q 2513 4441 2034 4441 
Q 1556 4441 1318 3916 
Q 1081 3391 1081 2328 
Q 1081 1269 1318 744 
Q 1556 219 2034 219 
z
M 2034 -91 
Q 1275 -91 848 546 
Q 422 1184 422 2328 
Q 422 3475 848 4112 
Q 1275 4750 2034 4750 
Q 2797 4750 3222 4112 
Q 3647 3475 3647 2328 
Q 3647 1184 3222 546 
Q 2797 -91 2034 -91 
z
" transform="scale(0.015625)"/>
       </defs>
       <use xlink:href="#DejaVuSerif-2212"/>
       <use xlink:href="#DejaVuSerif-31" x="83.789062"/>
       <use xlink:href="#DejaVuSerif-30" x="147.412109"/>
      </g>
     </g>
    </g>
    <g id="xtick_2">
     <g id="line2d_2"/>
     <g id="text_2">
      <!-- −5 -->
      <g style="fill: #262626" transform="translate(132.921134 204.167083) scale(0.07 -0.07)">
       <defs>
        <path id="DejaVuSerif-35" d="M 3219 4666 
L 3219 4153 
L 1081 4153 
L 1081 2816 
Q 1244 2928 1461 2984 
Q 1678 3041 1947 3041 
Q 2703 3041 3140 2622 
Q 3578 2203 3578 1478 
Q 3578 738 3136 323 
Q 2694 -91 1894 -91 
Q 1572 -91 1234 -12 
Q 897 66 544 225 
L 544 1131 
L 897 1131 
Q 925 688 1179 453 
Q 1434 219 1894 219 
Q 2388 219 2653 544 
Q 2919 869 2919 1478 
Q 2919 2084 2655 2407 
Q 2391 2731 1894 2731 
Q 1613 2731 1398 2631 
Q 1184 2531 1019 2322 
L 750 2322 
L 750 4666 
L 3219 4666 
z
" transform="scale(0.015625)"/>
       </defs>
       <use xlink:href="#DejaVuSerif-2212"/>
       <use xlink:href="#DejaVuSerif-35" x="83.789062"/>
      </g>
     </g>
    </g>
    <g id="xtick_3">
     <g id="line2d_3"/>
     <g id="text_3">
      <!-- 0 -->
      <g style="fill: #262626" transform="translate(209.061741 204.167083) scale(0.07 -0.07)">
       <use xlink:href="#DejaVuSerif-30"/>
      </g>
     </g>
    </g>
    <g id="xtick_4">
     <g id="line2d_4"/>
     <g id="text_4">
      <!-- 5 -->
      <g style="fill: #262626" transform="translate(282.269456 204.167083) scale(0.07 -0.07)">
       <use xlink:href="#DejaVuSerif-35"/>
      </g>
     </g>
    </g>
    <g id="xtick_5">
     <g id="line2d_5"/>
     <g id="text_5">
      <!-- 10 -->
      <g style="fill: #262626" transform="translate(353.250297 204.167083) scale(0.07 -0.07)">
       <use xlink:href="#DejaVuSerif-31"/>
       <use xlink:href="#DejaVuSerif-30" x="63.623047"/>
      </g>
     </g>
    </g>
    <g id="text_6">
     <!-- Drift angle $\beta$ [deg] -->
     <g style="fill: #262626" transform="translate(185.685812 214.242864) scale(0.06 -0.06)">
      <defs>
       <path id="DejaVuSerif-44" d="M 1581 331 
L 2163 331 
Q 3072 331 3558 850 
Q 4044 1369 4044 2338 
Q 4044 3306 3559 3818 
Q 3075 4331 2163 4331 
L 1581 4331 
L 1581 331 
z
M 353 0 
L 353 331 
L 947 331 
L 947 4331 
L 353 4331 
L 353 4666 
L 2209 4666 
Q 3416 4666 4089 4050 
Q 4763 3434 4763 2338 
Q 4763 1238 4088 619 
Q 3413 0 2209 0 
L 353 0 
z
" transform="scale(0.015625)"/>
       <path id="DejaVuSerif-72" d="M 3059 3328 
L 3059 2497 
L 2728 2497 
Q 2713 2744 2591 2866 
Q 2469 2988 2234 2988 
Q 1809 2988 1582 2694 
Q 1356 2400 1356 1850 
L 1356 331 
L 2022 331 
L 2022 0 
L 263 0 
L 263 331 
L 781 331 
L 781 2994 
L 231 2994 
L 231 3322 
L 1356 3322 
L 1356 2731 
Q 1525 3078 1790 3245 
Q 2056 3413 2438 3413 
Q 2578 3413 2733 3391 
Q 2888 3369 3059 3328 
z
" transform="scale(0.015625)"/>
       <path id="DejaVuSerif-69" d="M 622 4353 
Q 622 4497 726 4603 
Q 831 4709 978 4709 
Q 1122 4709 1226 4603 
Q 1331 4497 1331 4353 
Q 1331 4206 1228 4103 
Q 1125 4000 978 4000 
Q 831 4000 726 4103 
Q 622 4206 622 4353 
z
M 1356 331 
L 1900 331 
L 1900 0 
L 231 0 
L 231 331 
L 781 331 
L 781 2988 
L 231 2988 
L 231 3322 
L 1356 3322 
L 1356 331 
z
" transform="scale(0.015625)"/>
       <path id="DejaVuSerif-66" d="M 2753 4078 
L 2450 4078 
Q 2447 4313 2317 4434 
Q 2188 4556 1941 4556 
Q 1619 4556 1487 4379 
Q 1356 4203 1356 3750 
L 1356 3322 
L 2284 3322 
L 2284 2988 
L 1356 2988 
L 1356 331 
L 2094 331 
L 2094 0 
L 231 0 
L 231 331 
L 781 331 
L 781 2988 
L 231 2988 
L 231 3322 
L 781 3322 
L 781 3738 
Q 781 4294 1070 4578 
Q 1359 4863 1919 4863 
Q 2128 4863 2337 4825 
Q 2547 4788 2753 4709 
L 2753 4078 
z
" transform="scale(0.015625)"/>
       <path id="DejaVuSerif-74" d="M 691 2988 
L 184 2988 
L 184 3322 
L 691 3322 
L 691 4353 
L 1269 4353 
L 1269 3322 
L 2350 3322 
L 2350 2988 
L 1269 2988 
L 1269 878 
Q 1269 456 1350 337 
Q 1431 219 1650 219 
Q 1875 219 1978 351 
Q 2081 484 2088 781 
L 2522 781 
Q 2497 328 2275 118 
Q 2053 -91 1600 -91 
Q 1103 -91 897 129 
Q 691 350 691 878 
L 691 2988 
z
" transform="scale(0.015625)"/>
       <path id="DejaVuSerif-20" transform="scale(0.015625)"/>
       <path id="DejaVuSerif-61" d="M 2547 1044 
L 2547 1747 
L 1806 1747 
Q 1378 1747 1168 1562 
Q 959 1378 959 997 
Q 959 650 1171 447 
Q 1384 244 1747 244 
Q 2106 244 2326 466 
Q 2547 688 2547 1044 
z
M 3122 2075 
L 3122 331 
L 3634 331 
L 3634 0 
L 2547 0 
L 2547 359 
Q 2356 128 2106 18 
Q 1856 -91 1522 -91 
Q 969 -91 644 203 
Q 319 497 319 997 
Q 319 1513 691 1797 
Q 1063 2081 1741 2081 
L 2547 2081 
L 2547 2309 
Q 2547 2688 2317 2895 
Q 2088 3103 1672 3103 
Q 1328 3103 1125 2947 
Q 922 2791 872 2484 
L 575 2484 
L 575 3156 
Q 875 3284 1158 3348 
Q 1441 3413 1709 3413 
Q 2400 3413 2761 3070 
Q 3122 2728 3122 2075 
z
" transform="scale(0.015625)"/>
       <path id="DejaVuSerif-6e" d="M 263 0 
L 263 331 
L 781 331 
L 781 2988 
L 231 2988 
L 231 3322 
L 1356 3322 
L 1356 2731 
Q 1516 3069 1770 3241 
Q 2025 3413 2363 3413 
Q 2913 3413 3172 3097 
Q 3431 2781 3431 2113 
L 3431 331 
L 3944 331 
L 3944 0 
L 2356 0 
L 2356 331 
L 2853 331 
L 2853 1931 
Q 2853 2541 2703 2767 
Q 2553 2994 2175 2994 
Q 1775 2994 1565 2701 
Q 1356 2409 1356 1850 
L 1356 331 
L 1856 331 
L 1856 0 
L 263 0 
z
" transform="scale(0.015625)"/>
       <path id="DejaVuSerif-67" d="M 3359 2988 
L 3359 72 
Q 3359 -644 2965 -1033 
Q 2572 -1422 1844 -1422 
Q 1516 -1422 1216 -1362 
Q 916 -1303 641 -1184 
L 641 -488 
L 941 -488 
Q 997 -813 1206 -963 
Q 1416 -1113 1806 -1113 
Q 2313 -1113 2548 -827 
Q 2784 -541 2784 72 
L 2784 519 
Q 2616 206 2355 57 
Q 2094 -91 1709 -91 
Q 1097 -91 708 395 
Q 319 881 319 1663 
Q 319 2444 706 2928 
Q 1094 3413 1709 3413 
Q 2094 3413 2355 3264 
Q 2616 3116 2784 2803 
L 2784 3322 
L 3909 3322 
L 3909 2988 
L 3359 2988 
z
M 2784 1825 
Q 2784 2422 2554 2737 
Q 2325 3053 1888 3053 
Q 1444 3053 1217 2703 
Q 991 2353 991 1663 
Q 991 975 1217 622 
Q 1444 269 1888 269 
Q 2325 269 2554 583 
Q 2784 897 2784 1497 
L 2784 1825 
z
" transform="scale(0.015625)"/>
       <path id="DejaVuSerif-6c" d="M 1313 331 
L 1856 331 
L 1856 0 
L 184 0 
L 184 331 
L 738 331 
L 738 4531 
L 184 4531 
L 184 4863 
L 1313 4863 
L 1313 331 
z
" transform="scale(0.015625)"/>
       <path id="DejaVuSerif-65" d="M 3469 1600 
L 991 1600 
L 991 1575 
Q 991 903 1244 561 
Q 1497 219 1991 219 
Q 2369 219 2611 417 
Q 2853 616 2950 1006 
L 3413 1006 
Q 3275 459 2904 184 
Q 2534 -91 1931 -91 
Q 1203 -91 761 389 
Q 319 869 319 1663 
Q 319 2450 753 2931 
Q 1188 3413 1894 3413 
Q 2647 3413 3050 2948 
Q 3453 2484 3469 1600 
z
M 2791 1931 
Q 2772 2513 2545 2808 
Q 2319 3103 1894 3103 
Q 1497 3103 1269 2806 
Q 1041 2509 991 1931 
L 2791 1931 
z
" transform="scale(0.015625)"/>
       <path id="DejaVuSans-Oblique-3b2" d="M 872 216 
L 572 -1331 
L -6 -1331 
L 928 3478 
Q 1206 4903 2538 4903 
Q 3888 4903 3659 3700 
Q 3503 2844 2894 2531 
Q 3713 2250 3553 1416 
Q 3272 -69 1759 -66 
Q 1097 -63 872 216 
z
M 1019 966 
Q 1259 422 1875 425 
Q 2775 425 2966 1406 
Q 3138 2288 1675 2219 
L 1778 2750 
Q 2909 2731 3106 3750 
Q 3241 4438 2509 4434 
Q 1691 4434 1503 3459 
L 1019 966 
z
" transform="scale(0.015625)"/>
       <path id="DejaVuSerif-5b" d="M 550 4863 
L 2003 4863 
L 2003 4531 
L 1147 4531 
L 1147 -513 
L 2003 -513 
L 2003 -844 
L 550 -844 
L 550 4863 
z
" transform="scale(0.015625)"/>
       <path id="DejaVuSerif-64" d="M 3359 331 
L 3909 331 
L 3909 0 
L 2784 0 
L 2784 519 
Q 2616 206 2355 57 
Q 2094 -91 1709 -91 
Q 1097 -91 708 395 
Q 319 881 319 1663 
Q 319 2444 706 2928 
Q 1094 3413 1709 3413 
Q 2094 3413 2355 3264 
Q 2616 3116 2784 2803 
L 2784 4531 
L 2241 4531 
L 2241 4863 
L 3359 4863 
L 3359 331 
z
M 2784 1497 
L 2784 1825 
Q 2784 2422 2554 2737 
Q 2325 3053 1888 3053 
Q 1444 3053 1217 2703 
Q 991 2353 991 1663 
Q 991 975 1217 622 
Q 1444 269 1888 269 
Q 2325 269 2554 583 
Q 2784 897 2784 1497 
z
" transform="scale(0.015625)"/>
       <path id="DejaVuSerif-5d" d="M 1947 4863 
L 1947 -844 
L 494 -844 
L 494 -513 
L 1350 -513 
L 1350 4531 
L 494 4531 
L 494 4863 
L 1947 4863 
z
" transform="scale(0.015625)"/>
      </defs>
      <use xlink:href="#DejaVuSerif-44" transform="translate(0 0.390625)"/>
      <use xlink:href="#DejaVuSerif-72" transform="translate(80.175781 0.390625)"/>
      <use xlink:href="#DejaVuSerif-69" transform="translate(127.978516 0.390625)"/>
      <use xlink:href="#DejaVuSerif-66" transform="translate(159.960938 0.390625)"/>
      <use xlink:href="#DejaVuSerif-74" transform="translate(196.972656 0.390625)"/>
      <use xlink:href="#DejaVuSerif-20" transform="translate(237.158203 0.390625)"/>
      <use xlink:href="#DejaVuSerif-61" transform="translate(268.945312 0.390625)"/>
      <use xlink:href="#DejaVuSerif-6e" transform="translate(328.564453 0.390625)"/>
      <use xlink:href="#DejaVuSerif-67" transform="translate(392.96875 0.390625)"/>
      <use xlink:href="#DejaVuSerif-6c" transform="translate(456.982422 0.390625)"/>
      <use xlink:href="#DejaVuSerif-65" transform="translate(488.964844 0.390625)"/>
      <use xlink:href="#DejaVuSerif-20" transform="translate(548.144531 0.390625)"/>
      <use xlink:href="#DejaVuSans-Oblique-3b2" transform="translate(579.931641 0.390625)"/>
      <use xlink:href="#DejaVuSerif-20" transform="translate(643.75 0.390625)"/>
      <use xlink:href="#DejaVuSerif-5b" transform="translate(675.537109 0.390625)"/>
      <use xlink:href="#DejaVuSerif-64" transform="translate(714.550781 0.390625)"/>
      <use xlink:href="#DejaVuSerif-65" transform="translate(778.564453 0.390625)"/>
      <use xlink:href="#DejaVuSerif-67" transform="translate(837.744141 0.390625)"/>
      <use xlink:href="#DejaVuSerif-5d" transform="translate(901.757812 0.390625)"/>
     </g>
    </g>
   </g>
   <g id="matplotlib.axis_2">
    <g id="ytick_1">
     <g id="line2d_6"/>
     <g id="text_7">
      <!-- −0.075 -->
      <g style="fill: #262626" transform="translate(12.807115 188.567375) scale(0.07 -0.07)">
       <defs>
        <path id="DejaVuSerif-2e" d="M 603 325 
Q 603 500 722 622 
Q 841 744 1019 744 
Q 1191 744 1312 622 
Q 1434 500 1434 325 
Q 1434 153 1312 31 
Q 1191 -91 1019 -91 
Q 841 -91 722 29 
Q 603 150 603 325 
z
" transform="scale(0.015625)"/>
        <path id="DejaVuSerif-37" d="M 3609 4347 
L 1784 0 
L 1319 0 
L 3059 4153 
L 903 4153 
L 903 3578 
L 538 3578 
L 538 4666 
L 3609 4666 
L 3609 4347 
z
" transform="scale(0.015625)"/>
       </defs>
       <use xlink:href="#DejaVuSerif-2212"/>
       <use xlink:href="#DejaVuSerif-30" x="83.789062"/>
       <use xlink:href="#DejaVuSerif-2e" x="147.412109"/>
       <use xlink:href="#DejaVuSerif-30" x="179.199219"/>
       <use xlink:href="#DejaVuSerif-37" x="242.822266"/>
       <use xlink:href="#DejaVuSerif-35" x="306.445312"/>
      </g>
     </g>
    </g>
    <g id="ytick_2">
     <g id="line2d_7"/>
     <g id="text_8">
      <!-- −0.050 -->
      <g style="fill: #262626" transform="translate(12.807115 163.66088) scale(0.07 -0.07)">
       <use xlink:href="#DejaVuSerif-2212"/>
       <use xlink:href="#DejaVuSerif-30" x="83.789062"/>
       <use xlink:href="#DejaVuSerif-2e" x="147.412109"/>
       <use xlink:href="#DejaVuSerif-30" x="179.199219"/>
       <use xlink:href="#DejaVuSerif-35" x="242.822266"/>
       <use xlink:href="#DejaVuSerif-30" x="306.445312"/>
      </g>
     </g>
    </g>
    <g id="ytick_3">
     <g id="line2d_8"/>
     <g id="text_9">
      <!-- −0.025 -->
      <g style="fill: #262626" transform="translate(12.807115 138.754385) scale(0.07 -0.07)">
       <defs>
        <path id="DejaVuSerif-32" d="M 819 3553 
L 469 3553 
L 469 4384 
Q 803 4563 1142 4656 
Q 1481 4750 1806 4750 
Q 2534 4750 2956 4397 
Q 3378 4044 3378 3438 
Q 3378 2753 2422 1800 
Q 2347 1728 2309 1691 
L 1131 513 
L 3078 513 
L 3078 1088 
L 3444 1088 
L 3444 0 
L 434 0 
L 434 341 
L 1850 1753 
Q 2319 2222 2519 2614 
Q 2719 3006 2719 3438 
Q 2719 3909 2473 4175 
Q 2228 4441 1797 4441 
Q 1350 4441 1106 4219 
Q 863 3997 819 3553 
z
" transform="scale(0.015625)"/>
       </defs>
       <use xlink:href="#DejaVuSerif-2212"/>
       <use xlink:href="#DejaVuSerif-30" x="83.789062"/>
       <use xlink:href="#DejaVuSerif-2e" x="147.412109"/>
       <use xlink:href="#DejaVuSerif-30" x="179.199219"/>
       <use xlink:href="#DejaVuSerif-32" x="242.822266"/>
       <use xlink:href="#DejaVuSerif-35" x="306.445312"/>
      </g>
     </g>
    </g>
    <g id="ytick_4">
     <g id="line2d_9"/>
     <g id="text_10">
      <!-- 0.000 -->
      <g style="fill: #262626" transform="translate(18.672896 113.84789) scale(0.07 -0.07)">
       <use xlink:href="#DejaVuSerif-30"/>
       <use xlink:href="#DejaVuSerif-2e" x="63.623047"/>
       <use xlink:href="#DejaVuSerif-30" x="95.410156"/>
       <use xlink:href="#DejaVuSerif-30" x="159.033203"/>
       <use xlink:href="#DejaVuSerif-30" x="222.65625"/>
      </g>
     </g>
    </g>
    <g id="ytick_5">
     <g id="line2d_10"/>
     <g id="text_11">
      <!-- 0.025 -->
      <g style="fill: #262626" transform="translate(18.672896 88.941395) scale(0.07 -0.07)">
       <use xlink:href="#DejaVuSerif-30"/>
       <use xlink:href="#DejaVuSerif-2e" x="63.623047"/>
       <use xlink:href="#DejaVuSerif-30" x="95.410156"/>
       <use xlink:href="#DejaVuSerif-32" x="159.033203"/>
       <use xlink:href="#DejaVuSerif-35" x="222.65625"/>
      </g>
     </g>
    </g>
    <g id="ytick_6">
     <g id="line2d_11"/>
     <g id="text_12">
      <!-- 0.050 -->
      <g style="fill: #262626" transform="translate(18.672896 64.0349) scale(0.07 -0.07)">
       <use xlink:href="#DejaVuSerif-30"/>
       <use xlink:href="#DejaVuSerif-2e" x="63.623047"/>
       <use xlink:href="#DejaVuSerif-30" x="95.410156"/>
       <use xlink:href="#DejaVuSerif-35" x="159.033203"/>
       <use xlink:href="#DejaVuSerif-30" x="222.65625"/>
      </g>
     </g>
    </g>
    <g id="ytick_7">
     <g id="line2d_12"/>
     <g id="text_13">
      <!-- 0.075 -->
      <g style="fill: #262626" transform="translate(18.672896 39.128405) scale(0.07 -0.07)">
       <use xlink:href="#DejaVuSerif-30"/>
       <use xlink:href="#DejaVuSerif-2e" x="63.623047"/>
       <use xlink:href="#DejaVuSerif-30" x="95.410156"/>
       <use xlink:href="#DejaVuSerif-37" x="159.033203"/>
       <use xlink:href="#DejaVuSerif-35" x="222.65625"/>
      </g>
     </g>
    </g>
    <g id="ytick_8">
     <g id="line2d_13"/>
     <g id="text_14">
      <!-- 0.100 -->
      <g style="fill: #262626" transform="translate(18.672896 14.22191) scale(0.07 -0.07)">
       <use xlink:href="#DejaVuSerif-30"/>
       <use xlink:href="#DejaVuSerif-2e" x="63.623047"/>
       <use xlink:href="#DejaVuSerif-31" x="95.410156"/>
       <use xlink:href="#DejaVuSerif-30" x="159.033203"/>
       <use xlink:href="#DejaVuSerif-30" x="222.65625"/>
      </g>
     </g>
    </g>
    <g id="text_15">
     <!-- Yaw rate $r$ [rad/s] -->
     <g style="fill: #262626" transform="translate(7.559302 125.844208) rotate(-90) scale(0.06 -0.06)">
      <defs>
       <path id="DejaVuSerif-59" d="M 1209 0 
L 1209 331 
L 1806 331 
L 1806 2009 
L 366 4331 
L -72 4331 
L -72 4666 
L 1663 4666 
L 1663 4331 
L 1119 4331 
L 2284 2444 
L 3450 4331 
L 2925 4331 
L 2925 4666 
L 4281 4666 
L 4281 4331 
L 3841 4331 
L 2438 2069 
L 2438 331 
L 3034 331 
L 3034 0 
L 1209 0 
z
" transform="scale(0.015625)"/>
       <path id="DejaVuSerif-77" d="M 3072 3322 
L 3922 728 
L 4672 2988 
L 4191 2988 
L 4191 3322 
L 5394 3322 
L 5394 2988 
L 5025 2988 
L 4038 0 
L 3559 0 
L 2741 2484 
L 1919 0 
L 1459 0 
L 475 2988 
L 103 2988 
L 103 3322 
L 1606 3322 
L 1606 2988 
L 1069 2988 
L 1813 728 
L 2669 3322 
L 3072 3322 
z
" transform="scale(0.015625)"/>
       <path id="DejaVuSans-Oblique-72" d="M 2853 2969 
Q 2766 3016 2653 3041 
Q 2541 3066 2413 3066 
Q 1953 3066 1609 2717 
Q 1266 2369 1153 1784 
L 800 0 
L 225 0 
L 909 3500 
L 1484 3500 
L 1375 2956 
Q 1603 3259 1920 3421 
Q 2238 3584 2597 3584 
Q 2691 3584 2781 3573 
Q 2872 3563 2963 3538 
L 2853 2969 
z
" transform="scale(0.015625)"/>
       <path id="DejaVuSerif-2f" d="M 1656 4666 
L 2156 4666 
L 500 -594 
L 0 -594 
L 1656 4666 
z
" transform="scale(0.015625)"/>
       <path id="DejaVuSerif-73" d="M 359 184 
L 359 959 
L 691 959 
Q 703 588 923 403 
Q 1144 219 1575 219 
Q 1963 219 2166 364 
Q 2369 509 2369 788 
Q 2369 1006 2220 1140 
Q 2072 1275 1594 1428 
L 1178 1569 
Q 750 1706 558 1912 
Q 366 2119 366 2438 
Q 366 2894 700 3153 
Q 1034 3413 1625 3413 
Q 1888 3413 2178 3344 
Q 2469 3275 2778 3144 
L 2778 2419 
L 2447 2419 
Q 2434 2741 2221 2922 
Q 2009 3103 1644 3103 
Q 1281 3103 1095 2975 
Q 909 2847 909 2591 
Q 909 2381 1050 2254 
Q 1191 2128 1613 1997 
L 2069 1856 
Q 2541 1709 2748 1489 
Q 2956 1269 2956 922 
Q 2956 450 2595 179 
Q 2234 -91 1600 -91 
Q 1278 -91 972 -22 
Q 666 47 359 184 
z
" transform="scale(0.015625)"/>
      </defs>
      <use xlink:href="#DejaVuSerif-59" transform="translate(0 0.015625)"/>
      <use xlink:href="#DejaVuSerif-61" transform="translate(66.015625 0.015625)"/>
      <use xlink:href="#DejaVuSerif-77" transform="translate(125.634766 0.015625)"/>
      <use xlink:href="#DejaVuSerif-20" transform="translate(211.230469 0.015625)"/>
      <use xlink:href="#DejaVuSerif-72" transform="translate(243.017578 0.015625)"/>
      <use xlink:href="#DejaVuSerif-61" transform="translate(290.820312 0.015625)"/>
      <use xlink:href="#DejaVuSerif-74" transform="translate(350.439453 0.015625)"/>
      <use xlink:href="#DejaVuSerif-65" transform="translate(390.625 0.015625)"/>
      <use xlink:href="#DejaVuSerif-20" transform="translate(449.804688 0.015625)"/>
      <use xlink:href="#DejaVuSans-Oblique-72" transform="translate(481.591797 0.015625)"/>
      <use xlink:href="#DejaVuSerif-20" transform="translate(522.705078 0.015625)"/>
      <use xlink:href="#DejaVuSerif-5b" transform="translate(554.492188 0.015625)"/>
      <use xlink:href="#DejaVuSerif-72" transform="translate(593.505859 0.015625)"/>
      <use xlink:href="#DejaVuSerif-61" transform="translate(641.308594 0.015625)"/>
      <use xlink:href="#DejaVuSerif-64" transform="translate(700.927734 0.015625)"/>
      <use xlink:href="#DejaVuSerif-2f" transform="translate(764.941406 0.015625)"/>
      <use xlink:href="#DejaVuSerif-73" transform="translate(798.632812 0.015625)"/>
      <use xlink:href="#DejaVuSerif-5d" transform="translate(849.951172 0.015625)"/>
     </g>
    </g>
   </g>
   <g id="line2d_14">
    <path d="M 211.288616 111.188437 
L 210.616013 112.643005 
L 210.081546 113.303299 
L 209.161321 114.371727 
L 199.940362 125.562755 
L 197.850508 127.785326 
L 195.519929 129.919206 
L 193.227568 131.680559 
L 190.24212 133.6742 
L 186.604956 135.873621 
L 181.107407 138.94218 
L 170.383977 144.731072 
L 162.616183 149.027854 
L 159.276844 150.605999 
L 158.413841 150.745704 
L 157.737819 150.642849 
L 157.180499 150.322723 
L 156.749615 149.78943 
L 156.458097 149.043618 
L 156.308347 148.002783 
L 156.342681 146.509171 
L 156.859048 139.607301 
L 157.1748 132.130077 
L 157.46264 130.473584 
L 157.941218 128.988004 
L 158.727291 127.316615 
L 159.654646 125.892651 
L 160.76477 124.600358 
L 162.094072 123.407554 
L 163.804732 122.19365 
L 166.498888 120.631585 
L 170.114441 118.839386 
L 177.715815 115.387189 
L 187.108342 111.481832 
L 191.626533 109.269952 
L 195.328565 107.305584 
L 202.824895 102.94234 
L 207.029976 100.663829 
L 212.742278 97.909047 
L 223.495715 92.925276 
L 234.757694 87.105265 
L 243.106418 82.871072 
L 252.926407 77.857791 
L 258.482971 74.925193 
L 271.176145 68.641305 
L 277.689793 65.687439 
L 286.046325 62.185163 
L 290.220314 60.649322 
L 293.398352 59.75511 
L 298.106502 58.643287 
L 310.461693 55.932893 
L 311.442501 55.919741 
L 311.970128 56.131861 
L 312.367163 56.549362 
L 312.639963 57.15431 
L 312.773322 58.033651 
L 312.722436 59.238897 
L 312.397413 61.064516 
L 311.708146 63.560373 
L 310.25005 68.966855 
L 307.958144 77.865335 
L 307.237045 79.587185 
L 306.18346 81.391236 
L 305.122607 82.76784 
L 303.383397 84.628336 
L 301.811674 85.956668 
L 299.359292 87.711432 
L 296.689297 89.376741 
L 293.892744 90.837856 
L 289.31404 92.944479 
L 283.503766 95.349663 
L 269.275712 100.881738 
L 255.186656 106.3942 
L 247.47372 109.510032 
L 234.992155 114.698519 
L 228.698731 117.820316 
L 211.191569 125.614224 
L 197.880596 131.008942 
L 178.320768 138.374704 
L 171.752655 141.123115 
L 166.294116 143.662056 
L 158.344413 147.642187 
L 152.399961 150.618841 
L 148.815568 152.19507 
L 145.795293 153.290409 
L 143.748388 153.915878 
L 143.748388 153.915878 
" clip-path="url(#p09c9dd7955)" style="fill: none; stroke: #0000ff; stroke-width: 0.4; stroke-linecap: round"/>
   </g>
   <g id="line2d_15">
    <path d="M 211.288616 111.188437 
L 210.081646 113.043011 
L 200.242414 127.629797 
L 195.450387 134.303928 
L 191.824431 138.989811 
L 188.73374 142.664616 
L 185.62233 146.000771 
L 182.491089 149.043283 
L 179.340176 151.786309 
L 176.182015 154.239261 
L 172.91251 156.517347 
L 167.749865 159.765361 
L 161.047762 163.629514 
L 151.360696 168.819774 
L 143.588672 172.715076 
L 133.495767 177.595588 
L 124.747223 181.608014 
L 119.361299 183.840655 
L 115.43533 185.263556 
L 111.508779 186.442469 
L 110.081317 186.605088 
L 108.922557 186.500378 
L 108.06286 186.236441 
L 107.227595 185.765479 
L 106.507524 185.103105 
L 105.84363 184.176494 
L 105.261785 182.939832 
L 104.818387 181.469601 
L 104.490039 179.644198 
L 104.326715 177.413363 
L 104.35127 174.746689 
L 104.561941 171.986226 
L 105.10691 168.139986 
L 105.874778 164.398569 
L 107.024683 160.162045 
L 111.688951 143.649748 
L 112.689379 141.095635 
L 113.855444 138.770996 
L 115.271714 136.43607 
L 116.764318 134.406241 
L 118.533057 132.395598 
L 120.65153 130.334944 
L 123.242723 128.175737 
L 126.803055 125.527225 
L 131.097999 122.644909 
L 136.489353 119.313519 
L 146.565826 113.434616 
L 175.86528 96.696864 
L 180.880329 94.049146 
L 187.906387 90.604765 
L 195.414347 87.147486 
L 206.450117 82.361843 
L 216.300174 78.375775 
L 240.768133 69.03423 
L 255.454178 63.369562 
L 265.786269 59.396553 
L 275.256024 55.906033 
L 281.061668 53.908496 
L 287.335225 51.977934 
L 292.998428 50.334299 
L 308.651634 46.246793 
L 314.186405 45.023322 
L 319.100405 44.086794 
L 332.003428 42.027941 
L 343.42884 40.093901 
L 347.959327 39.721039 
L 350.552917 39.439209 
L 351.9314 39.347134 
L 354.03717 39.15748 
L 356.636229 38.988115 
L 363.546459 38.67809 
L 365.403235 38.800267 
L 367.706403 39.158764 
L 368.788883 39.58153 
L 369.567192 40.134772 
L 369.881386 40.782194 
L 370.001154 41.603007 
L 369.954181 42.777792 
L 369.655429 44.247472 
L 369.061586 45.989886 
L 367.022563 50.899608 
L 364.299131 57.371155 
L 362.490209 61.020465 
L 360.175628 65.19377 
L 356.001432 72.044723 
L 351.679884 78.804003 
L 349.242415 82.211426 
L 347.028076 84.949656 
L 344.626842 87.578149 
L 342.214893 89.899712 
L 339.93764 91.788056 
L 337.528314 93.47191 
L 334.102922 95.553355 
L 330.097575 97.68584 
L 325.928931 99.625845 
L 321.177899 101.584224 
L 315.18103 103.764037 
L 307.729426 106.32084 
L 285.926184 113.805079 
L 276.53702 117.446799 
L 260.925108 123.509531 
L 248.295407 127.993716 
L 236.948069 131.803507 
L 208.857106 141.051896 
L 174.997918 152.246913 
L 165.636758 155.512646 
L 151.535807 160.622568 
L 137.39734 165.821672 
L 127.137932 169.405593 
L 120.532964 171.401789 
L 115.1109 172.76771 
L 110.910702 173.639989 
L 101.935218 175.122978 
L 95.867093 175.976702 
L 93.15311 176.406806 
L 78.233326 178.404045 
L 69.124767 179.492831 
L 64.710543 179.82685 
L 61.321064 179.900047 
L 58.376122 179.363635 
L 58.100639 179.036299 
L 57.892631 178.416887 
L 57.82404 177.503749 
L 57.968669 176.328591 
L 58.406401 174.723062 
L 59.387872 172.124724 
L 60.935754 168.65648 
L 62.865384 164.818649 
L 66.510081 158.085989 
L 70.002089 152.235242 
L 75.898361 142.802065 
L 78.543086 138.930875 
L 80.459361 136.560438 
L 82.616279 134.241042 
L 84.808138 132.20004 
L 87.285057 130.201375 
L 90.66098 127.782077 
L 93.790862 125.81515 
L 97.033544 124.052311 
L 102.346346 121.486624 
L 108.99208 118.68362 
L 120.378597 114.394681 
L 139.439076 107.20343 
L 145.725572 104.47988 
L 155.200861 100.389251 
L 166.321925 95.907537 
L 176.7333 92.002105 
L 183.138789 89.762447 
L 200.337843 83.882615 
L 208.647366 80.704675 
L 215.47552 77.932607 
L 215.47552 77.932607 
" clip-path="url(#p09c9dd7955)" style="fill: none; stroke: #bf00bf; stroke-width: 0.4; stroke-linecap: round"/>
   </g>
   <g id="line2d_16">
    <defs>
     <path id="mb6af8bda01" d="M -1.5 0 
L 1.5 0 
M 0 1.5 
L 0 -1.5 
" style="stroke: #ff0000"/>
    </defs>
    <g clip-path="url(#p09c9dd7955)">
     <use xlink:href="#mb6af8bda01" x="211.288616" y="46.217632" style="fill: #ff0000; stroke: #ff0000"/>
     <use xlink:href="#mb6af8bda01" x="211.288616" y="62.460333" style="fill: #ff0000; stroke: #ff0000"/>
     <use xlink:href="#mb6af8bda01" x="211.288616" y="86.824385" style="fill: #ff0000; stroke: #ff0000"/>
     <use xlink:href="#mb6af8bda01" x="211.288616" y="176.159241" style="fill: #ff0000; stroke: #ff0000"/>
     <use xlink:href="#mb6af8bda01" x="211.288616" y="159.91654" style="fill: #ff0000; stroke: #ff0000"/>
     <use xlink:href="#mb6af8bda01" x="211.288616" y="135.552488" style="fill: #ff0000; stroke: #ff0000"/>
     <use xlink:href="#mb6af8bda01" x="240.571702" y="62.460333" style="fill: #ff0000; stroke: #ff0000"/>
     <use xlink:href="#mb6af8bda01" x="64.873185" y="176.159241" style="fill: #ff0000; stroke: #ff0000"/>
     <use xlink:href="#mb6af8bda01" x="138.0809" y="176.159241" style="fill: #ff0000; stroke: #ff0000"/>
     <use xlink:href="#mb6af8bda01" x="64.873185" y="159.91654" style="fill: #ff0000; stroke: #ff0000"/>
     <use xlink:href="#mb6af8bda01" x="182.005529" y="159.91654" style="fill: #ff0000; stroke: #ff0000"/>
     <use xlink:href="#mb6af8bda01" x="138.0809" y="159.91654" style="fill: #ff0000; stroke: #ff0000"/>
     <use xlink:href="#mb6af8bda01" x="182.005529" y="135.552488" style="fill: #ff0000; stroke: #ff0000"/>
     <use xlink:href="#mb6af8bda01" x="138.0809" y="135.552488" style="fill: #ff0000; stroke: #ff0000"/>
     <use xlink:href="#mb6af8bda01" x="240.571702" y="135.552488" style="fill: #ff0000; stroke: #ff0000"/>
     <use xlink:href="#mb6af8bda01" x="64.873185" y="135.522071" style="fill: #ff0000; stroke: #ff0000"/>
     <use xlink:href="#mb6af8bda01" x="357.704047" y="11.743328" style="fill: #ff0000; stroke: #ff0000"/>
     <use xlink:href="#mb6af8bda01" x="357.704047" y="46.217632" style="fill: #ff0000; stroke: #ff0000"/>
     <use xlink:href="#mb6af8bda01" x="284.496331" y="46.217632" style="fill: #ff0000; stroke: #ff0000"/>
     <use xlink:href="#mb6af8bda01" x="357.704047" y="62.460333" style="fill: #ff0000; stroke: #ff0000"/>
     <use xlink:href="#mb6af8bda01" x="284.496331" y="62.460333" style="fill: #ff0000; stroke: #ff0000"/>
     <use xlink:href="#mb6af8bda01" x="357.704047" y="86.854802" style="fill: #ff0000; stroke: #ff0000"/>
     <use xlink:href="#mb6af8bda01" x="138.0809" y="86.824385" style="fill: #ff0000; stroke: #ff0000"/>
     <use xlink:href="#mb6af8bda01" x="240.571702" y="86.854802" style="fill: #ff0000; stroke: #ff0000"/>
     <use xlink:href="#mb6af8bda01" x="240.571702" y="86.854802" style="fill: #ff0000; stroke: #ff0000"/>
     <use xlink:href="#mb6af8bda01" x="269.854788" y="86.854802" style="fill: #ff0000; stroke: #ff0000"/>
     <use xlink:href="#mb6af8bda01" x="269.854788" y="86.854802" style="fill: #ff0000; stroke: #ff0000"/>
     <use xlink:href="#mb6af8bda01" x="313.779417" y="86.854802" style="fill: #ff0000; stroke: #ff0000"/>
     <use xlink:href="#mb6af8bda01" x="313.779417" y="86.854802" style="fill: #ff0000; stroke: #ff0000"/>
     <use xlink:href="#mb6af8bda01" x="211.288616" y="63.415786" style="fill: #ff0000; stroke: #ff0000"/>
     <use xlink:href="#mb6af8bda01" x="211.288616" y="86.854802" style="fill: #ff0000; stroke: #ff0000"/>
     <use xlink:href="#mb6af8bda01" x="211.288616" y="86.824385" style="fill: #ff0000; stroke: #ff0000"/>
     <use xlink:href="#mb6af8bda01" x="211.288616" y="86.824385" style="fill: #ff0000; stroke: #ff0000"/>
     <use xlink:href="#mb6af8bda01" x="211.288616" y="135.552488" style="fill: #ff0000; stroke: #ff0000"/>
     <use xlink:href="#mb6af8bda01" x="211.288616" y="135.552488" style="fill: #ff0000; stroke: #ff0000"/>
     <use xlink:href="#mb6af8bda01" x="108.797814" y="111.188437" style="fill: #ff0000; stroke: #ff0000"/>
     <use xlink:href="#mb6af8bda01" x="313.779417" y="111.188437" style="fill: #ff0000; stroke: #ff0000"/>
     <use xlink:href="#mb6af8bda01" x="64.873185" y="111.188437" style="fill: #ff0000; stroke: #ff0000"/>
     <use xlink:href="#mb6af8bda01" x="196.647072" y="111.188437" style="fill: #ff0000; stroke: #ff0000"/>
     <use xlink:href="#mb6af8bda01" x="182.005529" y="111.188437" style="fill: #ff0000; stroke: #ff0000"/>
     <use xlink:href="#mb6af8bda01" x="152.722443" y="111.188437" style="fill: #ff0000; stroke: #ff0000"/>
     <use xlink:href="#mb6af8bda01" x="357.704047" y="111.188437" style="fill: #ff0000; stroke: #ff0000"/>
     <use xlink:href="#mb6af8bda01" x="225.930159" y="111.188437" style="fill: #ff0000; stroke: #ff0000"/>
     <use xlink:href="#mb6af8bda01" x="240.571702" y="111.188437" style="fill: #ff0000; stroke: #ff0000"/>
     <use xlink:href="#mb6af8bda01" x="269.854788" y="111.188437" style="fill: #ff0000; stroke: #ff0000"/>
     <use xlink:href="#mb6af8bda01" x="240.571702" y="111.188437" style="fill: #ff0000; stroke: #ff0000"/>
     <use xlink:href="#mb6af8bda01" x="269.854788" y="111.188437" style="fill: #ff0000; stroke: #ff0000"/>
     <use xlink:href="#mb6af8bda01" x="313.779417" y="111.188437" style="fill: #ff0000; stroke: #ff0000"/>
     <use xlink:href="#mb6af8bda01" x="152.722443" y="111.188437" style="fill: #ff0000; stroke: #ff0000"/>
     <use xlink:href="#mb6af8bda01" x="152.722443" y="111.188437" style="fill: #ff0000; stroke: #ff0000"/>
     <use xlink:href="#mb6af8bda01" x="269.854788" y="111.188437" style="fill: #ff0000; stroke: #ff0000"/>
     <use xlink:href="#mb6af8bda01" x="269.854788" y="111.188437" style="fill: #ff0000; stroke: #ff0000"/>
     <use xlink:href="#mb6af8bda01" x="211.288616" y="111.188437" style="fill: #ff0000; stroke: #ff0000"/>
     <use xlink:href="#mb6af8bda01" x="211.288616" y="111.188437" style="fill: #ff0000; stroke: #ff0000"/>
     <use xlink:href="#mb6af8bda01" x="211.288616" y="111.188437" style="fill: #ff0000; stroke: #ff0000"/>
     <use xlink:href="#mb6af8bda01" x="211.288616" y="111.188437" style="fill: #ff0000; stroke: #ff0000"/>
     <use xlink:href="#mb6af8bda01" x="211.288616" y="111.188437" style="fill: #ff0000; stroke: #ff0000"/>
     <use xlink:href="#mb6af8bda01" x="211.288616" y="111.188437" style="fill: #ff0000; stroke: #ff0000"/>
     <use xlink:href="#mb6af8bda01" x="211.288616" y="111.188437" style="fill: #ff0000; stroke: #ff0000"/>
     <use xlink:href="#mb6af8bda01" x="211.288616" y="111.188437" style="fill: #ff0000; stroke: #ff0000"/>
     <use xlink:href="#mb6af8bda01" x="211.288616" y="111.188437" style="fill: #ff0000; stroke: #ff0000"/>
     <use xlink:href="#mb6af8bda01" x="211.288616" y="111.188437" style="fill: #ff0000; stroke: #ff0000"/>
     <use xlink:href="#mb6af8bda01" x="211.288616" y="111.188437" style="fill: #ff0000; stroke: #ff0000"/>
     <use xlink:href="#mb6af8bda01" x="211.288616" y="111.188437" style="fill: #ff0000; stroke: #ff0000"/>
     <use xlink:href="#mb6af8bda01" x="211.288616" y="111.188437" style="fill: #ff0000; stroke: #ff0000"/>
     <use xlink:href="#mb6af8bda01" x="211.288616" y="111.188437" style="fill: #ff0000; stroke: #ff0000"/>
     <use xlink:href="#mb6af8bda01" x="211.288616" y="111.188437" style="fill: #ff0000; stroke: #ff0000"/>
     <use xlink:href="#mb6af8bda01" x="211.288616" y="111.188437" style="fill: #ff0000; stroke: #ff0000"/>
     <use xlink:href="#mb6af8bda01" x="211.288616" y="111.188437" style="fill: #ff0000; stroke: #ff0000"/>
     <use xlink:href="#mb6af8bda01" x="211.288616" y="111.188437" style="fill: #ff0000; stroke: #ff0000"/>
     <use xlink:href="#mb6af8bda01" x="211.288616" y="111.188437" style="fill: #ff0000; stroke: #ff0000"/>
     <use xlink:href="#mb6af8bda01" x="211.288616" y="111.188437" style="fill: #ff0000; stroke: #ff0000"/>
     <use xlink:href="#mb6af8bda01" x="211.288616" y="111.188437" style="fill: #ff0000; stroke: #ff0000"/>
     <use xlink:href="#mb6af8bda01" x="211.288616" y="111.188437" style="fill: #ff0000; stroke: #ff0000"/>
     <use xlink:href="#mb6af8bda01" x="211.288616" y="111.188437" style="fill: #ff0000; stroke: #ff0000"/>
     <use xlink:href="#mb6af8bda01" x="211.288616" y="111.188437" style="fill: #ff0000; stroke: #ff0000"/>
     <use xlink:href="#mb6af8bda01" x="211.288616" y="111.188437" style="fill: #ff0000; stroke: #ff0000"/>
    </g>
   </g>
   <g id="line2d_17">
    <defs>
     <path id="m83a2d4bd8d" d="M 0 0.75 
C 0.198902 0.75 0.389685 0.670975 0.53033 0.53033 
C 0.670975 0.389685 0.75 0.198902 0.75 0 
C 0.75 -0.198902 0.670975 -0.389685 0.53033 -0.53033 
C 0.389685 -0.670975 0.198902 -0.75 0 -0.75 
C -0.198902 -0.75 -0.389685 -0.670975 -0.53033 -0.53033 
C -0.670975 -0.389685 -0.75 -0.198902 -0.75 0 
C -0.75 0.198902 -0.670975 0.389685 -0.53033 0.53033 
C -0.389685 0.670975 -0.198902 0.75 0 0.75 
z
" style="stroke: #008000"/>
    </defs>
    <g clip-path="url(#p09c9dd7955)">
     <use xlink:href="#m83a2d4bd8d" x="358.080334" y="67.727868" style="fill: #008000; stroke: #008000"/>
     <use xlink:href="#m83a2d4bd8d" x="366.322059" y="45.960858" style="fill: #008000; stroke: #008000"/>
     <use xlink:href="#m83a2d4bd8d" x="178.579555" y="93.5011" style="fill: #008000; stroke: #008000"/>
     <use xlink:href="#m83a2d4bd8d" x="62.148393" y="161.742941" style="fill: #008000; stroke: #008000"/>
     <use xlink:href="#m83a2d4bd8d" x="295.734301" y="55.449283" style="fill: #008000; stroke: #008000"/>
     <use xlink:href="#m83a2d4bd8d" x="75.036758" y="185.985013" style="fill: #008000; stroke: #008000"/>
     <use xlink:href="#m83a2d4bd8d" x="148.116214" y="167.874713" style="fill: #008000; stroke: #008000"/>
     <use xlink:href="#m83a2d4bd8d" x="116.354754" y="144.499263" style="fill: #008000; stroke: #008000"/>
     <use xlink:href="#m83a2d4bd8d" x="314.116173" y="77.770685" style="fill: #008000; stroke: #008000"/>
     <use xlink:href="#m83a2d4bd8d" x="113.12644" y="161.261818" style="fill: #008000; stroke: #008000"/>
     <use xlink:href="#m83a2d4bd8d" x="319.158427" y="49.615055" style="fill: #008000; stroke: #008000"/>
     <use xlink:href="#m83a2d4bd8d" x="267.4505" y="87.642601" style="fill: #008000; stroke: #008000"/>
     <use xlink:href="#m83a2d4bd8d" x="267.090611" y="74.677803" style="fill: #008000; stroke: #008000"/>
     <use xlink:href="#m83a2d4bd8d" x="250.913316" y="64.927983" style="fill: #008000; stroke: #008000"/>
     <use xlink:href="#m83a2d4bd8d" x="232.084585" y="86.992956" style="fill: #008000; stroke: #008000"/>
    </g>
   </g>
   <g id="patch_3">
    <path d="M 42.212584 195.348177 
L 42.212584 3.00024 
" style="fill: none; stroke: #000000; stroke-linejoin: miter; stroke-linecap: square"/>
   </g>
   <g id="patch_4">
    <path d="M 42.212584 195.348177 
L 385.61904 195.348177 
" style="fill: none; stroke: #000000; stroke-linejoin: miter; stroke-linecap: square"/>
   </g>
   <g id="legend_1">
    <g id="line2d_18">
     <path d="M 48.512584 12.169146 
L 55.512584 12.169146 
L 62.512584 12.169146 
" style="fill: none; stroke: #0000ff; stroke-width: 0.4; stroke-linecap: round"/>
    </g>
    <g id="text_16">
     <!-- zigzag 10/10 -->
     <g style="fill: #262626" transform="translate(68.112584 14.619146) scale(0.07 -0.07)">
      <defs>
       <path id="DejaVuSerif-7a" d="M 256 0 
L 256 269 
L 2338 2988 
L 691 2988 
L 691 2413 
L 359 2413 
L 359 3322 
L 3078 3322 
L 3078 3053 
L 997 331 
L 2803 331 
L 2803 934 
L 3138 934 
L 3138 0 
L 256 0 
z
" transform="scale(0.015625)"/>
      </defs>
      <use xlink:href="#DejaVuSerif-7a"/>
      <use xlink:href="#DejaVuSerif-69" x="52.685547"/>
      <use xlink:href="#DejaVuSerif-67" x="84.667969"/>
      <use xlink:href="#DejaVuSerif-7a" x="148.681641"/>
      <use xlink:href="#DejaVuSerif-61" x="201.367188"/>
      <use xlink:href="#DejaVuSerif-67" x="260.986328"/>
      <use xlink:href="#DejaVuSerif-20" x="325"/>
      <use xlink:href="#DejaVuSerif-31" x="356.787109"/>
      <use xlink:href="#DejaVuSerif-30" x="420.410156"/>
      <use xlink:href="#DejaVuSerif-2f" x="484.033203"/>
      <use xlink:href="#DejaVuSerif-31" x="517.724609"/>
      <use xlink:href="#DejaVuSerif-30" x="581.347656"/>
     </g>
    </g>
    <g id="line2d_19">
     <path d="M 48.512584 22.543365 
L 55.512584 22.543365 
L 62.512584 22.543365 
" style="fill: none; stroke: #bf00bf; stroke-width: 0.4; stroke-linecap: round"/>
    </g>
    <g id="text_17">
     <!-- zigzag 20/20 -->
     <g style="fill: #262626" transform="translate(68.112584 24.993365) scale(0.07 -0.07)">
      <use xlink:href="#DejaVuSerif-7a"/>
      <use xlink:href="#DejaVuSerif-69" x="52.685547"/>
      <use xlink:href="#DejaVuSerif-67" x="84.667969"/>
      <use xlink:href="#DejaVuSerif-7a" x="148.681641"/>
      <use xlink:href="#DejaVuSerif-61" x="201.367188"/>
      <use xlink:href="#DejaVuSerif-67" x="260.986328"/>
      <use xlink:href="#DejaVuSerif-20" x="325"/>
      <use xlink:href="#DejaVuSerif-32" x="356.787109"/>
      <use xlink:href="#DejaVuSerif-30" x="420.410156"/>
      <use xlink:href="#DejaVuSerif-2f" x="484.033203"/>
      <use xlink:href="#DejaVuSerif-32" x="517.724609"/>
      <use xlink:href="#DejaVuSerif-30" x="581.347656"/>
     </g>
    </g>
    <g id="line2d_20">
     <g>
      <use xlink:href="#mb6af8bda01" x="55.512584" y="32.917584" style="fill: #ff0000; stroke: #ff0000"/>
     </g>
    </g>
    <g id="text_18">
     <!-- VCT -->
     <g style="fill: #262626" transform="translate(68.112584 35.367584) scale(0.07 -0.07)">
      <defs>
       <path id="DejaVuSerif-56" d="M 1119 4331 
L 2497 750 
L 3872 4331 
L 3347 4331 
L 3347 4666 
L 4716 4666 
L 4716 4331 
L 4263 4331 
L 2597 0 
L 2059 0 
L 403 4331 
L -63 4331 
L -63 4666 
L 1638 4666 
L 1638 4331 
L 1119 4331 
z
" transform="scale(0.015625)"/>
       <path id="DejaVuSerif-43" d="M 4513 1234 
Q 4306 581 3820 245 
Q 3334 -91 2591 -91 
Q 2134 -91 1743 65 
Q 1353 222 1050 525 
Q 700 875 529 1320 
Q 359 1766 359 2328 
Q 359 3416 987 4083 
Q 1616 4750 2644 4750 
Q 3025 4750 3456 4650 
Q 3888 4550 4384 4347 
L 4384 3272 
L 4031 3272 
Q 3916 3859 3567 4137 
Q 3219 4416 2591 4416 
Q 1844 4416 1459 3886 
Q 1075 3356 1075 2328 
Q 1075 1303 1459 773 
Q 1844 244 2591 244 
Q 3113 244 3450 492 
Q 3788 741 3938 1234 
L 4513 1234 
z
" transform="scale(0.015625)"/>
       <path id="DejaVuSerif-54" d="M 1222 0 
L 1222 331 
L 1819 331 
L 1819 4294 
L 447 4294 
L 447 3566 
L 63 3566 
L 63 4666 
L 4206 4666 
L 4206 3566 
L 3822 3566 
L 3822 4294 
L 2450 4294 
L 2450 331 
L 3047 331 
L 3047 0 
L 1222 0 
z
" transform="scale(0.015625)"/>
      </defs>
      <use xlink:href="#DejaVuSerif-56"/>
      <use xlink:href="#DejaVuSerif-43" x="72.216797"/>
      <use xlink:href="#DejaVuSerif-54" x="148.730469"/>
     </g>
    </g>
    <g id="line2d_21">
     <g>
      <use xlink:href="#m83a2d4bd8d" x="55.512584" y="43.192271" style="fill: #008000; stroke: #008000"/>
     </g>
    </g>
    <g id="text_19">
     <!-- state VCT -->
     <g style="fill: #262626" transform="translate(68.112584 45.642271) scale(0.07 -0.07)">
      <use xlink:href="#DejaVuSerif-73"/>
      <use xlink:href="#DejaVuSerif-74" x="51.318359"/>
      <use xlink:href="#DejaVuSerif-61" x="91.503906"/>
      <use xlink:href="#DejaVuSerif-74" x="151.123047"/>
      <use xlink:href="#DejaVuSerif-65" x="191.308594"/>
      <use xlink:href="#DejaVuSerif-20" x="250.488281"/>
      <use xlink:href="#DejaVuSerif-56" x="282.275391"/>
      <use xlink:href="#DejaVuSerif-43" x="354.492188"/>
      <use xlink:href="#DejaVuSerif-54" x="431.005859"/>
     </g>
    </g>
   </g>
  </g>
 </g>
 <defs>
  <clipPath id="p09c9dd7955">
   <rect x="42.212584" y="3.00024" width="343.406456" height="192.347937"/>
  </clipPath>
 </defs>
</svg>
