<?xml version="1.0" encoding="utf-8" standalone="no"?>
<!DOCTYPE svg PUBLIC "-//W3C//DTD SVG 1.1//EN"
  "http://www.w3.org/Graphics/SVG/1.1/DTD/svg11.dtd">
<svg xmlns:xlink="http://www.w3.org/1999/xlink" width="388.61928pt" height="218.623104pt" viewBox="0 0 388.61928 218.623104" xmlns="http://www.w3.org/2000/svg" version="1.1">
 <metadata>
  <rdf:RDF xmlns:dc="http://purl.org/dc/elements/1.1/" xmlns:cc="http://creativecommons.org/ns#" xmlns:rdf="http://www.w3.org/1999/02/22-rdf-syntax-ns#">
   <cc:Work>
    <dc:type rdf:resource="http://purl.org/dc/dcmitype/StillImage"/>
    <dc:date>2025-04-14T07:49:27.020607</dc:date>
    <dc:format>image/svg+xml</dc:format>
    <dc:creator>
     <cc:Agent>
      <dc:title>Matplotlib v3.8.2, https://matplotlib.org/</dc:title>
     </cc:Agent>
    </dc:creator>
   </cc:Work>
  </rdf:RDF>
 </metadata>
 <defs>
  <style type="text/css">*{stroke-linejoin: round; stroke-linecap: butt}</style>
 </defs>
 <g id="figure_1">
  <g id="patch_1">
   <path d="M 0 218.623104 
L 388.61928 218.623104 
L 388.61928 0 
L 0 0 
z
" style="fill: #ffffff"/>
  </g>
  <g id="axes_1">
   <g id="patch_2">
    <path d="M 44.688 59.7775 
L 377.81928 59.7775 
L 377.81928 10.8 
L 44.688 10.8 
z
" style="fill: #ffffff"/>
   </g>
   <g id="matplotlib.axis_1">
    <g id="xtick_1">
     <g id="line2d_1">
      <path d="M 59.830331 59.7775 
L 59.830331 10.8 
" clip-path="url(#p7276dbdbd8)" style="fill: none; stroke: #b0b0b0; stroke-width: 0.1; stroke-linecap: round"/>
     </g>
     <g id="line2d_2"/>
    </g>
    <g id="xtick_2">
     <g id="line2d_3">
      <path d="M 97.68616 59.7775 
L 97.68616 10.8 
" clip-path="url(#p7276dbdbd8)" style="fill: none; stroke: #b0b0b0; stroke-width: 0.1; stroke-linecap: round"/>
     </g>
     <g id="line2d_4"/>
    </g>
    <g id="xtick_3">
     <g id="line2d_5">
      <path d="M 135.541989 59.7775 
L 135.541989 10.8 
" clip-path="url(#p7276dbdbd8)" style="fill: none; stroke: #b0b0b0; stroke-width: 0.1; stroke-linecap: round"/>
     </g>
     <g id="line2d_6"/>
    </g>
    <g id="xtick_4">
     <g id="line2d_7">
      <path d="M 173.397818 59.7775 
L 173.397818 10.8 
" clip-path="url(#p7276dbdbd8)" style="fill: none; stroke: #b0b0b0; stroke-width: 0.1; stroke-linecap: round"/>
     </g>
     <g id="line2d_8"/>
    </g>
    <g id="xtick_5">
     <g id="line2d_9">
      <path d="M 211.253648 59.7775 
L 211.253648 10.8 
" clip-path="url(#p7276dbdbd8)" style="fill: none; stroke: #b0b0b0; stroke-width: 0.1; stroke-linecap: round"/>
     </g>
     <g id="line2d_10"/>
    </g>
    <g id="xtick_6">
     <g id="line2d_11">
      <path d="M 249.109477 59.7775 
L 249.109477 10.8 
" clip-path="url(#p7276dbdbd8)" style="fill: none; stroke: #b0b0b0; stroke-width: 0.1; stroke-linecap: round"/>
     </g>
     <g id="line2d_12"/>
    </g>
    <g id="xtick_7">
     <g id="line2d_13">
      <path d="M 286.965306 59.7775 
L 286.965306 10.8 
" clip-path="url(#p7276dbdbd8)" style="fill: none; stroke: #b0b0b0; stroke-width: 0.1; stroke-linecap: round"/>
     </g>
     <g id="line2d_14"/>
    </g>
    <g id="xtick_8">
     <g id="line2d_15">
      <path d="M 324.821135 59.7775 
L 324.821135 10.8 
" clip-path="url(#p7276dbdbd8)" style="fill: none; stroke: #b0b0b0; stroke-width: 0.1; stroke-linecap: round"/>
     </g>
     <g id="line2d_16"/>
    </g>
    <g id="xtick_9">
     <g id="line2d_17">
      <path d="M 362.676964 59.7775 
L 362.676964 10.8 
" clip-path="url(#p7276dbdbd8)" style="fill: none; stroke: #b0b0b0; stroke-width: 0.1; stroke-linecap: round"/>
     </g>
     <g id="line2d_18"/>
    </g>
   </g>
   <g id="matplotlib.axis_2">
    <g id="ytick_1">
     <g id="line2d_19">
      <path d="M 44.688 59.7135 
L 377.81928 59.7135 
" clip-path="url(#p7276dbdbd8)" style="fill: none; stroke: #b0b0b0; stroke-width: 0.1; stroke-linecap: round"/>
     </g>
     <g id="line2d_20"/>
     <g id="text_1">
      <!-- −0.2 -->
      <g style="fill: #262626" transform="translate(24.190031 62.372953) scale(0.07 -0.07)">
       <defs>
        <path id="DejaVuSerif-2212" d="M 678 2259 
L 4684 2259 
L 4684 1753 
L 678 1753 
L 678 2259 
z
" transform="scale(0.015625)"/>
        <path id="DejaVuSerif-30" d="M 2034 219 
Q 2513 219 2750 744 
Q 2988 1269 2988 2328 
Q 2988 3391 2750 3916 
Q 2513 4441 2034 4441 
Q 1556 4441 1318 3916 
Q 1081 3391 1081 2328 
Q 1081 1269 1318 744 
Q 1556 219 2034 219 
z
M 2034 -91 
Q 1275 -91 848 546 
Q 422 1184 422 2328 
Q 422 3475 848 4112 
Q 1275 4750 2034 4750 
Q 2797 4750 3222 4112 
Q 3647 3475 3647 2328 
Q 3647 1184 3222 546 
Q 2797 -91 2034 -91 
z
" transform="scale(0.015625)"/>
        <path id="DejaVuSerif-2e" d="M 603 325 
Q 603 500 722 622 
Q 841 744 1019 744 
Q 1191 744 1312 622 
Q 1434 500 1434 325 
Q 1434 153 1312 31 
Q 1191 -91 1019 -91 
Q 841 -91 722 29 
Q 603 150 603 325 
z
" transform="scale(0.015625)"/>
        <path id="DejaVuSerif-32" d="M 819 3553 
L 469 3553 
L 469 4384 
Q 803 4563 1142 4656 
Q 1481 4750 1806 4750 
Q 2534 4750 2956 4397 
Q 3378 4044 3378 3438 
Q 3378 2753 2422 1800 
Q 2347 1728 2309 1691 
L 1131 513 
L 3078 513 
L 3078 1088 
L 3444 1088 
L 3444 0 
L 434 0 
L 434 341 
L 1850 1753 
Q 2319 2222 2519 2614 
Q 2719 3006 2719 3438 
Q 2719 3909 2473 4175 
Q 2228 4441 1797 4441 
Q 1350 4441 1106 4219 
Q 863 3997 819 3553 
z
" transform="scale(0.015625)"/>
       </defs>
       <use xlink:href="#DejaVuSerif-2212"/>
       <use xlink:href="#DejaVuSerif-30" x="83.789062"/>
       <use xlink:href="#DejaVuSerif-2e" x="147.412109"/>
       <use xlink:href="#DejaVuSerif-32" x="179.199219"/>
      </g>
     </g>
    </g>
    <g id="ytick_2">
     <g id="line2d_21">
      <path d="M 44.688 43.064587 
L 377.81928 43.064587 
" clip-path="url(#p7276dbdbd8)" style="fill: none; stroke: #b0b0b0; stroke-width: 0.1; stroke-linecap: round"/>
     </g>
     <g id="line2d_22"/>
     <g id="text_2">
      <!-- 0.0 -->
      <g style="fill: #262626" transform="translate(30.055813 45.72404) scale(0.07 -0.07)">
       <use xlink:href="#DejaVuSerif-30"/>
       <use xlink:href="#DejaVuSerif-2e" x="63.623047"/>
       <use xlink:href="#DejaVuSerif-30" x="95.410156"/>
      </g>
     </g>
    </g>
    <g id="ytick_3">
     <g id="line2d_23">
      <path d="M 44.688 26.415675 
L 377.81928 26.415675 
" clip-path="url(#p7276dbdbd8)" style="fill: none; stroke: #b0b0b0; stroke-width: 0.1; stroke-linecap: round"/>
     </g>
     <g id="line2d_24"/>
     <g id="text_3">
      <!-- 0.2 -->
      <g style="fill: #262626" transform="translate(30.055813 29.075128) scale(0.07 -0.07)">
       <use xlink:href="#DejaVuSerif-30"/>
       <use xlink:href="#DejaVuSerif-2e" x="63.623047"/>
       <use xlink:href="#DejaVuSerif-32" x="95.410156"/>
      </g>
     </g>
    </g>
    <g id="text_4">
     <!-- $\beta-\beta^A$ [deg] -->
     <g style="fill: #262626" transform="translate(18.810031 53.46875) rotate(-90) scale(0.06 -0.06)">
      <defs>
       <path id="DejaVuSans-Oblique-3b2" d="M 872 216 
L 572 -1331 
L -6 -1331 
L 928 3478 
Q 1206 4903 2538 4903 
Q 3888 4903 3659 3700 
Q 3503 2844 2894 2531 
Q 3713 2250 3553 1416 
Q 3272 -69 1759 -66 
Q 1097 -63 872 216 
z
M 1019 966 
Q 1259 422 1875 425 
Q 2775 425 2966 1406 
Q 3138 2288 1675 2219 
L 1778 2750 
Q 2909 2731 3106 3750 
Q 3241 4438 2509 4434 
Q 1691 4434 1503 3459 
L 1019 966 
z
" transform="scale(0.015625)"/>
       <path id="DejaVuSans-2212" d="M 678 2272 
L 4684 2272 
L 4684 1741 
L 678 1741 
L 678 2272 
z
" transform="scale(0.015625)"/>
       <path id="DejaVuSans-Oblique-41" d="M 2356 4666 
L 3072 4666 
L 3938 0 
L 3278 0 
L 3084 1197 
L 984 1197 
L 325 0 
L -341 0 
L 2356 4666 
z
M 2584 4044 
L 1275 1722 
L 2988 1722 
L 2584 4044 
z
" transform="scale(0.015625)"/>
       <path id="DejaVuSerif-20" transform="scale(0.015625)"/>
       <path id="DejaVuSerif-5b" d="M 550 4863 
L 2003 4863 
L 2003 4531 
L 1147 4531 
L 1147 -513 
L 2003 -513 
L 2003 -844 
L 550 -844 
L 550 4863 
z
" transform="scale(0.015625)"/>
       <path id="DejaVuSerif-64" d="M 3359 331 
L 3909 331 
L 3909 0 
L 2784 0 
L 2784 519 
Q 2616 206 2355 57 
Q 2094 -91 1709 -91 
Q 1097 -91 708 395 
Q 319 881 319 1663 
Q 319 2444 706 2928 
Q 1094 3413 1709 3413 
Q 2094 3413 2355 3264 
Q 2616 3116 2784 2803 
L 2784 4531 
L 2241 4531 
L 2241 4863 
L 3359 4863 
L 3359 331 
z
M 2784 1497 
L 2784 1825 
Q 2784 2422 2554 2737 
Q 2325 3053 1888 3053 
Q 1444 3053 1217 2703 
Q 991 2353 991 1663 
Q 991 975 1217 622 
Q 1444 269 1888 269 
Q 2325 269 2554 583 
Q 2784 897 2784 1497 
z
" transform="scale(0.015625)"/>
       <path id="DejaVuSerif-65" d="M 3469 1600 
L 991 1600 
L 991 1575 
Q 991 903 1244 561 
Q 1497 219 1991 219 
Q 2369 219 2611 417 
Q 2853 616 2950 1006 
L 3413 1006 
Q 3275 459 2904 184 
Q 2534 -91 1931 -91 
Q 1203 -91 761 389 
Q 319 869 319 1663 
Q 319 2450 753 2931 
Q 1188 3413 1894 3413 
Q 2647 3413 3050 2948 
Q 3453 2484 3469 1600 
z
M 2791 1931 
Q 2772 2513 2545 2808 
Q 2319 3103 1894 3103 
Q 1497 3103 1269 2806 
Q 1041 2509 991 1931 
L 2791 1931 
z
" transform="scale(0.015625)"/>
       <path id="DejaVuSerif-67" d="M 3359 2988 
L 3359 72 
Q 3359 -644 2965 -1033 
Q 2572 -1422 1844 -1422 
Q 1516 -1422 1216 -1362 
Q 916 -1303 641 -1184 
L 641 -488 
L 941 -488 
Q 997 -813 1206 -963 
Q 1416 -1113 1806 -1113 
Q 2313 -1113 2548 -827 
Q 2784 -541 2784 72 
L 2784 519 
Q 2616 206 2355 57 
Q 2094 -91 1709 -91 
Q 1097 -91 708 395 
Q 319 881 319 1663 
Q 319 2444 706 2928 
Q 1094 3413 1709 3413 
Q 2094 3413 2355 3264 
Q 2616 3116 2784 2803 
L 2784 3322 
L 3909 3322 
L 3909 2988 
L 3359 2988 
z
M 2784 1825 
Q 2784 2422 2554 2737 
Q 2325 3053 1888 3053 
Q 1444 3053 1217 2703 
Q 991 2353 991 1663 
Q 991 975 1217 622 
Q 1444 269 1888 269 
Q 2325 269 2554 583 
Q 2784 897 2784 1497 
L 2784 1825 
z
" transform="scale(0.015625)"/>
       <path id="DejaVuSerif-5d" d="M 1947 4863 
L 1947 -844 
L 494 -844 
L 494 -513 
L 1350 -513 
L 1350 4531 
L 494 4531 
L 494 4863 
L 1947 4863 
z
" transform="scale(0.015625)"/>
      </defs>
      <use xlink:href="#DejaVuSans-Oblique-3b2" transform="translate(0 0.684375)"/>
      <use xlink:href="#DejaVuSans-2212" transform="translate(83.300781 0.684375)"/>
      <use xlink:href="#DejaVuSans-Oblique-3b2" transform="translate(186.572266 0.684375)"/>
      <use xlink:href="#DejaVuSans-Oblique-41" transform="translate(257.925833 38.965625) scale(0.7)"/>
      <use xlink:href="#DejaVuSerif-20" transform="translate(308.545951 0.684375)"/>
      <use xlink:href="#DejaVuSerif-5b" transform="translate(340.33306 0.684375)"/>
      <use xlink:href="#DejaVuSerif-64" transform="translate(379.346732 0.684375)"/>
      <use xlink:href="#DejaVuSerif-65" transform="translate(443.360404 0.684375)"/>
      <use xlink:href="#DejaVuSerif-67" transform="translate(502.540091 0.684375)"/>
      <use xlink:href="#DejaVuSerif-5d" transform="translate(566.553763 0.684375)"/>
     </g>
    </g>
   </g>
   <g id="line2d_25">
    <path d="M 59.830331 43.064587 
L 362.676949 43.064587 
L 362.676949 43.064587 
" clip-path="url(#p7276dbdbd8)" style="fill: none; stroke: #2a2eec; stroke-width: 0.4; stroke-linecap: round"/>
   </g>
   <g id="line2d_26">
    <path d="M 59.830331 43.064587 
L 61.26889 42.490603 
L 63.08591 42.03257 
L 65.811597 41.615849 
L 71.187057 40.823419 
L 76.486896 40.119599 
L 84.739527 40.070772 
L 85.723695 39.968633 
L 90.796414 39.849832 
L 92.537972 39.736053 
L 94.052076 39.530874 
L 95.18766 39.212993 
L 96.399039 38.918664 
L 99.503452 37.987355 
L 100.639119 37.61004 
L 102.68313 37.171212 
L 104.42449 37.228145 
L 106.090184 37.442209 
L 107.301518 37.477219 
L 108.05865 37.472386 
L 109.042901 37.386807 
L 111.314342 37.455242 
L 113.358557 37.375761 
L 115.478392 36.998359 
L 118.355428 36.277058 
L 119.415391 36.001469 
L 120.551081 35.587286 
L 122.141071 35.61586 
L 124.791017 36.017756 
L 125.850905 35.816851 
L 127.213677 35.592877 
L 130.92379 34.98799 
L 133.497896 35.056629 
L 134.784858 35.267617 
L 136.374787 35.660954 
L 137.737718 35.792454 
L 139.024794 35.665281 
L 140.084802 35.66886 
L 140.993206 35.921297 
L 144.627373 37.507884 
L 145.914509 38.223492 
L 147.958769 38.63045 
L 149.548684 38.912193 
L 150.381489 39.18489 
L 153.712757 40.824932 
L 155.075582 41.531986 
L 156.589792 41.874883 
L 160.223975 41.199276 
L 162.94961 39.866908 
L 163.706764 39.682619 
L 166.432331 39.428756 
L 167.870898 39.299106 
L 169.460911 39.304701 
L 170.899334 38.895621 
L 172.716451 38.225719 
L 175.36639 37.205239 
L 176.274846 36.995534 
L 178.546469 36.669965 
L 180.741887 36.586659 
L 181.80185 36.714987 
L 184.905975 37.512222 
L 187.934487 38.411261 
L 189.675817 38.547441 
L 190.735977 38.459011 
L 192.855699 37.969108 
L 195.051322 37.853454 
L 197.171317 37.989126 
L 198.306931 38.2597 
L 200.426979 39.258952 
L 202.319755 40.469219 
L 205.196715 42.037423 
L 207.998046 43.063705 
L 209.739422 43.198075 
L 212.162225 42.938496 
L 213.297976 42.658499 
L 214.58493 42.383386 
L 215.947801 42.026476 
L 217.992061 41.313133 
L 219.203417 40.805838 
L 221.247692 40.141982 
L 224.427506 39.309199 
L 225.487439 39.292238 
L 226.471714 39.188436 
L 229.045865 38.556383 
L 231.165814 37.755199 
L 235.481409 36.249596 
L 236.617038 36.178451 
L 237.979878 36.378568 
L 241.008375 37.362046 
L 242.0683 37.701565 
L 244.718246 38.644034 
L 246.156684 39.378205 
L 247.898052 39.785144 
L 249.03375 39.739006 
L 249.866593 39.404867 
L 253.197921 37.512098 
L 254.258104 37.285955 
L 255.242378 37.41906 
L 256.680877 38.105044 
L 257.816416 38.670861 
L 258.649176 39.041974 
L 260.011993 39.673724 
L 262.51044 40.877619 
L 264.630344 41.475963 
L 265.614671 41.568429 
L 267.431706 41.49345 
L 268.340215 41.256289 
L 270.460142 41.018053 
L 272.655969 40.804144 
L 274.397155 40.523765 
L 275.684292 40.648139 
L 277.955603 40.906289 
L 280.302665 41.655173 
L 281.589793 41.925191 
L 282.498394 42.123079 
L 285.375369 42.405371 
L 289.388109 41.314287 
L 290.9781 41.550787 
L 292.189403 41.695065 
L 293.627917 42.186513 
L 294.309443 42.520629 
L 298.549288 44.035749 
L 300.214884 44.364604 
L 301.047667 44.264749 
L 302.107638 43.944551 
L 302.864792 43.710674 
L 303.773286 43.441226 
L 305.666055 42.606259 
L 306.574671 42.454396 
L 309.830227 42.46293 
L 310.663032 42.375585 
L 311.420179 42.42064 
L 312.480165 42.519621 
L 314.145981 42.261407 
L 314.97868 42.687153 
L 320.2028 45.902138 
L 324.29129 48.873219 
L 326.259732 50.75312 
L 328.001085 52.600758 
L 329.515296 54.708654 
L 329.818218 54.820921 
L 330.196807 54.586093 
L 330.499562 54.215263 
L 331.029544 53.458709 
L 332.165211 52.434162 
L 332.846586 52.022652 
L 334.2851 51.112897 
L 336.632154 48.864094 
L 337.540679 48.354599 
L 338.146379 48.044548 
L 338.676459 47.926591 
L 340.114875 48.340531 
L 341.174861 48.805977 
L 341.704873 49.012485 
L 344.20332 49.883537 
L 345.187654 49.839513 
L 347.458891 49.920045 
L 348.746004 50.131172 
L 350.487387 50.603585 
L 351.395882 50.935428 
L 351.925871 51.151908 
L 352.45586 51.304665 
L 353.137318 51.383567 
L 353.742981 51.335892 
L 355.484379 51.614609 
L 358.209961 51.704702 
L 361.162693 52.178861 
L 362.071301 52.618976 
L 362.676949 52.997276 
L 362.676949 52.997276 
" clip-path="url(#p7276dbdbd8)" style="fill: none; stroke: #fa7c17; stroke-width: 0.4; stroke-linecap: round"/>
   </g>
   <g id="line2d_27">
    <path d="M 59.830331 43.064587 
L 60.814575 44.779753 
L 61.723206 45.954449 
L 62.631662 46.769665 
L 63.616171 47.339069 
L 64.600188 47.656514 
L 65.508728 47.737287 
L 67.250179 47.554333 
L 73.534429 46.738873 
L 75.881445 46.746587 
L 76.638319 46.630635 
L 78.30396 46.261338 
L 81.256761 45.535759 
L 83.603784 44.72787 
L 84.663747 44.384863 
L 86.026542 43.914352 
L 87.465192 43.468681 
L 88.525163 43.266517 
L 92.159194 42.865006 
L 94.279105 42.436515 
L 100.563173 41.692606 
L 101.850324 41.574236 
L 102.834538 41.555889 
L 105.560173 41.849029 
L 106.771559 41.784427 
L 110.405787 41.711282 
L 112.752773 41.914132 
L 113.737016 41.866699 
L 116.614143 41.178602 
L 118.809788 40.584039 
L 119.642511 40.355055 
L 120.626793 40.045121 
L 121.384008 39.930694 
L 123.276701 39.626293 
L 124.109612 39.67454 
L 124.639548 39.654102 
L 127.516523 39.272256 
L 129.182248 39.010256 
L 129.939364 38.941326 
L 134.254876 40.480931 
L 135.844821 41.573946 
L 137.283357 42.396981 
L 138.2677 42.718629 
L 139.176149 42.765332 
L 140.538921 42.577387 
L 142.431803 42.423308 
L 143.340404 42.573672 
L 144.248785 42.959 
L 145.460239 43.666282 
L 145.838744 43.489239 
L 146.595891 42.996304 
L 148.412994 42.235203 
L 149.3972 42.06131 
L 150.533004 42.16395 
L 151.744375 42.596773 
L 152.501469 43.017724 
L 155.302838 44.541432 
L 156.817071 44.72023 
L 158.104041 44.629822 
L 159.542585 44.347782 
L 160.072597 44.341574 
L 161.662527 44.602737 
L 163.782483 45.177263 
L 164.766727 45.366592 
L 165.523776 45.497237 
L 167.946746 45.967845 
L 169.460911 46.090179 
L 171.656428 45.782952 
L 172.943821 45.556139 
L 173.700718 45.364017 
L 175.063543 44.990252 
L 176.501959 44.821547 
L 177.865003 45.059073 
L 179.303479 45.777303 
L 180.893326 46.991997 
L 182.861738 48.745171 
L 183.921784 49.509891 
L 186.95019 51.403138 
L 187.934487 51.772191 
L 189.524402 52.137862 
L 191.265755 52.119972 
L 192.401437 51.932905 
L 193.309962 51.83523 
L 196.262845 51.793365 
L 198.231227 52.217727 
L 199.972595 52.971097 
L 205.121049 55.976863 
L 206.33239 56.523397 
L 207.46805 56.893493 
L 209.512302 57.33657 
L 211.70794 57.231437 
L 213.07075 57.062758 
L 214.43359 56.79085 
L 215.947801 56.338698 
L 216.931984 56.101792 
L 217.916266 55.900575 
L 222.610593 54.617798 
L 224.048925 54.63835 
L 227.834607 54.6315 
L 233.815782 53.085506 
L 235.405644 53.234779 
L 237.979878 54.001862 
L 239.418453 54.279384 
L 241.765431 54.711889 
L 243.12843 55.152443 
L 244.566974 55.675871 
L 245.39959 55.99308 
L 246.081192 56.106907 
L 246.686787 56.063339 
L 247.216822 55.923957 
L 248.428049 55.371092 
L 250.320833 54.06936 
L 251.683696 53.282618 
L 252.819333 53.127766 
L 254.030735 53.369138 
L 258.421988 54.513269 
L 259.254839 54.947436 
L 262.51044 56.672279 
L 266.068873 57.540291 
L 267.204533 57.496622 
L 269.324573 56.991337 
L 274.094294 55.656703 
L 277.728559 54.905277 
L 279.696964 55.262631 
L 281.211197 55.46145 
L 282.498394 55.382944 
L 283.861173 54.827541 
L 286.738194 52.917321 
L 287.495303 52.434948 
L 288.100966 52.196589 
L 289.009513 52.037033 
L 291.432301 51.691413 
L 292.340917 51.24111 
L 293.627917 50.700765 
L 294.990886 50.514749 
L 296.126583 50.392249 
L 296.807867 50.305947 
L 297.867747 50.355393 
L 298.70059 50.342853 
L 300.290656 50.020508 
L 301.199151 49.616223 
L 302.486203 48.668464 
L 304.833439 46.502514 
L 306.19615 45.711153 
L 306.877464 45.567553 
L 308.997368 45.695158 
L 310.28461 45.877533 
L 312.328674 45.706114 
L 312.783034 45.252683 
L 313.312986 44.376185 
L 314.827196 41.522509 
L 316.719972 38.239186 
L 318.158502 36.124251 
L 320.884129 32.780992 
L 323.079774 30.025997 
L 324.669666 27.702679 
L 325.805606 25.86746 
L 328.001085 23.188022 
L 328.379644 23.321676 
L 328.682475 23.561741 
L 329.136677 24.325106 
L 329.969513 25.636617 
L 330.650933 26.269185 
L 332.46802 27.449873 
L 333.376537 27.710378 
L 334.815074 27.390943 
L 336.783744 25.971534 
L 337.46505 25.891029 
L 339.357773 25.552982 
L 340.417767 25.695286 
L 341.174861 25.524176 
L 343.446233 24.045727 
L 344.733278 22.675686 
L 347.913236 18.47476 
L 351.017354 15.885442 
L 351.623024 15.616186 
L 352.531587 15.256183 
L 353.591876 14.661012 
L 354.272978 14.449624 
L 354.651521 14.316334 
L 355.408615 13.850504 
L 356.392904 13.562358 
L 358.739943 13.344124 
L 359.269924 13.387312 
L 360.102745 13.399725 
L 360.708446 13.258222 
L 361.238473 13.104069 
L 361.919961 13.02888 
L 362.676949 13.055513 
L 362.676949 13.055513 
" clip-path="url(#p7276dbdbd8)" style="fill: none; stroke: #328c06; stroke-width: 0.4; stroke-linecap: round"/>
   </g>
   <g id="patch_3">
    <path d="M 44.688 59.7775 
L 44.688 10.8 
" style="fill: none; stroke: #000000; stroke-linejoin: miter; stroke-linecap: square"/>
   </g>
   <g id="patch_4">
    <path d="M 44.688 59.7775 
L 377.81928 59.7775 
" style="fill: none; stroke: #000000; stroke-linejoin: miter; stroke-linecap: square"/>
   </g>
   <g id="legend_1">
    <g id="line2d_28">
     <path d="M 346.563186 19.968906 
L 353.563186 19.968906 
L 360.563186 19.968906 
" style="fill: none; stroke: #2a2eec; stroke-width: 0.4; stroke-linecap: round"/>
    </g>
    <g id="text_5">
     <!-- A -->
     <g style="fill: #262626" transform="translate(366.163186 22.418906) scale(0.07 -0.07)">
      <defs>
       <path id="DejaVuSerif-41" d="M 1281 1691 
L 2994 1691 
L 2138 3909 
L 1281 1691 
z
M -38 0 
L -38 331 
L 372 331 
L 2034 4666 
L 2559 4666 
L 4225 331 
L 4684 331 
L 4684 0 
L 2988 0 
L 2988 331 
L 3506 331 
L 3116 1356 
L 1153 1356 
L 763 331 
L 1275 331 
L 1275 0 
L -38 0 
z
" transform="scale(0.015625)"/>
      </defs>
      <use xlink:href="#DejaVuSerif-41"/>
     </g>
    </g>
    <g id="line2d_29">
     <path d="M 346.563186 30.243594 
L 353.563186 30.243594 
L 360.563186 30.243594 
" style="fill: none; stroke: #fa7c17; stroke-width: 0.4; stroke-linecap: round"/>
    </g>
    <g id="text_6">
     <!-- B -->
     <g style="fill: #262626" transform="translate(366.163186 32.693594) scale(0.07 -0.07)">
      <defs>
       <path id="DejaVuSerif-42" d="M 1581 331 
L 2516 331 
Q 3078 331 3337 575 
Q 3597 819 3597 1350 
Q 3597 1878 3339 2120 
Q 3081 2363 2516 2363 
L 1581 2363 
L 1581 331 
z
M 1581 2694 
L 2375 2694 
Q 2888 2694 3123 2891 
Q 3359 3088 3359 3513 
Q 3359 3941 3123 4136 
Q 2888 4331 2375 4331 
L 1581 4331 
L 1581 2694 
z
M 353 0 
L 353 331 
L 947 331 
L 947 4331 
L 353 4331 
L 353 4666 
L 2656 4666 
Q 3363 4666 3720 4377 
Q 4078 4088 4078 3513 
Q 4078 3097 3829 2850 
Q 3581 2603 3103 2547 
Q 3697 2472 4005 2167 
Q 4313 1863 4313 1350 
Q 4313 656 3875 328 
Q 3438 0 2509 0 
L 353 0 
z
" transform="scale(0.015625)"/>
      </defs>
      <use xlink:href="#DejaVuSerif-42"/>
     </g>
    </g>
    <g id="line2d_30">
     <path d="M 346.563186 40.518281 
L 353.563186 40.518281 
L 360.563186 40.518281 
" style="fill: none; stroke: #328c06; stroke-width: 0.4; stroke-linecap: round"/>
    </g>
    <g id="text_7">
     <!-- C -->
     <g style="fill: #262626" transform="translate(366.163186 42.968281) scale(0.07 -0.07)">
      <defs>
       <path id="DejaVuSerif-43" d="M 4513 1234 
Q 4306 581 3820 245 
Q 3334 -91 2591 -91 
Q 2134 -91 1743 65 
Q 1353 222 1050 525 
Q 700 875 529 1320 
Q 359 1766 359 2328 
Q 359 3416 987 4083 
Q 1616 4750 2644 4750 
Q 3025 4750 3456 4650 
Q 3888 4550 4384 4347 
L 4384 3272 
L 4031 3272 
Q 3916 3859 3567 4137 
Q 3219 4416 2591 4416 
Q 1844 4416 1459 3886 
Q 1075 3356 1075 2328 
Q 1075 1303 1459 773 
Q 1844 244 2591 244 
Q 3113 244 3450 492 
Q 3788 741 3938 1234 
L 4513 1234 
z
" transform="scale(0.015625)"/>
      </defs>
      <use xlink:href="#DejaVuSerif-43"/>
     </g>
    </g>
   </g>
  </g>
  <g id="axes_2">
   <g id="patch_5">
    <path d="M 44.688 123.570302 
L 377.81928 123.570302 
L 377.81928 74.592802 
L 44.688 74.592802 
z
" style="fill: #ffffff"/>
   </g>
   <g id="matplotlib.axis_3">
    <g id="xtick_10">
     <g id="line2d_31">
      <path d="M 59.830331 123.570302 
L 59.830331 74.592802 
" clip-path="url(#pdf84a324ec)" style="fill: none; stroke: #b0b0b0; stroke-width: 0.1; stroke-linecap: round"/>
     </g>
     <g id="line2d_32"/>
    </g>
    <g id="xtick_11">
     <g id="line2d_33">
      <path d="M 97.68616 123.570302 
L 97.68616 74.592802 
" clip-path="url(#pdf84a324ec)" style="fill: none; stroke: #b0b0b0; stroke-width: 0.1; stroke-linecap: round"/>
     </g>
     <g id="line2d_34"/>
    </g>
    <g id="xtick_12">
     <g id="line2d_35">
      <path d="M 135.541989 123.570302 
L 135.541989 74.592802 
" clip-path="url(#pdf84a324ec)" style="fill: none; stroke: #b0b0b0; stroke-width: 0.1; stroke-linecap: round"/>
     </g>
     <g id="line2d_36"/>
    </g>
    <g id="xtick_13">
     <g id="line2d_37">
      <path d="M 173.397818 123.570302 
L 173.397818 74.592802 
" clip-path="url(#pdf84a324ec)" style="fill: none; stroke: #b0b0b0; stroke-width: 0.1; stroke-linecap: round"/>
     </g>
     <g id="line2d_38"/>
    </g>
    <g id="xtick_14">
     <g id="line2d_39">
      <path d="M 211.253648 123.570302 
L 211.253648 74.592802 
" clip-path="url(#pdf84a324ec)" style="fill: none; stroke: #b0b0b0; stroke-width: 0.1; stroke-linecap: round"/>
     </g>
     <g id="line2d_40"/>
    </g>
    <g id="xtick_15">
     <g id="line2d_41">
      <path d="M 249.109477 123.570302 
L 249.109477 74.592802 
" clip-path="url(#pdf84a324ec)" style="fill: none; stroke: #b0b0b0; stroke-width: 0.1; stroke-linecap: round"/>
     </g>
     <g id="line2d_42"/>
    </g>
    <g id="xtick_16">
     <g id="line2d_43">
      <path d="M 286.965306 123.570302 
L 286.965306 74.592802 
" clip-path="url(#pdf84a324ec)" style="fill: none; stroke: #b0b0b0; stroke-width: 0.1; stroke-linecap: round"/>
     </g>
     <g id="line2d_44"/>
    </g>
    <g id="xtick_17">
     <g id="line2d_45">
      <path d="M 324.821135 123.570302 
L 324.821135 74.592802 
" clip-path="url(#pdf84a324ec)" style="fill: none; stroke: #b0b0b0; stroke-width: 0.1; stroke-linecap: round"/>
     </g>
     <g id="line2d_46"/>
    </g>
    <g id="xtick_18">
     <g id="line2d_47">
      <path d="M 362.676964 123.570302 
L 362.676964 74.592802 
" clip-path="url(#pdf84a324ec)" style="fill: none; stroke: #b0b0b0; stroke-width: 0.1; stroke-linecap: round"/>
     </g>
     <g id="line2d_48"/>
    </g>
   </g>
   <g id="matplotlib.axis_4">
    <g id="ytick_4">
     <g id="line2d_49">
      <path d="M 44.688 113.963527 
L 377.81928 113.963527 
" clip-path="url(#pdf84a324ec)" style="fill: none; stroke: #b0b0b0; stroke-width: 0.1; stroke-linecap: round"/>
     </g>
     <g id="line2d_50"/>
     <g id="text_8">
      <!-- −2.5 -->
      <g style="fill: #262626" transform="translate(24.190031 116.62298) scale(0.07 -0.07)">
       <defs>
        <path id="DejaVuSerif-35" d="M 3219 4666 
L 3219 4153 
L 1081 4153 
L 1081 2816 
Q 1244 2928 1461 2984 
Q 1678 3041 1947 3041 
Q 2703 3041 3140 2622 
Q 3578 2203 3578 1478 
Q 3578 738 3136 323 
Q 2694 -91 1894 -91 
Q 1572 -91 1234 -12 
Q 897 66 544 225 
L 544 1131 
L 897 1131 
Q 925 688 1179 453 
Q 1434 219 1894 219 
Q 2388 219 2653 544 
Q 2919 869 2919 1478 
Q 2919 2084 2655 2407 
Q 2391 2731 1894 2731 
Q 1613 2731 1398 2631 
Q 1184 2531 1019 2322 
L 750 2322 
L 750 4666 
L 3219 4666 
z
" transform="scale(0.015625)"/>
       </defs>
       <use xlink:href="#DejaVuSerif-2212"/>
       <use xlink:href="#DejaVuSerif-32" x="83.789062"/>
       <use xlink:href="#DejaVuSerif-2e" x="147.412109"/>
       <use xlink:href="#DejaVuSerif-35" x="179.199219"/>
      </g>
     </g>
    </g>
    <g id="ytick_5">
     <g id="line2d_51">
      <path d="M 44.688 99.06667 
L 377.81928 99.06667 
" clip-path="url(#pdf84a324ec)" style="fill: none; stroke: #b0b0b0; stroke-width: 0.1; stroke-linecap: round"/>
     </g>
     <g id="line2d_52"/>
     <g id="text_9">
      <!-- 0.0 -->
      <g style="fill: #262626" transform="translate(30.055813 101.726123) scale(0.07 -0.07)">
       <use xlink:href="#DejaVuSerif-30"/>
       <use xlink:href="#DejaVuSerif-2e" x="63.623047"/>
       <use xlink:href="#DejaVuSerif-30" x="95.410156"/>
      </g>
     </g>
    </g>
    <g id="ytick_6">
     <g id="line2d_53">
      <path d="M 44.688 84.169813 
L 377.81928 84.169813 
" clip-path="url(#pdf84a324ec)" style="fill: none; stroke: #b0b0b0; stroke-width: 0.1; stroke-linecap: round"/>
     </g>
     <g id="line2d_54"/>
     <g id="text_10">
      <!-- 2.5 -->
      <g style="fill: #262626" transform="translate(30.055813 86.829266) scale(0.07 -0.07)">
       <use xlink:href="#DejaVuSerif-32"/>
       <use xlink:href="#DejaVuSerif-2e" x="63.623047"/>
       <use xlink:href="#DejaVuSerif-35" x="95.410156"/>
      </g>
     </g>
    </g>
    <g id="text_11">
     <!-- $\delta-\delta^A$ [deg] -->
     <g style="fill: #262626" transform="translate(18.810031 117.081552) rotate(-90) scale(0.06 -0.06)">
      <defs>
       <path id="DejaVuSans-Oblique-3b4" d="M 3472 4053 
Q 3197 4272 2450 4272 
Q 1659 4272 1588 3906 
Q 1531 3619 2328 3469 
Q 2953 3353 3253 3003 
Q 3616 2581 3447 1716 
Q 3284 888 2763 400 
Q 2238 -91 1488 -91 
Q 741 -91 406 400 
Q 72 888 241 1747 
Q 363 2384 891 2900 
Q 1097 3100 1353 3213 
Q 913 3459 1000 3900 
Q 1166 4750 2544 4750 
Q 3234 4750 3566 4531 
L 3472 4053 
z
M 1753 3056 
Q 1525 2966 1306 2738 
Q 969 2384 847 1747 
Q 722 1113 919 756 
Q 1119 397 1584 397 
Q 2044 397 2381 759 
Q 2722 1122 2838 1716 
Q 2956 2338 2731 2638 
Q 2491 2959 2103 2994 
Q 1906 3013 1753 3056 
z
" transform="scale(0.015625)"/>
      </defs>
      <use xlink:href="#DejaVuSans-Oblique-3b4" transform="translate(0 0.684375)"/>
      <use xlink:href="#DejaVuSans-2212" transform="translate(80.664062 0.684375)"/>
      <use xlink:href="#DejaVuSans-Oblique-3b4" transform="translate(183.935547 0.684375)"/>
      <use xlink:href="#DejaVuSans-Oblique-41" transform="translate(252.317708 38.965625) scale(0.7)"/>
      <use xlink:href="#DejaVuSerif-20" transform="translate(302.937826 0.684375)"/>
      <use xlink:href="#DejaVuSerif-5b" transform="translate(334.724935 0.684375)"/>
      <use xlink:href="#DejaVuSerif-64" transform="translate(373.738607 0.684375)"/>
      <use xlink:href="#DejaVuSerif-65" transform="translate(437.752279 0.684375)"/>
      <use xlink:href="#DejaVuSerif-67" transform="translate(496.931966 0.684375)"/>
      <use xlink:href="#DejaVuSerif-5d" transform="translate(560.945638 0.684375)"/>
     </g>
    </g>
   </g>
   <g id="line2d_55">
    <path d="M 59.830331 99.06667 
L 362.676949 99.06667 
L 362.676949 99.06667 
" clip-path="url(#pdf84a324ec)" style="fill: none; stroke: #2a2eec; stroke-width: 0.4; stroke-linecap: round"/>
   </g>
   <g id="line2d_56">
    <path d="M 59.830331 99.06667 
L 61.571669 99.059678 
L 62.555928 99.073663 
L 63.767352 99.068998 
L 66.190201 99.044516 
L 66.341541 99.041486 
L 66.492987 99.047581 
L 66.871553 99.060668 
L 67.098605 99.08054 
L 67.704328 99.068996 
L 68.082879 99.034456 
L 87.313655 99.06667 
L 89.055243 99.066687 
L 92.689198 99.069002 
L 96.323517 99.06431 
L 99.88176 99.066669 
L 103.288815 99.069006 
L 104.348771 99.068998 
L 105.560173 99.06433 
L 109.118598 99.069002 
L 110.027168 99.064336 
L 113.585631 99.068994 
L 114.796995 99.066662 
L 129.712245 99.066041 
L 129.787933 98.550866 
L 130.015235 95.136027 
L 130.166484 95.58782 
L 130.242173 95.537789 
L 130.393581 95.806286 
L 130.545065 95.623149 
L 130.696436 95.623331 
L 130.847904 95.781836 
L 131.075001 95.619354 
L 131.302167 95.636551 
L 131.453651 95.697367 
L 131.604968 95.500791 
L 131.756437 95.761158 
L 131.832194 95.720662 
L 131.983579 95.646685 
L 132.362062 95.737944 
L 132.513538 95.574602 
L 132.740688 95.619099 
L 132.816385 95.570556 
L 132.967884 95.731391 
L 133.119193 95.561622 
L 133.194913 95.651186 
L 133.270814 95.725801 
L 133.422033 95.555052 
L 133.649236 95.712762 
L 133.800606 95.631103 
L 133.952037 95.711982 
L 134.10346 95.589253 
L 134.254876 95.70159 
L 134.406375 95.618567 
L 134.482034 95.728138 
L 134.557753 95.663922 
L 134.709153 95.585031 
L 134.860599 95.684185 
L 135.012083 95.60881 
L 135.23915 95.618116 
L 135.314945 95.578252 
L 135.466247 95.685734 
L 135.617678 95.55431 
L 135.769094 95.676408 
L 135.920563 95.567597 
L 136.14766 95.690058 
L 136.22344 95.591073 
L 136.299068 95.652982 
L 136.374787 95.763115 
L 136.526226 95.533677 
L 136.677634 95.736517 
L 136.904988 95.651977 
L 137.813316 95.649354 
L 137.964762 95.682718 
L 138.116216 95.635094 
L 138.2677 95.724178 
L 138.494804 95.601856 
L 138.570471 95.64733 
L 138.721871 95.576918 
L 138.873295 95.699005 
L 139.100642 95.598033 
L 139.25183 95.677828 
L 139.403284 95.677637 
L 139.479018 95.754014 
L 139.630411 95.625688 
L 139.781835 95.699354 
L 139.933296 95.621707 
L 140.16037 95.648663 
L 140.311846 95.595229 
L 140.463217 95.685619 
L 140.538921 95.571943 
L 140.614708 95.644085 
L 140.766056 95.645979 
L 140.993206 95.689811 
L 141.599157 95.690588 
L 141.674611 95.750669 
L 141.826163 95.569309 
L 141.977465 95.715095 
L 142.128941 95.585933 
L 142.356069 95.633178 
L 142.431803 95.595666 
L 142.583166 95.726747 
L 142.810445 95.65558 
L 142.885997 95.707406 
L 143.037527 95.599225 
L 143.188829 95.684806 
L 143.340404 95.572463 
L 143.567546 95.679128 
L 143.71881 95.561834 
L 143.870378 95.683254 
L 143.945961 95.600289 
L 144.097528 95.801673 
L 144.324564 95.637612 
L 144.627373 95.588032 
L 145.233293 95.595788 
L 145.384512 95.661174 
L 145.535996 95.675323 
L 145.61167 96.161461 
L 145.838744 99.351126 
L 146.368749 99.076 
L 147.125835 99.113304 
L 147.580143 99.04103 
L 148.337275 99.055006 
L 149.624358 99.045685 
L 151.592967 99.071318 
L 152.350099 99.050351 
L 153.107132 99.078322 
L 154.091436 99.059675 
L 155.075582 99.071333 
L 156.892662 99.066678 
L 158.785499 99.080659 
L 160.072597 99.057349 
L 160.602541 99.073664 
L 313.161585 99.066669 
L 313.237198 98.521059 
L 313.61584 92.181226 
L 314.221457 83.176272 
L 314.675856 76.819052 
L 314.827196 77.537049 
L 314.902908 77.209928 
L 315.054316 77.525069 
L 315.205762 77.328301 
L 315.281534 77.37912 
L 315.35717 77.25941 
L 315.432889 77.322342 
L 315.508578 77.464019 
L 315.660168 77.354611 
L 315.811478 77.492849 
L 315.887228 77.347667 
L 315.962848 77.429526 
L 316.038598 77.513887 
L 316.114317 77.435359 
L 316.341444 77.374174 
L 316.417126 77.481825 
L 316.492913 77.419023 
L 316.644276 77.397037 
L 316.719972 77.466556 
L 316.871366 77.317115 
L 317.022812 77.456661 
L 317.250068 77.440747 
L 317.855655 77.355045 
L 317.931382 77.509217 
L 318.007109 77.459927 
L 318.08282 77.302329 
L 318.234236 77.426231 
L 318.461378 77.416099 
L 318.68846 77.370837 
L 318.764187 77.337297 
L 318.915686 77.528139 
L 319.067057 77.386711 
L 319.218533 77.469815 
L 319.294176 77.298788 
L 319.369903 77.379034 
L 319.4456 77.532179 
L 319.521304 77.475421 
L 319.672712 77.375287 
L 320.2028 77.362073 
L 320.278428 77.289833 
L 320.429927 77.505113 
L 320.581282 77.314546 
L 320.73269 77.494078 
L 320.884129 77.417828 
L 321.035537 77.476096 
L 321.262884 77.360962 
L 321.414095 77.40846 
L 321.489822 77.306138 
L 321.565519 77.387537 
L 321.717063 77.452521 
L 321.868365 77.439348 
L 322.019925 77.419765 
L 322.171212 77.375901 
L 322.322643 77.471096 
L 322.474036 77.410252 
L 322.62552 77.441379 
L 322.776905 77.398148 
L 322.928336 77.457323 
L 323.079774 77.306433 
L 323.231168 77.475523 
L 323.382568 77.338223 
L 323.53412 77.398222 
L 323.761187 77.389042 
L 323.912572 77.415019 
L 324.063981 77.401198 
L 324.139753 77.517285 
L 324.215487 77.446659 
L 324.29129 77.289509 
L 324.366812 77.372603 
L 324.518288 77.411403 
L 326.562541 77.467725 
L 326.638306 77.486395 
L 326.789691 77.367606 
L 326.941062 77.434351 
L 327.168189 77.427042 
L 327.319612 77.371963 
L 327.471081 77.323012 
L 327.622527 77.453859 
L 327.774049 77.450094 
L 327.925298 77.39792 
L 328.001085 77.307788 
L 328.228152 77.447555 
L 328.379644 77.469479 
L 328.531021 77.457336 
L 328.682475 77.341213 
L 328.833838 77.417947 
L 328.985254 77.345807 
L 329.136677 79.227281 
L 330.499562 99.542095 
L 330.575448 99.40232 
L 331.408027 99.150627 
L 337.540679 99.069005 
L 339.206433 99.071345 
L 339.887906 99.064359 
L 341.023513 99.066678 
L 342.840638 99.064349 
L 343.976162 99.064345 
L 345.641818 99.068989 
L 347.3833 99.066675 
L 350.941763 99.06667 
L 354.575802 99.064337 
L 362.676949 99.071333 
L 362.676949 99.071333 
" clip-path="url(#pdf84a324ec)" style="fill: none; stroke: #fa7c17; stroke-width: 0.4; stroke-linecap: round"/>
   </g>
   <g id="line2d_57">
    <path d="M 59.830331 99.06667 
L 63.388764 99.066668 
L 64.827263 99.064336 
L 64.903042 99.491036 
L 64.978746 100.730721 
L 65.054572 100.374056 
L 65.130132 99.840631 
L 65.281631 100.494384 
L 65.432963 99.946462 
L 65.508728 100.523532 
L 65.584553 100.37147 
L 65.660106 99.960905 
L 65.811597 100.508488 
L 65.962983 100.041865 
L 66.038717 100.451808 
L 66.114436 100.320152 
L 66.190201 100.113067 
L 66.265799 100.225034 
L 66.64435 100.22739 
L 66.795788 100.211294 
L 66.871553 100.163023 
L 67.023044 100.328331 
L 67.174354 100.216306 
L 67.55292 100.255026 
L 67.704328 100.267931 
L 67.855721 100.154367 
L 68.007167 100.24027 
L 68.082879 100.114581 
L 68.15875 100.174519 
L 68.310006 100.226709 
L 68.461422 100.193036 
L 68.612868 100.22129 
L 69.748641 100.191007 
L 69.975776 100.21686 
L 70.354282 100.232054 
L 70.506023 100.219161 
L 70.581379 100.127817 
L 70.732817 100.251812 
L 70.884347 100.14515 
L 71.414351 100.241147 
L 71.565615 100.20652 
L 71.717167 100.241468 
L 71.868462 100.185299 
L 72.019953 100.200088 
L 72.247028 100.220735 
L 72.54992 100.195552 
L 72.701381 100.16556 
L 72.777176 100.123046 
L 72.92844 100.258601 
L 73.004159 100.179958 
L 73.155795 98.956958 
L 73.231294 98.999074 
L 73.534429 98.987425 
L 75.578424 99.066669 
L 77.319792 99.064336 
L 81.029694 99.071333 
L 82.240974 99.066648 
L 84.058062 99.069001 
L 87.768152 99.06201 
L 88.676488 99.06901 
L 92.386314 99.064319 
L 94.203568 99.07133 
L 97.913295 99.066682 
L 101.54744 99.069002 
L 105.257318 99.064337 
L 129.182248 99.059689 
L 129.258118 98.551877 
L 129.636457 92.082626 
L 130.015235 87.008322 
L 130.090712 87.424961 
L 130.166484 87.723258 
L 130.242173 87.574678 
L 130.393581 87.816548 
L 130.469376 87.683079 
L 130.772185 87.701639 
L 130.847904 87.870578 
L 131.075001 87.530861 
L 131.226478 87.687248 
L 131.377886 87.654112 
L 131.453651 87.723855 
L 131.604968 87.534874 
L 131.756437 87.810301 
L 131.832194 87.747048 
L 131.983579 87.652875 
L 132.134949 87.688072 
L 132.210661 87.581416 
L 132.286471 87.640818 
L 132.362062 87.786313 
L 132.589348 87.61162 
L 132.740688 87.753359 
L 132.892089 87.643313 
L 133.043482 87.723953 
L 133.194913 87.566612 
L 133.346313 87.747684 
L 133.497896 87.546484 
L 133.649236 87.818529 
L 133.800606 87.599836 
L 133.952037 87.818868 
L 134.10346 87.554951 
L 134.254876 87.794842 
L 134.406375 87.577485 
L 134.557753 87.715565 
L 134.709153 87.544236 
L 134.860599 87.72935 
L 134.936417 87.637455 
L 135.087681 87.637232 
L 135.163461 87.76154 
L 135.23915 87.699268 
L 135.390536 87.642372 
L 135.542012 87.674431 
L 135.693496 87.593636 
L 135.844821 87.693061 
L 135.996229 87.585456 
L 136.14766 87.721533 
L 136.299068 87.689609 
L 136.450552 87.755574 
L 136.602134 87.654099 
L 136.829148 87.703168 
L 136.904988 87.580913 
L 136.980511 87.659863 
L 137.131949 87.61351 
L 137.207684 87.568616 
L 137.359099 87.650301 
L 137.510462 87.597807 
L 138.040519 87.724889 
L 138.116216 87.573271 
L 138.191935 87.657433 
L 138.2677 87.726252 
L 138.494804 87.562054 
L 138.646145 87.650397 
L 138.797848 87.610395 
L 138.949052 87.706271 
L 139.100642 87.620228 
L 139.25183 87.732255 
L 139.403284 87.60915 
L 139.554737 87.723703 
L 139.706267 87.641514 
L 139.857554 87.715931 
L 140.009076 87.618515 
L 140.16037 87.750146 
L 140.311846 87.575698 
L 140.463217 87.750126 
L 140.614708 87.603679 
L 140.766056 87.683628 
L 140.993206 87.623108 
L 141.068918 87.74932 
L 141.144735 87.693637 
L 141.29609 87.650545 
L 141.371825 87.776328 
L 141.447529 87.702294 
L 141.523218 87.563844 
L 141.674611 87.791848 
L 141.750376 87.695294 
L 141.826163 87.564493 
L 141.901814 87.621704 
L 142.053215 87.681077 
L 142.204767 87.615611 
L 142.356069 87.723047 
L 142.507591 87.689201 
L 142.658968 87.80625 
L 142.885997 87.679801 
L 143.491691 87.713821 
L 143.567546 87.765103 
L 143.71881 87.580928 
L 143.945961 87.723083 
L 144.097528 87.726399 
L 144.248785 87.727772 
L 144.324564 87.582594 
L 144.400299 87.636561 
L 144.551714 87.649615 
L 144.70313 87.585024 
L 144.85475 87.646295 
L 145.005969 87.65512 
L 145.157408 89.4436 
L 145.838744 99.493356 
L 145.914509 99.362795 
L 146.065948 99.257869 
L 146.293067 99.106309 
L 147.125835 99.136619 
L 147.580143 99.057362 
L 148.110155 99.055009 
L 311.723094 99.055444 
L 311.798768 99.58821 
L 312.177318 105.974726 
L 312.707345 113.895486 
L 313.237198 121.344052 
L 313.388796 120.680884 
L 313.464348 120.916257 
L 313.540068 120.794988 
L 313.61584 120.697224 
L 313.69165 120.816563 
L 313.767203 120.756783 
L 314.070064 120.659996 
L 314.221457 120.812645 
L 314.37301 120.69462 
L 314.448615 120.774263 
L 314.600099 120.670149 
L 314.902908 120.735083 
L 315.054316 120.725528 
L 315.130035 120.800025 
L 315.205762 120.718764 
L 315.281534 120.642074 
L 315.432889 120.730416 
L 315.58429 120.656375 
L 315.660168 120.809299 
L 315.735698 120.764314 
L 315.962848 120.719005 
L 316.114317 120.769834 
L 316.341444 120.781932 
L 316.568549 120.760497 
L 316.644276 120.886292 
L 316.795752 120.576308 
L 316.871366 120.670935 
L 316.947107 120.75084 
L 317.098531 120.71979 
L 317.325666 120.760052 
L 317.477104 120.646605 
L 317.628497 120.780234 
L 317.779936 120.646134 
L 317.931382 120.780963 
L 318.08282 120.649518 
L 318.158502 120.765393 
L 318.385591 120.65506 
L 318.612832 120.704883 
L 318.764187 120.716553 
L 318.839944 120.831299 
L 318.915686 120.765075 
L 318.991322 120.684044 
L 319.067057 120.762212 
L 319.142746 120.804352 
L 319.294176 120.628064 
L 319.4456 120.769505 
L 319.672712 120.699656 
L 319.899847 120.697231 
L 320.429927 120.758967 
L 320.581282 120.606956 
L 320.73269 120.724954 
L 320.884129 120.740928 
L 321.035537 120.797815 
L 321.186968 120.657909 
L 321.338384 120.786042 
L 321.489822 120.658974 
L 321.641238 120.751406 
L 321.792699 120.68217 
L 321.944084 120.782668 
L 322.171212 120.73417 
L 322.322643 120.793375 
L 322.474036 120.743249 
L 322.62552 120.707676 
L 322.701201 120.630167 
L 322.85273 120.807253 
L 323.079774 120.669684 
L 323.307084 120.707314 
L 323.68549 120.713053 
L 323.836906 120.798363 
L 323.988428 120.728917 
L 324.139753 120.774722 
L 324.29129 120.666067 
L 324.442577 120.695112 
L 324.594083 120.715647 
L 324.745401 120.850385 
L 324.972528 120.752487 
L 325.048278 120.837778 
L 325.199663 120.680001 
L 325.351155 120.780041 
L 325.502502 120.665252 
L 325.653986 120.763168 
L 325.881083 120.695602 
L 326.032612 120.759395 
L 326.183937 120.681226 
L 326.335391 120.757964 
L 326.411057 120.645929 
L 326.486814 120.724009 
L 326.562541 120.819439 
L 326.789691 120.7078 
L 326.865441 120.759403 
L 327.016803 120.652568 
L 327.243901 120.760919 
L 327.395362 120.642853 
L 327.546815 120.718708 
L 327.698216 118.869623 
L 329.060973 98.549039 
L 329.212389 98.674943 
L 329.515296 98.936098 
L 331.483776 99.071336 
L 362.676949 99.075992 
L 362.676949 99.075992 
" clip-path="url(#pdf84a324ec)" style="fill: none; stroke: #328c06; stroke-width: 0.4; stroke-linecap: round"/>
   </g>
   <g id="patch_6">
    <path d="M 44.688 123.570302 
L 44.688 74.592802 
" style="fill: none; stroke: #000000; stroke-linejoin: miter; stroke-linecap: square"/>
   </g>
   <g id="patch_7">
    <path d="M 44.688 123.570302 
L 377.81928 123.570302 
" style="fill: none; stroke: #000000; stroke-linejoin: miter; stroke-linecap: square"/>
   </g>
  </g>
  <g id="axes_3">
   <g id="patch_8">
    <path d="M 44.688 187.363104 
L 377.81928 187.363104 
L 377.81928 138.385604 
L 44.688 138.385604 
z
" style="fill: #ffffff"/>
   </g>
   <g id="matplotlib.axis_5">
    <g id="xtick_19">
     <g id="line2d_58">
      <path d="M 59.830331 187.363104 
L 59.830331 138.385604 
" clip-path="url(#p959e67b809)" style="fill: none; stroke: #b0b0b0; stroke-width: 0.1; stroke-linecap: round"/>
     </g>
     <g id="line2d_59"/>
     <g id="text_12">
      <!-- 0 -->
      <g style="fill: #262626" transform="translate(57.603456 196.18201) scale(0.07 -0.07)">
       <use xlink:href="#DejaVuSerif-30"/>
      </g>
     </g>
    </g>
    <g id="xtick_20">
     <g id="line2d_60">
      <path d="M 97.68616 187.363104 
L 97.68616 138.385604 
" clip-path="url(#p959e67b809)" style="fill: none; stroke: #b0b0b0; stroke-width: 0.1; stroke-linecap: round"/>
     </g>
     <g id="line2d_61"/>
     <g id="text_13">
      <!-- 5 -->
      <g style="fill: #262626" transform="translate(95.459285 196.18201) scale(0.07 -0.07)">
       <use xlink:href="#DejaVuSerif-35"/>
      </g>
     </g>
    </g>
    <g id="xtick_21">
     <g id="line2d_62">
      <path d="M 135.541989 187.363104 
L 135.541989 138.385604 
" clip-path="url(#p959e67b809)" style="fill: none; stroke: #b0b0b0; stroke-width: 0.1; stroke-linecap: round"/>
     </g>
     <g id="line2d_63"/>
     <g id="text_14">
      <!-- 10 -->
      <g style="fill: #262626" transform="translate(131.088239 196.18201) scale(0.07 -0.07)">
       <defs>
        <path id="DejaVuSerif-31" d="M 909 0 
L 909 331 
L 1722 331 
L 1722 4213 
L 781 3603 
L 781 4013 
L 1919 4750 
L 2350 4750 
L 2350 331 
L 3163 331 
L 3163 0 
L 909 0 
z
" transform="scale(0.015625)"/>
       </defs>
       <use xlink:href="#DejaVuSerif-31"/>
       <use xlink:href="#DejaVuSerif-30" x="63.623047"/>
      </g>
     </g>
    </g>
    <g id="xtick_22">
     <g id="line2d_64">
      <path d="M 173.397818 187.363104 
L 173.397818 138.385604 
" clip-path="url(#p959e67b809)" style="fill: none; stroke: #b0b0b0; stroke-width: 0.1; stroke-linecap: round"/>
     </g>
     <g id="line2d_65"/>
     <g id="text_15">
      <!-- 15 -->
      <g style="fill: #262626" transform="translate(168.944068 196.18201) scale(0.07 -0.07)">
       <use xlink:href="#DejaVuSerif-31"/>
       <use xlink:href="#DejaVuSerif-35" x="63.623047"/>
      </g>
     </g>
    </g>
    <g id="xtick_23">
     <g id="line2d_66">
      <path d="M 211.253648 187.363104 
L 211.253648 138.385604 
" clip-path="url(#p959e67b809)" style="fill: none; stroke: #b0b0b0; stroke-width: 0.1; stroke-linecap: round"/>
     </g>
     <g id="line2d_67"/>
     <g id="text_16">
      <!-- 20 -->
      <g style="fill: #262626" transform="translate(206.799898 196.18201) scale(0.07 -0.07)">
       <use xlink:href="#DejaVuSerif-32"/>
       <use xlink:href="#DejaVuSerif-30" x="63.623047"/>
      </g>
     </g>
    </g>
    <g id="xtick_24">
     <g id="line2d_68">
      <path d="M 249.109477 187.363104 
L 249.109477 138.385604 
" clip-path="url(#p959e67b809)" style="fill: none; stroke: #b0b0b0; stroke-width: 0.1; stroke-linecap: round"/>
     </g>
     <g id="line2d_69"/>
     <g id="text_17">
      <!-- 25 -->
      <g style="fill: #262626" transform="translate(244.655727 196.18201) scale(0.07 -0.07)">
       <use xlink:href="#DejaVuSerif-32"/>
       <use xlink:href="#DejaVuSerif-35" x="63.623047"/>
      </g>
     </g>
    </g>
    <g id="xtick_25">
     <g id="line2d_70">
      <path d="M 286.965306 187.363104 
L 286.965306 138.385604 
" clip-path="url(#p959e67b809)" style="fill: none; stroke: #b0b0b0; stroke-width: 0.1; stroke-linecap: round"/>
     </g>
     <g id="line2d_71"/>
     <g id="text_18">
      <!-- 30 -->
      <g style="fill: #262626" transform="translate(282.511556 196.18201) scale(0.07 -0.07)">
       <defs>
        <path id="DejaVuSerif-33" d="M 622 4469 
Q 988 4606 1323 4678 
Q 1659 4750 1953 4750 
Q 2638 4750 3022 4454 
Q 3406 4159 3406 3634 
Q 3406 3213 3140 2930 
Q 2875 2647 2388 2547 
Q 2963 2466 3280 2130 
Q 3597 1794 3597 1259 
Q 3597 606 3158 257 
Q 2719 -91 1894 -91 
Q 1528 -91 1179 -12 
Q 831 66 488 225 
L 488 1131 
L 838 1131 
Q 869 681 1141 450 
Q 1413 219 1906 219 
Q 2384 219 2661 495 
Q 2938 772 2938 1253 
Q 2938 1803 2653 2086 
Q 2369 2369 1819 2369 
L 1522 2369 
L 1522 2688 
L 1678 2688 
Q 2225 2688 2498 2914 
Q 2772 3141 2772 3597 
Q 2772 4006 2547 4223 
Q 2322 4441 1900 4441 
Q 1478 4441 1245 4241 
Q 1013 4041 972 3647 
L 622 3647 
L 622 4469 
z
" transform="scale(0.015625)"/>
       </defs>
       <use xlink:href="#DejaVuSerif-33"/>
       <use xlink:href="#DejaVuSerif-30" x="63.623047"/>
      </g>
     </g>
    </g>
    <g id="xtick_26">
     <g id="line2d_72">
      <path d="M 324.821135 187.363104 
L 324.821135 138.385604 
" clip-path="url(#p959e67b809)" style="fill: none; stroke: #b0b0b0; stroke-width: 0.1; stroke-linecap: round"/>
     </g>
     <g id="line2d_73"/>
     <g id="text_19">
      <!-- 35 -->
      <g style="fill: #262626" transform="translate(320.367385 196.18201) scale(0.07 -0.07)">
       <use xlink:href="#DejaVuSerif-33"/>
       <use xlink:href="#DejaVuSerif-35" x="63.623047"/>
      </g>
     </g>
    </g>
    <g id="xtick_27">
     <g id="line2d_74">
      <path d="M 362.676964 187.363104 
L 362.676964 138.385604 
" clip-path="url(#p959e67b809)" style="fill: none; stroke: #b0b0b0; stroke-width: 0.1; stroke-linecap: round"/>
     </g>
     <g id="line2d_75"/>
     <g id="text_20">
      <!-- 40 -->
      <g style="fill: #262626" transform="translate(358.223214 196.18201) scale(0.07 -0.07)">
       <defs>
        <path id="DejaVuSerif-34" d="M 2234 1581 
L 2234 4063 
L 641 1581 
L 2234 1581 
z
M 3609 0 
L 1484 0 
L 1484 331 
L 2234 331 
L 2234 1247 
L 197 1247 
L 197 1588 
L 2241 4750 
L 2859 4750 
L 2859 1581 
L 3750 1581 
L 3750 1247 
L 2859 1247 
L 2859 331 
L 3609 331 
L 3609 0 
z
" transform="scale(0.015625)"/>
       </defs>
       <use xlink:href="#DejaVuSerif-34"/>
       <use xlink:href="#DejaVuSerif-30" x="63.623047"/>
      </g>
     </g>
    </g>
    <g id="text_21">
     <!-- Time [s] -->
     <g style="fill: #262626" transform="translate(198.838796 206.196854) scale(0.06 -0.06)">
      <defs>
       <path id="DejaVuSerif-54" d="M 1222 0 
L 1222 331 
L 1819 331 
L 1819 4294 
L 447 4294 
L 447 3566 
L 63 3566 
L 63 4666 
L 4206 4666 
L 4206 3566 
L 3822 3566 
L 3822 4294 
L 2450 4294 
L 2450 331 
L 3047 331 
L 3047 0 
L 1222 0 
z
" transform="scale(0.015625)"/>
       <path id="DejaVuSerif-69" d="M 622 4353 
Q 622 4497 726 4603 
Q 831 4709 978 4709 
Q 1122 4709 1226 4603 
Q 1331 4497 1331 4353 
Q 1331 4206 1228 4103 
Q 1125 4000 978 4000 
Q 831 4000 726 4103 
Q 622 4206 622 4353 
z
M 1356 331 
L 1900 331 
L 1900 0 
L 231 0 
L 231 331 
L 781 331 
L 781 2988 
L 231 2988 
L 231 3322 
L 1356 3322 
L 1356 331 
z
" transform="scale(0.015625)"/>
       <path id="DejaVuSerif-6d" d="M 3316 2675 
Q 3481 3041 3739 3227 
Q 3997 3413 4341 3413 
Q 4863 3413 5119 3089 
Q 5375 2766 5375 2113 
L 5375 331 
L 5894 331 
L 5894 0 
L 4300 0 
L 4300 331 
L 4800 331 
L 4800 2047 
Q 4800 2556 4650 2772 
Q 4500 2988 4153 2988 
Q 3769 2988 3567 2697 
Q 3366 2406 3366 1850 
L 3366 331 
L 3866 331 
L 3866 0 
L 2291 0 
L 2291 331 
L 2791 331 
L 2791 2069 
Q 2791 2566 2641 2777 
Q 2491 2988 2144 2988 
Q 1759 2988 1557 2697 
Q 1356 2406 1356 1850 
L 1356 331 
L 1856 331 
L 1856 0 
L 263 0 
L 263 331 
L 781 331 
L 781 2994 
L 231 2994 
L 231 3322 
L 1356 3322 
L 1356 2731 
Q 1516 3063 1762 3238 
Q 2009 3413 2322 3413 
Q 2709 3413 2968 3220 
Q 3228 3028 3316 2675 
z
" transform="scale(0.015625)"/>
       <path id="DejaVuSerif-73" d="M 359 184 
L 359 959 
L 691 959 
Q 703 588 923 403 
Q 1144 219 1575 219 
Q 1963 219 2166 364 
Q 2369 509 2369 788 
Q 2369 1006 2220 1140 
Q 2072 1275 1594 1428 
L 1178 1569 
Q 750 1706 558 1912 
Q 366 2119 366 2438 
Q 366 2894 700 3153 
Q 1034 3413 1625 3413 
Q 1888 3413 2178 3344 
Q 2469 3275 2778 3144 
L 2778 2419 
L 2447 2419 
Q 2434 2741 2221 2922 
Q 2009 3103 1644 3103 
Q 1281 3103 1095 2975 
Q 909 2847 909 2591 
Q 909 2381 1050 2254 
Q 1191 2128 1613 1997 
L 2069 1856 
Q 2541 1709 2748 1489 
Q 2956 1269 2956 922 
Q 2956 450 2595 179 
Q 2234 -91 1600 -91 
Q 1278 -91 972 -22 
Q 666 47 359 184 
z
" transform="scale(0.015625)"/>
      </defs>
      <use xlink:href="#DejaVuSerif-54"/>
      <use xlink:href="#DejaVuSerif-69" x="66.699219"/>
      <use xlink:href="#DejaVuSerif-6d" x="98.681641"/>
      <use xlink:href="#DejaVuSerif-65" x="193.505859"/>
      <use xlink:href="#DejaVuSerif-20" x="252.685547"/>
      <use xlink:href="#DejaVuSerif-5b" x="284.472656"/>
      <use xlink:href="#DejaVuSerif-73" x="323.486328"/>
      <use xlink:href="#DejaVuSerif-5d" x="374.804688"/>
     </g>
    </g>
   </g>
   <g id="matplotlib.axis_6">
    <g id="ytick_7">
     <g id="line2d_76">
      <path d="M 44.688 174.742455 
L 377.81928 174.742455 
" clip-path="url(#p959e67b809)" style="fill: none; stroke: #b0b0b0; stroke-width: 0.1; stroke-linecap: round"/>
     </g>
     <g id="line2d_77"/>
     <g id="text_22">
      <!-- −0.5 -->
      <g style="fill: #262626" transform="translate(24.190031 177.401908) scale(0.07 -0.07)">
       <use xlink:href="#DejaVuSerif-2212"/>
       <use xlink:href="#DejaVuSerif-30" x="83.789062"/>
       <use xlink:href="#DejaVuSerif-2e" x="147.412109"/>
       <use xlink:href="#DejaVuSerif-35" x="179.199219"/>
      </g>
     </g>
    </g>
    <g id="ytick_8">
     <g id="line2d_78">
      <path d="M 44.688 161.641771 
L 377.81928 161.641771 
" clip-path="url(#p959e67b809)" style="fill: none; stroke: #b0b0b0; stroke-width: 0.1; stroke-linecap: round"/>
     </g>
     <g id="line2d_79"/>
     <g id="text_23">
      <!-- 0.0 -->
      <g style="fill: #262626" transform="translate(30.055813 164.301224) scale(0.07 -0.07)">
       <use xlink:href="#DejaVuSerif-30"/>
       <use xlink:href="#DejaVuSerif-2e" x="63.623047"/>
       <use xlink:href="#DejaVuSerif-30" x="95.410156"/>
      </g>
     </g>
    </g>
    <g id="ytick_9">
     <g id="line2d_80">
      <path d="M 44.688 148.541088 
L 377.81928 148.541088 
" clip-path="url(#p959e67b809)" style="fill: none; stroke: #b0b0b0; stroke-width: 0.1; stroke-linecap: round"/>
     </g>
     <g id="line2d_81"/>
     <g id="text_24">
      <!-- 0.5 -->
      <g style="fill: #262626" transform="translate(30.055813 151.200541) scale(0.07 -0.07)">
       <use xlink:href="#DejaVuSerif-30"/>
       <use xlink:href="#DejaVuSerif-2e" x="63.623047"/>
       <use xlink:href="#DejaVuSerif-35" x="95.410156"/>
      </g>
     </g>
    </g>
    <g id="text_25">
     <!-- $\psi-\psi^A$ [deg] -->
     <g style="fill: #262626" transform="translate(18.810031 181.084354) rotate(-90) scale(0.06 -0.06)">
      <defs>
       <path id="DejaVuSans-Oblique-3c8" d="M 1591 -78 
Q 891 38 616 341 
Q 278 713 425 1472 
L 819 3500 
L 1400 3500 
L 1009 1494 
Q 900 922 1119 684 
Q 1313 478 1691 434 
L 2284 3500 
L 2856 3500 
L 2263 438 
Q 2681 481 2928 688 
Q 3247 950 3353 1497 
L 3741 3500 
L 4322 3500 
L 3928 1475 
Q 3775 688 3300 344 
Q 2872 34 2163 -75 
L 1919 -1331 
L 1347 -1331 
L 1591 -78 
z
" transform="scale(0.015625)"/>
      </defs>
      <use xlink:href="#DejaVuSans-Oblique-3c8" transform="translate(0 0.684375)"/>
      <use xlink:href="#DejaVuSans-2212" transform="translate(85.449219 0.684375)"/>
      <use xlink:href="#DejaVuSans-Oblique-3c8" transform="translate(188.720703 0.684375)"/>
      <use xlink:href="#DejaVuSans-Oblique-41" transform="translate(259.153646 38.965625) scale(0.7)"/>
      <use xlink:href="#DejaVuSerif-20" transform="translate(309.773763 0.684375)"/>
      <use xlink:href="#DejaVuSerif-5b" transform="translate(341.560872 0.684375)"/>
      <use xlink:href="#DejaVuSerif-64" transform="translate(380.574544 0.684375)"/>
      <use xlink:href="#DejaVuSerif-65" transform="translate(444.588216 0.684375)"/>
      <use xlink:href="#DejaVuSerif-67" transform="translate(503.767904 0.684375)"/>
      <use xlink:href="#DejaVuSerif-5d" transform="translate(567.781576 0.684375)"/>
     </g>
    </g>
   </g>
   <g id="line2d_82">
    <path d="M 59.830331 161.641771 
L 362.676949 161.641771 
L 362.676949 161.641771 
" clip-path="url(#p959e67b809)" style="fill: none; stroke: #2a2eec; stroke-width: 0.4; stroke-linecap: round"/>
   </g>
   <g id="line2d_83">
    <path d="M 59.830331 162.078073 
L 62.85879 162.184894 
L 67.780146 162.618394 
L 74.291447 163.135912 
L 78.30396 163.216052 
L 82.46848 163.073206 
L 86.556592 162.69845 
L 92.007763 161.971215 
L 97.837591 160.993418 
L 113.509889 158.211189 
L 118.658267 157.56553 
L 124.033832 157.148627 
L 131.453651 156.59999 
L 136.450552 156.303177 
L 140.009076 156.325264 
L 144.627373 156.600412 
L 150.154332 156.923162 
L 154.99987 156.90965 
L 160.981152 156.689729 
L 166.12959 156.306533 
L 181.80185 154.720677 
L 188.31303 153.68923 
L 198.534051 151.912242 
L 210.87521 149.505216 
L 236.692742 145.281682 
L 242.446957 144.621091 
L 249.942297 143.99814 
L 254.030735 143.953362 
L 261.677642 144.136377 
L 269.778744 144.260134 
L 277.425743 144.100685 
L 283.406926 143.80277 
L 287.495303 143.356869 
L 296.505035 142.338255 
L 303.243388 141.649295 
L 312.93442 140.718804 
L 315.811478 140.626003 
L 317.704239 140.814272 
L 319.597 141.227003 
L 321.565519 141.886892 
L 323.68549 142.83799 
L 325.881083 144.074622 
L 328.15244 145.611036 
L 333.906632 149.714611 
L 336.556419 151.148857 
L 342.159112 153.818101 
L 348.518884 156.640923 
L 355.560106 159.483111 
L 361.087118 161.752446 
L 362.676949 162.453312 
L 362.676949 162.453312 
" clip-path="url(#p959e67b809)" style="fill: none; stroke: #fa7c17; stroke-width: 0.4; stroke-linecap: round"/>
   </g>
   <g id="line2d_84">
    <path d="M 59.830331 161.130151 
L 63.237393 161.021 
L 67.401527 160.669478 
L 71.641372 160.072732 
L 76.789727 159.119911 
L 84.058062 157.571869 
L 90.115009 156.067298 
L 96.247646 154.329982 
L 105.030168 151.77313 
L 109.72442 150.674639 
L 113.509889 150.008343 
L 117.29551 149.554898 
L 120.626793 149.367572 
L 125.47243 149.356062 
L 130.92379 149.516578 
L 133.422033 149.825872 
L 135.844821 150.341624 
L 138.2677 151.100079 
L 140.766056 152.119621 
L 143.491691 153.479616 
L 146.52018 155.257862 
L 149.472934 156.845287 
L 153.409956 158.695769 
L 158.861256 161.015555 
L 163.252464 162.676727 
L 167.340901 163.952642 
L 174.912052 166.022726 
L 181.347603 167.611908 
L 187.101583 168.790799 
L 192.32571 169.654514 
L 196.035619 170.047523 
L 199.972595 170.225288 
L 209.588014 170.565609 
L 252.970908 173.448535 
L 260.541945 174.207788 
L 272.050086 175.272556 
L 277.804165 176.008831 
L 284.239656 177.112267 
L 289.161118 178.138101 
L 294.233724 179.450149 
L 306.19615 182.879624 
L 313.61584 184.892687 
L 315.35717 185.11152 
L 317.098531 185.108502 
L 318.839944 184.888511 
L 320.657001 184.435462 
L 322.549755 183.732186 
L 324.594083 182.730489 
L 326.562541 181.517677 
L 328.833838 179.839996 
L 330.802386 178.50399 
L 333.225212 177.123768 
L 336.405057 175.600721 
L 339.736317 174.203116 
L 343.370461 172.91549 
L 348.216075 171.445218 
L 358.361491 168.637341 
L 362.676949 167.541309 
L 362.676949 167.541309 
" clip-path="url(#p959e67b809)" style="fill: none; stroke: #328c06; stroke-width: 0.4; stroke-linecap: round"/>
   </g>
   <g id="patch_9">
    <path d="M 44.688 187.363104 
L 44.688 138.385604 
" style="fill: none; stroke: #000000; stroke-linejoin: miter; stroke-linecap: square"/>
   </g>
   <g id="patch_10">
    <path d="M 44.688 187.363104 
L 377.81928 187.363104 
" style="fill: none; stroke: #000000; stroke-linejoin: miter; stroke-linecap: square"/>
   </g>
  </g>
 </g>
 <defs>
  <clipPath id="p7276dbdbd8">
   <rect x="44.688" y="10.8" width="333.13128" height="48.9775"/>
  </clipPath>
  <clipPath id="pdf84a324ec">
   <rect x="44.688" y="74.592802" width="333.13128" height="48.9775"/>
  </clipPath>
  <clipPath id="p959e67b809">
   <rect x="44.688" y="138.385604" width="333.13128" height="48.9775"/>
  </clipPath>
 </defs>
</svg>
