<?xml version="1.0" encoding="utf-8" standalone="no"?>
<!DOCTYPE svg PUBLIC "-//W3C//DTD SVG 1.1//EN"
  "http://www.w3.org/Graphics/SVG/1.1/DTD/svg11.dtd">
<svg xmlns:xlink="http://www.w3.org/1999/xlink" width="388.61928pt" height="218.623104pt" viewBox="0 0 388.61928 218.623104" xmlns="http://www.w3.org/2000/svg" version="1.1">
 <metadata>
  <rdf:RDF xmlns:dc="http://purl.org/dc/elements/1.1/" xmlns:cc="http://creativecommons.org/ns#" xmlns:rdf="http://www.w3.org/1999/02/22-rdf-syntax-ns#">
   <cc:Work>
    <dc:type rdf:resource="http://purl.org/dc/dcmitype/StillImage"/>
    <dc:date>2025-04-10T11:18:07.879207</dc:date>
    <dc:format>image/svg+xml</dc:format>
    <dc:creator>
     <cc:Agent>
      <dc:title>Matplotlib v3.8.2, https://matplotlib.org/</dc:title>
     </cc:Agent>
    </dc:creator>
   </cc:Work>
  </rdf:RDF>
 </metadata>
 <defs>
  <style type="text/css">*{stroke-linejoin: round; stroke-linecap: butt}</style>
 </defs>
 <g id="figure_1">
  <g id="patch_1">
   <path d="M 0 218.623104 
L 388.61928 218.623104 
L 388.61928 0 
L 0 0 
z
" style="fill: #ffffff"/>
  </g>
  <g id="axes_1">
   <g id="patch_2">
    <path d="M 45.228 62.26072 
L 377.81928 62.26072 
L 377.81928 10.8 
L 45.228 10.8 
z
" style="fill: #ffffff"/>
   </g>
   <g id="matplotlib.axis_1">
    <g id="xtick_1">
     <g id="line2d_1">
      <path d="M 60.345785 62.26072 
L 60.345785 10.8 
" clip-path="url(#pca66881b70)" style="fill: none; stroke: #b0b0b0; stroke-width: 0.1; stroke-linecap: round"/>
     </g>
     <g id="line2d_2"/>
    </g>
    <g id="xtick_2">
     <g id="line2d_3">
      <path d="M 98.140251 62.26072 
L 98.140251 10.8 
" clip-path="url(#pca66881b70)" style="fill: none; stroke: #b0b0b0; stroke-width: 0.1; stroke-linecap: round"/>
     </g>
     <g id="line2d_4"/>
    </g>
    <g id="xtick_3">
     <g id="line2d_5">
      <path d="M 135.934717 62.26072 
L 135.934717 10.8 
" clip-path="url(#pca66881b70)" style="fill: none; stroke: #b0b0b0; stroke-width: 0.1; stroke-linecap: round"/>
     </g>
     <g id="line2d_6"/>
    </g>
    <g id="xtick_4">
     <g id="line2d_7">
      <path d="M 173.729182 62.26072 
L 173.729182 10.8 
" clip-path="url(#pca66881b70)" style="fill: none; stroke: #b0b0b0; stroke-width: 0.1; stroke-linecap: round"/>
     </g>
     <g id="line2d_8"/>
    </g>
    <g id="xtick_5">
     <g id="line2d_9">
      <path d="M 211.523648 62.26072 
L 211.523648 10.8 
" clip-path="url(#pca66881b70)" style="fill: none; stroke: #b0b0b0; stroke-width: 0.1; stroke-linecap: round"/>
     </g>
     <g id="line2d_10"/>
    </g>
    <g id="xtick_6">
     <g id="line2d_11">
      <path d="M 249.318113 62.26072 
L 249.318113 10.8 
" clip-path="url(#pca66881b70)" style="fill: none; stroke: #b0b0b0; stroke-width: 0.1; stroke-linecap: round"/>
     </g>
     <g id="line2d_12"/>
    </g>
    <g id="xtick_7">
     <g id="line2d_13">
      <path d="M 287.112579 62.26072 
L 287.112579 10.8 
" clip-path="url(#pca66881b70)" style="fill: none; stroke: #b0b0b0; stroke-width: 0.1; stroke-linecap: round"/>
     </g>
     <g id="line2d_14"/>
    </g>
    <g id="xtick_8">
     <g id="line2d_15">
      <path d="M 324.907044 62.26072 
L 324.907044 10.8 
" clip-path="url(#pca66881b70)" style="fill: none; stroke: #b0b0b0; stroke-width: 0.1; stroke-linecap: round"/>
     </g>
     <g id="line2d_16"/>
    </g>
    <g id="xtick_9">
     <g id="line2d_17">
      <path d="M 362.70151 62.26072 
L 362.70151 10.8 
" clip-path="url(#pca66881b70)" style="fill: none; stroke: #b0b0b0; stroke-width: 0.1; stroke-linecap: round"/>
     </g>
     <g id="line2d_18"/>
    </g>
   </g>
   <g id="matplotlib.axis_2">
    <g id="ytick_1">
     <g id="line2d_19">
      <path d="M 45.228 57.369753 
L 377.81928 57.369753 
" clip-path="url(#pca66881b70)" style="fill: none; stroke: #b0b0b0; stroke-width: 0.1; stroke-linecap: round"/>
     </g>
     <g id="line2d_20"/>
     <g id="text_1">
      <!-- −100 -->
      <g style="fill: #262626" transform="translate(22.500969 60.029206) scale(0.07 -0.07)">
       <defs>
        <path id="DejaVuSerif-2212" d="M 678 2259 
L 4684 2259 
L 4684 1753 
L 678 1753 
L 678 2259 
z
" transform="scale(0.015625)"/>
        <path id="DejaVuSerif-31" d="M 909 0 
L 909 331 
L 1722 331 
L 1722 4213 
L 781 3603 
L 781 4013 
L 1919 4750 
L 2350 4750 
L 2350 331 
L 3163 331 
L 3163 0 
L 909 0 
z
" transform="scale(0.015625)"/>
        <path id="DejaVuSerif-30" d="M 2034 219 
Q 2513 219 2750 744 
Q 2988 1269 2988 2328 
Q 2988 3391 2750 3916 
Q 2513 4441 2034 4441 
Q 1556 4441 1318 3916 
Q 1081 3391 1081 2328 
Q 1081 1269 1318 744 
Q 1556 219 2034 219 
z
M 2034 -91 
Q 1275 -91 848 546 
Q 422 1184 422 2328 
Q 422 3475 848 4112 
Q 1275 4750 2034 4750 
Q 2797 4750 3222 4112 
Q 3647 3475 3647 2328 
Q 3647 1184 3222 546 
Q 2797 -91 2034 -91 
z
" transform="scale(0.015625)"/>
       </defs>
       <use xlink:href="#DejaVuSerif-2212"/>
       <use xlink:href="#DejaVuSerif-31" x="83.789062"/>
       <use xlink:href="#DejaVuSerif-30" x="147.412109"/>
       <use xlink:href="#DejaVuSerif-30" x="211.035156"/>
      </g>
     </g>
    </g>
    <g id="ytick_2">
     <g id="line2d_21">
      <path d="M 45.228 35.833831 
L 377.81928 35.833831 
" clip-path="url(#pca66881b70)" style="fill: none; stroke: #b0b0b0; stroke-width: 0.1; stroke-linecap: round"/>
     </g>
     <g id="line2d_22"/>
     <g id="text_2">
      <!-- 0 -->
      <g style="fill: #262626" transform="translate(37.27425 38.493284) scale(0.07 -0.07)">
       <use xlink:href="#DejaVuSerif-30"/>
      </g>
     </g>
    </g>
    <g id="ytick_3">
     <g id="line2d_23">
      <path d="M 45.228 14.29791 
L 377.81928 14.29791 
" clip-path="url(#pca66881b70)" style="fill: none; stroke: #b0b0b0; stroke-width: 0.1; stroke-linecap: round"/>
     </g>
     <g id="line2d_24"/>
     <g id="text_3">
      <!-- 100 -->
      <g style="fill: #262626" transform="translate(28.36675 16.957363) scale(0.07 -0.07)">
       <use xlink:href="#DejaVuSerif-31"/>
       <use xlink:href="#DejaVuSerif-30" x="63.623047"/>
       <use xlink:href="#DejaVuSerif-30" x="127.246094"/>
      </g>
     </g>
    </g>
    <g id="text_4">
     <!-- $N_D$ [Nm] -->
     <g style="fill: #262626" transform="translate(17.253156 49.25036) rotate(-90) scale(0.06 -0.06)">
      <defs>
       <path id="DejaVuSans-Oblique-4e" d="M 1081 4666 
L 1931 4666 
L 3219 666 
L 4000 4666 
L 4616 4666 
L 3706 0 
L 2853 0 
L 1569 4025 
L 788 0 
L 172 0 
L 1081 4666 
z
" transform="scale(0.015625)"/>
       <path id="DejaVuSans-Oblique-44" d="M 1081 4666 
L 2438 4666 
Q 3519 4666 4070 4208 
Q 4622 3750 4622 2847 
Q 4622 2250 4412 1698 
Q 4203 1147 3834 769 
Q 3463 381 2891 190 
Q 2319 0 1538 0 
L 172 0 
L 1081 4666 
z
M 1613 4147 
L 909 519 
L 1734 519 
Q 2794 519 3375 1128 
Q 3956 1738 3956 2847 
Q 3956 3519 3581 3833 
Q 3206 4147 2406 4147 
L 1613 4147 
z
" transform="scale(0.015625)"/>
       <path id="DejaVuSerif-20" transform="scale(0.015625)"/>
       <path id="DejaVuSerif-5b" d="M 550 4863 
L 2003 4863 
L 2003 4531 
L 1147 4531 
L 1147 -513 
L 2003 -513 
L 2003 -844 
L 550 -844 
L 550 4863 
z
" transform="scale(0.015625)"/>
       <path id="DejaVuSerif-4e" d="M 313 0 
L 313 331 
L 941 331 
L 941 4331 
L 313 4331 
L 313 4666 
L 1509 4666 
L 4306 984 
L 4306 4331 
L 3681 4331 
L 3681 4666 
L 5319 4666 
L 5319 4331 
L 4691 4331 
L 4691 -91 
L 4313 -91 
L 1325 3841 
L 1325 331 
L 1953 331 
L 1953 0 
L 313 0 
z
" transform="scale(0.015625)"/>
       <path id="DejaVuSerif-6d" d="M 3316 2675 
Q 3481 3041 3739 3227 
Q 3997 3413 4341 3413 
Q 4863 3413 5119 3089 
Q 5375 2766 5375 2113 
L 5375 331 
L 5894 331 
L 5894 0 
L 4300 0 
L 4300 331 
L 4800 331 
L 4800 2047 
Q 4800 2556 4650 2772 
Q 4500 2988 4153 2988 
Q 3769 2988 3567 2697 
Q 3366 2406 3366 1850 
L 3366 331 
L 3866 331 
L 3866 0 
L 2291 0 
L 2291 331 
L 2791 331 
L 2791 2069 
Q 2791 2566 2641 2777 
Q 2491 2988 2144 2988 
Q 1759 2988 1557 2697 
Q 1356 2406 1356 1850 
L 1356 331 
L 1856 331 
L 1856 0 
L 263 0 
L 263 331 
L 781 331 
L 781 2994 
L 231 2994 
L 231 3322 
L 1356 3322 
L 1356 2731 
Q 1516 3063 1762 3238 
Q 2009 3413 2322 3413 
Q 2709 3413 2968 3220 
Q 3228 3028 3316 2675 
z
" transform="scale(0.015625)"/>
       <path id="DejaVuSerif-5d" d="M 1947 4863 
L 1947 -844 
L 494 -844 
L 494 -513 
L 1350 -513 
L 1350 4531 
L 494 4531 
L 494 4863 
L 1947 4863 
z
" transform="scale(0.015625)"/>
      </defs>
      <use xlink:href="#DejaVuSans-Oblique-4e" transform="translate(0 0.015625)"/>
      <use xlink:href="#DejaVuSans-Oblique-44" transform="translate(74.804688 -16.390625) scale(0.7)"/>
      <use xlink:href="#DejaVuSerif-20" transform="translate(131.44043 0.015625)"/>
      <use xlink:href="#DejaVuSerif-5b" transform="translate(163.227539 0.015625)"/>
      <use xlink:href="#DejaVuSerif-4e" transform="translate(202.241211 0.015625)"/>
      <use xlink:href="#DejaVuSerif-6d" transform="translate(289.741211 0.015625)"/>
      <use xlink:href="#DejaVuSerif-5d" transform="translate(384.56543 0.015625)"/>
     </g>
    </g>
   </g>
   <g id="line2d_25">
    <path d="M 60.345785 38.061359 
L 60.723836 37.873077 
L 63.293799 36.614176 
L 64.956892 35.977656 
L 65.561558 35.697725 
L 66.014978 35.117821 
L 67.602277 33.2885 
L 68.811715 32.11478 
L 71.457321 29.899218 
L 72.666766 29.170041 
L 72.969099 29.002031 
L 73.271644 28.880016 
L 73.725026 28.634425 
L 74.103009 28.76081 
L 74.329806 28.823681 
L 74.707682 29.10345 
L 75.010046 29.102708 
L 75.539214 29.428377 
L 77.353287 30.039302 
L 78.260392 30.409252 
L 78.638269 30.432022 
L 79.016478 30.556809 
L 79.318834 30.639939 
L 79.696552 30.813656 
L 80.074549 30.951496 
L 80.376822 31.078753 
L 80.679215 31.074237 
L 81.132787 31.328607 
L 81.510784 31.402101 
L 81.888601 31.492502 
L 82.115367 31.544975 
L 82.493312 31.722172 
L 82.79569 31.683405 
L 83.249216 31.897986 
L 83.551565 31.904214 
L 83.929623 32.07433 
L 84.231895 32.119983 
L 84.60984 32.368667 
L 84.987769 32.414325 
L 85.365729 32.563663 
L 85.66807 32.558764 
L 86.121611 32.75475 
L 86.424118 32.783166 
L 86.87747 32.907608 
L 87.10438 32.993816 
L 87.48231 33.179118 
L 87.78456 33.148648 
L 88.23832 33.260301 
L 88.540646 33.323129 
L 88.842775 33.43738 
L 89.145183 33.438478 
L 89.674298 33.689206 
L 89.901035 33.705966 
L 90.279093 33.835145 
L 90.657226 33.859541 
L 91.034922 34.012539 
L 91.337285 34.045683 
L 91.790894 34.259945 
L 92.168725 34.361732 
L 92.546647 34.477493 
L 92.848996 34.522227 
L 93.907256 34.807331 
L 94.209619 34.843437 
L 95.268 35.254373 
L 96.401789 35.406016 
L 97.460056 35.692678 
L 97.762306 35.720021 
L 98.140311 35.875566 
L 98.518339 36.00222 
L 98.820551 36.054437 
L 99.198473 36.061046 
L 99.727611 36.268437 
L 102.902512 37.353104 
L 103.431476 37.480989 
L 103.809406 37.651605 
L 104.111769 37.689296 
L 104.489759 37.866458 
L 104.792062 37.837165 
L 105.850367 38.431779 
L 106.455018 38.660068 
L 106.757397 38.654706 
L 106.984141 38.721404 
L 107.362055 38.891644 
L 107.740023 38.940483 
L 110.007683 39.792378 
L 111.292725 40.185066 
L 111.670753 40.293875 
L 111.897467 40.397239 
L 112.275479 40.682278 
L 112.804504 40.771768 
L 113.862734 41.091346 
L 114.089553 41.148075 
L 114.467445 41.345066 
L 114.845465 41.39911 
L 115.298938 41.495587 
L 115.601294 41.615056 
L 116.508339 42.091135 
L 117.037552 42.020812 
L 117.793403 42.425142 
L 118.095699 42.460568 
L 118.92726 42.497194 
L 120.2878 43.138055 
L 120.514559 43.206129 
L 120.817006 43.331429 
L 121.119445 43.192292 
L 122.253112 43.859048 
L 122.555521 43.874457 
L 123.009236 44.015478 
L 123.235769 44.028838 
L 123.68931 44.298538 
L 123.991779 44.337537 
L 124.369587 44.51666 
L 124.671943 44.520192 
L 125.881479 45.1797 
L 126.939634 45.285627 
L 127.317616 45.555743 
L 127.619904 45.687842 
L 127.92226 45.835593 
L 128.224615 45.907863 
L 128.60262 46.153755 
L 128.904961 46.164612 
L 129.434084 46.423456 
L 129.661032 46.524104 
L 130.038757 46.755783 
L 130.416921 46.731101 
L 131.550596 47.936554 
L 132.004077 48.347515 
L 132.835669 49.141346 
L 134.64969 50.717854 
L 135.40567 51.288053 
L 135.934739 51.739896 
L 137.522099 53.129646 
L 139.185298 54.404921 
L 140.999213 55.754287 
L 145.685636 59.110895 
L 146.214781 59.568167 
L 146.51719 59.24097 
L 147.121878 58.583795 
L 147.575419 58.226477 
L 148.331369 57.442404 
L 151.884034 55.363615 
L 152.791025 54.961604 
L 153.320163 54.664385 
L 154.227215 54.366795 
L 154.529556 54.274225 
L 154.831934 54.110875 
L 155.512325 54.039283 
L 156.343766 53.687586 
L 156.797269 53.709882 
L 157.326392 53.476349 
L 157.628898 53.387888 
L 157.931088 53.402043 
L 158.460195 53.201612 
L 158.83814 53.169672 
L 159.367308 53.09887 
L 159.971981 52.930421 
L 160.501104 52.780445 
L 160.803467 52.775114 
L 161.257031 52.612695 
L 161.634915 52.587385 
L 161.937301 52.485979 
L 162.315238 52.474036 
L 163.449216 52.061555 
L 166.01927 51.412509 
L 166.397025 51.272368 
L 166.774985 51.154242 
L 167.152937 51.084976 
L 167.833291 50.911191 
L 168.286945 50.699362 
L 170.630217 50.004437 
L 170.932384 49.941283 
L 171.839474 49.563344 
L 172.368619 49.3891 
L 172.746556 49.323323 
L 173.048919 49.186419 
L 173.426857 49.09535 
L 173.804884 49.006043 
L 175.467697 48.557922 
L 175.845642 48.472847 
L 176.223587 48.301183 
L 176.601546 48.262882 
L 176.979499 48.149907 
L 177.357458 48.106776 
L 178.264495 47.850231 
L 178.869486 47.733225 
L 180.381016 47.417065 
L 180.834693 47.358593 
L 181.288045 47.263716 
L 181.66608 47.134505 
L 182.346358 46.941469 
L 185.521025 46.166952 
L 185.823411 46.087352 
L 186.806067 45.745625 
L 187.335273 45.663937 
L 189.829624 45.000819 
L 190.207645 44.832854 
L 190.585506 44.801511 
L 191.568155 44.56227 
L 193.231141 44.14205 
L 193.684705 44.0811 
L 210.994533 39.899587 
L 211.372507 39.797491 
L 212.355201 39.564829 
L 212.884203 39.511624 
L 222.030615 37.555383 
L 222.332842 37.482026 
L 222.635251 37.464921 
L 223.16432 37.256363 
L 223.542393 37.100271 
L 223.920247 37.043779 
L 224.751967 36.909103 
L 225.129663 36.793587 
L 225.507668 36.74918 
L 225.810016 36.645308 
L 226.26358 36.66174 
L 226.641434 36.601159 
L 226.943767 36.552789 
L 227.397331 36.448669 
L 229.21142 36.122025 
L 230.269793 35.937168 
L 230.572043 35.852669 
L 231.02569 35.695113 
L 241.154493 33.143133 
L 241.381434 33.076419 
L 241.910458 33.068516 
L 243.951322 32.617538 
L 244.25364 32.512355 
L 244.55601 32.507076 
L 245.009552 32.284708 
L 245.311885 32.256219 
L 245.765396 32.085838 
L 246.067766 31.980653 
L 246.445771 31.916048 
L 246.748037 31.784086 
L 247.050528 31.680867 
L 247.428526 31.639169 
L 247.806402 31.503437 
L 248.108652 31.434288 
L 248.48662 31.200023 
L 248.940229 31.062275 
L 249.393657 30.972168 
L 250.451939 30.74538 
L 252.266089 30.332593 
L 257.103765 29.07283 
L 257.330532 29.05086 
L 257.708575 28.861003 
L 258.086641 28.865404 
L 258.539925 28.594451 
L 259.673812 28.33124 
L 261.109971 28.003737 
L 261.563535 27.999674 
L 262.01725 27.771406 
L 262.395089 27.72448 
L 262.697354 27.694803 
L 262.999694 27.726755 
L 263.377684 27.541079 
L 263.755622 27.499881 
L 264.057962 27.362068 
L 264.436103 27.309865 
L 264.738323 27.243248 
L 265.116177 27.250467 
L 265.494205 27.179266 
L 265.872081 27.072232 
L 266.174551 27.004629 
L 266.552427 27.005339 
L 267.081474 26.891375 
L 267.761835 26.956 
L 267.988549 26.859099 
L 268.29092 26.664977 
L 270.18065 26.543016 
L 270.483052 26.390317 
L 272.221537 26.229199 
L 272.675161 26.112045 
L 273.355386 26.119285 
L 273.657847 25.981084 
L 273.960248 25.862527 
L 274.413835 25.92013 
L 274.791583 25.900955 
L 275.018455 25.84143 
L 275.320736 25.665162 
L 275.925508 25.71889 
L 276.227833 25.636156 
L 276.530234 25.612892 
L 276.908103 25.503838 
L 277.286116 25.400096 
L 277.588479 25.365268 
L 277.966288 25.360894 
L 278.268651 25.349192 
L 278.570992 25.359106 
L 278.873385 25.270475 
L 279.326896 25.329332 
L 279.704841 25.222138 
L 280.536311 25.253082 
L 280.763093 25.2442 
L 281.141068 25.066543 
L 281.443386 24.997915 
L 281.74578 24.822878 
L 282.728398 25.006456 
L 283.333117 25.006593 
L 283.559967 25.045327 
L 283.937844 24.941639 
L 284.240207 24.883056 
L 284.542578 24.752456 
L 284.99627 24.849121 
L 285.298505 24.804691 
L 285.676351 24.898679 
L 286.12993 24.678577 
L 286.432286 24.69599 
L 286.734634 24.626828 
L 287.188228 24.665578 
L 287.490561 24.634377 
L 287.868574 24.613759 
L 288.246397 24.547204 
L 288.548859 24.510878 
L 288.926668 24.439614 
L 289.304831 24.529499 
L 289.68258 24.43812 
L 289.984958 24.417224 
L 290.36291 24.333432 
L 291.421133 24.397268 
L 291.723496 24.239349 
L 292.17715 24.301586 
L 293.159693 24.223963 
L 293.537615 24.188695 
L 293.839986 24.081422 
L 294.217946 24.147956 
L 294.67151 24.024263 
L 295.654113 24.182368 
L 296.183273 24.130344 
L 296.485697 24.141718 
L 297.619523 24.058678 
L 298.526515 24.081704 
L 300.945338 23.885021 
L 301.323351 24.034785 
L 301.701242 23.835296 
L 302.003583 23.932996 
L 302.381528 23.820246 
L 302.759465 23.872594 
L 303.137545 23.716145 
L 304.120307 23.908109 
L 304.573652 23.814229 
L 306.765723 23.653777 
L 307.370389 23.621057 
L 307.748372 23.757505 
L 308.731066 23.549528 
L 310.16718 23.475657 
L 310.545117 23.519393 
L 310.923122 23.494845 
L 311.452192 23.416263 
L 312.132477 23.331904 
L 313.341885 23.445775 
L 313.7956 23.046078 
L 314.097865 22.795353 
L 314.475855 22.464743 
L 314.778211 22.294559 
L 315.307257 21.836591 
L 315.836335 21.411357 
L 317.196958 20.368791 
L 317.801685 19.864668 
L 318.481932 19.373573 
L 321.732301 17.313784 
L 324.68036 15.722398 
L 325.133818 15.483599 
L 325.511937 15.29553 
L 325.889919 15.099868 
L 326.267637 14.898346 
L 326.872409 14.651389 
L 327.628306 14.25014 
L 327.855171 14.164397 
L 328.459784 13.553016 
L 328.762125 13.374254 
L 329.064413 13.173288 
L 329.215591 13.287087 
L 330.198337 14.725869 
L 330.954219 15.418422 
L 331.181114 15.522472 
L 331.861271 16.120532 
L 332.314797 16.496657 
L 332.541534 16.636743 
L 332.843874 16.894335 
L 333.221849 16.998364 
L 333.675368 17.375033 
L 334.053305 17.54083 
L 334.431574 17.773021 
L 334.733817 17.937477 
L 335.11158 18.181101 
L 335.413913 18.309174 
L 335.716239 18.511368 
L 336.169802 18.502606 
L 336.547868 18.678761 
L 336.850262 18.777664 
L 337.152436 18.848637 
L 337.454844 18.932542 
L 337.908318 19.19727 
L 338.890981 19.360314 
L 339.193337 19.526371 
L 339.646976 19.523498 
L 339.949393 19.722095 
L 340.40276 19.810432 
L 340.780712 20.013839 
L 341.083159 20.152225 
L 341.385446 20.326218 
L 341.83904 20.404945 
L 342.141328 20.511456 
L 342.443623 20.527347 
L 342.821674 20.701822 
L 343.275283 20.78935 
L 343.653137 20.841875 
L 343.879972 20.911832 
L 344.25781 21.122873 
L 344.78691 21.278799 
L 345.693977 21.540207 
L 345.996552 21.556835 
L 346.374301 21.712714 
L 346.676649 21.730282 
L 347.205801 21.970311 
L 347.583739 22.097976 
L 347.961713 22.15038 
L 348.264062 22.270172 
L 348.56638 22.318067 
L 348.868781 22.318689 
L 349.322337 22.487789 
L 349.624655 22.555875 
L 350.002547 22.671775 
L 350.304895 22.779768 
L 350.607371 22.935914 
L 350.985331 22.973755 
L 351.287574 23.100801 
L 351.665488 23.03159 
L 352.04347 23.274248 
L 352.421377 23.271952 
L 352.874926 23.476894 
L 353.177327 23.610985 
L 353.479637 23.731481 
L 354.311146 23.694206 
L 354.537913 23.840646 
L 354.840268 24.080664 
L 356.049669 24.199677 
L 356.352047 24.250974 
L 356.654357 24.291189 
L 356.956728 24.421397 
L 357.410247 24.413658 
L 357.712595 24.474546 
L 358.015049 24.416146 
L 358.544118 24.636118 
L 358.846474 24.672583 
L 359.148807 24.800318 
L 359.526737 24.829918 
L 359.8291 24.910715 
L 360.207098 24.899315 
L 360.585095 25.04059 
L 360.963085 25.079255 
L 361.26535 25.147504 
L 361.718854 25.198887 
L 362.021171 25.136435 
L 362.323595 25.134374 
L 362.701495 25.253448 
L 362.701495 25.253448 
" clip-path="url(#pca66881b70)" style="fill: none; stroke: #2a2eec; stroke-width: 0.4; stroke-linecap: round"/>
   </g>
   <g id="line2d_26">
    <path d="M 60.345785 38.656669 
L 60.648141 38.48764 
L 62.462253 37.434757 
L 64.729906 36.33693 
L 65.561361 35.924029 
L 66.166095 35.098136 
L 67.980207 32.981053 
L 70.776975 30.477348 
L 73.724951 28.492447 
L 74.102926 28.71283 
L 74.405296 28.866792 
L 74.707652 28.946244 
L 75.01 28.979924 
L 75.463473 29.241549 
L 75.765852 29.244923 
L 76.446137 29.57062 
L 77.428816 29.966352 
L 77.957931 30.085386 
L 78.260294 30.232845 
L 78.638299 30.283785 
L 79.016199 30.431302 
L 79.318554 30.439172 
L 79.772088 30.676804 
L 80.074421 30.801959 
L 80.376837 30.921006 
L 80.754729 31.001191 
L 81.132734 31.153064 
L 81.510663 31.15506 
L 82.039748 31.336515 
L 84.458556 32.092883 
L 84.76095 32.216088 
L 85.063305 32.196801 
L 86.272713 32.69364 
L 87.255437 32.973141 
L 87.633314 33.096691 
L 88.464785 33.198536 
L 89.069504 33.40674 
L 89.371859 33.392947 
L 90.959303 34.06342 
L 91.412889 34.102398 
L 91.79069 34.285196 
L 92.168695 34.339604 
L 92.546731 34.454398 
L 92.848958 34.507982 
L 93.226948 34.675791 
L 93.604832 34.69405 
L 93.982973 34.822668 
L 94.965539 35.003317 
L 95.494585 35.146179 
L 95.797062 35.272472 
L 96.250596 35.3961 
L 97.157512 35.669684 
L 97.61106 35.835114 
L 98.215946 35.947254 
L 99.274062 36.306531 
L 99.65206 36.426274 
L 99.95431 36.447345 
L 100.861369 36.831171 
L 101.390507 37.054574 
L 101.69287 37.155169 
L 102.146457 37.102066 
L 102.902263 37.488133 
L 103.960584 37.779804 
L 104.18732 37.878211 
L 104.640869 38.16401 
L 106.606143 38.778508 
L 107.210862 39.046103 
L 107.588867 39.252354 
L 108.118013 39.32659 
L 108.495882 39.302007 
L 109.705274 39.884287 
L 110.38562 40.172115 
L 110.914705 40.411235 
L 111.217189 40.485926 
L 111.519431 40.640255 
L 112.048652 40.681959 
L 112.502057 40.886775 
L 112.80442 41.032657 
L 113.257977 41.338678 
L 114.013889 41.408162 
L 114.467468 41.634237 
L 115.147708 41.798106 
L 115.52566 42.047649 
L 115.828008 42.158293 
L 116.281572 42.192445 
L 117.264288 42.659561 
L 117.717731 42.619176 
L 118.927169 43.082784 
L 119.985407 43.376562 
L 120.43894 43.470372 
L 120.892429 43.710436 
L 121.194845 43.84479 
L 121.497178 43.993325 
L 121.950863 44.076828 
L 122.253029 44.227746 
L 122.5554 44.315884 
L 122.933383 44.513972 
L 123.462467 44.546578 
L 124.520758 44.904397 
L 124.82306 44.954621 
L 128.073453 45.894453 
L 128.904908 46.192257 
L 129.282853 46.541225 
L 130.189965 46.781242 
L 130.568061 47.22066 
L 131.852861 48.537567 
L 134.800815 51.208452 
L 136.69056 52.951799 
L 138.051131 54.079145 
L 139.411792 55.137313 
L 146.063565 59.681203 
L 146.592915 59.029158 
L 147.499785 58.121155 
L 150.750147 55.81928 
L 151.128009 55.599774 
L 151.506036 55.397703 
L 152.035083 55.193057 
L 152.488617 54.927229 
L 152.79095 54.798447 
L 153.24462 54.632586 
L 155.058618 54.044999 
L 156.117029 53.726928 
L 156.419226 53.700861 
L 157.250719 53.324112 
L 157.704253 53.315124 
L 158.157855 53.284548 
L 158.687015 53.16941 
L 160.425515 52.728463 
L 160.727878 52.601781 
L 160.954622 52.567119 
L 161.408126 52.381919 
L 162.239574 52.412098 
L 162.693175 52.060303 
L 163.146649 52.01595 
L 163.524593 51.907901 
L 164.053754 51.864465 
L 167.455233 50.901299 
L 167.682075 50.836622 
L 168.135541 50.90876 
L 168.5135 50.719177 
L 168.967011 50.709947 
L 169.949645 50.361923 
L 170.403231 50.224981 
L 171.839398 49.812263 
L 172.595424 49.647134 
L 177.130684 48.284912 
L 177.584149 48.121702 
L 179.851817 47.504062 
L 180.910206 47.210094 
L 181.96833 46.985819 
L 187.486443 45.610724 
L 189.829602 45.086117 
L 190.207531 45.017413 
L 191.265746 44.664637 
L 191.719287 44.58406 
L 196.33025 43.453606 
L 196.708134 43.312396 
L 197.615201 43.083331 
L 198.068742 42.918904 
L 198.446778 42.847431 
L 198.74908 42.778814 
L 199.202909 42.670808 
L 199.580521 42.510082 
L 199.958617 42.455972 
L 201.016703 42.209586 
L 202.604078 41.846909 
L 203.057649 41.757031 
L 203.662346 41.62497 
L 204.645009 41.399374 
L 205.930104 41.080099 
L 207.593 40.678032 
L 207.970938 40.565016 
L 208.348988 40.488133 
L 208.726804 40.388078 
L 209.860699 40.131264 
L 212.203971 39.588348 
L 213.337691 39.306298 
L 214.244789 39.219696 
L 214.773919 39.070023 
L 215.151856 39.048459 
L 218.78017 38.265524 
L 219.384866 38.179019 
L 219.762833 38.09485 
L 220.518693 38.008571 
L 225.356377 37.0324 
L 225.658717 36.970928 
L 226.036669 36.792318 
L 226.414614 36.752772 
L 226.792559 36.641795 
L 227.24607 36.519014 
L 228.606701 36.249495 
L 229.060212 36.203821 
L 229.89169 35.972565 
L 230.269642 35.846926 
L 231.252298 35.804163 
L 231.781405 35.667228 
L 232.083776 35.558347 
L 232.386102 35.464884 
L 232.839673 35.427829 
L 235.183006 34.854757 
L 235.636517 34.805761 
L 235.938774 34.672287 
L 236.316802 34.640769 
L 236.770283 34.508159 
L 237.072623 34.418311 
L 237.374994 34.348199 
L 237.75306 34.31412 
L 238.282038 34.175759 
L 246.672493 31.997063 
L 246.899184 32.091306 
L 248.108713 31.75915 
L 248.411016 31.723554 
L 248.713364 31.609648 
L 249.091361 31.560925 
L 249.469223 31.39319 
L 249.998527 31.327221 
L 252.719539 30.444921 
L 253.021956 30.346501 
L 253.399825 30.288289 
L 253.853411 30.122817 
L 257.330555 29.197129 
L 257.557254 29.158399 
L 258.01078 28.84715 
L 258.313135 28.815291 
L 258.766646 28.672751 
L 259.069229 28.604285 
L 259.446969 28.472008 
L 259.824982 28.37815 
L 260.202949 28.33204 
L 260.505222 28.22176 
L 260.807585 28.112014 
L 261.261089 28.043742 
L 262.394938 27.80541 
L 262.621727 27.757721 
L 262.999657 27.580979 
L 263.453289 27.539663 
L 264.133521 27.353007 
L 264.435892 27.256459 
L 264.813783 27.323046 
L 265.79647 27.035484 
L 266.779065 26.890161 
L 267.15701 26.740171 
L 267.534977 26.68441 
L 267.837333 26.555335 
L 268.366448 26.610306 
L 268.668819 26.669646 
L 268.895639 26.653637 
L 269.197972 26.511611 
L 269.575879 26.481183 
L 270.105009 26.280979 
L 271.843547 26.222981 
L 272.221529 26.213499 
L 272.5239 26.163319 
L 272.977373 26.061169 
L 273.279827 25.919776 
L 273.58219 25.781604 
L 274.640337 25.885211 
L 275.169475 25.683302 
L 276.756842 25.521237 
L 277.05941 25.334805 
L 277.588298 25.287199 
L 277.815125 25.25875 
L 278.268628 25.320596 
L 278.646573 25.22944 
L 279.100212 25.200127 
L 280.46073 24.993877 
L 280.838712 24.994667 
L 281.141015 24.932721 
L 281.519051 24.8604 
L 281.896912 24.763218 
L 284.240199 24.627648 
L 284.542615 24.69625 
L 285.373942 24.554102 
L 285.827506 24.614929 
L 286.054288 24.629258 
L 286.356652 24.548473 
L 286.734551 24.515117 
L 287.036899 24.401397 
L 287.566188 24.531351 
L 288.473111 24.343739 
L 288.851048 24.358691 
L 289.153434 24.355458 
L 289.606938 24.573201 
L 289.984966 24.339545 
L 290.438514 24.312423 
L 290.740794 24.344731 
L 291.043143 24.410175 
L 291.496797 24.293997 
L 292.403811 24.358014 
L 293.00844 24.242834 
L 293.537623 24.268454 
L 293.839933 24.434282 
L 294.89817 24.12865 
L 295.200572 24.144281 
L 295.654037 24.050557 
L 295.956378 24.106619 
L 296.334383 24.045173 
L 296.712411 24.093467 
L 297.241427 23.93958 
L 298.299657 23.782561 
L 298.828878 23.776072 
L 299.055599 23.759674 
L 299.509337 23.925566 
L 299.887236 23.768387 
L 300.642959 23.798301 
L 304.34681 23.70409 
L 304.724845 23.568081 
L 305.17828 23.780645 
L 305.480696 23.579812 
L 306.690066 23.70309 
L 307.067996 23.594933 
L 308.579888 23.696077 
L 310.923069 23.558057 
L 311.452146 23.613611 
L 311.905695 23.601206 
L 312.208036 23.590379 
L 312.586003 23.464836 
L 313.039506 23.493512 
L 313.49307 23.376552 
L 313.87106 23.448239 
L 314.929207 23.251159 
L 315.231593 23.02914 
L 315.987581 22.428498 
L 316.894625 21.773866 
L 317.423717 21.422987 
L 318.179531 20.764239 
L 319.615796 19.80953 
L 320.22047 19.383265 
L 321.883411 18.263699 
L 324.453465 16.832222 
L 326.116391 15.923521 
L 326.721148 15.628778 
L 328.762049 14.442834 
L 329.14007 14.200296 
L 329.366806 14.175356 
L 329.593581 14.193574 
L 329.895914 13.895494 
L 330.122612 13.77664 
L 330.500678 13.646304 
L 330.651727 13.63189 
L 331.029725 14.261877 
L 331.332126 14.64679 
L 332.012343 15.16574 
L 332.314759 15.608322 
L 332.692628 16.038614 
L 333.146238 16.378796 
L 334.053305 16.945151 
L 334.280019 16.964195 
L 335.187086 17.605391 
L 336.32098 18.174473 
L 336.925639 18.525508 
L 337.152406 18.573657 
L 337.530449 18.781799 
L 337.757117 18.860447 
L 338.135122 19.098378 
L 338.512999 19.224623 
L 338.815377 19.431981 
L 339.269115 19.482891 
L 339.646833 19.678338 
L 340.402677 19.817595 
L 341.309797 20.104979 
L 341.687726 20.286507 
L 341.99009 20.343976 
L 342.368102 20.586094 
L 342.821606 20.639628 
L 343.123961 20.728012 
L 343.50205 20.812087 
L 343.879813 20.925329 
L 344.257735 20.989531 
L 344.711329 21.033305 
L 344.938043 21.091789 
L 345.467271 21.314439 
L 346.827751 21.737853 
L 347.130197 21.841619 
L 348.112899 22.185186 
L 348.490715 22.184843 
L 348.944256 22.32931 
L 349.246657 22.449176 
L 349.624678 22.549959 
L 349.926973 22.619951 
L 350.682802 22.883975 
L 351.287521 23.039597 
L 351.589907 23.084194 
L 352.043417 23.043068 
L 352.723733 23.286998 
L 353.026142 23.285928 
L 353.328475 23.334195 
L 353.78197 23.611435 
L 354.235474 23.844135 
L 354.689181 23.958685 
L 355.747373 24.189575 
L 356.049593 24.247701 
L 356.65432 24.328966 
L 357.183661 24.503207 
L 357.788176 24.677977 
L 358.090494 24.818645 
L 358.997607 24.80841 
L 359.980278 25.062509 
L 360.35823 25.037147 
L 360.660533 25.082492 
L 361.718823 25.232501 
L 362.021126 25.287387 
L 362.701479 25.433554 
L 362.701479 25.433554 
" clip-path="url(#pca66881b70)" style="fill: none; stroke: #fa7c17; stroke-width: 0.4; stroke-linecap: round"/>
   </g>
   <g id="line2d_27">
    <path d="M 60.345785 37.357997 
L 60.79938 37.179822 
L 62.537872 36.442309 
L 65.485992 35.32449 
L 66.090559 34.532035 
L 68.20714 32.223741 
L 69.265279 31.324075 
L 70.09678 30.60246 
L 71.003794 29.867984 
L 71.3818 29.635505 
L 71.835333 29.290073 
L 72.137742 29.135365 
L 72.515634 28.864093 
L 72.818065 28.730649 
L 73.271485 28.391028 
L 73.876212 28.390967 
L 74.25427 28.633936 
L 74.556482 28.728037 
L 74.934434 28.99465 
L 75.388202 29.147445 
L 75.765927 29.285178 
L 76.068313 29.397768 
L 76.370662 29.51196 
L 76.748727 29.504197 
L 77.202178 29.665527 
L 77.428922 29.747391 
L 77.806821 29.960521 
L 78.184766 30.043596 
L 78.56271 30.219627 
L 78.789477 30.277438 
L 79.167535 30.496863 
L 79.545427 30.559301 
L 79.998908 30.818011 
L 80.528007 30.911416 
L 80.981571 31.02359 
L 81.283942 31.170782 
L 81.737665 31.227428 
L 82.11539 31.373725 
L 82.417791 31.460263 
L 82.720283 31.632086 
L 83.173673 31.659399 
L 83.551625 31.711004 
L 83.778331 31.803458 
L 84.080748 31.98354 
L 84.458677 32.010624 
L 84.91218 32.263637 
L 85.290118 32.297367 
L 85.6681 32.450815 
L 85.97066 32.449794 
L 86.423967 32.581275 
L 86.726383 32.673598 
L 87.331041 32.889632 
L 87.784651 32.956999 
L 88.0869 33.065408 
L 88.46486 33.165271 
L 88.767201 33.186106 
L 89.220734 33.301091 
L 89.447509 33.394193 
L 89.825484 33.638139 
L 90.203459 33.648347 
L 90.656924 33.823653 
L 90.959355 33.964062 
L 91.261719 34.025987 
L 91.564029 33.958404 
L 92.093114 34.07549 
L 92.395507 34.11462 
L 93.529319 34.474361 
L 93.756191 34.518272 
L 94.209725 34.685779 
L 94.511967 34.760664 
L 95.267894 35.109498 
L 95.570235 35.086439 
L 95.872628 35.087859 
L 96.401713 35.293158 
L 102.977927 37.451969 
L 103.355933 37.639962 
L 103.658349 37.686404 
L 104.111784 37.869857 
L 104.338536 37.901976 
L 104.792213 38.197665 
L 105.018851 38.238991 
L 105.396841 38.486457 
L 105.774733 38.442229 
L 106.152647 38.657141 
L 106.530645 38.698633 
L 107.513301 39.238584 
L 108.042393 39.426618 
L 108.344817 39.460349 
L 108.647075 39.524657 
L 109.025057 39.723831 
L 109.403009 39.740382 
L 110.990475 40.458791 
L 111.519643 40.563238 
L 111.897436 40.693183 
L 112.124317 40.78111 
L 112.502155 40.98848 
L 112.880138 41.032546 
L 113.333611 41.226837 
L 114.391856 41.561752 
L 114.694287 41.691984 
L 114.996681 41.729644 
L 115.374641 41.981327 
L 115.752457 42.004592 
L 116.20599 42.291299 
L 117.188662 42.512998 
L 117.49101 42.604073 
L 117.868962 42.632181 
L 118.851883 43.324472 
L 120.061139 43.464934 
L 120.363442 43.519604 
L 120.590141 43.53935 
L 121.119498 43.860398 
L 121.421619 43.9054 
L 121.724028 44.010625 
L 122.253105 43.983729 
L 122.93339 44.356237 
L 123.235806 44.436736 
L 123.538132 44.442614 
L 124.44529 44.998937 
L 125.125514 44.979314 
L 126.032574 45.338016 
L 126.561863 45.506037 
L 127.090804 45.789177 
L 127.39316 45.939611 
L 127.77112 45.998432 
L 128.14911 46.132751 
L 128.451458 46.146624 
L 128.980663 46.549478 
L 129.207294 46.563305 
L 130.265592 47.321463 
L 131.550566 48.771106 
L 132.68443 49.626271 
L 136.993052 53.618321 
L 140.092085 56.055002 
L 141.603992 57.102851 
L 142.208704 57.446809 
L 144.551908 59.207072 
L 145.005388 59.599634 
L 145.534669 59.847726 
L 145.988059 59.277017 
L 146.895104 58.500477 
L 147.424302 58.038833 
L 149.389524 56.551118 
L 149.91882 56.318085 
L 150.37227 55.992614 
L 151.279262 55.531531 
L 151.581761 55.434107 
L 151.884057 55.419186 
L 152.337552 55.192419 
L 152.640052 55.134489 
L 153.017936 54.901621 
L 153.396206 54.721702 
L 153.698319 54.622987 
L 153.924875 54.545206 
L 154.302925 54.32694 
L 154.680764 54.371152 
L 155.210015 54.065858 
L 156.117067 53.812593 
L 156.419392 53.782132 
L 156.797231 53.781769 
L 157.402011 53.667178 
L 157.704344 53.551933 
L 158.384667 53.201655 
L 158.913767 53.075898 
L 159.594052 53.016129 
L 160.047586 52.737364 
L 160.576731 52.667419 
L 165.792367 51.292158 
L 166.09473 51.313976 
L 166.623921 51.096523 
L 167.00176 50.949667 
L 167.304327 50.936444 
L 167.606471 50.928714 
L 168.286749 50.692696 
L 169.420666 50.44017 
L 169.647531 50.38534 
L 170.100921 50.183489 
L 170.478971 50.069043 
L 170.856788 50.042931 
L 171.083592 49.982185 
L 171.537088 49.773941 
L 171.839474 49.708745 
L 172.217419 49.622155 
L 172.595363 49.531026 
L 173.124501 49.413924 
L 174.031651 49.046117 
L 174.409467 48.979162 
L 175.241066 48.792576 
L 176.526025 48.356857 
L 176.828336 48.276718 
L 177.357504 48.11297 
L 197.010611 42.820465 
L 197.38851 42.771835 
L 197.766583 42.679196 
L 198.068893 42.622495 
L 198.446929 42.487765 
L 198.824684 42.408861 
L 199.202652 42.327514 
L 199.505008 42.254542 
L 199.807356 42.153088 
L 200.261222 42.127578 
L 200.638879 42.024605 
L 201.016847 41.915648 
L 201.394723 41.879659 
L 201.697087 41.806574 
L 201.999503 41.723896 
L 202.301836 41.711543 
L 202.755316 41.540022 
L 203.05768 41.557556 
L 203.511296 41.391238 
L 203.81366 41.329364 
L 204.191536 41.270699 
L 204.494028 41.195686 
L 204.871958 41.083416 
L 205.174223 41.024904 
L 205.552122 40.86503 
L 206.005731 40.778932 
L 206.383767 40.698275 
L 206.761537 40.587841 
L 208.348905 40.203412 
L 208.802446 40.207243 
L 209.709551 39.89093 
L 210.163092 39.859608 
L 210.541014 39.720739 
L 210.84334 39.703691 
L 211.296926 39.511685 
L 211.9016 39.439499 
L 212.279514 39.356837 
L 212.657451 39.222225 
L 212.95983 39.234875 
L 213.413363 39.097256 
L 213.715795 39.018495 
L 214.093649 38.927109 
L 214.396057 38.88402 
L 214.774017 38.767134 
L 215.076373 38.696432 
L 215.454332 38.567402 
L 215.832202 38.536787 
L 216.21029 38.399356 
L 216.663665 38.382636 
L 218.704634 38.043706 
L 219.082586 37.97045 
L 219.46047 37.912242 
L 220.443111 37.598691 
L 222.257382 37.193873 
L 222.635251 37.141263 
L 223.088852 37.086678 
L 227.170571 36.133796 
L 227.472904 35.968622 
L 227.926438 35.890992 
L 228.228847 35.769397 
L 228.606806 35.73463 
L 228.984774 35.683349 
L 229.362703 35.627319 
L 229.665051 35.58017 
L 230.1186 35.589192 
L 230.496515 35.587016 
L 230.723289 35.545079 
L 231.101196 35.390831 
L 231.479269 35.374256 
L 231.857062 35.252985 
L 232.159584 35.214216 
L 232.537355 35.082099 
L 232.839734 35.018654 
L 233.217663 34.831529 
L 233.595615 34.776002 
L 233.897971 34.693912 
L 234.275938 34.671967 
L 234.653876 34.529402 
L 234.956231 34.449642 
L 235.258564 34.330048 
L 235.712083 34.366568 
L 236.165639 34.217859 
L 236.468161 34.15839 
L 236.921544 34.053705 
L 237.828558 33.831883 
L 238.130951 33.722307 
L 238.508904 33.71802 
L 238.886825 33.522163 
L 239.26477 33.451068 
L 239.642745 33.334172 
L 240.020727 33.232042 
L 240.398627 33.090031 
L 240.700967 32.988976 
L 241.003346 32.860099 
L 241.910405 32.787931 
L 242.288358 32.582607 
L 243.951322 32.236871 
L 244.556162 32.144347 
L 244.933978 32.05569 
L 245.236349 31.926079 
L 245.614444 31.913258 
L 245.992185 31.734596 
L 246.370122 31.710052 
L 246.672478 31.565601 
L 247.050415 31.567751 
L 247.428397 31.436825 
L 247.806334 31.423823 
L 248.1844 31.248841 
L 248.486778 31.198194 
L 248.864617 31.088396 
L 249.242532 31.030923 
L 249.696073 30.911562 
L 252.039322 30.123156 
L 252.417297 29.919692 
L 252.795234 29.841937 
L 255.59204 29.034844 
L 255.894327 28.905449 
L 256.272302 28.79169 
L 256.650232 28.699383 
L 256.952588 28.57187 
L 257.254943 28.450694 
L 257.632896 28.513969 
L 258.086429 28.387644 
L 258.38877 28.224406 
L 258.691133 28.092553 
L 259.220324 28.098144 
L 260.429701 27.71666 
L 260.807646 27.636145 
L 261.790294 27.650405 
L 262.319394 27.461062 
L 262.546176 27.415531 
L 262.924257 27.246609 
L 263.302088 27.226918 
L 263.604413 27.11678 
L 264.058181 27.085388 
L 264.435877 27.050674 
L 264.813859 27.002801 
L 265.796613 26.831275 
L 266.098841 26.848809 
L 266.476846 26.709757 
L 266.930402 26.643024 
L 267.308316 26.623768 
L 268.442188 26.497266 
L 268.744612 26.461637 
L 269.046983 26.421517 
L 269.953967 26.169882 
L 270.558693 26.097217 
L 270.860936 26.131718 
L 271.087808 26.164519 
L 271.4657 26.032156 
L 271.768056 26.047147 
L 272.146016 25.889143 
L 272.523938 25.939921 
L 272.826301 25.787373 
L 273.355476 25.892113 
L 274.716017 25.600239 
L 274.942723 25.560626 
L 275.320773 25.658987 
L 275.774224 25.559946 
L 276.681283 25.521995 
L 277.739604 25.288138 
L 278.117503 25.403296 
L 278.571045 25.177973 
L 278.948959 25.180984 
L 279.478119 25.07592 
L 280.763124 25.076118 
L 281.065502 25.05894 
L 281.443439 24.959281 
L 281.745772 24.959009 
L 282.048249 24.847127 
L 282.652817 24.863863 
L 282.95518 24.970565 
L 283.182098 25.011333 
L 283.635616 24.88856 
L 283.862345 24.885265 
L 284.240177 24.709131 
L 285.071715 24.768499 
L 285.75197 24.856667 
L 286.054417 24.769146 
L 286.281123 24.755685 
L 286.583577 24.835702 
L 287.036975 24.661661 
L 287.339338 24.744295 
L 287.792871 24.590637 
L 288.170884 24.658766 
L 288.548814 24.516428 
L 288.926713 24.529992 
L 289.380239 24.520832 
L 289.68261 24.382872 
L 289.984958 24.384153 
L 290.514096 24.405191 
L 290.967675 24.414319 
L 291.270038 24.303689 
L 291.64802 24.298372 
L 291.950376 24.231441 
L 292.479499 24.285971 
L 292.781741 24.209449 
L 293.159678 24.185709 
L 293.537691 24.140021 
L 293.915582 24.048889 
L 294.218029 24.123617 
L 294.520324 24.213794 
L 294.898276 24.194406 
L 295.200685 24.253759 
L 295.654181 24.204704 
L 295.880902 24.145051 
L 296.258832 23.814943 
L 296.712403 23.897559 
L 297.014729 23.859732 
L 297.392711 23.934879 
L 297.619425 23.90494 
L 298.148668 24.041311 
L 298.451024 23.962834 
L 298.753478 23.955924 
L 299.055652 23.828415 
L 300.113928 23.957313 
L 301.172188 23.790248 
L 301.701242 23.872472 
L 302.003651 23.915028 
L 302.305954 23.886767 
L 302.608362 23.846988 
L 302.986239 23.961679 
L 303.364327 23.791498 
L 303.817982 23.837193 
L 304.120118 23.846706 
L 304.34687 23.891071 
L 304.800532 23.753561 
L 305.178462 23.845814 
L 305.631889 23.767163 
L 306.0854 23.718058 
L 309.260128 23.635172 
L 309.411306 23.629152 
L 309.789281 23.404824 
L 310.167233 23.451485 
L 310.469664 23.358708 
L 310.771922 23.428712 
L 311.301021 23.291057 
L 312.056918 23.345196 
L 312.283768 23.071126 
L 312.661622 22.721017 
L 313.039597 22.303674 
L 313.342006 22.119342 
L 313.568704 22.062413 
L 314.77815 21.01154 
L 315.156064 20.63496 
L 315.534009 20.365671 
L 315.911969 20.067458 
L 317.574903 18.830922 
L 323.395273 15.350015 
L 323.92438 15.110385 
L 324.907135 14.460282 
L 326.343234 13.879672 
L 327.099206 13.285818 
L 327.552672 13.242388 
L 327.703827 13.139124 
L 327.855035 13.319543 
L 328.308644 13.954676 
L 328.611008 14.193112 
L 329.366829 15.086153 
L 329.820415 15.479908 
L 330.047129 15.682364 
L 330.425059 15.97774 
L 330.727407 16.228323 
L 331.105321 16.571329 
L 331.407677 16.67521 
L 331.861286 16.963806 
L 332.088045 17.112553 
L 332.465952 17.5099 
L 332.84401 17.632547 
L 333.221887 17.886422 
L 333.524394 17.895629 
L 333.902127 18.127121 
L 334.204483 18.206813 
L 334.58248 18.496594 
L 335.111542 18.557122 
L 335.413898 18.624321 
L 335.716254 18.634576 
L 337.37921 19.574377 
L 337.832948 19.618167 
L 338.210666 19.739179 
L 338.51309 19.782008 
L 338.8154 19.904154 
L 339.268971 19.97223 
L 339.646939 20.162378 
L 339.949264 20.266628 
L 340.251635 20.474873 
L 340.780697 20.570672 
L 341.158702 20.644152 
L 341.385424 20.742282 
L 341.763406 20.950348 
L 342.216924 21.076474 
L 343.27526 21.273312 
L 343.501974 21.34019 
L 343.880123 21.558088 
L 344.257818 21.567231 
L 345.240436 21.937253 
L 346.298749 22.088599 
L 346.827857 22.320212 
L 347.205983 22.399911 
L 347.810483 22.5239 
L 348.112831 22.75138 
L 349.019883 22.827937 
L 349.775787 22.933517 
L 350.380476 23.209356 
L 350.607281 23.290417 
L 350.909629 23.419106 
L 351.287589 23.447498 
L 351.665511 23.58343 
L 351.967874 23.575582 
L 352.345819 23.756452 
L 352.723801 23.699678 
L 353.177327 24.02856 
L 353.555219 24.103103 
L 354.462324 24.347541 
L 354.91585 24.32236 
L 355.898483 24.576683 
L 356.200983 24.584665 
L 356.654425 24.745144 
L 357.032347 24.73493 
L 357.485873 24.8578 
L 358.468522 24.985946 
L 358.84655 25.212114 
L 359.224449 25.214245 
L 359.602356 25.291229 
L 359.980316 25.33087 
L 361.265456 25.427479 
L 361.567774 25.624135 
L 362.625951 25.649176 
L 362.625951 25.649176 
" clip-path="url(#pca66881b70)" style="fill: none; stroke: #328c06; stroke-width: 0.4; stroke-linecap: round"/>
   </g>
   <g id="patch_3">
    <path d="M 45.228 62.26072 
L 45.228 10.8 
" style="fill: none; stroke: #000000; stroke-linejoin: miter; stroke-linecap: square"/>
   </g>
   <g id="patch_4">
    <path d="M 45.228 62.26072 
L 377.81928 62.26072 
" style="fill: none; stroke: #000000; stroke-linejoin: miter; stroke-linecap: square"/>
   </g>
   <g id="legend_1">
    <g id="line2d_28">
     <path d="M 346.563186 31.505563 
L 353.563186 31.505563 
L 360.563186 31.505563 
" style="fill: none; stroke: #2a2eec; stroke-width: 0.4; stroke-linecap: round"/>
    </g>
    <g id="text_5">
     <!-- A -->
     <g style="fill: #262626" transform="translate(366.163186 33.955563) scale(0.07 -0.07)">
      <defs>
       <path id="DejaVuSerif-41" d="M 1281 1691 
L 2994 1691 
L 2138 3909 
L 1281 1691 
z
M -38 0 
L -38 331 
L 372 331 
L 2034 4666 
L 2559 4666 
L 4225 331 
L 4684 331 
L 4684 0 
L 2988 0 
L 2988 331 
L 3506 331 
L 3116 1356 
L 1153 1356 
L 763 331 
L 1275 331 
L 1275 0 
L -38 0 
z
" transform="scale(0.015625)"/>
      </defs>
      <use xlink:href="#DejaVuSerif-41"/>
     </g>
    </g>
    <g id="line2d_29">
     <path d="M 346.563186 41.780251 
L 353.563186 41.780251 
L 360.563186 41.780251 
" style="fill: none; stroke: #fa7c17; stroke-width: 0.4; stroke-linecap: round"/>
    </g>
    <g id="text_6">
     <!-- B -->
     <g style="fill: #262626" transform="translate(366.163186 44.230251) scale(0.07 -0.07)">
      <defs>
       <path id="DejaVuSerif-42" d="M 1581 331 
L 2516 331 
Q 3078 331 3337 575 
Q 3597 819 3597 1350 
Q 3597 1878 3339 2120 
Q 3081 2363 2516 2363 
L 1581 2363 
L 1581 331 
z
M 1581 2694 
L 2375 2694 
Q 2888 2694 3123 2891 
Q 3359 3088 3359 3513 
Q 3359 3941 3123 4136 
Q 2888 4331 2375 4331 
L 1581 4331 
L 1581 2694 
z
M 353 0 
L 353 331 
L 947 331 
L 947 4331 
L 353 4331 
L 353 4666 
L 2656 4666 
Q 3363 4666 3720 4377 
Q 4078 4088 4078 3513 
Q 4078 3097 3829 2850 
Q 3581 2603 3103 2547 
Q 3697 2472 4005 2167 
Q 4313 1863 4313 1350 
Q 4313 656 3875 328 
Q 3438 0 2509 0 
L 353 0 
z
" transform="scale(0.015625)"/>
      </defs>
      <use xlink:href="#DejaVuSerif-42"/>
     </g>
    </g>
    <g id="line2d_30">
     <path d="M 346.563186 52.054938 
L 353.563186 52.054938 
L 360.563186 52.054938 
" style="fill: none; stroke: #328c06; stroke-width: 0.4; stroke-linecap: round"/>
    </g>
    <g id="text_7">
     <!-- C -->
     <g style="fill: #262626" transform="translate(366.163186 54.504938) scale(0.07 -0.07)">
      <defs>
       <path id="DejaVuSerif-43" d="M 4513 1234 
Q 4306 581 3820 245 
Q 3334 -91 2591 -91 
Q 2134 -91 1743 65 
Q 1353 222 1050 525 
Q 700 875 529 1320 
Q 359 1766 359 2328 
Q 359 3416 987 4083 
Q 1616 4750 2644 4750 
Q 3025 4750 3456 4650 
Q 3888 4550 4384 4347 
L 4384 3272 
L 4031 3272 
Q 3916 3859 3567 4137 
Q 3219 4416 2591 4416 
Q 1844 4416 1459 3886 
Q 1075 3356 1075 2328 
Q 1075 1303 1459 773 
Q 1844 244 2591 244 
Q 3113 244 3450 492 
Q 3788 741 3938 1234 
L 4513 1234 
z
" transform="scale(0.015625)"/>
      </defs>
      <use xlink:href="#DejaVuSerif-43"/>
     </g>
    </g>
   </g>
  </g>
  <g id="axes_2">
   <g id="patch_5">
    <path d="M 45.228 124.811912 
L 377.81928 124.811912 
L 377.81928 73.351192 
L 45.228 73.351192 
z
" style="fill: #ffffff"/>
   </g>
   <g id="matplotlib.axis_3">
    <g id="xtick_10">
     <g id="line2d_31">
      <path d="M 60.345785 124.811912 
L 60.345785 73.351192 
" clip-path="url(#p610ec69e05)" style="fill: none; stroke: #b0b0b0; stroke-width: 0.1; stroke-linecap: round"/>
     </g>
     <g id="line2d_32"/>
    </g>
    <g id="xtick_11">
     <g id="line2d_33">
      <path d="M 98.140251 124.811912 
L 98.140251 73.351192 
" clip-path="url(#p610ec69e05)" style="fill: none; stroke: #b0b0b0; stroke-width: 0.1; stroke-linecap: round"/>
     </g>
     <g id="line2d_34"/>
    </g>
    <g id="xtick_12">
     <g id="line2d_35">
      <path d="M 135.934717 124.811912 
L 135.934717 73.351192 
" clip-path="url(#p610ec69e05)" style="fill: none; stroke: #b0b0b0; stroke-width: 0.1; stroke-linecap: round"/>
     </g>
     <g id="line2d_36"/>
    </g>
    <g id="xtick_13">
     <g id="line2d_37">
      <path d="M 173.729182 124.811912 
L 173.729182 73.351192 
" clip-path="url(#p610ec69e05)" style="fill: none; stroke: #b0b0b0; stroke-width: 0.1; stroke-linecap: round"/>
     </g>
     <g id="line2d_38"/>
    </g>
    <g id="xtick_14">
     <g id="line2d_39">
      <path d="M 211.523648 124.811912 
L 211.523648 73.351192 
" clip-path="url(#p610ec69e05)" style="fill: none; stroke: #b0b0b0; stroke-width: 0.1; stroke-linecap: round"/>
     </g>
     <g id="line2d_40"/>
    </g>
    <g id="xtick_15">
     <g id="line2d_41">
      <path d="M 249.318113 124.811912 
L 249.318113 73.351192 
" clip-path="url(#p610ec69e05)" style="fill: none; stroke: #b0b0b0; stroke-width: 0.1; stroke-linecap: round"/>
     </g>
     <g id="line2d_42"/>
    </g>
    <g id="xtick_16">
     <g id="line2d_43">
      <path d="M 287.112579 124.811912 
L 287.112579 73.351192 
" clip-path="url(#p610ec69e05)" style="fill: none; stroke: #b0b0b0; stroke-width: 0.1; stroke-linecap: round"/>
     </g>
     <g id="line2d_44"/>
    </g>
    <g id="xtick_17">
     <g id="line2d_45">
      <path d="M 324.907044 124.811912 
L 324.907044 73.351192 
" clip-path="url(#p610ec69e05)" style="fill: none; stroke: #b0b0b0; stroke-width: 0.1; stroke-linecap: round"/>
     </g>
     <g id="line2d_46"/>
    </g>
    <g id="xtick_18">
     <g id="line2d_47">
      <path d="M 362.70151 124.811912 
L 362.70151 73.351192 
" clip-path="url(#p610ec69e05)" style="fill: none; stroke: #b0b0b0; stroke-width: 0.1; stroke-linecap: round"/>
     </g>
     <g id="line2d_48"/>
    </g>
   </g>
   <g id="matplotlib.axis_4">
    <g id="ytick_4">
     <g id="line2d_49">
      <path d="M 45.228 118.378555 
L 377.81928 118.378555 
" clip-path="url(#p610ec69e05)" style="fill: none; stroke: #b0b0b0; stroke-width: 0.1; stroke-linecap: round"/>
     </g>
     <g id="line2d_50"/>
     <g id="text_8">
      <!-- −50 -->
      <g style="fill: #262626" transform="translate(26.954719 121.038008) scale(0.07 -0.07)">
       <defs>
        <path id="DejaVuSerif-35" d="M 3219 4666 
L 3219 4153 
L 1081 4153 
L 1081 2816 
Q 1244 2928 1461 2984 
Q 1678 3041 1947 3041 
Q 2703 3041 3140 2622 
Q 3578 2203 3578 1478 
Q 3578 738 3136 323 
Q 2694 -91 1894 -91 
Q 1572 -91 1234 -12 
Q 897 66 544 225 
L 544 1131 
L 897 1131 
Q 925 688 1179 453 
Q 1434 219 1894 219 
Q 2388 219 2653 544 
Q 2919 869 2919 1478 
Q 2919 2084 2655 2407 
Q 2391 2731 1894 2731 
Q 1613 2731 1398 2631 
Q 1184 2531 1019 2322 
L 750 2322 
L 750 4666 
L 3219 4666 
z
" transform="scale(0.015625)"/>
       </defs>
       <use xlink:href="#DejaVuSerif-2212"/>
       <use xlink:href="#DejaVuSerif-35" x="83.789062"/>
       <use xlink:href="#DejaVuSerif-30" x="147.412109"/>
      </g>
     </g>
    </g>
    <g id="ytick_5">
     <g id="line2d_51">
      <path d="M 45.228 98.641799 
L 377.81928 98.641799 
" clip-path="url(#p610ec69e05)" style="fill: none; stroke: #b0b0b0; stroke-width: 0.1; stroke-linecap: round"/>
     </g>
     <g id="line2d_52"/>
     <g id="text_9">
      <!-- 0 -->
      <g style="fill: #262626" transform="translate(37.27425 101.301252) scale(0.07 -0.07)">
       <use xlink:href="#DejaVuSerif-30"/>
      </g>
     </g>
    </g>
    <g id="ytick_6">
     <g id="line2d_53">
      <path d="M 45.228 78.905044 
L 377.81928 78.905044 
" clip-path="url(#p610ec69e05)" style="fill: none; stroke: #b0b0b0; stroke-width: 0.1; stroke-linecap: round"/>
     </g>
     <g id="line2d_54"/>
     <g id="text_10">
      <!-- 50 -->
      <g style="fill: #262626" transform="translate(32.8205 81.564497) scale(0.07 -0.07)">
       <use xlink:href="#DejaVuSerif-35"/>
       <use xlink:href="#DejaVuSerif-30" x="63.623047"/>
      </g>
     </g>
    </g>
    <g id="text_11">
     <!-- $Y_D$ [N] -->
     <g style="fill: #262626" transform="translate(21.706906 108.561552) rotate(-90) scale(0.06 -0.06)">
      <defs>
       <path id="DejaVuSans-Oblique-59" d="M 403 4666 
L 1081 4666 
L 1953 2747 
L 3616 4666 
L 4325 4666 
L 2209 2222 
L 1778 0 
L 1147 0 
L 1575 2222 
L 403 4666 
z
" transform="scale(0.015625)"/>
      </defs>
      <use xlink:href="#DejaVuSans-Oblique-59" transform="translate(0 0.015625)"/>
      <use xlink:href="#DejaVuSans-Oblique-44" transform="translate(61.083984 -16.390625) scale(0.7)"/>
      <use xlink:href="#DejaVuSerif-20" transform="translate(117.719727 0.015625)"/>
      <use xlink:href="#DejaVuSerif-5b" transform="translate(149.506836 0.015625)"/>
      <use xlink:href="#DejaVuSerif-4e" transform="translate(188.520508 0.015625)"/>
      <use xlink:href="#DejaVuSerif-5d" transform="translate(276.020508 0.015625)"/>
     </g>
    </g>
   </g>
   <g id="line2d_55">
    <path d="M 60.345785 101.336033 
L 60.723836 101.212209 
L 64.200859 99.659525 
L 65.561558 99.07182 
L 65.939336 99.20548 
L 66.317356 99.309652 
L 66.770822 99.398103 
L 70.096727 99.964162 
L 71.155033 100.042746 
L 71.684102 100.070432 
L 73.800623 99.83633 
L 74.78346 99.009973 
L 75.010046 98.885645 
L 75.766018 98.188405 
L 76.219469 97.893138 
L 76.521817 97.68439 
L 76.97535 97.386986 
L 77.428899 97.059591 
L 78.335989 96.515118 
L 78.638269 96.402369 
L 79.167399 96.156794 
L 81.888601 94.740204 
L 82.191032 94.600911 
L 82.493312 94.464873 
L 82.871302 94.412389 
L 83.173635 94.247492 
L 83.627154 94.176107 
L 84.005098 94.065355 
L 84.307477 93.954737 
L 84.60984 93.795474 
L 84.987769 93.740946 
L 85.365729 93.607627 
L 85.66807 93.601913 
L 86.121611 93.438726 
L 86.499533 93.384038 
L 87.406638 93.110373 
L 88.389271 93.090337 
L 97.006394 91.099133 
L 97.384347 90.955202 
L 97.762306 90.906092 
L 98.215825 90.727229 
L 99.803306 90.235495 
L 100.483508 89.954184 
L 101.768505 89.476768 
L 102.44879 89.202506 
L 102.826772 89.07875 
L 104.26303 88.540154 
L 104.565303 88.460732 
L 104.867658 88.389747 
L 105.321184 88.12184 
L 105.699137 87.911 
L 106.152783 87.76315 
L 106.832978 87.526538 
L 109.17619 86.522346 
L 110.007683 86.213874 
L 111.292725 85.71402 
L 112.426574 85.148831 
L 112.72896 85.049852 
L 113.787243 84.54111 
L 114.089553 84.442142 
L 114.543049 84.195003 
L 114.845465 84.077056 
L 116.659645 83.11878 
L 116.961933 83.076009 
L 118.095699 82.390207 
L 119.002766 82.087019 
L 120.061011 81.319065 
L 120.590126 81.143861 
L 120.817006 81.046605 
L 121.194845 81.04676 
L 121.72399 80.65531 
L 122.933458 80.183501 
L 123.311546 80.100491 
L 123.68931 79.903329 
L 123.991779 79.854083 
L 124.369587 79.699094 
L 124.747623 79.651234 
L 125.276647 79.417258 
L 126.561689 79.226175 
L 126.788441 79.2738 
L 127.92226 78.80903 
L 128.224615 78.773761 
L 128.60262 78.610757 
L 128.980633 78.590105 
L 129.358789 78.469021 
L 129.661032 78.41252 
L 130.038757 78.267863 
L 130.416921 78.324901 
L 131.47497 77.53519 
L 132.533199 77.064065 
L 133.289111 76.570191 
L 133.667222 76.435973 
L 134.045031 76.265648 
L 134.423112 76.158508 
L 135.254431 76.079207 
L 135.859097 75.905995 
L 138.958289 75.803092 
L 140.394562 76.015697 
L 146.290423 77.534769 
L 147.273086 79.100089 
L 147.802148 79.903954 
L 148.558083 80.873246 
L 150.825743 82.99799 
L 154.378491 84.890987 
L 155.13429 85.105791 
L 155.587854 85.241916 
L 156.268124 85.509159 
L 156.948402 85.497474 
L 158.611381 85.757095 
L 159.971981 85.798993 
L 160.501104 85.834436 
L 160.879049 85.816582 
L 161.257031 85.8552 
L 161.710572 85.850464 
L 162.012913 85.848389 
L 162.39091 85.850891 
L 164.583027 86.176056 
L 165.490162 86.327655 
L 172.292962 87.480761 
L 172.67096 87.57675 
L 173.048919 87.709409 
L 173.502476 87.826204 
L 174.258305 88.109085 
L 177.584218 89.690037 
L 179.62527 90.819473 
L 180.834693 91.279787 
L 181.741654 91.658498 
L 182.648714 91.943238 
L 183.631445 92.210017 
L 184.084858 92.35993 
L 184.916344 92.584984 
L 186.806067 93.082515 
L 187.713104 93.133715 
L 192.172881 93.782861 
L 192.701996 93.976361 
L 194.667354 94.661026 
L 195.120865 94.782938 
L 196.027902 95.106193 
L 197.842172 95.758885 
L 198.220109 95.89458 
L 198.522336 95.998984 
L 198.975923 96.191769 
L 199.429419 96.350548 
L 202.377455 97.454696 
L 203.360051 97.760443 
L 204.040396 97.942685 
L 204.871829 98.211569 
L 205.325499 98.34789 
L 205.627764 98.448752 
L 206.005648 98.592287 
L 206.459295 98.71879 
L 207.517502 98.902702 
L 208.349003 99.053387 
L 208.953624 99.186193 
L 209.331644 99.263366 
L 214.018044 100.286927 
L 214.773926 100.521977 
L 217.419713 101.197303 
L 217.722023 101.265974 
L 218.099854 101.34792 
L 218.477927 101.446701 
L 218.855759 101.493472 
L 219.158099 101.608459 
L 219.536142 101.747521 
L 219.838385 101.837022 
L 220.216473 101.951952 
L 220.51895 102.017177 
L 220.896675 102.138279 
L 221.199061 102.156134 
L 221.652564 102.309858 
L 221.954905 102.420429 
L 222.332842 102.574604 
L 222.710802 102.675235 
L 223.16432 102.868015 
L 224.676152 103.363407 
L 225.280901 103.594028 
L 225.658763 103.784571 
L 226.036715 103.830927 
L 226.79268 104.072034 
L 228.68232 104.683204 
L 229.21142 104.853988 
L 231.554707 105.604749 
L 231.857055 105.683754 
L 232.234977 105.839445 
L 232.612952 105.960611 
L 232.915292 106.076821 
L 233.293222 106.146021 
L 233.671212 106.296219 
L 234.12473 106.447568 
L 234.805053 106.650963 
L 237.299571 107.431018 
L 237.602169 107.534539 
L 237.979789 107.67543 
L 238.357771 107.861707 
L 238.735859 107.96746 
L 239.491522 108.216713 
L 240.625499 108.710017 
L 241.003331 108.839611 
L 241.381434 109.069002 
L 241.985972 109.190404 
L 243.422161 109.617342 
L 247.201646 110.74093 
L 247.503979 110.850931 
L 247.881878 110.944871 
L 248.184272 111.077434 
L 248.562262 111.243343 
L 248.940229 111.376287 
L 249.544895 111.518581 
L 251.66134 112.177082 
L 252.039277 112.310925 
L 252.417259 112.36824 
L 252.870884 112.518835 
L 253.173285 112.631196 
L 253.475466 112.700789 
L 253.777845 112.745359 
L 254.306967 112.953163 
L 255.289631 113.278241 
L 255.591994 113.391817 
L 255.969947 113.44882 
L 256.423473 113.595195 
L 258.162003 114.030491 
L 258.539925 114.220023 
L 260.202957 114.612498 
L 261.185643 114.850635 
L 261.563535 114.886009 
L 262.01725 115.087094 
L 262.470572 115.168803 
L 262.772935 115.14872 
L 262.999694 115.156863 
L 263.377684 115.312813 
L 263.755622 115.35445 
L 264.133566 115.46502 
L 264.511473 115.548505 
L 264.813821 115.552801 
L 265.191796 115.589374 
L 266.098886 115.774594 
L 266.703696 115.830789 
L 267.157101 115.866626 
L 267.837462 115.86747 
L 268.971281 116.2265 
L 270.331889 116.443092 
L 271.087687 116.595052 
L 272.070517 116.691332 
L 273.657847 117.01665 
L 273.960248 117.124863 
L 274.489204 117.123669 
L 275.623038 117.234031 
L 275.849851 117.286698 
L 276.227833 117.420944 
L 276.530234 117.459194 
L 276.9837 117.570583 
L 279.478233 117.936737 
L 280.385247 118.076821 
L 280.763093 118.071753 
L 281.216695 118.266641 
L 281.519104 118.406902 
L 281.821399 118.512789 
L 282.274872 118.444059 
L 283.257536 118.599891 
L 283.559967 118.571153 
L 284.013478 118.710541 
L 284.315834 118.855555 
L 284.61828 118.933546 
L 284.99627 118.92864 
L 285.298505 119.00411 
L 285.676351 118.98264 
L 286.12993 119.210384 
L 286.432286 119.226772 
L 286.810306 119.295921 
L 287.188228 119.310981 
L 287.56649 119.347008 
L 287.944049 119.435043 
L 288.39756 119.487461 
L 289.077966 119.556017 
L 289.304831 119.564195 
L 289.758206 119.651088 
L 290.060562 119.725905 
L 290.514081 119.765253 
L 292.857549 119.904017 
L 293.310871 119.875974 
L 293.613287 119.962375 
L 293.915605 119.975758 
L 294.293527 119.959879 
L 294.67151 120.017684 
L 295.654113 119.879319 
L 296.183273 119.929194 
L 296.485697 119.927993 
L 298.148623 120.069663 
L 299.131196 120.118305 
L 299.7359 120.241339 
L 302.910756 120.719603 
L 303.212998 120.771321 
L 303.968903 120.666201 
L 304.724769 120.780534 
L 305.25402 120.805966 
L 305.631889 120.771648 
L 307.219204 120.903905 
L 307.89955 120.709033 
L 308.655432 120.813431 
L 309.86487 120.842172 
L 310.242852 120.747064 
L 310.620789 120.724642 
L 311.678966 120.695052 
L 313.493236 120.534026 
L 313.87103 120.649682 
L 316.592322 121.557911 
L 317.574918 121.655442 
L 318.179652 121.744332 
L 320.74966 121.627573 
L 324.151117 120.866354 
L 325.058192 120.593167 
L 325.511937 120.467902 
L 325.889919 120.352652 
L 326.267637 120.23938 
L 326.948036 119.988986 
L 327.477098 119.907992 
L 327.855171 119.675091 
L 328.459784 119.713303 
L 328.837638 119.629709 
L 329.064413 119.560556 
L 329.291179 119.199363 
L 330.274002 117.433168 
L 330.8786 116.595696 
L 331.181114 116.350618 
L 332.087993 115.228004 
L 332.919486 114.437045 
L 333.221849 114.242208 
L 333.675368 113.779904 
L 334.053305 113.524488 
L 334.506823 113.190376 
L 334.884783 112.868389 
L 335.716239 112.338881 
L 336.245512 112.208962 
L 336.623306 112.05476 
L 337.530464 111.703235 
L 337.908318 111.516699 
L 338.966593 111.30859 
L 339.193337 111.232565 
L 339.646976 111.245171 
L 340.024838 111.107168 
L 340.327322 111.107448 
L 340.856324 110.94512 
L 341.234261 110.797271 
L 341.5367 110.814965 
L 341.83904 110.785351 
L 342.141328 110.752206 
L 342.519242 110.76152 
L 342.821674 110.7235 
L 343.350713 110.722081 
L 345.316078 110.596187 
L 345.618381 110.551705 
L 346.147526 110.562407 
L 346.525743 110.605398 
L 346.827932 110.550895 
L 347.281398 110.539462 
L 348.188458 110.537659 
L 348.56638 110.544016 
L 348.868781 110.606802 
L 349.322337 110.571023 
L 349.624655 110.584705 
L 350.002547 110.576144 
L 350.304895 110.555431 
L 350.607371 110.501123 
L 351.060799 110.537729 
L 351.287574 110.541779 
L 351.741115 110.664239 
L 352.04347 110.604751 
L 352.496974 110.686097 
L 352.950651 110.669049 
L 354.689075 110.534442 
L 354.991424 110.515108 
L 355.444942 110.586549 
L 355.974186 110.515151 
L 356.352047 110.453272 
L 356.654357 110.430391 
L 356.956728 110.334788 
L 357.410247 110.346662 
L 357.712595 110.298538 
L 358.090585 110.306823 
L 358.468514 110.152684 
L 358.846474 110.122642 
L 359.224396 110.018605 
L 359.602326 109.947116 
L 359.904742 109.925936 
L 360.207098 109.911837 
L 360.585095 109.78197 
L 360.963085 109.732833 
L 361.340939 109.666175 
L 362.323595 109.605847 
L 362.701495 109.487117 
L 362.701495 109.487117 
" clip-path="url(#p610ec69e05)" style="fill: none; stroke: #2a2eec; stroke-width: 0.4; stroke-linecap: round"/>
   </g>
   <g id="line2d_56">
    <path d="M 60.345785 101.942571 
L 60.723685 101.808326 
L 64.049575 100.15342 
L 65.561361 99.459582 
L 66.014902 99.590856 
L 67.602285 99.953104 
L 68.736172 100.158717 
L 69.794425 100.297209 
L 70.172286 100.366815 
L 70.701499 100.353827 
L 72.137696 100.4242 
L 73.724951 100.172527 
L 74.480863 99.376039 
L 75.539085 98.522653 
L 75.841547 98.30742 
L 76.370639 97.841697 
L 79.091825 96.025079 
L 79.394211 95.86472 
L 79.847707 95.576634 
L 82.4177 94.336512 
L 83.627161 93.958043 
L 84.005181 93.831764 
L 84.307454 93.794017 
L 84.76095 93.571887 
L 85.138955 93.548904 
L 86.121603 93.182203 
L 87.179811 92.980131 
L 87.708941 92.85874 
L 90.732521 92.257626 
L 91.034952 92.221047 
L 91.412889 92.199396 
L 91.866324 92.080914 
L 92.168695 92.039744 
L 92.546731 91.955057 
L 92.848958 91.914627 
L 93.302499 91.795715 
L 93.604832 91.764716 
L 94.058388 91.649231 
L 95.797062 91.240899 
L 96.326139 91.108845 
L 97.989013 90.636394 
L 99.274062 90.177829 
L 99.65206 90.040464 
L 99.95431 89.988784 
L 101.012751 89.528791 
L 101.466134 89.280637 
L 101.768542 89.227193 
L 102.070807 89.245171 
L 103.658273 88.459042 
L 104.111693 88.382644 
L 105.245527 87.711939 
L 105.77465 87.500562 
L 106.757336 87.222687 
L 107.135304 87.026574 
L 107.739985 86.686222 
L 108.118013 86.612851 
L 108.495882 86.576503 
L 110.083295 85.735664 
L 112.955629 84.479487 
L 113.257977 84.30775 
L 114.013889 84.1348 
L 114.467468 83.888926 
L 115.223478 83.633716 
L 116.130349 83.271866 
L 116.961842 82.817416 
L 117.264288 82.680947 
L 117.717731 82.6401 
L 119.229555 81.942445 
L 119.985407 81.705411 
L 120.43894 81.562637 
L 120.968093 81.276781 
L 122.479804 80.577709 
L 123.084508 80.279365 
L 123.462467 80.160742 
L 124.520758 79.678302 
L 124.974647 79.528806 
L 125.730143 79.157945 
L 126.63721 78.868786 
L 126.939808 78.848514 
L 127.77118 78.512914 
L 128.224578 78.45088 
L 128.602583 78.323436 
L 128.904908 78.246313 
L 129.282853 77.973623 
L 130.265471 77.784558 
L 131.021383 77.247563 
L 132.004024 76.667454 
L 133.666958 76.138628 
L 134.649659 75.955506 
L 136.31257 75.743233 
L 137.900059 75.832382 
L 146.063565 77.077377 
L 146.743881 78.192064 
L 147.348554 79.013957 
L 149.389501 81.233722 
L 150.145413 81.815716 
L 151.128009 82.569955 
L 151.581587 82.86773 
L 152.413119 83.39027 
L 152.79095 83.632378 
L 153.924814 84.087006 
L 154.302736 84.315339 
L 154.680741 84.427443 
L 155.512371 84.805395 
L 156.117029 84.976896 
L 156.494815 85.049503 
L 157.175123 85.317244 
L 157.704253 85.345972 
L 158.157855 85.367215 
L 159.064846 85.549366 
L 159.820766 85.572704 
L 160.198688 85.567612 
L 160.803392 85.802924 
L 161.105732 85.898606 
L 161.4837 85.925325 
L 162.164204 85.818302 
L 162.76881 86.102309 
L 163.146649 86.118143 
L 163.60019 86.168312 
L 164.053754 86.180348 
L 167.379787 86.788305 
L 167.682075 86.902509 
L 168.135541 86.864304 
L 168.589157 87.016559 
L 168.967011 87.042996 
L 170.025241 87.334919 
L 170.781221 87.513699 
L 172.519767 87.992569 
L 176.29913 89.199485 
L 178.188891 89.774518 
L 181.136965 90.745766 
L 189.451619 93.144994 
L 189.905198 93.229788 
L 190.358777 93.409149 
L 191.719287 93.864578 
L 193.306708 94.235938 
L 200.865593 95.78704 
L 201.319097 95.953032 
L 202.226194 96.328099 
L 202.755362 96.49359 
L 203.586749 96.83961 
L 204.720591 97.279559 
L 206.459227 97.912162 
L 207.290645 98.236892 
L 208.348988 98.580732 
L 208.953647 98.774248 
L 212.430805 99.731866 
L 217.948624 101.393434 
L 218.326704 101.497513 
L 219.233832 101.678686 
L 219.762833 101.886429 
L 220.594281 102.084503 
L 221.198978 102.232195 
L 221.5769 102.381742 
L 222.559579 102.679687 
L 223.088769 102.870281 
L 223.769001 103.110318 
L 224.600699 103.275119 
L 224.978402 103.34085 
L 225.356377 103.444891 
L 225.658717 103.540487 
L 226.036669 103.745719 
L 226.414614 103.846627 
L 226.868155 104.016465 
L 229.89169 105.08188 
L 230.345246 105.263015 
L 231.101196 105.416062 
L 232.159365 105.830019 
L 232.53728 105.900138 
L 232.990949 106.035379 
L 233.82236 106.303207 
L 234.578219 106.521695 
L 234.880794 106.566722 
L 235.258504 106.660789 
L 235.636517 106.733677 
L 236.014378 106.861454 
L 236.316802 106.914745 
L 236.770283 107.053113 
L 237.148333 107.184023 
L 238.811221 107.609755 
L 239.264763 107.720845 
L 240.171777 108.089848 
L 241.078889 108.346849 
L 242.212761 108.75753 
L 242.741846 108.919003 
L 243.195447 109.11817 
L 243.648905 109.308418 
L 244.782762 109.738758 
L 245.689769 110.154329 
L 246.14331 110.352547 
L 246.596881 110.507608 
L 246.974834 110.499416 
L 247.730806 110.928803 
L 248.033048 111.00552 
L 248.411016 111.105719 
L 248.789164 111.271658 
L 249.091361 111.38209 
L 249.544835 111.605623 
L 249.998527 111.747318 
L 252.341587 112.583246 
L 252.719539 112.718112 
L 253.021956 112.803905 
L 253.399825 112.85643 
L 253.929204 113.00768 
L 255.062819 113.317283 
L 255.516345 113.369157 
L 256.045528 113.432848 
L 263.680025 115.106498 
L 264.133521 115.242258 
L 264.435892 115.320943 
L 264.813783 115.272733 
L 265.872149 115.518339 
L 266.47671 115.580871 
L 267.534977 115.822661 
L 267.837333 115.932145 
L 268.366448 115.905757 
L 269.953838 116.248741 
L 270.860943 116.328263 
L 271.465655 116.409461 
L 272.599466 116.680669 
L 273.657681 117.064729 
L 274.035641 117.089475 
L 274.337989 117.087612 
L 274.640337 117.095523 
L 275.245048 117.316682 
L 278.797857 117.844347 
L 279.855973 118.001694 
L 284.240199 118.517165 
L 284.618106 118.50334 
L 285.222825 118.628932 
L 286.885782 118.872714 
L 287.112586 118.885954 
L 287.490516 118.824231 
L 288.548746 119.067233 
L 288.926683 119.123386 
L 289.229076 119.090827 
L 289.531409 118.955608 
L 290.211823 119.204546 
L 290.816406 119.245528 
L 291.043143 119.242508 
L 291.572258 119.362884 
L 292.630487 119.469943 
L 293.462003 119.562758 
L 293.915605 119.441547 
L 294.671487 119.756568 
L 295.351697 119.79081 
L 295.654037 119.820093 
L 295.956378 119.7894 
L 296.334383 119.854673 
L 296.712411 119.834391 
L 297.317024 119.9916 
L 297.997332 120.115385 
L 300.340566 120.181089 
L 301.323199 120.304872 
L 301.776824 120.348378 
L 302.154829 120.304959 
L 302.38152 120.338221 
L 302.759555 120.459271 
L 303.364161 120.432184 
L 303.893291 120.579031 
L 304.800305 120.740501 
L 305.102706 120.599233 
L 305.631799 120.79752 
L 306.08534 120.783009 
L 306.690066 120.796005 
L 307.14357 120.890388 
L 308.73093 120.885025 
L 309.108935 120.933531 
L 309.486842 120.932078 
L 309.78925 120.975546 
L 310.167127 120.971416 
L 310.545155 121.038817 
L 311.603302 120.905812 
L 312.737158 120.905776 
L 313.039506 120.898409 
L 313.49307 120.951559 
L 313.946574 120.851705 
L 314.853867 120.838059 
L 316.214362 121.401224 
L 317.952794 121.799876 
L 318.557657 121.869642 
L 322.110178 121.682893 
L 325.058275 120.903562 
L 325.965319 120.613644 
L 328.459709 120.02436 
L 328.837585 119.880997 
L 329.366806 119.715747 
L 329.669064 119.536091 
L 330.122612 119.525627 
L 330.802905 119.009851 
L 331.407594 117.946861 
L 332.239102 116.848251 
L 332.692628 116.175167 
L 333.448503 115.387935 
L 334.128811 114.857701 
L 334.3556 114.69551 
L 335.111474 114.022882 
L 335.489434 113.828355 
L 335.791805 113.615984 
L 336.623268 112.925738 
L 336.925639 112.836372 
L 337.152406 112.762646 
L 337.530449 112.549046 
L 337.757117 112.465919 
L 338.135122 112.252396 
L 338.512999 112.135938 
L 338.890943 111.969171 
L 339.193292 111.985884 
L 339.646833 111.807781 
L 340.553968 111.740235 
L 341.083022 111.661552 
L 341.385363 111.586693 
L 341.687726 111.532978 
L 342.065716 111.487488 
L 342.368102 111.388604 
L 342.821606 111.407477 
L 343.199596 111.392746 
L 343.50205 111.367105 
L 343.879813 111.332457 
L 344.333483 111.32579 
L 345.694114 111.198222 
L 345.996311 111.19508 
L 346.298644 111.19101 
L 346.60109 111.120253 
L 347.28133 111.132206 
L 348.264009 111.138264 
L 348.566395 111.134027 
L 349.473401 111.057902 
L 350.304948 111.02318 
L 353.555219 110.945148 
L 354.764581 110.772754 
L 355.293787 110.828868 
L 355.520471 110.819827 
L 355.974102 110.674508 
L 356.729939 110.671133 
L 357.561455 110.594767 
L 358.392956 110.420947 
L 362.701479 109.991751 
L 362.701479 109.991751 
" clip-path="url(#p610ec69e05)" style="fill: none; stroke: #fa7c17; stroke-width: 0.4; stroke-linecap: round"/>
   </g>
   <g id="line2d_57">
    <path d="M 60.345785 99.026218 
L 62.613506 99.211671 
L 64.125232 99.021461 
L 65.637011 98.814178 
L 67.677897 99.479111 
L 69.794417 99.707689 
L 70.852707 99.818369 
L 71.759759 99.846492 
L 72.137742 99.766381 
L 72.515634 99.764326 
L 72.818065 99.702206 
L 73.195926 99.763258 
L 73.951816 99.315021 
L 74.329715 98.992967 
L 74.632146 98.718909 
L 75.010038 98.390464 
L 75.463572 98.044636 
L 76.370662 97.425381 
L 76.824157 97.224545 
L 77.731345 96.606551 
L 78.789477 96.074881 
L 79.243003 95.804435 
L 79.545427 95.685367 
L 80.074512 95.376818 
L 80.830378 95.144359 
L 81.510709 94.873097 
L 81.813027 94.700982 
L 82.191123 94.575877 
L 82.493418 94.40979 
L 82.795675 94.292062 
L 83.173673 94.215074 
L 84.156314 93.847551 
L 84.458677 93.792505 
L 84.91218 93.555864 
L 85.290118 93.503709 
L 85.6681 93.365274 
L 85.97066 93.356629 
L 86.499601 93.230527 
L 88.162527 92.753097 
L 88.540434 92.70936 
L 88.918439 92.612764 
L 91.337353 91.988479 
L 91.639815 91.983858 
L 92.017729 91.898127 
L 92.395507 91.870718 
L 93.60493 91.555483 
L 94.511967 91.292003 
L 95.343521 90.969569 
L 96.099584 90.852128 
L 104.56531 87.873478 
L 104.867673 87.796855 
L 105.094538 87.689311 
L 105.396841 87.515727 
L 105.774733 87.514497 
L 106.228251 87.304189 
L 106.530645 87.231983 
L 107.664441 86.652977 
L 108.722739 86.267848 
L 109.025057 86.130297 
L 109.403009 86.074018 
L 111.066041 85.316076 
L 111.443903 85.236828 
L 111.897436 85.036144 
L 112.199792 84.873236 
L 112.502155 84.725454 
L 112.880138 84.643995 
L 113.409215 84.416146 
L 115.223372 83.664953 
L 115.52569 83.625215 
L 115.752457 83.545773 
L 116.20599 83.265868 
L 117.264243 82.940273 
L 117.566599 82.891403 
L 117.868962 82.823457 
L 118.927207 82.153139 
L 119.305688 82.110129 
L 119.683089 82.003796 
L 119.985467 81.935226 
L 120.363442 81.79239 
L 120.665752 81.673995 
L 121.043727 81.393929 
L 121.572978 81.185875 
L 121.875183 81.149026 
L 122.101957 81.146475 
L 123.38706 80.447986 
L 123.689431 80.257356 
L 124.44529 79.773052 
L 125.125514 79.689463 
L 126.032574 79.314841 
L 126.712897 79.105445 
L 128.300371 78.713175 
L 128.527016 78.634253 
L 128.904953 78.399887 
L 129.283012 78.407992 
L 130.341219 77.939002 
L 131.550566 77.227716 
L 132.835578 76.955669 
L 133.289081 76.800854 
L 133.74269 76.658959 
L 134.422998 76.547739 
L 135.33002 76.52407 
L 139.260735 76.816264 
L 142.05748 77.401904 
L 142.511052 77.502223 
L 143.871539 77.672568 
L 144.703017 77.781546 
L 145.307706 77.870668 
L 145.458907 77.914925 
L 147.273109 80.465158 
L 147.802171 81.123515 
L 148.784835 82.117553 
L 149.994243 83.083939 
L 150.523524 83.509595 
L 151.581761 84.194126 
L 151.959577 84.33431 
L 152.337552 84.548328 
L 152.640052 84.65003 
L 153.093381 84.913827 
L 154.000456 85.324673 
L 154.302925 85.458634 
L 154.756353 85.481137 
L 155.134418 85.667981 
L 159.291696 86.065375 
L 159.669777 86.106747 
L 160.047586 86.216425 
L 160.652305 86.187852 
L 161.332658 86.247256 
L 162.164068 86.255502 
L 162.617594 86.298979 
L 163.449103 86.387254 
L 164.204992 86.408568 
L 166.246021 86.756 
L 166.699404 86.881016 
L 168.664716 87.34657 
L 169.042797 87.514349 
L 169.420666 87.563165 
L 169.722969 87.668447 
L 170.100921 87.807257 
L 170.554432 87.952986 
L 173.351245 88.699411 
L 174.485079 89.015826 
L 176.979551 89.624552 
L 177.886566 89.865915 
L 178.415802 90.003304 
L 179.851863 90.40714 
L 181.741624 90.918939 
L 182.195112 91.095833 
L 182.573079 91.202218 
L 184.16047 91.817107 
L 185.218873 92.167062 
L 185.823555 92.398434 
L 186.277035 92.574215 
L 188.620262 93.291845 
L 188.922519 93.419477 
L 189.451786 93.610146 
L 190.736707 94.039232 
L 191.794929 94.330631 
L 192.853174 94.566335 
L 193.760264 94.64915 
L 194.742943 94.835431 
L 195.272035 94.906946 
L 195.574383 94.97981 
L 195.952373 95.003598 
L 196.405907 95.10596 
L 196.708255 95.14991 
L 197.161758 95.206757 
L 197.917685 95.36714 
L 201.772728 96.624722 
L 202.755316 96.987036 
L 203.05768 97.03255 
L 203.586825 97.268114 
L 204.494028 97.618338 
L 204.871958 97.785462 
L 205.249789 97.942955 
L 205.627794 98.090945 
L 206.005731 98.219371 
L 206.761537 98.4792 
L 208.348905 98.984128 
L 208.87805 99.070948 
L 209.785208 99.395727 
L 210.163092 99.467594 
L 210.541014 99.617899 
L 210.919065 99.702716 
L 211.372507 99.857987 
L 212.128435 100.010233 
L 213.413363 100.418146 
L 213.7913 100.557452 
L 214.244925 100.645086 
L 221.274665 102.671715 
L 222.106098 102.892364 
L 223.164366 103.123082 
L 224.44943 103.499592 
L 224.902896 103.58022 
L 229.816192 105.310599 
L 230.1186 105.395376 
L 231.252427 105.744154 
L 231.554714 105.869845 
L 231.932674 105.980681 
L 232.235052 106.09316 
L 232.612944 106.20539 
L 232.915398 106.347052 
L 233.217663 106.477708 
L 233.671227 106.595371 
L 234.049126 106.641123 
L 234.351618 106.747935 
L 234.729563 106.85082 
L 235.031813 106.989789 
L 235.334229 107.042795 
L 235.712083 107.060499 
L 236.165639 107.220331 
L 236.543576 107.335511 
L 237.450719 107.615388 
L 238.508904 107.852591 
L 238.962445 108.0446 
L 239.340404 108.172329 
L 240.398627 108.541622 
L 240.700967 108.658703 
L 241.07895 108.804865 
L 241.532453 108.917092 
L 242.96865 109.441214 
L 243.875937 109.763732 
L 244.858427 110.081484 
L 245.311915 110.307792 
L 245.614444 110.392162 
L 246.067781 110.623407 
L 246.370122 110.719436 
L 246.748165 110.90172 
L 247.050415 110.972539 
L 247.428397 111.14837 
L 247.806334 111.226631 
L 248.259853 111.435722 
L 248.637828 111.602925 
L 250.300762 112.109756 
L 250.60311 112.187733 
L 250.981138 112.342615 
L 251.359014 112.445807 
L 251.736974 112.571025 
L 252.039322 112.667728 
L 252.417297 112.831964 
L 252.870853 112.910843 
L 253.475519 113.069449 
L 253.853426 113.149034 
L 254.306967 113.284261 
L 256.196676 113.727916 
L 256.650232 113.838358 
L 256.952588 113.941021 
L 257.254943 114.036912 
L 257.708583 114.021911 
L 258.691133 114.339579 
L 259.295844 114.363118 
L 260.429701 114.710235 
L 260.807646 114.791262 
L 261.790294 114.843134 
L 262.394998 115.037999 
L 262.77292 115.225171 
L 264.435877 115.533756 
L 264.889463 115.628756 
L 266.854722 116.055469 
L 267.232675 116.136666 
L 268.29092 116.265346 
L 268.668887 116.411761 
L 269.122405 116.500928 
L 270.105062 116.765202 
L 271.163291 116.916082 
L 271.4657 117.020374 
L 271.768056 117.039057 
L 272.146016 117.202709 
L 272.523938 117.202736 
L 272.826301 117.355159 
L 273.430959 117.348546 
L 274.186932 117.505921 
L 274.716017 117.743182 
L 274.942723 117.801656 
L 275.320773 117.773842 
L 275.774224 117.910802 
L 276.756895 118.083996 
L 277.286154 118.2218 
L 282.274985 119.178954 
L 282.577318 119.242401 
L 282.879659 119.239602 
L 283.182098 119.201285 
L 283.635616 119.342392 
L 283.937806 119.413448 
L 284.315841 119.537377 
L 284.769397 119.54914 
L 285.676389 119.558675 
L 285.978767 119.607064 
L 286.281123 119.677188 
L 286.659083 119.681106 
L 287.036975 119.824877 
L 287.339338 119.792705 
L 287.792871 119.963758 
L 288.170884 119.949447 
L 288.548814 120.10043 
L 289.002362 120.151124 
L 290.438544 120.353935 
L 291.118784 120.459944 
L 291.950376 120.57548 
L 292.554959 120.59631 
L 292.932904 120.622306 
L 293.764548 120.772385 
L 294.06673 120.830185 
L 294.67154 120.768628 
L 295.049386 120.727122 
L 295.578531 120.803036 
L 295.880902 120.859635 
L 296.258832 121.138477 
L 296.712403 121.091259 
L 297.014729 121.136039 
L 297.392711 121.099873 
L 297.695127 121.115834 
L 298.073004 121.039569 
L 298.526477 121.164155 
L 298.82887 121.253897 
L 299.13134 121.327284 
L 299.584752 121.295408 
L 299.962712 121.33511 
L 300.265098 121.371578 
L 300.64299 121.404491 
L 301.02104 121.499028 
L 301.323275 121.464289 
L 301.625653 121.444727 
L 301.92807 121.465738 
L 302.305954 121.480707 
L 302.608362 121.520693 
L 302.986239 121.44161 
L 303.364327 121.58522 
L 303.817982 121.559426 
L 304.120118 121.556805 
L 304.422451 121.558383 
L 304.724845 121.65901 
L 305.25393 121.58688 
L 305.707501 121.609387 
L 306.690165 121.671504 
L 307.597171 121.65079 
L 311.830174 121.233715 
L 312.056918 121.23579 
L 312.359304 121.479868 
L 313.115163 121.866568 
L 313.417527 121.850044 
L 313.644301 121.875409 
L 314.097842 122.080014 
L 314.551361 122.199749 
L 317.499442 122.455691 
L 319.162338 122.262117 
L 320.06936 122.039193 
L 325.889708 120.11648 
L 326.192116 119.957901 
L 327.099206 119.880708 
L 327.628299 119.577795 
L 327.779416 119.446688 
L 328.459747 118.313356 
L 331.105321 114.819857 
L 331.483296 114.518939 
L 331.936913 114.151893 
L 332.239178 113.775974 
L 332.54164 113.524677 
L 332.84401 113.343401 
L 333.221887 113.036484 
L 333.599779 112.883819 
L 333.902127 112.692364 
L 334.280102 112.502713 
L 334.58248 112.289551 
L 335.262735 112.130404 
L 336.245399 111.916221 
L 337.303599 111.429396 
L 339.873645 111.232676 
L 340.327436 111.092009 
L 340.7051 111.123357 
L 341.083098 111.094371 
L 341.385424 111.079214 
L 341.763406 110.991836 
L 342.368367 110.986087 
L 343.577699 111.01734 
L 343.880123 110.968738 
L 344.333369 111.034061 
L 345.92079 111.034761 
L 346.374301 111.048671 
L 346.827857 110.987691 
L 347.659358 111.07474 
L 348.264077 110.916902 
L 348.566364 110.956371 
L 349.246657 110.973577 
L 350.078219 110.883619 
L 350.909629 110.795499 
L 351.363223 110.778465 
L 351.74116 110.758639 
L 352.043463 110.729936 
L 352.345819 110.65066 
L 352.723801 110.714238 
L 353.177327 110.470769 
L 353.555219 110.425207 
L 354.53792 110.26384 
L 354.91585 110.272856 
L 355.898483 110.096958 
L 356.276511 110.066652 
L 356.654425 109.990541 
L 357.107989 109.995319 
L 357.863939 109.904446 
L 358.544126 109.855674 
L 358.84655 109.744026 
L 359.224449 109.748526 
L 359.753662 109.693445 
L 360.963063 109.537708 
L 361.189792 109.539624 
L 361.718854 109.317473 
L 362.021217 109.287558 
L 362.625951 109.166346 
L 362.625951 109.166346 
" clip-path="url(#p610ec69e05)" style="fill: none; stroke: #328c06; stroke-width: 0.4; stroke-linecap: round"/>
   </g>
   <g id="patch_6">
    <path d="M 45.228 124.811912 
L 45.228 73.351192 
" style="fill: none; stroke: #000000; stroke-linejoin: miter; stroke-linecap: square"/>
   </g>
   <g id="patch_7">
    <path d="M 45.228 124.811912 
L 377.81928 124.811912 
" style="fill: none; stroke: #000000; stroke-linejoin: miter; stroke-linecap: square"/>
   </g>
  </g>
  <g id="axes_3">
   <g id="patch_8">
    <path d="M 45.228 187.363104 
L 377.81928 187.363104 
L 377.81928 135.902384 
L 45.228 135.902384 
z
" style="fill: #ffffff"/>
   </g>
   <g id="matplotlib.axis_5">
    <g id="xtick_19">
     <g id="line2d_58">
      <path d="M 60.345785 187.363104 
L 60.345785 135.902384 
" clip-path="url(#pb3773d182b)" style="fill: none; stroke: #b0b0b0; stroke-width: 0.1; stroke-linecap: round"/>
     </g>
     <g id="line2d_59"/>
     <g id="text_12">
      <!-- 0 -->
      <g style="fill: #262626" transform="translate(58.11891 196.18201) scale(0.07 -0.07)">
       <use xlink:href="#DejaVuSerif-30"/>
      </g>
     </g>
    </g>
    <g id="xtick_20">
     <g id="line2d_60">
      <path d="M 98.140251 187.363104 
L 98.140251 135.902384 
" clip-path="url(#pb3773d182b)" style="fill: none; stroke: #b0b0b0; stroke-width: 0.1; stroke-linecap: round"/>
     </g>
     <g id="line2d_61"/>
     <g id="text_13">
      <!-- 5 -->
      <g style="fill: #262626" transform="translate(95.913376 196.18201) scale(0.07 -0.07)">
       <use xlink:href="#DejaVuSerif-35"/>
      </g>
     </g>
    </g>
    <g id="xtick_21">
     <g id="line2d_62">
      <path d="M 135.934717 187.363104 
L 135.934717 135.902384 
" clip-path="url(#pb3773d182b)" style="fill: none; stroke: #b0b0b0; stroke-width: 0.1; stroke-linecap: round"/>
     </g>
     <g id="line2d_63"/>
     <g id="text_14">
      <!-- 10 -->
      <g style="fill: #262626" transform="translate(131.480967 196.18201) scale(0.07 -0.07)">
       <use xlink:href="#DejaVuSerif-31"/>
       <use xlink:href="#DejaVuSerif-30" x="63.623047"/>
      </g>
     </g>
    </g>
    <g id="xtick_22">
     <g id="line2d_64">
      <path d="M 173.729182 187.363104 
L 173.729182 135.902384 
" clip-path="url(#pb3773d182b)" style="fill: none; stroke: #b0b0b0; stroke-width: 0.1; stroke-linecap: round"/>
     </g>
     <g id="line2d_65"/>
     <g id="text_15">
      <!-- 15 -->
      <g style="fill: #262626" transform="translate(169.275432 196.18201) scale(0.07 -0.07)">
       <use xlink:href="#DejaVuSerif-31"/>
       <use xlink:href="#DejaVuSerif-35" x="63.623047"/>
      </g>
     </g>
    </g>
    <g id="xtick_23">
     <g id="line2d_66">
      <path d="M 211.523648 187.363104 
L 211.523648 135.902384 
" clip-path="url(#pb3773d182b)" style="fill: none; stroke: #b0b0b0; stroke-width: 0.1; stroke-linecap: round"/>
     </g>
     <g id="line2d_67"/>
     <g id="text_16">
      <!-- 20 -->
      <g style="fill: #262626" transform="translate(207.069898 196.18201) scale(0.07 -0.07)">
       <defs>
        <path id="DejaVuSerif-32" d="M 819 3553 
L 469 3553 
L 469 4384 
Q 803 4563 1142 4656 
Q 1481 4750 1806 4750 
Q 2534 4750 2956 4397 
Q 3378 4044 3378 3438 
Q 3378 2753 2422 1800 
Q 2347 1728 2309 1691 
L 1131 513 
L 3078 513 
L 3078 1088 
L 3444 1088 
L 3444 0 
L 434 0 
L 434 341 
L 1850 1753 
Q 2319 2222 2519 2614 
Q 2719 3006 2719 3438 
Q 2719 3909 2473 4175 
Q 2228 4441 1797 4441 
Q 1350 4441 1106 4219 
Q 863 3997 819 3553 
z
" transform="scale(0.015625)"/>
       </defs>
       <use xlink:href="#DejaVuSerif-32"/>
       <use xlink:href="#DejaVuSerif-30" x="63.623047"/>
      </g>
     </g>
    </g>
    <g id="xtick_24">
     <g id="line2d_68">
      <path d="M 249.318113 187.363104 
L 249.318113 135.902384 
" clip-path="url(#pb3773d182b)" style="fill: none; stroke: #b0b0b0; stroke-width: 0.1; stroke-linecap: round"/>
     </g>
     <g id="line2d_69"/>
     <g id="text_17">
      <!-- 25 -->
      <g style="fill: #262626" transform="translate(244.864363 196.18201) scale(0.07 -0.07)">
       <use xlink:href="#DejaVuSerif-32"/>
       <use xlink:href="#DejaVuSerif-35" x="63.623047"/>
      </g>
     </g>
    </g>
    <g id="xtick_25">
     <g id="line2d_70">
      <path d="M 287.112579 187.363104 
L 287.112579 135.902384 
" clip-path="url(#pb3773d182b)" style="fill: none; stroke: #b0b0b0; stroke-width: 0.1; stroke-linecap: round"/>
     </g>
     <g id="line2d_71"/>
     <g id="text_18">
      <!-- 30 -->
      <g style="fill: #262626" transform="translate(282.658829 196.18201) scale(0.07 -0.07)">
       <defs>
        <path id="DejaVuSerif-33" d="M 622 4469 
Q 988 4606 1323 4678 
Q 1659 4750 1953 4750 
Q 2638 4750 3022 4454 
Q 3406 4159 3406 3634 
Q 3406 3213 3140 2930 
Q 2875 2647 2388 2547 
Q 2963 2466 3280 2130 
Q 3597 1794 3597 1259 
Q 3597 606 3158 257 
Q 2719 -91 1894 -91 
Q 1528 -91 1179 -12 
Q 831 66 488 225 
L 488 1131 
L 838 1131 
Q 869 681 1141 450 
Q 1413 219 1906 219 
Q 2384 219 2661 495 
Q 2938 772 2938 1253 
Q 2938 1803 2653 2086 
Q 2369 2369 1819 2369 
L 1522 2369 
L 1522 2688 
L 1678 2688 
Q 2225 2688 2498 2914 
Q 2772 3141 2772 3597 
Q 2772 4006 2547 4223 
Q 2322 4441 1900 4441 
Q 1478 4441 1245 4241 
Q 1013 4041 972 3647 
L 622 3647 
L 622 4469 
z
" transform="scale(0.015625)"/>
       </defs>
       <use xlink:href="#DejaVuSerif-33"/>
       <use xlink:href="#DejaVuSerif-30" x="63.623047"/>
      </g>
     </g>
    </g>
    <g id="xtick_26">
     <g id="line2d_72">
      <path d="M 324.907044 187.363104 
L 324.907044 135.902384 
" clip-path="url(#pb3773d182b)" style="fill: none; stroke: #b0b0b0; stroke-width: 0.1; stroke-linecap: round"/>
     </g>
     <g id="line2d_73"/>
     <g id="text_19">
      <!-- 35 -->
      <g style="fill: #262626" transform="translate(320.453294 196.18201) scale(0.07 -0.07)">
       <use xlink:href="#DejaVuSerif-33"/>
       <use xlink:href="#DejaVuSerif-35" x="63.623047"/>
      </g>
     </g>
    </g>
    <g id="xtick_27">
     <g id="line2d_74">
      <path d="M 362.70151 187.363104 
L 362.70151 135.902384 
" clip-path="url(#pb3773d182b)" style="fill: none; stroke: #b0b0b0; stroke-width: 0.1; stroke-linecap: round"/>
     </g>
     <g id="line2d_75"/>
     <g id="text_20">
      <!-- 40 -->
      <g style="fill: #262626" transform="translate(358.24776 196.18201) scale(0.07 -0.07)">
       <defs>
        <path id="DejaVuSerif-34" d="M 2234 1581 
L 2234 4063 
L 641 1581 
L 2234 1581 
z
M 3609 0 
L 1484 0 
L 1484 331 
L 2234 331 
L 2234 1247 
L 197 1247 
L 197 1588 
L 2241 4750 
L 2859 4750 
L 2859 1581 
L 3750 1581 
L 3750 1247 
L 2859 1247 
L 2859 331 
L 3609 331 
L 3609 0 
z
" transform="scale(0.015625)"/>
       </defs>
       <use xlink:href="#DejaVuSerif-34"/>
       <use xlink:href="#DejaVuSerif-30" x="63.623047"/>
      </g>
     </g>
    </g>
    <g id="text_21">
     <!-- Time [s] -->
     <g style="fill: #262626" transform="translate(199.108796 206.196854) scale(0.06 -0.06)">
      <defs>
       <path id="DejaVuSerif-54" d="M 1222 0 
L 1222 331 
L 1819 331 
L 1819 4294 
L 447 4294 
L 447 3566 
L 63 3566 
L 63 4666 
L 4206 4666 
L 4206 3566 
L 3822 3566 
L 3822 4294 
L 2450 4294 
L 2450 331 
L 3047 331 
L 3047 0 
L 1222 0 
z
" transform="scale(0.015625)"/>
       <path id="DejaVuSerif-69" d="M 622 4353 
Q 622 4497 726 4603 
Q 831 4709 978 4709 
Q 1122 4709 1226 4603 
Q 1331 4497 1331 4353 
Q 1331 4206 1228 4103 
Q 1125 4000 978 4000 
Q 831 4000 726 4103 
Q 622 4206 622 4353 
z
M 1356 331 
L 1900 331 
L 1900 0 
L 231 0 
L 231 331 
L 781 331 
L 781 2988 
L 231 2988 
L 231 3322 
L 1356 3322 
L 1356 331 
z
" transform="scale(0.015625)"/>
       <path id="DejaVuSerif-65" d="M 3469 1600 
L 991 1600 
L 991 1575 
Q 991 903 1244 561 
Q 1497 219 1991 219 
Q 2369 219 2611 417 
Q 2853 616 2950 1006 
L 3413 1006 
Q 3275 459 2904 184 
Q 2534 -91 1931 -91 
Q 1203 -91 761 389 
Q 319 869 319 1663 
Q 319 2450 753 2931 
Q 1188 3413 1894 3413 
Q 2647 3413 3050 2948 
Q 3453 2484 3469 1600 
z
M 2791 1931 
Q 2772 2513 2545 2808 
Q 2319 3103 1894 3103 
Q 1497 3103 1269 2806 
Q 1041 2509 991 1931 
L 2791 1931 
z
" transform="scale(0.015625)"/>
       <path id="DejaVuSerif-73" d="M 359 184 
L 359 959 
L 691 959 
Q 703 588 923 403 
Q 1144 219 1575 219 
Q 1963 219 2166 364 
Q 2369 509 2369 788 
Q 2369 1006 2220 1140 
Q 2072 1275 1594 1428 
L 1178 1569 
Q 750 1706 558 1912 
Q 366 2119 366 2438 
Q 366 2894 700 3153 
Q 1034 3413 1625 3413 
Q 1888 3413 2178 3344 
Q 2469 3275 2778 3144 
L 2778 2419 
L 2447 2419 
Q 2434 2741 2221 2922 
Q 2009 3103 1644 3103 
Q 1281 3103 1095 2975 
Q 909 2847 909 2591 
Q 909 2381 1050 2254 
Q 1191 2128 1613 1997 
L 2069 1856 
Q 2541 1709 2748 1489 
Q 2956 1269 2956 922 
Q 2956 450 2595 179 
Q 2234 -91 1600 -91 
Q 1278 -91 972 -22 
Q 666 47 359 184 
z
" transform="scale(0.015625)"/>
      </defs>
      <use xlink:href="#DejaVuSerif-54"/>
      <use xlink:href="#DejaVuSerif-69" x="66.699219"/>
      <use xlink:href="#DejaVuSerif-6d" x="98.681641"/>
      <use xlink:href="#DejaVuSerif-65" x="193.505859"/>
      <use xlink:href="#DejaVuSerif-20" x="252.685547"/>
      <use xlink:href="#DejaVuSerif-5b" x="284.472656"/>
      <use xlink:href="#DejaVuSerif-73" x="323.486328"/>
      <use xlink:href="#DejaVuSerif-5d" x="374.804688"/>
     </g>
    </g>
   </g>
   <g id="matplotlib.axis_6">
    <g id="ytick_7">
     <g id="line2d_76">
      <path d="M 45.228 184.916076 
L 377.81928 184.916076 
" clip-path="url(#pb3773d182b)" style="fill: none; stroke: #b0b0b0; stroke-width: 0.1; stroke-linecap: round"/>
     </g>
     <g id="line2d_77"/>
     <g id="text_22">
      <!-- −20 -->
      <g style="fill: #262626" transform="translate(26.954719 187.57553) scale(0.07 -0.07)">
       <use xlink:href="#DejaVuSerif-2212"/>
       <use xlink:href="#DejaVuSerif-32" x="83.789062"/>
       <use xlink:href="#DejaVuSerif-30" x="147.412109"/>
      </g>
     </g>
    </g>
    <g id="ytick_8">
     <g id="line2d_78">
      <path d="M 45.228 161.630238 
L 377.81928 161.630238 
" clip-path="url(#pb3773d182b)" style="fill: none; stroke: #b0b0b0; stroke-width: 0.1; stroke-linecap: round"/>
     </g>
     <g id="line2d_79"/>
     <g id="text_23">
      <!-- 0 -->
      <g style="fill: #262626" transform="translate(37.27425 164.289692) scale(0.07 -0.07)">
       <use xlink:href="#DejaVuSerif-30"/>
      </g>
     </g>
    </g>
    <g id="ytick_9">
     <g id="line2d_80">
      <path d="M 45.228 138.3444 
L 377.81928 138.3444 
" clip-path="url(#pb3773d182b)" style="fill: none; stroke: #b0b0b0; stroke-width: 0.1; stroke-linecap: round"/>
     </g>
     <g id="line2d_81"/>
     <g id="text_24">
      <!-- 20 -->
      <g style="fill: #262626" transform="translate(32.8205 141.003854) scale(0.07 -0.07)">
       <use xlink:href="#DejaVuSerif-32"/>
       <use xlink:href="#DejaVuSerif-30" x="63.623047"/>
      </g>
     </g>
    </g>
    <g id="text_25">
     <!-- $\delta$ [deg] -->
     <g style="fill: #262626" transform="translate(21.574719 172.402744) rotate(-90) scale(0.06 -0.06)">
      <defs>
       <path id="DejaVuSans-Oblique-3b4" d="M 3472 4053 
Q 3197 4272 2450 4272 
Q 1659 4272 1588 3906 
Q 1531 3619 2328 3469 
Q 2953 3353 3253 3003 
Q 3616 2581 3447 1716 
Q 3284 888 2763 400 
Q 2238 -91 1488 -91 
Q 741 -91 406 400 
Q 72 888 241 1747 
Q 363 2384 891 2900 
Q 1097 3100 1353 3213 
Q 913 3459 1000 3900 
Q 1166 4750 2544 4750 
Q 3234 4750 3566 4531 
L 3472 4053 
z
M 1753 3056 
Q 1525 2966 1306 2738 
Q 969 2384 847 1747 
Q 722 1113 919 756 
Q 1119 397 1584 397 
Q 2044 397 2381 759 
Q 2722 1122 2838 1716 
Q 2956 2338 2731 2638 
Q 2491 2959 2103 2994 
Q 1906 3013 1753 3056 
z
" transform="scale(0.015625)"/>
       <path id="DejaVuSerif-64" d="M 3359 331 
L 3909 331 
L 3909 0 
L 2784 0 
L 2784 519 
Q 2616 206 2355 57 
Q 2094 -91 1709 -91 
Q 1097 -91 708 395 
Q 319 881 319 1663 
Q 319 2444 706 2928 
Q 1094 3413 1709 3413 
Q 2094 3413 2355 3264 
Q 2616 3116 2784 2803 
L 2784 4531 
L 2241 4531 
L 2241 4863 
L 3359 4863 
L 3359 331 
z
M 2784 1497 
L 2784 1825 
Q 2784 2422 2554 2737 
Q 2325 3053 1888 3053 
Q 1444 3053 1217 2703 
Q 991 2353 991 1663 
Q 991 975 1217 622 
Q 1444 269 1888 269 
Q 2325 269 2554 583 
Q 2784 897 2784 1497 
z
" transform="scale(0.015625)"/>
       <path id="DejaVuSerif-67" d="M 3359 2988 
L 3359 72 
Q 3359 -644 2965 -1033 
Q 2572 -1422 1844 -1422 
Q 1516 -1422 1216 -1362 
Q 916 -1303 641 -1184 
L 641 -488 
L 941 -488 
Q 997 -813 1206 -963 
Q 1416 -1113 1806 -1113 
Q 2313 -1113 2548 -827 
Q 2784 -541 2784 72 
L 2784 519 
Q 2616 206 2355 57 
Q 2094 -91 1709 -91 
Q 1097 -91 708 395 
Q 319 881 319 1663 
Q 319 2444 706 2928 
Q 1094 3413 1709 3413 
Q 2094 3413 2355 3264 
Q 2616 3116 2784 2803 
L 2784 3322 
L 3909 3322 
L 3909 2988 
L 3359 2988 
z
M 2784 1825 
Q 2784 2422 2554 2737 
Q 2325 3053 1888 3053 
Q 1444 3053 1217 2703 
Q 991 2353 991 1663 
Q 991 975 1217 622 
Q 1444 269 1888 269 
Q 2325 269 2554 583 
Q 2784 897 2784 1497 
L 2784 1825 
z
" transform="scale(0.015625)"/>
      </defs>
      <use xlink:href="#DejaVuSans-Oblique-3b4" transform="translate(0 0.015625)"/>
      <use xlink:href="#DejaVuSerif-20" transform="translate(61.181641 0.015625)"/>
      <use xlink:href="#DejaVuSerif-5b" transform="translate(92.96875 0.015625)"/>
      <use xlink:href="#DejaVuSerif-64" transform="translate(131.982422 0.015625)"/>
      <use xlink:href="#DejaVuSerif-65" transform="translate(195.996094 0.015625)"/>
      <use xlink:href="#DejaVuSerif-67" transform="translate(255.175781 0.015625)"/>
      <use xlink:href="#DejaVuSerif-5d" transform="translate(319.189453 0.015625)"/>
     </g>
    </g>
   </g>
   <g id="line2d_82">
    <path d="M 60.345785 160.847076 
L 65.410274 160.847076 
L 65.485855 160.941383 
L 65.864012 162.228431 
L 66.241752 163.264903 
L 68.131445 168.855929 
L 71.457321 178.66756 
L 73.725026 184.994822 
L 84.156299 184.914638 
L 90.279093 184.916916 
L 94.889965 184.916005 
L 100.937004 184.916461 
L 107.059775 184.914638 
L 111.670753 184.917372 
L 116.28161 184.915094 
L 122.404366 184.917372 
L 127.01526 184.915094 
L 130.341173 184.916461 
L 130.416921 184.819875 
L 130.870326 183.356058 
L 132.911174 177.348165 
L 141.830683 151.05458 
L 143.493746 146.157876 
L 146.214781 138.241508 
L 146.668367 138.327159 
L 150.447791 138.34675 
L 159.291666 138.342649 
L 165.338833 138.343105 
L 171.461491 138.343105 
L 180.532171 138.343105 
L 185.143088 138.344472 
L 189.678431 138.343561 
L 198.900273 138.344927 
L 217.495143 138.343561 
L 226.56589 138.344016 
L 231.101158 138.342194 
L 234.880726 138.345383 
L 238.584462 138.344016 
L 247.881878 138.344927 
L 266.174551 138.344472 
L 313.341885 138.449258 
L 313.719913 139.690291 
L 314.324548 141.449787 
L 315.987618 146.367904 
L 320.220523 158.825158 
L 322.185843 164.62849 
L 329.215591 184.999378 
L 332.76827 184.913727 
L 342.065792 184.916005 
L 360.207098 184.916461 
L 362.701495 184.915549 
L 362.701495 184.915549 
" clip-path="url(#pb3773d182b)" style="fill: none; stroke: #2a2eec; stroke-width: 0.4; stroke-linecap: round"/>
   </g>
   <g id="line2d_83">
    <path d="M 60.345785 160.847076 
L 64.049575 160.844798 
L 65.48578 160.939561 
L 65.86377 162.229342 
L 66.24179 163.266725 
L 67.753486 167.750207 
L 73.649483 185.02398 
L 74.102926 184.940151 
L 78.865081 184.915549 
L 87.935889 184.915094 
L 106.152829 184.914183 
L 109.856641 184.916916 
L 115.979337 184.915094 
L 122.101851 184.915549 
L 130.189965 184.814864 
L 130.568061 183.554696 
L 131.248127 181.582893 
L 133.137866 175.987767 
L 141.679415 150.844096 
L 144.098261 143.707246 
L 146.139177 138.288434 
L 147.575389 138.343561 
L 151.203597 138.344472 
L 169.571723 138.344472 
L 178.642508 138.344472 
L 184.765075 138.345383 
L 189.376091 138.345383 
L 198.446778 138.344016 
L 203.057649 138.343105 
L 206.761689 138.345383 
L 212.884211 138.344472 
L 217.495105 138.344472 
L 226.792559 138.342194 
L 232.91527 138.344472 
L 239.037943 138.343105 
L 243.648905 138.344016 
L 249.696005 138.343561 
L 255.818723 138.345383 
L 261.941616 138.344472 
L 268.064349 138.344927 
L 314.778052 138.453358 
L 315.155989 139.702136 
L 315.533964 140.780978 
L 316.365434 143.237531 
L 330.576138 185.013957 
L 331.029725 184.942885 
L 337.983846 184.916461 
L 344.106542 184.915094 
L 350.229276 184.915549 
L 362.701479 184.916461 
L 362.701479 184.916461 
" clip-path="url(#pb3773d182b)" style="fill: none; stroke: #fa7c17; stroke-width: 0.4; stroke-linecap: round"/>
   </g>
   <g id="line2d_84">
    <path d="M 60.345785 160.847076 
L 64.95671 160.844798 
L 65.410274 160.929993 
L 65.788332 162.226153 
L 66.241692 163.509556 
L 66.846441 165.301855 
L 69.341027 172.643721 
L 72.06207 180.671254 
L 73.573841 185.022614 
L 74.027495 184.931495 
L 76.597383 184.915549 
L 94.889912 184.916461 
L 103.960584 184.916461 
L 110.007713 184.915094 
L 114.618623 184.916916 
L 118.322465 184.915549 
L 127.468794 184.915549 
L 129.660843 184.815319 
L 130.038855 183.551507 
L 130.643552 181.808867 
L 134.876509 169.324733 
L 137.219713 162.427525 
L 138.882738 157.508041 
L 140.696812 152.169413 
L 145.458907 138.246064 
L 145.534669 138.273855 
L 148.558076 138.346294 
L 152.186344 138.34675 
L 170.856788 138.342649 
L 174.560751 138.345839 
L 180.758975 138.343561 
L 185.294281 138.345383 
L 188.998131 138.343561 
L 193.609063 138.345839 
L 199.807356 138.344927 
L 205.854463 138.344472 
L 210.465403 138.343105 
L 216.588204 138.344016 
L 221.199031 138.343105 
L 224.902896 138.345383 
L 231.025871 138.344472 
L 240.096543 138.344472 
L 244.707241 138.343561 
L 249.242532 138.345383 
L 252.946336 138.344016 
L 259.144674 138.345383 
L 265.343012 138.344472 
L 274.640397 138.342649 
L 280.838788 138.344016 
L 299.282397 138.345383 
L 305.405123 138.344927 
L 311.830174 138.342649 
L 311.905892 138.448347 
L 312.283768 139.694391 
L 312.812777 141.242037 
L 317.121392 153.925265 
L 319.918273 162.179227 
L 322.110231 168.639523 
L 327.779416 184.991178 
L 338.135152 184.914638 
L 344.257818 184.917372 
L 347.961774 184.914638 
L 351.665511 184.917372 
L 356.276511 184.915549 
L 360.88739 184.917372 
L 362.625951 184.916916 
L 362.625951 184.916916 
" clip-path="url(#pb3773d182b)" style="fill: none; stroke: #328c06; stroke-width: 0.4; stroke-linecap: round"/>
   </g>
   <g id="patch_9">
    <path d="M 45.228 187.363104 
L 45.228 135.902384 
" style="fill: none; stroke: #000000; stroke-linejoin: miter; stroke-linecap: square"/>
   </g>
   <g id="patch_10">
    <path d="M 45.228 187.363104 
L 377.81928 187.363104 
" style="fill: none; stroke: #000000; stroke-linejoin: miter; stroke-linecap: square"/>
   </g>
  </g>
 </g>
 <defs>
  <clipPath id="pca66881b70">
   <rect x="45.228" y="10.8" width="332.59128" height="51.46072"/>
  </clipPath>
  <clipPath id="p610ec69e05">
   <rect x="45.228" y="73.351192" width="332.59128" height="51.46072"/>
  </clipPath>
  <clipPath id="pb3773d182b">
   <rect x="45.228" y="135.902384" width="332.59128" height="51.46072"/>
  </clipPath>
 </defs>
</svg>
