<?xml version="1.0" encoding="utf-8" standalone="no"?>
<!DOCTYPE svg PUBLIC "-//W3C//DTD SVG 1.1//EN"
  "http://www.w3.org/Graphics/SVG/1.1/DTD/svg11.dtd">
<svg xmlns:xlink="http://www.w3.org/1999/xlink" width="388.61928pt" height="218.623104pt" viewBox="0 0 388.61928 218.623104" xmlns="http://www.w3.org/2000/svg" version="1.1">
 <metadata>
  <rdf:RDF xmlns:dc="http://purl.org/dc/elements/1.1/" xmlns:cc="http://creativecommons.org/ns#" xmlns:rdf="http://www.w3.org/1999/02/22-rdf-syntax-ns#">
   <cc:Work>
    <dc:type rdf:resource="http://purl.org/dc/dcmitype/StillImage"/>
    <dc:date>2024-11-05T12:51:54.142099</dc:date>
    <dc:format>image/svg+xml</dc:format>
    <dc:creator>
     <cc:Agent>
      <dc:title>Matplotlib v3.8.2, https://matplotlib.org/</dc:title>
     </cc:Agent>
    </dc:creator>
   </cc:Work>
  </rdf:RDF>
 </metadata>
 <defs>
  <style type="text/css">*{stroke-linejoin: round; stroke-linecap: butt}</style>
 </defs>
 <g id="figure_1">
  <g id="patch_1">
   <path d="M 0 218.623104 
L 388.61928 218.623104 
L 388.61928 0 
L 0 0 
z
" style="fill: #ffffff"/>
  </g>
  <g id="axes_1">
   <g id="patch_2">
    <path d="M 36.701178 193.380364 
L 385.61904 193.380364 
L 385.61904 3.00024 
L 36.701178 3.00024 
z
" style="fill: #ffffff"/>
   </g>
   <g id="matplotlib.axis_1">
    <g id="xtick_1">
     <g id="line2d_1"/>
     <g id="text_1">
      <!-- −10 -->
      <g style="fill: #262626" transform="translate(71.658952 202.959114) scale(0.08 -0.08)">
       <defs>
        <path id="DejaVuSerif-2212" d="M 678 2259 
L 4684 2259 
L 4684 1753 
L 678 1753 
L 678 2259 
z
" transform="scale(0.015625)"/>
        <path id="DejaVuSerif-31" d="M 909 0 
L 909 331 
L 1722 331 
L 1722 4213 
L 781 3603 
L 781 4013 
L 1919 4750 
L 2350 4750 
L 2350 331 
L 3163 331 
L 3163 0 
L 909 0 
z
" transform="scale(0.015625)"/>
        <path id="DejaVuSerif-30" d="M 2034 219 
Q 2513 219 2750 744 
Q 2988 1269 2988 2328 
Q 2988 3391 2750 3916 
Q 2513 4441 2034 4441 
Q 1556 4441 1318 3916 
Q 1081 3391 1081 2328 
Q 1081 1269 1318 744 
Q 1556 219 2034 219 
z
M 2034 -91 
Q 1275 -91 848 546 
Q 422 1184 422 2328 
Q 422 3475 848 4112 
Q 1275 4750 2034 4750 
Q 2797 4750 3222 4112 
Q 3647 3475 3647 2328 
Q 3647 1184 3222 546 
Q 2797 -91 2034 -91 
z
" transform="scale(0.015625)"/>
       </defs>
       <use xlink:href="#DejaVuSerif-2212"/>
       <use xlink:href="#DejaVuSerif-31" x="83.789062"/>
       <use xlink:href="#DejaVuSerif-30" x="147.412109"/>
      </g>
     </g>
    </g>
    <g id="xtick_2">
     <g id="line2d_2"/>
     <g id="text_2">
      <!-- −5 -->
      <g style="fill: #262626" transform="translate(122.480337 202.959114) scale(0.08 -0.08)">
       <defs>
        <path id="DejaVuSerif-35" d="M 3219 4666 
L 3219 4153 
L 1081 4153 
L 1081 2816 
Q 1244 2928 1461 2984 
Q 1678 3041 1947 3041 
Q 2703 3041 3140 2622 
Q 3578 2203 3578 1478 
Q 3578 738 3136 323 
Q 2694 -91 1894 -91 
Q 1572 -91 1234 -12 
Q 897 66 544 225 
L 544 1131 
L 897 1131 
Q 925 688 1179 453 
Q 1434 219 1894 219 
Q 2388 219 2653 544 
Q 2919 869 2919 1478 
Q 2919 2084 2655 2407 
Q 2391 2731 1894 2731 
Q 1613 2731 1398 2631 
Q 1184 2531 1019 2322 
L 750 2322 
L 750 4666 
L 3219 4666 
z
" transform="scale(0.015625)"/>
       </defs>
       <use xlink:href="#DejaVuSerif-2212"/>
       <use xlink:href="#DejaVuSerif-35" x="83.789062"/>
      </g>
     </g>
    </g>
    <g id="xtick_3">
     <g id="line2d_3"/>
     <g id="text_3">
      <!-- 0 -->
      <g style="fill: #262626" transform="translate(174.108597 202.959114) scale(0.08 -0.08)">
       <use xlink:href="#DejaVuSerif-30"/>
      </g>
     </g>
    </g>
    <g id="xtick_4">
     <g id="line2d_4"/>
     <g id="text_4">
      <!-- 5 -->
      <g style="fill: #262626" transform="translate(222.384982 202.959114) scale(0.08 -0.08)">
       <use xlink:href="#DejaVuSerif-35"/>
      </g>
     </g>
    </g>
    <g id="xtick_5">
     <g id="line2d_5"/>
     <g id="text_5">
      <!-- 10 -->
      <g style="fill: #262626" transform="translate(268.116367 202.959114) scale(0.08 -0.08)">
       <use xlink:href="#DejaVuSerif-31"/>
       <use xlink:href="#DejaVuSerif-30" x="63.623047"/>
      </g>
     </g>
    </g>
    <g id="xtick_6">
     <g id="line2d_6"/>
     <g id="text_6">
      <!-- 15 -->
      <g style="fill: #262626" transform="translate(316.392752 202.959114) scale(0.08 -0.08)">
       <use xlink:href="#DejaVuSerif-31"/>
       <use xlink:href="#DejaVuSerif-35" x="63.623047"/>
      </g>
     </g>
    </g>
    <g id="xtick_7">
     <g id="line2d_7"/>
     <g id="text_7">
      <!-- 20 -->
      <g style="fill: #262626" transform="translate(364.669137 202.959114) scale(0.08 -0.08)">
       <defs>
        <path id="DejaVuSerif-32" d="M 819 3553 
L 469 3553 
L 469 4384 
Q 803 4563 1142 4656 
Q 1481 4750 1806 4750 
Q 2534 4750 2956 4397 
Q 3378 4044 3378 3438 
Q 3378 2753 2422 1800 
Q 2347 1728 2309 1691 
L 1131 513 
L 3078 513 
L 3078 1088 
L 3444 1088 
L 3444 0 
L 434 0 
L 434 341 
L 1850 1753 
Q 2319 2222 2519 2614 
Q 2719 3006 2719 3438 
Q 2719 3909 2473 4175 
Q 2228 4441 1797 4441 
Q 1350 4441 1106 4219 
Q 863 3997 819 3553 
z
" transform="scale(0.015625)"/>
       </defs>
       <use xlink:href="#DejaVuSerif-32"/>
       <use xlink:href="#DejaVuSerif-30" x="63.623047"/>
      </g>
     </g>
    </g>
    <g id="text_8">
     <!-- Drift angle $\beta$ [deg] -->
     <g style="fill: #262626" transform="translate(178.225109 214.012864) scale(0.07 -0.07)">
      <defs>
       <path id="DejaVuSerif-44" d="M 1581 331 
L 2163 331 
Q 3072 331 3558 850 
Q 4044 1369 4044 2338 
Q 4044 3306 3559 3818 
Q 3075 4331 2163 4331 
L 1581 4331 
L 1581 331 
z
M 353 0 
L 353 331 
L 947 331 
L 947 4331 
L 353 4331 
L 353 4666 
L 2209 4666 
Q 3416 4666 4089 4050 
Q 4763 3434 4763 2338 
Q 4763 1238 4088 619 
Q 3413 0 2209 0 
L 353 0 
z
" transform="scale(0.015625)"/>
       <path id="DejaVuSerif-72" d="M 3059 3328 
L 3059 2497 
L 2728 2497 
Q 2713 2744 2591 2866 
Q 2469 2988 2234 2988 
Q 1809 2988 1582 2694 
Q 1356 2400 1356 1850 
L 1356 331 
L 2022 331 
L 2022 0 
L 263 0 
L 263 331 
L 781 331 
L 781 2994 
L 231 2994 
L 231 3322 
L 1356 3322 
L 1356 2731 
Q 1525 3078 1790 3245 
Q 2056 3413 2438 3413 
Q 2578 3413 2733 3391 
Q 2888 3369 3059 3328 
z
" transform="scale(0.015625)"/>
       <path id="DejaVuSerif-69" d="M 622 4353 
Q 622 4497 726 4603 
Q 831 4709 978 4709 
Q 1122 4709 1226 4603 
Q 1331 4497 1331 4353 
Q 1331 4206 1228 4103 
Q 1125 4000 978 4000 
Q 831 4000 726 4103 
Q 622 4206 622 4353 
z
M 1356 331 
L 1900 331 
L 1900 0 
L 231 0 
L 231 331 
L 781 331 
L 781 2988 
L 231 2988 
L 231 3322 
L 1356 3322 
L 1356 331 
z
" transform="scale(0.015625)"/>
       <path id="DejaVuSerif-66" d="M 2753 4078 
L 2450 4078 
Q 2447 4313 2317 4434 
Q 2188 4556 1941 4556 
Q 1619 4556 1487 4379 
Q 1356 4203 1356 3750 
L 1356 3322 
L 2284 3322 
L 2284 2988 
L 1356 2988 
L 1356 331 
L 2094 331 
L 2094 0 
L 231 0 
L 231 331 
L 781 331 
L 781 2988 
L 231 2988 
L 231 3322 
L 781 3322 
L 781 3738 
Q 781 4294 1070 4578 
Q 1359 4863 1919 4863 
Q 2128 4863 2337 4825 
Q 2547 4788 2753 4709 
L 2753 4078 
z
" transform="scale(0.015625)"/>
       <path id="DejaVuSerif-74" d="M 691 2988 
L 184 2988 
L 184 3322 
L 691 3322 
L 691 4353 
L 1269 4353 
L 1269 3322 
L 2350 3322 
L 2350 2988 
L 1269 2988 
L 1269 878 
Q 1269 456 1350 337 
Q 1431 219 1650 219 
Q 1875 219 1978 351 
Q 2081 484 2088 781 
L 2522 781 
Q 2497 328 2275 118 
Q 2053 -91 1600 -91 
Q 1103 -91 897 129 
Q 691 350 691 878 
L 691 2988 
z
" transform="scale(0.015625)"/>
       <path id="DejaVuSerif-20" transform="scale(0.015625)"/>
       <path id="DejaVuSerif-61" d="M 2547 1044 
L 2547 1747 
L 1806 1747 
Q 1378 1747 1168 1562 
Q 959 1378 959 997 
Q 959 650 1171 447 
Q 1384 244 1747 244 
Q 2106 244 2326 466 
Q 2547 688 2547 1044 
z
M 3122 2075 
L 3122 331 
L 3634 331 
L 3634 0 
L 2547 0 
L 2547 359 
Q 2356 128 2106 18 
Q 1856 -91 1522 -91 
Q 969 -91 644 203 
Q 319 497 319 997 
Q 319 1513 691 1797 
Q 1063 2081 1741 2081 
L 2547 2081 
L 2547 2309 
Q 2547 2688 2317 2895 
Q 2088 3103 1672 3103 
Q 1328 3103 1125 2947 
Q 922 2791 872 2484 
L 575 2484 
L 575 3156 
Q 875 3284 1158 3348 
Q 1441 3413 1709 3413 
Q 2400 3413 2761 3070 
Q 3122 2728 3122 2075 
z
" transform="scale(0.015625)"/>
       <path id="DejaVuSerif-6e" d="M 263 0 
L 263 331 
L 781 331 
L 781 2988 
L 231 2988 
L 231 3322 
L 1356 3322 
L 1356 2731 
Q 1516 3069 1770 3241 
Q 2025 3413 2363 3413 
Q 2913 3413 3172 3097 
Q 3431 2781 3431 2113 
L 3431 331 
L 3944 331 
L 3944 0 
L 2356 0 
L 2356 331 
L 2853 331 
L 2853 1931 
Q 2853 2541 2703 2767 
Q 2553 2994 2175 2994 
Q 1775 2994 1565 2701 
Q 1356 2409 1356 1850 
L 1356 331 
L 1856 331 
L 1856 0 
L 263 0 
z
" transform="scale(0.015625)"/>
       <path id="DejaVuSerif-67" d="M 3359 2988 
L 3359 72 
Q 3359 -644 2965 -1033 
Q 2572 -1422 1844 -1422 
Q 1516 -1422 1216 -1362 
Q 916 -1303 641 -1184 
L 641 -488 
L 941 -488 
Q 997 -813 1206 -963 
Q 1416 -1113 1806 -1113 
Q 2313 -1113 2548 -827 
Q 2784 -541 2784 72 
L 2784 519 
Q 2616 206 2355 57 
Q 2094 -91 1709 -91 
Q 1097 -91 708 395 
Q 319 881 319 1663 
Q 319 2444 706 2928 
Q 1094 3413 1709 3413 
Q 2094 3413 2355 3264 
Q 2616 3116 2784 2803 
L 2784 3322 
L 3909 3322 
L 3909 2988 
L 3359 2988 
z
M 2784 1825 
Q 2784 2422 2554 2737 
Q 2325 3053 1888 3053 
Q 1444 3053 1217 2703 
Q 991 2353 991 1663 
Q 991 975 1217 622 
Q 1444 269 1888 269 
Q 2325 269 2554 583 
Q 2784 897 2784 1497 
L 2784 1825 
z
" transform="scale(0.015625)"/>
       <path id="DejaVuSerif-6c" d="M 1313 331 
L 1856 331 
L 1856 0 
L 184 0 
L 184 331 
L 738 331 
L 738 4531 
L 184 4531 
L 184 4863 
L 1313 4863 
L 1313 331 
z
" transform="scale(0.015625)"/>
       <path id="DejaVuSerif-65" d="M 3469 1600 
L 991 1600 
L 991 1575 
Q 991 903 1244 561 
Q 1497 219 1991 219 
Q 2369 219 2611 417 
Q 2853 616 2950 1006 
L 3413 1006 
Q 3275 459 2904 184 
Q 2534 -91 1931 -91 
Q 1203 -91 761 389 
Q 319 869 319 1663 
Q 319 2450 753 2931 
Q 1188 3413 1894 3413 
Q 2647 3413 3050 2948 
Q 3453 2484 3469 1600 
z
M 2791 1931 
Q 2772 2513 2545 2808 
Q 2319 3103 1894 3103 
Q 1497 3103 1269 2806 
Q 1041 2509 991 1931 
L 2791 1931 
z
" transform="scale(0.015625)"/>
       <path id="DejaVuSans-Oblique-3b2" d="M 872 216 
L 572 -1331 
L -6 -1331 
L 928 3478 
Q 1206 4903 2538 4903 
Q 3888 4903 3659 3700 
Q 3503 2844 2894 2531 
Q 3713 2250 3553 1416 
Q 3272 -69 1759 -66 
Q 1097 -63 872 216 
z
M 1019 966 
Q 1259 422 1875 425 
Q 2775 425 2966 1406 
Q 3138 2288 1675 2219 
L 1778 2750 
Q 2909 2731 3106 3750 
Q 3241 4438 2509 4434 
Q 1691 4434 1503 3459 
L 1019 966 
z
" transform="scale(0.015625)"/>
       <path id="DejaVuSerif-5b" d="M 550 4863 
L 2003 4863 
L 2003 4531 
L 1147 4531 
L 1147 -513 
L 2003 -513 
L 2003 -844 
L 550 -844 
L 550 4863 
z
" transform="scale(0.015625)"/>
       <path id="DejaVuSerif-64" d="M 3359 331 
L 3909 331 
L 3909 0 
L 2784 0 
L 2784 519 
Q 2616 206 2355 57 
Q 2094 -91 1709 -91 
Q 1097 -91 708 395 
Q 319 881 319 1663 
Q 319 2444 706 2928 
Q 1094 3413 1709 3413 
Q 2094 3413 2355 3264 
Q 2616 3116 2784 2803 
L 2784 4531 
L 2241 4531 
L 2241 4863 
L 3359 4863 
L 3359 331 
z
M 2784 1497 
L 2784 1825 
Q 2784 2422 2554 2737 
Q 2325 3053 1888 3053 
Q 1444 3053 1217 2703 
Q 991 2353 991 1663 
Q 991 975 1217 622 
Q 1444 269 1888 269 
Q 2325 269 2554 583 
Q 2784 897 2784 1497 
z
" transform="scale(0.015625)"/>
       <path id="DejaVuSerif-5d" d="M 1947 4863 
L 1947 -844 
L 494 -844 
L 494 -513 
L 1350 -513 
L 1350 4531 
L 494 4531 
L 494 4863 
L 1947 4863 
z
" transform="scale(0.015625)"/>
      </defs>
      <use xlink:href="#DejaVuSerif-44" transform="translate(0 0.390625)"/>
      <use xlink:href="#DejaVuSerif-72" transform="translate(80.175781 0.390625)"/>
      <use xlink:href="#DejaVuSerif-69" transform="translate(127.978516 0.390625)"/>
      <use xlink:href="#DejaVuSerif-66" transform="translate(159.960938 0.390625)"/>
      <use xlink:href="#DejaVuSerif-74" transform="translate(196.972656 0.390625)"/>
      <use xlink:href="#DejaVuSerif-20" transform="translate(237.158203 0.390625)"/>
      <use xlink:href="#DejaVuSerif-61" transform="translate(268.945312 0.390625)"/>
      <use xlink:href="#DejaVuSerif-6e" transform="translate(328.564453 0.390625)"/>
      <use xlink:href="#DejaVuSerif-67" transform="translate(392.96875 0.390625)"/>
      <use xlink:href="#DejaVuSerif-6c" transform="translate(456.982422 0.390625)"/>
      <use xlink:href="#DejaVuSerif-65" transform="translate(488.964844 0.390625)"/>
      <use xlink:href="#DejaVuSerif-20" transform="translate(548.144531 0.390625)"/>
      <use xlink:href="#DejaVuSans-Oblique-3b2" transform="translate(579.931641 0.390625)"/>
      <use xlink:href="#DejaVuSerif-20" transform="translate(643.75 0.390625)"/>
      <use xlink:href="#DejaVuSerif-5b" transform="translate(675.537109 0.390625)"/>
      <use xlink:href="#DejaVuSerif-64" transform="translate(714.550781 0.390625)"/>
      <use xlink:href="#DejaVuSerif-65" transform="translate(778.564453 0.390625)"/>
      <use xlink:href="#DejaVuSerif-67" transform="translate(837.744141 0.390625)"/>
      <use xlink:href="#DejaVuSerif-5d" transform="translate(901.757812 0.390625)"/>
     </g>
    </g>
   </g>
   <g id="matplotlib.axis_2">
    <g id="ytick_1">
     <g id="line2d_8"/>
     <g id="text_9">
      <!-- −0.6 -->
      <g style="fill: #262626" transform="translate(13.774928 177.792408) scale(0.08 -0.08)">
       <defs>
        <path id="DejaVuSerif-2e" d="M 603 325 
Q 603 500 722 622 
Q 841 744 1019 744 
Q 1191 744 1312 622 
Q 1434 500 1434 325 
Q 1434 153 1312 31 
Q 1191 -91 1019 -91 
Q 841 -91 722 29 
Q 603 150 603 325 
z
" transform="scale(0.015625)"/>
        <path id="DejaVuSerif-36" d="M 2094 219 
Q 2534 219 2771 542 
Q 3009 866 3009 1472 
Q 3009 2078 2771 2401 
Q 2534 2725 2094 2725 
Q 1647 2725 1412 2412 
Q 1178 2100 1178 1509 
Q 1178 888 1415 553 
Q 1653 219 2094 219 
z
M 1075 2569 
Q 1288 2803 1556 2918 
Q 1825 3034 2163 3034 
Q 2859 3034 3264 2615 
Q 3669 2197 3669 1472 
Q 3669 763 3233 336 
Q 2797 -91 2069 -91 
Q 1278 -91 853 498 
Q 428 1088 428 2181 
Q 428 3406 931 4078 
Q 1434 4750 2350 4750 
Q 2597 4750 2869 4703 
Q 3141 4656 3425 4563 
L 3425 3794 
L 3072 3794 
Q 3034 4109 2831 4275 
Q 2628 4441 2284 4441 
Q 1678 4441 1381 3981 
Q 1084 3522 1075 2569 
z
" transform="scale(0.015625)"/>
       </defs>
       <use xlink:href="#DejaVuSerif-2212"/>
       <use xlink:href="#DejaVuSerif-30" x="83.789062"/>
       <use xlink:href="#DejaVuSerif-2e" x="147.412109"/>
       <use xlink:href="#DejaVuSerif-36" x="179.199219"/>
      </g>
     </g>
    </g>
    <g id="ytick_2">
     <g id="line2d_9"/>
     <g id="text_10">
      <!-- −0.4 -->
      <g style="fill: #262626" transform="translate(13.774928 147.871341) scale(0.08 -0.08)">
       <defs>
        <path id="DejaVuSerif-34" d="M 2234 1581 
L 2234 4063 
L 641 1581 
L 2234 1581 
z
M 3609 0 
L 1484 0 
L 1484 331 
L 2234 331 
L 2234 1247 
L 197 1247 
L 197 1588 
L 2241 4750 
L 2859 4750 
L 2859 1581 
L 3750 1581 
L 3750 1247 
L 2859 1247 
L 2859 331 
L 3609 331 
L 3609 0 
z
" transform="scale(0.015625)"/>
       </defs>
       <use xlink:href="#DejaVuSerif-2212"/>
       <use xlink:href="#DejaVuSerif-30" x="83.789062"/>
       <use xlink:href="#DejaVuSerif-2e" x="147.412109"/>
       <use xlink:href="#DejaVuSerif-34" x="179.199219"/>
      </g>
     </g>
    </g>
    <g id="ytick_3">
     <g id="line2d_10"/>
     <g id="text_11">
      <!-- −0.2 -->
      <g style="fill: #262626" transform="translate(13.774928 117.950273) scale(0.08 -0.08)">
       <use xlink:href="#DejaVuSerif-2212"/>
       <use xlink:href="#DejaVuSerif-30" x="83.789062"/>
       <use xlink:href="#DejaVuSerif-2e" x="147.412109"/>
       <use xlink:href="#DejaVuSerif-32" x="179.199219"/>
      </g>
     </g>
    </g>
    <g id="ytick_4">
     <g id="line2d_11"/>
     <g id="text_12">
      <!-- 0.0 -->
      <g style="fill: #262626" transform="translate(20.478677 88.029206) scale(0.08 -0.08)">
       <use xlink:href="#DejaVuSerif-30"/>
       <use xlink:href="#DejaVuSerif-2e" x="63.623047"/>
       <use xlink:href="#DejaVuSerif-30" x="95.410156"/>
      </g>
     </g>
    </g>
    <g id="ytick_5">
     <g id="line2d_12"/>
     <g id="text_13">
      <!-- 0.2 -->
      <g style="fill: #262626" transform="translate(20.478677 58.108139) scale(0.08 -0.08)">
       <use xlink:href="#DejaVuSerif-30"/>
       <use xlink:href="#DejaVuSerif-2e" x="63.623047"/>
       <use xlink:href="#DejaVuSerif-32" x="95.410156"/>
      </g>
     </g>
    </g>
    <g id="ytick_6">
     <g id="line2d_13"/>
     <g id="text_14">
      <!-- 0.4 -->
      <g style="fill: #262626" transform="translate(20.478677 28.187072) scale(0.08 -0.08)">
       <use xlink:href="#DejaVuSerif-30"/>
       <use xlink:href="#DejaVuSerif-2e" x="63.623047"/>
       <use xlink:href="#DejaVuSerif-34" x="95.410156"/>
      </g>
     </g>
    </g>
    <g id="text_15">
     <!-- Yaw rate $r'$ [-] -->
     <g style="fill: #262626" transform="translate(8.319146 122.445302) rotate(-90) scale(0.07 -0.07)">
      <defs>
       <path id="DejaVuSerif-59" d="M 1209 0 
L 1209 331 
L 1806 331 
L 1806 2009 
L 366 4331 
L -72 4331 
L -72 4666 
L 1663 4666 
L 1663 4331 
L 1119 4331 
L 2284 2444 
L 3450 4331 
L 2925 4331 
L 2925 4666 
L 4281 4666 
L 4281 4331 
L 3841 4331 
L 2438 2069 
L 2438 331 
L 3034 331 
L 3034 0 
L 1209 0 
z
" transform="scale(0.015625)"/>
       <path id="DejaVuSerif-77" d="M 3072 3322 
L 3922 728 
L 4672 2988 
L 4191 2988 
L 4191 3322 
L 5394 3322 
L 5394 2988 
L 5025 2988 
L 4038 0 
L 3559 0 
L 2741 2484 
L 1919 0 
L 1459 0 
L 475 2988 
L 103 2988 
L 103 3322 
L 1606 3322 
L 1606 2988 
L 1069 2988 
L 1813 728 
L 2669 3322 
L 3072 3322 
z
" transform="scale(0.015625)"/>
       <path id="DejaVuSans-Oblique-72" d="M 2853 2969 
Q 2766 3016 2653 3041 
Q 2541 3066 2413 3066 
Q 1953 3066 1609 2717 
Q 1266 2369 1153 1784 
L 800 0 
L 225 0 
L 909 3500 
L 1484 3500 
L 1375 2956 
Q 1603 3259 1920 3421 
Q 2238 3584 2597 3584 
Q 2691 3584 2781 3573 
Q 2872 3563 2963 3538 
L 2853 2969 
z
" transform="scale(0.015625)"/>
       <path id="Cmsy10-30" d="M 225 347 
Q 184 359 184 409 
L 966 3316 
Q 1003 3434 1093 3506 
Q 1184 3578 1300 3578 
Q 1450 3578 1564 3479 
Q 1678 3381 1678 3231 
Q 1678 3166 1644 3084 
L 488 319 
Q 466 275 428 275 
Q 394 275 320 306 
Q 247 338 225 347 
z
" transform="scale(0.015625)"/>
       <path id="DejaVuSerif-2d" d="M 281 1959 
L 1881 1959 
L 1881 1472 
L 281 1472 
L 281 1959 
z
" transform="scale(0.015625)"/>
      </defs>
      <use xlink:href="#DejaVuSerif-59" transform="translate(0 0.584375)"/>
      <use xlink:href="#DejaVuSerif-61" transform="translate(66.015625 0.584375)"/>
      <use xlink:href="#DejaVuSerif-77" transform="translate(125.634766 0.584375)"/>
      <use xlink:href="#DejaVuSerif-20" transform="translate(211.230469 0.584375)"/>
      <use xlink:href="#DejaVuSerif-72" transform="translate(243.017578 0.584375)"/>
      <use xlink:href="#DejaVuSerif-61" transform="translate(290.820312 0.584375)"/>
      <use xlink:href="#DejaVuSerif-74" transform="translate(350.439453 0.584375)"/>
      <use xlink:href="#DejaVuSerif-65" transform="translate(390.625 0.584375)"/>
      <use xlink:href="#DejaVuSerif-20" transform="translate(449.804688 0.584375)"/>
      <use xlink:href="#DejaVuSans-Oblique-72" transform="translate(481.591797 0.584375)"/>
      <use xlink:href="#Cmsy10-30" transform="translate(527.354974 38.865625) scale(0.7)"/>
      <use xlink:href="#DejaVuSerif-20" transform="translate(549.332513 0.584375)"/>
      <use xlink:href="#DejaVuSerif-5b" transform="translate(581.119622 0.584375)"/>
      <use xlink:href="#DejaVuSerif-2d" transform="translate(620.133294 0.584375)"/>
      <use xlink:href="#DejaVuSerif-5d" transform="translate(653.922357 0.584375)"/>
     </g>
    </g>
   </g>
   <g id="line2d_14">
    <path d="M 176.653597 84.989831 
L 176.65271 84.203022 
L 176.543613 84.947416 
L 176.025382 86.155924 
L 174.609142 88.83903 
L 172.422072 92.494104 
L 169.533322 96.869 
L 166.024087 101.766337 
L 162.476726 106.360694 
L 159.43384 109.931952 
L 156.222019 113.344931 
L 153.000358 116.44052 
L 149.585785 119.406003 
L 145.979876 122.225663 
L 142.201586 124.874931 
L 138.094717 127.450952 
L 133.691143 129.922279 
L 129.704811 131.939869 
L 124.994785 134.081641 
L 119.443377 136.357546 
L 114.204152 138.282616 
L 108.765105 140.001117 
L 103.20121 141.503784 
L 94.254207 143.614776 
L 83.498264 145.810121 
L 80.000291 146.150149 
L 78.298918 146.132068 
L 77.463869 145.835616 
L 76.847544 145.355702 
L 76.368113 144.664583 
L 76.024268 143.78764 
L 75.803439 142.585838 
L 75.744519 141.031496 
L 75.900056 139.065305 
L 76.285616 136.841796 
L 76.975391 134.151129 
L 78.041182 130.957482 
L 79.546167 127.242004 
L 81.394199 123.263654 
L 83.732585 118.774226 
L 86.416663 114.094042 
L 89.255922 109.541422 
L 92.432958 104.867954 
L 96.165462 99.791123 
L 99.971782 94.958824 
L 104.364051 89.745743 
L 109.071543 84.501701 
L 112.652121 80.842531 
L 116.207312 77.528616 
L 120.010701 74.29862 
L 123.768513 71.393336 
L 128.066457 68.367454 
L 132.333122 65.629986 
L 136.823204 63.017454 
L 141.55281 60.514927 
L 147.311836 57.755453 
L 153.782186 54.93429 
L 161.407109 51.880669 
L 170.43358 48.590083 
L 179.016696 45.700948 
L 189.079141 42.611663 
L 196.390734 40.577141 
L 203.217117 38.91043 
L 210.241126 37.409304 
L 217.329535 36.111214 
L 229.772906 33.959638 
L 249.82037 30.053023 
L 257.743735 28.76689 
L 271.50286 26.12905 
L 279.338904 25.100018 
L 287.647615 24.153384 
L 293.773166 23.555264 
L 295.724719 23.431121 
L 298.222151 23.424484 
L 299.577965 23.65227 
L 300.491312 24.091467 
L 301.389 24.607109 
L 301.813797 24.935608 
L 301.925574 25.414559 
L 301.850941 26.317202 
L 301.46349 27.795221 
L 300.643543 30.009786 
L 299.16242 33.295322 
L 297.123466 37.205722 
L 294.555382 41.631116 
L 291.496728 46.473457 
L 288.152092 51.372407 
L 284.385905 56.509014 
L 279.992389 62.117161 
L 275.435912 67.569435 
L 270.522926 73.113405 
L 265.250643 78.733296 
L 259.606941 84.414129 
L 255.013915 88.765207 
L 251.113574 92.125734 
L 247.270557 95.147965 
L 243.172913 98.091255 
L 238.830998 100.931666 
L 234.240135 103.668011 
L 229.42424 106.2854 
L 224.409855 108.777601 
L 218.624403 111.418427 
L 212.664482 113.87902 
L 206.301637 116.244395 
L 193.351927 120.772747 
L 184.913258 123.52081 
L 175.12813 126.481325 
L 166.27971 128.897418 
L 159.674161 130.473832 
L 154.622107 131.473719 
L 148.671337 132.435974 
L 125.701164 135.904906 
L 116.047567 137.578206 
L 112.579748 138.217381 
L 90.233551 142.630856 
L 84.596087 143.611213 
L 81.544701 144.004597 
L 77.696841 144.306986 
L 70.113008 144.934107 
L 66.531498 145.392983 
L 62.679638 145.826244 
L 59.753759 145.933009 
L 58.30271 145.855043 
L 56.731118 145.443334 
L 55.884901 144.899986 
L 55.779289 144.429279 
L 55.837693 143.555673 
L 56.202525 142.000169 
L 56.944109 139.835638 
L 58.106728 137.142825 
L 59.815969 133.783512 
L 62.10117 129.750451 
L 65.149806 124.804002 
L 68.74142 119.447872 
L 73.216308 113.221559 
L 77.7296 107.322002 
L 82.399414 101.565135 
L 86.927066 96.306081 
L 91.520406 91.304361 
L 96.72597 85.966024 
L 101.526294 81.333793 
L 105.315452 78.013042 
L 109.340109 74.800151 
L 113.308315 71.908364 
L 117.514058 69.119424 
L 121.932546 66.454597 
L 126.862411 63.751457 
L 131.969303 61.230834 
L 137.524092 58.717515 
L 143.499691 56.229356 
L 150.345106 53.615707 
L 159.972185 50.238187 
L 167.191509 47.907169 
L 179.08235 44.351053 
L 186.597944 42.306785 
L 193.871418 40.560572 
L 199.044227 39.515709 
L 204.226802 38.695434 
L 220.153569 36.468524 
L 231.791157 34.679293 
L 248.050075 31.551079 
L 273.599975 26.834076 
L 287.355533 25.569682 
L 290.577728 25.205267 
L 296.257205 24.816224 
L 297.053779 25.029839 
L 297.553154 25.380481 
L 298.41912 26.439025 
L 298.415685 27.170673 
L 298.118807 28.637421 
L 297.458246 30.659947 
L 296.31466 33.361363 
L 294.663635 36.778015 
L 292.413518 40.935719 
L 289.619579 45.575701 
L 286.14781 50.865164 
L 282.186289 56.473534 
L 277.783977 62.316443 
L 273.661094 67.436851 
L 268.914925 72.951548 
L 263.820822 78.538948 
L 258.084499 84.490426 
L 252.689973 89.779383 
L 248.893734 93.152912 
L 245.151787 96.183649 
L 241.148678 99.139118 
L 236.899621 101.987018 
L 232.439569 104.708849 
L 228.051981 107.147187 
L 223.162252 109.622608 
L 216.180831 112.857945 
L 210.743111 115.158348 
L 204.368436 117.637467 
L 196.657187 120.336936 
L 188.823268 122.85963 
L 180.289382 125.410185 
L 169.268377 128.442772 
L 160.181775 130.652599 
L 154.710211 132.069782 
L 150.808215 133.277171 
L 147.267988 134.571093 
L 143.272797 136.292345 
L 139.371209 138.253996 
L 134.095772 141.207506 
L 133.242185 141.69784 
L 133.242185 141.69784 
" clip-path="url(#p27c76dff92)" style="fill: none; stroke: #2a2eec; stroke-width: 0.4; stroke-linecap: round"/>
   </g>
   <g id="line2d_15">
    <path d="M 176.653597 84.989831 
L 177.110856 85.55066 
L 177.203083 86.028454 
L 177.090011 86.501427 
L 176.303489 87.982298 
L 174.41916 91.055749 
L 172.343179 94.078027 
L 170.316658 96.641466 
L 168.308492 98.837434 
L 166.11349 100.897138 
L 163.973361 102.619643 
L 161.330166 104.428497 
L 158.477218 106.080494 
L 155.729243 107.452286 
L 151.086747 109.47209 
L 145.166287 111.776809 
L 140.002272 113.574987 
L 136.994864 114.469073 
L 135.448571 114.748961 
L 134.293231 114.776953 
L 133.159293 114.60214 
L 132.905412 114.316998 
L 132.748332 113.792677 
L 132.738475 112.889902 
L 132.9761 111.470493 
L 133.570129 109.412939 
L 134.57851 106.772072 
L 135.975234 103.720377 
L 137.883625 100.09278 
L 140.228554 96.122966 
L 142.567174 92.582945 
L 145.004648 89.304895 
L 147.422427 86.432095 
L 149.828352 83.910096 
L 152.491264 81.457268 
L 155.272438 79.222704 
L 158.541003 76.901473 
L 161.911758 74.767947 
L 165.882484 72.530913 
L 170.382876 70.287625 
L 176.22336 67.632305 
L 181.978965 65.260426 
L 186.109208 63.761898 
L 191.89652 61.93659 
L 195.362136 61.036011 
L 200.77352 59.909822 
L 207.855861 58.814322 
L 211.961618 58.172516 
L 215.962805 57.281217 
L 219.573988 56.125633 
L 222.962788 55.089934 
L 225.480692 54.466879 
L 228.228835 54.038665 
L 231.531552 53.836538 
L 234.562645 53.539058 
L 236.323066 53.24326 
L 236.853849 53.382602 
L 237.116093 53.664594 
L 237.390565 54.306707 
L 237.261135 55.012538 
L 236.720047 56.523239 
L 235.653258 58.802239 
L 233.700289 62.355308 
L 231.069197 66.654748 
L 228.046303 71.128978 
L 225.06572 75.178965 
L 222.430951 78.385161 
L 219.840807 81.204132 
L 217.13528 83.832554 
L 214.307121 86.268461 
L 211.373869 88.506213 
L 208.327361 90.552649 
L 204.898505 92.579435 
L 201.2646 94.483457 
L 196.879693 96.520463 
L 187.262748 100.565824 
L 175.39673 105.306004 
L 169.899825 107.215717 
L 164.629237 108.772332 
L 158.920648 110.187205 
L 155.300454 110.812842 
L 144.067102 112.386563 
L 130.687218 115.181478 
L 127.752154 115.568145 
L 124.9696 115.939727 
L 123.414205 116.129243 
L 121.18877 116.349541 
L 119.161983 116.199987 
L 118.576765 115.90938 
L 118.383097 115.599976 
L 118.385808 115.202485 
L 118.91445 113.249556 
L 119.757353 110.973532 
L 121.038144 108.163416 
L 122.717125 104.982467 
L 124.880866 101.366094 
L 127.663827 97.180787 
L 130.41175 93.387891 
L 133.107969 90.053802 
L 135.755122 87.136958 
L 138.366248 84.584228 
L 141.087674 82.22957 
L 143.911935 80.061006 
L 146.995593 77.977446 
L 150.445393 75.938008 
L 153.96533 74.10533 
L 158.106569 72.233527 
L 164.326078 69.706667 
L 173.643674 66.244029 
L 177.924372 64.82488 
L 182.751928 63.482678 
L 189.068921 61.999719 
L 192.384795 61.420407 
L 199.540306 60.516905 
L 204.238202 60.058571 
L 208.946437 59.357308 
L 213.253469 58.520891 
L 218.507309 57.352406 
L 221.269053 57.00159 
L 225.244964 56.662447 
L 231.893167 55.889759 
L 234.701546 55.684302 
L 235.4829 56.116459 
L 235.840134 56.540948 
L 235.833136 57.062395 
L 235.555407 58.214366 
L 234.853402 60.109151 
L 233.627593 62.729189 
L 231.709361 66.262612 
L 229.219168 70.363342 
L 226.297629 74.700366 
L 223.635294 78.294774 
L 221.027974 81.437973 
L 218.45822 84.185869 
L 215.766332 86.732365 
L 212.968274 89.082308 
L 210.060303 91.239036 
L 206.906908 93.292887 
L 203.384505 95.307084 
L 199.25611 97.390356 
L 194.700603 99.403652 
L 189.785239 101.342794 
L 182.573604 103.892505 
L 167.997679 108.893634 
L 164.126713 110.581185 
L 164.126713 110.581185 
" clip-path="url(#p27c76dff92)" style="fill: none; stroke: #fa7c17; stroke-width: 0.4; stroke-linecap: round"/>
   </g>
   <g id="line2d_16">
    <defs>
     <path id="mf55a3601cf" d="M -2 2 
L 2 -2 
M -2 -2 
L 2 2 
" style="stroke: #328c06"/>
    </defs>
    <g clip-path="url(#p27c76dff92)">
     <use xlink:href="#mf55a3601cf" x="176.653597" y="184.726722" style="fill: #328c06; stroke: #328c06"/>
     <use xlink:href="#mf55a3601cf" x="176.653597" y="159.792499" style="fill: #328c06; stroke: #328c06"/>
     <use xlink:href="#mf55a3601cf" x="176.653597" y="134.858277" style="fill: #328c06; stroke: #328c06"/>
     <use xlink:href="#mf55a3601cf" x="176.653597" y="122.391165" style="fill: #328c06; stroke: #328c06"/>
     <use xlink:href="#mf55a3601cf" x="176.653597" y="103.690498" style="fill: #328c06; stroke: #328c06"/>
     <use xlink:href="#mf55a3601cf" x="60.790273" y="158.32578" style="fill: #328c06; stroke: #328c06"/>
     <use xlink:href="#mf55a3601cf" x="60.790273" y="139.590319" style="fill: #328c06; stroke: #328c06"/>
     <use xlink:href="#mf55a3601cf" x="109.066658" y="139.590319" style="fill: #328c06; stroke: #328c06"/>
     <use xlink:href="#mf55a3601cf" x="60.790273" y="122.391165" style="fill: #328c06; stroke: #328c06"/>
     <use xlink:href="#mf55a3601cf" x="109.066658" y="122.391165" style="fill: #328c06; stroke: #328c06"/>
     <use xlink:href="#mf55a3601cf" x="109.066658" y="103.690498" style="fill: #328c06; stroke: #328c06"/>
     <use xlink:href="#mf55a3601cf" x="195.964151" y="122.391165" style="fill: #328c06; stroke: #328c06"/>
     <use xlink:href="#mf55a3601cf" x="195.964151" y="103.690498" style="fill: #328c06; stroke: #328c06"/>
     <use xlink:href="#mf55a3601cf" x="215.274705" y="103.690498" style="fill: #328c06; stroke: #328c06"/>
     <use xlink:href="#mf55a3601cf" x="244.240536" y="103.690498" style="fill: #328c06; stroke: #328c06"/>
     <use xlink:href="#mf55a3601cf" x="80.100827" y="122.391165" style="fill: #328c06; stroke: #328c06"/>
     <use xlink:href="#mf55a3601cf" x="157.343043" y="122.391165" style="fill: #328c06; stroke: #328c06"/>
     <use xlink:href="#mf55a3601cf" x="138.032489" y="122.391165" style="fill: #328c06; stroke: #328c06"/>
     <use xlink:href="#mf55a3601cf" x="80.100827" y="103.690498" style="fill: #328c06; stroke: #328c06"/>
     <use xlink:href="#mf55a3601cf" x="157.343043" y="103.690498" style="fill: #328c06; stroke: #328c06"/>
     <use xlink:href="#mf55a3601cf" x="138.032489" y="103.690498" style="fill: #328c06; stroke: #328c06"/>
     <use xlink:href="#mf55a3601cf" x="157.343043" y="103.690498" style="fill: #328c06; stroke: #328c06"/>
     <use xlink:href="#mf55a3601cf" x="157.343043" y="103.690498" style="fill: #328c06; stroke: #328c06"/>
     <use xlink:href="#mf55a3601cf" x="138.032489" y="103.690498" style="fill: #328c06; stroke: #328c06"/>
     <use xlink:href="#mf55a3601cf" x="109.066658" y="103.690498" style="fill: #328c06; stroke: #328c06"/>
     <use xlink:href="#mf55a3601cf" x="109.066658" y="103.690498" style="fill: #328c06; stroke: #328c06"/>
     <use xlink:href="#mf55a3601cf" x="176.653597" y="122.391165" style="fill: #328c06; stroke: #328c06"/>
     <use xlink:href="#mf55a3601cf" x="176.653597" y="103.690498" style="fill: #328c06; stroke: #328c06"/>
     <use xlink:href="#mf55a3601cf" x="176.653597" y="103.690498" style="fill: #328c06; stroke: #328c06"/>
     <use xlink:href="#mf55a3601cf" x="176.653597" y="103.690498" style="fill: #328c06; stroke: #328c06"/>
     <use xlink:href="#mf55a3601cf" x="244.240536" y="84.989831" style="fill: #328c06; stroke: #328c06"/>
     <use xlink:href="#mf55a3601cf" x="273.206367" y="84.989831" style="fill: #328c06; stroke: #328c06"/>
     <use xlink:href="#mf55a3601cf" x="321.482752" y="84.989831" style="fill: #328c06; stroke: #328c06"/>
     <use xlink:href="#mf55a3601cf" x="195.964151" y="84.989831" style="fill: #328c06; stroke: #328c06"/>
     <use xlink:href="#mf55a3601cf" x="369.759137" y="84.989831" style="fill: #328c06; stroke: #328c06"/>
     <use xlink:href="#mf55a3601cf" x="215.274705" y="84.989831" style="fill: #328c06; stroke: #328c06"/>
     <use xlink:href="#mf55a3601cf" x="195.964151" y="84.989831" style="fill: #328c06; stroke: #328c06"/>
     <use xlink:href="#mf55a3601cf" x="215.274705" y="84.989831" style="fill: #328c06; stroke: #328c06"/>
     <use xlink:href="#mf55a3601cf" x="215.274705" y="84.989831" style="fill: #328c06; stroke: #328c06"/>
     <use xlink:href="#mf55a3601cf" x="215.274705" y="84.989831" style="fill: #328c06; stroke: #328c06"/>
     <use xlink:href="#mf55a3601cf" x="176.653597" y="84.989831" style="fill: #328c06; stroke: #328c06"/>
     <use xlink:href="#mf55a3601cf" x="176.653597" y="84.989831" style="fill: #328c06; stroke: #328c06"/>
     <use xlink:href="#mf55a3601cf" x="176.653597" y="84.989831" style="fill: #328c06; stroke: #328c06"/>
     <use xlink:href="#mf55a3601cf" x="176.653597" y="84.989831" style="fill: #328c06; stroke: #328c06"/>
     <use xlink:href="#mf55a3601cf" x="176.653597" y="84.989831" style="fill: #328c06; stroke: #328c06"/>
     <use xlink:href="#mf55a3601cf" x="176.653597" y="84.989831" style="fill: #328c06; stroke: #328c06"/>
     <use xlink:href="#mf55a3601cf" x="176.653597" y="84.989831" style="fill: #328c06; stroke: #328c06"/>
     <use xlink:href="#mf55a3601cf" x="176.653597" y="84.989831" style="fill: #328c06; stroke: #328c06"/>
     <use xlink:href="#mf55a3601cf" x="176.653597" y="84.989831" style="fill: #328c06; stroke: #328c06"/>
     <use xlink:href="#mf55a3601cf" x="176.653597" y="84.989831" style="fill: #328c06; stroke: #328c06"/>
     <use xlink:href="#mf55a3601cf" x="52.56108" y="148.651676" style="fill: #328c06; stroke: #328c06"/>
     <use xlink:href="#mf55a3601cf" x="176.653597" y="84.989831" style="fill: #328c06; stroke: #328c06"/>
     <use xlink:href="#mf55a3601cf" x="176.653597" y="84.989831" style="fill: #328c06; stroke: #328c06"/>
     <use xlink:href="#mf55a3601cf" x="176.653597" y="84.989831" style="fill: #328c06; stroke: #328c06"/>
     <use xlink:href="#mf55a3601cf" x="176.653597" y="84.989831" style="fill: #328c06; stroke: #328c06"/>
     <use xlink:href="#mf55a3601cf" x="176.653597" y="84.989831" style="fill: #328c06; stroke: #328c06"/>
     <use xlink:href="#mf55a3601cf" x="292.516921" y="11.653882" style="fill: #328c06; stroke: #328c06"/>
     <use xlink:href="#mf55a3601cf" x="292.516921" y="30.389343" style="fill: #328c06; stroke: #328c06"/>
     <use xlink:href="#mf55a3601cf" x="244.240536" y="30.389343" style="fill: #328c06; stroke: #328c06"/>
     <use xlink:href="#mf55a3601cf" x="292.516921" y="47.588497" style="fill: #328c06; stroke: #328c06"/>
     <use xlink:href="#mf55a3601cf" x="244.240536" y="47.588497" style="fill: #328c06; stroke: #328c06"/>
     <use xlink:href="#mf55a3601cf" x="244.240536" y="66.289164" style="fill: #328c06; stroke: #328c06"/>
     <use xlink:href="#mf55a3601cf" x="157.343043" y="47.588497" style="fill: #328c06; stroke: #328c06"/>
     <use xlink:href="#mf55a3601cf" x="157.343043" y="66.289164" style="fill: #328c06; stroke: #328c06"/>
     <use xlink:href="#mf55a3601cf" x="138.032489" y="66.289164" style="fill: #328c06; stroke: #328c06"/>
     <use xlink:href="#mf55a3601cf" x="109.066658" y="66.289164" style="fill: #328c06; stroke: #328c06"/>
     <use xlink:href="#mf55a3601cf" x="273.206367" y="47.588497" style="fill: #328c06; stroke: #328c06"/>
     <use xlink:href="#mf55a3601cf" x="195.964151" y="47.588497" style="fill: #328c06; stroke: #328c06"/>
     <use xlink:href="#mf55a3601cf" x="215.274705" y="47.588497" style="fill: #328c06; stroke: #328c06"/>
     <use xlink:href="#mf55a3601cf" x="273.206367" y="66.289164" style="fill: #328c06; stroke: #328c06"/>
     <use xlink:href="#mf55a3601cf" x="195.964151" y="66.289164" style="fill: #328c06; stroke: #328c06"/>
     <use xlink:href="#mf55a3601cf" x="215.274705" y="66.289164" style="fill: #328c06; stroke: #328c06"/>
     <use xlink:href="#mf55a3601cf" x="176.653597" y="159.792499" style="fill: #328c06; stroke: #328c06"/>
     <use xlink:href="#mf55a3601cf" x="176.653597" y="122.391165" style="fill: #328c06; stroke: #328c06"/>
     <use xlink:href="#mf55a3601cf" x="176.653597" y="103.690498" style="fill: #328c06; stroke: #328c06"/>
     <use xlink:href="#mf55a3601cf" x="176.653597" y="159.792499" style="fill: #328c06; stroke: #328c06"/>
     <use xlink:href="#mf55a3601cf" x="176.653597" y="122.391165" style="fill: #328c06; stroke: #328c06"/>
     <use xlink:href="#mf55a3601cf" x="176.653597" y="103.690498" style="fill: #328c06; stroke: #328c06"/>
     <use xlink:href="#mf55a3601cf" x="176.653597" y="159.792499" style="fill: #328c06; stroke: #328c06"/>
     <use xlink:href="#mf55a3601cf" x="176.653597" y="122.391165" style="fill: #328c06; stroke: #328c06"/>
     <use xlink:href="#mf55a3601cf" x="176.653597" y="103.690498" style="fill: #328c06; stroke: #328c06"/>
     <use xlink:href="#mf55a3601cf" x="176.653597" y="159.792499" style="fill: #328c06; stroke: #328c06"/>
     <use xlink:href="#mf55a3601cf" x="176.653597" y="122.391165" style="fill: #328c06; stroke: #328c06"/>
     <use xlink:href="#mf55a3601cf" x="176.653597" y="103.690498" style="fill: #328c06; stroke: #328c06"/>
     <use xlink:href="#mf55a3601cf" x="176.653597" y="159.792499" style="fill: #328c06; stroke: #328c06"/>
     <use xlink:href="#mf55a3601cf" x="176.653597" y="122.391165" style="fill: #328c06; stroke: #328c06"/>
     <use xlink:href="#mf55a3601cf" x="176.653597" y="103.690498" style="fill: #328c06; stroke: #328c06"/>
     <use xlink:href="#mf55a3601cf" x="176.653597" y="159.792499" style="fill: #328c06; stroke: #328c06"/>
     <use xlink:href="#mf55a3601cf" x="176.653597" y="122.391165" style="fill: #328c06; stroke: #328c06"/>
     <use xlink:href="#mf55a3601cf" x="176.653597" y="103.690498" style="fill: #328c06; stroke: #328c06"/>
     <use xlink:href="#mf55a3601cf" x="176.653597" y="159.792499" style="fill: #328c06; stroke: #328c06"/>
     <use xlink:href="#mf55a3601cf" x="176.653597" y="122.391165" style="fill: #328c06; stroke: #328c06"/>
     <use xlink:href="#mf55a3601cf" x="176.653597" y="103.690498" style="fill: #328c06; stroke: #328c06"/>
     <use xlink:href="#mf55a3601cf" x="176.653597" y="159.792499" style="fill: #328c06; stroke: #328c06"/>
     <use xlink:href="#mf55a3601cf" x="176.653597" y="122.391165" style="fill: #328c06; stroke: #328c06"/>
     <use xlink:href="#mf55a3601cf" x="176.653597" y="103.690498" style="fill: #328c06; stroke: #328c06"/>
     <use xlink:href="#mf55a3601cf" x="244.240536" y="84.989831" style="fill: #328c06; stroke: #328c06"/>
     <use xlink:href="#mf55a3601cf" x="273.206367" y="84.989831" style="fill: #328c06; stroke: #328c06"/>
     <use xlink:href="#mf55a3601cf" x="195.964151" y="84.989831" style="fill: #328c06; stroke: #328c06"/>
     <use xlink:href="#mf55a3601cf" x="215.274705" y="84.989831" style="fill: #328c06; stroke: #328c06"/>
     <use xlink:href="#mf55a3601cf" x="244.240536" y="84.989831" style="fill: #328c06; stroke: #328c06"/>
     <use xlink:href="#mf55a3601cf" x="273.206367" y="84.989831" style="fill: #328c06; stroke: #328c06"/>
     <use xlink:href="#mf55a3601cf" x="195.964151" y="84.989831" style="fill: #328c06; stroke: #328c06"/>
     <use xlink:href="#mf55a3601cf" x="215.274705" y="84.989831" style="fill: #328c06; stroke: #328c06"/>
     <use xlink:href="#mf55a3601cf" x="244.240536" y="84.989831" style="fill: #328c06; stroke: #328c06"/>
     <use xlink:href="#mf55a3601cf" x="273.206367" y="84.989831" style="fill: #328c06; stroke: #328c06"/>
     <use xlink:href="#mf55a3601cf" x="195.964151" y="84.989831" style="fill: #328c06; stroke: #328c06"/>
     <use xlink:href="#mf55a3601cf" x="215.274705" y="84.989831" style="fill: #328c06; stroke: #328c06"/>
     <use xlink:href="#mf55a3601cf" x="244.240536" y="84.989831" style="fill: #328c06; stroke: #328c06"/>
     <use xlink:href="#mf55a3601cf" x="273.206367" y="84.989831" style="fill: #328c06; stroke: #328c06"/>
     <use xlink:href="#mf55a3601cf" x="195.964151" y="84.989831" style="fill: #328c06; stroke: #328c06"/>
     <use xlink:href="#mf55a3601cf" x="215.274705" y="84.989831" style="fill: #328c06; stroke: #328c06"/>
     <use xlink:href="#mf55a3601cf" x="244.240536" y="84.989831" style="fill: #328c06; stroke: #328c06"/>
     <use xlink:href="#mf55a3601cf" x="273.206367" y="84.989831" style="fill: #328c06; stroke: #328c06"/>
     <use xlink:href="#mf55a3601cf" x="195.964151" y="84.989831" style="fill: #328c06; stroke: #328c06"/>
     <use xlink:href="#mf55a3601cf" x="215.274705" y="84.989831" style="fill: #328c06; stroke: #328c06"/>
     <use xlink:href="#mf55a3601cf" x="244.240536" y="84.989831" style="fill: #328c06; stroke: #328c06"/>
     <use xlink:href="#mf55a3601cf" x="273.206367" y="84.989831" style="fill: #328c06; stroke: #328c06"/>
     <use xlink:href="#mf55a3601cf" x="195.964151" y="84.989831" style="fill: #328c06; stroke: #328c06"/>
     <use xlink:href="#mf55a3601cf" x="215.274705" y="84.989831" style="fill: #328c06; stroke: #328c06"/>
     <use xlink:href="#mf55a3601cf" x="244.240536" y="84.989831" style="fill: #328c06; stroke: #328c06"/>
     <use xlink:href="#mf55a3601cf" x="273.206367" y="84.989831" style="fill: #328c06; stroke: #328c06"/>
     <use xlink:href="#mf55a3601cf" x="195.964151" y="84.989831" style="fill: #328c06; stroke: #328c06"/>
     <use xlink:href="#mf55a3601cf" x="215.274705" y="84.989831" style="fill: #328c06; stroke: #328c06"/>
     <use xlink:href="#mf55a3601cf" x="244.240536" y="84.989831" style="fill: #328c06; stroke: #328c06"/>
     <use xlink:href="#mf55a3601cf" x="273.206367" y="84.989831" style="fill: #328c06; stroke: #328c06"/>
     <use xlink:href="#mf55a3601cf" x="195.964151" y="84.989831" style="fill: #328c06; stroke: #328c06"/>
     <use xlink:href="#mf55a3601cf" x="215.274705" y="84.989831" style="fill: #328c06; stroke: #328c06"/>
     <use xlink:href="#mf55a3601cf" x="244.240536" y="84.989831" style="fill: #328c06; stroke: #328c06"/>
     <use xlink:href="#mf55a3601cf" x="273.206367" y="84.989831" style="fill: #328c06; stroke: #328c06"/>
     <use xlink:href="#mf55a3601cf" x="195.964151" y="84.989831" style="fill: #328c06; stroke: #328c06"/>
     <use xlink:href="#mf55a3601cf" x="215.274705" y="84.989831" style="fill: #328c06; stroke: #328c06"/>
     <use xlink:href="#mf55a3601cf" x="244.240536" y="84.989831" style="fill: #328c06; stroke: #328c06"/>
     <use xlink:href="#mf55a3601cf" x="273.206367" y="84.989831" style="fill: #328c06; stroke: #328c06"/>
     <use xlink:href="#mf55a3601cf" x="195.964151" y="84.989831" style="fill: #328c06; stroke: #328c06"/>
     <use xlink:href="#mf55a3601cf" x="215.274705" y="84.989831" style="fill: #328c06; stroke: #328c06"/>
     <use xlink:href="#mf55a3601cf" x="244.240536" y="84.989831" style="fill: #328c06; stroke: #328c06"/>
     <use xlink:href="#mf55a3601cf" x="273.206367" y="84.989831" style="fill: #328c06; stroke: #328c06"/>
     <use xlink:href="#mf55a3601cf" x="195.964151" y="84.989831" style="fill: #328c06; stroke: #328c06"/>
     <use xlink:href="#mf55a3601cf" x="215.274705" y="84.989831" style="fill: #328c06; stroke: #328c06"/>
    </g>
   </g>
   <g id="patch_3">
    <path d="M 36.701178 193.380364 
L 36.701178 3.00024 
" style="fill: none; stroke: #000000; stroke-linejoin: miter; stroke-linecap: square"/>
   </g>
   <g id="patch_4">
    <path d="M 36.701178 193.380364 
L 385.61904 193.380364 
" style="fill: none; stroke: #000000; stroke-linejoin: miter; stroke-linecap: square"/>
   </g>
   <g id="legend_1">
    <g id="line2d_17">
     <path d="M 43.901178 13.47899 
L 51.901178 13.47899 
L 59.901178 13.47899 
" style="fill: none; stroke: #2a2eec; stroke-width: 0.4; stroke-linecap: round"/>
    </g>
    <g id="text_16">
     <!-- zigzag 20/20 -->
     <g style="fill: #262626" transform="translate(66.301177 16.27899) scale(0.08 -0.08)">
      <defs>
       <path id="DejaVuSerif-7a" d="M 256 0 
L 256 269 
L 2338 2988 
L 691 2988 
L 691 2413 
L 359 2413 
L 359 3322 
L 3078 3322 
L 3078 3053 
L 997 331 
L 2803 331 
L 2803 934 
L 3138 934 
L 3138 0 
L 256 0 
z
" transform="scale(0.015625)"/>
       <path id="DejaVuSerif-2f" d="M 1656 4666 
L 2156 4666 
L 500 -594 
L 0 -594 
L 1656 4666 
z
" transform="scale(0.015625)"/>
      </defs>
      <use xlink:href="#DejaVuSerif-7a"/>
      <use xlink:href="#DejaVuSerif-69" x="52.685547"/>
      <use xlink:href="#DejaVuSerif-67" x="84.667969"/>
      <use xlink:href="#DejaVuSerif-7a" x="148.681641"/>
      <use xlink:href="#DejaVuSerif-61" x="201.367188"/>
      <use xlink:href="#DejaVuSerif-67" x="260.986328"/>
      <use xlink:href="#DejaVuSerif-20" x="325"/>
      <use xlink:href="#DejaVuSerif-32" x="356.787109"/>
      <use xlink:href="#DejaVuSerif-30" x="420.410156"/>
      <use xlink:href="#DejaVuSerif-2f" x="484.033203"/>
      <use xlink:href="#DejaVuSerif-32" x="517.724609"/>
      <use xlink:href="#DejaVuSerif-30" x="581.347656"/>
     </g>
    </g>
    <g id="line2d_18">
     <path d="M 43.901178 25.33524 
L 51.901178 25.33524 
L 59.901178 25.33524 
" style="fill: none; stroke: #fa7c17; stroke-width: 0.4; stroke-linecap: round"/>
    </g>
    <g id="text_17">
     <!-- zigzag 10/10 -->
     <g style="fill: #262626" transform="translate(66.301177 28.13524) scale(0.08 -0.08)">
      <use xlink:href="#DejaVuSerif-7a"/>
      <use xlink:href="#DejaVuSerif-69" x="52.685547"/>
      <use xlink:href="#DejaVuSerif-67" x="84.667969"/>
      <use xlink:href="#DejaVuSerif-7a" x="148.681641"/>
      <use xlink:href="#DejaVuSerif-61" x="201.367188"/>
      <use xlink:href="#DejaVuSerif-67" x="260.986328"/>
      <use xlink:href="#DejaVuSerif-20" x="325"/>
      <use xlink:href="#DejaVuSerif-31" x="356.787109"/>
      <use xlink:href="#DejaVuSerif-30" x="420.410156"/>
      <use xlink:href="#DejaVuSerif-2f" x="484.033203"/>
      <use xlink:href="#DejaVuSerif-31" x="517.724609"/>
      <use xlink:href="#DejaVuSerif-30" x="581.347656"/>
     </g>
    </g>
    <g id="line2d_19">
     <g>
      <use xlink:href="#mf55a3601cf" x="51.901178" y="37.19149" style="fill: #328c06; stroke: #328c06"/>
     </g>
    </g>
    <g id="text_18">
     <!-- VCT -->
     <g style="fill: #262626" transform="translate(66.301177 39.99149) scale(0.08 -0.08)">
      <defs>
       <path id="DejaVuSerif-56" d="M 1119 4331 
L 2497 750 
L 3872 4331 
L 3347 4331 
L 3347 4666 
L 4716 4666 
L 4716 4331 
L 4263 4331 
L 2597 0 
L 2059 0 
L 403 4331 
L -63 4331 
L -63 4666 
L 1638 4666 
L 1638 4331 
L 1119 4331 
z
" transform="scale(0.015625)"/>
       <path id="DejaVuSerif-43" d="M 4513 1234 
Q 4306 581 3820 245 
Q 3334 -91 2591 -91 
Q 2134 -91 1743 65 
Q 1353 222 1050 525 
Q 700 875 529 1320 
Q 359 1766 359 2328 
Q 359 3416 987 4083 
Q 1616 4750 2644 4750 
Q 3025 4750 3456 4650 
Q 3888 4550 4384 4347 
L 4384 3272 
L 4031 3272 
Q 3916 3859 3567 4137 
Q 3219 4416 2591 4416 
Q 1844 4416 1459 3886 
Q 1075 3356 1075 2328 
Q 1075 1303 1459 773 
Q 1844 244 2591 244 
Q 3113 244 3450 492 
Q 3788 741 3938 1234 
L 4513 1234 
z
" transform="scale(0.015625)"/>
       <path id="DejaVuSerif-54" d="M 1222 0 
L 1222 331 
L 1819 331 
L 1819 4294 
L 447 4294 
L 447 3566 
L 63 3566 
L 63 4666 
L 4206 4666 
L 4206 3566 
L 3822 3566 
L 3822 4294 
L 2450 4294 
L 2450 331 
L 3047 331 
L 3047 0 
L 1222 0 
z
" transform="scale(0.015625)"/>
      </defs>
      <use xlink:href="#DejaVuSerif-56"/>
      <use xlink:href="#DejaVuSerif-43" x="72.216797"/>
      <use xlink:href="#DejaVuSerif-54" x="148.730469"/>
     </g>
    </g>
   </g>
  </g>
 </g>
 <defs>
  <clipPath id="p27c76dff92">
   <rect x="36.701178" y="3.00024" width="348.917862" height="190.380124"/>
  </clipPath>
 </defs>
</svg>
