<?xml version="1.0" encoding="utf-8" standalone="no"?>
<!DOCTYPE svg PUBLIC "-//W3C//DTD SVG 1.1//EN"
  "http://www.w3.org/Graphics/SVG/1.1/DTD/svg11.dtd">
<svg xmlns:xlink="http://www.w3.org/1999/xlink" width="388.61928pt" height="218.623104pt" viewBox="0 0 388.61928 218.623104" xmlns="http://www.w3.org/2000/svg" version="1.1">
 <metadata>
  <rdf:RDF xmlns:dc="http://purl.org/dc/elements/1.1/" xmlns:cc="http://creativecommons.org/ns#" xmlns:rdf="http://www.w3.org/1999/02/22-rdf-syntax-ns#">
   <cc:Work>
    <dc:type rdf:resource="http://purl.org/dc/dcmitype/StillImage"/>
    <dc:date>2025-04-14T11:05:15.167647</dc:date>
    <dc:format>image/svg+xml</dc:format>
    <dc:creator>
     <cc:Agent>
      <dc:title>Matplotlib v3.8.2, https://matplotlib.org/</dc:title>
     </cc:Agent>
    </dc:creator>
   </cc:Work>
  </rdf:RDF>
 </metadata>
 <defs>
  <style type="text/css">*{stroke-linejoin: round; stroke-linecap: butt}</style>
 </defs>
 <g id="figure_1">
  <g id="patch_1">
   <path d="M 0 218.623104 
L 388.61928 218.623104 
L 388.61928 0 
L 0 0 
z
" style="fill: #ffffff"/>
  </g>
  <g id="axes_1">
   <g id="patch_2">
    <path d="M 44.352 62.835035 
L 377.81928 62.835035 
L 377.81928 11.662195 
L 44.352 11.662195 
z
" style="fill: #ffffff"/>
   </g>
   <g id="matplotlib.axis_1">
    <g id="xtick_1">
     <g id="line2d_1">
      <path d="M 59.509507 62.835035 
L 59.509507 11.662195 
" clip-path="url(#pd4f5628f49)" style="fill: none; stroke: #b0b0b0; stroke-width: 0.1; stroke-linecap: round"/>
     </g>
     <g id="line2d_2"/>
    </g>
    <g id="xtick_2">
     <g id="line2d_3">
      <path d="M 120.164193 62.835035 
L 120.164193 11.662195 
" clip-path="url(#pd4f5628f49)" style="fill: none; stroke: #b0b0b0; stroke-width: 0.1; stroke-linecap: round"/>
     </g>
     <g id="line2d_4"/>
    </g>
    <g id="xtick_3">
     <g id="line2d_5">
      <path d="M 180.818879 62.835035 
L 180.818879 11.662195 
" clip-path="url(#pd4f5628f49)" style="fill: none; stroke: #b0b0b0; stroke-width: 0.1; stroke-linecap: round"/>
     </g>
     <g id="line2d_6"/>
    </g>
    <g id="xtick_4">
     <g id="line2d_7">
      <path d="M 241.473565 62.835035 
L 241.473565 11.662195 
" clip-path="url(#pd4f5628f49)" style="fill: none; stroke: #b0b0b0; stroke-width: 0.1; stroke-linecap: round"/>
     </g>
     <g id="line2d_8"/>
    </g>
    <g id="xtick_5">
     <g id="line2d_9">
      <path d="M 302.128251 62.835035 
L 302.128251 11.662195 
" clip-path="url(#pd4f5628f49)" style="fill: none; stroke: #b0b0b0; stroke-width: 0.1; stroke-linecap: round"/>
     </g>
     <g id="line2d_10"/>
    </g>
    <g id="xtick_6">
     <g id="line2d_11">
      <path d="M 362.782937 62.835035 
L 362.782937 11.662195 
" clip-path="url(#pd4f5628f49)" style="fill: none; stroke: #b0b0b0; stroke-width: 0.1; stroke-linecap: round"/>
     </g>
     <g id="line2d_12"/>
    </g>
   </g>
   <g id="matplotlib.axis_2">
    <g id="ytick_1">
     <g id="line2d_13">
      <path d="M 44.352 47.809868 
L 377.81928 47.809868 
" clip-path="url(#pd4f5628f49)" style="fill: none; stroke: #b0b0b0; stroke-width: 0.1; stroke-linecap: round"/>
     </g>
     <g id="line2d_14"/>
     <g id="text_1">
      <!-- −0.1 -->
      <g style="fill: #262626" transform="translate(23.854031 50.469321) scale(0.07 -0.07)">
       <defs>
        <path id="DejaVuSerif-2212" d="M 678 2259 
L 4684 2259 
L 4684 1753 
L 678 1753 
L 678 2259 
z
" transform="scale(0.015625)"/>
        <path id="DejaVuSerif-30" d="M 2034 219 
Q 2513 219 2750 744 
Q 2988 1269 2988 2328 
Q 2988 3391 2750 3916 
Q 2513 4441 2034 4441 
Q 1556 4441 1318 3916 
Q 1081 3391 1081 2328 
Q 1081 1269 1318 744 
Q 1556 219 2034 219 
z
M 2034 -91 
Q 1275 -91 848 546 
Q 422 1184 422 2328 
Q 422 3475 848 4112 
Q 1275 4750 2034 4750 
Q 2797 4750 3222 4112 
Q 3647 3475 3647 2328 
Q 3647 1184 3222 546 
Q 2797 -91 2034 -91 
z
" transform="scale(0.015625)"/>
        <path id="DejaVuSerif-2e" d="M 603 325 
Q 603 500 722 622 
Q 841 744 1019 744 
Q 1191 744 1312 622 
Q 1434 500 1434 325 
Q 1434 153 1312 31 
Q 1191 -91 1019 -91 
Q 841 -91 722 29 
Q 603 150 603 325 
z
" transform="scale(0.015625)"/>
        <path id="DejaVuSerif-31" d="M 909 0 
L 909 331 
L 1722 331 
L 1722 4213 
L 781 3603 
L 781 4013 
L 1919 4750 
L 2350 4750 
L 2350 331 
L 3163 331 
L 3163 0 
L 909 0 
z
" transform="scale(0.015625)"/>
       </defs>
       <use xlink:href="#DejaVuSerif-2212"/>
       <use xlink:href="#DejaVuSerif-30" x="83.789062"/>
       <use xlink:href="#DejaVuSerif-2e" x="147.412109"/>
       <use xlink:href="#DejaVuSerif-31" x="179.199219"/>
      </g>
     </g>
    </g>
    <g id="ytick_2">
     <g id="line2d_15">
      <path d="M 44.352 30.654757 
L 377.81928 30.654757 
" clip-path="url(#pd4f5628f49)" style="fill: none; stroke: #b0b0b0; stroke-width: 0.1; stroke-linecap: round"/>
     </g>
     <g id="line2d_16"/>
     <g id="text_2">
      <!-- 0.0 -->
      <g style="fill: #262626" transform="translate(29.719813 33.31421) scale(0.07 -0.07)">
       <use xlink:href="#DejaVuSerif-30"/>
       <use xlink:href="#DejaVuSerif-2e" x="63.623047"/>
       <use xlink:href="#DejaVuSerif-30" x="95.410156"/>
      </g>
     </g>
    </g>
    <g id="ytick_3">
     <g id="line2d_17">
      <path d="M 44.352 13.499646 
L 377.81928 13.499646 
" clip-path="url(#pd4f5628f49)" style="fill: none; stroke: #b0b0b0; stroke-width: 0.1; stroke-linecap: round"/>
     </g>
     <g id="line2d_18"/>
     <g id="text_3">
      <!-- 0.1 -->
      <g style="fill: #262626" transform="translate(29.719813 16.159099) scale(0.07 -0.07)">
       <use xlink:href="#DejaVuSerif-30"/>
       <use xlink:href="#DejaVuSerif-2e" x="63.623047"/>
       <use xlink:href="#DejaVuSerif-31" x="95.410156"/>
      </g>
     </g>
    </g>
    <g id="text_4">
     <!-- $\beta^{(\bullet)}-\beta^A$ [deg] -->
     <g style="fill: #262626" transform="translate(18.474031 58.698615) rotate(-90) scale(0.06 -0.06)">
      <defs>
       <path id="DejaVuSans-Oblique-3b2" d="M 872 216 
L 572 -1331 
L -6 -1331 
L 928 3478 
Q 1206 4903 2538 4903 
Q 3888 4903 3659 3700 
Q 3503 2844 2894 2531 
Q 3713 2250 3553 1416 
Q 3272 -69 1759 -66 
Q 1097 -63 872 216 
z
M 1019 966 
Q 1259 422 1875 425 
Q 2775 425 2966 1406 
Q 3138 2288 1675 2219 
L 1778 2750 
Q 2909 2731 3106 3750 
Q 3241 4438 2509 4434 
Q 1691 4434 1503 3459 
L 1019 966 
z
" transform="scale(0.015625)"/>
       <path id="DejaVuSans-28" d="M 1984 4856 
Q 1566 4138 1362 3434 
Q 1159 2731 1159 2009 
Q 1159 1288 1364 580 
Q 1569 -128 1984 -844 
L 1484 -844 
Q 1016 -109 783 600 
Q 550 1309 550 2009 
Q 550 2706 781 3412 
Q 1013 4119 1484 4856 
L 1984 4856 
z
" transform="scale(0.015625)"/>
       <path id="DejaVuSans-2219" d="M 1075 2006 
Q 1075 2394 1345 2661 
Q 1616 2928 2009 2928 
Q 2397 2928 2664 2661 
Q 2931 2394 2931 2006 
Q 2931 1616 2662 1347 
Q 2394 1078 2003 1078 
Q 1613 1078 1344 1347 
Q 1075 1616 1075 2006 
z
" transform="scale(0.015625)"/>
       <path id="DejaVuSans-29" d="M 513 4856 
L 1013 4856 
Q 1481 4119 1714 3412 
Q 1947 2706 1947 2009 
Q 1947 1309 1714 600 
Q 1481 -109 1013 -844 
L 513 -844 
Q 928 -128 1133 580 
Q 1338 1288 1338 2009 
Q 1338 2731 1133 3434 
Q 928 4138 513 4856 
z
" transform="scale(0.015625)"/>
       <path id="DejaVuSans-2212" d="M 678 2272 
L 4684 2272 
L 4684 1741 
L 678 1741 
L 678 2272 
z
" transform="scale(0.015625)"/>
       <path id="DejaVuSans-Oblique-41" d="M 2356 4666 
L 3072 4666 
L 3938 0 
L 3278 0 
L 3084 1197 
L 984 1197 
L 325 0 
L -341 0 
L 2356 4666 
z
M 2584 4044 
L 1275 1722 
L 2988 1722 
L 2584 4044 
z
" transform="scale(0.015625)"/>
       <path id="DejaVuSerif-20" transform="scale(0.015625)"/>
       <path id="DejaVuSerif-5b" d="M 550 4863 
L 2003 4863 
L 2003 4531 
L 1147 4531 
L 1147 -513 
L 2003 -513 
L 2003 -844 
L 550 -844 
L 550 4863 
z
" transform="scale(0.015625)"/>
       <path id="DejaVuSerif-64" d="M 3359 331 
L 3909 331 
L 3909 0 
L 2784 0 
L 2784 519 
Q 2616 206 2355 57 
Q 2094 -91 1709 -91 
Q 1097 -91 708 395 
Q 319 881 319 1663 
Q 319 2444 706 2928 
Q 1094 3413 1709 3413 
Q 2094 3413 2355 3264 
Q 2616 3116 2784 2803 
L 2784 4531 
L 2241 4531 
L 2241 4863 
L 3359 4863 
L 3359 331 
z
M 2784 1497 
L 2784 1825 
Q 2784 2422 2554 2737 
Q 2325 3053 1888 3053 
Q 1444 3053 1217 2703 
Q 991 2353 991 1663 
Q 991 975 1217 622 
Q 1444 269 1888 269 
Q 2325 269 2554 583 
Q 2784 897 2784 1497 
z
" transform="scale(0.015625)"/>
       <path id="DejaVuSerif-65" d="M 3469 1600 
L 991 1600 
L 991 1575 
Q 991 903 1244 561 
Q 1497 219 1991 219 
Q 2369 219 2611 417 
Q 2853 616 2950 1006 
L 3413 1006 
Q 3275 459 2904 184 
Q 2534 -91 1931 -91 
Q 1203 -91 761 389 
Q 319 869 319 1663 
Q 319 2450 753 2931 
Q 1188 3413 1894 3413 
Q 2647 3413 3050 2948 
Q 3453 2484 3469 1600 
z
M 2791 1931 
Q 2772 2513 2545 2808 
Q 2319 3103 1894 3103 
Q 1497 3103 1269 2806 
Q 1041 2509 991 1931 
L 2791 1931 
z
" transform="scale(0.015625)"/>
       <path id="DejaVuSerif-67" d="M 3359 2988 
L 3359 72 
Q 3359 -644 2965 -1033 
Q 2572 -1422 1844 -1422 
Q 1516 -1422 1216 -1362 
Q 916 -1303 641 -1184 
L 641 -488 
L 941 -488 
Q 997 -813 1206 -963 
Q 1416 -1113 1806 -1113 
Q 2313 -1113 2548 -827 
Q 2784 -541 2784 72 
L 2784 519 
Q 2616 206 2355 57 
Q 2094 -91 1709 -91 
Q 1097 -91 708 395 
Q 319 881 319 1663 
Q 319 2444 706 2928 
Q 1094 3413 1709 3413 
Q 2094 3413 2355 3264 
Q 2616 3116 2784 2803 
L 2784 3322 
L 3909 3322 
L 3909 2988 
L 3359 2988 
z
M 2784 1825 
Q 2784 2422 2554 2737 
Q 2325 3053 1888 3053 
Q 1444 3053 1217 2703 
Q 991 2353 991 1663 
Q 991 975 1217 622 
Q 1444 269 1888 269 
Q 2325 269 2554 583 
Q 2784 897 2784 1497 
L 2784 1825 
z
" transform="scale(0.015625)"/>
       <path id="DejaVuSerif-5d" d="M 1947 4863 
L 1947 -844 
L 494 -844 
L 494 -513 
L 1350 -513 
L 1350 4531 
L 494 4531 
L 494 4863 
L 1947 4863 
z
" transform="scale(0.015625)"/>
      </defs>
      <use xlink:href="#DejaVuSans-Oblique-3b2" transform="translate(0 0.60625)"/>
      <use xlink:href="#DejaVuSans-28" transform="translate(71.353568 38.8875) scale(0.7)"/>
      <use xlink:href="#DejaVuSans-2219" transform="translate(98.663138 38.8875) scale(0.7)"/>
      <use xlink:href="#DejaVuSans-29" transform="translate(142.481497 38.8875) scale(0.7)"/>
      <use xlink:href="#DejaVuSans-2212" transform="translate(192.007865 0.60625)"/>
      <use xlink:href="#DejaVuSans-Oblique-3b2" transform="translate(295.279349 0.60625)"/>
      <use xlink:href="#DejaVuSans-Oblique-41" transform="translate(366.632917 38.8875) scale(0.7)"/>
      <use xlink:href="#DejaVuSerif-20" transform="translate(417.253034 0.60625)"/>
      <use xlink:href="#DejaVuSerif-5b" transform="translate(449.040143 0.60625)"/>
      <use xlink:href="#DejaVuSerif-64" transform="translate(488.053815 0.60625)"/>
      <use xlink:href="#DejaVuSerif-65" transform="translate(552.067487 0.60625)"/>
      <use xlink:href="#DejaVuSerif-67" transform="translate(611.247174 0.60625)"/>
      <use xlink:href="#DejaVuSerif-5d" transform="translate(675.260846 0.60625)"/>
     </g>
    </g>
   </g>
   <g id="line2d_19">
    <path d="M 59.509604 30.654757 
L 362.661676 30.654757 
L 362.661676 30.654757 
" clip-path="url(#pd4f5628f49)" style="fill: none; stroke: #2a2eec; stroke-width: 0.4; stroke-linecap: round"/>
   </g>
   <g id="line2d_20">
    <path d="M 59.509604 21.387004 
L 64.2409 19.413979 
L 65.090053 19.220456 
L 65.69626 19.036593 
L 66.666881 18.651462 
L 67.75852 18.506625 
L 70.79129 18.719306 
L 72.974895 19.068113 
L 74.430547 19.061931 
L 75.886235 19.185978 
L 77.341936 18.972404 
L 79.40428 18.912159 
L 81.83071 19.066561 
L 83.286204 18.938395 
L 84.62068 18.931174 
L 86.682939 18.497943 
L 87.774578 18.221038 
L 88.502544 17.938605 
L 89.472982 17.541142 
L 90.928683 17.29406 
L 92.505607 16.697733 
L 94.203987 16.164287 
L 96.144937 15.245471 
L 98.207184 15.220826 
L 99.05635 15.406498 
L 100.754705 15.856105 
L 102.210515 16.161782 
L 102.938395 16.132587 
L 104.151295 15.885533 
L 105.607068 15.542695 
L 107.548079 15.02344 
L 111.066038 14.005181 
L 112.036574 14.00769 
L 114.826556 14.112895 
L 116.889034 14.151888 
L 118.587195 14.451782 
L 122.226549 15.558816 
L 123.318188 15.67001 
L 124.531476 15.602818 
L 126.836427 15.346418 
L 127.685434 15.470924 
L 128.898431 15.933803 
L 134.357462 18.902446 
L 136.662219 20.656885 
L 139.331013 21.206931 
L 140.665501 21.6822 
L 143.698393 22.525712 
L 148.065336 24.982853 
L 151.219368 27.402953 
L 153.645592 28.241483 
L 157.406219 27.58579 
L 160.317583 26.404814 
L 161.1667 25.784163 
L 161.773501 25.439856 
L 162.622582 25.072149 
L 164.32101 23.943 
L 165.048685 23.715021 
L 171.842022 22.879775 
L 173.661796 22.994291 
L 174.75341 22.838575 
L 176.33042 22.313746 
L 184.458111 18.40403 
L 189.189201 17.462965 
L 191.130139 17.367421 
L 193.920667 17.470375 
L 198.044822 18.699583 
L 199.500753 19.313928 
L 201.320187 20.108887 
L 202.290783 20.519091 
L 204.353115 21.10482 
L 207.142976 21.354243 
L 207.992481 21.307816 
L 208.962823 21.018955 
L 210.660972 20.429122 
L 212.238164 20.119366 
L 213.81498 19.934468 
L 218.424857 20.125902 
L 219.637939 20.382225 
L 221.821398 21.299119 
L 223.641148 22.407504 
L 226.188536 24.544132 
L 229.70675 27.261344 
L 232.011519 28.6716 
L 234.074021 29.881918 
L 236.014777 30.605639 
L 238.319655 30.992793 
L 240.988315 30.678885 
L 244.14231 30.070122 
L 245.719478 29.501574 
L 247.296439 29.150548 
L 248.388345 28.787185 
L 252.876682 26.689695 
L 255.06036 25.592502 
L 256.879843 24.856797 
L 258.699459 24.132 
L 261.368326 23.24908 
L 262.82399 22.889591 
L 265.49293 22.744998 
L 267.676365 22.24917 
L 269.010768 21.777865 
L 271.800884 20.453339 
L 272.892656 19.919695 
L 274.591024 19.084393 
L 276.531961 18.093314 
L 277.745055 17.52888 
L 279.07941 16.962366 
L 280.413958 16.587198 
L 281.384591 16.475837 
L 283.082692 16.54468 
L 283.93187 16.772121 
L 285.023751 17.187097 
L 289.269506 18.970167 
L 290.482551 19.463093 
L 294.607046 21.203795 
L 295.69883 21.982556 
L 297.033306 22.867436 
L 298.610243 23.681544 
L 299.459433 23.889044 
L 300.793824 23.951877 
L 301.885596 23.835044 
L 302.613489 23.538674 
L 303.341345 23.112775 
L 305.039688 21.658945 
L 307.344542 19.914378 
L 309.40691 18.908488 
L 310.377664 18.746102 
L 311.711679 18.905017 
L 313.167452 19.664801 
L 316.442733 21.778122 
L 324.085223 26.307854 
L 325.419699 26.839208 
L 326.26884 27.136656 
L 328.937647 27.597445 
L 330.150692 27.678173 
L 330.99987 27.565984 
L 331.727774 27.291063 
L 332.334418 27.036786 
L 336.944005 26.429825 
L 337.793279 26.363693 
L 339.734254 26.030453 
L 340.947408 25.590042 
L 341.553797 25.416525 
L 342.766879 25.446643 
L 344.343876 25.677532 
L 345.799795 25.761977 
L 348.347098 26.206917 
L 351.258559 27.442046 
L 352.471883 27.789558 
L 353.199521 27.976795 
L 357.809326 29.09506 
L 358.537146 29.276754 
L 359.143717 29.428545 
L 360.114082 29.337313 
L 362.661676 28.462287 
L 362.661676 28.462287 
" clip-path="url(#pd4f5628f49)" style="fill: none; stroke: #fa7c17; stroke-width: 0.4; stroke-linecap: round"/>
   </g>
   <g id="line2d_21">
    <path d="M 59.509604 28.299776 
L 67.75852 27.54562 
L 69.335687 27.737197 
L 70.063519 27.870079 
L 70.912575 28.066659 
L 71.640432 28.177108 
L 74.309177 28.007444 
L 77.220602 27.978795 
L 78.919006 27.773949 
L 81.345327 28.050838 
L 82.194517 28.128646 
L 84.256667 28.275574 
L 86.197581 27.978546 
L 88.86635 27.164552 
L 90.079432 26.667379 
L 91.049992 26.176484 
L 91.899145 25.715618 
L 92.505607 25.534055 
L 93.718713 25.481215 
L 94.325272 25.283383 
L 95.780997 24.540189 
L 96.266246 24.432214 
L 96.994442 24.315764 
L 98.207184 23.891442 
L 99.05635 23.715169 
L 100.633529 23.560189 
L 101.846611 23.668519 
L 102.453061 23.679405 
L 104.515235 23.158534 
L 105.243152 22.956197 
L 107.669679 22.799926 
L 108.276262 22.618875 
L 108.882445 22.547352 
L 109.489029 22.415191 
L 110.944729 22.091833 
L 111.551264 22.313863 
L 115.433309 23.877928 
L 116.889034 24.510148 
L 118.587195 25.736194 
L 121.983785 28.627766 
L 123.439558 29.544566 
L 124.531476 29.941803 
L 125.623175 30.058252 
L 126.957505 29.898462 
L 128.291981 29.62942 
L 129.747645 29.500199 
L 130.475465 29.377877 
L 131.203431 29.333203 
L 132.173954 29.478777 
L 133.02318 29.809092 
L 134.236116 30.536921 
L 135.813017 31.882897 
L 136.177139 31.859482 
L 136.662219 31.529883 
L 137.632754 30.66119 
L 140.059039 29.271493 
L 142.121262 28.598917 
L 143.455592 28.596906 
L 144.426079 28.886253 
L 146.00304 29.620767 
L 147.095067 30.36537 
L 150.976749 33.463702 
L 152.79639 34.005831 
L 153.767034 34.091066 
L 156.071743 33.942606 
L 156.799575 33.677419 
L 157.64874 33.450572 
L 159.589714 33.301893 
L 160.681499 33.487638 
L 164.927303 34.785308 
L 166.261718 35.31116 
L 166.868374 35.397554 
L 167.474957 35.484113 
L 170.507582 36.354817 
L 173.782923 36.85085 
L 175.481315 36.807737 
L 176.81567 36.569736 
L 182.274579 35.01282 
L 183.973032 34.468789 
L 184.700924 34.324636 
L 185.913836 34.291025 
L 187.490894 34.525594 
L 188.461357 35.018871 
L 189.431796 35.587624 
L 190.281252 36.245146 
L 192.343245 38.202798 
L 196.952977 43.280781 
L 199.500753 45.635173 
L 201.19889 46.912033 
L 203.140155 48.184715 
L 206.294005 49.306734 
L 207.870857 49.489377 
L 210.054559 49.208833 
L 211.510114 48.86594 
L 213.08722 48.712983 
L 216.483822 48.610137 
L 218.667561 48.815885 
L 219.880472 49.238543 
L 223.277365 50.969924 
L 224.854169 52.145241 
L 225.824632 52.9204 
L 230.919625 56.788371 
L 231.890112 57.37648 
L 233.346007 58.23924 
L 234.194942 58.654418 
L 236.499917 59.463285 
L 238.683486 60.066582 
L 241.109637 59.967672 
L 244.870215 59.349714 
L 248.630939 58.194291 
L 249.965367 57.651118 
L 250.693017 57.506856 
L 252.027432 57.148626 
L 256.879843 55.38437 
L 258.335738 54.818391 
L 260.5191 54.398567 
L 265.371475 54.618862 
L 266.220641 54.631802 
L 267.191152 54.581827 
L 268.404233 54.35199 
L 275.683026 51.714783 
L 277.987856 51.340561 
L 280.292613 51.667155 
L 284.05347 53.133683 
L 284.781059 53.406871 
L 285.508867 53.593208 
L 287.085986 53.867657 
L 289.512052 54.300062 
L 293.87919 56.127683 
L 296.062734 57.240933 
L 296.669499 57.424674 
L 297.882751 57.48861 
L 298.974268 57.218624 
L 300.915218 56.107785 
L 303.098835 54.326583 
L 304.91833 52.524117 
L 305.888793 51.862787 
L 306.738165 51.554221 
L 307.344542 51.371799 
L 308.315247 51.438767 
L 314.623104 53.382616 
L 315.350924 53.509619 
L 317.656033 54.631183 
L 320.203457 56.450361 
L 321.901812 57.593038 
L 322.993536 58.355749 
L 323.964023 58.805875 
L 325.176995 59.244299 
L 326.390453 59.779705 
L 327.481873 60.202106 
L 328.452385 60.335326 
L 329.180411 60.468934 
L 330.150692 60.504453 
L 330.878633 60.449686 
L 333.062105 59.881734 
L 335.367007 58.913016 
L 336.094936 58.579449 
L 337.671994 58.09119 
L 340.583286 56.985258 
L 341.432451 56.720899 
L 342.281653 56.567751 
L 343.252153 56.200966 
L 343.858724 56.043409 
L 344.46538 55.82123 
L 345.314485 55.478276 
L 346.527542 55.145188 
L 347.255338 55.062052 
L 348.46865 55.182353 
L 354.169996 56.287741 
L 354.655234 56.271955 
L 356.596147 55.701341 
L 357.566574 55.068299 
L 359.26505 53.799562 
L 361.569807 51.712383 
L 362.661676 50.70502 
L 362.661676 50.70502 
" clip-path="url(#pd4f5628f49)" style="fill: none; stroke: #328c06; stroke-width: 0.4; stroke-linecap: round"/>
   </g>
   <g id="patch_3">
    <path d="M 44.352 62.835035 
L 44.352 11.662195 
" style="fill: none; stroke: #000000; stroke-linejoin: miter; stroke-linecap: square"/>
   </g>
   <g id="patch_4">
    <path d="M 44.352 62.835035 
L 377.81928 62.835035 
" style="fill: none; stroke: #000000; stroke-linejoin: miter; stroke-linecap: square"/>
   </g>
   <g id="legend_1">
    <g id="line2d_22">
     <path d="M 346.563186 20.831101 
L 353.563186 20.831101 
L 360.563186 20.831101 
" style="fill: none; stroke: #2a2eec; stroke-width: 0.4; stroke-linecap: round"/>
    </g>
    <g id="text_5">
     <!-- A -->
     <g style="fill: #262626" transform="translate(366.163186 23.281101) scale(0.07 -0.07)">
      <defs>
       <path id="DejaVuSerif-41" d="M 1281 1691 
L 2994 1691 
L 2138 3909 
L 1281 1691 
z
M -38 0 
L -38 331 
L 372 331 
L 2034 4666 
L 2559 4666 
L 4225 331 
L 4684 331 
L 4684 0 
L 2988 0 
L 2988 331 
L 3506 331 
L 3116 1356 
L 1153 1356 
L 763 331 
L 1275 331 
L 1275 0 
L -38 0 
z
" transform="scale(0.015625)"/>
      </defs>
      <use xlink:href="#DejaVuSerif-41"/>
     </g>
    </g>
    <g id="line2d_23">
     <path d="M 346.563186 31.105788 
L 353.563186 31.105788 
L 360.563186 31.105788 
" style="fill: none; stroke: #fa7c17; stroke-width: 0.4; stroke-linecap: round"/>
    </g>
    <g id="text_6">
     <!-- B -->
     <g style="fill: #262626" transform="translate(366.163186 33.555788) scale(0.07 -0.07)">
      <defs>
       <path id="DejaVuSerif-42" d="M 1581 331 
L 2516 331 
Q 3078 331 3337 575 
Q 3597 819 3597 1350 
Q 3597 1878 3339 2120 
Q 3081 2363 2516 2363 
L 1581 2363 
L 1581 331 
z
M 1581 2694 
L 2375 2694 
Q 2888 2694 3123 2891 
Q 3359 3088 3359 3513 
Q 3359 3941 3123 4136 
Q 2888 4331 2375 4331 
L 1581 4331 
L 1581 2694 
z
M 353 0 
L 353 331 
L 947 331 
L 947 4331 
L 353 4331 
L 353 4666 
L 2656 4666 
Q 3363 4666 3720 4377 
Q 4078 4088 4078 3513 
Q 4078 3097 3829 2850 
Q 3581 2603 3103 2547 
Q 3697 2472 4005 2167 
Q 4313 1863 4313 1350 
Q 4313 656 3875 328 
Q 3438 0 2509 0 
L 353 0 
z
" transform="scale(0.015625)"/>
      </defs>
      <use xlink:href="#DejaVuSerif-42"/>
     </g>
    </g>
    <g id="line2d_24">
     <path d="M 346.563186 41.380476 
L 353.563186 41.380476 
L 360.563186 41.380476 
" style="fill: none; stroke: #328c06; stroke-width: 0.4; stroke-linecap: round"/>
    </g>
    <g id="text_7">
     <!-- C -->
     <g style="fill: #262626" transform="translate(366.163186 43.830476) scale(0.07 -0.07)">
      <defs>
       <path id="DejaVuSerif-43" d="M 4513 1234 
Q 4306 581 3820 245 
Q 3334 -91 2591 -91 
Q 2134 -91 1743 65 
Q 1353 222 1050 525 
Q 700 875 529 1320 
Q 359 1766 359 2328 
Q 359 3416 987 4083 
Q 1616 4750 2644 4750 
Q 3025 4750 3456 4650 
Q 3888 4550 4384 4347 
L 4384 3272 
L 4031 3272 
Q 3916 3859 3567 4137 
Q 3219 4416 2591 4416 
Q 1844 4416 1459 3886 
Q 1075 3356 1075 2328 
Q 1075 1303 1459 773 
Q 1844 244 2591 244 
Q 3113 244 3450 492 
Q 3788 741 3938 1234 
L 4513 1234 
z
" transform="scale(0.015625)"/>
      </defs>
      <use xlink:href="#DejaVuSerif-43"/>
     </g>
    </g>
   </g>
  </g>
  <g id="axes_2">
   <g id="patch_5">
    <path d="M 44.352 125.09907 
L 377.81928 125.09907 
L 377.81928 73.926229 
L 44.352 73.926229 
z
" style="fill: #ffffff"/>
   </g>
   <g id="matplotlib.axis_3">
    <g id="xtick_7">
     <g id="line2d_25">
      <path d="M 59.509507 125.09907 
L 59.509507 73.926229 
" clip-path="url(#p8976ed843e)" style="fill: none; stroke: #b0b0b0; stroke-width: 0.1; stroke-linecap: round"/>
     </g>
     <g id="line2d_26"/>
    </g>
    <g id="xtick_8">
     <g id="line2d_27">
      <path d="M 120.164193 125.09907 
L 120.164193 73.926229 
" clip-path="url(#p8976ed843e)" style="fill: none; stroke: #b0b0b0; stroke-width: 0.1; stroke-linecap: round"/>
     </g>
     <g id="line2d_28"/>
    </g>
    <g id="xtick_9">
     <g id="line2d_29">
      <path d="M 180.818879 125.09907 
L 180.818879 73.926229 
" clip-path="url(#p8976ed843e)" style="fill: none; stroke: #b0b0b0; stroke-width: 0.1; stroke-linecap: round"/>
     </g>
     <g id="line2d_30"/>
    </g>
    <g id="xtick_10">
     <g id="line2d_31">
      <path d="M 241.473565 125.09907 
L 241.473565 73.926229 
" clip-path="url(#p8976ed843e)" style="fill: none; stroke: #b0b0b0; stroke-width: 0.1; stroke-linecap: round"/>
     </g>
     <g id="line2d_32"/>
    </g>
    <g id="xtick_11">
     <g id="line2d_33">
      <path d="M 302.128251 125.09907 
L 302.128251 73.926229 
" clip-path="url(#p8976ed843e)" style="fill: none; stroke: #b0b0b0; stroke-width: 0.1; stroke-linecap: round"/>
     </g>
     <g id="line2d_34"/>
    </g>
    <g id="xtick_12">
     <g id="line2d_35">
      <path d="M 362.782937 125.09907 
L 362.782937 73.926229 
" clip-path="url(#p8976ed843e)" style="fill: none; stroke: #b0b0b0; stroke-width: 0.1; stroke-linecap: round"/>
     </g>
     <g id="line2d_36"/>
    </g>
   </g>
   <g id="matplotlib.axis_4">
    <g id="ytick_4">
     <g id="line2d_37">
      <path d="M 44.352 121.183147 
L 377.81928 121.183147 
" clip-path="url(#p8976ed843e)" style="fill: none; stroke: #b0b0b0; stroke-width: 0.1; stroke-linecap: round"/>
     </g>
     <g id="line2d_38"/>
     <g id="text_8">
      <!-- 0 -->
      <g style="fill: #262626" transform="translate(36.39825 123.8426) scale(0.07 -0.07)">
       <use xlink:href="#DejaVuSerif-30"/>
      </g>
     </g>
    </g>
    <g id="ytick_5">
     <g id="line2d_39">
      <path d="M 44.352 98.980143 
L 377.81928 98.980143 
" clip-path="url(#p8976ed843e)" style="fill: none; stroke: #b0b0b0; stroke-width: 0.1; stroke-linecap: round"/>
     </g>
     <g id="line2d_40"/>
     <g id="text_9">
      <!-- 1 -->
      <g style="fill: #262626" transform="translate(36.39825 101.639596) scale(0.07 -0.07)">
       <use xlink:href="#DejaVuSerif-31"/>
      </g>
     </g>
    </g>
    <g id="ytick_6">
     <g id="line2d_41">
      <path d="M 44.352 76.777138 
L 377.81928 76.777138 
" clip-path="url(#p8976ed843e)" style="fill: none; stroke: #b0b0b0; stroke-width: 0.1; stroke-linecap: round"/>
     </g>
     <g id="line2d_42"/>
     <g id="text_10">
      <!-- 2 -->
      <g style="fill: #262626" transform="translate(36.39825 79.436592) scale(0.07 -0.07)">
       <defs>
        <path id="DejaVuSerif-32" d="M 819 3553 
L 469 3553 
L 469 4384 
Q 803 4563 1142 4656 
Q 1481 4750 1806 4750 
Q 2534 4750 2956 4397 
Q 3378 4044 3378 3438 
Q 3378 2753 2422 1800 
Q 2347 1728 2309 1691 
L 1131 513 
L 3078 513 
L 3078 1088 
L 3444 1088 
L 3444 0 
L 434 0 
L 434 341 
L 1850 1753 
Q 2319 2222 2519 2614 
Q 2719 3006 2719 3438 
Q 2719 3909 2473 4175 
Q 2228 4441 1797 4441 
Q 1350 4441 1106 4219 
Q 863 3997 819 3553 
z
" transform="scale(0.015625)"/>
       </defs>
       <use xlink:href="#DejaVuSerif-32"/>
      </g>
     </g>
    </g>
    <g id="text_11">
     <!-- $\delta^{(\bullet)}-\delta^A$ [deg] -->
     <g style="fill: #262626" transform="translate(31.01825 120.782649) rotate(-90) scale(0.06 -0.06)">
      <defs>
       <path id="DejaVuSans-Oblique-3b4" d="M 3472 4053 
Q 3197 4272 2450 4272 
Q 1659 4272 1588 3906 
Q 1531 3619 2328 3469 
Q 2953 3353 3253 3003 
Q 3616 2581 3447 1716 
Q 3284 888 2763 400 
Q 2238 -91 1488 -91 
Q 741 -91 406 400 
Q 72 888 241 1747 
Q 363 2384 891 2900 
Q 1097 3100 1353 3213 
Q 913 3459 1000 3900 
Q 1166 4750 2544 4750 
Q 3234 4750 3566 4531 
L 3472 4053 
z
M 1753 3056 
Q 1525 2966 1306 2738 
Q 969 2384 847 1747 
Q 722 1113 919 756 
Q 1119 397 1584 397 
Q 2044 397 2381 759 
Q 2722 1122 2838 1716 
Q 2956 2338 2731 2638 
Q 2491 2959 2103 2994 
Q 1906 3013 1753 3056 
z
" transform="scale(0.015625)"/>
      </defs>
      <use xlink:href="#DejaVuSans-Oblique-3b4" transform="translate(0 0.60625)"/>
      <use xlink:href="#DejaVuSans-28" transform="translate(68.382161 38.8875) scale(0.7)"/>
      <use xlink:href="#DejaVuSans-2219" transform="translate(95.691732 38.8875) scale(0.7)"/>
      <use xlink:href="#DejaVuSans-29" transform="translate(139.510091 38.8875) scale(0.7)"/>
      <use xlink:href="#DejaVuSans-2212" transform="translate(189.036458 0.60625)"/>
      <use xlink:href="#DejaVuSans-Oblique-3b4" transform="translate(292.307943 0.60625)"/>
      <use xlink:href="#DejaVuSans-Oblique-41" transform="translate(360.690104 38.8875) scale(0.7)"/>
      <use xlink:href="#DejaVuSerif-20" transform="translate(411.310221 0.60625)"/>
      <use xlink:href="#DejaVuSerif-5b" transform="translate(443.097331 0.60625)"/>
      <use xlink:href="#DejaVuSerif-64" transform="translate(482.111003 0.60625)"/>
      <use xlink:href="#DejaVuSerif-65" transform="translate(546.124674 0.60625)"/>
      <use xlink:href="#DejaVuSerif-67" transform="translate(605.304362 0.60625)"/>
      <use xlink:href="#DejaVuSerif-5d" transform="translate(669.318034 0.60625)"/>
     </g>
    </g>
   </g>
   <g id="line2d_43">
    <path d="M 59.509604 121.183147 
L 362.661676 121.183147 
L 362.661676 121.183147 
" clip-path="url(#p8976ed843e)" style="fill: none; stroke: #2a2eec; stroke-width: 0.4; stroke-linecap: round"/>
   </g>
   <g id="line2d_44">
    <path d="M 59.509604 121.174533 
L 60.237314 121.174459 
L 110.823456 121.180803 
L 110.944729 119.261198 
L 111.18736 107.956572 
L 111.308924 106.537091 
L 111.551264 108.220525 
L 111.672537 108.034105 
L 111.915131 109.034557 
L 112.157847 108.352166 
L 112.400381 108.352844 
L 112.643072 108.943453 
L 112.88563 108.264732 
L 113.12831 108.293404 
L 113.249643 108.145115 
L 113.492238 108.648214 
L 113.613632 108.628714 
L 113.856081 107.896244 
L 114.098773 108.866404 
L 114.220155 108.715511 
L 114.341319 108.382141 
L 114.705247 108.486466 
L 114.826556 108.405415 
L 115.069138 108.779908 
L 115.311842 108.171275 
L 115.554388 108.554519 
L 115.79708 108.1562 
L 116.03982 108.75549 
L 116.282256 108.122909 
L 116.525191 108.734661 
L 116.767482 108.098428 
L 117.010125 108.876345 
L 117.131519 108.686074 
L 117.252938 108.215275 
L 117.616684 108.683171 
L 117.738284 108.129114 
L 117.859303 108.225867 
L 117.980624 108.643525 
L 118.101909 108.644449 
L 118.223255 108.173028 
L 118.344649 108.335093 
L 118.465874 108.743368 
L 118.708638 108.048375 
L 118.829777 108.210135 
L 119.072433 108.579594 
L 119.315148 108.298737 
L 119.557694 108.666403 
L 119.80041 108.184876 
L 119.921525 108.653072 
L 120.042835 108.585367 
L 120.164229 108.062869 
L 120.285466 108.095663 
L 120.406945 108.637257 
L 120.528072 108.550614 
L 120.649406 108.160526 
L 120.770764 108.145173 
L 121.134631 108.601478 
L 121.25605 108.232647 
L 121.498547 108.873697 
L 121.74119 108.018784 
L 121.983785 108.774589 
L 122.226549 108.449714 
L 122.590429 108.40521 
L 122.83306 108.209321 
L 123.075666 108.587795 
L 123.197048 108.223417 
L 123.439558 108.44016 
L 123.68231 108.117609 
L 123.924783 108.658111 
L 124.28876 108.396677 
L 124.531476 108.728614 
L 124.773961 108.213074 
L 125.016592 108.442268 
L 125.137841 108.124074 
L 125.259174 108.179905 
L 125.501793 108.634817 
L 125.744533 108.08566 
L 126.108303 108.555906 
L 126.229746 108.302351 
L 126.472316 108.839787 
L 126.714887 108.361628 
L 126.957505 108.636114 
L 127.200185 108.346793 
L 127.442937 108.460587 
L 127.564016 108.447233 
L 127.685434 108.127442 
L 127.80672 108.248134 
L 127.928284 108.693579 
L 128.049253 108.584937 
L 128.170551 108.161368 
L 128.413509 108.693839 
L 128.655934 108.35414 
L 128.898431 108.600558 
L 129.01974 108.574911 
L 129.262335 108.346906 
L 129.505075 108.656907 
L 129.747645 108.054226 
L 129.990215 108.827322 
L 130.23304 108.151551 
L 130.475465 108.694768 
L 130.718169 108.213495 
L 130.960715 108.607887 
L 131.203431 108.24976 
L 131.445952 108.738187 
L 131.567407 108.584366 
L 131.688717 108.19512 
L 131.931165 108.666118 
L 132.173954 108.263024 
L 132.416379 108.581909 
L 132.65924 108.163305 
L 133.02318 108.560752 
L 133.265544 108.123698 
L 133.386987 108.580007 
L 133.508393 108.576127 
L 133.629497 108.266986 
L 133.872346 109.017368 
L 134.114698 108.417116 
L 134.600069 108.396974 
L 134.842675 108.204954 
L 134.963997 108.413975 
L 135.206543 108.173046 
L 135.449198 108.501527 
L 135.570544 108.12758 
L 135.692132 108.250217 
L 135.813017 108.59076 
L 135.934423 108.493851 
L 136.177139 108.546573 
L 136.298388 110.357982 
L 136.662219 122.243065 
L 136.783613 122.025861 
L 136.90491 122.121454 
L 137.39016 121.200503 
L 138.724466 121.35691 
L 138.96717 121.200544 
L 139.209716 121.235224 
L 139.573644 121.130998 
L 150.491512 121.235285 
L 151.219368 121.19182 
L 152.432619 121.19189 
L 153.160366 121.209163 
L 153.767034 121.174464 
L 154.494757 121.200496 
L 154.737352 121.174464 
L 155.465208 121.2526 
L 155.950409 121.226575 
L 156.678459 121.15709 
L 156.920896 121.183143 
L 157.2848 121.209222 
L 157.770135 121.252624 
L 158.134014 121.209223 
L 158.740549 121.200529 
L 159.468478 121.148416 
L 159.711024 121.217865 
L 159.95363 121.183149 
L 160.317583 121.209209 
L 256.758522 121.174464 
L 256.879843 121.104985 
L 257.243723 121.165769 
L 257.486572 121.191849 
L 257.729021 121.19182 
L 257.971688 121.191827 
L 258.092876 121.261333 
L 258.335738 121.165821 
L 258.578405 121.252609 
L 258.942102 121.183168 
L 259.306091 121.148409 
L 260.033923 121.2179 
L 260.276845 121.174517 
L 260.64047 121.174465 
L 261.368326 121.217882 
L 261.610884 121.113643 
L 262.338716 121.235273 
L 262.703118 121.20925 
L 262.945312 121.22658 
L 263.188088 121.226578 
L 263.794453 121.200499 
L 264.158393 121.157109 
L 264.401133 121.174456 
L 264.522321 121.113673 
L 264.886274 121.200513 
L 265.007559 121.139731 
L 265.250166 121.270007 
L 265.614203 121.191841 
L 265.856785 121.191801 
L 266.099331 121.17447 
L 266.342011 121.165766 
L 266.584593 121.157088 
L 266.827236 121.148392 
L 267.555056 121.200533 
L 268.040487 121.217879 
L 268.768162 121.131037 
L 269.132102 121.174452 
L 269.374769 121.183166 
L 269.617291 121.191818 
L 269.859897 121.209183 
L 270.102662 121.226549 
L 270.345183 121.183147 
L 270.587826 121.20917 
L 270.830433 121.15708 
L 271.073476 121.174313 
L 271.315658 121.139724 
L 271.436968 121.226567 
L 271.679587 121.131032 
L 272.043503 121.209196 
L 272.286146 121.209229 
L 272.528728 121.22658 
L 272.771541 121.19185 
L 273.014014 121.174425 
L 273.256596 121.174472 
L 273.499421 121.148353 
L 273.741834 121.165787 
L 273.984622 121.174459 
L 274.227265 121.19187 
L 274.833764 121.23526 
L 275.440165 121.157089 
L 275.925463 121.148403 
L 276.531961 121.183106 
L 276.774653 121.191794 
L 277.017223 121.18313 
L 277.259939 121.235234 
L 277.502473 121.183147 
L 277.623855 121.261258 
L 277.866401 121.131034 
L 278.230268 121.148393 
L 278.473118 121.139806 
L 278.594196 121.217843 
L 278.836876 121.122341 
L 279.200816 121.183113 
L 279.322162 121.131053 
L 279.565023 121.26128 
L 279.807375 121.1658 
L 280.050152 121.243896 
L 280.413958 121.174503 
L 280.656456 121.183104 
L 280.777862 121.104996 
L 281.020396 121.209188 
L 281.2631 121.131037 
L 281.627028 121.183133 
L 281.869707 121.20923 
L 282.11218 121.217902 
L 282.354799 121.235266 
L 283.567954 121.13971 
L 284.417143 121.209167 
L 284.659762 121.209213 
L 284.902284 121.191832 
L 285.145254 121.148457 
L 285.387533 121.174455 
L 285.630201 121.157125 
L 285.872807 121.157082 
L 286.11539 121.165729 
L 286.357984 121.200511 
L 286.600761 121.200562 
L 286.843307 121.226557 
L 287.085986 121.191865 
L 287.328459 121.209181 
L 287.57166 121.174608 
L 287.813697 121.165788 
L 288.056425 121.148436 
L 288.298995 121.157081 
L 288.541759 121.191872 
L 288.78422 121.2005 
L 289.026815 121.191844 
L 289.269506 121.183136 
L 289.997265 121.174464 
L 362.661676 121.209156 
L 362.661676 121.209156 
" clip-path="url(#p8976ed843e)" style="fill: none; stroke: #fa7c17; stroke-width: 0.4; stroke-linecap: round"/>
   </g>
   <g id="line2d_45">
    <path d="M 59.509604 121.165773 
L 59.994744 121.191842 
L 60.722588 121.191815 
L 62.299707 121.148419 
L 62.784932 121.174466 
L 64.361845 121.191825 
L 65.81757 121.18314 
L 67.0307 121.174463 
L 67.75852 121.174451 
L 69.214305 121.183119 
L 70.42735 121.191835 
L 70.912575 121.183159 
L 71.519413 121.183166 
L 72.732386 121.174511 
L 72.974895 121.191836 
L 74.673227 121.157101 
L 75.279676 121.200526 
L 77.099548 121.17447 
L 78.676412 121.200472 
L 79.282946 121.174444 
L 80.738744 121.183113 
L 82.073062 121.183149 
L 83.528714 121.191827 
L 84.135406 121.157076 
L 84.984511 121.191822 
L 85.469724 121.200515 
L 86.197581 121.174459 
L 86.925425 121.183145 
L 109.974266 121.157135 
L 110.09583 119.264965 
L 110.580934 99.961485 
L 111.18736 78.579122 
L 111.308924 76.252267 
L 111.551264 78.916207 
L 111.672537 78.362578 
L 111.793943 78.647837 
L 111.915131 79.263817 
L 112.157847 78.680843 
L 112.27935 78.715844 
L 112.400381 78.446263 
L 112.643072 79.465138 
L 112.764661 79.049377 
L 112.88563 78.129068 
L 113.00694 78.19931 
L 113.249643 78.78203 
L 113.370916 78.550959 
L 113.492238 78.658559 
L 113.613632 78.918432 
L 113.856081 78.214264 
L 114.098773 79.24054 
L 114.220155 79.004852 
L 114.341319 78.508834 
L 114.584034 78.966719 
L 114.705247 78.7851 
L 114.826556 78.387687 
L 114.948023 78.609027 
L 115.069138 79.151157 
L 115.311842 78.38385 
L 115.433309 78.50023 
L 115.675794 79.028368 
L 115.918377 78.618323 
L 116.160947 78.918798 
L 116.282256 78.317725 
L 116.403578 78.332526 
L 116.64616 79.007221 
L 116.889034 78.257524 
L 117.131519 79.271197 
L 117.374053 78.45632 
L 117.616684 79.27246 
L 117.859303 78.289073 
L 118.101909 79.182937 
L 118.344649 78.373038 
L 118.587195 78.887543 
L 118.829777 78.24915 
L 119.072433 78.938904 
L 119.315148 78.33761 
L 119.557694 79.05885 
L 119.80041 78.521849 
L 119.921525 78.614813 
L 120.042835 78.858374 
L 120.164229 78.73427 
L 120.285466 78.334658 
L 120.406945 78.433221 
L 120.528072 78.850667 
L 120.649406 78.803689 
L 120.770764 78.375468 
L 120.892 78.402738 
L 121.013322 78.943453 
L 121.134631 78.90978 
L 121.25605 78.65396 
L 121.619942 79.036619 
L 121.862815 78.658513 
L 122.105167 79.190779 
L 122.348065 78.38581 
L 122.590429 78.741215 
L 122.83306 78.33999 
L 122.954308 78.663032 
L 123.075666 78.64436 
L 123.197048 78.425142 
L 123.439558 78.575375 
L 123.560892 78.92238 
L 123.68231 78.841477 
L 123.803437 78.569673 
L 123.924783 78.68419 
L 124.046093 79.106132 
L 124.167475 78.922285 
L 124.28876 78.357337 
L 124.531476 78.927364 
L 124.773961 78.149232 
L 124.895355 78.315542 
L 125.016592 78.724283 
L 125.380908 78.495664 
L 125.501793 78.860947 
L 125.623175 78.852909 
L 125.744533 78.47766 
L 125.866061 78.532306 
L 125.987043 78.971279 
L 126.108303 78.949729 
L 126.229746 78.486615 
L 126.350971 78.491027 
L 126.472316 78.915822 
L 126.593638 78.917865 
L 126.836427 78.611617 
L 126.957505 78.92451 
L 127.078827 78.888905 
L 127.321603 78.525922 
L 127.564016 79.016395 
L 127.80672 78.366378 
L 128.049253 79.016319 
L 128.291981 78.470639 
L 128.534479 78.768539 
L 128.655934 78.653106 
L 128.777304 78.362051 
L 128.898431 78.543036 
L 129.01974 79.013316 
L 129.262335 78.437326 
L 129.383729 78.64527 
L 129.505075 79.113951 
L 129.747645 78.322212 
L 129.990215 79.171779 
L 130.23304 78.324629 
L 130.475465 78.839646 
L 130.596835 78.759036 
L 130.718169 78.449853 
L 130.83966 78.515101 
L 130.960715 79.055991 
L 131.203431 78.638282 
L 131.324861 78.789306 
L 131.567407 79.225443 
L 131.810111 78.666474 
L 132.052548 78.734104 
L 132.295348 78.475289 
L 132.537712 78.64609 
L 132.780355 78.23624 
L 133.02318 79.072127 
L 133.265544 78.385868 
L 133.508393 79.024588 
L 133.750806 78.811164 
L 133.99368 79.136644 
L 134.114698 78.933025 
L 134.236116 78.392077 
L 134.478868 78.86934 
L 134.721293 78.325507 
L 134.842675 78.40113 
L 134.963997 78.644772 
L 135.327901 78.662315 
L 135.449198 80.731451 
L 136.662219 122.773032 
L 136.90491 122.182282 
L 137.268766 121.339491 
L 137.511421 121.374283 
L 137.754052 121.426416 
L 137.99667 121.409039 
L 138.603314 121.513295 
L 139.088552 121.339544 
L 139.937596 121.131039 
L 140.180178 121.157074 
L 140.786822 121.174454 
L 141.635879 121.209212 
L 142.121262 121.157005 
L 280.656456 121.157083 
L 280.899426 121.165845 
L 281.141754 121.165771 
L 281.384591 121.174511 
L 281.627028 121.183142 
L 281.869707 121.209212 
L 282.476278 121.235273 
L 282.718776 121.1484 
L 282.961334 121.183152 
L 283.204098 121.139738 
L 283.446668 121.174461 
L 283.689263 121.165792 
L 283.93187 121.200525 
L 284.659762 121.191841 
L 284.902284 121.191838 
L 285.145254 121.174482 
L 285.387533 121.165771 
L 285.508867 121.113648 
L 285.751571 121.209205 
L 286.11539 121.16575 
L 286.357984 121.200524 
L 286.600761 121.183172 
L 286.843307 121.226612 
L 287.085986 121.191853 
L 287.328459 121.209354 
L 287.57166 121.174574 
L 287.813697 121.16578 
L 288.056425 121.165773 
L 288.298995 121.157081 
L 288.541759 121.174485 
L 288.78422 121.174466 
L 289.026815 121.209198 
L 289.269506 121.200594 
L 289.512052 121.200523 
L 289.754719 121.191894 
L 289.997265 121.191815 
L 291.331729 121.200524 
L 291.574275 121.209223 
L 291.817039 121.2179 
L 292.059743 121.191834 
L 292.666096 121.122336 
L 293.030036 121.165766 
L 293.272631 121.157053 
L 293.515322 121.174459 
L 293.75788 121.200518 
L 294.000499 121.226647 
L 294.2433 121.20923 
L 294.364706 121.261301 
L 294.728355 121.174436 
L 294.970913 121.174485 
L 295.213629 121.139702 
L 295.456321 121.157079 
L 295.69883 121.174449 
L 295.941546 121.183132 
L 296.184068 121.209118 
L 296.42665 121.226597 
L 296.669499 121.191828 
L 296.911912 121.200527 
L 297.518556 121.139702 
L 298.246485 121.217851 
L 298.489103 121.200537 
L 299.095735 121.235232 
L 299.459433 121.183146 
L 299.702173 121.183116 
L 299.944646 121.13967 
L 300.18724 121.174459 
L 300.430017 121.165806 
L 300.672502 121.183165 
L 300.915218 121.209224 
L 301.157776 121.209212 
L 301.400383 121.209206 
L 302.006917 121.243954 
L 302.249488 121.104965 
L 302.613489 121.16577 
L 302.856144 121.200529 
L 303.098835 121.165765 
L 303.341345 121.191833 
L 303.584218 121.209191 
L 303.826546 121.200513 
L 304.069153 121.174461 
L 304.675796 121.122333 
L 305.039688 121.174461 
L 305.282258 121.183147 
L 305.767496 121.226585 
L 306.495328 121.183158 
L 307.465839 121.139707 
L 307.829937 121.200513 
L 308.072386 121.200521 
L 308.315247 121.209142 
L 308.557599 121.191828 
L 308.800206 121.200542 
L 309.043007 121.174515 
L 309.28548 121.17449 
L 309.528062 121.165769 
L 309.770742 121.15708 
L 310.01336 121.165785 
L 310.134645 121.226588 
L 310.377664 121.139724 
L 310.741265 121.20055 
L 310.983799 121.200517 
L 311.226454 121.200527 
L 311.469206 121.174485 
L 311.711679 121.174465 
L 311.833001 121.113676 
L 312.075632 121.200518 
L 312.31825 121.139703 
L 312.68213 121.183147 
L 312.924725 121.191828 
L 313.167452 121.191842 
L 314.74445 121.165781 
L 315.472294 121.209209 
L 316.200478 121.191835 
L 316.442733 121.148412 
L 316.685364 121.165775 
L 316.927934 121.183154 
L 317.170686 121.174471 
L 317.413281 121.165789 
L 318.141282 121.200553 
L 318.262385 121.252649 
L 318.626338 121.165779 
L 318.869345 121.148395 
L 319.111733 121.139726 
L 319.354146 121.1484 
L 320.082123 121.191838 
L 320.445978 121.209212 
L 322.022976 121.200519 
L 362.661676 121.200513 
L 362.661676 121.200513 
" clip-path="url(#p8976ed843e)" style="fill: none; stroke: #328c06; stroke-width: 0.4; stroke-linecap: round"/>
   </g>
   <g id="patch_6">
    <path d="M 44.352 125.09907 
L 44.352 73.926229 
" style="fill: none; stroke: #000000; stroke-linejoin: miter; stroke-linecap: square"/>
   </g>
   <g id="patch_7">
    <path d="M 44.352 125.09907 
L 377.81928 125.09907 
" style="fill: none; stroke: #000000; stroke-linejoin: miter; stroke-linecap: square"/>
   </g>
  </g>
  <g id="axes_3">
   <g id="patch_8">
    <path d="M 44.352 187.363104 
L 377.81928 187.363104 
L 377.81928 136.190263 
L 44.352 136.190263 
z
" style="fill: #ffffff"/>
   </g>
   <g id="matplotlib.axis_5">
    <g id="xtick_13">
     <g id="line2d_46">
      <path d="M 59.509507 187.363104 
L 59.509507 136.190263 
" clip-path="url(#p9246c4f9db)" style="fill: none; stroke: #b0b0b0; stroke-width: 0.1; stroke-linecap: round"/>
     </g>
     <g id="line2d_47"/>
     <g id="text_12">
      <!-- 5 -->
      <g style="fill: #262626" transform="translate(57.282632 196.18201) scale(0.07 -0.07)">
       <defs>
        <path id="DejaVuSerif-35" d="M 3219 4666 
L 3219 4153 
L 1081 4153 
L 1081 2816 
Q 1244 2928 1461 2984 
Q 1678 3041 1947 3041 
Q 2703 3041 3140 2622 
Q 3578 2203 3578 1478 
Q 3578 738 3136 323 
Q 2694 -91 1894 -91 
Q 1572 -91 1234 -12 
Q 897 66 544 225 
L 544 1131 
L 897 1131 
Q 925 688 1179 453 
Q 1434 219 1894 219 
Q 2388 219 2653 544 
Q 2919 869 2919 1478 
Q 2919 2084 2655 2407 
Q 2391 2731 1894 2731 
Q 1613 2731 1398 2631 
Q 1184 2531 1019 2322 
L 750 2322 
L 750 4666 
L 3219 4666 
z
" transform="scale(0.015625)"/>
       </defs>
       <use xlink:href="#DejaVuSerif-35"/>
      </g>
     </g>
    </g>
    <g id="xtick_14">
     <g id="line2d_48">
      <path d="M 120.164193 187.363104 
L 120.164193 136.190263 
" clip-path="url(#p9246c4f9db)" style="fill: none; stroke: #b0b0b0; stroke-width: 0.1; stroke-linecap: round"/>
     </g>
     <g id="line2d_49"/>
     <g id="text_13">
      <!-- 10 -->
      <g style="fill: #262626" transform="translate(115.710443 196.18201) scale(0.07 -0.07)">
       <use xlink:href="#DejaVuSerif-31"/>
       <use xlink:href="#DejaVuSerif-30" x="63.623047"/>
      </g>
     </g>
    </g>
    <g id="xtick_15">
     <g id="line2d_50">
      <path d="M 180.818879 187.363104 
L 180.818879 136.190263 
" clip-path="url(#p9246c4f9db)" style="fill: none; stroke: #b0b0b0; stroke-width: 0.1; stroke-linecap: round"/>
     </g>
     <g id="line2d_51"/>
     <g id="text_14">
      <!-- 15 -->
      <g style="fill: #262626" transform="translate(176.365129 196.18201) scale(0.07 -0.07)">
       <use xlink:href="#DejaVuSerif-31"/>
       <use xlink:href="#DejaVuSerif-35" x="63.623047"/>
      </g>
     </g>
    </g>
    <g id="xtick_16">
     <g id="line2d_52">
      <path d="M 241.473565 187.363104 
L 241.473565 136.190263 
" clip-path="url(#p9246c4f9db)" style="fill: none; stroke: #b0b0b0; stroke-width: 0.1; stroke-linecap: round"/>
     </g>
     <g id="line2d_53"/>
     <g id="text_15">
      <!-- 20 -->
      <g style="fill: #262626" transform="translate(237.019815 196.18201) scale(0.07 -0.07)">
       <use xlink:href="#DejaVuSerif-32"/>
       <use xlink:href="#DejaVuSerif-30" x="63.623047"/>
      </g>
     </g>
    </g>
    <g id="xtick_17">
     <g id="line2d_54">
      <path d="M 302.128251 187.363104 
L 302.128251 136.190263 
" clip-path="url(#p9246c4f9db)" style="fill: none; stroke: #b0b0b0; stroke-width: 0.1; stroke-linecap: round"/>
     </g>
     <g id="line2d_55"/>
     <g id="text_16">
      <!-- 25 -->
      <g style="fill: #262626" transform="translate(297.674501 196.18201) scale(0.07 -0.07)">
       <use xlink:href="#DejaVuSerif-32"/>
       <use xlink:href="#DejaVuSerif-35" x="63.623047"/>
      </g>
     </g>
    </g>
    <g id="xtick_18">
     <g id="line2d_56">
      <path d="M 362.782937 187.363104 
L 362.782937 136.190263 
" clip-path="url(#p9246c4f9db)" style="fill: none; stroke: #b0b0b0; stroke-width: 0.1; stroke-linecap: round"/>
     </g>
     <g id="line2d_57"/>
     <g id="text_17">
      <!-- 30 -->
      <g style="fill: #262626" transform="translate(358.329187 196.18201) scale(0.07 -0.07)">
       <defs>
        <path id="DejaVuSerif-33" d="M 622 4469 
Q 988 4606 1323 4678 
Q 1659 4750 1953 4750 
Q 2638 4750 3022 4454 
Q 3406 4159 3406 3634 
Q 3406 3213 3140 2930 
Q 2875 2647 2388 2547 
Q 2963 2466 3280 2130 
Q 3597 1794 3597 1259 
Q 3597 606 3158 257 
Q 2719 -91 1894 -91 
Q 1528 -91 1179 -12 
Q 831 66 488 225 
L 488 1131 
L 838 1131 
Q 869 681 1141 450 
Q 1413 219 1906 219 
Q 2384 219 2661 495 
Q 2938 772 2938 1253 
Q 2938 1803 2653 2086 
Q 2369 2369 1819 2369 
L 1522 2369 
L 1522 2688 
L 1678 2688 
Q 2225 2688 2498 2914 
Q 2772 3141 2772 3597 
Q 2772 4006 2547 4223 
Q 2322 4441 1900 4441 
Q 1478 4441 1245 4241 
Q 1013 4041 972 3647 
L 622 3647 
L 622 4469 
z
" transform="scale(0.015625)"/>
       </defs>
       <use xlink:href="#DejaVuSerif-33"/>
       <use xlink:href="#DejaVuSerif-30" x="63.623047"/>
      </g>
     </g>
    </g>
    <g id="text_18">
     <!-- Time [s] -->
     <g style="fill: #262626" transform="translate(198.670796 206.196854) scale(0.06 -0.06)">
      <defs>
       <path id="DejaVuSerif-54" d="M 1222 0 
L 1222 331 
L 1819 331 
L 1819 4294 
L 447 4294 
L 447 3566 
L 63 3566 
L 63 4666 
L 4206 4666 
L 4206 3566 
L 3822 3566 
L 3822 4294 
L 2450 4294 
L 2450 331 
L 3047 331 
L 3047 0 
L 1222 0 
z
" transform="scale(0.015625)"/>
       <path id="DejaVuSerif-69" d="M 622 4353 
Q 622 4497 726 4603 
Q 831 4709 978 4709 
Q 1122 4709 1226 4603 
Q 1331 4497 1331 4353 
Q 1331 4206 1228 4103 
Q 1125 4000 978 4000 
Q 831 4000 726 4103 
Q 622 4206 622 4353 
z
M 1356 331 
L 1900 331 
L 1900 0 
L 231 0 
L 231 331 
L 781 331 
L 781 2988 
L 231 2988 
L 231 3322 
L 1356 3322 
L 1356 331 
z
" transform="scale(0.015625)"/>
       <path id="DejaVuSerif-6d" d="M 3316 2675 
Q 3481 3041 3739 3227 
Q 3997 3413 4341 3413 
Q 4863 3413 5119 3089 
Q 5375 2766 5375 2113 
L 5375 331 
L 5894 331 
L 5894 0 
L 4300 0 
L 4300 331 
L 4800 331 
L 4800 2047 
Q 4800 2556 4650 2772 
Q 4500 2988 4153 2988 
Q 3769 2988 3567 2697 
Q 3366 2406 3366 1850 
L 3366 331 
L 3866 331 
L 3866 0 
L 2291 0 
L 2291 331 
L 2791 331 
L 2791 2069 
Q 2791 2566 2641 2777 
Q 2491 2988 2144 2988 
Q 1759 2988 1557 2697 
Q 1356 2406 1356 1850 
L 1356 331 
L 1856 331 
L 1856 0 
L 263 0 
L 263 331 
L 781 331 
L 781 2994 
L 231 2994 
L 231 3322 
L 1356 3322 
L 1356 2731 
Q 1516 3063 1762 3238 
Q 2009 3413 2322 3413 
Q 2709 3413 2968 3220 
Q 3228 3028 3316 2675 
z
" transform="scale(0.015625)"/>
       <path id="DejaVuSerif-73" d="M 359 184 
L 359 959 
L 691 959 
Q 703 588 923 403 
Q 1144 219 1575 219 
Q 1963 219 2166 364 
Q 2369 509 2369 788 
Q 2369 1006 2220 1140 
Q 2072 1275 1594 1428 
L 1178 1569 
Q 750 1706 558 1912 
Q 366 2119 366 2438 
Q 366 2894 700 3153 
Q 1034 3413 1625 3413 
Q 1888 3413 2178 3344 
Q 2469 3275 2778 3144 
L 2778 2419 
L 2447 2419 
Q 2434 2741 2221 2922 
Q 2009 3103 1644 3103 
Q 1281 3103 1095 2975 
Q 909 2847 909 2591 
Q 909 2381 1050 2254 
Q 1191 2128 1613 1997 
L 2069 1856 
Q 2541 1709 2748 1489 
Q 2956 1269 2956 922 
Q 2956 450 2595 179 
Q 2234 -91 1600 -91 
Q 1278 -91 972 -22 
Q 666 47 359 184 
z
" transform="scale(0.015625)"/>
      </defs>
      <use xlink:href="#DejaVuSerif-54"/>
      <use xlink:href="#DejaVuSerif-69" x="66.699219"/>
      <use xlink:href="#DejaVuSerif-6d" x="98.681641"/>
      <use xlink:href="#DejaVuSerif-65" x="193.505859"/>
      <use xlink:href="#DejaVuSerif-20" x="252.685547"/>
      <use xlink:href="#DejaVuSerif-5b" x="284.472656"/>
      <use xlink:href="#DejaVuSerif-73" x="323.486328"/>
      <use xlink:href="#DejaVuSerif-5d" x="374.804688"/>
     </g>
    </g>
   </g>
   <g id="matplotlib.axis_6">
    <g id="ytick_7">
     <g id="line2d_58">
      <path d="M 44.352 181.107974 
L 377.81928 181.107974 
" clip-path="url(#p9246c4f9db)" style="fill: none; stroke: #b0b0b0; stroke-width: 0.1; stroke-linecap: round"/>
     </g>
     <g id="line2d_59"/>
     <g id="text_19">
      <!-- −0.5 -->
      <g style="fill: #262626" transform="translate(23.854031 183.767427) scale(0.07 -0.07)">
       <use xlink:href="#DejaVuSerif-2212"/>
       <use xlink:href="#DejaVuSerif-30" x="83.789062"/>
       <use xlink:href="#DejaVuSerif-2e" x="147.412109"/>
       <use xlink:href="#DejaVuSerif-35" x="179.199219"/>
      </g>
     </g>
    </g>
    <g id="ytick_8">
     <g id="line2d_60">
      <path d="M 44.352 163.287038 
L 377.81928 163.287038 
" clip-path="url(#p9246c4f9db)" style="fill: none; stroke: #b0b0b0; stroke-width: 0.1; stroke-linecap: round"/>
     </g>
     <g id="line2d_61"/>
     <g id="text_20">
      <!-- 0.0 -->
      <g style="fill: #262626" transform="translate(29.719813 165.946491) scale(0.07 -0.07)">
       <use xlink:href="#DejaVuSerif-30"/>
       <use xlink:href="#DejaVuSerif-2e" x="63.623047"/>
       <use xlink:href="#DejaVuSerif-30" x="95.410156"/>
      </g>
     </g>
    </g>
    <g id="ytick_9">
     <g id="line2d_62">
      <path d="M 44.352 145.466102 
L 377.81928 145.466102 
" clip-path="url(#p9246c4f9db)" style="fill: none; stroke: #b0b0b0; stroke-width: 0.1; stroke-linecap: round"/>
     </g>
     <g id="line2d_63"/>
     <g id="text_21">
      <!-- 0.5 -->
      <g style="fill: #262626" transform="translate(29.719813 148.125555) scale(0.07 -0.07)">
       <use xlink:href="#DejaVuSerif-30"/>
       <use xlink:href="#DejaVuSerif-2e" x="63.623047"/>
       <use xlink:href="#DejaVuSerif-35" x="95.410156"/>
      </g>
     </g>
    </g>
    <g id="text_22">
     <!-- $\psi^{(\bullet)}-\psi^A$ [deg] -->
     <g style="fill: #262626" transform="translate(18.474031 183.166684) rotate(-90) scale(0.06 -0.06)">
      <defs>
       <path id="DejaVuSans-Oblique-3c8" d="M 1591 -78 
Q 891 38 616 341 
Q 278 713 425 1472 
L 819 3500 
L 1400 3500 
L 1009 1494 
Q 900 922 1119 684 
Q 1313 478 1691 434 
L 2284 3500 
L 2856 3500 
L 2263 438 
Q 2681 481 2928 688 
Q 3247 950 3353 1497 
L 3741 3500 
L 4322 3500 
L 3928 1475 
Q 3775 688 3300 344 
Q 2872 34 2163 -75 
L 1919 -1331 
L 1347 -1331 
L 1591 -78 
z
" transform="scale(0.015625)"/>
      </defs>
      <use xlink:href="#DejaVuSans-Oblique-3c8" transform="translate(0 0.60625)"/>
      <use xlink:href="#DejaVuSans-28" transform="translate(70.432943 38.8875) scale(0.7)"/>
      <use xlink:href="#DejaVuSans-2219" transform="translate(97.742513 38.8875) scale(0.7)"/>
      <use xlink:href="#DejaVuSans-29" transform="translate(141.560872 38.8875) scale(0.7)"/>
      <use xlink:href="#DejaVuSans-2212" transform="translate(191.08724 0.60625)"/>
      <use xlink:href="#DejaVuSans-Oblique-3c8" transform="translate(294.358724 0.60625)"/>
      <use xlink:href="#DejaVuSans-Oblique-41" transform="translate(364.791667 38.8875) scale(0.7)"/>
      <use xlink:href="#DejaVuSerif-20" transform="translate(415.411784 0.60625)"/>
      <use xlink:href="#DejaVuSerif-5b" transform="translate(447.198893 0.60625)"/>
      <use xlink:href="#DejaVuSerif-64" transform="translate(486.212565 0.60625)"/>
      <use xlink:href="#DejaVuSerif-65" transform="translate(550.226237 0.60625)"/>
      <use xlink:href="#DejaVuSerif-67" transform="translate(609.405924 0.60625)"/>
      <use xlink:href="#DejaVuSerif-5d" transform="translate(673.419596 0.60625)"/>
     </g>
    </g>
   </g>
   <g id="line2d_64">
    <path d="M 59.509604 163.287038 
L 362.661676 163.287038 
L 362.661676 163.287038 
" clip-path="url(#p9246c4f9db)" style="fill: none; stroke: #2a2eec; stroke-width: 0.4; stroke-linecap: round"/>
   </g>
   <g id="line2d_65">
    <path d="M 59.509604 162.443003 
L 84.013927 158.727134 
L 91.535132 157.885006 
L 97.84328 157.395749 
L 120.649406 156.049572 
L 125.501793 156.013223 
L 130.960715 156.208307 
L 146.245744 156.894993 
L 153.888138 156.799818 
L 162.379842 156.480591 
L 168.930742 156.048795 
L 192.949768 154.02758 
L 199.98582 153.12421 
L 220.123297 150.2186 
L 241.958802 146.622086 
L 260.276845 143.897582 
L 268.889471 142.759819 
L 288.056425 140.432189 
L 298.731625 139.548594 
L 304.069153 139.268271 
L 309.892087 139.22444 
L 319.839407 139.412502 
L 333.183438 139.646685 
L 343.616044 139.520993 
L 354.412518 139.173701 
L 359.628918 138.813235 
L 362.661676 138.516302 
L 362.661676 138.516302 
" clip-path="url(#p9246c4f9db)" style="fill: none; stroke: #fa7c17; stroke-width: 0.4; stroke-linecap: round"/>
   </g>
   <g id="line2d_66">
    <path d="M 59.509604 152.74456 
L 69.699555 150.219455 
L 75.643653 148.946617 
L 81.466442 147.933028 
L 87.046734 147.202209 
L 92.141691 146.757235 
L 96.144937 146.593182 
L 102.331861 146.558224 
L 112.400381 146.769903 
L 115.79708 147.085646 
L 119.315148 147.636385 
L 122.469071 148.359713 
L 125.744533 149.333747 
L 129.262335 150.619498 
L 133.02318 152.240298 
L 136.662219 154.053919 
L 140.301597 155.804389 
L 144.789983 157.717233 
L 151.098058 160.143859 
L 158.740549 162.849866 
L 164.442053 164.659686 
L 169.901169 166.129871 
L 178.028727 168.058492 
L 190.766235 170.85847 
L 198.287598 172.267378 
L 206.415132 173.563045 
L 212.601874 174.345667 
L 217.575582 174.750569 
L 223.034553 174.955823 
L 237.591689 175.362537 
L 257.243723 176.455418 
L 305.888793 179.113444 
L 321.052489 180.422964 
L 336.094936 181.575153 
L 345.678376 182.531432 
L 352.35038 183.416197 
L 360.96326 184.743721 
L 362.661676 185.037066 
L 362.661676 185.037066 
" clip-path="url(#p9246c4f9db)" style="fill: none; stroke: #328c06; stroke-width: 0.4; stroke-linecap: round"/>
   </g>
   <g id="patch_9">
    <path d="M 44.352 187.363104 
L 44.352 136.190263 
" style="fill: none; stroke: #000000; stroke-linejoin: miter; stroke-linecap: square"/>
   </g>
   <g id="patch_10">
    <path d="M 44.352 187.363104 
L 377.81928 187.363104 
" style="fill: none; stroke: #000000; stroke-linejoin: miter; stroke-linecap: square"/>
   </g>
  </g>
 </g>
 <defs>
  <clipPath id="pd4f5628f49">
   <rect x="44.352" y="11.662195" width="333.46728" height="51.172841"/>
  </clipPath>
  <clipPath id="p8976ed843e">
   <rect x="44.352" y="73.926229" width="333.46728" height="51.172841"/>
  </clipPath>
  <clipPath id="p9246c4f9db">
   <rect x="44.352" y="136.190263" width="333.46728" height="51.172841"/>
  </clipPath>
 </defs>
</svg>
