<?xml version="1.0" encoding="utf-8" standalone="no"?>
<!DOCTYPE svg PUBLIC "-//W3C//DTD SVG 1.1//EN"
  "http://www.w3.org/Graphics/SVG/1.1/DTD/svg11.dtd">
<svg xmlns:xlink="http://www.w3.org/1999/xlink" width="388.61928pt" height="218.623104pt" viewBox="0 0 388.61928 218.623104" xmlns="http://www.w3.org/2000/svg" version="1.1">
 <metadata>
  <rdf:RDF xmlns:dc="http://purl.org/dc/elements/1.1/" xmlns:cc="http://creativecommons.org/ns#" xmlns:rdf="http://www.w3.org/1999/02/22-rdf-syntax-ns#">
   <cc:Work>
    <dc:type rdf:resource="http://purl.org/dc/dcmitype/StillImage"/>
    <dc:date>2024-11-19T13:23:59.182689</dc:date>
    <dc:format>image/svg+xml</dc:format>
    <dc:creator>
     <cc:Agent>
      <dc:title>Matplotlib v3.8.2, https://matplotlib.org/</dc:title>
     </cc:Agent>
    </dc:creator>
   </cc:Work>
  </rdf:RDF>
 </metadata>
 <defs>
  <style type="text/css">*{stroke-linejoin: round; stroke-linecap: butt}</style>
 </defs>
 <g id="figure_1">
  <g id="patch_1">
   <path d="M 0 218.623104 
L 388.61928 218.623104 
L 388.61928 0 
L 0 0 
z
" style="fill: #ffffff"/>
  </g>
  <g id="axes_1">
   <g id="patch_2">
    <path d="M 37.758834 195.348177 
L 385.61904 195.348177 
L 385.61904 3.00024 
L 37.758834 3.00024 
z
" style="fill: #ffffff"/>
   </g>
   <g id="matplotlib.axis_1">
    <g id="xtick_1">
     <g id="line2d_1"/>
     <g id="text_1">
      <!-- −15 -->
      <g style="fill: #262626" transform="translate(46.184021 204.167083) scale(0.07 -0.07)">
       <defs>
        <path id="DejaVuSerif-2212" d="M 678 2259 
L 4684 2259 
L 4684 1753 
L 678 1753 
L 678 2259 
z
" transform="scale(0.015625)"/>
        <path id="DejaVuSerif-31" d="M 909 0 
L 909 331 
L 1722 331 
L 1722 4213 
L 781 3603 
L 781 4013 
L 1919 4750 
L 2350 4750 
L 2350 331 
L 3163 331 
L 3163 0 
L 909 0 
z
" transform="scale(0.015625)"/>
        <path id="DejaVuSerif-35" d="M 3219 4666 
L 3219 4153 
L 1081 4153 
L 1081 2816 
Q 1244 2928 1461 2984 
Q 1678 3041 1947 3041 
Q 2703 3041 3140 2622 
Q 3578 2203 3578 1478 
Q 3578 738 3136 323 
Q 2694 -91 1894 -91 
Q 1572 -91 1234 -12 
Q 897 66 544 225 
L 544 1131 
L 897 1131 
Q 925 688 1179 453 
Q 1434 219 1894 219 
Q 2388 219 2653 544 
Q 2919 869 2919 1478 
Q 2919 2084 2655 2407 
Q 2391 2731 1894 2731 
Q 1613 2731 1398 2631 
Q 1184 2531 1019 2322 
L 750 2322 
L 750 4666 
L 3219 4666 
z
" transform="scale(0.015625)"/>
       </defs>
       <use xlink:href="#DejaVuSerif-2212"/>
       <use xlink:href="#DejaVuSerif-31" x="83.789062"/>
       <use xlink:href="#DejaVuSerif-35" x="147.412109"/>
      </g>
     </g>
    </g>
    <g id="xtick_2">
     <g id="line2d_2"/>
     <g id="text_2">
      <!-- −10 -->
      <g style="fill: #262626" transform="translate(98.890113 204.167083) scale(0.07 -0.07)">
       <defs>
        <path id="DejaVuSerif-30" d="M 2034 219 
Q 2513 219 2750 744 
Q 2988 1269 2988 2328 
Q 2988 3391 2750 3916 
Q 2513 4441 2034 4441 
Q 1556 4441 1318 3916 
Q 1081 3391 1081 2328 
Q 1081 1269 1318 744 
Q 1556 219 2034 219 
z
M 2034 -91 
Q 1275 -91 848 546 
Q 422 1184 422 2328 
Q 422 3475 848 4112 
Q 1275 4750 2034 4750 
Q 2797 4750 3222 4112 
Q 3647 3475 3647 2328 
Q 3647 1184 3222 546 
Q 2797 -91 2034 -91 
z
" transform="scale(0.015625)"/>
       </defs>
       <use xlink:href="#DejaVuSerif-2212"/>
       <use xlink:href="#DejaVuSerif-31" x="83.789062"/>
       <use xlink:href="#DejaVuSerif-30" x="147.412109"/>
      </g>
     </g>
    </g>
    <g id="xtick_3">
     <g id="line2d_3"/>
     <g id="text_3">
      <!-- −5 -->
      <g style="fill: #262626" transform="translate(153.823079 204.167083) scale(0.07 -0.07)">
       <use xlink:href="#DejaVuSerif-2212"/>
       <use xlink:href="#DejaVuSerif-35" x="83.789062"/>
      </g>
     </g>
    </g>
    <g id="xtick_4">
     <g id="line2d_4"/>
     <g id="text_4">
      <!-- 0 -->
      <g style="fill: #262626" transform="translate(209.462062 204.167083) scale(0.07 -0.07)">
       <use xlink:href="#DejaVuSerif-30"/>
      </g>
     </g>
    </g>
    <g id="xtick_5">
     <g id="line2d_5"/>
     <g id="text_5">
      <!-- 5 -->
      <g style="fill: #262626" transform="translate(262.168154 204.167083) scale(0.07 -0.07)">
       <use xlink:href="#DejaVuSerif-35"/>
      </g>
     </g>
    </g>
    <g id="xtick_6">
     <g id="line2d_6"/>
     <g id="text_6">
      <!-- 10 -->
      <g style="fill: #262626" transform="translate(312.647371 204.167083) scale(0.07 -0.07)">
       <use xlink:href="#DejaVuSerif-31"/>
       <use xlink:href="#DejaVuSerif-30" x="63.623047"/>
      </g>
     </g>
    </g>
    <g id="xtick_7">
     <g id="line2d_7"/>
     <g id="text_7">
      <!-- 15 -->
      <g style="fill: #262626" transform="translate(365.353462 204.167083) scale(0.07 -0.07)">
       <use xlink:href="#DejaVuSerif-31"/>
       <use xlink:href="#DejaVuSerif-35" x="63.623047"/>
      </g>
     </g>
    </g>
    <g id="text_8">
     <!-- Drift angle $\beta$ [deg] -->
     <g style="fill: #262626" transform="translate(183.458937 214.242864) scale(0.06 -0.06)">
      <defs>
       <path id="DejaVuSerif-44" d="M 1581 331 
L 2163 331 
Q 3072 331 3558 850 
Q 4044 1369 4044 2338 
Q 4044 3306 3559 3818 
Q 3075 4331 2163 4331 
L 1581 4331 
L 1581 331 
z
M 353 0 
L 353 331 
L 947 331 
L 947 4331 
L 353 4331 
L 353 4666 
L 2209 4666 
Q 3416 4666 4089 4050 
Q 4763 3434 4763 2338 
Q 4763 1238 4088 619 
Q 3413 0 2209 0 
L 353 0 
z
" transform="scale(0.015625)"/>
       <path id="DejaVuSerif-72" d="M 3059 3328 
L 3059 2497 
L 2728 2497 
Q 2713 2744 2591 2866 
Q 2469 2988 2234 2988 
Q 1809 2988 1582 2694 
Q 1356 2400 1356 1850 
L 1356 331 
L 2022 331 
L 2022 0 
L 263 0 
L 263 331 
L 781 331 
L 781 2994 
L 231 2994 
L 231 3322 
L 1356 3322 
L 1356 2731 
Q 1525 3078 1790 3245 
Q 2056 3413 2438 3413 
Q 2578 3413 2733 3391 
Q 2888 3369 3059 3328 
z
" transform="scale(0.015625)"/>
       <path id="DejaVuSerif-69" d="M 622 4353 
Q 622 4497 726 4603 
Q 831 4709 978 4709 
Q 1122 4709 1226 4603 
Q 1331 4497 1331 4353 
Q 1331 4206 1228 4103 
Q 1125 4000 978 4000 
Q 831 4000 726 4103 
Q 622 4206 622 4353 
z
M 1356 331 
L 1900 331 
L 1900 0 
L 231 0 
L 231 331 
L 781 331 
L 781 2988 
L 231 2988 
L 231 3322 
L 1356 3322 
L 1356 331 
z
" transform="scale(0.015625)"/>
       <path id="DejaVuSerif-66" d="M 2753 4078 
L 2450 4078 
Q 2447 4313 2317 4434 
Q 2188 4556 1941 4556 
Q 1619 4556 1487 4379 
Q 1356 4203 1356 3750 
L 1356 3322 
L 2284 3322 
L 2284 2988 
L 1356 2988 
L 1356 331 
L 2094 331 
L 2094 0 
L 231 0 
L 231 331 
L 781 331 
L 781 2988 
L 231 2988 
L 231 3322 
L 781 3322 
L 781 3738 
Q 781 4294 1070 4578 
Q 1359 4863 1919 4863 
Q 2128 4863 2337 4825 
Q 2547 4788 2753 4709 
L 2753 4078 
z
" transform="scale(0.015625)"/>
       <path id="DejaVuSerif-74" d="M 691 2988 
L 184 2988 
L 184 3322 
L 691 3322 
L 691 4353 
L 1269 4353 
L 1269 3322 
L 2350 3322 
L 2350 2988 
L 1269 2988 
L 1269 878 
Q 1269 456 1350 337 
Q 1431 219 1650 219 
Q 1875 219 1978 351 
Q 2081 484 2088 781 
L 2522 781 
Q 2497 328 2275 118 
Q 2053 -91 1600 -91 
Q 1103 -91 897 129 
Q 691 350 691 878 
L 691 2988 
z
" transform="scale(0.015625)"/>
       <path id="DejaVuSerif-20" transform="scale(0.015625)"/>
       <path id="DejaVuSerif-61" d="M 2547 1044 
L 2547 1747 
L 1806 1747 
Q 1378 1747 1168 1562 
Q 959 1378 959 997 
Q 959 650 1171 447 
Q 1384 244 1747 244 
Q 2106 244 2326 466 
Q 2547 688 2547 1044 
z
M 3122 2075 
L 3122 331 
L 3634 331 
L 3634 0 
L 2547 0 
L 2547 359 
Q 2356 128 2106 18 
Q 1856 -91 1522 -91 
Q 969 -91 644 203 
Q 319 497 319 997 
Q 319 1513 691 1797 
Q 1063 2081 1741 2081 
L 2547 2081 
L 2547 2309 
Q 2547 2688 2317 2895 
Q 2088 3103 1672 3103 
Q 1328 3103 1125 2947 
Q 922 2791 872 2484 
L 575 2484 
L 575 3156 
Q 875 3284 1158 3348 
Q 1441 3413 1709 3413 
Q 2400 3413 2761 3070 
Q 3122 2728 3122 2075 
z
" transform="scale(0.015625)"/>
       <path id="DejaVuSerif-6e" d="M 263 0 
L 263 331 
L 781 331 
L 781 2988 
L 231 2988 
L 231 3322 
L 1356 3322 
L 1356 2731 
Q 1516 3069 1770 3241 
Q 2025 3413 2363 3413 
Q 2913 3413 3172 3097 
Q 3431 2781 3431 2113 
L 3431 331 
L 3944 331 
L 3944 0 
L 2356 0 
L 2356 331 
L 2853 331 
L 2853 1931 
Q 2853 2541 2703 2767 
Q 2553 2994 2175 2994 
Q 1775 2994 1565 2701 
Q 1356 2409 1356 1850 
L 1356 331 
L 1856 331 
L 1856 0 
L 263 0 
z
" transform="scale(0.015625)"/>
       <path id="DejaVuSerif-67" d="M 3359 2988 
L 3359 72 
Q 3359 -644 2965 -1033 
Q 2572 -1422 1844 -1422 
Q 1516 -1422 1216 -1362 
Q 916 -1303 641 -1184 
L 641 -488 
L 941 -488 
Q 997 -813 1206 -963 
Q 1416 -1113 1806 -1113 
Q 2313 -1113 2548 -827 
Q 2784 -541 2784 72 
L 2784 519 
Q 2616 206 2355 57 
Q 2094 -91 1709 -91 
Q 1097 -91 708 395 
Q 319 881 319 1663 
Q 319 2444 706 2928 
Q 1094 3413 1709 3413 
Q 2094 3413 2355 3264 
Q 2616 3116 2784 2803 
L 2784 3322 
L 3909 3322 
L 3909 2988 
L 3359 2988 
z
M 2784 1825 
Q 2784 2422 2554 2737 
Q 2325 3053 1888 3053 
Q 1444 3053 1217 2703 
Q 991 2353 991 1663 
Q 991 975 1217 622 
Q 1444 269 1888 269 
Q 2325 269 2554 583 
Q 2784 897 2784 1497 
L 2784 1825 
z
" transform="scale(0.015625)"/>
       <path id="DejaVuSerif-6c" d="M 1313 331 
L 1856 331 
L 1856 0 
L 184 0 
L 184 331 
L 738 331 
L 738 4531 
L 184 4531 
L 184 4863 
L 1313 4863 
L 1313 331 
z
" transform="scale(0.015625)"/>
       <path id="DejaVuSerif-65" d="M 3469 1600 
L 991 1600 
L 991 1575 
Q 991 903 1244 561 
Q 1497 219 1991 219 
Q 2369 219 2611 417 
Q 2853 616 2950 1006 
L 3413 1006 
Q 3275 459 2904 184 
Q 2534 -91 1931 -91 
Q 1203 -91 761 389 
Q 319 869 319 1663 
Q 319 2450 753 2931 
Q 1188 3413 1894 3413 
Q 2647 3413 3050 2948 
Q 3453 2484 3469 1600 
z
M 2791 1931 
Q 2772 2513 2545 2808 
Q 2319 3103 1894 3103 
Q 1497 3103 1269 2806 
Q 1041 2509 991 1931 
L 2791 1931 
z
" transform="scale(0.015625)"/>
       <path id="DejaVuSans-Oblique-3b2" d="M 872 216 
L 572 -1331 
L -6 -1331 
L 928 3478 
Q 1206 4903 2538 4903 
Q 3888 4903 3659 3700 
Q 3503 2844 2894 2531 
Q 3713 2250 3553 1416 
Q 3272 -69 1759 -66 
Q 1097 -63 872 216 
z
M 1019 966 
Q 1259 422 1875 425 
Q 2775 425 2966 1406 
Q 3138 2288 1675 2219 
L 1778 2750 
Q 2909 2731 3106 3750 
Q 3241 4438 2509 4434 
Q 1691 4434 1503 3459 
L 1019 966 
z
" transform="scale(0.015625)"/>
       <path id="DejaVuSerif-5b" d="M 550 4863 
L 2003 4863 
L 2003 4531 
L 1147 4531 
L 1147 -513 
L 2003 -513 
L 2003 -844 
L 550 -844 
L 550 4863 
z
" transform="scale(0.015625)"/>
       <path id="DejaVuSerif-64" d="M 3359 331 
L 3909 331 
L 3909 0 
L 2784 0 
L 2784 519 
Q 2616 206 2355 57 
Q 2094 -91 1709 -91 
Q 1097 -91 708 395 
Q 319 881 319 1663 
Q 319 2444 706 2928 
Q 1094 3413 1709 3413 
Q 2094 3413 2355 3264 
Q 2616 3116 2784 2803 
L 2784 4531 
L 2241 4531 
L 2241 4863 
L 3359 4863 
L 3359 331 
z
M 2784 1497 
L 2784 1825 
Q 2784 2422 2554 2737 
Q 2325 3053 1888 3053 
Q 1444 3053 1217 2703 
Q 991 2353 991 1663 
Q 991 975 1217 622 
Q 1444 269 1888 269 
Q 2325 269 2554 583 
Q 2784 897 2784 1497 
z
" transform="scale(0.015625)"/>
       <path id="DejaVuSerif-5d" d="M 1947 4863 
L 1947 -844 
L 494 -844 
L 494 -513 
L 1350 -513 
L 1350 4531 
L 494 4531 
L 494 4863 
L 1947 4863 
z
" transform="scale(0.015625)"/>
      </defs>
      <use xlink:href="#DejaVuSerif-44" transform="translate(0 0.390625)"/>
      <use xlink:href="#DejaVuSerif-72" transform="translate(80.175781 0.390625)"/>
      <use xlink:href="#DejaVuSerif-69" transform="translate(127.978516 0.390625)"/>
      <use xlink:href="#DejaVuSerif-66" transform="translate(159.960938 0.390625)"/>
      <use xlink:href="#DejaVuSerif-74" transform="translate(196.972656 0.390625)"/>
      <use xlink:href="#DejaVuSerif-20" transform="translate(237.158203 0.390625)"/>
      <use xlink:href="#DejaVuSerif-61" transform="translate(268.945312 0.390625)"/>
      <use xlink:href="#DejaVuSerif-6e" transform="translate(328.564453 0.390625)"/>
      <use xlink:href="#DejaVuSerif-67" transform="translate(392.96875 0.390625)"/>
      <use xlink:href="#DejaVuSerif-6c" transform="translate(456.982422 0.390625)"/>
      <use xlink:href="#DejaVuSerif-65" transform="translate(488.964844 0.390625)"/>
      <use xlink:href="#DejaVuSerif-20" transform="translate(548.144531 0.390625)"/>
      <use xlink:href="#DejaVuSans-Oblique-3b2" transform="translate(579.931641 0.390625)"/>
      <use xlink:href="#DejaVuSerif-20" transform="translate(643.75 0.390625)"/>
      <use xlink:href="#DejaVuSerif-5b" transform="translate(675.537109 0.390625)"/>
      <use xlink:href="#DejaVuSerif-64" transform="translate(714.550781 0.390625)"/>
      <use xlink:href="#DejaVuSerif-65" transform="translate(778.564453 0.390625)"/>
      <use xlink:href="#DejaVuSerif-67" transform="translate(837.744141 0.390625)"/>
      <use xlink:href="#DejaVuSerif-5d" transform="translate(901.757812 0.390625)"/>
     </g>
    </g>
   </g>
   <g id="matplotlib.axis_2">
    <g id="ytick_1">
     <g id="line2d_8"/>
     <g id="text_9">
      <!-- −0.08 -->
      <g style="fill: #262626" transform="translate(12.807115 197.675701) scale(0.07 -0.07)">
       <defs>
        <path id="DejaVuSerif-2e" d="M 603 325 
Q 603 500 722 622 
Q 841 744 1019 744 
Q 1191 744 1312 622 
Q 1434 500 1434 325 
Q 1434 153 1312 31 
Q 1191 -91 1019 -91 
Q 841 -91 722 29 
Q 603 150 603 325 
z
" transform="scale(0.015625)"/>
        <path id="DejaVuSerif-38" d="M 2981 1275 
Q 2981 1775 2732 2051 
Q 2484 2328 2034 2328 
Q 1584 2328 1336 2051 
Q 1088 1775 1088 1275 
Q 1088 772 1336 495 
Q 1584 219 2034 219 
Q 2484 219 2732 495 
Q 2981 772 2981 1275 
z
M 2853 3541 
Q 2853 3966 2637 4203 
Q 2422 4441 2034 4441 
Q 1650 4441 1433 4203 
Q 1216 3966 1216 3541 
Q 1216 3113 1433 2875 
Q 1650 2638 2034 2638 
Q 2422 2638 2637 2875 
Q 2853 3113 2853 3541 
z
M 2516 2484 
Q 3047 2413 3344 2092 
Q 3641 1772 3641 1275 
Q 3641 619 3225 264 
Q 2809 -91 2034 -91 
Q 1263 -91 845 264 
Q 428 619 428 1275 
Q 428 1772 725 2092 
Q 1022 2413 1556 2484 
Q 1084 2569 832 2842 
Q 581 3116 581 3541 
Q 581 4103 968 4426 
Q 1356 4750 2034 4750 
Q 2713 4750 3100 4426 
Q 3488 4103 3488 3541 
Q 3488 3116 3236 2842 
Q 2984 2569 2516 2484 
z
" transform="scale(0.015625)"/>
       </defs>
       <use xlink:href="#DejaVuSerif-2212"/>
       <use xlink:href="#DejaVuSerif-30" x="83.789062"/>
       <use xlink:href="#DejaVuSerif-2e" x="147.412109"/>
       <use xlink:href="#DejaVuSerif-30" x="179.199219"/>
       <use xlink:href="#DejaVuSerif-38" x="242.822266"/>
      </g>
     </g>
    </g>
    <g id="ytick_2">
     <g id="line2d_9"/>
     <g id="text_10">
      <!-- −0.06 -->
      <g style="fill: #262626" transform="translate(12.807115 173.239034) scale(0.07 -0.07)">
       <defs>
        <path id="DejaVuSerif-36" d="M 2094 219 
Q 2534 219 2771 542 
Q 3009 866 3009 1472 
Q 3009 2078 2771 2401 
Q 2534 2725 2094 2725 
Q 1647 2725 1412 2412 
Q 1178 2100 1178 1509 
Q 1178 888 1415 553 
Q 1653 219 2094 219 
z
M 1075 2569 
Q 1288 2803 1556 2918 
Q 1825 3034 2163 3034 
Q 2859 3034 3264 2615 
Q 3669 2197 3669 1472 
Q 3669 763 3233 336 
Q 2797 -91 2069 -91 
Q 1278 -91 853 498 
Q 428 1088 428 2181 
Q 428 3406 931 4078 
Q 1434 4750 2350 4750 
Q 2597 4750 2869 4703 
Q 3141 4656 3425 4563 
L 3425 3794 
L 3072 3794 
Q 3034 4109 2831 4275 
Q 2628 4441 2284 4441 
Q 1678 4441 1381 3981 
Q 1084 3522 1075 2569 
z
" transform="scale(0.015625)"/>
       </defs>
       <use xlink:href="#DejaVuSerif-2212"/>
       <use xlink:href="#DejaVuSerif-30" x="83.789062"/>
       <use xlink:href="#DejaVuSerif-2e" x="147.412109"/>
       <use xlink:href="#DejaVuSerif-30" x="179.199219"/>
       <use xlink:href="#DejaVuSerif-36" x="242.822266"/>
      </g>
     </g>
    </g>
    <g id="ytick_3">
     <g id="line2d_10"/>
     <g id="text_11">
      <!-- −0.04 -->
      <g style="fill: #262626" transform="translate(12.807115 148.802366) scale(0.07 -0.07)">
       <defs>
        <path id="DejaVuSerif-34" d="M 2234 1581 
L 2234 4063 
L 641 1581 
L 2234 1581 
z
M 3609 0 
L 1484 0 
L 1484 331 
L 2234 331 
L 2234 1247 
L 197 1247 
L 197 1588 
L 2241 4750 
L 2859 4750 
L 2859 1581 
L 3750 1581 
L 3750 1247 
L 2859 1247 
L 2859 331 
L 3609 331 
L 3609 0 
z
" transform="scale(0.015625)"/>
       </defs>
       <use xlink:href="#DejaVuSerif-2212"/>
       <use xlink:href="#DejaVuSerif-30" x="83.789062"/>
       <use xlink:href="#DejaVuSerif-2e" x="147.412109"/>
       <use xlink:href="#DejaVuSerif-30" x="179.199219"/>
       <use xlink:href="#DejaVuSerif-34" x="242.822266"/>
      </g>
     </g>
    </g>
    <g id="ytick_4">
     <g id="line2d_11"/>
     <g id="text_12">
      <!-- −0.02 -->
      <g style="fill: #262626" transform="translate(12.807115 124.365699) scale(0.07 -0.07)">
       <defs>
        <path id="DejaVuSerif-32" d="M 819 3553 
L 469 3553 
L 469 4384 
Q 803 4563 1142 4656 
Q 1481 4750 1806 4750 
Q 2534 4750 2956 4397 
Q 3378 4044 3378 3438 
Q 3378 2753 2422 1800 
Q 2347 1728 2309 1691 
L 1131 513 
L 3078 513 
L 3078 1088 
L 3444 1088 
L 3444 0 
L 434 0 
L 434 341 
L 1850 1753 
Q 2319 2222 2519 2614 
Q 2719 3006 2719 3438 
Q 2719 3909 2473 4175 
Q 2228 4441 1797 4441 
Q 1350 4441 1106 4219 
Q 863 3997 819 3553 
z
" transform="scale(0.015625)"/>
       </defs>
       <use xlink:href="#DejaVuSerif-2212"/>
       <use xlink:href="#DejaVuSerif-30" x="83.789062"/>
       <use xlink:href="#DejaVuSerif-2e" x="147.412109"/>
       <use xlink:href="#DejaVuSerif-30" x="179.199219"/>
       <use xlink:href="#DejaVuSerif-32" x="242.822266"/>
      </g>
     </g>
    </g>
    <g id="ytick_5">
     <g id="line2d_12"/>
     <g id="text_13">
      <!-- 0.00 -->
      <g style="fill: #262626" transform="translate(18.672896 99.929032) scale(0.07 -0.07)">
       <use xlink:href="#DejaVuSerif-30"/>
       <use xlink:href="#DejaVuSerif-2e" x="63.623047"/>
       <use xlink:href="#DejaVuSerif-30" x="95.410156"/>
       <use xlink:href="#DejaVuSerif-30" x="159.033203"/>
      </g>
     </g>
    </g>
    <g id="ytick_6">
     <g id="line2d_13"/>
     <g id="text_14">
      <!-- 0.02 -->
      <g style="fill: #262626" transform="translate(18.672896 75.492365) scale(0.07 -0.07)">
       <use xlink:href="#DejaVuSerif-30"/>
       <use xlink:href="#DejaVuSerif-2e" x="63.623047"/>
       <use xlink:href="#DejaVuSerif-30" x="95.410156"/>
       <use xlink:href="#DejaVuSerif-32" x="159.033203"/>
      </g>
     </g>
    </g>
    <g id="ytick_7">
     <g id="line2d_14"/>
     <g id="text_15">
      <!-- 0.04 -->
      <g style="fill: #262626" transform="translate(18.672896 51.055698) scale(0.07 -0.07)">
       <use xlink:href="#DejaVuSerif-30"/>
       <use xlink:href="#DejaVuSerif-2e" x="63.623047"/>
       <use xlink:href="#DejaVuSerif-30" x="95.410156"/>
       <use xlink:href="#DejaVuSerif-34" x="159.033203"/>
      </g>
     </g>
    </g>
    <g id="ytick_8">
     <g id="line2d_15"/>
     <g id="text_16">
      <!-- 0.06 -->
      <g style="fill: #262626" transform="translate(18.672896 26.61903) scale(0.07 -0.07)">
       <use xlink:href="#DejaVuSerif-30"/>
       <use xlink:href="#DejaVuSerif-2e" x="63.623047"/>
       <use xlink:href="#DejaVuSerif-30" x="95.410156"/>
       <use xlink:href="#DejaVuSerif-36" x="159.033203"/>
      </g>
     </g>
    </g>
    <g id="text_17">
     <!-- Yaw rate $r$ [rad/s] -->
     <g style="fill: #262626" transform="translate(7.559302 125.844208) rotate(-90) scale(0.06 -0.06)">
      <defs>
       <path id="DejaVuSerif-59" d="M 1209 0 
L 1209 331 
L 1806 331 
L 1806 2009 
L 366 4331 
L -72 4331 
L -72 4666 
L 1663 4666 
L 1663 4331 
L 1119 4331 
L 2284 2444 
L 3450 4331 
L 2925 4331 
L 2925 4666 
L 4281 4666 
L 4281 4331 
L 3841 4331 
L 2438 2069 
L 2438 331 
L 3034 331 
L 3034 0 
L 1209 0 
z
" transform="scale(0.015625)"/>
       <path id="DejaVuSerif-77" d="M 3072 3322 
L 3922 728 
L 4672 2988 
L 4191 2988 
L 4191 3322 
L 5394 3322 
L 5394 2988 
L 5025 2988 
L 4038 0 
L 3559 0 
L 2741 2484 
L 1919 0 
L 1459 0 
L 475 2988 
L 103 2988 
L 103 3322 
L 1606 3322 
L 1606 2988 
L 1069 2988 
L 1813 728 
L 2669 3322 
L 3072 3322 
z
" transform="scale(0.015625)"/>
       <path id="DejaVuSans-Oblique-72" d="M 2853 2969 
Q 2766 3016 2653 3041 
Q 2541 3066 2413 3066 
Q 1953 3066 1609 2717 
Q 1266 2369 1153 1784 
L 800 0 
L 225 0 
L 909 3500 
L 1484 3500 
L 1375 2956 
Q 1603 3259 1920 3421 
Q 2238 3584 2597 3584 
Q 2691 3584 2781 3573 
Q 2872 3563 2963 3538 
L 2853 2969 
z
" transform="scale(0.015625)"/>
       <path id="DejaVuSerif-2f" d="M 1656 4666 
L 2156 4666 
L 500 -594 
L 0 -594 
L 1656 4666 
z
" transform="scale(0.015625)"/>
       <path id="DejaVuSerif-73" d="M 359 184 
L 359 959 
L 691 959 
Q 703 588 923 403 
Q 1144 219 1575 219 
Q 1963 219 2166 364 
Q 2369 509 2369 788 
Q 2369 1006 2220 1140 
Q 2072 1275 1594 1428 
L 1178 1569 
Q 750 1706 558 1912 
Q 366 2119 366 2438 
Q 366 2894 700 3153 
Q 1034 3413 1625 3413 
Q 1888 3413 2178 3344 
Q 2469 3275 2778 3144 
L 2778 2419 
L 2447 2419 
Q 2434 2741 2221 2922 
Q 2009 3103 1644 3103 
Q 1281 3103 1095 2975 
Q 909 2847 909 2591 
Q 909 2381 1050 2254 
Q 1191 2128 1613 1997 
L 2069 1856 
Q 2541 1709 2748 1489 
Q 2956 1269 2956 922 
Q 2956 450 2595 179 
Q 2234 -91 1600 -91 
Q 1278 -91 972 -22 
Q 666 47 359 184 
z
" transform="scale(0.015625)"/>
      </defs>
      <use xlink:href="#DejaVuSerif-59" transform="translate(0 0.015625)"/>
      <use xlink:href="#DejaVuSerif-61" transform="translate(66.015625 0.015625)"/>
      <use xlink:href="#DejaVuSerif-77" transform="translate(125.634766 0.015625)"/>
      <use xlink:href="#DejaVuSerif-20" transform="translate(211.230469 0.015625)"/>
      <use xlink:href="#DejaVuSerif-72" transform="translate(243.017578 0.015625)"/>
      <use xlink:href="#DejaVuSerif-61" transform="translate(290.820312 0.015625)"/>
      <use xlink:href="#DejaVuSerif-74" transform="translate(350.439453 0.015625)"/>
      <use xlink:href="#DejaVuSerif-65" transform="translate(390.625 0.015625)"/>
      <use xlink:href="#DejaVuSerif-20" transform="translate(449.804688 0.015625)"/>
      <use xlink:href="#DejaVuSans-Oblique-72" transform="translate(481.591797 0.015625)"/>
      <use xlink:href="#DejaVuSerif-20" transform="translate(522.705078 0.015625)"/>
      <use xlink:href="#DejaVuSerif-5b" transform="translate(554.492188 0.015625)"/>
      <use xlink:href="#DejaVuSerif-72" transform="translate(593.505859 0.015625)"/>
      <use xlink:href="#DejaVuSerif-61" transform="translate(641.308594 0.015625)"/>
      <use xlink:href="#DejaVuSerif-64" transform="translate(700.927734 0.015625)"/>
      <use xlink:href="#DejaVuSerif-2f" transform="translate(764.941406 0.015625)"/>
      <use xlink:href="#DejaVuSerif-73" transform="translate(798.632812 0.015625)"/>
      <use xlink:href="#DejaVuSerif-5d" transform="translate(849.951172 0.015625)"/>
     </g>
    </g>
   </g>
   <g id="line2d_16">
    <path d="M 211.688937 97.269579 
L 211.687968 96.052609 
L 211.580721 97.151664 
L 211.083491 98.840459 
L 209.683058 102.666778 
L 207.61966 107.655689 
L 205.062142 113.288951 
L 202.017384 119.494947 
L 198.364727 126.451593 
L 195.42873 131.631839 
L 192.499327 136.376575 
L 189.382615 140.990951 
L 186.450465 144.946237 
L 183.316786 148.807751 
L 180.171979 152.338285 
L 176.82471 155.770603 
L 173.294531 159.062131 
L 169.978764 161.893888 
L 165.737735 165.18542 
L 161.369562 168.224061 
L 156.737026 171.102692 
L 152.241098 173.607734 
L 146.949195 176.209842 
L 141.823772 178.394024 
L 137.25141 180.096309 
L 132.712909 181.59309 
L 125.879235 183.477094 
L 118.141132 185.249021 
L 112.895021 186.160198 
L 109.398144 186.533924 
L 106.732796 186.597737 
L 104.614263 186.457885 
L 103.928246 186.181094 
L 103.23674 185.674402 
L 102.65925 184.935427 
L 102.201536 183.957415 
L 101.860755 182.776963 
L 101.619017 181.180673 
L 101.51613 178.913156 
L 101.627635 176.287821 
L 101.982449 173.074861 
L 102.600483 169.493211 
L 103.482331 165.589663 
L 104.639225 161.396235 
L 106.303045 156.184847 
L 108.442297 150.273203 
L 110.762951 144.494143 
L 113.761263 137.65474 
L 116.492047 131.91998 
L 119.499521 126.089019 
L 123.024061 119.733171 
L 127.114273 112.838842 
L 131.227388 106.356178 
L 135.94246 99.362029 
L 139.861835 93.922333 
L 143.438399 89.378826 
L 146.975607 85.256034 
L 150.799638 81.162809 
L 154.578536 77.459419 
L 158.643576 73.795088 
L 162.684595 70.438417 
L 166.676337 67.390364 
L 171.553645 63.969676 
L 176.070375 61.063862 
L 181.728755 57.696467 
L 187.009323 54.78167 
L 193.915157 51.216127 
L 200.035313 48.303385 
L 208.600171 44.488515 
L 218.021523 40.572093 
L 224.782585 37.998292 
L 231.904891 35.511152 
L 240.071297 33.022186 
L 247.217577 31.047837 
L 254.191274 29.310946 
L 261.568812 27.688316 
L 273.670043 25.166617 
L 292.50421 20.983386 
L 299.863945 19.640473 
L 310.03198 17.927222 
L 316.687157 16.788246 
L 319.190227 16.510112 
L 322.895384 16.290499 
L 330.263052 16.005662 
L 336.318689 15.719322 
L 338.838384 15.761855 
L 342.979185 16.19181 
L 345.057665 16.688365 
L 345.892503 17.045086 
L 346.798475 17.678408 
L 348.240908 19.133656 
L 348.415423 19.674813 
L 348.453069 20.571109 
L 348.2895 21.893022 
L 347.816357 23.902519 
L 346.913528 26.77398 
L 345.539259 30.439071 
L 343.603447 34.925947 
L 341.198554 39.926583 
L 338.180719 45.709423 
L 334.894511 51.54871 
L 331.190168 57.685548 
L 326.839907 64.428753 
L 322.621799 70.592262 
L 317.792198 77.266652 
L 312.611356 84.034687 
L 307.419154 90.460561 
L 301.543035 97.345983 
L 297.239379 102.093713 
L 293.333136 106.044115 
L 289.483328 109.624154 
L 285.336745 113.171668 
L 280.918277 116.636201 
L 276.223494 120.012749 
L 271.590215 123.077263 
L 266.388339 126.240058 
L 260.651202 129.438796 
L 255.024423 132.326969 
L 248.87047 135.245048 
L 239.646892 139.258299 
L 228.259071 143.963987 
L 215.264289 148.920241 
L 207.599124 151.601817 
L 199.241254 154.294481 
L 192.52203 156.211909 
L 186.456334 157.678216 
L 177.859572 159.435758 
L 167.227146 161.437432 
L 148.861605 165.019886 
L 135.224591 168.148676 
L 117.53825 171.872511 
L 107.937323 173.397289 
L 103.727415 173.649782 
L 95.619481 173.982587 
L 88.779834 174.416511 
L 84.815963 174.390312 
L 82.324106 174.122774 
L 81.091437 173.609086 
L 79.927115 172.719632 
L 79.763821 172.253728 
L 79.722907 171.4637 
L 79.880961 170.123046 
L 80.348304 168.06774 
L 81.268392 165.093421 
L 82.457089 162.011288 
L 84.256028 157.998019 
L 86.474741 153.529752 
L 89.772837 147.389597 
L 93.458926 141.080348 
L 98.06112 133.69781 
L 102.666954 126.708234 
L 107.405499 119.89743 
L 112.231873 113.336432 
L 116.82486 107.487633 
L 121.711097 101.61792 
L 127.219403 95.346439 
L 131.054445 91.289807 
L 134.827695 87.613873 
L 138.867892 83.99562 
L 142.861377 80.699975 
L 147.122919 77.468597 
L 151.628474 74.334129 
L 156.69863 71.100031 
L 161.062633 68.546882 
L 167.166692 65.265983 
L 173.440983 62.157177 
L 180.121818 59.121571 
L 188.836025 55.451078 
L 198.784173 51.500814 
L 208.117154 48.03082 
L 218.958031 44.267832 
L 225.394944 42.244779 
L 231.31546 40.616517 
L 236.134069 39.505076 
L 244.986059 37.754418 
L 265.616763 34.000179 
L 272.978658 32.486462 
L 279.735492 30.953024 
L 298.033026 26.856591 
L 308.163511 24.711618 
L 313.682101 23.563599 
L 316.72116 23.166994 
L 321.511041 22.778663 
L 330.165785 22.301385 
L 332.736648 22.129633 
L 339.817557 21.84335 
L 341.471407 21.943537 
L 342.551012 22.174131 
L 343.425381 22.614632 
L 344.095632 23.349288 
L 344.607925 24.117536 
L 344.64522 24.907857 
L 344.440358 26.410407 
L 343.897923 28.615584 
L 343.049667 31.181252 
L 341.392293 35.365413 
L 339.438895 39.734217 
L 337.170171 44.311974 
L 334.306615 49.583957 
L 330.612633 55.888783 
L 326.445454 62.540072 
L 321.591704 69.835239 
L 317.320477 75.840888 
L 312.712774 81.932741 
L 307.490589 88.482494 
L 301.945167 95.086452 
L 296.097532 101.711773 
L 292.281619 105.697186 
L 288.511277 109.312329 
L 284.449365 112.885053 
L 280.436389 116.128174 
L 276.152098 119.311636 
L 271.309206 122.60956 
L 266.533226 125.59317 
L 261.847984 128.279506 
L 254.84308 131.993246 
L 249.493186 134.596872 
L 241.946812 137.996338 
L 232.427368 141.922845 
L 224.197067 145.055463 
L 215.658331 148.068055 
L 204.540642 151.650105 
L 196.074449 154.179117 
L 190.070296 155.979864 
L 186.030808 157.353695 
L 181.762869 159.076177 
L 177.658352 161.051047 
L 173.691405 163.267648 
L 170.29949 165.389315 
L 164.294214 169.47497 
L 164.294214 169.47497 
" clip-path="url(#p8e5ad03046)" style="fill: none; stroke: #0000ff; stroke-width: 0.4; stroke-linecap: round"/>
   </g>
   <g id="line2d_17">
    <path d="M 211.688937 97.269579 
L 212.148707 98.027677 
L 212.284162 98.669905 
L 212.225344 99.413095 
L 211.632156 101.082999 
L 209.933228 105.138884 
L 207.609947 110.105733 
L 205.562146 113.948938 
L 203.543935 117.269953 
L 201.519152 120.168147 
L 199.375144 122.827195 
L 197.303837 125.0695 
L 195.049047 127.208464 
L 192.284186 129.491495 
L 188.928034 131.875697 
L 185.585465 133.952378 
L 181.516844 136.253561 
L 177.169438 138.538295 
L 173.745837 140.153181 
L 169.860626 141.835169 
L 167.996062 142.414745 
L 166.500586 142.688708 
L 164.968723 142.67179 
L 164.167324 142.406113 
L 163.92654 141.999562 
L 163.765943 141.286705 
L 163.731617 140.069339 
L 163.923404 138.151546 
L 164.4553 135.331037 
L 165.385316 131.691676 
L 166.784318 127.193823 
L 168.494131 122.43778 
L 170.727345 116.904545 
L 173.131023 111.540325 
L 175.512103 106.77253 
L 177.872373 102.539723 
L 180.214056 98.782376 
L 182.547091 95.437166 
L 185.017709 92.266868 
L 187.625831 89.292663 
L 190.347828 86.499108 
L 193.476067 83.596313 
L 196.718804 80.873804 
L 200.206341 78.208084 
L 204.842832 74.995752 
L 209.907102 71.771152 
L 215.610881 68.446288 
L 220.818869 65.712449 
L 225.254206 63.691897 
L 229.491284 62.018464 
L 233.081695 60.783898 
L 238.108918 59.326781 
L 242.412678 58.40011 
L 249.649605 57.008341 
L 252.906439 56.075172 
L 259.338827 53.615877 
L 262.752748 52.289266 
L 264.458296 51.758467 
L 266.761421 51.263121 
L 268.296796 51.062687 
L 272.408343 50.926133 
L 273.36258 50.809423 
L 274.943212 50.539085 
L 276.504844 50.336691 
L 277.187594 50.438476 
L 277.57555 50.761146 
L 277.944851 51.527615 
L 277.99896 51.906142 
L 277.876836 52.884706 
L 277.355621 54.969305 
L 276.396917 57.880219 
L 274.792042 61.981913 
L 272.315712 67.703136 
L 269.759415 73.059735 
L 266.558696 79.249627 
L 263.816284 84.105747 
L 261.134374 88.388497 
L 258.487684 92.194221 
L 255.885107 95.57015 
L 253.137899 98.773195 
L 250.267791 101.775471 
L 247.426508 104.43451 
L 244.303497 107.038783 
L 240.924428 109.570345 
L 237.154152 112.10225 
L 232.113774 115.155861 
L 219.23844 122.456347 
L 212.381868 126.132121 
L 207.555705 128.497818 
L 202.932864 130.570563 
L 196.388851 133.177699 
L 192.233454 134.485779 
L 188.376488 135.356906 
L 178.338492 137.152892 
L 162.047105 141.558441 
L 159.006264 142.080599 
L 155.029598 142.596564 
L 153.16353 142.872056 
L 150.451822 142.996867 
L 149.232622 142.759509 
L 148.679837 142.469973 
L 148.175686 141.941486 
L 148.039651 141.515199 
L 148.195521 140.640381 
L 149.00132 137.135359 
L 150.095899 133.484751 
L 151.621715 129.225051 
L 153.530614 124.591247 
L 155.76478 119.778598 
L 158.906323 113.613443 
L 161.553373 108.847592 
L 164.147684 104.613703 
L 166.700587 100.851418 
L 169.219607 97.511057 
L 171.875588 94.350696 
L 174.813356 91.228407 
L 177.549437 88.630996 
L 180.578058 86.06353 
L 184.157296 83.366116 
L 187.679103 81.000479 
L 191.440086 78.728727 
L 197.237638 75.517494 
L 202.401037 72.853426 
L 210.076665 69.183725 
L 214.650639 67.240927 
L 219.127311 65.575755 
L 224.743481 63.806921 
L 229.590352 62.602556 
L 234.105555 61.808488 
L 244.793951 60.221974 
L 247.701475 59.572599 
L 250.29878 58.874823 
L 258.415088 56.646399 
L 261.862584 56.183603 
L 270.823824 55.146089 
L 274.177993 54.64375 
L 275.026781 54.770151 
L 275.682513 55.149751 
L 276.226104 55.73871 
L 276.312462 56.025886 
L 276.289622 56.832537 
L 275.995413 58.454045 
L 275.284318 61.069494 
L 274.057387 64.628283 
L 272.242722 69.152549 
L 269.919736 74.365814 
L 267.391448 79.516647 
L 264.342631 85.22991 
L 261.635394 89.80505 
L 259.143211 93.592929 
L 256.506501 97.183411 
L 253.745093 100.5446 
L 251.018412 103.524976 
L 248.160949 106.318141 
L 245.18571 108.90863 
L 242.094267 111.323767 
L 238.753052 113.678941 
L 235.179794 115.966983 
L 230.528881 118.659192 
L 225.196016 121.458812 
L 220.557687 123.701239 
L 214.219468 126.484806 
L 205.467285 130.427765 
L 202.488277 132.006938 
L 198.38663 134.468819 
L 198.012621 134.70583 
L 198.012621 134.70583 
" clip-path="url(#p8e5ad03046)" style="fill: none; stroke: #bf00bf; stroke-width: 0.4; stroke-linecap: round"/>
   </g>
   <g id="line2d_18">
    <defs>
     <path id="m01eb079ac6" d="M -1.5 0 
L 1.5 0 
M 0 1.5 
L 0 -1.5 
" style="stroke: #ff0000"/>
    </defs>
    <g clip-path="url(#p8e5ad03046)">
     <use xlink:href="#m01eb079ac6" x="211.688937" y="175.383555" style="fill: #ff0000; stroke: #ff0000"/>
     <use xlink:href="#m01eb079ac6" x="211.688937" y="155.855061" style="fill: #ff0000; stroke: #ff0000"/>
     <use xlink:href="#m01eb079ac6" x="211.688937" y="126.56232" style="fill: #ff0000; stroke: #ff0000"/>
     <use xlink:href="#m01eb079ac6" x="85.194316" y="182.79583" style="fill: #ff0000; stroke: #ff0000"/>
     <use xlink:href="#m01eb079ac6" x="137.900408" y="182.79583" style="fill: #ff0000; stroke: #ff0000"/>
     <use xlink:href="#m01eb079ac6" x="85.194316" y="155.855061" style="fill: #ff0000; stroke: #ff0000"/>
     <use xlink:href="#m01eb079ac6" x="137.900408" y="155.855061" style="fill: #ff0000; stroke: #ff0000"/>
     <use xlink:href="#m01eb079ac6" x="137.900408" y="126.56232" style="fill: #ff0000; stroke: #ff0000"/>
     <use xlink:href="#m01eb079ac6" x="232.771374" y="155.855061" style="fill: #ff0000; stroke: #ff0000"/>
     <use xlink:href="#m01eb079ac6" x="232.771374" y="126.56232" style="fill: #ff0000; stroke: #ff0000"/>
     <use xlink:href="#m01eb079ac6" x="253.85381" y="126.56232" style="fill: #ff0000; stroke: #ff0000"/>
     <use xlink:href="#m01eb079ac6" x="285.477465" y="126.56232" style="fill: #ff0000; stroke: #ff0000"/>
     <use xlink:href="#m01eb079ac6" x="106.276753" y="155.855061" style="fill: #ff0000; stroke: #ff0000"/>
     <use xlink:href="#m01eb079ac6" x="190.6065" y="155.855061" style="fill: #ff0000; stroke: #ff0000"/>
     <use xlink:href="#m01eb079ac6" x="169.524063" y="155.855061" style="fill: #ff0000; stroke: #ff0000"/>
     <use xlink:href="#m01eb079ac6" x="106.276753" y="126.56232" style="fill: #ff0000; stroke: #ff0000"/>
     <use xlink:href="#m01eb079ac6" x="190.6065" y="126.56232" style="fill: #ff0000; stroke: #ff0000"/>
     <use xlink:href="#m01eb079ac6" x="169.524063" y="126.56232" style="fill: #ff0000; stroke: #ff0000"/>
     <use xlink:href="#m01eb079ac6" x="190.6065" y="126.56232" style="fill: #ff0000; stroke: #ff0000"/>
     <use xlink:href="#m01eb079ac6" x="190.6065" y="126.56232" style="fill: #ff0000; stroke: #ff0000"/>
     <use xlink:href="#m01eb079ac6" x="169.524063" y="126.56232" style="fill: #ff0000; stroke: #ff0000"/>
     <use xlink:href="#m01eb079ac6" x="137.900408" y="126.56232" style="fill: #ff0000; stroke: #ff0000"/>
     <use xlink:href="#m01eb079ac6" x="137.900408" y="126.56232" style="fill: #ff0000; stroke: #ff0000"/>
     <use xlink:href="#m01eb079ac6" x="211.688937" y="155.855061" style="fill: #ff0000; stroke: #ff0000"/>
     <use xlink:href="#m01eb079ac6" x="211.688937" y="126.56232" style="fill: #ff0000; stroke: #ff0000"/>
     <use xlink:href="#m01eb079ac6" x="211.688937" y="126.56232" style="fill: #ff0000; stroke: #ff0000"/>
     <use xlink:href="#m01eb079ac6" x="211.688937" y="126.56232" style="fill: #ff0000; stroke: #ff0000"/>
     <use xlink:href="#m01eb079ac6" x="285.477465" y="97.269579" style="fill: #ff0000; stroke: #ff0000"/>
     <use xlink:href="#m01eb079ac6" x="317.101121" y="97.269579" style="fill: #ff0000; stroke: #ff0000"/>
     <use xlink:href="#m01eb079ac6" x="369.807212" y="97.269579" style="fill: #ff0000; stroke: #ff0000"/>
     <use xlink:href="#m01eb079ac6" x="232.771374" y="97.269579" style="fill: #ff0000; stroke: #ff0000"/>
     <use xlink:href="#m01eb079ac6" x="253.85381" y="97.269579" style="fill: #ff0000; stroke: #ff0000"/>
     <use xlink:href="#m01eb079ac6" x="232.771374" y="97.269579" style="fill: #ff0000; stroke: #ff0000"/>
     <use xlink:href="#m01eb079ac6" x="253.85381" y="97.269579" style="fill: #ff0000; stroke: #ff0000"/>
     <use xlink:href="#m01eb079ac6" x="253.85381" y="97.269579" style="fill: #ff0000; stroke: #ff0000"/>
     <use xlink:href="#m01eb079ac6" x="253.85381" y="97.269579" style="fill: #ff0000; stroke: #ff0000"/>
     <use xlink:href="#m01eb079ac6" x="211.688937" y="97.269579" style="fill: #ff0000; stroke: #ff0000"/>
     <use xlink:href="#m01eb079ac6" x="211.688937" y="97.269579" style="fill: #ff0000; stroke: #ff0000"/>
     <use xlink:href="#m01eb079ac6" x="211.688937" y="97.269579" style="fill: #ff0000; stroke: #ff0000"/>
     <use xlink:href="#m01eb079ac6" x="211.688937" y="97.269579" style="fill: #ff0000; stroke: #ff0000"/>
     <use xlink:href="#m01eb079ac6" x="211.688937" y="97.269579" style="fill: #ff0000; stroke: #ff0000"/>
     <use xlink:href="#m01eb079ac6" x="211.688937" y="97.269579" style="fill: #ff0000; stroke: #ff0000"/>
     <use xlink:href="#m01eb079ac6" x="211.688937" y="97.269579" style="fill: #ff0000; stroke: #ff0000"/>
     <use xlink:href="#m01eb079ac6" x="211.688937" y="97.269579" style="fill: #ff0000; stroke: #ff0000"/>
     <use xlink:href="#m01eb079ac6" x="211.688937" y="97.269579" style="fill: #ff0000; stroke: #ff0000"/>
     <use xlink:href="#m01eb079ac6" x="211.688937" y="97.269579" style="fill: #ff0000; stroke: #ff0000"/>
     <use xlink:href="#m01eb079ac6" x="211.688937" y="97.269579" style="fill: #ff0000; stroke: #ff0000"/>
     <use xlink:href="#m01eb079ac6" x="211.688937" y="97.269579" style="fill: #ff0000; stroke: #ff0000"/>
     <use xlink:href="#m01eb079ac6" x="211.688937" y="97.269579" style="fill: #ff0000; stroke: #ff0000"/>
     <use xlink:href="#m01eb079ac6" x="211.688937" y="97.269579" style="fill: #ff0000; stroke: #ff0000"/>
     <use xlink:href="#m01eb079ac6" x="211.688937" y="97.269579" style="fill: #ff0000; stroke: #ff0000"/>
     <use xlink:href="#m01eb079ac6" x="211.688937" y="19.155603" style="fill: #ff0000; stroke: #ff0000"/>
     <use xlink:href="#m01eb079ac6" x="211.688937" y="38.684097" style="fill: #ff0000; stroke: #ff0000"/>
     <use xlink:href="#m01eb079ac6" x="211.688937" y="67.976838" style="fill: #ff0000; stroke: #ff0000"/>
     <use xlink:href="#m01eb079ac6" x="338.183557" y="11.743328" style="fill: #ff0000; stroke: #ff0000"/>
     <use xlink:href="#m01eb079ac6" x="285.477465" y="11.743328" style="fill: #ff0000; stroke: #ff0000"/>
     <use xlink:href="#m01eb079ac6" x="338.183557" y="38.684097" style="fill: #ff0000; stroke: #ff0000"/>
     <use xlink:href="#m01eb079ac6" x="285.477465" y="38.684097" style="fill: #ff0000; stroke: #ff0000"/>
     <use xlink:href="#m01eb079ac6" x="285.477465" y="67.976838" style="fill: #ff0000; stroke: #ff0000"/>
     <use xlink:href="#m01eb079ac6" x="190.6065" y="38.684097" style="fill: #ff0000; stroke: #ff0000"/>
     <use xlink:href="#m01eb079ac6" x="190.6065" y="67.976838" style="fill: #ff0000; stroke: #ff0000"/>
     <use xlink:href="#m01eb079ac6" x="169.524063" y="67.976838" style="fill: #ff0000; stroke: #ff0000"/>
     <use xlink:href="#m01eb079ac6" x="137.900408" y="67.976838" style="fill: #ff0000; stroke: #ff0000"/>
     <use xlink:href="#m01eb079ac6" x="317.101121" y="38.684097" style="fill: #ff0000; stroke: #ff0000"/>
     <use xlink:href="#m01eb079ac6" x="232.771374" y="38.684097" style="fill: #ff0000; stroke: #ff0000"/>
     <use xlink:href="#m01eb079ac6" x="253.85381" y="38.684097" style="fill: #ff0000; stroke: #ff0000"/>
     <use xlink:href="#m01eb079ac6" x="317.101121" y="67.976838" style="fill: #ff0000; stroke: #ff0000"/>
     <use xlink:href="#m01eb079ac6" x="232.771374" y="67.976838" style="fill: #ff0000; stroke: #ff0000"/>
     <use xlink:href="#m01eb079ac6" x="253.85381" y="67.976838" style="fill: #ff0000; stroke: #ff0000"/>
     <use xlink:href="#m01eb079ac6" x="232.771374" y="67.976838" style="fill: #ff0000; stroke: #ff0000"/>
     <use xlink:href="#m01eb079ac6" x="232.771374" y="67.976838" style="fill: #ff0000; stroke: #ff0000"/>
     <use xlink:href="#m01eb079ac6" x="253.85381" y="67.976838" style="fill: #ff0000; stroke: #ff0000"/>
     <use xlink:href="#m01eb079ac6" x="285.477465" y="67.976838" style="fill: #ff0000; stroke: #ff0000"/>
     <use xlink:href="#m01eb079ac6" x="285.477465" y="67.976838" style="fill: #ff0000; stroke: #ff0000"/>
     <use xlink:href="#m01eb079ac6" x="211.688937" y="38.684097" style="fill: #ff0000; stroke: #ff0000"/>
     <use xlink:href="#m01eb079ac6" x="211.688937" y="67.976838" style="fill: #ff0000; stroke: #ff0000"/>
     <use xlink:href="#m01eb079ac6" x="211.688937" y="67.976838" style="fill: #ff0000; stroke: #ff0000"/>
     <use xlink:href="#m01eb079ac6" x="211.688937" y="67.976838" style="fill: #ff0000; stroke: #ff0000"/>
     <use xlink:href="#m01eb079ac6" x="137.900408" y="97.269579" style="fill: #ff0000; stroke: #ff0000"/>
     <use xlink:href="#m01eb079ac6" x="106.276753" y="97.269579" style="fill: #ff0000; stroke: #ff0000"/>
     <use xlink:href="#m01eb079ac6" x="53.570661" y="97.269579" style="fill: #ff0000; stroke: #ff0000"/>
     <use xlink:href="#m01eb079ac6" x="190.6065" y="97.269579" style="fill: #ff0000; stroke: #ff0000"/>
     <use xlink:href="#m01eb079ac6" x="169.524063" y="97.269579" style="fill: #ff0000; stroke: #ff0000"/>
     <use xlink:href="#m01eb079ac6" x="190.6065" y="97.269579" style="fill: #ff0000; stroke: #ff0000"/>
     <use xlink:href="#m01eb079ac6" x="169.524063" y="97.269579" style="fill: #ff0000; stroke: #ff0000"/>
     <use xlink:href="#m01eb079ac6" x="169.524063" y="97.269579" style="fill: #ff0000; stroke: #ff0000"/>
     <use xlink:href="#m01eb079ac6" x="169.524063" y="97.269579" style="fill: #ff0000; stroke: #ff0000"/>
     <use xlink:href="#m01eb079ac6" x="211.688937" y="97.269579" style="fill: #ff0000; stroke: #ff0000"/>
     <use xlink:href="#m01eb079ac6" x="211.688937" y="97.269579" style="fill: #ff0000; stroke: #ff0000"/>
     <use xlink:href="#m01eb079ac6" x="211.688937" y="97.269579" style="fill: #ff0000; stroke: #ff0000"/>
     <use xlink:href="#m01eb079ac6" x="211.688937" y="97.269579" style="fill: #ff0000; stroke: #ff0000"/>
     <use xlink:href="#m01eb079ac6" x="211.688937" y="97.269579" style="fill: #ff0000; stroke: #ff0000"/>
     <use xlink:href="#m01eb079ac6" x="211.688937" y="97.269579" style="fill: #ff0000; stroke: #ff0000"/>
     <use xlink:href="#m01eb079ac6" x="211.688937" y="97.269579" style="fill: #ff0000; stroke: #ff0000"/>
     <use xlink:href="#m01eb079ac6" x="211.688937" y="97.269579" style="fill: #ff0000; stroke: #ff0000"/>
     <use xlink:href="#m01eb079ac6" x="211.688937" y="97.269579" style="fill: #ff0000; stroke: #ff0000"/>
     <use xlink:href="#m01eb079ac6" x="211.688937" y="97.269579" style="fill: #ff0000; stroke: #ff0000"/>
     <use xlink:href="#m01eb079ac6" x="211.688937" y="97.269579" style="fill: #ff0000; stroke: #ff0000"/>
     <use xlink:href="#m01eb079ac6" x="211.688937" y="97.269579" style="fill: #ff0000; stroke: #ff0000"/>
     <use xlink:href="#m01eb079ac6" x="211.688937" y="97.269579" style="fill: #ff0000; stroke: #ff0000"/>
    </g>
   </g>
   <g id="line2d_19">
    <defs>
     <path id="mfad861a68e" d="M 0 0.75 
C 0.198902 0.75 0.389685 0.670975 0.53033 0.53033 
C 0.670975 0.389685 0.75 0.198902 0.75 0 
C 0.75 -0.198902 0.670975 -0.389685 0.53033 -0.53033 
C 0.389685 -0.670975 0.198902 -0.75 0 -0.75 
C -0.198902 -0.75 -0.389685 -0.670975 -0.53033 -0.53033 
C -0.670975 -0.389685 -0.75 -0.198902 -0.75 0 
C -0.75 0.198902 -0.670975 0.389685 -0.53033 0.53033 
C -0.389685 0.670975 -0.198902 0.75 0 0.75 
z
" style="stroke: #008000"/>
    </defs>
    <g clip-path="url(#p8e5ad03046)">
     <use xlink:href="#mfad861a68e" x="129.387531" y="173.580592" style="fill: #008000; stroke: #008000"/>
     <use xlink:href="#mfad861a68e" x="105.568383" y="159.159147" style="fill: #008000; stroke: #008000"/>
     <use xlink:href="#mfad861a68e" x="145.729687" y="143.632352" style="fill: #008000; stroke: #008000"/>
     <use xlink:href="#mfad861a68e" x="170.442414" y="117.571359" style="fill: #008000; stroke: #008000"/>
     <use xlink:href="#mfad861a68e" x="164.592671" y="142.645568" style="fill: #008000; stroke: #008000"/>
     <use xlink:href="#mfad861a68e" x="198.070526" y="125.295919" style="fill: #008000; stroke: #008000"/>
     <use xlink:href="#mfad861a68e" x="95.219015" y="137.313497" style="fill: #008000; stroke: #008000"/>
     <use xlink:href="#mfad861a68e" x="80.288433" y="164.082792" style="fill: #008000; stroke: #008000"/>
     <use xlink:href="#mfad861a68e" x="76.210036" y="179.18006" style="fill: #008000; stroke: #008000"/>
     <use xlink:href="#mfad861a68e" x="293.990343" y="20.958566" style="fill: #008000; stroke: #008000"/>
     <use xlink:href="#mfad861a68e" x="317.80949" y="35.380011" style="fill: #008000; stroke: #008000"/>
     <use xlink:href="#mfad861a68e" x="277.648186" y="50.906805" style="fill: #008000; stroke: #008000"/>
     <use xlink:href="#mfad861a68e" x="252.935459" y="76.967798" style="fill: #008000; stroke: #008000"/>
     <use xlink:href="#mfad861a68e" x="258.785203" y="51.89359" style="fill: #008000; stroke: #008000"/>
     <use xlink:href="#mfad861a68e" x="225.307348" y="69.243238" style="fill: #008000; stroke: #008000"/>
     <use xlink:href="#mfad861a68e" x="328.158859" y="57.22566" style="fill: #008000; stroke: #008000"/>
     <use xlink:href="#mfad861a68e" x="343.08944" y="30.456366" style="fill: #008000; stroke: #008000"/>
     <use xlink:href="#mfad861a68e" x="347.167838" y="15.359098" style="fill: #008000; stroke: #008000"/>
    </g>
   </g>
   <g id="patch_3">
    <path d="M 37.758834 195.348177 
L 37.758834 3.00024 
" style="fill: none; stroke: #000000; stroke-linejoin: miter; stroke-linecap: square"/>
   </g>
   <g id="patch_4">
    <path d="M 37.758834 195.348177 
L 385.61904 195.348177 
" style="fill: none; stroke: #000000; stroke-linejoin: miter; stroke-linecap: square"/>
   </g>
   <g id="legend_1">
    <g id="line2d_20">
     <path d="M 44.058834 12.169146 
L 51.058834 12.169146 
L 58.058834 12.169146 
" style="fill: none; stroke: #0000ff; stroke-width: 0.4; stroke-linecap: round"/>
    </g>
    <g id="text_18">
     <!-- zigzag 20/20 -->
     <g style="fill: #262626" transform="translate(63.658834 14.619146) scale(0.07 -0.07)">
      <defs>
       <path id="DejaVuSerif-7a" d="M 256 0 
L 256 269 
L 2338 2988 
L 691 2988 
L 691 2413 
L 359 2413 
L 359 3322 
L 3078 3322 
L 3078 3053 
L 997 331 
L 2803 331 
L 2803 934 
L 3138 934 
L 3138 0 
L 256 0 
z
" transform="scale(0.015625)"/>
      </defs>
      <use xlink:href="#DejaVuSerif-7a"/>
      <use xlink:href="#DejaVuSerif-69" x="52.685547"/>
      <use xlink:href="#DejaVuSerif-67" x="84.667969"/>
      <use xlink:href="#DejaVuSerif-7a" x="148.681641"/>
      <use xlink:href="#DejaVuSerif-61" x="201.367188"/>
      <use xlink:href="#DejaVuSerif-67" x="260.986328"/>
      <use xlink:href="#DejaVuSerif-20" x="325"/>
      <use xlink:href="#DejaVuSerif-32" x="356.787109"/>
      <use xlink:href="#DejaVuSerif-30" x="420.410156"/>
      <use xlink:href="#DejaVuSerif-2f" x="484.033203"/>
      <use xlink:href="#DejaVuSerif-32" x="517.724609"/>
      <use xlink:href="#DejaVuSerif-30" x="581.347656"/>
     </g>
    </g>
    <g id="line2d_21">
     <path d="M 44.058834 22.543365 
L 51.058834 22.543365 
L 58.058834 22.543365 
" style="fill: none; stroke: #bf00bf; stroke-width: 0.4; stroke-linecap: round"/>
    </g>
    <g id="text_19">
     <!-- zigzag 10/10 -->
     <g style="fill: #262626" transform="translate(63.658834 24.993365) scale(0.07 -0.07)">
      <use xlink:href="#DejaVuSerif-7a"/>
      <use xlink:href="#DejaVuSerif-69" x="52.685547"/>
      <use xlink:href="#DejaVuSerif-67" x="84.667969"/>
      <use xlink:href="#DejaVuSerif-7a" x="148.681641"/>
      <use xlink:href="#DejaVuSerif-61" x="201.367188"/>
      <use xlink:href="#DejaVuSerif-67" x="260.986328"/>
      <use xlink:href="#DejaVuSerif-20" x="325"/>
      <use xlink:href="#DejaVuSerif-31" x="356.787109"/>
      <use xlink:href="#DejaVuSerif-30" x="420.410156"/>
      <use xlink:href="#DejaVuSerif-2f" x="484.033203"/>
      <use xlink:href="#DejaVuSerif-31" x="517.724609"/>
      <use xlink:href="#DejaVuSerif-30" x="581.347656"/>
     </g>
    </g>
    <g id="line2d_22">
     <g>
      <use xlink:href="#m01eb079ac6" x="51.058834" y="32.917584" style="fill: #ff0000; stroke: #ff0000"/>
     </g>
    </g>
    <g id="text_20">
     <!-- VCT -->
     <g style="fill: #262626" transform="translate(63.658834 35.367584) scale(0.07 -0.07)">
      <defs>
       <path id="DejaVuSerif-56" d="M 1119 4331 
L 2497 750 
L 3872 4331 
L 3347 4331 
L 3347 4666 
L 4716 4666 
L 4716 4331 
L 4263 4331 
L 2597 0 
L 2059 0 
L 403 4331 
L -63 4331 
L -63 4666 
L 1638 4666 
L 1638 4331 
L 1119 4331 
z
" transform="scale(0.015625)"/>
       <path id="DejaVuSerif-43" d="M 4513 1234 
Q 4306 581 3820 245 
Q 3334 -91 2591 -91 
Q 2134 -91 1743 65 
Q 1353 222 1050 525 
Q 700 875 529 1320 
Q 359 1766 359 2328 
Q 359 3416 987 4083 
Q 1616 4750 2644 4750 
Q 3025 4750 3456 4650 
Q 3888 4550 4384 4347 
L 4384 3272 
L 4031 3272 
Q 3916 3859 3567 4137 
Q 3219 4416 2591 4416 
Q 1844 4416 1459 3886 
Q 1075 3356 1075 2328 
Q 1075 1303 1459 773 
Q 1844 244 2591 244 
Q 3113 244 3450 492 
Q 3788 741 3938 1234 
L 4513 1234 
z
" transform="scale(0.015625)"/>
       <path id="DejaVuSerif-54" d="M 1222 0 
L 1222 331 
L 1819 331 
L 1819 4294 
L 447 4294 
L 447 3566 
L 63 3566 
L 63 4666 
L 4206 4666 
L 4206 3566 
L 3822 3566 
L 3822 4294 
L 2450 4294 
L 2450 331 
L 3047 331 
L 3047 0 
L 1222 0 
z
" transform="scale(0.015625)"/>
      </defs>
      <use xlink:href="#DejaVuSerif-56"/>
      <use xlink:href="#DejaVuSerif-43" x="72.216797"/>
      <use xlink:href="#DejaVuSerif-54" x="148.730469"/>
     </g>
    </g>
    <g id="line2d_23">
     <g>
      <use xlink:href="#mfad861a68e" x="51.058834" y="43.192271" style="fill: #008000; stroke: #008000"/>
     </g>
    </g>
    <g id="text_21">
     <!-- state VCT -->
     <g style="fill: #262626" transform="translate(63.658834 45.642271) scale(0.07 -0.07)">
      <use xlink:href="#DejaVuSerif-73"/>
      <use xlink:href="#DejaVuSerif-74" x="51.318359"/>
      <use xlink:href="#DejaVuSerif-61" x="91.503906"/>
      <use xlink:href="#DejaVuSerif-74" x="151.123047"/>
      <use xlink:href="#DejaVuSerif-65" x="191.308594"/>
      <use xlink:href="#DejaVuSerif-20" x="250.488281"/>
      <use xlink:href="#DejaVuSerif-56" x="282.275391"/>
      <use xlink:href="#DejaVuSerif-43" x="354.492188"/>
      <use xlink:href="#DejaVuSerif-54" x="431.005859"/>
     </g>
    </g>
   </g>
  </g>
 </g>
 <defs>
  <clipPath id="p8e5ad03046">
   <rect x="37.758834" y="3.00024" width="347.860206" height="192.347937"/>
  </clipPath>
 </defs>
</svg>
