<?xml version="1.0" encoding="utf-8" standalone="no"?>
<!DOCTYPE svg PUBLIC "-//W3C//DTD SVG 1.1//EN"
  "http://www.w3.org/Graphics/SVG/1.1/DTD/svg11.dtd">
<svg xmlns:xlink="http://www.w3.org/1999/xlink" width="177.312993pt" height="79.586513pt" viewBox="0 0 177.312993 79.586513" xmlns="http://www.w3.org/2000/svg" version="1.1">
 <metadata>
  <rdf:RDF xmlns:dc="http://purl.org/dc/elements/1.1/" xmlns:cc="http://creativecommons.org/ns#" xmlns:rdf="http://www.w3.org/1999/02/22-rdf-syntax-ns#">
   <cc:Work>
    <dc:type rdf:resource="http://purl.org/dc/dcmitype/StillImage"/>
    <dc:date>2025-04-09T18:29:28.663231</dc:date>
    <dc:format>image/svg+xml</dc:format>
    <dc:creator>
     <cc:Agent>
      <dc:title>Matplotlib v3.8.2, https://matplotlib.org/</dc:title>
     </cc:Agent>
    </dc:creator>
   </cc:Work>
  </rdf:RDF>
 </metadata>
 <defs>
  <style type="text/css">*{stroke-linejoin: round; stroke-linecap: butt}</style>
 </defs>
 <g id="figure_1">
  <g id="patch_1">
   <path d="M 0 79.586513 
L 177.312993 79.586513 
L 177.312993 -0 
L 0 -0 
z
" style="fill: #ffffff"/>
  </g>
  <g id="axes_1">
   <g id="patch_2">
    <path d="M 35.473281 28.815335 
L 170.112993 28.815335 
L 170.112993 8.164174 
L 35.473281 8.164174 
z
" style="fill: #ffffff"/>
   </g>
   <g id="matplotlib.axis_1">
    <g id="xtick_1">
     <g id="line2d_1"/>
    </g>
    <g id="xtick_2">
     <g id="line2d_2"/>
    </g>
    <g id="xtick_3">
     <g id="line2d_3"/>
    </g>
    <g id="xtick_4">
     <g id="line2d_4"/>
    </g>
   </g>
   <g id="matplotlib.axis_2">
    <g id="ytick_1">
     <g id="line2d_5"/>
     <g id="text_1">
      <!-- −10 -->
      <g style="fill: #262626" transform="translate(17.2 30.523121) scale(0.07 -0.07)">
       <defs>
        <path id="DejaVuSerif-2212" d="M 678 2259 
L 4684 2259 
L 4684 1753 
L 678 1753 
L 678 2259 
z
" transform="scale(0.015625)"/>
        <path id="DejaVuSerif-31" d="M 909 0 
L 909 331 
L 1722 331 
L 1722 4213 
L 781 3603 
L 781 4013 
L 1919 4750 
L 2350 4750 
L 2350 331 
L 3163 331 
L 3163 0 
L 909 0 
z
" transform="scale(0.015625)"/>
        <path id="DejaVuSerif-30" d="M 2034 219 
Q 2513 219 2750 744 
Q 2988 1269 2988 2328 
Q 2988 3391 2750 3916 
Q 2513 4441 2034 4441 
Q 1556 4441 1318 3916 
Q 1081 3391 1081 2328 
Q 1081 1269 1318 744 
Q 1556 219 2034 219 
z
M 2034 -91 
Q 1275 -91 848 546 
Q 422 1184 422 2328 
Q 422 3475 848 4112 
Q 1275 4750 2034 4750 
Q 2797 4750 3222 4112 
Q 3647 3475 3647 2328 
Q 3647 1184 3222 546 
Q 2797 -91 2034 -91 
z
" transform="scale(0.015625)"/>
       </defs>
       <use xlink:href="#DejaVuSerif-2212"/>
       <use xlink:href="#DejaVuSerif-31" x="83.789062"/>
       <use xlink:href="#DejaVuSerif-30" x="147.412109"/>
      </g>
     </g>
    </g>
    <g id="ytick_2">
     <g id="line2d_6"/>
     <g id="text_2">
      <!-- 0 -->
      <g style="fill: #262626" transform="translate(27.519531 21.521014) scale(0.07 -0.07)">
       <use xlink:href="#DejaVuSerif-30"/>
      </g>
     </g>
    </g>
    <g id="ytick_3">
     <g id="line2d_7"/>
     <g id="text_3">
      <!-- 10 -->
      <g style="fill: #262626" transform="translate(23.065781 12.518906) scale(0.07 -0.07)">
       <use xlink:href="#DejaVuSerif-31"/>
       <use xlink:href="#DejaVuSerif-30" x="63.623047"/>
      </g>
     </g>
    </g>
    <g id="text_4">
     <!-- $\beta$ [deg] -->
     <g style="fill: #262626" transform="translate(11.82 29.319755) rotate(-90) scale(0.06 -0.06)">
      <defs>
       <path id="DejaVuSans-Oblique-3b2" d="M 872 216 
L 572 -1331 
L -6 -1331 
L 928 3478 
Q 1206 4903 2538 4903 
Q 3888 4903 3659 3700 
Q 3503 2844 2894 2531 
Q 3713 2250 3553 1416 
Q 3272 -69 1759 -66 
Q 1097 -63 872 216 
z
M 1019 966 
Q 1259 422 1875 425 
Q 2775 425 2966 1406 
Q 3138 2288 1675 2219 
L 1778 2750 
Q 2909 2731 3106 3750 
Q 3241 4438 2509 4434 
Q 1691 4434 1503 3459 
L 1019 966 
z
" transform="scale(0.015625)"/>
       <path id="DejaVuSerif-20" transform="scale(0.015625)"/>
       <path id="DejaVuSerif-5b" d="M 550 4863 
L 2003 4863 
L 2003 4531 
L 1147 4531 
L 1147 -513 
L 2003 -513 
L 2003 -844 
L 550 -844 
L 550 4863 
z
" transform="scale(0.015625)"/>
       <path id="DejaVuSerif-64" d="M 3359 331 
L 3909 331 
L 3909 0 
L 2784 0 
L 2784 519 
Q 2616 206 2355 57 
Q 2094 -91 1709 -91 
Q 1097 -91 708 395 
Q 319 881 319 1663 
Q 319 2444 706 2928 
Q 1094 3413 1709 3413 
Q 2094 3413 2355 3264 
Q 2616 3116 2784 2803 
L 2784 4531 
L 2241 4531 
L 2241 4863 
L 3359 4863 
L 3359 331 
z
M 2784 1497 
L 2784 1825 
Q 2784 2422 2554 2737 
Q 2325 3053 1888 3053 
Q 1444 3053 1217 2703 
Q 991 2353 991 1663 
Q 991 975 1217 622 
Q 1444 269 1888 269 
Q 2325 269 2554 583 
Q 2784 897 2784 1497 
z
" transform="scale(0.015625)"/>
       <path id="DejaVuSerif-65" d="M 3469 1600 
L 991 1600 
L 991 1575 
Q 991 903 1244 561 
Q 1497 219 1991 219 
Q 2369 219 2611 417 
Q 2853 616 2950 1006 
L 3413 1006 
Q 3275 459 2904 184 
Q 2534 -91 1931 -91 
Q 1203 -91 761 389 
Q 319 869 319 1663 
Q 319 2450 753 2931 
Q 1188 3413 1894 3413 
Q 2647 3413 3050 2948 
Q 3453 2484 3469 1600 
z
M 2791 1931 
Q 2772 2513 2545 2808 
Q 2319 3103 1894 3103 
Q 1497 3103 1269 2806 
Q 1041 2509 991 1931 
L 2791 1931 
z
" transform="scale(0.015625)"/>
       <path id="DejaVuSerif-67" d="M 3359 2988 
L 3359 72 
Q 3359 -644 2965 -1033 
Q 2572 -1422 1844 -1422 
Q 1516 -1422 1216 -1362 
Q 916 -1303 641 -1184 
L 641 -488 
L 941 -488 
Q 997 -813 1206 -963 
Q 1416 -1113 1806 -1113 
Q 2313 -1113 2548 -827 
Q 2784 -541 2784 72 
L 2784 519 
Q 2616 206 2355 57 
Q 2094 -91 1709 -91 
Q 1097 -91 708 395 
Q 319 881 319 1663 
Q 319 2444 706 2928 
Q 1094 3413 1709 3413 
Q 2094 3413 2355 3264 
Q 2616 3116 2784 2803 
L 2784 3322 
L 3909 3322 
L 3909 2988 
L 3359 2988 
z
M 2784 1825 
Q 2784 2422 2554 2737 
Q 2325 3053 1888 3053 
Q 1444 3053 1217 2703 
Q 991 2353 991 1663 
Q 991 975 1217 622 
Q 1444 269 1888 269 
Q 2325 269 2554 583 
Q 2784 897 2784 1497 
L 2784 1825 
z
" transform="scale(0.015625)"/>
       <path id="DejaVuSerif-5d" d="M 1947 4863 
L 1947 -844 
L 494 -844 
L 494 -513 
L 1350 -513 
L 1350 4531 
L 494 4531 
L 494 4863 
L 1947 4863 
z
" transform="scale(0.015625)"/>
      </defs>
      <use xlink:href="#DejaVuSans-Oblique-3b2" transform="translate(0 0.390625)"/>
      <use xlink:href="#DejaVuSerif-20" transform="translate(63.818359 0.390625)"/>
      <use xlink:href="#DejaVuSerif-5b" transform="translate(95.605469 0.390625)"/>
      <use xlink:href="#DejaVuSerif-64" transform="translate(134.619141 0.390625)"/>
      <use xlink:href="#DejaVuSerif-65" transform="translate(198.632812 0.390625)"/>
      <use xlink:href="#DejaVuSerif-67" transform="translate(257.8125 0.390625)"/>
      <use xlink:href="#DejaVuSerif-5d" transform="translate(321.826172 0.390625)"/>
     </g>
    </g>
   </g>
   <g id="line2d_8">
    <path d="M 41.593268 18.86156 
L 42.787814 18.973406 
L 43.982359 19.312005 
L 46.968724 20.484595 
L 59.305497 25.580086 
L 60.479447 25.817986 
L 61.673992 25.831504 
L 63.033303 25.61734 
L 65.44299 24.937698 
L 69.129605 23.69677 
L 73.557662 21.937524 
L 78.335845 19.78672 
L 90.137132 14.378358 
L 93.720769 13.066155 
L 97.057259 12.076793 
L 100.414344 11.308038 
L 103.977385 10.715794 
L 108.055317 10.26619 
L 111.577167 10.074958 
L 112.936477 10.279282 
L 114.481149 10.751118 
L 119.712435 12.810604 
L 125.788141 15.443597 
L 133.63507 19.141183 
L 140.843535 22.492367 
L 144.85968 24.124073 
L 148.484508 25.364033 
L 151.71802 26.236811 
L 155.033914 26.899965 
L 158.76172 27.409052 
L 163.004417 27.761071 
L 163.78705 27.805751 
L 163.78705 27.805751 
" clip-path="url(#pd8fa6c8326)" style="fill: none; stroke: #00bfbf; stroke-width: 0.4; stroke-linecap: round"/>
   </g>
   <g id="line2d_9">
    <path d="M 41.593268 18.86156 
L 42.787814 18.949823 
L 43.961764 19.263075 
L 46.577407 20.273031 
L 51.376185 22.43113 
L 55.969007 24.399063 
L 58.975967 25.442681 
L 60.314682 25.7398 
L 61.529823 25.763437 
L 62.889134 25.560206 
L 65.381203 24.871537 
L 69.150201 23.640925 
L 72.980985 22.154722 
L 76.770578 20.43844 
L 81.898886 17.81723 
L 87.439106 15.045692 
L 90.672618 13.679953 
L 93.782556 12.615989 
L 96.810111 11.813204 
L 100.146601 11.164346 
L 103.853811 10.670657 
L 108.32306 10.302672 
L 110.773938 10.264464 
L 112.17444 10.53409 
L 113.739706 11.038832 
L 123.131307 14.648353 
L 128.774505 17.062629 
L 134.335321 19.691757 
L 140.987705 22.797539 
L 144.571342 24.215818 
L 147.86664 25.281041 
L 150.997173 26.061762 
L 154.374854 26.671666 
L 158.267425 27.142541 
L 162.983821 27.48447 
L 163.993006 27.535572 
L 163.993006 27.535572 
" clip-path="url(#pd8fa6c8326)" style="fill: none; stroke: #bf00bf; stroke-width: 0.4; stroke-linecap: round"/>
   </g>
   <g id="patch_3">
    <path d="M 35.473281 28.815335 
L 35.473281 8.164174 
" style="fill: none; stroke: #000000; stroke-linejoin: miter; stroke-linecap: square"/>
   </g>
   <g id="patch_4">
    <path d="M 35.473281 28.815335 
L 170.112993 28.815335 
" style="fill: none; stroke: #000000; stroke-linejoin: miter; stroke-linecap: square"/>
   </g>
   <g id="line2d_10">
    <path d="M 41.593268 18.933792 
L 42.870178 19.100897 
L 44.682592 19.604379 
L 49.604968 21.090884 
L 52.261784 22.244169 
L 57.92558 24.754939 
L 59.573225 25.272325 
L 60.932522 25.433338 
L 62.312422 25.369932 
L 66.822871 24.654566 
L 68.635283 24.121651 
L 71.353909 23.049859 
L 81.837101 18.631015 
L 92.711574 13.63097 
L 96.851309 12.082626 
L 100.888033 10.889085 
L 103.606637 10.263861 
L 107.972908 9.479043 
L 111.021067 9.139681 
L 112.462756 9.128171 
L 113.986829 9.378257 
L 115.243164 9.756233 
L 116.870246 10.275829 
L 119.650621 11.166251 
L 122.82237 12.587459 
L 128.136021 15.128798 
L 133.367303 17.367514 
L 142.635381 21.404031 
L 148.566864 23.83843 
L 152.356459 25.147416 
L 158.555743 26.862642 
L 161.912818 27.537239 
L 163.993006 27.876646 
L 163.993006 27.876646 
" clip-path="url(#pd8fa6c8326)" style="fill: none; stroke: #000000; stroke-width: 0.7; stroke-linecap: round"/>
   </g>
  </g>
  <g id="axes_2">
   <g id="patch_5">
    <path d="M 35.473281 52.30495 
L 170.112993 52.30495 
L 170.112993 31.653789 
L 35.473281 31.653789 
z
" style="fill: #ffffff"/>
   </g>
   <g id="matplotlib.axis_3">
    <g id="xtick_5">
     <g id="line2d_11"/>
     <g id="text_5">
      <!-- 0 -->
      <g style="fill: #262626" transform="translate(39.366393 61.123857) scale(0.07 -0.07)">
       <use xlink:href="#DejaVuSerif-30"/>
      </g>
     </g>
    </g>
    <g id="xtick_6">
     <g id="line2d_12"/>
     <g id="text_6">
      <!-- 20 -->
      <g style="fill: #262626" transform="translate(78.330748 61.123857) scale(0.07 -0.07)">
       <defs>
        <path id="DejaVuSerif-32" d="M 819 3553 
L 469 3553 
L 469 4384 
Q 803 4563 1142 4656 
Q 1481 4750 1806 4750 
Q 2534 4750 2956 4397 
Q 3378 4044 3378 3438 
Q 3378 2753 2422 1800 
Q 2347 1728 2309 1691 
L 1131 513 
L 3078 513 
L 3078 1088 
L 3444 1088 
L 3444 0 
L 434 0 
L 434 341 
L 1850 1753 
Q 2319 2222 2519 2614 
Q 2719 3006 2719 3438 
Q 2719 3909 2473 4175 
Q 2228 4441 1797 4441 
Q 1350 4441 1106 4219 
Q 863 3997 819 3553 
z
" transform="scale(0.015625)"/>
       </defs>
       <use xlink:href="#DejaVuSerif-32"/>
       <use xlink:href="#DejaVuSerif-30" x="63.623047"/>
      </g>
     </g>
    </g>
    <g id="xtick_7">
     <g id="line2d_13"/>
     <g id="text_7">
      <!-- 40 -->
      <g style="fill: #262626" transform="translate(119.521977 61.123857) scale(0.07 -0.07)">
       <defs>
        <path id="DejaVuSerif-34" d="M 2234 1581 
L 2234 4063 
L 641 1581 
L 2234 1581 
z
M 3609 0 
L 1484 0 
L 1484 331 
L 2234 331 
L 2234 1247 
L 197 1247 
L 197 1588 
L 2241 4750 
L 2859 4750 
L 2859 1581 
L 3750 1581 
L 3750 1247 
L 2859 1247 
L 2859 331 
L 3609 331 
L 3609 0 
z
" transform="scale(0.015625)"/>
       </defs>
       <use xlink:href="#DejaVuSerif-34"/>
       <use xlink:href="#DejaVuSerif-30" x="63.623047"/>
      </g>
     </g>
    </g>
    <g id="xtick_8">
     <g id="line2d_14"/>
     <g id="text_8">
      <!-- 60 -->
      <g style="fill: #262626" transform="translate(160.713206 61.123857) scale(0.07 -0.07)">
       <defs>
        <path id="DejaVuSerif-36" d="M 2094 219 
Q 2534 219 2771 542 
Q 3009 866 3009 1472 
Q 3009 2078 2771 2401 
Q 2534 2725 2094 2725 
Q 1647 2725 1412 2412 
Q 1178 2100 1178 1509 
Q 1178 888 1415 553 
Q 1653 219 2094 219 
z
M 1075 2569 
Q 1288 2803 1556 2918 
Q 1825 3034 2163 3034 
Q 2859 3034 3264 2615 
Q 3669 2197 3669 1472 
Q 3669 763 3233 336 
Q 2797 -91 2069 -91 
Q 1278 -91 853 498 
Q 428 1088 428 2181 
Q 428 3406 931 4078 
Q 1434 4750 2350 4750 
Q 2597 4750 2869 4703 
Q 3141 4656 3425 4563 
L 3425 3794 
L 3072 3794 
Q 3034 4109 2831 4275 
Q 2628 4441 2284 4441 
Q 1678 4441 1381 3981 
Q 1084 3522 1075 2569 
z
" transform="scale(0.015625)"/>
       </defs>
       <use xlink:href="#DejaVuSerif-36"/>
       <use xlink:href="#DejaVuSerif-30" x="63.623047"/>
      </g>
     </g>
    </g>
    <g id="text_9">
     <!-- Time [s] -->
     <g style="fill: #262626" transform="translate(90.378294 71.1387) scale(0.06 -0.06)">
      <defs>
       <path id="DejaVuSerif-54" d="M 1222 0 
L 1222 331 
L 1819 331 
L 1819 4294 
L 447 4294 
L 447 3566 
L 63 3566 
L 63 4666 
L 4206 4666 
L 4206 3566 
L 3822 3566 
L 3822 4294 
L 2450 4294 
L 2450 331 
L 3047 331 
L 3047 0 
L 1222 0 
z
" transform="scale(0.015625)"/>
       <path id="DejaVuSerif-69" d="M 622 4353 
Q 622 4497 726 4603 
Q 831 4709 978 4709 
Q 1122 4709 1226 4603 
Q 1331 4497 1331 4353 
Q 1331 4206 1228 4103 
Q 1125 4000 978 4000 
Q 831 4000 726 4103 
Q 622 4206 622 4353 
z
M 1356 331 
L 1900 331 
L 1900 0 
L 231 0 
L 231 331 
L 781 331 
L 781 2988 
L 231 2988 
L 231 3322 
L 1356 3322 
L 1356 331 
z
" transform="scale(0.015625)"/>
       <path id="DejaVuSerif-6d" d="M 3316 2675 
Q 3481 3041 3739 3227 
Q 3997 3413 4341 3413 
Q 4863 3413 5119 3089 
Q 5375 2766 5375 2113 
L 5375 331 
L 5894 331 
L 5894 0 
L 4300 0 
L 4300 331 
L 4800 331 
L 4800 2047 
Q 4800 2556 4650 2772 
Q 4500 2988 4153 2988 
Q 3769 2988 3567 2697 
Q 3366 2406 3366 1850 
L 3366 331 
L 3866 331 
L 3866 0 
L 2291 0 
L 2291 331 
L 2791 331 
L 2791 2069 
Q 2791 2566 2641 2777 
Q 2491 2988 2144 2988 
Q 1759 2988 1557 2697 
Q 1356 2406 1356 1850 
L 1356 331 
L 1856 331 
L 1856 0 
L 263 0 
L 263 331 
L 781 331 
L 781 2994 
L 231 2994 
L 231 3322 
L 1356 3322 
L 1356 2731 
Q 1516 3063 1762 3238 
Q 2009 3413 2322 3413 
Q 2709 3413 2968 3220 
Q 3228 3028 3316 2675 
z
" transform="scale(0.015625)"/>
       <path id="DejaVuSerif-73" d="M 359 184 
L 359 959 
L 691 959 
Q 703 588 923 403 
Q 1144 219 1575 219 
Q 1963 219 2166 364 
Q 2369 509 2369 788 
Q 2369 1006 2220 1140 
Q 2072 1275 1594 1428 
L 1178 1569 
Q 750 1706 558 1912 
Q 366 2119 366 2438 
Q 366 2894 700 3153 
Q 1034 3413 1625 3413 
Q 1888 3413 2178 3344 
Q 2469 3275 2778 3144 
L 2778 2419 
L 2447 2419 
Q 2434 2741 2221 2922 
Q 2009 3103 1644 3103 
Q 1281 3103 1095 2975 
Q 909 2847 909 2591 
Q 909 2381 1050 2254 
Q 1191 2128 1613 1997 
L 2069 1856 
Q 2541 1709 2748 1489 
Q 2956 1269 2956 922 
Q 2956 450 2595 179 
Q 2234 -91 1600 -91 
Q 1278 -91 972 -22 
Q 666 47 359 184 
z
" transform="scale(0.015625)"/>
      </defs>
      <use xlink:href="#DejaVuSerif-54"/>
      <use xlink:href="#DejaVuSerif-69" x="66.699219"/>
      <use xlink:href="#DejaVuSerif-6d" x="98.681641"/>
      <use xlink:href="#DejaVuSerif-65" x="193.505859"/>
      <use xlink:href="#DejaVuSerif-20" x="252.685547"/>
      <use xlink:href="#DejaVuSerif-5b" x="284.472656"/>
      <use xlink:href="#DejaVuSerif-73" x="323.486328"/>
      <use xlink:href="#DejaVuSerif-5d" x="374.804688"/>
     </g>
    </g>
   </g>
   <g id="matplotlib.axis_4">
    <g id="ytick_4">
     <g id="line2d_15"/>
     <g id="text_10">
      <!-- −25 -->
      <g style="fill: #262626" transform="translate(17.2 51.480691) scale(0.07 -0.07)">
       <defs>
        <path id="DejaVuSerif-35" d="M 3219 4666 
L 3219 4153 
L 1081 4153 
L 1081 2816 
Q 1244 2928 1461 2984 
Q 1678 3041 1947 3041 
Q 2703 3041 3140 2622 
Q 3578 2203 3578 1478 
Q 3578 738 3136 323 
Q 2694 -91 1894 -91 
Q 1572 -91 1234 -12 
Q 897 66 544 225 
L 544 1131 
L 897 1131 
Q 925 688 1179 453 
Q 1434 219 1894 219 
Q 2388 219 2653 544 
Q 2919 869 2919 1478 
Q 2919 2084 2655 2407 
Q 2391 2731 1894 2731 
Q 1613 2731 1398 2631 
Q 1184 2531 1019 2322 
L 750 2322 
L 750 4666 
L 3219 4666 
z
" transform="scale(0.015625)"/>
       </defs>
       <use xlink:href="#DejaVuSerif-2212"/>
       <use xlink:href="#DejaVuSerif-32" x="83.789062"/>
       <use xlink:href="#DejaVuSerif-35" x="147.412109"/>
      </g>
     </g>
    </g>
    <g id="ytick_5">
     <g id="line2d_16"/>
     <g id="text_11">
      <!-- 0 -->
      <g style="fill: #262626" transform="translate(27.519531 44.666416) scale(0.07 -0.07)">
       <use xlink:href="#DejaVuSerif-30"/>
      </g>
     </g>
    </g>
    <g id="ytick_6">
     <g id="line2d_17"/>
     <g id="text_12">
      <!-- 25 -->
      <g style="fill: #262626" transform="translate(23.065781 37.852141) scale(0.07 -0.07)">
       <use xlink:href="#DejaVuSerif-32"/>
       <use xlink:href="#DejaVuSerif-35" x="63.623047"/>
      </g>
     </g>
    </g>
    <g id="text_13">
     <!-- $\psi$ [deg] -->
     <g style="fill: #262626" transform="translate(11.82 52.86937) rotate(-90) scale(0.06 -0.06)">
      <defs>
       <path id="DejaVuSans-Oblique-3c8" d="M 1591 -78 
Q 891 38 616 341 
Q 278 713 425 1472 
L 819 3500 
L 1400 3500 
L 1009 1494 
Q 900 922 1119 684 
Q 1313 478 1691 434 
L 2284 3500 
L 2856 3500 
L 2263 438 
Q 2681 481 2928 688 
Q 3247 950 3353 1497 
L 3741 3500 
L 4322 3500 
L 3928 1475 
Q 3775 688 3300 344 
Q 2872 34 2163 -75 
L 1919 -1331 
L 1347 -1331 
L 1591 -78 
z
" transform="scale(0.015625)"/>
      </defs>
      <use xlink:href="#DejaVuSans-Oblique-3c8" transform="translate(0 0.015625)"/>
      <use xlink:href="#DejaVuSerif-20" transform="translate(65.966797 0.015625)"/>
      <use xlink:href="#DejaVuSerif-5b" transform="translate(97.753906 0.015625)"/>
      <use xlink:href="#DejaVuSerif-64" transform="translate(136.767578 0.015625)"/>
      <use xlink:href="#DejaVuSerif-65" transform="translate(200.78125 0.015625)"/>
      <use xlink:href="#DejaVuSerif-67" transform="translate(259.960938 0.015625)"/>
      <use xlink:href="#DejaVuSerif-5d" transform="translate(323.974609 0.015625)"/>
     </g>
    </g>
   </g>
   <g id="line2d_18">
    <path d="M 41.593268 42.006963 
L 44.517845 42.11716 
L 46.721576 42.45381 
L 49.172454 43.058771 
L 51.849884 43.954432 
L 54.712675 45.14967 
L 57.822613 46.693751 
L 64.083679 49.906569 
L 66.081454 50.534461 
L 68.30578 50.998499 
L 70.756659 51.281077 
L 73.454684 51.365029 
L 76.276283 51.230237 
L 79.180265 50.868134 
L 82.166629 50.270657 
L 85.255971 49.422144 
L 88.468887 48.304959 
L 91.970142 46.844863 
L 95.903904 44.957678 
L 100.661491 42.418213 
L 107.252088 38.624223 
L 114.234001 34.639233 
L 116.169989 33.859271 
L 118.22955 33.276039 
L 120.515664 32.863629 
L 123.06952 32.634066 
L 125.891119 32.607853 
L 128.918675 32.804476 
L 132.069804 33.233301 
L 135.262124 33.892638 
L 138.557422 34.803038 
L 141.955699 35.975034 
L 145.559931 37.458742 
L 149.411311 39.289937 
L 153.921751 41.69176 
L 160.141626 45.278078 
L 163.78705 47.456586 
L 163.78705 47.456586 
" clip-path="url(#p147fefed6c)" style="fill: none; stroke: #00bfbf; stroke-width: 0.4; stroke-linecap: round"/>
   </g>
   <g id="line2d_19">
    <path d="M 41.593268 42.006963 
L 44.641419 42.117053 
L 46.84515 42.454216 
L 49.234241 43.048304 
L 51.849884 43.933025 
L 54.712675 45.141114 
L 57.946186 46.754755 
L 63.692363 49.690783 
L 65.690137 50.342808 
L 67.935059 50.836931 
L 70.427129 51.153918 
L 73.104559 51.267821 
L 75.843775 51.162312 
L 78.562397 50.8354 
L 81.322209 50.277375 
L 84.164404 49.474047 
L 87.191959 48.38431 
L 90.590236 46.917489 
L 94.709358 44.887324 
L 100.331961 41.845977 
L 113.739706 34.497152 
L 115.716885 33.820416 
L 117.961807 33.29192 
L 120.495068 32.928442 
L 123.337263 32.752179 
L 126.40601 32.78704 
L 129.577734 33.045533 
L 132.687672 33.52258 
L 135.79761 34.226583 
L 138.98993 35.179971 
L 142.388207 36.429518 
L 146.198395 38.074992 
L 150.667644 40.257964 
L 157.134667 43.690391 
L 163.993006 47.451292 
L 163.993006 47.451292 
" clip-path="url(#p147fefed6c)" style="fill: none; stroke: #bf00bf; stroke-width: 0.4; stroke-linecap: round"/>
   </g>
   <g id="patch_6">
    <path d="M 35.473281 52.30495 
L 35.473281 31.653789 
" style="fill: none; stroke: #000000; stroke-linejoin: miter; stroke-linecap: square"/>
   </g>
   <g id="patch_7">
    <path d="M 35.473281 52.30495 
L 170.112993 52.30495 
" style="fill: none; stroke: #000000; stroke-linejoin: miter; stroke-linecap: square"/>
   </g>
   <g id="line2d_20">
    <path d="M 41.593268 42.056397 
L 44.31186 42.203418 
L 46.495027 42.572375 
L 48.904685 43.209739 
L 51.540991 44.142127 
L 54.321354 45.362584 
L 57.410756 46.970385 
L 62.477287 49.657448 
L 64.248418 50.257885 
L 66.493356 50.77577 
L 69.108985 51.14778 
L 71.807002 51.307364 
L 74.608014 51.249616 
L 77.470808 50.967258 
L 80.415977 50.452565 
L 83.525931 49.679399 
L 86.697636 48.662915 
L 89.972344 47.377678 
L 93.844341 45.605091 
L 99.013817 42.974324 
L 106.737189 38.779311 
L 113.657295 35.086947 
L 115.57271 34.345427 
L 117.549873 33.837506 
L 119.980153 33.446688 
L 122.966517 33.200159 
L 126.179445 33.154973 
L 129.454183 33.333386 
L 132.893603 33.74369 
L 136.394858 34.386147 
L 139.99909 35.274536 
L 143.582723 36.386766 
L 147.104578 37.714273 
L 150.997149 39.429927 
L 156.990473 42.34745 
L 163.993006 45.949426 
L 163.993006 45.949426 
" clip-path="url(#p147fefed6c)" style="fill: none; stroke: #000000; stroke-width: 0.7; stroke-linecap: round"/>
   </g>
  </g>
 </g>
 <defs>
  <clipPath id="pd8fa6c8326">
   <rect x="35.473281" y="8.164174" width="134.639712" height="20.651161"/>
  </clipPath>
  <clipPath id="p147fefed6c">
   <rect x="35.473281" y="31.653789" width="134.639712" height="20.651161"/>
  </clipPath>
 </defs>
</svg>
