<?xml version="1.0" encoding="utf-8" standalone="no"?>
<!DOCTYPE svg PUBLIC "-//W3C//DTD SVG 1.1//EN"
  "http://www.w3.org/Graphics/SVG/1.1/DTD/svg11.dtd">
<svg xmlns:xlink="http://www.w3.org/1999/xlink" width="388.61928pt" height="218.623104pt" viewBox="0 0 388.61928 218.623104" xmlns="http://www.w3.org/2000/svg" version="1.1">
 <metadata>
  <rdf:RDF xmlns:dc="http://purl.org/dc/elements/1.1/" xmlns:cc="http://creativecommons.org/ns#" xmlns:rdf="http://www.w3.org/1999/02/22-rdf-syntax-ns#">
   <cc:Work>
    <dc:type rdf:resource="http://purl.org/dc/dcmitype/StillImage"/>
    <dc:date>2024-11-11T10:12:51.108628</dc:date>
    <dc:format>image/svg+xml</dc:format>
    <dc:creator>
     <cc:Agent>
      <dc:title>Matplotlib v3.8.2, https://matplotlib.org/</dc:title>
     </cc:Agent>
    </dc:creator>
   </cc:Work>
  </rdf:RDF>
 </metadata>
 <defs>
  <style type="text/css">*{stroke-linejoin: round; stroke-linecap: butt}</style>
 </defs>
 <g id="figure_1">
  <g id="patch_1">
   <path d="M 0 218.623104 
L 388.61928 218.623104 
L 388.61928 0 
L 0 0 
z
" style="fill: #ffffff"/>
  </g>
  <g id="axes_1">
   <g id="patch_2">
    <path d="M 27.454928 193.590364 
L 385.61904 193.590364 
L 385.61904 28.82197 
L 27.454928 28.82197 
z
" style="fill: #ffffff"/>
   </g>
   <g id="matplotlib.axis_1">
    <g id="xtick_1">
     <g id="line2d_1">
      <path d="M 48.563167 193.590364 
L 48.563167 28.82197 
" clip-path="url(#p06b0c5dfff)" style="fill: none; stroke: #b0b0b0; stroke-width: 0.1; stroke-linecap: round"/>
     </g>
     <g id="line2d_2"/>
     <g id="text_1">
      <!-- −60 -->
      <g style="fill: #262626" transform="translate(40.121292 203.169114) scale(0.08 -0.08)">
       <defs>
        <path id="DejaVuSerif-2212" d="M 678 2259 
L 4684 2259 
L 4684 1753 
L 678 1753 
L 678 2259 
z
" transform="scale(0.015625)"/>
        <path id="DejaVuSerif-36" d="M 2094 219 
Q 2534 219 2771 542 
Q 3009 866 3009 1472 
Q 3009 2078 2771 2401 
Q 2534 2725 2094 2725 
Q 1647 2725 1412 2412 
Q 1178 2100 1178 1509 
Q 1178 888 1415 553 
Q 1653 219 2094 219 
z
M 1075 2569 
Q 1288 2803 1556 2918 
Q 1825 3034 2163 3034 
Q 2859 3034 3264 2615 
Q 3669 2197 3669 1472 
Q 3669 763 3233 336 
Q 2797 -91 2069 -91 
Q 1278 -91 853 498 
Q 428 1088 428 2181 
Q 428 3406 931 4078 
Q 1434 4750 2350 4750 
Q 2597 4750 2869 4703 
Q 3141 4656 3425 4563 
L 3425 3794 
L 3072 3794 
Q 3034 4109 2831 4275 
Q 2628 4441 2284 4441 
Q 1678 4441 1381 3981 
Q 1084 3522 1075 2569 
z
" transform="scale(0.015625)"/>
        <path id="DejaVuSerif-30" d="M 2034 219 
Q 2513 219 2750 744 
Q 2988 1269 2988 2328 
Q 2988 3391 2750 3916 
Q 2513 4441 2034 4441 
Q 1556 4441 1318 3916 
Q 1081 3391 1081 2328 
Q 1081 1269 1318 744 
Q 1556 219 2034 219 
z
M 2034 -91 
Q 1275 -91 848 546 
Q 422 1184 422 2328 
Q 422 3475 848 4112 
Q 1275 4750 2034 4750 
Q 2797 4750 3222 4112 
Q 3647 3475 3647 2328 
Q 3647 1184 3222 546 
Q 2797 -91 2034 -91 
z
" transform="scale(0.015625)"/>
       </defs>
       <use xlink:href="#DejaVuSerif-2212"/>
       <use xlink:href="#DejaVuSerif-36" x="83.789062"/>
       <use xlink:href="#DejaVuSerif-30" x="147.412109"/>
      </g>
     </g>
    </g>
    <g id="xtick_2">
     <g id="line2d_3">
      <path d="M 101.297555 193.590364 
L 101.297555 28.82197 
" clip-path="url(#p06b0c5dfff)" style="fill: none; stroke: #b0b0b0; stroke-width: 0.1; stroke-linecap: round"/>
     </g>
     <g id="line2d_4"/>
     <g id="text_2">
      <!-- −40 -->
      <g style="fill: #262626" transform="translate(92.85568 203.169114) scale(0.08 -0.08)">
       <defs>
        <path id="DejaVuSerif-34" d="M 2234 1581 
L 2234 4063 
L 641 1581 
L 2234 1581 
z
M 3609 0 
L 1484 0 
L 1484 331 
L 2234 331 
L 2234 1247 
L 197 1247 
L 197 1588 
L 2241 4750 
L 2859 4750 
L 2859 1581 
L 3750 1581 
L 3750 1247 
L 2859 1247 
L 2859 331 
L 3609 331 
L 3609 0 
z
" transform="scale(0.015625)"/>
       </defs>
       <use xlink:href="#DejaVuSerif-2212"/>
       <use xlink:href="#DejaVuSerif-34" x="83.789062"/>
       <use xlink:href="#DejaVuSerif-30" x="147.412109"/>
      </g>
     </g>
    </g>
    <g id="xtick_3">
     <g id="line2d_5">
      <path d="M 154.031943 193.590364 
L 154.031943 28.82197 
" clip-path="url(#p06b0c5dfff)" style="fill: none; stroke: #b0b0b0; stroke-width: 0.1; stroke-linecap: round"/>
     </g>
     <g id="line2d_6"/>
     <g id="text_3">
      <!-- −20 -->
      <g style="fill: #262626" transform="translate(145.590068 203.169114) scale(0.08 -0.08)">
       <defs>
        <path id="DejaVuSerif-32" d="M 819 3553 
L 469 3553 
L 469 4384 
Q 803 4563 1142 4656 
Q 1481 4750 1806 4750 
Q 2534 4750 2956 4397 
Q 3378 4044 3378 3438 
Q 3378 2753 2422 1800 
Q 2347 1728 2309 1691 
L 1131 513 
L 3078 513 
L 3078 1088 
L 3444 1088 
L 3444 0 
L 434 0 
L 434 341 
L 1850 1753 
Q 2319 2222 2519 2614 
Q 2719 3006 2719 3438 
Q 2719 3909 2473 4175 
Q 2228 4441 1797 4441 
Q 1350 4441 1106 4219 
Q 863 3997 819 3553 
z
" transform="scale(0.015625)"/>
       </defs>
       <use xlink:href="#DejaVuSerif-2212"/>
       <use xlink:href="#DejaVuSerif-32" x="83.789062"/>
       <use xlink:href="#DejaVuSerif-30" x="147.412109"/>
      </g>
     </g>
    </g>
    <g id="xtick_4">
     <g id="line2d_7">
      <path d="M 206.766331 193.590364 
L 206.766331 28.82197 
" clip-path="url(#p06b0c5dfff)" style="fill: none; stroke: #b0b0b0; stroke-width: 0.1; stroke-linecap: round"/>
     </g>
     <g id="line2d_8"/>
     <g id="text_4">
      <!-- 0 -->
      <g style="fill: #262626" transform="translate(204.221331 203.169114) scale(0.08 -0.08)">
       <use xlink:href="#DejaVuSerif-30"/>
      </g>
     </g>
    </g>
    <g id="xtick_5">
     <g id="line2d_9">
      <path d="M 259.500719 193.590364 
L 259.500719 28.82197 
" clip-path="url(#p06b0c5dfff)" style="fill: none; stroke: #b0b0b0; stroke-width: 0.1; stroke-linecap: round"/>
     </g>
     <g id="line2d_10"/>
     <g id="text_5">
      <!-- 20 -->
      <g style="fill: #262626" transform="translate(254.410719 203.169114) scale(0.08 -0.08)">
       <use xlink:href="#DejaVuSerif-32"/>
       <use xlink:href="#DejaVuSerif-30" x="63.623047"/>
      </g>
     </g>
    </g>
    <g id="xtick_6">
     <g id="line2d_11">
      <path d="M 312.235107 193.590364 
L 312.235107 28.82197 
" clip-path="url(#p06b0c5dfff)" style="fill: none; stroke: #b0b0b0; stroke-width: 0.1; stroke-linecap: round"/>
     </g>
     <g id="line2d_12"/>
     <g id="text_6">
      <!-- 40 -->
      <g style="fill: #262626" transform="translate(307.145107 203.169114) scale(0.08 -0.08)">
       <use xlink:href="#DejaVuSerif-34"/>
       <use xlink:href="#DejaVuSerif-30" x="63.623047"/>
      </g>
     </g>
    </g>
    <g id="xtick_7">
     <g id="line2d_13">
      <path d="M 364.969494 193.590364 
L 364.969494 28.82197 
" clip-path="url(#p06b0c5dfff)" style="fill: none; stroke: #b0b0b0; stroke-width: 0.1; stroke-linecap: round"/>
     </g>
     <g id="line2d_14"/>
     <g id="text_7">
      <!-- 60 -->
      <g style="fill: #262626" transform="translate(359.879494 203.169114) scale(0.08 -0.08)">
       <use xlink:href="#DejaVuSerif-36"/>
       <use xlink:href="#DejaVuSerif-30" x="63.623047"/>
      </g>
     </g>
    </g>
    <g id="text_8">
     <!-- $y_0$ $[m]$ -->
     <g style="fill: #262626" transform="translate(195.546984 214.152864) scale(0.07 -0.07)">
      <defs>
       <path id="DejaVuSans-Oblique-79" d="M 1588 -325 
Q 1188 -997 936 -1164 
Q 684 -1331 294 -1331 
L -159 -1331 
L -63 -850 
L 269 -850 
Q 509 -850 678 -719 
Q 847 -588 1056 -206 
L 1234 128 
L 459 3500 
L 1069 3500 
L 1650 819 
L 3256 3500 
L 3859 3500 
L 1588 -325 
z
" transform="scale(0.015625)"/>
       <path id="DejaVuSans-30" d="M 2034 4250 
Q 1547 4250 1301 3770 
Q 1056 3291 1056 2328 
Q 1056 1369 1301 889 
Q 1547 409 2034 409 
Q 2525 409 2770 889 
Q 3016 1369 3016 2328 
Q 3016 3291 2770 3770 
Q 2525 4250 2034 4250 
z
M 2034 4750 
Q 2819 4750 3233 4129 
Q 3647 3509 3647 2328 
Q 3647 1150 3233 529 
Q 2819 -91 2034 -91 
Q 1250 -91 836 529 
Q 422 1150 422 2328 
Q 422 3509 836 4129 
Q 1250 4750 2034 4750 
z
" transform="scale(0.015625)"/>
       <path id="DejaVuSerif-20" transform="scale(0.015625)"/>
       <path id="DejaVuSans-5b" d="M 550 4863 
L 1875 4863 
L 1875 4416 
L 1125 4416 
L 1125 -397 
L 1875 -397 
L 1875 -844 
L 550 -844 
L 550 4863 
z
" transform="scale(0.015625)"/>
       <path id="DejaVuSans-Oblique-6d" d="M 5747 2113 
L 5338 0 
L 4763 0 
L 5166 2094 
Q 5191 2228 5203 2325 
Q 5216 2422 5216 2491 
Q 5216 2772 5059 2928 
Q 4903 3084 4622 3084 
Q 4203 3084 3875 2770 
Q 3547 2456 3450 1953 
L 3066 0 
L 2491 0 
L 2900 2094 
Q 2925 2209 2937 2307 
Q 2950 2406 2950 2484 
Q 2950 2769 2794 2926 
Q 2638 3084 2363 3084 
Q 1938 3084 1609 2770 
Q 1281 2456 1184 1953 
L 800 0 
L 225 0 
L 909 3500 
L 1484 3500 
L 1375 2956 
Q 1609 3263 1923 3423 
Q 2238 3584 2597 3584 
Q 2978 3584 3223 3384 
Q 3469 3184 3519 2828 
Q 3781 3197 4126 3390 
Q 4472 3584 4856 3584 
Q 5306 3584 5551 3325 
Q 5797 3066 5797 2591 
Q 5797 2488 5784 2364 
Q 5772 2241 5747 2113 
z
" transform="scale(0.015625)"/>
       <path id="DejaVuSans-5d" d="M 1947 4863 
L 1947 -844 
L 622 -844 
L 622 -397 
L 1369 -397 
L 1369 4416 
L 622 4416 
L 622 4863 
L 1947 4863 
z
" transform="scale(0.015625)"/>
      </defs>
      <use xlink:href="#DejaVuSans-Oblique-79" transform="translate(0 0.015625)"/>
      <use xlink:href="#DejaVuSans-30" transform="translate(59.179688 -16.390625) scale(0.7)"/>
      <use xlink:href="#DejaVuSerif-20" transform="translate(106.450195 0.015625)"/>
      <use xlink:href="#DejaVuSans-5b" transform="translate(138.237305 0.015625)"/>
      <use xlink:href="#DejaVuSans-Oblique-6d" transform="translate(177.250977 0.015625)"/>
      <use xlink:href="#DejaVuSans-5d" transform="translate(274.663086 0.015625)"/>
     </g>
    </g>
   </g>
   <g id="matplotlib.axis_2">
    <g id="ytick_1">
     <g id="line2d_15">
      <path d="M 27.454928 179.795061 
L 385.61904 179.795061 
" clip-path="url(#p06b0c5dfff)" style="fill: none; stroke: #b0b0b0; stroke-width: 0.1; stroke-linecap: round"/>
     </g>
     <g id="line2d_16"/>
     <g id="text_9">
      <!-- 0 -->
      <g style="fill: #262626" transform="translate(18.864928 182.834436) scale(0.08 -0.08)">
       <use xlink:href="#DejaVuSerif-30"/>
      </g>
     </g>
    </g>
    <g id="ytick_2">
     <g id="line2d_17">
      <path d="M 27.454928 153.427867 
L 385.61904 153.427867 
" clip-path="url(#p06b0c5dfff)" style="fill: none; stroke: #b0b0b0; stroke-width: 0.1; stroke-linecap: round"/>
     </g>
     <g id="line2d_18"/>
     <g id="text_10">
      <!-- 10 -->
      <g style="fill: #262626" transform="translate(13.774928 156.467242) scale(0.08 -0.08)">
       <defs>
        <path id="DejaVuSerif-31" d="M 909 0 
L 909 331 
L 1722 331 
L 1722 4213 
L 781 3603 
L 781 4013 
L 1919 4750 
L 2350 4750 
L 2350 331 
L 3163 331 
L 3163 0 
L 909 0 
z
" transform="scale(0.015625)"/>
       </defs>
       <use xlink:href="#DejaVuSerif-31"/>
       <use xlink:href="#DejaVuSerif-30" x="63.623047"/>
      </g>
     </g>
    </g>
    <g id="ytick_3">
     <g id="line2d_19">
      <path d="M 27.454928 127.060673 
L 385.61904 127.060673 
" clip-path="url(#p06b0c5dfff)" style="fill: none; stroke: #b0b0b0; stroke-width: 0.1; stroke-linecap: round"/>
     </g>
     <g id="line2d_20"/>
     <g id="text_11">
      <!-- 20 -->
      <g style="fill: #262626" transform="translate(13.774928 130.100048) scale(0.08 -0.08)">
       <use xlink:href="#DejaVuSerif-32"/>
       <use xlink:href="#DejaVuSerif-30" x="63.623047"/>
      </g>
     </g>
    </g>
    <g id="ytick_4">
     <g id="line2d_21">
      <path d="M 27.454928 100.693479 
L 385.61904 100.693479 
" clip-path="url(#p06b0c5dfff)" style="fill: none; stroke: #b0b0b0; stroke-width: 0.1; stroke-linecap: round"/>
     </g>
     <g id="line2d_22"/>
     <g id="text_12">
      <!-- 30 -->
      <g style="fill: #262626" transform="translate(13.774928 103.732854) scale(0.08 -0.08)">
       <defs>
        <path id="DejaVuSerif-33" d="M 622 4469 
Q 988 4606 1323 4678 
Q 1659 4750 1953 4750 
Q 2638 4750 3022 4454 
Q 3406 4159 3406 3634 
Q 3406 3213 3140 2930 
Q 2875 2647 2388 2547 
Q 2963 2466 3280 2130 
Q 3597 1794 3597 1259 
Q 3597 606 3158 257 
Q 2719 -91 1894 -91 
Q 1528 -91 1179 -12 
Q 831 66 488 225 
L 488 1131 
L 838 1131 
Q 869 681 1141 450 
Q 1413 219 1906 219 
Q 2384 219 2661 495 
Q 2938 772 2938 1253 
Q 2938 1803 2653 2086 
Q 2369 2369 1819 2369 
L 1522 2369 
L 1522 2688 
L 1678 2688 
Q 2225 2688 2498 2914 
Q 2772 3141 2772 3597 
Q 2772 4006 2547 4223 
Q 2322 4441 1900 4441 
Q 1478 4441 1245 4241 
Q 1013 4041 972 3647 
L 622 3647 
L 622 4469 
z
" transform="scale(0.015625)"/>
       </defs>
       <use xlink:href="#DejaVuSerif-33"/>
       <use xlink:href="#DejaVuSerif-30" x="63.623047"/>
      </g>
     </g>
    </g>
    <g id="ytick_5">
     <g id="line2d_23">
      <path d="M 27.454928 74.326285 
L 385.61904 74.326285 
" clip-path="url(#p06b0c5dfff)" style="fill: none; stroke: #b0b0b0; stroke-width: 0.1; stroke-linecap: round"/>
     </g>
     <g id="line2d_24"/>
     <g id="text_13">
      <!-- 40 -->
      <g style="fill: #262626" transform="translate(13.774928 77.36566) scale(0.08 -0.08)">
       <use xlink:href="#DejaVuSerif-34"/>
       <use xlink:href="#DejaVuSerif-30" x="63.623047"/>
      </g>
     </g>
    </g>
    <g id="ytick_6">
     <g id="line2d_25">
      <path d="M 27.454928 47.959091 
L 385.61904 47.959091 
" clip-path="url(#p06b0c5dfff)" style="fill: none; stroke: #b0b0b0; stroke-width: 0.1; stroke-linecap: round"/>
     </g>
     <g id="line2d_26"/>
     <g id="text_14">
      <!-- 50 -->
      <g style="fill: #262626" transform="translate(13.774928 50.998466) scale(0.08 -0.08)">
       <defs>
        <path id="DejaVuSerif-35" d="M 3219 4666 
L 3219 4153 
L 1081 4153 
L 1081 2816 
Q 1244 2928 1461 2984 
Q 1678 3041 1947 3041 
Q 2703 3041 3140 2622 
Q 3578 2203 3578 1478 
Q 3578 738 3136 323 
Q 2694 -91 1894 -91 
Q 1572 -91 1234 -12 
Q 897 66 544 225 
L 544 1131 
L 897 1131 
Q 925 688 1179 453 
Q 1434 219 1894 219 
Q 2388 219 2653 544 
Q 2919 869 2919 1478 
Q 2919 2084 2655 2407 
Q 2391 2731 1894 2731 
Q 1613 2731 1398 2631 
Q 1184 2531 1019 2322 
L 750 2322 
L 750 4666 
L 3219 4666 
z
" transform="scale(0.015625)"/>
       </defs>
       <use xlink:href="#DejaVuSerif-35"/>
       <use xlink:href="#DejaVuSerif-30" x="63.623047"/>
      </g>
     </g>
    </g>
    <g id="text_15">
     <!-- $x_0$ $[m]$ -->
     <g style="fill: #262626" transform="translate(8.319146 122.196167) rotate(-90) scale(0.07 -0.07)">
      <defs>
       <path id="DejaVuSans-Oblique-78" d="M 3841 3500 
L 2234 1784 
L 3219 0 
L 2559 0 
L 1819 1388 
L 531 0 
L -166 0 
L 1556 1844 
L 641 3500 
L 1300 3500 
L 1972 2234 
L 3144 3500 
L 3841 3500 
z
" transform="scale(0.015625)"/>
      </defs>
      <use xlink:href="#DejaVuSans-Oblique-78" transform="translate(0 0.015625)"/>
      <use xlink:href="#DejaVuSans-30" transform="translate(59.179688 -16.390625) scale(0.7)"/>
      <use xlink:href="#DejaVuSerif-20" transform="translate(106.450195 0.015625)"/>
      <use xlink:href="#DejaVuSans-5b" transform="translate(138.237305 0.015625)"/>
      <use xlink:href="#DejaVuSans-Oblique-6d" transform="translate(177.250977 0.015625)"/>
      <use xlink:href="#DejaVuSans-5d" transform="translate(274.663086 0.015625)"/>
     </g>
    </g>
   </g>
   <g id="line2d_27">
    <path d="M 206.7624 178.129464 
L 206.847906 168.044901 
L 207.138178 163.899167 
L 207.601943 160.411582 
L 208.234188 157.324431 
L 209.034907 154.513656 
L 210.072845 151.699041 
L 211.588903 148.267661 
L 213.640681 144.190872 
L 221.315882 129.426788 
L 222.68094 126.040496 
L 223.665885 123.009181 
L 224.369534 120.129851 
L 224.818498 117.360447 
L 225.025795 114.704638 
L 225.004299 112.137575 
L 224.762231 109.661852 
L 224.306728 107.27716 
L 223.635521 104.960042 
L 222.593491 102.219731 
L 221.16484 99.088901 
L 219.300514 95.560986 
L 215.346864 88.706382 
L 212.634599 83.761066 
L 210.932919 80.206571 
L 209.673101 77.067225 
L 208.740712 74.153705 
L 208.071447 71.339156 
L 207.64731 68.598614 
L 207.460805 65.94901 
L 207.501355 63.370358 
L 207.759994 60.874982 
L 208.232937 58.459429 
L 208.935273 56.056627 
L 210.067853 53.034207 
L 211.629026 49.511432 
L 214.421504 43.874605 
L 215.216981 42.294087 
L 215.216981 42.294087 
" clip-path="url(#p06b0c5dfff)" style="fill: none; stroke: #000000; stroke-width: 0.4; stroke-linecap: round"/>
   </g>
   <g id="line2d_28">
    <path d="M 206.766331 179.795061 
L 206.876854 167.783812 
L 207.186216 164.189892 
L 207.666453 161.146822 
L 208.312095 158.44744 
L 209.1314 155.984212 
L 210.253983 153.339986 
L 211.788705 150.313827 
L 213.906638 146.654962 
L 217.423801 141.084819 
L 221.039132 135.239018 
L 222.873523 131.848833 
L 224.169016 129.001338 
L 225.098429 126.433694 
L 225.726913 124.053681 
L 226.092628 121.80749 
L 226.21865 119.658425 
L 226.116889 117.610371 
L 225.802046 115.685925 
L 225.292295 113.923953 
L 224.529035 112.10434 
L 223.399944 110.013127 
L 221.769024 107.482427 
L 219.316843 104.119052 
L 213.802425 96.668567 
L 212.241116 94.103411 
L 211.103815 91.813902 
L 210.284793 89.673644 
L 209.729944 87.611546 
L 209.416534 85.603004 
L 209.333874 83.63944 
L 209.474237 81.748055 
L 209.570574 81.124487 
L 209.570574 81.124487 
" clip-path="url(#p06b0c5dfff)" style="fill: none; stroke-dasharray: 1.48,0.64; stroke-dashoffset: 0; stroke: #0000ff; stroke-width: 0.4"/>
   </g>
   <g id="line2d_29">
    <path d="M 206.766331 179.795061 
L 206.876838 168.006368 
L 207.189991 164.562884 
L 207.679653 161.599897 
L 208.332061 158.982098 
L 209.16572 156.557453 
L 210.311477 153.934658 
L 211.966141 150.725158 
L 214.503045 146.330939 
L 220.245603 136.504905 
L 222.008925 132.958954 
L 223.317271 129.836243 
L 224.290791 126.942194 
L 224.980556 124.19773 
L 225.415178 121.564021 
L 225.614366 119.000069 
L 225.586744 116.505509 
L 225.339154 114.078872 
L 224.878578 111.73929 
L 224.214651 109.522011 
L 223.264007 107.151422 
L 221.852698 104.256536 
L 219.713935 100.413848 
L 214.5087 91.234195 
L 213.140541 88.257458 
L 212.174187 85.632939 
L 211.504457 83.180159 
L 211.087964 80.81691 
L 210.908761 78.531984 
L 210.95477 76.293493 
L 211.222406 74.10649 
L 211.231731 74.053559 
L 211.231731 74.053559 
" clip-path="url(#p06b0c5dfff)" style="fill: none; stroke-dasharray: 1.48,0.64; stroke-dashoffset: 0; stroke: #ff0000; stroke-width: 0.4"/>
   </g>
   <g id="line2d_30">
    <path d="M 206.762696 178.084764 
L 206.634597 168.340721 
L 206.319097 164.229051 
L 205.837599 160.77664 
L 205.20111 157.790744 
L 204.403453 155.100262 
L 203.367219 152.405364 
L 201.852415 149.120552 
L 199.934326 145.497238 
L 196.969526 140.436525 
L 192.544451 132.831594 
L 190.585385 129.005628 
L 189.158507 125.74079 
L 188.083181 122.734183 
L 187.292655 119.875541 
L 186.753213 117.099054 
L 186.454879 114.412506 
L 186.386218 111.79157 
L 186.539556 109.25322 
L 186.908127 106.798135 
L 187.488335 104.42584 
L 188.346588 101.884574 
L 189.640034 98.764263 
L 191.334991 95.268909 
L 194.703297 88.978185 
L 197.541183 83.476899 
L 199.194555 79.792027 
L 200.365644 76.653709 
L 201.200633 73.788233 
L 201.77111 71.043505 
L 202.101087 68.376002 
L 202.198285 65.785831 
L 202.070146 63.27583 
L 201.726123 60.865206 
L 201.172923 58.552515 
L 200.347126 56.096217 
L 199.074579 53.02984 
L 197.376704 49.537977 
L 193.321214 41.906338 
L 193.321214 41.906338 
" clip-path="url(#p06b0c5dfff)" style="fill: none; stroke: #000000; stroke-width: 0.4; stroke-linecap: round"/>
   </g>
   <g id="line2d_31">
    <path d="M 206.766331 179.795061 
L 206.655602 167.284274 
L 206.349764 163.428954 
L 205.880658 160.262324 
L 205.259616 157.551013 
L 204.49123 155.185284 
L 203.442437 152.697906 
L 201.96234 149.783775 
L 199.833272 146.113423 
L 193.25319 135.064125 
L 191.89541 132.169938 
L 190.918648 129.575766 
L 190.231318 127.129468 
L 189.797583 124.774091 
L 189.600486 122.491458 
L 189.630161 120.263093 
L 189.879855 118.11141 
L 190.337191 116.076317 
L 191.019522 114.08148 
L 192.016415 111.878942 
L 193.450238 109.271977 
L 195.44691 106.124713 
L 198.572786 101.658958 
L 202.386248 96.143362 
L 204.112765 93.243747 
L 205.319798 90.791951 
L 206.181552 88.546135 
L 206.757483 86.435795 
L 207.083803 84.401013 
L 207.171811 82.451408 
L 207.033929 80.594806 
L 206.96212 80.127079 
L 206.96212 80.127079 
" clip-path="url(#p06b0c5dfff)" style="fill: none; stroke-dasharray: 1.48,0.64; stroke-dashoffset: 0; stroke: #0000ff; stroke-width: 0.4"/>
   </g>
   <g id="line2d_32">
    <path d="M 206.766331 179.795061 
L 206.655575 167.361333 
L 206.344935 163.487339 
L 205.862011 160.180117 
L 205.211579 157.232534 
L 204.408639 154.6051 
L 203.354085 151.934079 
L 201.82905 148.710951 
L 199.480144 144.313157 
L 194.766614 135.570195 
L 193.289342 132.290331 
L 192.245777 129.444774 
L 191.508052 126.794061 
L 191.036051 124.279097 
L 190.802283 121.837997 
L 190.797205 119.471774 
L 191.014114 117.160329 
L 191.443991 114.943804 
L 192.080601 112.837823 
L 192.996882 110.60479 
L 194.359688 107.89709 
L 196.373208 104.42143 
L 200.50299 97.852945 
L 203.165998 93.381763 
L 204.858588 90.113523 
L 206.111582 87.218025 
L 207.045724 84.504117 
L 207.70644 81.910695 
L 208.125447 79.369947 
L 208.309111 76.902654 
L 208.267669 74.491994 
L 208.005752 72.140961 
L 207.920712 71.642124 
L 207.920712 71.642124 
" clip-path="url(#p06b0c5dfff)" style="fill: none; stroke-dasharray: 1.48,0.64; stroke-dashoffset: 0; stroke: #ff0000; stroke-width: 0.4"/>
   </g>
   <g id="patch_3">
    <path d="M 27.454928 193.590364 
L 27.454928 28.82197 
" style="fill: none; stroke: #000000; stroke-linejoin: miter; stroke-linecap: square"/>
   </g>
   <g id="patch_4">
    <path d="M 27.454927 193.590364 
L 385.61904 193.590364 
" style="fill: none; stroke: #000000; stroke-linejoin: miter; stroke-linecap: square"/>
   </g>
   <g id="text_16">
    <!-- Track plot -->
    <g style="fill: #262626" transform="translate(185.781359 22.82197) scale(0.08 -0.08)">
     <defs>
      <path id="DejaVuSerif-54" d="M 1222 0 
L 1222 331 
L 1819 331 
L 1819 4294 
L 447 4294 
L 447 3566 
L 63 3566 
L 63 4666 
L 4206 4666 
L 4206 3566 
L 3822 3566 
L 3822 4294 
L 2450 4294 
L 2450 331 
L 3047 331 
L 3047 0 
L 1222 0 
z
" transform="scale(0.015625)"/>
      <path id="DejaVuSerif-72" d="M 3059 3328 
L 3059 2497 
L 2728 2497 
Q 2713 2744 2591 2866 
Q 2469 2988 2234 2988 
Q 1809 2988 1582 2694 
Q 1356 2400 1356 1850 
L 1356 331 
L 2022 331 
L 2022 0 
L 263 0 
L 263 331 
L 781 331 
L 781 2994 
L 231 2994 
L 231 3322 
L 1356 3322 
L 1356 2731 
Q 1525 3078 1790 3245 
Q 2056 3413 2438 3413 
Q 2578 3413 2733 3391 
Q 2888 3369 3059 3328 
z
" transform="scale(0.015625)"/>
      <path id="DejaVuSerif-61" d="M 2547 1044 
L 2547 1747 
L 1806 1747 
Q 1378 1747 1168 1562 
Q 959 1378 959 997 
Q 959 650 1171 447 
Q 1384 244 1747 244 
Q 2106 244 2326 466 
Q 2547 688 2547 1044 
z
M 3122 2075 
L 3122 331 
L 3634 331 
L 3634 0 
L 2547 0 
L 2547 359 
Q 2356 128 2106 18 
Q 1856 -91 1522 -91 
Q 969 -91 644 203 
Q 319 497 319 997 
Q 319 1513 691 1797 
Q 1063 2081 1741 2081 
L 2547 2081 
L 2547 2309 
Q 2547 2688 2317 2895 
Q 2088 3103 1672 3103 
Q 1328 3103 1125 2947 
Q 922 2791 872 2484 
L 575 2484 
L 575 3156 
Q 875 3284 1158 3348 
Q 1441 3413 1709 3413 
Q 2400 3413 2761 3070 
Q 3122 2728 3122 2075 
z
" transform="scale(0.015625)"/>
      <path id="DejaVuSerif-63" d="M 3291 997 
Q 3169 466 2822 187 
Q 2475 -91 1925 -91 
Q 1200 -91 759 389 
Q 319 869 319 1663 
Q 319 2459 759 2936 
Q 1200 3413 1925 3413 
Q 2241 3413 2553 3339 
Q 2866 3266 3181 3116 
L 3181 2266 
L 2847 2266 
Q 2781 2703 2561 2903 
Q 2341 3103 1931 3103 
Q 1466 3103 1228 2742 
Q 991 2381 991 1663 
Q 991 944 1227 581 
Q 1463 219 1931 219 
Q 2303 219 2525 412 
Q 2747 606 2828 997 
L 3291 997 
z
" transform="scale(0.015625)"/>
      <path id="DejaVuSerif-6b" d="M 1831 0 
L 219 0 
L 219 331 
L 738 331 
L 738 4531 
L 184 4531 
L 184 4863 
L 1313 4863 
L 1313 1697 
L 2713 2988 
L 2234 2988 
L 2234 3322 
L 3738 3322 
L 3738 2988 
L 3169 2988 
L 2181 2075 
L 3444 331 
L 3922 331 
L 3922 0 
L 2284 0 
L 2284 331 
L 2759 331 
L 1766 1697 
L 1313 1275 
L 1313 331 
L 1831 331 
L 1831 0 
z
" transform="scale(0.015625)"/>
      <path id="DejaVuSerif-70" d="M 1313 1825 
L 1313 1497 
Q 1313 897 1542 583 
Q 1772 269 2209 269 
Q 2650 269 2876 622 
Q 3103 975 3103 1663 
Q 3103 2353 2876 2703 
Q 2650 3053 2209 3053 
Q 1772 3053 1542 2737 
Q 1313 2422 1313 1825 
z
M 738 2988 
L 184 2988 
L 184 3322 
L 1313 3322 
L 1313 2803 
Q 1481 3116 1742 3264 
Q 2003 3413 2388 3413 
Q 3000 3413 3387 2928 
Q 3775 2444 3775 1663 
Q 3775 881 3387 395 
Q 3000 -91 2388 -91 
Q 2003 -91 1742 57 
Q 1481 206 1313 519 
L 1313 -997 
L 1856 -997 
L 1856 -1331 
L 184 -1331 
L 184 -997 
L 738 -997 
L 738 2988 
z
" transform="scale(0.015625)"/>
      <path id="DejaVuSerif-6c" d="M 1313 331 
L 1856 331 
L 1856 0 
L 184 0 
L 184 331 
L 738 331 
L 738 4531 
L 184 4531 
L 184 4863 
L 1313 4863 
L 1313 331 
z
" transform="scale(0.015625)"/>
      <path id="DejaVuSerif-6f" d="M 1925 219 
Q 2388 219 2623 584 
Q 2859 950 2859 1663 
Q 2859 2375 2623 2739 
Q 2388 3103 1925 3103 
Q 1463 3103 1227 2739 
Q 991 2375 991 1663 
Q 991 950 1228 584 
Q 1466 219 1925 219 
z
M 1925 -91 
Q 1200 -91 759 389 
Q 319 869 319 1663 
Q 319 2456 758 2934 
Q 1197 3413 1925 3413 
Q 2653 3413 3092 2934 
Q 3531 2456 3531 1663 
Q 3531 869 3092 389 
Q 2653 -91 1925 -91 
z
" transform="scale(0.015625)"/>
      <path id="DejaVuSerif-74" d="M 691 2988 
L 184 2988 
L 184 3322 
L 691 3322 
L 691 4353 
L 1269 4353 
L 1269 3322 
L 2350 3322 
L 2350 2988 
L 1269 2988 
L 1269 878 
Q 1269 456 1350 337 
Q 1431 219 1650 219 
Q 1875 219 1978 351 
Q 2081 484 2088 781 
L 2522 781 
Q 2497 328 2275 118 
Q 2053 -91 1600 -91 
Q 1103 -91 897 129 
Q 691 350 691 878 
L 691 2988 
z
" transform="scale(0.015625)"/>
     </defs>
     <use xlink:href="#DejaVuSerif-54"/>
     <use xlink:href="#DejaVuSerif-72" x="66.699219"/>
     <use xlink:href="#DejaVuSerif-61" x="114.501953"/>
     <use xlink:href="#DejaVuSerif-63" x="174.121094"/>
     <use xlink:href="#DejaVuSerif-6b" x="230.126953"/>
     <use xlink:href="#DejaVuSerif-20" x="290.722656"/>
     <use xlink:href="#DejaVuSerif-70" x="322.509766"/>
     <use xlink:href="#DejaVuSerif-6c" x="386.523438"/>
     <use xlink:href="#DejaVuSerif-6f" x="418.505859"/>
     <use xlink:href="#DejaVuSerif-74" x="478.710938"/>
    </g>
   </g>
   <g id="legend_1">
    <g id="line2d_33">
     <path d="M 268.52154 39.30072 
L 276.52154 39.30072 
L 284.52154 39.30072 
" style="fill: none; stroke: #000000; stroke-width: 0.4; stroke-linecap: round"/>
    </g>
    <g id="text_17">
     <!-- Experiment -->
     <g style="fill: #262626" transform="translate(290.92154 42.10072) scale(0.08 -0.08)">
      <defs>
       <path id="DejaVuSerif-45" d="M 353 0 
L 353 331 
L 947 331 
L 947 4331 
L 353 4331 
L 353 4666 
L 4109 4666 
L 4109 3628 
L 3725 3628 
L 3725 4281 
L 1581 4281 
L 1581 2719 
L 3109 2719 
L 3109 3303 
L 3494 3303 
L 3494 1753 
L 3109 1753 
L 3109 2338 
L 1581 2338 
L 1581 384 
L 3775 384 
L 3775 1038 
L 4159 1038 
L 4159 0 
L 353 0 
z
" transform="scale(0.015625)"/>
       <path id="DejaVuSerif-78" d="M 1863 2028 
L 2559 2988 
L 2113 2988 
L 2113 3322 
L 3391 3322 
L 3391 2988 
L 2950 2988 
L 2059 1759 
L 3097 331 
L 3531 331 
L 3531 0 
L 1997 0 
L 1997 331 
L 2419 331 
L 1697 1325 
L 972 331 
L 1403 331 
L 1403 0 
L 141 0 
L 141 331 
L 581 331 
L 1497 1594 
L 488 2988 
L 78 2988 
L 78 3322 
L 1563 3322 
L 1563 2988 
L 1166 2988 
L 1863 2028 
z
" transform="scale(0.015625)"/>
       <path id="DejaVuSerif-65" d="M 3469 1600 
L 991 1600 
L 991 1575 
Q 991 903 1244 561 
Q 1497 219 1991 219 
Q 2369 219 2611 417 
Q 2853 616 2950 1006 
L 3413 1006 
Q 3275 459 2904 184 
Q 2534 -91 1931 -91 
Q 1203 -91 761 389 
Q 319 869 319 1663 
Q 319 2450 753 2931 
Q 1188 3413 1894 3413 
Q 2647 3413 3050 2948 
Q 3453 2484 3469 1600 
z
M 2791 1931 
Q 2772 2513 2545 2808 
Q 2319 3103 1894 3103 
Q 1497 3103 1269 2806 
Q 1041 2509 991 1931 
L 2791 1931 
z
" transform="scale(0.015625)"/>
       <path id="DejaVuSerif-69" d="M 622 4353 
Q 622 4497 726 4603 
Q 831 4709 978 4709 
Q 1122 4709 1226 4603 
Q 1331 4497 1331 4353 
Q 1331 4206 1228 4103 
Q 1125 4000 978 4000 
Q 831 4000 726 4103 
Q 622 4206 622 4353 
z
M 1356 331 
L 1900 331 
L 1900 0 
L 231 0 
L 231 331 
L 781 331 
L 781 2988 
L 231 2988 
L 231 3322 
L 1356 3322 
L 1356 331 
z
" transform="scale(0.015625)"/>
       <path id="DejaVuSerif-6d" d="M 3316 2675 
Q 3481 3041 3739 3227 
Q 3997 3413 4341 3413 
Q 4863 3413 5119 3089 
Q 5375 2766 5375 2113 
L 5375 331 
L 5894 331 
L 5894 0 
L 4300 0 
L 4300 331 
L 4800 331 
L 4800 2047 
Q 4800 2556 4650 2772 
Q 4500 2988 4153 2988 
Q 3769 2988 3567 2697 
Q 3366 2406 3366 1850 
L 3366 331 
L 3866 331 
L 3866 0 
L 2291 0 
L 2291 331 
L 2791 331 
L 2791 2069 
Q 2791 2566 2641 2777 
Q 2491 2988 2144 2988 
Q 1759 2988 1557 2697 
Q 1356 2406 1356 1850 
L 1356 331 
L 1856 331 
L 1856 0 
L 263 0 
L 263 331 
L 781 331 
L 781 2994 
L 231 2994 
L 231 3322 
L 1356 3322 
L 1356 2731 
Q 1516 3063 1762 3238 
Q 2009 3413 2322 3413 
Q 2709 3413 2968 3220 
Q 3228 3028 3316 2675 
z
" transform="scale(0.015625)"/>
       <path id="DejaVuSerif-6e" d="M 263 0 
L 263 331 
L 781 331 
L 781 2988 
L 231 2988 
L 231 3322 
L 1356 3322 
L 1356 2731 
Q 1516 3069 1770 3241 
Q 2025 3413 2363 3413 
Q 2913 3413 3172 3097 
Q 3431 2781 3431 2113 
L 3431 331 
L 3944 331 
L 3944 0 
L 2356 0 
L 2356 331 
L 2853 331 
L 2853 1931 
Q 2853 2541 2703 2767 
Q 2553 2994 2175 2994 
Q 1775 2994 1565 2701 
Q 1356 2409 1356 1850 
L 1356 331 
L 1856 331 
L 1856 0 
L 263 0 
z
" transform="scale(0.015625)"/>
      </defs>
      <use xlink:href="#DejaVuSerif-45"/>
      <use xlink:href="#DejaVuSerif-78" x="72.998047"/>
      <use xlink:href="#DejaVuSerif-70" x="129.394531"/>
      <use xlink:href="#DejaVuSerif-65" x="193.408203"/>
      <use xlink:href="#DejaVuSerif-72" x="252.587891"/>
      <use xlink:href="#DejaVuSerif-69" x="300.390625"/>
      <use xlink:href="#DejaVuSerif-6d" x="332.373047"/>
      <use xlink:href="#DejaVuSerif-65" x="427.197266"/>
      <use xlink:href="#DejaVuSerif-6e" x="486.376953"/>
      <use xlink:href="#DejaVuSerif-74" x="550.78125"/>
     </g>
    </g>
    <g id="line2d_34">
     <path d="M 268.52154 51.04322 
L 276.52154 51.04322 
L 284.52154 51.04322 
" style="fill: none; stroke-dasharray: 1.48,0.64; stroke-dashoffset: 0; stroke: #0000ff; stroke-width: 0.4"/>
    </g>
    <g id="text_18">
     <!-- polynomial rudder -->
     <g style="fill: #262626" transform="translate(290.92154 53.84322) scale(0.08 -0.08)">
      <defs>
       <path id="DejaVuSerif-79" d="M 1381 -609 
L 1600 -56 
L 359 2988 
L -19 2988 
L -19 3322 
L 1509 3322 
L 1509 2988 
L 978 2988 
L 1913 703 
L 2847 2988 
L 2350 2988 
L 2350 3322 
L 3597 3322 
L 3597 2988 
L 3225 2988 
L 1703 -750 
Q 1547 -1138 1356 -1280 
Q 1166 -1422 819 -1422 
Q 672 -1422 517 -1397 
Q 363 -1372 206 -1325 
L 206 -691 
L 500 -691 
Q 519 -903 608 -995 
Q 697 -1088 884 -1088 
Q 1056 -1088 1161 -992 
Q 1266 -897 1381 -609 
z
" transform="scale(0.015625)"/>
       <path id="DejaVuSerif-75" d="M 2266 3322 
L 3341 3322 
L 3341 331 
L 3884 331 
L 3884 0 
L 2766 0 
L 2766 588 
Q 2606 256 2353 82 
Q 2100 -91 1766 -91 
Q 1213 -91 952 223 
Q 691 538 691 1209 
L 691 2988 
L 172 2988 
L 172 3322 
L 1269 3322 
L 1269 1388 
Q 1269 781 1417 556 
Q 1566 331 1947 331 
Q 2347 331 2556 625 
Q 2766 919 2766 1478 
L 2766 2988 
L 2266 2988 
L 2266 3322 
z
" transform="scale(0.015625)"/>
       <path id="DejaVuSerif-64" d="M 3359 331 
L 3909 331 
L 3909 0 
L 2784 0 
L 2784 519 
Q 2616 206 2355 57 
Q 2094 -91 1709 -91 
Q 1097 -91 708 395 
Q 319 881 319 1663 
Q 319 2444 706 2928 
Q 1094 3413 1709 3413 
Q 2094 3413 2355 3264 
Q 2616 3116 2784 2803 
L 2784 4531 
L 2241 4531 
L 2241 4863 
L 3359 4863 
L 3359 331 
z
M 2784 1497 
L 2784 1825 
Q 2784 2422 2554 2737 
Q 2325 3053 1888 3053 
Q 1444 3053 1217 2703 
Q 991 2353 991 1663 
Q 991 975 1217 622 
Q 1444 269 1888 269 
Q 2325 269 2554 583 
Q 2784 897 2784 1497 
z
" transform="scale(0.015625)"/>
      </defs>
      <use xlink:href="#DejaVuSerif-70"/>
      <use xlink:href="#DejaVuSerif-6f" x="64.013672"/>
      <use xlink:href="#DejaVuSerif-6c" x="124.21875"/>
      <use xlink:href="#DejaVuSerif-79" x="156.201172"/>
      <use xlink:href="#DejaVuSerif-6e" x="212.695312"/>
      <use xlink:href="#DejaVuSerif-6f" x="277.099609"/>
      <use xlink:href="#DejaVuSerif-6d" x="337.304688"/>
      <use xlink:href="#DejaVuSerif-69" x="432.128906"/>
      <use xlink:href="#DejaVuSerif-61" x="464.111328"/>
      <use xlink:href="#DejaVuSerif-6c" x="523.730469"/>
      <use xlink:href="#DejaVuSerif-20" x="555.712891"/>
      <use xlink:href="#DejaVuSerif-72" x="587.5"/>
      <use xlink:href="#DejaVuSerif-75" x="635.302734"/>
      <use xlink:href="#DejaVuSerif-64" x="699.707031"/>
      <use xlink:href="#DejaVuSerif-64" x="763.720703"/>
      <use xlink:href="#DejaVuSerif-65" x="827.734375"/>
      <use xlink:href="#DejaVuSerif-72" x="886.914062"/>
     </g>
    </g>
    <g id="line2d_35">
     <path d="M 268.52154 62.89947 
L 276.52154 62.89947 
L 284.52154 62.89947 
" style="fill: none; stroke-dasharray: 1.48,0.64; stroke-dashoffset: 0; stroke: #ff0000; stroke-width: 0.4"/>
    </g>
    <g id="text_19">
     <!-- semiempirical rudder -->
     <g style="fill: #262626" transform="translate(290.92154 65.69947) scale(0.08 -0.08)">
      <defs>
       <path id="DejaVuSerif-73" d="M 359 184 
L 359 959 
L 691 959 
Q 703 588 923 403 
Q 1144 219 1575 219 
Q 1963 219 2166 364 
Q 2369 509 2369 788 
Q 2369 1006 2220 1140 
Q 2072 1275 1594 1428 
L 1178 1569 
Q 750 1706 558 1912 
Q 366 2119 366 2438 
Q 366 2894 700 3153 
Q 1034 3413 1625 3413 
Q 1888 3413 2178 3344 
Q 2469 3275 2778 3144 
L 2778 2419 
L 2447 2419 
Q 2434 2741 2221 2922 
Q 2009 3103 1644 3103 
Q 1281 3103 1095 2975 
Q 909 2847 909 2591 
Q 909 2381 1050 2254 
Q 1191 2128 1613 1997 
L 2069 1856 
Q 2541 1709 2748 1489 
Q 2956 1269 2956 922 
Q 2956 450 2595 179 
Q 2234 -91 1600 -91 
Q 1278 -91 972 -22 
Q 666 47 359 184 
z
" transform="scale(0.015625)"/>
      </defs>
      <use xlink:href="#DejaVuSerif-73"/>
      <use xlink:href="#DejaVuSerif-65" x="51.318359"/>
      <use xlink:href="#DejaVuSerif-6d" x="110.498047"/>
      <use xlink:href="#DejaVuSerif-69" x="205.322266"/>
      <use xlink:href="#DejaVuSerif-65" x="237.304688"/>
      <use xlink:href="#DejaVuSerif-6d" x="296.484375"/>
      <use xlink:href="#DejaVuSerif-70" x="391.308594"/>
      <use xlink:href="#DejaVuSerif-69" x="455.322266"/>
      <use xlink:href="#DejaVuSerif-72" x="487.304688"/>
      <use xlink:href="#DejaVuSerif-69" x="535.107422"/>
      <use xlink:href="#DejaVuSerif-63" x="567.089844"/>
      <use xlink:href="#DejaVuSerif-61" x="623.095703"/>
      <use xlink:href="#DejaVuSerif-6c" x="682.714844"/>
      <use xlink:href="#DejaVuSerif-20" x="714.697266"/>
      <use xlink:href="#DejaVuSerif-72" x="746.484375"/>
      <use xlink:href="#DejaVuSerif-75" x="794.287109"/>
      <use xlink:href="#DejaVuSerif-64" x="858.691406"/>
      <use xlink:href="#DejaVuSerif-64" x="922.705078"/>
      <use xlink:href="#DejaVuSerif-65" x="986.71875"/>
      <use xlink:href="#DejaVuSerif-72" x="1045.898438"/>
     </g>
    </g>
   </g>
   <g id="line2d_36">
    <path d="M 206.747625 171.82365 
L 206.167475 172.455594 
L 205.878138 173.086857 
L 205.59028 174.348701 
L 205.610965 183.17684 
L 205.699687 183.807217 
L 205.904734 184.437321 
L 207.649617 184.433233 
L 207.851709 183.802174 
L 207.937476 183.171389 
L 207.91679 174.34325 
L 207.623021 173.082769 
L 207.33073 172.452869 
L 206.747625 171.82365 
" clip-path="url(#p06b0c5dfff)" style="fill: none; stroke: #0000ff; stroke-opacity: 0.2; stroke-width: 0.4; stroke-linecap: round"/>
   </g>
   <g id="patch_5">
    <path d="M 206.747625 171.82365 
L 206.167475 172.455594 
L 205.878138 173.086857 
L 205.59028 174.348701 
L 205.610965 183.17684 
L 205.699687 183.807217 
L 205.904734 184.437321 
L 207.649617 184.433233 
L 207.851709 183.802174 
L 207.937476 183.171389 
L 207.91679 174.34325 
L 207.623021 173.082769 
L 207.33073 172.452869 
z
" clip-path="url(#p06b0c5dfff)" style="fill: #0000ff; opacity: 0.2"/>
   </g>
   <g id="line2d_37">
    <path d="M 209.278635 154.283392 
L 208.550868 154.737576 
L 208.103549 155.26872 
L 207.489356 156.407966 
L 205.153139 164.921399 
L 205.0704 165.552589 
L 205.09984 166.214563 
L 206.782522 166.676317 
L 207.145707 166.122086 
L 207.396714 165.537071 
L 209.732932 157.023637 
L 209.78623 155.730474 
L 209.672656 155.045412 
L 209.278635 154.283392 
" clip-path="url(#p06b0c5dfff)" style="fill: none; stroke: #0000ff; stroke-opacity: 0.2; stroke-width: 0.4; stroke-linecap: round"/>
   </g>
   <g id="patch_6">
    <path d="M 209.278635 154.283392 
L 208.550868 154.737576 
L 208.103549 155.26872 
L 207.489356 156.407966 
L 205.153139 164.921399 
L 205.0704 165.552589 
L 205.09984 166.214563 
L 206.782522 166.676317 
L 207.145707 166.122086 
L 207.396714 165.537071 
L 209.732932 157.023637 
L 209.78623 155.730474 
L 209.672656 155.045412 
z
" clip-path="url(#p06b0c5dfff)" style="fill: #0000ff; opacity: 0.2"/>
   </g>
   <g id="line2d_38">
    <path d="M 216.627711 139.605685 
L 215.79887 139.826929 
L 215.21566 140.203858 
L 214.294875 141.1134 
L 209.568802 148.569988 
L 209.304916 149.149307 
L 209.139282 149.790899 
L 210.613078 150.725008 
L 211.122597 150.301374 
L 211.533864 149.815466 
L 216.259936 142.358878 
L 216.689456 141.137966 
L 216.7814 140.449668 
L 216.627711 139.605685 
" clip-path="url(#p06b0c5dfff)" style="fill: none; stroke: #0000ff; stroke-opacity: 0.2; stroke-width: 0.4; stroke-linecap: round"/>
   </g>
   <g id="patch_7">
    <path d="M 216.627711 139.605685 
L 215.79887 139.826929 
L 215.21566 140.203858 
L 214.294875 141.1134 
L 209.568802 148.569988 
L 209.304916 149.149307 
L 209.139282 149.790899 
L 210.613078 150.725008 
L 211.122597 150.301374 
L 211.533864 149.815466 
L 216.259936 142.358878 
L 216.689456 141.137966 
L 216.7814 140.449668 
z
" clip-path="url(#p06b0c5dfff)" style="fill: #0000ff; opacity: 0.2"/>
   </g>
   <g id="line2d_39">
    <path d="M 223.079006 124.966996 
L 222.302029 125.330635 
L 221.794247 125.804308 
L 221.047878 126.861685 
L 217.707659 135.033551 
L 217.54983 135.650266 
L 217.49968 136.310993 
L 219.114851 136.971188 
L 219.541874 136.464506 
L 219.86122 135.913811 
L 223.201439 127.741944 
L 223.409418 126.464503 
L 223.37881 125.770765 
L 223.079006 124.966996 
" clip-path="url(#p06b0c5dfff)" style="fill: none; stroke: #0000ff; stroke-opacity: 0.2; stroke-width: 0.4; stroke-linecap: round"/>
   </g>
   <g id="patch_8">
    <path d="M 223.079006 124.966996 
L 222.302029 125.330635 
L 221.794247 125.804308 
L 221.047878 126.861685 
L 217.707659 135.033551 
L 217.54983 135.650266 
L 217.49968 136.310993 
L 219.114851 136.971188 
L 219.541874 136.464506 
L 219.86122 135.913811 
L 223.201439 127.741944 
L 223.409418 126.464503 
L 223.37881 125.770765 
z
" clip-path="url(#p06b0c5dfff)" style="fill: #0000ff; opacity: 0.2"/>
   </g>
   <g id="line2d_40">
    <path d="M 224.432074 109.733915 
L 223.904377 110.410276 
L 223.666507 111.062676 
L 223.480591 112.343515 
L 224.207961 121.141662 
L 224.346864 121.762913 
L 224.601697 122.374579 
L 226.340652 122.230814 
L 226.491575 121.585603 
L 226.526568 120.949976 
L 225.799198 112.151828 
L 225.405462 110.918911 
L 225.063681 110.314433 
L 224.432074 109.733915 
" clip-path="url(#p06b0c5dfff)" style="fill: none; stroke: #0000ff; stroke-opacity: 0.2; stroke-width: 0.4; stroke-linecap: round"/>
   </g>
   <g id="patch_9">
    <path d="M 224.432074 109.733915 
L 223.904377 110.410276 
L 223.666507 111.062676 
L 223.480591 112.343515 
L 224.207961 121.141662 
L 224.346864 121.762913 
L 224.601697 122.374579 
L 226.340652 122.230814 
L 226.491575 121.585603 
L 226.526568 120.949976 
L 225.799198 112.151828 
L 225.405462 110.918911 
L 225.063681 110.314433 
z
" clip-path="url(#p06b0c5dfff)" style="fill: #0000ff; opacity: 0.2"/>
   </g>
   <g id="line2d_41">
    <path d="M 219.390262 97.08063 
L 219.224696 97.922363 
L 219.306931 98.611889 
L 219.719205 99.838732 
L 224.339735 107.361176 
L 224.744113 107.852831 
L 225.247613 108.283603 
L 226.734425 107.370354 
L 226.577848 106.726491 
L 226.322151 106.143512 
L 221.701621 98.621067 
L 220.793744 97.69864 
L 220.215904 97.313531 
L 219.390262 97.08063 
" clip-path="url(#p06b0c5dfff)" style="fill: none; stroke: #0000ff; stroke-opacity: 0.2; stroke-width: 0.4; stroke-linecap: round"/>
   </g>
   <g id="patch_10">
    <path d="M 219.390262 97.08063 
L 219.224696 97.922363 
L 219.306931 98.611889 
L 219.719205 99.838732 
L 224.339735 107.361176 
L 224.744113 107.852831 
L 225.247613 108.283603 
L 226.734425 107.370354 
L 226.577848 106.726491 
L 226.322151 106.143512 
L 221.701621 98.621067 
L 220.793744 97.69864 
L 220.215904 97.313531 
z
" clip-path="url(#p06b0c5dfff)" style="fill: #0000ff; opacity: 0.2"/>
   </g>
   <g id="line2d_42">
    <path d="M 213.199591 85.46026 
L 213.043262 86.303758 
L 213.133051 86.992341 
L 213.558748 88.214591 
L 218.26146 95.685934 
L 218.671203 96.173126 
L 219.179394 96.598353 
L 220.656106 95.668862 
L 220.492481 95.026753 
L 220.230409 94.446612 
L 215.527698 86.975268 
L 214.609763 86.062849 
L 214.027736 85.684097 
L 213.199591 85.46026 
" clip-path="url(#p06b0c5dfff)" style="fill: none; stroke: #0000ff; stroke-opacity: 0.2; stroke-width: 0.4; stroke-linecap: round"/>
   </g>
   <g id="patch_11">
    <path d="M 213.199591 85.46026 
L 213.043262 86.303758 
L 213.133051 86.992341 
L 213.558748 88.214591 
L 218.26146 95.685934 
L 218.671203 96.173126 
L 219.179394 96.598353 
L 220.656106 95.668862 
L 220.492481 95.026753 
L 220.230409 94.446612 
L 215.527698 86.975268 
L 214.609763 86.062849 
L 214.027736 85.684097 
z
" clip-path="url(#p06b0c5dfff)" style="fill: #0000ff; opacity: 0.2"/>
   </g>
   <g id="line2d_43">
    <path d="M 208.47516 72.582552 
L 208.096843 73.352489 
L 207.997336 74.039735 
L 208.077132 75.331534 
L 210.58738 83.795287 
L 210.850327 84.375033 
L 211.224798 84.921703 
L 212.89766 84.425552 
L 212.913524 83.763114 
L 212.817863 83.133753 
L 210.307615 74.669999 
L 209.670198 73.543584 
L 209.212084 73.021722 
L 208.47516 72.582552 
" clip-path="url(#p06b0c5dfff)" style="fill: none; stroke: #0000ff; stroke-opacity: 0.2; stroke-width: 0.4; stroke-linecap: round"/>
   </g>
   <g id="patch_12">
    <path d="M 208.47516 72.582552 
L 208.096843 73.352489 
L 207.997336 74.039735 
L 208.077132 75.331534 
L 210.58738 83.795287 
L 210.850327 84.375033 
L 211.224798 84.921703 
L 212.89766 84.425552 
L 212.913524 83.763114 
L 212.817863 83.133753 
L 210.307615 74.669999 
L 209.670198 73.543584 
L 209.212084 73.021722 
z
" clip-path="url(#p06b0c5dfff)" style="fill: #0000ff; opacity: 0.2"/>
   </g>
   <g id="line2d_44">
    <path d="M 208.448049 59.291551 
L 207.774129 59.82236 
L 207.387373 60.3991 
L 206.901027 61.598508 
L 205.506758 70.315875 
L 205.493316 70.952323 
L 205.594741 71.607142 
L 207.31773 71.88272 
L 207.618336 71.292202 
L 207.804076 70.683311 
L 209.198345 61.965945 
L 209.110362 60.674677 
L 208.922788 60.006079 
L 208.448049 59.291551 
" clip-path="url(#p06b0c5dfff)" style="fill: none; stroke: #0000ff; stroke-opacity: 0.2; stroke-width: 0.4; stroke-linecap: round"/>
   </g>
   <g id="patch_13">
    <path d="M 208.448049 59.291551 
L 207.774129 59.82236 
L 207.387373 60.3991 
L 206.901027 61.598508 
L 205.506758 70.315875 
L 205.493316 70.952323 
L 205.594741 71.607142 
L 207.31773 71.88272 
L 207.618336 71.292202 
L 207.804076 70.683311 
L 209.198345 61.965945 
L 209.110362 60.674677 
L 208.922788 60.006079 
z
" clip-path="url(#p06b0c5dfff)" style="fill: #0000ff; opacity: 0.2"/>
   </g>
   <g id="line2d_45">
    <path d="M 213.076469 47.984638 
L 212.256633 48.237218 
L 211.688168 48.636037 
L 210.80261 49.579912 
L 206.363303 57.210705 
L 206.121621 57.799634 
L 205.980487 58.447057 
L 207.488715 59.324487 
L 207.981768 58.881797 
L 208.374273 58.380612 
L 212.81358 50.749818 
L 213.196396 49.513467 
L 213.262118 48.822172 
L 213.076469 47.984638 
" clip-path="url(#p06b0c5dfff)" style="fill: none; stroke: #0000ff; stroke-opacity: 0.2; stroke-width: 0.4; stroke-linecap: round"/>
   </g>
   <g id="patch_14">
    <path d="M 213.076469 47.984638 
L 212.256633 48.237218 
L 211.688168 48.636037 
L 210.80261 49.579912 
L 206.363303 57.210705 
L 206.121621 57.799634 
L 205.980487 58.447057 
L 207.488715 59.324487 
L 207.981768 58.881797 
L 208.374273 58.380612 
L 212.81358 50.749818 
L 213.196396 49.513467 
L 213.262118 48.822172 
z
" clip-path="url(#p06b0c5dfff)" style="fill: #0000ff; opacity: 0.2"/>
   </g>
   <g id="line2d_46">
    <path d="M 218.096583 36.684151 
L 217.291181 36.979539 
L 216.744499 37.40773 
L 215.909858 38.396915 
L 211.878415 46.250827 
L 211.668071 46.851661 
L 211.561215 47.505617 
L 213.113542 48.302432 
L 213.582607 47.8344 
L 213.948184 47.313247 
L 217.979627 39.459336 
L 218.296826 38.204546 
L 218.326065 37.510749 
L 218.096583 36.684151 
" clip-path="url(#p06b0c5dfff)" style="fill: none; stroke: #ff0000; stroke-opacity: 0.2; stroke-width: 0.4; stroke-linecap: round"/>
   </g>
   <g id="patch_15">
    <path d="M 218.096583 36.684151 
L 217.291181 36.979539 
L 216.744499 37.40773 
L 215.909858 38.396915 
L 211.878415 46.250827 
L 211.668071 46.851661 
L 211.561215 47.505617 
L 213.113542 48.302432 
L 213.582607 47.8344 
L 213.948184 47.313247 
L 217.979627 39.459336 
L 218.296826 38.204546 
L 218.326065 37.510749 
z
" clip-path="url(#p06b0c5dfff)" style="fill: #ff0000; opacity: 0.2"/>
   </g>
   <g id="line2d_47">
    <path d="M 206.766331 173.48923 
L 206.184702 174.119813 
L 205.893887 174.750396 
L 205.603072 176.011562 
L 205.603072 184.839725 
L 205.690317 185.470308 
L 205.893887 186.100892 
L 207.638775 186.100892 
L 207.842345 185.470308 
L 207.929589 184.839725 
L 207.929589 176.011562 
L 207.638775 174.750396 
L 207.34796 174.119813 
L 206.766331 173.48923 
" clip-path="url(#p06b0c5dfff)" style="fill: none; stroke: #0000ff; stroke-opacity: 0.2; stroke-width: 0.4; stroke-linecap: round"/>
   </g>
   <g id="patch_16">
    <path d="M 206.766331 173.48923 
L 206.184702 174.119813 
L 205.893887 174.750396 
L 205.603072 176.011562 
L 205.603072 184.839725 
L 205.690317 185.470308 
L 205.893887 186.100892 
L 207.638775 186.100892 
L 207.842345 185.470308 
L 207.929589 184.839725 
L 207.929589 176.011562 
L 207.638775 174.750396 
L 207.34796 174.119813 
z
" clip-path="url(#p06b0c5dfff)" style="fill: #0000ff; opacity: 0.2"/>
   </g>
   <g id="line2d_48">
    <path d="M 209.365087 155.837374 
L 208.625181 156.271501 
L 208.163514 156.790222 
L 207.518418 157.912258 
L 204.950424 166.35867 
L 204.850468 166.987363 
L 204.861807 167.649894 
L 206.531242 168.157458 
L 206.909437 167.613359 
L 207.176337 167.035422 
L 209.744331 158.58901 
L 209.832948 157.297786 
L 209.738137 156.609877 
L 209.365087 155.837374 
" clip-path="url(#p06b0c5dfff)" style="fill: none; stroke: #0000ff; stroke-opacity: 0.2; stroke-width: 0.4; stroke-linecap: round"/>
   </g>
   <g id="patch_17">
    <path d="M 209.365087 155.837374 
L 208.625181 156.271501 
L 208.163514 156.790222 
L 207.518418 157.912258 
L 204.950424 166.35867 
L 204.850468 166.987363 
L 204.861807 167.649894 
L 206.531242 168.157458 
L 206.909437 167.613359 
L 207.176337 167.035422 
L 209.744331 158.58901 
L 209.832948 157.297786 
L 209.738137 156.609877 
z
" clip-path="url(#p06b0c5dfff)" style="fill: #0000ff; opacity: 0.2"/>
   </g>
   <g id="line2d_49">
    <path d="M 217.589098 141.346437 
L 216.751507 141.531821 
L 216.152623 141.883313 
L 215.193564 142.752404 
L 210.151106 149.998788 
L 209.862543 150.566219 
L 209.669463 151.200093 
L 211.101712 152.196735 
L 211.628983 151.795411 
L 212.060771 151.327645 
L 217.103229 144.08126 
L 217.584872 142.879956 
L 217.706339 142.19625 
L 217.589098 141.346437 
" clip-path="url(#p06b0c5dfff)" style="fill: none; stroke: #0000ff; stroke-opacity: 0.2; stroke-width: 0.4; stroke-linecap: round"/>
   </g>
   <g id="patch_18">
    <path d="M 217.589098 141.346437 
L 216.751507 141.531821 
L 216.152623 141.883313 
L 215.193564 142.752404 
L 210.151106 149.998788 
L 209.862543 150.566219 
L 209.669463 151.200093 
L 211.101712 152.196735 
L 211.628983 151.795411 
L 212.060771 151.327645 
L 217.103229 144.08126 
L 217.584872 142.879956 
L 217.706339 142.19625 
z
" clip-path="url(#p06b0c5dfff)" style="fill: #0000ff; opacity: 0.2"/>
   </g>
   <g id="line2d_50">
    <path d="M 224.874435 126.865886 
L 224.09488 127.223968 
L 223.583728 127.694002 
L 222.829827 128.746022 
L 219.431334 136.893826 
L 219.269105 137.509398 
L 219.214238 138.16975 
L 220.824652 138.841463 
L 221.255284 138.337843 
L 221.578554 137.789443 
L 224.977046 129.641639 
L 225.194143 128.365715 
L 225.16849 127.671777 
L 224.874435 126.865886 
" clip-path="url(#p06b0c5dfff)" style="fill: none; stroke: #0000ff; stroke-opacity: 0.2; stroke-width: 0.4; stroke-linecap: round"/>
   </g>
   <g id="patch_19">
    <path d="M 224.874435 126.865886 
L 224.09488 127.223968 
L 223.583728 127.694002 
L 222.829827 128.746022 
L 219.431334 136.893826 
L 219.269105 137.509398 
L 219.214238 138.16975 
L 220.824652 138.841463 
L 221.255284 138.337843 
L 221.578554 137.789443 
L 224.977046 129.641639 
L 225.194143 128.365715 
L 225.16849 127.671777 
z
" clip-path="url(#p06b0c5dfff)" style="fill: #0000ff; opacity: 0.2"/>
   </g>
   <g id="line2d_51">
    <path d="M 224.448111 111.753562 
L 224.056829 112.516992 
L 223.945716 113.202457 
L 224.003658 114.495421 
L 226.370434 123.00041 
L 226.62354 123.58452 
L 226.988714 124.137443 
L 228.669726 123.669649 
L 228.696789 123.007574 
L 228.611784 122.376685 
L 226.245008 113.871696 
L 225.626728 112.734664 
L 225.177504 112.20513 
L 224.448111 111.753562 
" clip-path="url(#p06b0c5dfff)" style="fill: none; stroke: #0000ff; stroke-opacity: 0.2; stroke-width: 0.4; stroke-linecap: round"/>
   </g>
   <g id="patch_20">
    <path d="M 224.448111 111.753562 
L 224.056829 112.516992 
L 223.945716 113.202457 
L 224.003658 114.495421 
L 226.370434 123.00041 
L 226.62354 123.58452 
L 226.988714 124.137443 
L 228.669726 123.669649 
L 228.696789 123.007574 
L 228.611784 122.376685 
L 226.245008 113.871696 
L 225.626728 112.734664 
L 225.177504 112.20513 
z
" clip-path="url(#p06b0c5dfff)" style="fill: #0000ff; opacity: 0.2"/>
   </g>
   <g id="line2d_52">
    <path d="M 216.232081 100.561785 
L 216.190372 101.418633 
L 216.371764 102.088935 
L 216.957648 103.242994 
L 222.620544 110.015592 
L 223.091966 110.443385 
L 223.65263 110.79656 
L 224.991235 109.677288 
L 224.742913 109.062949 
L 224.40535 108.523229 
L 218.742455 101.750631 
L 217.710369 100.969663 
L 217.082775 100.672451 
L 216.232081 100.561785 
" clip-path="url(#p06b0c5dfff)" style="fill: none; stroke: #0000ff; stroke-opacity: 0.2; stroke-width: 0.4; stroke-linecap: round"/>
   </g>
   <g id="patch_21">
    <path d="M 216.232081 100.561785 
L 216.190372 101.418633 
L 216.371764 102.088935 
L 216.957648 103.242994 
L 222.620544 110.015592 
L 223.091966 110.443385 
L 223.65263 110.79656 
L 224.991235 109.677288 
L 224.742913 109.062949 
L 224.40535 108.523229 
L 218.742455 101.750631 
L 217.710369 100.969663 
L 217.082775 100.672451 
z
" clip-path="url(#p06b0c5dfff)" style="fill: #0000ff; opacity: 0.2"/>
   </g>
   <g id="line2d_53">
    <path d="M 209.884398 88.274866 
L 209.58185 89.077607 
L 209.548871 89.771235 
L 209.752483 91.04938 
L 213.064755 99.232614 
L 213.382217 99.784398 
L 213.807507 100.292536 
L 215.424924 99.637865 
L 215.377032 98.97697 
L 215.221312 98.35972 
L 211.90904 90.176486 
L 211.166289 89.116564 
L 210.660128 88.641159 
L 209.884398 88.274866 
" clip-path="url(#p06b0c5dfff)" style="fill: none; stroke: #0000ff; stroke-opacity: 0.2; stroke-width: 0.4; stroke-linecap: round"/>
   </g>
   <g id="patch_22">
    <path d="M 209.884398 88.274866 
L 209.58185 89.077607 
L 209.548871 89.771235 
L 209.752483 91.04938 
L 213.064755 99.232614 
L 213.382217 99.784398 
L 213.807507 100.292536 
L 215.424924 99.637865 
L 215.377032 98.97697 
L 215.221312 98.35972 
L 211.90904 90.176486 
L 211.166289 89.116564 
L 210.660128 88.641159 
z
" clip-path="url(#p06b0c5dfff)" style="fill: #0000ff; opacity: 0.2"/>
   </g>
   <g id="line2d_54">
    <path d="M 211.721456 75.196822 
L 210.95962 75.591198 
L 210.471157 76.084769 
L 209.767606 77.171107 
L 206.756372 85.469838 
L 206.623296 86.092363 
L 206.59957 86.754566 
L 208.239815 87.349737 
L 208.646265 86.826407 
L 208.943366 86.263399 
L 211.9546 77.964668 
L 212.111403 76.67994 
L 212.053116 75.987979 
L 211.721456 75.196822 
" clip-path="url(#p06b0c5dfff)" style="fill: none; stroke: #ff0000; stroke-opacity: 0.2; stroke-width: 0.4; stroke-linecap: round"/>
   </g>
   <g id="patch_23">
    <path d="M 211.721456 75.196822 
L 210.95962 75.591198 
L 210.471157 76.084769 
L 209.767606 77.171107 
L 206.756372 85.469838 
L 206.623296 86.092363 
L 206.59957 86.754566 
L 208.239815 87.349737 
L 208.646265 86.826407 
L 208.943366 86.263399 
L 211.9546 77.964668 
L 212.111403 76.67994 
L 212.053116 75.987979 
z
" clip-path="url(#p06b0c5dfff)" style="fill: #ff0000; opacity: 0.2"/>
   </g>
   <g id="line2d_55">
    <path d="M 206.766331 173.48923 
L 206.184702 174.119813 
L 205.893887 174.750396 
L 205.603072 176.011562 
L 205.603072 184.839725 
L 205.690317 185.470308 
L 205.893887 186.100892 
L 207.638775 186.100892 
L 207.842345 185.470308 
L 207.929589 184.839725 
L 207.929589 176.011562 
L 207.638775 174.750396 
L 207.34796 174.119813 
L 206.766331 173.48923 
" clip-path="url(#p06b0c5dfff)" style="fill: none; stroke: #0000ff; stroke-opacity: 0.2; stroke-width: 0.4; stroke-linecap: round"/>
   </g>
   <g id="patch_24">
    <path d="M 206.766331 173.48923 
L 206.184702 174.119813 
L 205.893887 174.750396 
L 205.603072 176.011562 
L 205.603072 184.839725 
L 205.690317 185.470308 
L 205.893887 186.100892 
L 207.638775 186.100892 
L 207.842345 185.470308 
L 207.929589 184.839725 
L 207.929589 176.011562 
L 207.638775 174.750396 
L 207.34796 174.119813 
z
" clip-path="url(#p06b0c5dfff)" style="fill: #0000ff; opacity: 0.2"/>
   </g>
   <g id="line2d_56">
    <path d="M 209.89877 155.298791 
L 209.137605 155.694462 
L 208.649983 156.188863 
L 207.94828 157.276395 
L 204.951159 165.580233 
L 204.819142 166.202984 
L 204.796542 166.865226 
L 206.437796 167.457608 
L 206.843356 166.933588 
L 207.139499 166.370075 
L 210.13662 158.066237 
L 210.291238 156.781244 
L 210.231775 156.089383 
L 209.89877 155.298791 
" clip-path="url(#p06b0c5dfff)" style="fill: none; stroke: #0000ff; stroke-opacity: 0.2; stroke-width: 0.4; stroke-linecap: round"/>
   </g>
   <g id="patch_25">
    <path d="M 209.89877 155.298791 
L 209.137605 155.694462 
L 208.649983 156.188863 
L 207.94828 157.276395 
L 204.951159 165.580233 
L 204.819142 166.202984 
L 204.796542 166.865226 
L 206.437796 167.457608 
L 206.843356 166.933588 
L 207.139499 166.370075 
L 210.13662 158.066237 
L 210.291238 156.781244 
L 210.231775 156.089383 
z
" clip-path="url(#p06b0c5dfff)" style="fill: #0000ff; opacity: 0.2"/>
   </g>
   <g id="line2d_57">
    <path d="M 218.373542 140.267871 
L 217.543123 140.483118 
L 216.957204 140.855822 
L 216.029868 141.758684 
L 211.250022 149.180916 
L 210.981954 149.758313 
L 210.811687 150.398692 
L 212.278693 151.343429 
L 212.791261 150.923489 
L 213.206029 150.440566 
L 217.985875 143.018334 
L 218.42421 141.800559 
L 218.521126 141.112943 
L 218.373542 140.267871 
" clip-path="url(#p06b0c5dfff)" style="fill: none; stroke: #0000ff; stroke-opacity: 0.2; stroke-width: 0.4; stroke-linecap: round"/>
   </g>
   <g id="patch_26">
    <path d="M 218.373542 140.267871 
L 217.543123 140.483118 
L 216.957204 140.855822 
L 216.029868 141.758684 
L 211.250022 149.180916 
L 210.981954 149.758313 
L 210.811687 150.398692 
L 212.278693 151.343429 
L 212.791261 150.923489 
L 213.206029 150.440566 
L 217.985875 143.018334 
L 218.42421 141.800559 
L 218.521126 141.112943 
z
" clip-path="url(#p06b0c5dfff)" style="fill: #0000ff; opacity: 0.2"/>
   </g>
   <g id="line2d_58">
    <path d="M 224.703972 124.666757 
L 223.971302 125.112989 
L 223.518225 125.63923 
L 222.891662 126.771719 
L 220.46287 135.259206 
L 220.373262 135.889458 
L 220.395492 136.551713 
L 222.073045 137.031764 
L 222.442245 136.481521 
L 222.699607 135.899274 
L 225.1284 127.411787 
L 225.195778 126.119281 
L 225.089671 125.433023 
L 224.703972 124.666757 
" clip-path="url(#p06b0c5dfff)" style="fill: none; stroke: #0000ff; stroke-opacity: 0.2; stroke-width: 0.4; stroke-linecap: round"/>
   </g>
   <g id="patch_27">
    <path d="M 224.703972 124.666757 
L 223.971302 125.112989 
L 223.518225 125.63923 
L 222.891662 126.771719 
L 220.46287 135.259206 
L 220.373262 135.889458 
L 220.395492 136.551713 
L 222.073045 137.031764 
L 222.442245 136.481521 
L 222.699607 135.899274 
L 225.1284 127.411787 
L 225.195778 126.119281 
L 225.089671 125.433023 
z
" clip-path="url(#p06b0c5dfff)" style="fill: #0000ff; opacity: 0.2"/>
   </g>
   <g id="line2d_59">
    <path d="M 223.70328 108.862601 
L 223.319166 109.629663 
L 223.214477 110.316138 
L 223.284527 111.608503 
L 225.730857 120.090951 
L 225.989423 120.672665 
L 226.359759 121.222144 
L 228.036316 120.738626 
L 228.057177 120.076326 
L 227.966267 119.446261 
L 225.519937 110.963813 
L 224.891035 109.832621 
L 224.436871 109.307318 
L 223.70328 108.862601 
" clip-path="url(#p06b0c5dfff)" style="fill: none; stroke: #0000ff; stroke-opacity: 0.2; stroke-width: 0.4; stroke-linecap: round"/>
   </g>
   <g id="patch_28">
    <path d="M 223.70328 108.862601 
L 223.319166 109.629663 
L 223.214477 110.316138 
L 223.284527 111.608503 
L 225.730857 120.090951 
L 225.989423 120.672665 
L 226.359759 121.222144 
L 228.036316 120.738626 
L 228.057177 120.076326 
L 227.966267 119.446261 
L 225.519937 110.963813 
L 224.891035 109.832621 
L 224.436871 109.307318 
z
" clip-path="url(#p06b0c5dfff)" style="fill: #0000ff; opacity: 0.2"/>
   </g>
   <g id="line2d_60">
    <path d="M 216.650096 95.799823 
L 216.507979 96.645831 
L 216.60934 97.332806 
L 217.05554 98.547721 
L 221.88328 105.938891 
L 222.301162 106.419122 
L 222.816434 106.835739 
L 224.2773 105.881535 
L 224.102896 105.242271 
L 223.831101 104.66662 
L 219.003361 97.27545 
L 218.070206 96.378602 
L 217.48189 96.009696 
L 216.650096 95.799823 
" clip-path="url(#p06b0c5dfff)" style="fill: none; stroke: #0000ff; stroke-opacity: 0.2; stroke-width: 0.4; stroke-linecap: round"/>
   </g>
   <g id="patch_29">
    <path d="M 216.650096 95.799823 
L 216.507979 96.645831 
L 216.60934 97.332806 
L 217.05554 98.547721 
L 221.88328 105.938891 
L 222.301162 106.419122 
L 222.816434 106.835739 
L 224.2773 105.881535 
L 224.102896 105.242271 
L 223.831101 104.66662 
L 219.003361 97.27545 
L 218.070206 96.378602 
L 217.48189 96.009696 
z
" clip-path="url(#p06b0c5dfff)" style="fill: #0000ff; opacity: 0.2"/>
   </g>
   <g id="line2d_61">
    <path d="M 211.355873 82.009238 
L 210.967178 82.773988 
L 210.858386 83.459826 
L 210.920706 84.752586 
L 213.316264 93.249513 
L 213.571347 93.832762 
L 213.93839 94.384445 
L 215.617809 93.910963 
L 215.64263 93.2488 
L 215.55549 92.618203 
L 213.159931 84.121276 
L 212.537805 82.986343 
L 212.086791 82.458333 
L 211.355873 82.009238 
" clip-path="url(#p06b0c5dfff)" style="fill: none; stroke: #0000ff; stroke-opacity: 0.2; stroke-width: 0.4; stroke-linecap: round"/>
   </g>
   <g id="patch_30">
    <path d="M 211.355873 82.009238 
L 210.967178 82.773988 
L 210.858386 83.459826 
L 210.920706 84.752586 
L 213.316264 93.249513 
L 213.571347 93.832762 
L 213.93839 94.384445 
L 215.617809 93.910963 
L 215.64263 93.2488 
L 215.55549 92.618203 
L 213.159931 84.121276 
L 212.537805 82.986343 
L 212.086791 82.458333 
z
" clip-path="url(#p06b0c5dfff)" style="fill: #0000ff; opacity: 0.2"/>
   </g>
   <g id="line2d_62">
    <path d="M 213.387632 68.127717 
L 212.625461 68.521448 
L 212.136581 69.014606 
L 211.432111 70.100347 
L 208.41385 78.396525 
L 208.280247 79.018937 
L 208.255961 79.68112 
L 209.895701 80.27768 
L 210.302595 79.754694 
L 210.600172 79.191938 
L 213.618432 70.89576 
L 213.776322 69.611165 
L 213.718622 68.919155 
L 213.387632 68.127717 
" clip-path="url(#p06b0c5dfff)" style="fill: none; stroke: #ff0000; stroke-opacity: 0.2; stroke-width: 0.4; stroke-linecap: round"/>
   </g>
   <g id="patch_31">
    <path d="M 213.387632 68.127717 
L 212.625461 68.521448 
L 212.136581 69.014606 
L 211.432111 70.100347 
L 208.41385 78.396525 
L 208.280247 79.018937 
L 208.255961 79.68112 
L 209.895701 80.27768 
L 210.302595 79.754694 
L 210.600172 79.191938 
L 213.618432 70.89576 
L 213.776322 69.611165 
L 213.718622 68.919155 
z
" clip-path="url(#p06b0c5dfff)" style="fill: #ff0000; opacity: 0.2"/>
   </g>
   <g id="line2d_63">
    <path d="M 206.742736 171.778965 
L 206.163105 172.411386 
L 205.874288 173.042886 
L 205.587467 174.304966 
L 205.615411 183.133085 
L 205.704651 183.763389 
L 205.910216 184.393324 
L 207.655095 184.387801 
L 207.856668 183.756577 
L 207.941916 183.125721 
L 207.913972 174.297602 
L 207.619167 173.037363 
L 207.326358 172.407703 
L 206.742736 171.778965 
" clip-path="url(#p06b0c5dfff)" style="fill: none; stroke: #0000ff; stroke-opacity: 0.2; stroke-width: 0.4; stroke-linecap: round"/>
   </g>
   <g id="patch_32">
    <path d="M 206.742736 171.778965 
L 206.163105 172.411386 
L 205.874288 173.042886 
L 205.587467 174.304966 
L 205.615411 183.133085 
L 205.704651 183.763389 
L 205.910216 184.393324 
L 207.655095 184.387801 
L 207.856668 183.756577 
L 207.941916 183.125721 
L 207.913972 174.297602 
L 207.619167 173.037363 
L 207.326358 172.407703 
z
" clip-path="url(#p06b0c5dfff)" style="fill: #0000ff; opacity: 0.2"/>
   </g>
   <g id="line2d_64">
    <path d="M 203.89463 154.108213 
L 203.520658 154.880271 
L 203.425026 155.568067 
L 203.512103 156.859396 
L 206.070016 165.308866 
L 206.336226 165.887121 
L 206.713772 166.431671 
L 208.383811 165.926099 
L 208.395941 165.263582 
L 208.296735 164.63477 
L 205.738822 156.1853 
L 205.095065 155.062495 
L 204.634018 154.543223 
L 203.89463 154.108213 
" clip-path="url(#p06b0c5dfff)" style="fill: none; stroke: #0000ff; stroke-opacity: 0.2; stroke-width: 0.4; stroke-linecap: round"/>
   </g>
   <g id="patch_33">
    <path d="M 203.89463 154.108213 
L 203.520658 154.880271 
L 203.425026 155.568067 
L 203.512103 156.859396 
L 206.070016 165.308866 
L 206.336226 165.887121 
L 206.713772 166.431671 
L 208.383811 165.926099 
L 208.395941 165.263582 
L 208.296735 164.63477 
L 205.738822 156.1853 
L 205.095065 155.062495 
L 204.634018 154.543223 
z
" clip-path="url(#p06b0c5dfff)" style="fill: #0000ff; opacity: 0.2"/>
   </g>
   <g id="line2d_65">
    <path d="M 195.995738 139.568201 
L 195.868016 140.416502 
L 195.981034 141.101655 
L 196.447811 142.308814 
L 201.400435 149.616891 
L 201.826416 150.089952 
L 202.348693 150.497754 
L 203.793135 149.518867 
L 203.607895 148.882658 
L 203.326358 148.311708 
L 198.373735 141.003632 
L 197.425477 140.122769 
L 196.830977 139.763911 
L 195.995738 139.568201 
" clip-path="url(#p06b0c5dfff)" style="fill: none; stroke: #0000ff; stroke-opacity: 0.2; stroke-width: 0.4; stroke-linecap: round"/>
   </g>
   <g id="patch_34">
    <path d="M 195.995738 139.568201 
L 195.868016 140.416502 
L 195.981034 141.101655 
L 196.447811 142.308814 
L 201.400435 149.616891 
L 201.826416 150.089952 
L 202.348693 150.497754 
L 203.793135 149.518867 
L 203.607895 148.882658 
L 203.326358 148.311708 
L 198.373735 141.003632 
L 197.425477 140.122769 
L 196.830977 139.763911 
z
" clip-path="url(#p06b0c5dfff)" style="fill: #0000ff; opacity: 0.2"/>
   </g>
   <g id="line2d_66">
    <path d="M 188.886323 125.00425 
L 188.611614 125.816939 
L 188.602556 126.511292 
L 188.850088 127.781662 
L 192.442365 135.845905 
L 192.778651 136.386422 
L 193.221197 136.879604 
L 194.815096 136.16959 
L 194.744459 135.510738 
L 194.567563 134.89922 
L 190.975287 126.834977 
L 190.196454 125.801278 
L 189.674213 125.343596 
L 188.886323 125.00425 
" clip-path="url(#p06b0c5dfff)" style="fill: none; stroke: #0000ff; stroke-opacity: 0.2; stroke-width: 0.4; stroke-linecap: round"/>
   </g>
   <g id="patch_35">
    <path d="M 188.886323 125.00425 
L 188.611614 125.816939 
L 188.602556 126.511292 
L 188.850088 127.781662 
L 192.442365 135.845905 
L 192.778651 136.386422 
L 193.221197 136.879604 
L 194.815096 136.16959 
L 194.744459 135.510738 
L 194.567563 134.89922 
L 190.975287 126.834977 
L 190.196454 125.801278 
L 189.674213 125.343596 
z
" clip-path="url(#p06b0c5dfff)" style="fill: #0000ff; opacity: 0.2"/>
   </g>
   <g id="line2d_67">
    <path d="M 186.879791 109.603998 
L 186.270032 110.207422 
L 185.950784 110.824098 
L 185.602802 112.070702 
L 185.200517 120.889695 
L 185.258936 121.523598 
L 185.43356 122.162803 
L 187.176635 122.242314 
L 187.408729 121.621663 
L 187.524617 120.99571 
L 187.926903 112.176718 
L 187.69386 110.90361 
L 187.432082 110.26043 
L 186.879791 109.603998 
" clip-path="url(#p06b0c5dfff)" style="fill: none; stroke: #0000ff; stroke-opacity: 0.2; stroke-width: 0.4; stroke-linecap: round"/>
   </g>
   <g id="patch_36">
    <path d="M 186.879791 109.603998 
L 186.270032 110.207422 
L 185.950784 110.824098 
L 185.602802 112.070702 
L 185.200517 120.889695 
L 185.258936 121.523598 
L 185.43356 122.162803 
L 187.176635 122.242314 
L 187.408729 121.621663 
L 187.524617 120.99571 
L 187.926903 112.176718 
L 187.69386 110.90361 
L 187.432082 110.26043 
z
" clip-path="url(#p06b0c5dfff)" style="fill: #0000ff; opacity: 0.2"/>
   </g>
   <g id="line2d_68">
    <path d="M 191.395033 96.62945 
L 190.577101 96.888129 
L 190.011623 97.291171 
L 189.13312 98.241616 
L 184.750775 105.905265 
L 184.513486 106.495977 
L 184.377179 107.144434 
L 185.8919 108.010605 
L 186.381642 107.564255 
L 186.770403 107.06016 
L 191.152749 99.396511 
L 191.526344 98.157342 
L 191.586915 97.465577 
L 191.395033 96.62945 
" clip-path="url(#p06b0c5dfff)" style="fill: none; stroke: #0000ff; stroke-opacity: 0.2; stroke-width: 0.4; stroke-linecap: round"/>
   </g>
   <g id="patch_37">
    <path d="M 191.395033 96.62945 
L 190.577101 96.888129 
L 190.011623 97.291171 
L 189.13312 98.241616 
L 184.750775 105.905265 
L 184.513486 106.495977 
L 184.377179 107.144434 
L 185.8919 108.010605 
L 186.381642 107.564255 
L 186.770403 107.06016 
L 191.152749 99.396511 
L 191.526344 98.157342 
L 191.586915 97.465577 
z
" clip-path="url(#p06b0c5dfff)" style="fill: #0000ff; opacity: 0.2"/>
   </g>
   <g id="line2d_69">
    <path d="M 197.233478 84.801578 
L 196.411975 85.048683 
L 195.840862 85.443699 
L 194.949027 86.381645 
L 190.458907 93.982651 
L 190.213301 94.569954 
L 190.067851 95.216421 
L 191.570191 96.103894 
L 192.066187 95.664503 
L 192.462027 95.165948 
L 196.952147 87.564942 
L 197.343202 86.331172 
L 197.413535 85.640331 
L 197.233478 84.801578 
" clip-path="url(#p06b0c5dfff)" style="fill: none; stroke: #0000ff; stroke-opacity: 0.2; stroke-width: 0.4; stroke-linecap: round"/>
   </g>
   <g id="patch_38">
    <path d="M 197.233478 84.801578 
L 196.411975 85.048683 
L 195.840862 85.443699 
L 194.949027 86.381645 
L 190.458907 93.982651 
L 190.213301 94.569954 
L 190.067851 95.216421 
L 191.570191 96.103894 
L 192.066187 95.664503 
L 192.462027 95.165948 
L 196.952147 87.564942 
L 197.343202 86.331172 
L 197.413535 85.640331 
z
" clip-path="url(#p06b0c5dfff)" style="fill: #0000ff; opacity: 0.2"/>
   </g>
   <g id="line2d_70">
    <path d="M 201.54335 71.881013 
L 200.817845 72.338801 
L 200.373165 72.872157 
L 199.764631 74.014435 
L 197.470666 82.53935 
L 197.391059 83.170943 
L 197.423782 83.832763 
L 199.108733 84.286165 
L 199.469165 83.73014 
L 199.717267 83.143887 
L 202.011232 74.618971 
L 202.058116 73.325559 
L 201.941146 72.64107 
L 201.54335 71.881013 
" clip-path="url(#p06b0c5dfff)" style="fill: none; stroke: #0000ff; stroke-opacity: 0.2; stroke-width: 0.4; stroke-linecap: round"/>
   </g>
   <g id="patch_39">
    <path d="M 201.54335 71.881013 
L 200.817845 72.338801 
L 200.373165 72.872157 
L 199.764631 74.014435 
L 197.470666 82.53935 
L 197.391059 83.170943 
L 197.423782 83.832763 
L 199.108733 84.286165 
L 199.469165 83.73014 
L 199.717267 83.143887 
L 202.011232 74.618971 
L 202.058116 73.325559 
L 201.941146 72.64107 
z
" clip-path="url(#p06b0c5dfff)" style="fill: #0000ff; opacity: 0.2"/>
   </g>
   <g id="line2d_71">
    <path d="M 200.869385 58.721778 
L 200.431326 59.459363 
L 200.277746 60.136579 
L 200.255066 61.430642 
L 202.087666 70.066499 
L 202.30391 70.665236 
L 202.633946 71.239824 
L 204.340824 70.877611 
L 204.40906 70.218506 
L 204.363504 69.583548 
L 202.530904 60.94769 
L 201.984625 59.774365 
L 201.569245 59.217887 
L 200.869385 58.721778 
" clip-path="url(#p06b0c5dfff)" style="fill: none; stroke: #0000ff; stroke-opacity: 0.2; stroke-width: 0.4; stroke-linecap: round"/>
   </g>
   <g id="patch_40">
    <path d="M 200.869385 58.721778 
L 200.431326 59.459363 
L 200.277746 60.136579 
L 200.255066 61.430642 
L 202.087666 70.066499 
L 202.30391 70.665236 
L 202.633946 71.239824 
L 204.340824 70.877611 
L 204.40906 70.218506 
L 204.363504 69.583548 
L 202.530904 60.94769 
L 201.984625 59.774365 
L 201.569245 59.217887 
z
" clip-path="url(#p06b0c5dfff)" style="fill: #0000ff; opacity: 0.2"/>
   </g>
   <g id="line2d_72">
    <path d="M 195.73067 47.645019 
L 195.569801 48.487663 
L 195.655882 49.176719 
L 196.074991 50.401244 
L 200.737406 57.8978 
L 201.14452 58.387192 
L 201.650414 58.815149 
L 203.13211 57.893622 
L 202.971944 57.250642 
L 202.713 56.669097 
L 198.050585 49.172541 
L 197.137577 48.255192 
L 196.557598 47.873312 
L 195.73067 47.645019 
" clip-path="url(#p06b0c5dfff)" style="fill: none; stroke: #0000ff; stroke-opacity: 0.2; stroke-width: 0.4; stroke-linecap: round"/>
   </g>
   <g id="patch_41">
    <path d="M 195.73067 47.645019 
L 195.569801 48.487663 
L 195.655882 49.176719 
L 196.074991 50.401244 
L 200.737406 57.8978 
L 201.14452 58.387192 
L 201.650414 58.815149 
L 203.13211 57.893622 
L 202.971944 57.250642 
L 202.713 56.669097 
L 198.050585 49.172541 
L 197.137577 48.255192 
L 196.557598 47.873312 
z
" clip-path="url(#p06b0c5dfff)" style="fill: #0000ff; opacity: 0.2"/>
   </g>
   <g id="line2d_73">
    <path d="M 190.412496 36.311442 
L 190.187313 37.139223 
L 190.220157 37.832858 
L 190.543873 39.085982 
L 194.616079 46.918836 
L 194.984359 47.438082 
L 195.45585 47.90367 
L 197.004015 47.098798 
L 196.893763 46.445406 
L 196.680299 45.845673 
L 192.608093 38.012819 
L 191.768322 37.027986 
L 191.219422 36.602641 
L 190.412496 36.311442 
" clip-path="url(#p06b0c5dfff)" style="fill: none; stroke: #ff0000; stroke-opacity: 0.2; stroke-width: 0.4; stroke-linecap: round"/>
   </g>
   <g id="patch_42">
    <path d="M 190.412496 36.311442 
L 190.187313 37.139223 
L 190.220157 37.832858 
L 190.543873 39.085982 
L 194.616079 46.918836 
L 194.984359 47.438082 
L 195.45585 47.90367 
L 197.004015 47.098798 
L 196.893763 46.445406 
L 196.680299 45.845673 
L 192.608093 38.012819 
L 191.768322 37.027986 
L 191.219422 36.602641 
z
" clip-path="url(#p06b0c5dfff)" style="fill: #ff0000; opacity: 0.2"/>
   </g>
   <g id="line2d_74">
    <path d="M 206.766331 173.48923 
L 206.184702 174.119813 
L 205.893887 174.750396 
L 205.603072 176.011562 
L 205.603072 184.839725 
L 205.690317 185.470308 
L 205.893887 186.100892 
L 207.638775 186.100892 
L 207.842345 185.470308 
L 207.929589 184.839725 
L 207.929589 176.011562 
L 207.638775 174.750396 
L 207.34796 174.119813 
L 206.766331 173.48923 
" clip-path="url(#p06b0c5dfff)" style="fill: none; stroke: #0000ff; stroke-opacity: 0.2; stroke-width: 0.4; stroke-linecap: round"/>
   </g>
   <g id="patch_43">
    <path d="M 206.766331 173.48923 
L 206.184702 174.119813 
L 205.893887 174.750396 
L 205.603072 176.011562 
L 205.603072 184.839725 
L 205.690317 185.470308 
L 205.893887 186.100892 
L 207.638775 186.100892 
L 207.842345 185.470308 
L 207.929589 184.839725 
L 207.929589 176.011562 
L 207.638775 174.750396 
L 207.34796 174.119813 
z
" clip-path="url(#p06b0c5dfff)" style="fill: #0000ff; opacity: 0.2"/>
   </g>
   <g id="line2d_75">
    <path d="M 204.53364 155.739513 
L 204.132252 156.497679 
L 204.012043 157.181607 
L 204.052805 158.475227 
L 206.306396 167.010904 
L 206.551721 167.598324 
L 206.909517 168.156049 
L 208.596595 167.710627 
L 208.63245 167.048969 
L 208.555834 166.417007 
L 206.302242 157.88133 
L 205.699121 156.736184 
L 205.25697 156.20073 
L 204.53364 155.739513 
" clip-path="url(#p06b0c5dfff)" style="fill: none; stroke: #0000ff; stroke-opacity: 0.2; stroke-width: 0.4; stroke-linecap: round"/>
   </g>
   <g id="patch_44">
    <path d="M 204.53364 155.739513 
L 204.132252 156.497679 
L 204.012043 157.181607 
L 204.052805 158.475227 
L 206.306396 167.010904 
L 206.551721 167.598324 
L 206.909517 168.156049 
L 208.596595 167.710627 
L 208.63245 167.048969 
L 208.555834 166.417007 
L 206.302242 157.88133 
L 205.699121 156.736184 
L 205.25697 156.20073 
z
" clip-path="url(#p06b0c5dfff)" style="fill: #0000ff; opacity: 0.2"/>
   </g>
   <g id="line2d_76">
    <path d="M 196.39766 141.092996 
L 196.272129 141.941624 
L 196.386917 142.626484 
L 196.85681 143.832433 
L 201.828289 151.127695 
L 202.255491 151.599655 
L 202.778819 152.006107 
L 204.220729 151.023493 
L 204.033846 150.387765 
L 203.750836 149.817544 
L 198.779356 142.522281 
L 197.828826 141.64387 
L 197.233403 141.286549 
L 196.39766 141.092996 
" clip-path="url(#p06b0c5dfff)" style="fill: none; stroke: #0000ff; stroke-opacity: 0.2; stroke-width: 0.4; stroke-linecap: round"/>
   </g>
   <g id="patch_45">
    <path d="M 196.39766 141.092996 
L 196.272129 141.941624 
L 196.386917 142.626484 
L 196.85681 143.832433 
L 201.828289 151.127695 
L 202.255491 151.599655 
L 202.778819 152.006107 
L 204.220729 151.023493 
L 204.033846 150.387765 
L 203.750836 149.817544 
L 198.779356 142.522281 
L 197.828826 141.64387 
L 197.233403 141.286549 
z
" clip-path="url(#p06b0c5dfff)" style="fill: #0000ff; opacity: 0.2"/>
   </g>
   <g id="line2d_77">
    <path d="M 190.111273 126.099032 
L 189.730737 126.867875 
L 189.629249 127.554831 
L 189.705321 128.846855 
L 192.191153 137.317811 
L 192.452427 137.898313 
L 192.82532 138.44606 
L 194.499606 137.954735 
L 194.51738 137.292345 
L 194.423535 136.662711 
L 191.937702 128.191755 
L 191.303535 127.063506 
L 190.846928 126.540325 
L 190.111273 126.099032 
" clip-path="url(#p06b0c5dfff)" style="fill: none; stroke: #0000ff; stroke-opacity: 0.2; stroke-width: 0.4; stroke-linecap: round"/>
   </g>
   <g id="patch_46">
    <path d="M 190.111273 126.099032 
L 189.730737 126.867875 
L 189.629249 127.554831 
L 189.705321 128.846855 
L 192.191153 137.317811 
L 192.452427 137.898313 
L 192.82532 138.44606 
L 194.499606 137.954735 
L 194.51738 137.292345 
L 194.423535 136.662711 
L 191.937702 128.191755 
L 191.303535 127.063506 
L 190.846928 126.540325 
z
" clip-path="url(#p06b0c5dfff)" style="fill: #0000ff; opacity: 0.2"/>
   </g>
   <g id="line2d_78">
    <path d="M 192.474635 111.290762 
L 191.696682 111.652309 
L 191.187627 112.124613 
L 190.438414 113.179977 
L 187.076212 121.342823 
L 186.916724 121.959111 
L 186.864795 122.619701 
L 188.478183 123.284241 
L 188.906569 122.77871 
L 189.227396 122.228876 
L 192.589598 114.06603 
L 192.801015 112.789153 
L 192.772274 112.095335 
L 192.474635 111.290762 
" clip-path="url(#p06b0c5dfff)" style="fill: none; stroke: #0000ff; stroke-opacity: 0.2; stroke-width: 0.4; stroke-linecap: round"/>
   </g>
   <g id="patch_47">
    <path d="M 192.474635 111.290762 
L 191.696682 111.652309 
L 191.187627 112.124613 
L 190.438414 113.179977 
L 187.076212 121.342823 
L 186.916724 121.959111 
L 186.864795 122.619701 
L 188.478183 123.284241 
L 188.906569 122.77871 
L 189.227396 122.228876 
L 192.589598 114.06603 
L 192.801015 112.789153 
L 192.772274 112.095335 
z
" clip-path="url(#p06b0c5dfff)" style="fill: #0000ff; opacity: 0.2"/>
   </g>
   <g id="line2d_79">
    <path d="M 200.243719 99.806064 
L 199.397263 99.94549 
L 198.7801 100.263796 
L 197.775069 101.079286 
L 192.344901 108.039871 
L 192.02582 108.590719 
L 191.798456 109.213119 
L 193.174217 110.286393 
L 193.722591 109.914423 
L 194.179248 109.470902 
L 199.609416 102.510318 
L 200.155861 101.33707 
L 200.314437 100.661006 
L 200.243719 99.806064 
" clip-path="url(#p06b0c5dfff)" style="fill: none; stroke: #0000ff; stroke-opacity: 0.2; stroke-width: 0.4; stroke-linecap: round"/>
   </g>
   <g id="patch_48">
    <path d="M 200.243719 99.806064 
L 199.397263 99.94549 
L 198.7801 100.263796 
L 197.775069 101.079286 
L 192.344901 108.039871 
L 192.02582 108.590719 
L 191.798456 109.213119 
L 193.174217 110.286393 
L 193.722591 109.914423 
L 194.179248 109.470902 
L 199.609416 102.510318 
L 200.155861 101.33707 
L 200.314437 100.661006 
z
" clip-path="url(#p06b0c5dfff)" style="fill: #0000ff; opacity: 0.2"/>
   </g>
   <g id="line2d_80">
    <path d="M 206.518008 87.332317 
L 205.742104 87.698241 
L 205.235718 88.173406 
L 204.492463 89.232974 
L 201.176301 97.414632 
L 201.020288 98.031808 
L 200.972082 98.692681 
L 202.589188 99.348121 
L 203.014719 98.840184 
L 203.332443 98.288552 
L 206.648604 90.106894 
L 206.852824 88.828845 
L 206.820175 88.135201 
L 206.518008 87.332317 
" clip-path="url(#p06b0c5dfff)" style="fill: none; stroke: #0000ff; stroke-opacity: 0.2; stroke-width: 0.4; stroke-linecap: round"/>
   </g>
   <g id="patch_49">
    <path d="M 206.518008 87.332317 
L 205.742104 87.698241 
L 205.235718 88.173406 
L 204.492463 89.232974 
L 201.176301 97.414632 
L 201.020288 98.031808 
L 200.972082 98.692681 
L 202.589188 99.348121 
L 203.014719 98.840184 
L 203.332443 98.288552 
L 206.648604 90.106894 
L 206.852824 88.828845 
L 206.820175 88.135201 
z
" clip-path="url(#p06b0c5dfff)" style="fill: #0000ff; opacity: 0.2"/>
   </g>
   <g id="line2d_81">
    <path d="M 204.809626 74.2 
L 204.478181 74.991247 
L 204.420083 75.683224 
L 204.577234 76.96791 
L 207.590725 85.265821 
L 207.887979 85.828748 
L 208.294571 86.351968 
L 209.934655 85.756351 
L 209.910748 85.094154 
L 209.777503 84.471665 
L 206.764013 76.173754 
L 206.060167 75.087607 
L 205.57157 74.594169 
L 204.809626 74.2 
" clip-path="url(#p06b0c5dfff)" style="fill: none; stroke: #ff0000; stroke-opacity: 0.2; stroke-width: 0.4; stroke-linecap: round"/>
   </g>
   <g id="patch_50">
    <path d="M 204.809626 74.2 
L 204.478181 74.991247 
L 204.420083 75.683224 
L 204.577234 76.96791 
L 207.590725 85.265821 
L 207.887979 85.828748 
L 208.294571 86.351968 
L 209.934655 85.756351 
L 209.910748 85.094154 
L 209.777503 84.471665 
L 206.764013 76.173754 
L 206.060167 75.087607 
L 205.57157 74.594169 
z
" clip-path="url(#p06b0c5dfff)" style="fill: #ff0000; opacity: 0.2"/>
   </g>
   <g id="line2d_82">
    <path d="M 206.766331 173.48923 
L 206.184702 174.119813 
L 205.893887 174.750396 
L 205.603072 176.011562 
L 205.603072 184.839725 
L 205.690317 185.470308 
L 205.893887 186.100892 
L 207.638775 186.100892 
L 207.842345 185.470308 
L 207.929589 184.839725 
L 207.929589 176.011562 
L 207.638775 174.750396 
L 207.34796 174.119813 
L 206.766331 173.48923 
" clip-path="url(#p06b0c5dfff)" style="fill: none; stroke: #0000ff; stroke-opacity: 0.2; stroke-width: 0.4; stroke-linecap: round"/>
   </g>
   <g id="patch_51">
    <path d="M 206.766331 173.48923 
L 206.184702 174.119813 
L 205.893887 174.750396 
L 205.603072 176.011562 
L 205.603072 184.839725 
L 205.690317 185.470308 
L 205.893887 186.100892 
L 207.638775 186.100892 
L 207.842345 185.470308 
L 207.929589 184.839725 
L 207.929589 176.011562 
L 207.638775 174.750396 
L 207.34796 174.119813 
z
" clip-path="url(#p06b0c5dfff)" style="fill: #0000ff; opacity: 0.2"/>
   </g>
   <g id="line2d_83">
    <path d="M 204.913724 156.828801 
L 204.483251 157.570839 
L 204.336625 158.249595 
L 204.327217 159.543822 
L 206.248282 168.160432 
L 206.470655 168.75692 
L 206.806565 169.328093 
L 208.50964 168.948395 
L 208.571113 168.288624 
L 208.519048 167.654167 
L 206.597983 159.037557 
L 206.039699 157.869896 
L 205.618634 157.317707 
L 204.913724 156.828801 
" clip-path="url(#p06b0c5dfff)" style="fill: none; stroke: #0000ff; stroke-opacity: 0.2; stroke-width: 0.4; stroke-linecap: round"/>
   </g>
   <g id="patch_52">
    <path d="M 204.913724 156.828801 
L 204.483251 157.570839 
L 204.336625 158.249595 
L 204.327217 159.543822 
L 206.248282 168.160432 
L 206.470655 168.75692 
L 206.806565 169.328093 
L 208.50964 168.948395 
L 208.571113 168.288624 
L 208.519048 167.654167 
L 206.597983 159.037557 
L 206.039699 157.869896 
L 205.618634 157.317707 
z
" clip-path="url(#p06b0c5dfff)" style="fill: #0000ff; opacity: 0.2"/>
   </g>
   <g id="line2d_84">
    <path d="M 198.088128 142.464769 
L 197.921713 143.306335 
L 198.003253 143.995943 
L 198.414289 145.223201 
L 203.02723 152.750301 
L 203.431113 153.242364 
L 203.934178 153.673643 
L 205.42191 152.761895 
L 205.265983 152.117874 
L 205.010874 151.534637 
L 200.397933 144.007537 
L 199.490986 143.084195 
L 198.913534 142.698503 
L 198.088128 142.464769 
" clip-path="url(#p06b0c5dfff)" style="fill: none; stroke: #0000ff; stroke-opacity: 0.2; stroke-width: 0.4; stroke-linecap: round"/>
   </g>
   <g id="patch_53">
    <path d="M 198.088128 142.464769 
L 197.921713 143.306335 
L 198.003253 143.995943 
L 198.414289 145.223201 
L 203.02723 152.750301 
L 203.431113 153.242364 
L 203.934178 153.673643 
L 205.42191 152.761895 
L 205.265983 152.117874 
L 205.010874 151.534637 
L 200.397933 144.007537 
L 199.490986 143.084195 
L 198.913534 142.698503 
z
" clip-path="url(#p06b0c5dfff)" style="fill: #0000ff; opacity: 0.2"/>
   </g>
   <g id="line2d_85">
    <path d="M 191.968908 128.287879 
L 191.637866 129.079294 
L 191.58012 129.771301 
L 191.737925 131.055907 
L 194.755639 139.352283 
L 195.053179 139.915059 
L 195.460038 140.438071 
L 197.099818 139.84162 
L 197.075575 139.179435 
L 196.942013 138.557014 
L 193.924299 130.260638 
L 193.2199 129.17485 
L 192.731052 128.68166 
L 191.968908 128.287879 
" clip-path="url(#p06b0c5dfff)" style="fill: none; stroke: #0000ff; stroke-opacity: 0.2; stroke-width: 0.4; stroke-linecap: round"/>
   </g>
   <g id="patch_54">
    <path d="M 191.968908 128.287879 
L 191.637866 129.079294 
L 191.58012 129.771301 
L 191.737925 131.055907 
L 194.755639 139.352283 
L 195.053179 139.915059 
L 195.460038 140.438071 
L 197.099818 139.84162 
L 197.075575 139.179435 
L 196.942013 138.557014 
L 193.924299 130.260638 
L 193.2199 129.17485 
L 192.731052 128.68166 
z
" clip-path="url(#p06b0c5dfff)" style="fill: #0000ff; opacity: 0.2"/>
   </g>
   <g id="line2d_86">
    <path d="M 191.994431 113.716121 
L 191.302358 114.223035 
L 190.895667 114.785895 
L 190.367668 115.967559 
L 188.669356 124.630826 
L 188.633663 125.266414 
L 188.712122 125.924381 
L 190.424419 126.260053 
L 190.745494 125.68041 
L 190.952417 125.078388 
L 192.65073 116.415121 
L 192.607963 115.121566 
L 192.443889 114.446816 
L 191.994431 113.716121 
" clip-path="url(#p06b0c5dfff)" style="fill: none; stroke: #0000ff; stroke-opacity: 0.2; stroke-width: 0.4; stroke-linecap: round"/>
   </g>
   <g id="patch_55">
    <path d="M 191.994431 113.716121 
L 191.302358 114.223035 
L 190.895667 114.785895 
L 190.367668 115.967559 
L 188.669356 124.630826 
L 188.633663 125.266414 
L 188.712122 125.924381 
L 190.424419 126.260053 
L 190.745494 125.68041 
L 190.952417 125.078388 
L 192.65073 116.415121 
L 192.607963 115.121566 
L 192.443889 114.446816 
z
" clip-path="url(#p06b0c5dfff)" style="fill: #0000ff; opacity: 0.2"/>
   </g>
   <g id="line2d_87">
    <path d="M 198.328332 102.03354 
L 197.491053 102.220334 
L 196.892762 102.572833 
L 195.935166 103.443536 
L 190.904908 110.698394 
L 190.6173 111.26631 
L 190.425287 111.900508 
L 191.859211 112.894739 
L 192.385806 112.492528 
L 192.816806 112.024036 
L 197.847065 104.769178 
L 198.326686 103.567064 
L 198.447002 102.883155 
L 198.328332 102.03354 
" clip-path="url(#p06b0c5dfff)" style="fill: none; stroke: #0000ff; stroke-opacity: 0.2; stroke-width: 0.4; stroke-linecap: round"/>
   </g>
   <g id="patch_56">
    <path d="M 198.328332 102.03354 
L 197.491053 102.220334 
L 196.892762 102.572833 
L 195.935166 103.443536 
L 190.904908 110.698394 
L 190.6173 111.26631 
L 190.425287 111.900508 
L 191.859211 112.894739 
L 192.385806 112.492528 
L 192.816806 112.024036 
L 197.847065 104.769178 
L 198.326686 103.567064 
L 198.447002 102.883155 
z
" clip-path="url(#p06b0c5dfff)" style="fill: #0000ff; opacity: 0.2"/>
   </g>
   <g id="line2d_88">
    <path d="M 204.656047 90.624967 
L 203.840145 90.88998 
L 203.277809 91.297394 
L 202.406701 92.254622 
L 198.083905 99.952017 
L 197.851203 100.544551 
L 197.719928 101.194045 
L 199.241319 102.048447 
L 199.727586 101.598313 
L 200.112427 101.091219 
L 204.435223 93.393824 
L 204.7992 92.151796 
L 204.854406 91.459581 
L 204.656047 90.624967 
" clip-path="url(#p06b0c5dfff)" style="fill: none; stroke: #0000ff; stroke-opacity: 0.2; stroke-width: 0.4; stroke-linecap: round"/>
   </g>
   <g id="patch_57">
    <path d="M 204.656047 90.624967 
L 203.840145 90.88998 
L 203.277809 91.297394 
L 202.406701 92.254622 
L 198.083905 99.952017 
L 197.851203 100.544551 
L 197.719928 101.194045 
L 199.241319 102.048447 
L 199.727586 101.598313 
L 200.112427 101.091219 
L 204.435223 93.393824 
L 204.7992 92.151796 
L 204.854406 91.459581 
z
" clip-path="url(#p06b0c5dfff)" style="fill: #0000ff; opacity: 0.2"/>
   </g>
   <g id="line2d_89">
    <path d="M 208.054078 77.992618 
L 207.386017 78.530784 
L 207.005608 79.111729 
L 206.532442 80.316398 
L 205.233832 89.048527 
L 205.227369 89.685084 
L 205.335967 90.338752 
L 207.061874 90.595423 
L 207.355987 90.001644 
L 207.53504 89.390754 
L 208.833651 80.658625 
L 208.731515 79.3684 
L 208.536622 78.701898 
L 208.054078 77.992618 
" clip-path="url(#p06b0c5dfff)" style="fill: none; stroke: #0000ff; stroke-opacity: 0.2; stroke-width: 0.4; stroke-linecap: round"/>
   </g>
   <g id="patch_58">
    <path d="M 208.054078 77.992618 
L 207.386017 78.530784 
L 207.005608 79.111729 
L 206.532442 80.316398 
L 205.233832 89.048527 
L 205.227369 89.685084 
L 205.335967 90.338752 
L 207.061874 90.595423 
L 207.355987 90.001644 
L 207.53504 89.390754 
L 208.833651 80.658625 
L 208.731515 79.3684 
L 208.536622 78.701898 
z
" clip-path="url(#p06b0c5dfff)" style="fill: #0000ff; opacity: 0.2"/>
   </g>
   <g id="line2d_90">
    <path d="M 205.766378 65.715713 
L 205.435179 66.507063 
L 205.377296 67.199059 
L 205.534846 68.483695 
L 208.550914 76.78067 
L 208.848342 77.343505 
L 209.255097 77.866598 
L 210.894995 77.270472 
L 210.870884 76.608283 
L 210.737445 75.985835 
L 207.721377 67.68886 
L 207.017194 66.602932 
L 206.528444 66.109646 
L 205.766378 65.715713 
" clip-path="url(#p06b0c5dfff)" style="fill: none; stroke: #ff0000; stroke-opacity: 0.2; stroke-width: 0.4; stroke-linecap: round"/>
   </g>
   <g id="patch_59">
    <path d="M 205.766378 65.715713 
L 205.435179 66.507063 
L 205.377296 67.199059 
L 205.534846 68.483695 
L 208.550914 76.78067 
L 208.848342 77.343505 
L 209.255097 77.866598 
L 210.894995 77.270472 
L 210.870884 76.608283 
L 210.737445 75.985835 
L 207.721377 67.68886 
L 207.017194 66.602932 
L 206.528444 66.109646 
z
" clip-path="url(#p06b0c5dfff)" style="fill: #ff0000; opacity: 0.2"/>
   </g>
  </g>
  <g id="text_20">
   <!-- zigzag 20/20 -->
   <g style="fill: #262626" transform="translate(168.510265 8.96524) scale(0.08 -0.08)">
    <defs>
     <path id="DejaVuSerif-7a" d="M 256 0 
L 256 269 
L 2338 2988 
L 691 2988 
L 691 2413 
L 359 2413 
L 359 3322 
L 3078 3322 
L 3078 3053 
L 997 331 
L 2803 331 
L 2803 934 
L 3138 934 
L 3138 0 
L 256 0 
z
" transform="scale(0.015625)"/>
     <path id="DejaVuSerif-67" d="M 3359 2988 
L 3359 72 
Q 3359 -644 2965 -1033 
Q 2572 -1422 1844 -1422 
Q 1516 -1422 1216 -1362 
Q 916 -1303 641 -1184 
L 641 -488 
L 941 -488 
Q 997 -813 1206 -963 
Q 1416 -1113 1806 -1113 
Q 2313 -1113 2548 -827 
Q 2784 -541 2784 72 
L 2784 519 
Q 2616 206 2355 57 
Q 2094 -91 1709 -91 
Q 1097 -91 708 395 
Q 319 881 319 1663 
Q 319 2444 706 2928 
Q 1094 3413 1709 3413 
Q 2094 3413 2355 3264 
Q 2616 3116 2784 2803 
L 2784 3322 
L 3909 3322 
L 3909 2988 
L 3359 2988 
z
M 2784 1825 
Q 2784 2422 2554 2737 
Q 2325 3053 1888 3053 
Q 1444 3053 1217 2703 
Q 991 2353 991 1663 
Q 991 975 1217 622 
Q 1444 269 1888 269 
Q 2325 269 2554 583 
Q 2784 897 2784 1497 
L 2784 1825 
z
" transform="scale(0.015625)"/>
     <path id="DejaVuSerif-2f" d="M 1656 4666 
L 2156 4666 
L 500 -594 
L 0 -594 
L 1656 4666 
z
" transform="scale(0.015625)"/>
    </defs>
    <use xlink:href="#DejaVuSerif-7a"/>
    <use xlink:href="#DejaVuSerif-69" x="52.685547"/>
    <use xlink:href="#DejaVuSerif-67" x="84.667969"/>
    <use xlink:href="#DejaVuSerif-7a" x="148.681641"/>
    <use xlink:href="#DejaVuSerif-61" x="201.367188"/>
    <use xlink:href="#DejaVuSerif-67" x="260.986328"/>
    <use xlink:href="#DejaVuSerif-20" x="325"/>
    <use xlink:href="#DejaVuSerif-32" x="356.787109"/>
    <use xlink:href="#DejaVuSerif-30" x="420.410156"/>
    <use xlink:href="#DejaVuSerif-2f" x="484.033203"/>
    <use xlink:href="#DejaVuSerif-32" x="517.724609"/>
    <use xlink:href="#DejaVuSerif-30" x="581.347656"/>
   </g>
  </g>
 </g>
 <defs>
  <clipPath id="p06b0c5dfff">
   <rect x="27.454928" y="28.82197" width="358.164112" height="164.768394"/>
  </clipPath>
 </defs>
</svg>
