<?xml version="1.0" encoding="utf-8" standalone="no"?>
<!DOCTYPE svg PUBLIC "-//W3C//DTD SVG 1.1//EN"
  "http://www.w3.org/Graphics/SVG/1.1/DTD/svg11.dtd">
<svg xmlns:xlink="http://www.w3.org/1999/xlink" width="388.61928pt" height="218.623104pt" viewBox="0 0 388.61928 218.623104" xmlns="http://www.w3.org/2000/svg" version="1.1">
 <metadata>
  <rdf:RDF xmlns:dc="http://purl.org/dc/elements/1.1/" xmlns:cc="http://creativecommons.org/ns#" xmlns:rdf="http://www.w3.org/1999/02/22-rdf-syntax-ns#">
   <cc:Work>
    <dc:type rdf:resource="http://purl.org/dc/dcmitype/StillImage"/>
    <dc:date>2025-04-15T09:24:05.081533</dc:date>
    <dc:format>image/svg+xml</dc:format>
    <dc:creator>
     <cc:Agent>
      <dc:title>Matplotlib v3.8.2, https://matplotlib.org/</dc:title>
     </cc:Agent>
    </dc:creator>
   </cc:Work>
  </rdf:RDF>
 </metadata>
 <defs>
  <style type="text/css">*{stroke-linejoin: round; stroke-linecap: butt}</style>
 </defs>
 <g id="figure_1">
  <g id="patch_1">
   <path d="M 0 218.623104 
L 388.61928 218.623104 
L 388.61928 0 
L 0 0 
z
" style="fill: #ffffff"/>
  </g>
  <g id="axes_1">
   <g id="patch_2">
    <path d="M 25.214615 195.528177 
L 382.335019 195.528177 
L 382.335019 27.094314 
L 25.214615 27.094314 
z
" style="fill: #ffffff"/>
   </g>
   <g id="matplotlib.axis_1">
    <g id="xtick_1">
     <g id="line2d_1">
      <path d="M 32.624511 195.528177 
L 32.624511 27.094314 
" clip-path="url(#p38557e26e2)" style="fill: none; stroke: #b0b0b0; stroke-width: 0.1; stroke-linecap: round"/>
     </g>
     <g id="line2d_2"/>
     <g id="text_1">
      <!-- −40 -->
      <g style="fill: #262626" transform="translate(25.237871 204.347083) scale(0.07 -0.07)">
       <defs>
        <path id="DejaVuSerif-2212" d="M 678 2259 
L 4684 2259 
L 4684 1753 
L 678 1753 
L 678 2259 
z
" transform="scale(0.015625)"/>
        <path id="DejaVuSerif-34" d="M 2234 1581 
L 2234 4063 
L 641 1581 
L 2234 1581 
z
M 3609 0 
L 1484 0 
L 1484 331 
L 2234 331 
L 2234 1247 
L 197 1247 
L 197 1588 
L 2241 4750 
L 2859 4750 
L 2859 1581 
L 3750 1581 
L 3750 1247 
L 2859 1247 
L 2859 331 
L 3609 331 
L 3609 0 
z
" transform="scale(0.015625)"/>
        <path id="DejaVuSerif-30" d="M 2034 219 
Q 2513 219 2750 744 
Q 2988 1269 2988 2328 
Q 2988 3391 2750 3916 
Q 2513 4441 2034 4441 
Q 1556 4441 1318 3916 
Q 1081 3391 1081 2328 
Q 1081 1269 1318 744 
Q 1556 219 2034 219 
z
M 2034 -91 
Q 1275 -91 848 546 
Q 422 1184 422 2328 
Q 422 3475 848 4112 
Q 1275 4750 2034 4750 
Q 2797 4750 3222 4112 
Q 3647 3475 3647 2328 
Q 3647 1184 3222 546 
Q 2797 -91 2034 -91 
z
" transform="scale(0.015625)"/>
       </defs>
       <use xlink:href="#DejaVuSerif-2212"/>
       <use xlink:href="#DejaVuSerif-34" x="83.789062"/>
       <use xlink:href="#DejaVuSerif-30" x="147.412109"/>
      </g>
     </g>
    </g>
    <g id="xtick_2">
     <g id="line2d_3">
      <path d="M 76.39736 195.528177 
L 76.39736 27.094314 
" clip-path="url(#p38557e26e2)" style="fill: none; stroke: #b0b0b0; stroke-width: 0.1; stroke-linecap: round"/>
     </g>
     <g id="line2d_4"/>
     <g id="text_2">
      <!-- −30 -->
      <g style="fill: #262626" transform="translate(69.010719 204.347083) scale(0.07 -0.07)">
       <defs>
        <path id="DejaVuSerif-33" d="M 622 4469 
Q 988 4606 1323 4678 
Q 1659 4750 1953 4750 
Q 2638 4750 3022 4454 
Q 3406 4159 3406 3634 
Q 3406 3213 3140 2930 
Q 2875 2647 2388 2547 
Q 2963 2466 3280 2130 
Q 3597 1794 3597 1259 
Q 3597 606 3158 257 
Q 2719 -91 1894 -91 
Q 1528 -91 1179 -12 
Q 831 66 488 225 
L 488 1131 
L 838 1131 
Q 869 681 1141 450 
Q 1413 219 1906 219 
Q 2384 219 2661 495 
Q 2938 772 2938 1253 
Q 2938 1803 2653 2086 
Q 2369 2369 1819 2369 
L 1522 2369 
L 1522 2688 
L 1678 2688 
Q 2225 2688 2498 2914 
Q 2772 3141 2772 3597 
Q 2772 4006 2547 4223 
Q 2322 4441 1900 4441 
Q 1478 4441 1245 4241 
Q 1013 4041 972 3647 
L 622 3647 
L 622 4469 
z
" transform="scale(0.015625)"/>
       </defs>
       <use xlink:href="#DejaVuSerif-2212"/>
       <use xlink:href="#DejaVuSerif-33" x="83.789062"/>
       <use xlink:href="#DejaVuSerif-30" x="147.412109"/>
      </g>
     </g>
    </g>
    <g id="xtick_3">
     <g id="line2d_5">
      <path d="M 120.170209 195.528177 
L 120.170209 27.094314 
" clip-path="url(#p38557e26e2)" style="fill: none; stroke: #b0b0b0; stroke-width: 0.1; stroke-linecap: round"/>
     </g>
     <g id="line2d_6"/>
     <g id="text_3">
      <!-- −20 -->
      <g style="fill: #262626" transform="translate(112.783568 204.347083) scale(0.07 -0.07)">
       <defs>
        <path id="DejaVuSerif-32" d="M 819 3553 
L 469 3553 
L 469 4384 
Q 803 4563 1142 4656 
Q 1481 4750 1806 4750 
Q 2534 4750 2956 4397 
Q 3378 4044 3378 3438 
Q 3378 2753 2422 1800 
Q 2347 1728 2309 1691 
L 1131 513 
L 3078 513 
L 3078 1088 
L 3444 1088 
L 3444 0 
L 434 0 
L 434 341 
L 1850 1753 
Q 2319 2222 2519 2614 
Q 2719 3006 2719 3438 
Q 2719 3909 2473 4175 
Q 2228 4441 1797 4441 
Q 1350 4441 1106 4219 
Q 863 3997 819 3553 
z
" transform="scale(0.015625)"/>
       </defs>
       <use xlink:href="#DejaVuSerif-2212"/>
       <use xlink:href="#DejaVuSerif-32" x="83.789062"/>
       <use xlink:href="#DejaVuSerif-30" x="147.412109"/>
      </g>
     </g>
    </g>
    <g id="xtick_4">
     <g id="line2d_7">
      <path d="M 163.943057 195.528177 
L 163.943057 27.094314 
" clip-path="url(#p38557e26e2)" style="fill: none; stroke: #b0b0b0; stroke-width: 0.1; stroke-linecap: round"/>
     </g>
     <g id="line2d_8"/>
     <g id="text_4">
      <!-- −10 -->
      <g style="fill: #262626" transform="translate(156.556417 204.347083) scale(0.07 -0.07)">
       <defs>
        <path id="DejaVuSerif-31" d="M 909 0 
L 909 331 
L 1722 331 
L 1722 4213 
L 781 3603 
L 781 4013 
L 1919 4750 
L 2350 4750 
L 2350 331 
L 3163 331 
L 3163 0 
L 909 0 
z
" transform="scale(0.015625)"/>
       </defs>
       <use xlink:href="#DejaVuSerif-2212"/>
       <use xlink:href="#DejaVuSerif-31" x="83.789062"/>
       <use xlink:href="#DejaVuSerif-30" x="147.412109"/>
      </g>
     </g>
    </g>
    <g id="xtick_5">
     <g id="line2d_9">
      <path d="M 207.715906 195.528177 
L 207.715906 27.094314 
" clip-path="url(#p38557e26e2)" style="fill: none; stroke: #b0b0b0; stroke-width: 0.1; stroke-linecap: round"/>
     </g>
     <g id="line2d_10"/>
     <g id="text_5">
      <!-- 0 -->
      <g style="fill: #262626" transform="translate(205.489031 204.347083) scale(0.07 -0.07)">
       <use xlink:href="#DejaVuSerif-30"/>
      </g>
     </g>
    </g>
    <g id="xtick_6">
     <g id="line2d_11">
      <path d="M 251.488755 195.528177 
L 251.488755 27.094314 
" clip-path="url(#p38557e26e2)" style="fill: none; stroke: #b0b0b0; stroke-width: 0.1; stroke-linecap: round"/>
     </g>
     <g id="line2d_12"/>
     <g id="text_6">
      <!-- 10 -->
      <g style="fill: #262626" transform="translate(247.035005 204.347083) scale(0.07 -0.07)">
       <use xlink:href="#DejaVuSerif-31"/>
       <use xlink:href="#DejaVuSerif-30" x="63.623047"/>
      </g>
     </g>
    </g>
    <g id="xtick_7">
     <g id="line2d_13">
      <path d="M 295.261603 195.528177 
L 295.261603 27.094314 
" clip-path="url(#p38557e26e2)" style="fill: none; stroke: #b0b0b0; stroke-width: 0.1; stroke-linecap: round"/>
     </g>
     <g id="line2d_14"/>
     <g id="text_7">
      <!-- 20 -->
      <g style="fill: #262626" transform="translate(290.807853 204.347083) scale(0.07 -0.07)">
       <use xlink:href="#DejaVuSerif-32"/>
       <use xlink:href="#DejaVuSerif-30" x="63.623047"/>
      </g>
     </g>
    </g>
    <g id="xtick_8">
     <g id="line2d_15">
      <path d="M 339.034452 195.528177 
L 339.034452 27.094314 
" clip-path="url(#p38557e26e2)" style="fill: none; stroke: #b0b0b0; stroke-width: 0.1; stroke-linecap: round"/>
     </g>
     <g id="line2d_16"/>
     <g id="text_8">
      <!-- 30 -->
      <g style="fill: #262626" transform="translate(334.580702 204.347083) scale(0.07 -0.07)">
       <use xlink:href="#DejaVuSerif-33"/>
       <use xlink:href="#DejaVuSerif-30" x="63.623047"/>
      </g>
     </g>
    </g>
    <g id="text_9">
     <!-- $y_0$ $[m]$ -->
     <g style="fill: #262626" transform="translate(194.354817 214.362864) scale(0.06 -0.06)">
      <defs>
       <path id="DejaVuSans-Oblique-79" d="M 1588 -325 
Q 1188 -997 936 -1164 
Q 684 -1331 294 -1331 
L -159 -1331 
L -63 -850 
L 269 -850 
Q 509 -850 678 -719 
Q 847 -588 1056 -206 
L 1234 128 
L 459 3500 
L 1069 3500 
L 1650 819 
L 3256 3500 
L 3859 3500 
L 1588 -325 
z
" transform="scale(0.015625)"/>
       <path id="DejaVuSans-30" d="M 2034 4250 
Q 1547 4250 1301 3770 
Q 1056 3291 1056 2328 
Q 1056 1369 1301 889 
Q 1547 409 2034 409 
Q 2525 409 2770 889 
Q 3016 1369 3016 2328 
Q 3016 3291 2770 3770 
Q 2525 4250 2034 4250 
z
M 2034 4750 
Q 2819 4750 3233 4129 
Q 3647 3509 3647 2328 
Q 3647 1150 3233 529 
Q 2819 -91 2034 -91 
Q 1250 -91 836 529 
Q 422 1150 422 2328 
Q 422 3509 836 4129 
Q 1250 4750 2034 4750 
z
" transform="scale(0.015625)"/>
       <path id="DejaVuSerif-20" transform="scale(0.015625)"/>
       <path id="DejaVuSans-5b" d="M 550 4863 
L 1875 4863 
L 1875 4416 
L 1125 4416 
L 1125 -397 
L 1875 -397 
L 1875 -844 
L 550 -844 
L 550 4863 
z
" transform="scale(0.015625)"/>
       <path id="DejaVuSans-Oblique-6d" d="M 5747 2113 
L 5338 0 
L 4763 0 
L 5166 2094 
Q 5191 2228 5203 2325 
Q 5216 2422 5216 2491 
Q 5216 2772 5059 2928 
Q 4903 3084 4622 3084 
Q 4203 3084 3875 2770 
Q 3547 2456 3450 1953 
L 3066 0 
L 2491 0 
L 2900 2094 
Q 2925 2209 2937 2307 
Q 2950 2406 2950 2484 
Q 2950 2769 2794 2926 
Q 2638 3084 2363 3084 
Q 1938 3084 1609 2770 
Q 1281 2456 1184 1953 
L 800 0 
L 225 0 
L 909 3500 
L 1484 3500 
L 1375 2956 
Q 1609 3263 1923 3423 
Q 2238 3584 2597 3584 
Q 2978 3584 3223 3384 
Q 3469 3184 3519 2828 
Q 3781 3197 4126 3390 
Q 4472 3584 4856 3584 
Q 5306 3584 5551 3325 
Q 5797 3066 5797 2591 
Q 5797 2488 5784 2364 
Q 5772 2241 5747 2113 
z
" transform="scale(0.015625)"/>
       <path id="DejaVuSans-5d" d="M 1947 4863 
L 1947 -844 
L 622 -844 
L 622 -397 
L 1369 -397 
L 1369 4416 
L 622 4416 
L 622 4863 
L 1947 4863 
z
" transform="scale(0.015625)"/>
      </defs>
      <use xlink:href="#DejaVuSans-Oblique-79" transform="translate(0 0.015625)"/>
      <use xlink:href="#DejaVuSans-30" transform="translate(59.179688 -16.390625) scale(0.7)"/>
      <use xlink:href="#DejaVuSerif-20" transform="translate(106.450195 0.015625)"/>
      <use xlink:href="#DejaVuSans-5b" transform="translate(138.237305 0.015625)"/>
      <use xlink:href="#DejaVuSans-Oblique-6d" transform="translate(177.250977 0.015625)"/>
      <use xlink:href="#DejaVuSans-5d" transform="translate(274.663086 0.015625)"/>
     </g>
    </g>
   </g>
   <g id="matplotlib.axis_2">
    <g id="ytick_1">
     <g id="line2d_17">
      <path d="M 25.214615 176.897006 
L 382.335019 176.897006 
" clip-path="url(#p38557e26e2)" style="fill: none; stroke: #b0b0b0; stroke-width: 0.1; stroke-linecap: round"/>
     </g>
     <g id="line2d_18"/>
     <g id="text_10">
      <!-- 0 -->
      <g style="fill: #262626" transform="translate(17.260865 179.556459) scale(0.07 -0.07)">
       <use xlink:href="#DejaVuSerif-30"/>
      </g>
     </g>
    </g>
    <g id="ytick_2">
     <g id="line2d_19">
      <path d="M 25.214615 155.010582 
L 382.335019 155.010582 
" clip-path="url(#p38557e26e2)" style="fill: none; stroke: #b0b0b0; stroke-width: 0.1; stroke-linecap: round"/>
     </g>
     <g id="line2d_20"/>
     <g id="text_11">
      <!-- 5 -->
      <g style="fill: #262626" transform="translate(17.260865 157.670035) scale(0.07 -0.07)">
       <defs>
        <path id="DejaVuSerif-35" d="M 3219 4666 
L 3219 4153 
L 1081 4153 
L 1081 2816 
Q 1244 2928 1461 2984 
Q 1678 3041 1947 3041 
Q 2703 3041 3140 2622 
Q 3578 2203 3578 1478 
Q 3578 738 3136 323 
Q 2694 -91 1894 -91 
Q 1572 -91 1234 -12 
Q 897 66 544 225 
L 544 1131 
L 897 1131 
Q 925 688 1179 453 
Q 1434 219 1894 219 
Q 2388 219 2653 544 
Q 2919 869 2919 1478 
Q 2919 2084 2655 2407 
Q 2391 2731 1894 2731 
Q 1613 2731 1398 2631 
Q 1184 2531 1019 2322 
L 750 2322 
L 750 4666 
L 3219 4666 
z
" transform="scale(0.015625)"/>
       </defs>
       <use xlink:href="#DejaVuSerif-35"/>
      </g>
     </g>
    </g>
    <g id="ytick_3">
     <g id="line2d_21">
      <path d="M 25.214615 133.124158 
L 382.335019 133.124158 
" clip-path="url(#p38557e26e2)" style="fill: none; stroke: #b0b0b0; stroke-width: 0.1; stroke-linecap: round"/>
     </g>
     <g id="line2d_22"/>
     <g id="text_12">
      <!-- 10 -->
      <g style="fill: #262626" transform="translate(12.807115 135.783611) scale(0.07 -0.07)">
       <use xlink:href="#DejaVuSerif-31"/>
       <use xlink:href="#DejaVuSerif-30" x="63.623047"/>
      </g>
     </g>
    </g>
    <g id="ytick_4">
     <g id="line2d_23">
      <path d="M 25.214615 111.237733 
L 382.335019 111.237733 
" clip-path="url(#p38557e26e2)" style="fill: none; stroke: #b0b0b0; stroke-width: 0.1; stroke-linecap: round"/>
     </g>
     <g id="line2d_24"/>
     <g id="text_13">
      <!-- 15 -->
      <g style="fill: #262626" transform="translate(12.807115 113.897186) scale(0.07 -0.07)">
       <use xlink:href="#DejaVuSerif-31"/>
       <use xlink:href="#DejaVuSerif-35" x="63.623047"/>
      </g>
     </g>
    </g>
    <g id="ytick_5">
     <g id="line2d_25">
      <path d="M 25.214615 89.351309 
L 382.335019 89.351309 
" clip-path="url(#p38557e26e2)" style="fill: none; stroke: #b0b0b0; stroke-width: 0.1; stroke-linecap: round"/>
     </g>
     <g id="line2d_26"/>
     <g id="text_14">
      <!-- 20 -->
      <g style="fill: #262626" transform="translate(12.807115 92.010762) scale(0.07 -0.07)">
       <use xlink:href="#DejaVuSerif-32"/>
       <use xlink:href="#DejaVuSerif-30" x="63.623047"/>
      </g>
     </g>
    </g>
    <g id="ytick_6">
     <g id="line2d_27">
      <path d="M 25.214615 67.464885 
L 382.335019 67.464885 
" clip-path="url(#p38557e26e2)" style="fill: none; stroke: #b0b0b0; stroke-width: 0.1; stroke-linecap: round"/>
     </g>
     <g id="line2d_28"/>
     <g id="text_15">
      <!-- 25 -->
      <g style="fill: #262626" transform="translate(12.807115 70.124338) scale(0.07 -0.07)">
       <use xlink:href="#DejaVuSerif-32"/>
       <use xlink:href="#DejaVuSerif-35" x="63.623047"/>
      </g>
     </g>
    </g>
    <g id="ytick_7">
     <g id="line2d_29">
      <path d="M 25.214615 45.57846 
L 382.335019 45.57846 
" clip-path="url(#p38557e26e2)" style="fill: none; stroke: #b0b0b0; stroke-width: 0.1; stroke-linecap: round"/>
     </g>
     <g id="line2d_30"/>
     <g id="text_16">
      <!-- 30 -->
      <g style="fill: #262626" transform="translate(12.807115 48.237913) scale(0.07 -0.07)">
       <use xlink:href="#DejaVuSerif-33"/>
       <use xlink:href="#DejaVuSerif-30" x="63.623047"/>
      </g>
     </g>
    </g>
    <g id="text_17">
     <!-- $x_0$ $[m]$ -->
     <g style="fill: #262626" transform="translate(7.559302 120.731245) rotate(-90) scale(0.06 -0.06)">
      <defs>
       <path id="DejaVuSans-Oblique-78" d="M 3841 3500 
L 2234 1784 
L 3219 0 
L 2559 0 
L 1819 1388 
L 531 0 
L -166 0 
L 1556 1844 
L 641 3500 
L 1300 3500 
L 1972 2234 
L 3144 3500 
L 3841 3500 
z
" transform="scale(0.015625)"/>
      </defs>
      <use xlink:href="#DejaVuSans-Oblique-78" transform="translate(0 0.015625)"/>
      <use xlink:href="#DejaVuSans-30" transform="translate(59.179688 -16.390625) scale(0.7)"/>
      <use xlink:href="#DejaVuSerif-20" transform="translate(106.450195 0.015625)"/>
      <use xlink:href="#DejaVuSans-5b" transform="translate(138.237305 0.015625)"/>
      <use xlink:href="#DejaVuSans-Oblique-6d" transform="translate(177.250977 0.015625)"/>
      <use xlink:href="#DejaVuSans-5d" transform="translate(274.663086 0.015625)"/>
     </g>
    </g>
   </g>
   <g id="line2d_31">
    <path d="M 207.715906 176.897006 
L 207.606093 158.627818 
L 207.265451 153.141287 
L 206.766946 148.517902 
L 206.04077 143.956989 
L 204.567351 136.352813 
L 202.813372 127.010345 
L 201.941227 121.133315 
L 201.388909 115.922396 
L 201.091659 111.034337 
L 201.026749 106.323253 
L 201.185103 101.757539 
L 201.540279 97.698921 
L 202.153862 93.384253 
L 203.326711 86.894811 
L 205.499815 74.951235 
L 206.295914 69.195812 
L 206.782871 64.077963 
L 207.022069 59.228283 
L 207.029578 54.580495 
L 206.945504 52.226191 
L 206.945504 52.226191 
" clip-path="url(#p38557e26e2)" style="fill: none; stroke: #0000ff; stroke-width: 0.4; stroke-linecap: round"/>
   </g>
   <g id="patch_3">
    <path d="M 25.214615 195.528177 
L 25.214615 27.094314 
" style="fill: none; stroke: #000000; stroke-linejoin: miter; stroke-linecap: square"/>
   </g>
   <g id="patch_4">
    <path d="M 25.214615 195.528177 
L 382.335019 195.528177 
" style="fill: none; stroke: #000000; stroke-linejoin: miter; stroke-linecap: square"/>
   </g>
   <g id="text_18">
    <!-- Track plot -->
    <g style="fill: #262626" transform="translate(185.613645 21.094314) scale(0.07 -0.07)">
     <defs>
      <path id="DejaVuSerif-54" d="M 1222 0 
L 1222 331 
L 1819 331 
L 1819 4294 
L 447 4294 
L 447 3566 
L 63 3566 
L 63 4666 
L 4206 4666 
L 4206 3566 
L 3822 3566 
L 3822 4294 
L 2450 4294 
L 2450 331 
L 3047 331 
L 3047 0 
L 1222 0 
z
" transform="scale(0.015625)"/>
      <path id="DejaVuSerif-72" d="M 3059 3328 
L 3059 2497 
L 2728 2497 
Q 2713 2744 2591 2866 
Q 2469 2988 2234 2988 
Q 1809 2988 1582 2694 
Q 1356 2400 1356 1850 
L 1356 331 
L 2022 331 
L 2022 0 
L 263 0 
L 263 331 
L 781 331 
L 781 2994 
L 231 2994 
L 231 3322 
L 1356 3322 
L 1356 2731 
Q 1525 3078 1790 3245 
Q 2056 3413 2438 3413 
Q 2578 3413 2733 3391 
Q 2888 3369 3059 3328 
z
" transform="scale(0.015625)"/>
      <path id="DejaVuSerif-61" d="M 2547 1044 
L 2547 1747 
L 1806 1747 
Q 1378 1747 1168 1562 
Q 959 1378 959 997 
Q 959 650 1171 447 
Q 1384 244 1747 244 
Q 2106 244 2326 466 
Q 2547 688 2547 1044 
z
M 3122 2075 
L 3122 331 
L 3634 331 
L 3634 0 
L 2547 0 
L 2547 359 
Q 2356 128 2106 18 
Q 1856 -91 1522 -91 
Q 969 -91 644 203 
Q 319 497 319 997 
Q 319 1513 691 1797 
Q 1063 2081 1741 2081 
L 2547 2081 
L 2547 2309 
Q 2547 2688 2317 2895 
Q 2088 3103 1672 3103 
Q 1328 3103 1125 2947 
Q 922 2791 872 2484 
L 575 2484 
L 575 3156 
Q 875 3284 1158 3348 
Q 1441 3413 1709 3413 
Q 2400 3413 2761 3070 
Q 3122 2728 3122 2075 
z
" transform="scale(0.015625)"/>
      <path id="DejaVuSerif-63" d="M 3291 997 
Q 3169 466 2822 187 
Q 2475 -91 1925 -91 
Q 1200 -91 759 389 
Q 319 869 319 1663 
Q 319 2459 759 2936 
Q 1200 3413 1925 3413 
Q 2241 3413 2553 3339 
Q 2866 3266 3181 3116 
L 3181 2266 
L 2847 2266 
Q 2781 2703 2561 2903 
Q 2341 3103 1931 3103 
Q 1466 3103 1228 2742 
Q 991 2381 991 1663 
Q 991 944 1227 581 
Q 1463 219 1931 219 
Q 2303 219 2525 412 
Q 2747 606 2828 997 
L 3291 997 
z
" transform="scale(0.015625)"/>
      <path id="DejaVuSerif-6b" d="M 1831 0 
L 219 0 
L 219 331 
L 738 331 
L 738 4531 
L 184 4531 
L 184 4863 
L 1313 4863 
L 1313 1697 
L 2713 2988 
L 2234 2988 
L 2234 3322 
L 3738 3322 
L 3738 2988 
L 3169 2988 
L 2181 2075 
L 3444 331 
L 3922 331 
L 3922 0 
L 2284 0 
L 2284 331 
L 2759 331 
L 1766 1697 
L 1313 1275 
L 1313 331 
L 1831 331 
L 1831 0 
z
" transform="scale(0.015625)"/>
      <path id="DejaVuSerif-70" d="M 1313 1825 
L 1313 1497 
Q 1313 897 1542 583 
Q 1772 269 2209 269 
Q 2650 269 2876 622 
Q 3103 975 3103 1663 
Q 3103 2353 2876 2703 
Q 2650 3053 2209 3053 
Q 1772 3053 1542 2737 
Q 1313 2422 1313 1825 
z
M 738 2988 
L 184 2988 
L 184 3322 
L 1313 3322 
L 1313 2803 
Q 1481 3116 1742 3264 
Q 2003 3413 2388 3413 
Q 3000 3413 3387 2928 
Q 3775 2444 3775 1663 
Q 3775 881 3387 395 
Q 3000 -91 2388 -91 
Q 2003 -91 1742 57 
Q 1481 206 1313 519 
L 1313 -997 
L 1856 -997 
L 1856 -1331 
L 184 -1331 
L 184 -997 
L 738 -997 
L 738 2988 
z
" transform="scale(0.015625)"/>
      <path id="DejaVuSerif-6c" d="M 1313 331 
L 1856 331 
L 1856 0 
L 184 0 
L 184 331 
L 738 331 
L 738 4531 
L 184 4531 
L 184 4863 
L 1313 4863 
L 1313 331 
z
" transform="scale(0.015625)"/>
      <path id="DejaVuSerif-6f" d="M 1925 219 
Q 2388 219 2623 584 
Q 2859 950 2859 1663 
Q 2859 2375 2623 2739 
Q 2388 3103 1925 3103 
Q 1463 3103 1227 2739 
Q 991 2375 991 1663 
Q 991 950 1228 584 
Q 1466 219 1925 219 
z
M 1925 -91 
Q 1200 -91 759 389 
Q 319 869 319 1663 
Q 319 2456 758 2934 
Q 1197 3413 1925 3413 
Q 2653 3413 3092 2934 
Q 3531 2456 3531 1663 
Q 3531 869 3092 389 
Q 2653 -91 1925 -91 
z
" transform="scale(0.015625)"/>
      <path id="DejaVuSerif-74" d="M 691 2988 
L 184 2988 
L 184 3322 
L 691 3322 
L 691 4353 
L 1269 4353 
L 1269 3322 
L 2350 3322 
L 2350 2988 
L 1269 2988 
L 1269 878 
Q 1269 456 1350 337 
Q 1431 219 1650 219 
Q 1875 219 1978 351 
Q 2081 484 2088 781 
L 2522 781 
Q 2497 328 2275 118 
Q 2053 -91 1600 -91 
Q 1103 -91 897 129 
Q 691 350 691 878 
L 691 2988 
z
" transform="scale(0.015625)"/>
     </defs>
     <use xlink:href="#DejaVuSerif-54"/>
     <use xlink:href="#DejaVuSerif-72" x="66.699219"/>
     <use xlink:href="#DejaVuSerif-61" x="114.501953"/>
     <use xlink:href="#DejaVuSerif-63" x="174.121094"/>
     <use xlink:href="#DejaVuSerif-6b" x="230.126953"/>
     <use xlink:href="#DejaVuSerif-20" x="290.722656"/>
     <use xlink:href="#DejaVuSerif-70" x="322.509766"/>
     <use xlink:href="#DejaVuSerif-6c" x="386.523438"/>
     <use xlink:href="#DejaVuSerif-6f" x="418.505859"/>
     <use xlink:href="#DejaVuSerif-74" x="478.710938"/>
    </g>
   </g>
   <g id="legend_1">
    <g id="line2d_32">
     <path d="M 334.470331 36.26322 
L 341.470331 36.26322 
L 348.470331 36.26322 
" style="fill: none; stroke: #000000; stroke-width: 0.7; stroke-linecap: round"/>
    </g>
    <g id="text_19">
     <!-- FRMT -->
     <g style="fill: #262626" transform="translate(354.070331 38.71322) scale(0.07 -0.07)">
      <defs>
       <path id="DejaVuSerif-46" d="M 353 0 
L 353 331 
L 947 331 
L 947 4331 
L 353 4331 
L 353 4666 
L 4172 4666 
L 4172 3628 
L 3788 3628 
L 3788 4281 
L 1581 4281 
L 1581 2719 
L 3175 2719 
L 3175 3303 
L 3559 3303 
L 3559 1753 
L 3175 1753 
L 3175 2338 
L 1581 2338 
L 1581 331 
L 2328 331 
L 2328 0 
L 353 0 
z
" transform="scale(0.015625)"/>
       <path id="DejaVuSerif-52" d="M 3066 2316 
Q 3284 2256 3442 2114 
Q 3600 1972 3725 1716 
L 4403 331 
L 4972 331 
L 4972 0 
L 3872 0 
L 3144 1484 
Q 2934 1916 2759 2042 
Q 2584 2169 2278 2169 
L 1581 2169 
L 1581 331 
L 2241 331 
L 2241 0 
L 353 0 
L 353 331 
L 947 331 
L 947 4331 
L 353 4331 
L 353 4666 
L 2719 4666 
Q 3400 4666 3770 4341 
Q 4141 4016 4141 3419 
Q 4141 2938 3870 2661 
Q 3600 2384 3066 2316 
z
M 1581 2503 
L 2503 2503 
Q 2975 2503 3200 2726 
Q 3425 2950 3425 3419 
Q 3425 3888 3200 4109 
Q 2975 4331 2503 4331 
L 1581 4331 
L 1581 2503 
z
" transform="scale(0.015625)"/>
       <path id="DejaVuSerif-4d" d="M 353 0 
L 353 331 
L 947 331 
L 947 4331 
L 319 4331 
L 319 4666 
L 1678 4666 
L 3316 1344 
L 4953 4666 
L 6228 4666 
L 6228 4331 
L 5606 4331 
L 5606 331 
L 6203 331 
L 6203 0 
L 4378 0 
L 4378 331 
L 4972 331 
L 4972 3938 
L 3372 684 
L 2931 684 
L 1331 3938 
L 1331 331 
L 1925 331 
L 1925 0 
L 353 0 
z
" transform="scale(0.015625)"/>
      </defs>
      <use xlink:href="#DejaVuSerif-46"/>
      <use xlink:href="#DejaVuSerif-52" x="69.384766"/>
      <use xlink:href="#DejaVuSerif-4d" x="144.677734"/>
      <use xlink:href="#DejaVuSerif-54" x="247.070312"/>
     </g>
    </g>
    <g id="line2d_33">
     <path d="M 334.470331 46.537907 
L 341.470331 46.537907 
L 348.470331 46.537907 
" style="fill: none; stroke: #0000ff; stroke-width: 0.4; stroke-linecap: round"/>
    </g>
    <g id="text_20">
     <!-- model -->
     <g style="fill: #262626" transform="translate(354.070331 48.987907) scale(0.07 -0.07)">
      <defs>
       <path id="DejaVuSerif-6d" d="M 3316 2675 
Q 3481 3041 3739 3227 
Q 3997 3413 4341 3413 
Q 4863 3413 5119 3089 
Q 5375 2766 5375 2113 
L 5375 331 
L 5894 331 
L 5894 0 
L 4300 0 
L 4300 331 
L 4800 331 
L 4800 2047 
Q 4800 2556 4650 2772 
Q 4500 2988 4153 2988 
Q 3769 2988 3567 2697 
Q 3366 2406 3366 1850 
L 3366 331 
L 3866 331 
L 3866 0 
L 2291 0 
L 2291 331 
L 2791 331 
L 2791 2069 
Q 2791 2566 2641 2777 
Q 2491 2988 2144 2988 
Q 1759 2988 1557 2697 
Q 1356 2406 1356 1850 
L 1356 331 
L 1856 331 
L 1856 0 
L 263 0 
L 263 331 
L 781 331 
L 781 2994 
L 231 2994 
L 231 3322 
L 1356 3322 
L 1356 2731 
Q 1516 3063 1762 3238 
Q 2009 3413 2322 3413 
Q 2709 3413 2968 3220 
Q 3228 3028 3316 2675 
z
" transform="scale(0.015625)"/>
       <path id="DejaVuSerif-64" d="M 3359 331 
L 3909 331 
L 3909 0 
L 2784 0 
L 2784 519 
Q 2616 206 2355 57 
Q 2094 -91 1709 -91 
Q 1097 -91 708 395 
Q 319 881 319 1663 
Q 319 2444 706 2928 
Q 1094 3413 1709 3413 
Q 2094 3413 2355 3264 
Q 2616 3116 2784 2803 
L 2784 4531 
L 2241 4531 
L 2241 4863 
L 3359 4863 
L 3359 331 
z
M 2784 1497 
L 2784 1825 
Q 2784 2422 2554 2737 
Q 2325 3053 1888 3053 
Q 1444 3053 1217 2703 
Q 991 2353 991 1663 
Q 991 975 1217 622 
Q 1444 269 1888 269 
Q 2325 269 2554 583 
Q 2784 897 2784 1497 
z
" transform="scale(0.015625)"/>
       <path id="DejaVuSerif-65" d="M 3469 1600 
L 991 1600 
L 991 1575 
Q 991 903 1244 561 
Q 1497 219 1991 219 
Q 2369 219 2611 417 
Q 2853 616 2950 1006 
L 3413 1006 
Q 3275 459 2904 184 
Q 2534 -91 1931 -91 
Q 1203 -91 761 389 
Q 319 869 319 1663 
Q 319 2450 753 2931 
Q 1188 3413 1894 3413 
Q 2647 3413 3050 2948 
Q 3453 2484 3469 1600 
z
M 2791 1931 
Q 2772 2513 2545 2808 
Q 2319 3103 1894 3103 
Q 1497 3103 1269 2806 
Q 1041 2509 991 1931 
L 2791 1931 
z
" transform="scale(0.015625)"/>
      </defs>
      <use xlink:href="#DejaVuSerif-6d"/>
      <use xlink:href="#DejaVuSerif-6f" x="94.824219"/>
      <use xlink:href="#DejaVuSerif-64" x="155.029297"/>
      <use xlink:href="#DejaVuSerif-65" x="219.042969"/>
      <use xlink:href="#DejaVuSerif-6c" x="278.222656"/>
     </g>
    </g>
   </g>
   <g id="line2d_34">
    <path d="M 207.715906 165.921921 
L 206.680019 167.019429 
L 206.162076 168.116938 
L 205.644133 170.311955 
L 205.644133 185.677075 
L 205.799516 186.774583 
L 206.162076 187.872092 
L 209.269736 187.872092 
L 209.632296 186.774583 
L 209.787679 185.677075 
L 209.787679 170.311955 
L 209.269736 168.116938 
L 208.751793 167.019429 
L 207.715906 165.921921 
" clip-path="url(#p38557e26e2)" style="fill: none; stroke: #0000ff; stroke-opacity: 0.2; stroke-width: 0.4; stroke-linecap: round"/>
   </g>
   <g id="patch_5">
    <path d="M 207.715906 165.921921 
L 206.680019 167.019429 
L 206.162076 168.116938 
L 205.644133 170.311955 
L 205.644133 185.677075 
L 205.799516 186.774583 
L 206.162076 187.872092 
L 209.269736 187.872092 
L 209.632296 186.774583 
L 209.787679 185.677075 
L 209.787679 170.311955 
L 209.269736 168.116938 
L 208.751793 167.019429 
z
" clip-path="url(#p38557e26e2)" style="fill: #0000ff; opacity: 0.2"/>
   </g>
   <g id="line2d_35">
    <path d="M 203.607756 133.876472 
L 202.853816 135.18382 
L 202.603773 136.371368 
L 202.607586 138.626662 
L 206.16156 153.575112 
L 206.566585 154.606919 
L 207.173169 155.590804 
L 210.196555 154.871998 
L 210.295429 153.720391 
L 210.192743 152.616704 
L 206.638768 137.668254 
L 205.62716 135.652562 
L 204.869407 134.704616 
L 203.607756 133.876472 
" clip-path="url(#p38557e26e2)" style="fill: none; stroke: #0000ff; stroke-opacity: 0.2; stroke-width: 0.4; stroke-linecap: round"/>
   </g>
   <g id="patch_6">
    <path d="M 203.607756 133.876472 
L 202.853816 135.18382 
L 202.603773 136.371368 
L 202.607586 138.626662 
L 206.16156 153.575112 
L 206.566585 154.606919 
L 207.173169 155.590804 
L 210.196555 154.871998 
L 210.295429 153.720391 
L 210.192743 152.616704 
L 206.638768 137.668254 
L 205.62716 135.652562 
L 204.869407 134.704616 
z
" clip-path="url(#p38557e26e2)" style="fill: #0000ff; opacity: 0.2"/>
   </g>
   <g id="line2d_36">
    <path d="M 201.680523 102.333299 
L 200.597695 103.384522 
L 200.032317 104.458364 
L 199.419009 106.628668 
L 198.747996 121.979129 
L 198.855301 123.082376 
L 199.169586 124.194671 
L 202.274281 124.330386 
L 202.684425 123.249758 
L 202.887589 122.160082 
L 203.558602 106.809621 
L 203.137012 104.594079 
L 202.667492 103.474999 
L 201.680523 102.333299 
" clip-path="url(#p38557e26e2)" style="fill: none; stroke: #0000ff; stroke-opacity: 0.2; stroke-width: 0.4; stroke-linecap: round"/>
   </g>
   <g id="patch_7">
    <path d="M 201.680523 102.333299 
L 200.597695 103.384522 
L 200.032317 104.458364 
L 199.419009 106.628668 
L 198.747996 121.979129 
L 198.855301 123.082376 
L 199.169586 124.194671 
L 202.274281 124.330386 
L 202.684425 123.249758 
L 202.887589 122.160082 
L 203.558602 106.809621 
L 203.137012 104.594079 
L 202.667492 103.474999 
z
" clip-path="url(#p38557e26e2)" style="fill: #0000ff; opacity: 0.2"/>
   </g>
   <g id="line2d_37">
    <path d="M 206.093572 71.901072 
L 204.878129 72.795659 
L 204.172281 73.782861 
L 203.270181 75.849884 
L 200.522648 90.967356 
L 200.479275 92.07496 
L 200.639739 93.219612 
L 203.697311 93.775312 
L 204.25028 92.760324 
L 204.599411 91.708289 
L 207.346944 76.590817 
L 207.229854 74.338561 
L 206.916511 73.166125 
L 206.093572 71.901072 
" clip-path="url(#p38557e26e2)" style="fill: none; stroke: #0000ff; stroke-opacity: 0.2; stroke-width: 0.4; stroke-linecap: round"/>
   </g>
   <g id="patch_8">
    <path d="M 206.093572 71.901072 
L 204.878129 72.795659 
L 204.172281 73.782861 
L 203.270181 75.849884 
L 200.522648 90.967356 
L 200.479275 92.07496 
L 200.639739 93.219612 
L 203.697311 93.775312 
L 204.25028 92.760324 
L 204.599411 91.708289 
L 207.346944 76.590817 
L 207.229854 74.338561 
L 206.916511 73.166125 
z
" clip-path="url(#p38557e26e2)" style="fill: #0000ff; opacity: 0.2"/>
   </g>
   <g id="line2d_38">
    <path d="M 205.041052 41.417604 
L 204.211325 42.678215 
L 203.891685 43.84895 
L 203.762489 46.100543 
L 206.428723 61.232566 
L 206.772194 62.286462 
L 207.319699 63.304407 
L 210.380214 62.76515 
L 210.546829 61.621378 
L 210.509409 60.513557 
L 207.843176 45.381534 
L 206.9522 43.309693 
L 206.251669 42.31871 
L 205.041052 41.417604 
" clip-path="url(#p38557e26e2)" style="fill: none; stroke: #ff0000; stroke-opacity: 0.2; stroke-width: 0.4; stroke-linecap: round"/>
   </g>
   <g id="patch_9">
    <path d="M 205.041052 41.417604 
L 204.211325 42.678215 
L 203.891685 43.84895 
L 203.762489 46.100543 
L 206.428723 61.232566 
L 206.772194 62.286462 
L 207.319699 63.304407 
L 210.380214 62.76515 
L 210.546829 61.621378 
L 210.509409 60.513557 
L 207.843176 45.381534 
L 206.9522 43.309693 
L 206.251669 42.31871 
z
" clip-path="url(#p38557e26e2)" style="fill: #ff0000; opacity: 0.2"/>
   </g>
   <g id="line2d_39">
    <path d="M 207.707131 171.952598 
L 207.547739 154.266182 
L 207.208659 148.006761 
L 206.68551 142.413672 
L 206.019505 137.639306 
L 204.859883 131.186375 
L 201.89185 115.077347 
L 200.982152 108.618336 
L 200.3694 102.679966 
L 200.026062 97.191615 
L 199.91817 91.913274 
L 200.035752 86.777731 
L 200.367387 81.906039 
L 200.886549 77.512511 
L 201.827054 71.671791 
L 205.134088 52.110404 
L 205.862503 45.879747 
L 205.877889 45.722027 
L 205.877889 45.722027 
" clip-path="url(#p38557e26e2)" style="fill: none; stroke: #000000; stroke-width: 0.7; stroke-linecap: round"/>
   </g>
   <g id="line2d_40">
    <path d="M 207.687303 160.97753 
L 206.6534 162.076908 
L 206.137441 163.175351 
L 205.623464 165.3713 
L 205.651224 180.736395 
L 205.808589 181.833621 
L 206.173132 182.930473 
L 209.280786 182.924858 
L 209.641363 181.826697 
L 209.794763 180.728909 
L 209.767004 165.363814 
L 209.245096 163.169737 
L 208.72517 162.073165 
L 207.687303 160.97753 
" clip-path="url(#p38557e26e2)" style="fill: none; stroke: #0000ff; stroke-opacity: 0.2; stroke-width: 0.7; stroke-linecap: round"/>
   </g>
   <g id="patch_10">
    <path d="M 207.687303 160.97753 
L 206.6534 162.076908 
L 206.137441 163.175351 
L 205.623464 165.3713 
L 205.651224 180.736395 
L 205.808589 181.833621 
L 206.173132 182.930473 
L 209.280786 182.924858 
L 209.641363 181.826697 
L 209.794763 180.728909 
L 209.767004 165.363814 
L 209.245096 163.169737 
L 208.72517 162.073165 
z
" clip-path="url(#p38557e26e2)" style="fill: #0000ff; opacity: 0.2"/>
   </g>
   <g id="line2d_41">
    <path d="M 203.972481 128.727145 
L 203.192803 130.019309 
L 202.919296 131.201673 
L 202.878453 133.456601 
L 206.135747 148.47249 
L 206.520263 149.512114 
L 207.107246 150.507817 
L 210.144273 149.849015 
L 210.265929 148.699592 
L 210.185116 147.594088 
L 206.927821 132.578199 
L 205.956323 130.542872 
L 205.217488 129.580108 
L 203.972481 128.727145 
" clip-path="url(#p38557e26e2)" style="fill: none; stroke: #0000ff; stroke-opacity: 0.2; stroke-width: 0.7; stroke-linecap: round"/>
   </g>
   <g id="patch_11">
    <path d="M 203.972481 128.727145 
L 203.192803 130.019309 
L 202.919296 131.201673 
L 202.878453 133.456601 
L 206.135747 148.47249 
L 206.520263 149.512114 
L 207.107246 150.507817 
L 210.144273 149.849015 
L 210.265929 148.699592 
L 210.185116 147.594088 
L 206.927821 132.578199 
L 205.956323 130.542872 
L 205.217488 129.580108 
z
" clip-path="url(#p38557e26e2)" style="fill: #0000ff; opacity: 0.2"/>
   </g>
   <g id="line2d_42">
    <path d="M 200.417335 96.929883 
L 199.430235 98.07147 
L 198.960587 99.190496 
L 198.538743 101.40599 
L 199.207993 116.756528 
L 199.411033 117.846227 
L 199.821052 118.926902 
L 202.925763 118.791543 
L 203.240176 117.679284 
L 203.347607 116.57605 
L 202.678357 101.225512 
L 202.065298 99.055138 
L 201.500042 97.98123 
L 200.417335 96.929883 
" clip-path="url(#p38557e26e2)" style="fill: none; stroke: #0000ff; stroke-opacity: 0.2; stroke-width: 0.7; stroke-linecap: round"/>
   </g>
   <g id="patch_12">
    <path d="M 200.417335 96.929883 
L 199.430235 98.07147 
L 198.960587 99.190496 
L 198.538743 101.40599 
L 199.207993 116.756528 
L 199.411033 117.846227 
L 199.821052 118.926902 
L 202.925763 118.791543 
L 203.240176 117.679284 
L 203.347607 116.57605 
L 202.678357 101.225512 
L 202.065298 99.055138 
L 201.500042 97.98123 
z
" clip-path="url(#p38557e26e2)" style="fill: #0000ff; opacity: 0.2"/>
   </g>
   <g id="line2d_43">
    <path d="M 203.424627 65.825802 
L 202.174159 66.670737 
L 201.429145 67.628726 
L 200.44457 69.65776 
L 197.090729 84.652381 
L 197.002805 85.757342 
L 197.117063 86.907525 
L 200.149787 87.585853 
L 200.743165 86.593947 
L 201.134362 85.556819 
L 204.488203 70.562198 
L 204.461869 68.307055 
L 204.195975 67.122956 
L 203.424627 65.825802 
" clip-path="url(#p38557e26e2)" style="fill: none; stroke: #0000ff; stroke-opacity: 0.2; stroke-width: 0.7; stroke-linecap: round"/>
   </g>
   <g id="patch_13">
    <path d="M 203.424627 65.825802 
L 202.174159 66.670737 
L 201.429145 67.628726 
L 200.44457 69.65776 
L 197.090729 84.652381 
L 197.002805 85.757342 
L 197.117063 86.907525 
L 200.149787 87.585853 
L 200.743165 86.593947 
L 201.134362 85.556819 
L 204.488203 70.562198 
L 204.461869 68.307055 
L 204.195975 67.122956 
z
" clip-path="url(#p38557e26e2)" style="fill: #0000ff; opacity: 0.2"/>
   </g>
   <g id="line2d_44">
    <path d="M 206.15334 34.750398 
L 205.090235 35.821563 
L 204.54491 36.905726 
L 203.972039 39.087053 
L 203.586408 54.447333 
L 203.714197 55.548395 
L 204.049098 56.654658 
L 207.155779 56.732653 
L 207.54577 55.64459 
L 207.728649 54.551327 
L 208.11428 39.191047 
L 207.65159 36.983722 
L 207.161355 35.87356 
L 206.15334 34.750398 
" clip-path="url(#p38557e26e2)" style="fill: none; stroke: #ff0000; stroke-opacity: 0.2; stroke-width: 0.7; stroke-linecap: round"/>
   </g>
   <g id="patch_14">
    <path d="M 206.15334 34.750398 
L 205.090235 35.821563 
L 204.54491 36.905726 
L 203.972039 39.087053 
L 203.586408 54.447333 
L 203.714197 55.548395 
L 204.049098 56.654658 
L 207.155779 56.732653 
L 207.54577 55.64459 
L 207.728649 54.551327 
L 208.11428 39.191047 
L 207.65159 36.983722 
L 207.161355 35.87356 
z
" clip-path="url(#p38557e26e2)" style="fill: #ff0000; opacity: 0.2"/>
   </g>
  </g>
  <g id="text_21">
   <!-- zigzag 10/10 -->
   <g style="fill: #262626" transform="translate(171.735187 8.219615) scale(0.07 -0.07)">
    <defs>
     <path id="DejaVuSerif-7a" d="M 256 0 
L 256 269 
L 2338 2988 
L 691 2988 
L 691 2413 
L 359 2413 
L 359 3322 
L 3078 3322 
L 3078 3053 
L 997 331 
L 2803 331 
L 2803 934 
L 3138 934 
L 3138 0 
L 256 0 
z
" transform="scale(0.015625)"/>
     <path id="DejaVuSerif-69" d="M 622 4353 
Q 622 4497 726 4603 
Q 831 4709 978 4709 
Q 1122 4709 1226 4603 
Q 1331 4497 1331 4353 
Q 1331 4206 1228 4103 
Q 1125 4000 978 4000 
Q 831 4000 726 4103 
Q 622 4206 622 4353 
z
M 1356 331 
L 1900 331 
L 1900 0 
L 231 0 
L 231 331 
L 781 331 
L 781 2988 
L 231 2988 
L 231 3322 
L 1356 3322 
L 1356 331 
z
" transform="scale(0.015625)"/>
     <path id="DejaVuSerif-67" d="M 3359 2988 
L 3359 72 
Q 3359 -644 2965 -1033 
Q 2572 -1422 1844 -1422 
Q 1516 -1422 1216 -1362 
Q 916 -1303 641 -1184 
L 641 -488 
L 941 -488 
Q 997 -813 1206 -963 
Q 1416 -1113 1806 -1113 
Q 2313 -1113 2548 -827 
Q 2784 -541 2784 72 
L 2784 519 
Q 2616 206 2355 57 
Q 2094 -91 1709 -91 
Q 1097 -91 708 395 
Q 319 881 319 1663 
Q 319 2444 706 2928 
Q 1094 3413 1709 3413 
Q 2094 3413 2355 3264 
Q 2616 3116 2784 2803 
L 2784 3322 
L 3909 3322 
L 3909 2988 
L 3359 2988 
z
M 2784 1825 
Q 2784 2422 2554 2737 
Q 2325 3053 1888 3053 
Q 1444 3053 1217 2703 
Q 991 2353 991 1663 
Q 991 975 1217 622 
Q 1444 269 1888 269 
Q 2325 269 2554 583 
Q 2784 897 2784 1497 
L 2784 1825 
z
" transform="scale(0.015625)"/>
     <path id="DejaVuSerif-2f" d="M 1656 4666 
L 2156 4666 
L 500 -594 
L 0 -594 
L 1656 4666 
z
" transform="scale(0.015625)"/>
    </defs>
    <use xlink:href="#DejaVuSerif-7a"/>
    <use xlink:href="#DejaVuSerif-69" x="52.685547"/>
    <use xlink:href="#DejaVuSerif-67" x="84.667969"/>
    <use xlink:href="#DejaVuSerif-7a" x="148.681641"/>
    <use xlink:href="#DejaVuSerif-61" x="201.367188"/>
    <use xlink:href="#DejaVuSerif-67" x="260.986328"/>
    <use xlink:href="#DejaVuSerif-20" x="325"/>
    <use xlink:href="#DejaVuSerif-31" x="356.787109"/>
    <use xlink:href="#DejaVuSerif-30" x="420.410156"/>
    <use xlink:href="#DejaVuSerif-2f" x="484.033203"/>
    <use xlink:href="#DejaVuSerif-31" x="517.724609"/>
    <use xlink:href="#DejaVuSerif-30" x="581.347656"/>
   </g>
  </g>
 </g>
 <defs>
  <clipPath id="p38557e26e2">
   <rect x="25.214615" y="27.094314" width="357.120404" height="168.433863"/>
  </clipPath>
 </defs>
</svg>
