<?xml version="1.0" encoding="utf-8" standalone="no"?>
<!DOCTYPE svg PUBLIC "-//W3C//DTD SVG 1.1//EN"
  "http://www.w3.org/Graphics/SVG/1.1/DTD/svg11.dtd">
<svg xmlns:xlink="http://www.w3.org/1999/xlink" width="194.30964pt" height="145.748736pt" viewBox="0 0 194.30964 145.748736" xmlns="http://www.w3.org/2000/svg" version="1.1">
 <metadata>
  <rdf:RDF xmlns:dc="http://purl.org/dc/elements/1.1/" xmlns:cc="http://creativecommons.org/ns#" xmlns:rdf="http://www.w3.org/1999/02/22-rdf-syntax-ns#">
   <cc:Work>
    <dc:type rdf:resource="http://purl.org/dc/dcmitype/StillImage"/>
    <dc:date>2024-11-12T08:18:05.113404</dc:date>
    <dc:format>image/svg+xml</dc:format>
    <dc:creator>
     <cc:Agent>
      <dc:title>Matplotlib v3.8.2, https://matplotlib.org/</dc:title>
     </cc:Agent>
    </dc:creator>
   </cc:Work>
  </rdf:RDF>
 </metadata>
 <defs>
  <style type="text/css">*{stroke-linejoin: round; stroke-linecap: butt}</style>
 </defs>
 <g id="figure_1">
  <g id="patch_1">
   <path d="M 0 145.748736 
L 194.30964 145.748736 
L 194.30964 0 
L 0 0 
z
" style="fill: #ffffff"/>
  </g>
  <g id="axes_1">
   <g id="patch_2">
    <path d="M 20.61 62.454368 
L 188.90964 62.454368 
L 188.90964 7.2 
L 20.61 7.2 
z
" style="fill: #ffffff"/>
   </g>
   <g id="matplotlib.axis_1">
    <g id="xtick_1">
     <g id="line2d_1"/>
    </g>
    <g id="xtick_2">
     <g id="line2d_2"/>
    </g>
    <g id="xtick_3">
     <g id="line2d_3"/>
    </g>
    <g id="xtick_4">
     <g id="line2d_4"/>
    </g>
    <g id="xtick_5">
     <g id="line2d_5"/>
    </g>
    <g id="xtick_6">
     <g id="line2d_6"/>
    </g>
    <g id="xtick_7">
     <g id="line2d_7"/>
    </g>
   </g>
   <g id="matplotlib.axis_2">
    <g id="ytick_1">
     <g id="line2d_8"/>
     <g id="text_1">
      <!-- −5 -->
      <g style="fill: #262626" transform="translate(6.790469 54.368792) scale(0.07 -0.07)">
       <defs>
        <path id="DejaVuSerif-2212" d="M 678 2259 
L 4684 2259 
L 4684 1753 
L 678 1753 
L 678 2259 
z
" transform="scale(0.015625)"/>
        <path id="DejaVuSerif-35" d="M 3219 4666 
L 3219 4153 
L 1081 4153 
L 1081 2816 
Q 1244 2928 1461 2984 
Q 1678 3041 1947 3041 
Q 2703 3041 3140 2622 
Q 3578 2203 3578 1478 
Q 3578 738 3136 323 
Q 2694 -91 1894 -91 
Q 1572 -91 1234 -12 
Q 897 66 544 225 
L 544 1131 
L 897 1131 
Q 925 688 1179 453 
Q 1434 219 1894 219 
Q 2388 219 2653 544 
Q 2919 869 2919 1478 
Q 2919 2084 2655 2407 
Q 2391 2731 1894 2731 
Q 1613 2731 1398 2631 
Q 1184 2531 1019 2322 
L 750 2322 
L 750 4666 
L 3219 4666 
z
" transform="scale(0.015625)"/>
       </defs>
       <use xlink:href="#DejaVuSerif-2212"/>
       <use xlink:href="#DejaVuSerif-35" x="83.789062"/>
      </g>
     </g>
    </g>
    <g id="ytick_2">
     <g id="line2d_9"/>
     <g id="text_2">
      <!-- 0 -->
      <g style="fill: #262626" transform="translate(12.65625 36.773875) scale(0.07 -0.07)">
       <defs>
        <path id="DejaVuSerif-30" d="M 2034 219 
Q 2513 219 2750 744 
Q 2988 1269 2988 2328 
Q 2988 3391 2750 3916 
Q 2513 4441 2034 4441 
Q 1556 4441 1318 3916 
Q 1081 3391 1081 2328 
Q 1081 1269 1318 744 
Q 1556 219 2034 219 
z
M 2034 -91 
Q 1275 -91 848 546 
Q 422 1184 422 2328 
Q 422 3475 848 4112 
Q 1275 4750 2034 4750 
Q 2797 4750 3222 4112 
Q 3647 3475 3647 2328 
Q 3647 1184 3222 546 
Q 2797 -91 2034 -91 
z
" transform="scale(0.015625)"/>
       </defs>
       <use xlink:href="#DejaVuSerif-30"/>
      </g>
     </g>
    </g>
    <g id="ytick_3">
     <g id="line2d_10"/>
     <g id="text_3">
      <!-- 5 -->
      <g style="fill: #262626" transform="translate(12.65625 19.178957) scale(0.07 -0.07)">
       <use xlink:href="#DejaVuSerif-35"/>
      </g>
     </g>
    </g>
    <g id="text_4">
     <!-- $\beta$ [deg] -->
     <g style="fill: #262626" transform="translate(1.410469 45.657184) rotate(-90) scale(0.06 -0.06)">
      <defs>
       <path id="DejaVuSans-Oblique-3b2" d="M 872 216 
L 572 -1331 
L -6 -1331 
L 928 3478 
Q 1206 4903 2538 4903 
Q 3888 4903 3659 3700 
Q 3503 2844 2894 2531 
Q 3713 2250 3553 1416 
Q 3272 -69 1759 -66 
Q 1097 -63 872 216 
z
M 1019 966 
Q 1259 422 1875 425 
Q 2775 425 2966 1406 
Q 3138 2288 1675 2219 
L 1778 2750 
Q 2909 2731 3106 3750 
Q 3241 4438 2509 4434 
Q 1691 4434 1503 3459 
L 1019 966 
z
" transform="scale(0.015625)"/>
       <path id="DejaVuSerif-20" transform="scale(0.015625)"/>
       <path id="DejaVuSerif-5b" d="M 550 4863 
L 2003 4863 
L 2003 4531 
L 1147 4531 
L 1147 -513 
L 2003 -513 
L 2003 -844 
L 550 -844 
L 550 4863 
z
" transform="scale(0.015625)"/>
       <path id="DejaVuSerif-64" d="M 3359 331 
L 3909 331 
L 3909 0 
L 2784 0 
L 2784 519 
Q 2616 206 2355 57 
Q 2094 -91 1709 -91 
Q 1097 -91 708 395 
Q 319 881 319 1663 
Q 319 2444 706 2928 
Q 1094 3413 1709 3413 
Q 2094 3413 2355 3264 
Q 2616 3116 2784 2803 
L 2784 4531 
L 2241 4531 
L 2241 4863 
L 3359 4863 
L 3359 331 
z
M 2784 1497 
L 2784 1825 
Q 2784 2422 2554 2737 
Q 2325 3053 1888 3053 
Q 1444 3053 1217 2703 
Q 991 2353 991 1663 
Q 991 975 1217 622 
Q 1444 269 1888 269 
Q 2325 269 2554 583 
Q 2784 897 2784 1497 
z
" transform="scale(0.015625)"/>
       <path id="DejaVuSerif-65" d="M 3469 1600 
L 991 1600 
L 991 1575 
Q 991 903 1244 561 
Q 1497 219 1991 219 
Q 2369 219 2611 417 
Q 2853 616 2950 1006 
L 3413 1006 
Q 3275 459 2904 184 
Q 2534 -91 1931 -91 
Q 1203 -91 761 389 
Q 319 869 319 1663 
Q 319 2450 753 2931 
Q 1188 3413 1894 3413 
Q 2647 3413 3050 2948 
Q 3453 2484 3469 1600 
z
M 2791 1931 
Q 2772 2513 2545 2808 
Q 2319 3103 1894 3103 
Q 1497 3103 1269 2806 
Q 1041 2509 991 1931 
L 2791 1931 
z
" transform="scale(0.015625)"/>
       <path id="DejaVuSerif-67" d="M 3359 2988 
L 3359 72 
Q 3359 -644 2965 -1033 
Q 2572 -1422 1844 -1422 
Q 1516 -1422 1216 -1362 
Q 916 -1303 641 -1184 
L 641 -488 
L 941 -488 
Q 997 -813 1206 -963 
Q 1416 -1113 1806 -1113 
Q 2313 -1113 2548 -827 
Q 2784 -541 2784 72 
L 2784 519 
Q 2616 206 2355 57 
Q 2094 -91 1709 -91 
Q 1097 -91 708 395 
Q 319 881 319 1663 
Q 319 2444 706 2928 
Q 1094 3413 1709 3413 
Q 2094 3413 2355 3264 
Q 2616 3116 2784 2803 
L 2784 3322 
L 3909 3322 
L 3909 2988 
L 3359 2988 
z
M 2784 1825 
Q 2784 2422 2554 2737 
Q 2325 3053 1888 3053 
Q 1444 3053 1217 2703 
Q 991 2353 991 1663 
Q 991 975 1217 622 
Q 1444 269 1888 269 
Q 2325 269 2554 583 
Q 2784 897 2784 1497 
L 2784 1825 
z
" transform="scale(0.015625)"/>
       <path id="DejaVuSerif-5d" d="M 1947 4863 
L 1947 -844 
L 494 -844 
L 494 -513 
L 1350 -513 
L 1350 4531 
L 494 4531 
L 494 4863 
L 1947 4863 
z
" transform="scale(0.015625)"/>
      </defs>
      <use xlink:href="#DejaVuSans-Oblique-3b2" transform="translate(0 0.390625)"/>
      <use xlink:href="#DejaVuSerif-20" transform="translate(63.818359 0.390625)"/>
      <use xlink:href="#DejaVuSerif-5b" transform="translate(95.605469 0.390625)"/>
      <use xlink:href="#DejaVuSerif-64" transform="translate(134.619141 0.390625)"/>
      <use xlink:href="#DejaVuSerif-65" transform="translate(198.632812 0.390625)"/>
      <use xlink:href="#DejaVuSerif-67" transform="translate(257.8125 0.390625)"/>
      <use xlink:href="#DejaVuSerif-5d" transform="translate(321.826172 0.390625)"/>
     </g>
    </g>
   </g>
   <g id="line2d_11">
    <path d="M 28.259984 34.114422 
L 29.054454 34.204218 
L 29.900181 34.536855 
L 32.488618 35.866479 
L 35.871525 37.880726 
L 40.100159 40.687038 
L 46.712205 45.393243 
L 50.735815 48.205899 
L 51.479029 48.378262 
L 52.196616 48.312182 
L 53.119227 47.976025 
L 55.34887 46.836656 
L 58.065448 45.188799 
L 61.397099 42.887844 
L 65.856386 39.497025 
L 71.392052 35.019009 
L 79.336759 28.304573 
L 86.871416 21.996532 
L 91.458843 18.427105 
L 95.200544 15.791084 
L 98.557823 13.692418 
L 101.735706 11.975953 
L 102.940226 11.496792 
L 103.68344 11.476831 
L 104.477911 11.685163 
L 105.759315 12.340315 
L 111.089957 15.296432 
L 122.69948 22.228225 
L 130.105997 27.088894 
L 137.640654 32.226459 
L 143.996419 36.843951 
L 151.402936 42.524422 
L 161.269749 50.070557 
L 165.805921 53.249439 
L 169.855158 55.800257 
L 173.44309 57.802956 
L 176.851626 59.466366 
L 177.928005 59.942806 
L 177.928005 59.942806 
" clip-path="url(#pfe8396a575)" style="fill: none; stroke: #ff0000; stroke-width: 0.4; stroke-linecap: round"/>
   </g>
   <g id="line2d_12">
    <path d="M 28.259984 34.114422 
L 29.054454 34.174105 
L 29.848925 34.459553 
L 32.334849 35.677596 
L 35.512732 37.499848 
L 39.920763 40.312032 
L 48.147378 45.895472 
L 51.453401 48.023327 
L 52.222244 48.20087 
L 52.93983 48.142966 
L 53.759929 47.826474 
L 55.963944 46.712461 
L 58.552381 45.142659 
L 61.858404 42.841868 
L 65.600105 39.946511 
L 70.161904 36.129057 
L 74.723703 31.981894 
L 81.079469 25.831341 
L 88.101564 19.071982 
L 91.997033 15.630333 
L 95.277428 13.028504 
L 98.224658 10.965699 
L 100.146765 9.840768 
L 100.864351 9.711782 
L 101.556309 9.809742 
L 102.325152 10.161582 
L 105.656803 12.178728 
L 112.294477 16.380873 
L 117.189442 19.474761 
L 125.723594 24.969411 
L 141.023562 35.13952 
L 151.069771 42.230468 
L 159.040106 47.764053 
L 164.063211 50.987449 
L 168.394357 53.506574 
L 172.546107 55.65118 
L 176.492832 57.438939 
L 180.388301 58.960974 
L 181.259656 59.269206 
L 181.259656 59.269206 
" clip-path="url(#pfe8396a575)" style="fill: none; stroke: #0000ff; stroke-width: 0.4; stroke-linecap: round"/>
   </g>
   <g id="patch_3">
    <path d="M 20.61 62.454368 
L 20.61 7.2 
" style="fill: none; stroke: #000000; stroke-linejoin: miter; stroke-linecap: square"/>
   </g>
   <g id="patch_4">
    <path d="M 20.61 62.454368 
L 188.90964 62.454368 
" style="fill: none; stroke: #000000; stroke-linejoin: miter; stroke-linecap: square"/>
   </g>
   <g id="legend_1"/>
   <g id="line2d_13">
    <path d="M 28.259984 34.400514 
L 29.080098 34.636466 
L 30.335897 35.294307 
L 32.462997 36.260342 
L 36.717265 38.085455 
L 38.921262 39.34486 
L 41.637875 41.149944 
L 45.353953 43.907568 
L 49.73634 47.021078 
L 50.60768 47.296803 
L 51.402148 47.308922 
L 53.016771 47.197589 
L 57.117226 47.019425 
L 58.98812 46.66771 
L 60.70521 46.134809 
L 62.52475 45.312316 
L 65.395075 43.744309 
L 70.392562 40.745077 
L 73.980479 38.54806 
L 80.054363 34.997726 
L 83.898561 32.188056 
L 96.046286 23.081551 
L 105.144236 15.980245 
L 108.885939 13.416461 
L 112.499517 11.173198 
L 114.985421 9.889697 
L 115.83114 9.724345 
L 116.600014 9.801 
L 123.263349 11.529755 
L 125.134159 12.432088 
L 127.799472 14.115573 
L 135.872321 19.629488 
L 140.254732 22.233582 
L 147.866248 26.572703 
L 150.608463 28.131835 
L 155.298408 30.594699 
L 165.600893 37.156291 
L 177.799867 45.870396 
L 181.234031 48.402748 
L 181.234031 48.402748 
" clip-path="url(#pfe8396a575)" style="fill: none; stroke: #000000; stroke-width: 0.7; stroke-linecap: round"/>
   </g>
  </g>
  <g id="axes_2">
   <g id="patch_5">
    <path d="M 20.61 124.908736 
L 188.90964 124.908736 
L 188.90964 69.654368 
L 20.61 69.654368 
z
" style="fill: #ffffff"/>
   </g>
   <g id="matplotlib.axis_3">
    <g id="xtick_8">
     <g id="line2d_14"/>
     <g id="text_5">
      <!-- 0 -->
      <g style="fill: #262626" transform="translate(26.033109 133.727642) scale(0.07 -0.07)">
       <use xlink:href="#DejaVuSerif-30"/>
      </g>
     </g>
    </g>
    <g id="xtick_9">
     <g id="line2d_15"/>
     <g id="text_6">
      <!-- 10 -->
      <g style="fill: #262626" transform="translate(49.43432 133.727642) scale(0.07 -0.07)">
       <defs>
        <path id="DejaVuSerif-31" d="M 909 0 
L 909 331 
L 1722 331 
L 1722 4213 
L 781 3603 
L 781 4013 
L 1919 4750 
L 2350 4750 
L 2350 331 
L 3163 331 
L 3163 0 
L 909 0 
z
" transform="scale(0.015625)"/>
       </defs>
       <use xlink:href="#DejaVuSerif-31"/>
       <use xlink:href="#DejaVuSerif-30" x="63.623047"/>
      </g>
     </g>
    </g>
    <g id="xtick_10">
     <g id="line2d_16"/>
     <g id="text_7">
      <!-- 20 -->
      <g style="fill: #262626" transform="translate(75.062405 133.727642) scale(0.07 -0.07)">
       <defs>
        <path id="DejaVuSerif-32" d="M 819 3553 
L 469 3553 
L 469 4384 
Q 803 4563 1142 4656 
Q 1481 4750 1806 4750 
Q 2534 4750 2956 4397 
Q 3378 4044 3378 3438 
Q 3378 2753 2422 1800 
Q 2347 1728 2309 1691 
L 1131 513 
L 3078 513 
L 3078 1088 
L 3444 1088 
L 3444 0 
L 434 0 
L 434 341 
L 1850 1753 
Q 2319 2222 2519 2614 
Q 2719 3006 2719 3438 
Q 2719 3909 2473 4175 
Q 2228 4441 1797 4441 
Q 1350 4441 1106 4219 
Q 863 3997 819 3553 
z
" transform="scale(0.015625)"/>
       </defs>
       <use xlink:href="#DejaVuSerif-32"/>
       <use xlink:href="#DejaVuSerif-30" x="63.623047"/>
      </g>
     </g>
    </g>
    <g id="xtick_11">
     <g id="line2d_17"/>
     <g id="text_8">
      <!-- 30 -->
      <g style="fill: #262626" transform="translate(100.690491 133.727642) scale(0.07 -0.07)">
       <defs>
        <path id="DejaVuSerif-33" d="M 622 4469 
Q 988 4606 1323 4678 
Q 1659 4750 1953 4750 
Q 2638 4750 3022 4454 
Q 3406 4159 3406 3634 
Q 3406 3213 3140 2930 
Q 2875 2647 2388 2547 
Q 2963 2466 3280 2130 
Q 3597 1794 3597 1259 
Q 3597 606 3158 257 
Q 2719 -91 1894 -91 
Q 1528 -91 1179 -12 
Q 831 66 488 225 
L 488 1131 
L 838 1131 
Q 869 681 1141 450 
Q 1413 219 1906 219 
Q 2384 219 2661 495 
Q 2938 772 2938 1253 
Q 2938 1803 2653 2086 
Q 2369 2369 1819 2369 
L 1522 2369 
L 1522 2688 
L 1678 2688 
Q 2225 2688 2498 2914 
Q 2772 3141 2772 3597 
Q 2772 4006 2547 4223 
Q 2322 4441 1900 4441 
Q 1478 4441 1245 4241 
Q 1013 4041 972 3647 
L 622 3647 
L 622 4469 
z
" transform="scale(0.015625)"/>
       </defs>
       <use xlink:href="#DejaVuSerif-33"/>
       <use xlink:href="#DejaVuSerif-30" x="63.623047"/>
      </g>
     </g>
    </g>
    <g id="xtick_12">
     <g id="line2d_18"/>
     <g id="text_9">
      <!-- 40 -->
      <g style="fill: #262626" transform="translate(126.318577 133.727642) scale(0.07 -0.07)">
       <defs>
        <path id="DejaVuSerif-34" d="M 2234 1581 
L 2234 4063 
L 641 1581 
L 2234 1581 
z
M 3609 0 
L 1484 0 
L 1484 331 
L 2234 331 
L 2234 1247 
L 197 1247 
L 197 1588 
L 2241 4750 
L 2859 4750 
L 2859 1581 
L 3750 1581 
L 3750 1247 
L 2859 1247 
L 2859 331 
L 3609 331 
L 3609 0 
z
" transform="scale(0.015625)"/>
       </defs>
       <use xlink:href="#DejaVuSerif-34"/>
       <use xlink:href="#DejaVuSerif-30" x="63.623047"/>
      </g>
     </g>
    </g>
    <g id="xtick_13">
     <g id="line2d_19"/>
     <g id="text_10">
      <!-- 50 -->
      <g style="fill: #262626" transform="translate(151.946663 133.727642) scale(0.07 -0.07)">
       <use xlink:href="#DejaVuSerif-35"/>
       <use xlink:href="#DejaVuSerif-30" x="63.623047"/>
      </g>
     </g>
    </g>
    <g id="xtick_14">
     <g id="line2d_20"/>
     <g id="text_11">
      <!-- 60 -->
      <g style="fill: #262626" transform="translate(177.574749 133.727642) scale(0.07 -0.07)">
       <defs>
        <path id="DejaVuSerif-36" d="M 2094 219 
Q 2534 219 2771 542 
Q 3009 866 3009 1472 
Q 3009 2078 2771 2401 
Q 2534 2725 2094 2725 
Q 1647 2725 1412 2412 
Q 1178 2100 1178 1509 
Q 1178 888 1415 553 
Q 1653 219 2094 219 
z
M 1075 2569 
Q 1288 2803 1556 2918 
Q 1825 3034 2163 3034 
Q 2859 3034 3264 2615 
Q 3669 2197 3669 1472 
Q 3669 763 3233 336 
Q 2797 -91 2069 -91 
Q 1278 -91 853 498 
Q 428 1088 428 2181 
Q 428 3406 931 4078 
Q 1434 4750 2350 4750 
Q 2597 4750 2869 4703 
Q 3141 4656 3425 4563 
L 3425 3794 
L 3072 3794 
Q 3034 4109 2831 4275 
Q 2628 4441 2284 4441 
Q 1678 4441 1381 3981 
Q 1084 3522 1075 2569 
z
" transform="scale(0.015625)"/>
       </defs>
       <use xlink:href="#DejaVuSerif-36"/>
       <use xlink:href="#DejaVuSerif-30" x="63.623047"/>
      </g>
     </g>
    </g>
    <g id="text_12">
     <!-- Time [s] -->
     <g style="fill: #262626" transform="translate(92.344976 143.742486) scale(0.06 -0.06)">
      <defs>
       <path id="DejaVuSerif-54" d="M 1222 0 
L 1222 331 
L 1819 331 
L 1819 4294 
L 447 4294 
L 447 3566 
L 63 3566 
L 63 4666 
L 4206 4666 
L 4206 3566 
L 3822 3566 
L 3822 4294 
L 2450 4294 
L 2450 331 
L 3047 331 
L 3047 0 
L 1222 0 
z
" transform="scale(0.015625)"/>
       <path id="DejaVuSerif-69" d="M 622 4353 
Q 622 4497 726 4603 
Q 831 4709 978 4709 
Q 1122 4709 1226 4603 
Q 1331 4497 1331 4353 
Q 1331 4206 1228 4103 
Q 1125 4000 978 4000 
Q 831 4000 726 4103 
Q 622 4206 622 4353 
z
M 1356 331 
L 1900 331 
L 1900 0 
L 231 0 
L 231 331 
L 781 331 
L 781 2988 
L 231 2988 
L 231 3322 
L 1356 3322 
L 1356 331 
z
" transform="scale(0.015625)"/>
       <path id="DejaVuSerif-6d" d="M 3316 2675 
Q 3481 3041 3739 3227 
Q 3997 3413 4341 3413 
Q 4863 3413 5119 3089 
Q 5375 2766 5375 2113 
L 5375 331 
L 5894 331 
L 5894 0 
L 4300 0 
L 4300 331 
L 4800 331 
L 4800 2047 
Q 4800 2556 4650 2772 
Q 4500 2988 4153 2988 
Q 3769 2988 3567 2697 
Q 3366 2406 3366 1850 
L 3366 331 
L 3866 331 
L 3866 0 
L 2291 0 
L 2291 331 
L 2791 331 
L 2791 2069 
Q 2791 2566 2641 2777 
Q 2491 2988 2144 2988 
Q 1759 2988 1557 2697 
Q 1356 2406 1356 1850 
L 1356 331 
L 1856 331 
L 1856 0 
L 263 0 
L 263 331 
L 781 331 
L 781 2994 
L 231 2994 
L 231 3322 
L 1356 3322 
L 1356 2731 
Q 1516 3063 1762 3238 
Q 2009 3413 2322 3413 
Q 2709 3413 2968 3220 
Q 3228 3028 3316 2675 
z
" transform="scale(0.015625)"/>
       <path id="DejaVuSerif-73" d="M 359 184 
L 359 959 
L 691 959 
Q 703 588 923 403 
Q 1144 219 1575 219 
Q 1963 219 2166 364 
Q 2369 509 2369 788 
Q 2369 1006 2220 1140 
Q 2072 1275 1594 1428 
L 1178 1569 
Q 750 1706 558 1912 
Q 366 2119 366 2438 
Q 366 2894 700 3153 
Q 1034 3413 1625 3413 
Q 1888 3413 2178 3344 
Q 2469 3275 2778 3144 
L 2778 2419 
L 2447 2419 
Q 2434 2741 2221 2922 
Q 2009 3103 1644 3103 
Q 1281 3103 1095 2975 
Q 909 2847 909 2591 
Q 909 2381 1050 2254 
Q 1191 2128 1613 1997 
L 2069 1856 
Q 2541 1709 2748 1489 
Q 2956 1269 2956 922 
Q 2956 450 2595 179 
Q 2234 -91 1600 -91 
Q 1278 -91 972 -22 
Q 666 47 359 184 
z
" transform="scale(0.015625)"/>
      </defs>
      <use xlink:href="#DejaVuSerif-54"/>
      <use xlink:href="#DejaVuSerif-69" x="66.699219"/>
      <use xlink:href="#DejaVuSerif-6d" x="98.681641"/>
      <use xlink:href="#DejaVuSerif-65" x="193.505859"/>
      <use xlink:href="#DejaVuSerif-20" x="252.685547"/>
      <use xlink:href="#DejaVuSerif-5b" x="284.472656"/>
      <use xlink:href="#DejaVuSerif-73" x="323.486328"/>
      <use xlink:href="#DejaVuSerif-5d" x="374.804688"/>
     </g>
    </g>
   </g>
   <g id="matplotlib.axis_4">
    <g id="ytick_4">
     <g id="line2d_21"/>
     <g id="text_13">
      <!-- −20 -->
      <g style="fill: #262626" transform="translate(2.336719 126.716468) scale(0.07 -0.07)">
       <use xlink:href="#DejaVuSerif-2212"/>
       <use xlink:href="#DejaVuSerif-32" x="83.789062"/>
       <use xlink:href="#DejaVuSerif-30" x="147.412109"/>
      </g>
     </g>
    </g>
    <g id="ytick_5">
     <g id="line2d_22"/>
     <g id="text_14">
      <!-- 0 -->
      <g style="fill: #262626" transform="translate(12.65625 103.844802) scale(0.07 -0.07)">
       <use xlink:href="#DejaVuSerif-30"/>
      </g>
     </g>
    </g>
    <g id="ytick_6">
     <g id="line2d_23"/>
     <g id="text_15">
      <!-- 20 -->
      <g style="fill: #262626" transform="translate(8.2025 80.973136) scale(0.07 -0.07)">
       <use xlink:href="#DejaVuSerif-32"/>
       <use xlink:href="#DejaVuSerif-30" x="63.623047"/>
      </g>
     </g>
    </g>
    <g id="text_16">
     <!-- $\psi$ [deg] -->
     <g style="fill: #262626" transform="translate(-3.043281 108.171552) rotate(-90) scale(0.06 -0.06)">
      <defs>
       <path id="DejaVuSans-Oblique-3c8" d="M 1591 -78 
Q 891 38 616 341 
Q 278 713 425 1472 
L 819 3500 
L 1400 3500 
L 1009 1494 
Q 900 922 1119 684 
Q 1313 478 1691 434 
L 2284 3500 
L 2856 3500 
L 2263 438 
Q 2681 481 2928 688 
Q 3247 950 3353 1497 
L 3741 3500 
L 4322 3500 
L 3928 1475 
Q 3775 688 3300 344 
Q 2872 34 2163 -75 
L 1919 -1331 
L 1347 -1331 
L 1591 -78 
z
" transform="scale(0.015625)"/>
      </defs>
      <use xlink:href="#DejaVuSans-Oblique-3c8" transform="translate(0 0.015625)"/>
      <use xlink:href="#DejaVuSerif-20" transform="translate(65.966797 0.015625)"/>
      <use xlink:href="#DejaVuSerif-5b" transform="translate(97.753906 0.015625)"/>
      <use xlink:href="#DejaVuSerif-64" transform="translate(136.767578 0.015625)"/>
      <use xlink:href="#DejaVuSerif-65" transform="translate(200.78125 0.015625)"/>
      <use xlink:href="#DejaVuSerif-67" transform="translate(259.960938 0.015625)"/>
      <use xlink:href="#DejaVuSerif-5d" transform="translate(323.974609 0.015625)"/>
     </g>
    </g>
   </g>
   <g id="line2d_24">
    <path d="M 28.259984 101.185349 
L 30.669024 101.294701 
L 32.59113 101.637744 
L 34.667005 102.24124 
L 36.87102 103.115826 
L 39.203176 104.284115 
L 41.637844 105.755581 
L 44.200653 107.569734 
L 46.814718 109.697154 
L 49.505667 112.180243 
L 53.452392 115.887219 
L 55.066961 116.9917 
L 56.784043 117.897334 
L 58.603637 118.605396 
L 60.525744 119.113736 
L 62.524734 119.414179 
L 64.626238 119.50399 
L 66.804625 119.371944 
L 69.034268 119.014011 
L 71.315168 118.42383 
L 73.647324 117.589244 
L 76.005108 116.509663 
L 78.414148 115.160923 
L 80.900072 113.510541 
L 83.462881 111.535818 
L 86.128202 109.197321 
L 88.921663 106.444987 
L 91.868893 103.222922 
L 95.072404 99.382478 
L 98.609079 94.786509 
L 102.837714 88.912398 
L 105.195497 85.762731 
L 106.963835 83.791931 
L 108.885942 81.982555 
L 110.961817 80.33554 
L 113.19146 78.852932 
L 115.626128 77.50417 
L 118.240193 76.308365 
L 120.905514 75.334233 
L 123.519579 74.611283 
L 126.108016 74.124598 
L 128.747708 73.851573 
L 131.413029 73.798177 
L 134.07835 73.966702 
L 136.718043 74.355921 
L 139.30648 74.960102 
L 141.894916 75.794176 
L 144.457725 76.854585 
L 147.020534 78.156885 
L 149.60897 79.723321 
L 152.223035 81.568276 
L 154.913984 83.743258 
L 157.656189 86.247811 
L 160.526535 89.175706 
L 163.550649 92.586038 
L 166.75416 96.539904 
L 170.239579 101.203757 
L 174.032536 106.660268 
L 177.928005 112.618143 
L 177.928005 112.618143 
" clip-path="url(#pa3d94491e1)" style="fill: none; stroke: #ff0000; stroke-width: 0.4; stroke-linecap: round"/>
   </g>
   <g id="line2d_25">
    <path d="M 28.259984 101.185349 
L 30.797164 101.294172 
L 32.744899 101.633668 
L 34.846402 102.228505 
L 37.101673 103.101056 
L 39.510713 104.276075 
L 42.022266 105.749202 
L 44.661959 107.556377 
L 47.429792 109.724297 
L 50.300137 112.257702 
L 54.118722 115.668099 
L 55.733292 116.716888 
L 57.450373 117.569432 
L 59.269968 118.225715 
L 61.192074 118.682452 
L 63.191065 118.93045 
L 65.26694 118.964315 
L 67.419699 118.774093 
L 69.598086 118.358013 
L 71.802102 117.709972 
L 74.006117 116.827075 
L 76.210132 115.703458 
L 78.465404 114.303074 
L 80.771932 112.605915 
L 83.155344 110.571241 
L 85.641268 108.153186 
L 88.255333 105.294343 
L 91.048794 101.903535 
L 94.098536 97.841237 
L 97.507072 92.917996 
L 103.452788 84.216332 
L 105.195497 82.29431 
L 107.066348 80.561568 
L 109.116595 78.969088 
L 111.32061 77.541347 
L 113.652766 76.296406 
L 116.241202 75.16814 
L 118.95778 74.224048 
L 121.751241 73.489713 
L 124.467818 73.005364 
L 127.210023 72.740692 
L 130.003485 72.694043 
L 132.822574 72.869334 
L 135.641663 73.267602 
L 138.435125 73.887542 
L 141.17733 74.724917 
L 143.919535 75.797058 
L 146.636112 77.098326 
L 149.403946 78.671498 
L 152.223035 80.531729 
L 155.119009 82.711796 
L 158.143123 85.271852 
L 161.295377 88.235595 
L 164.627029 91.676961 
L 168.214961 95.707404 
L 172.161686 100.484462 
L 176.492832 106.084396 
L 181.259656 112.610313 
L 181.259656 112.610313 
" clip-path="url(#pa3d94491e1)" style="fill: none; stroke: #0000ff; stroke-width: 0.4; stroke-linecap: round"/>
   </g>
   <g id="patch_6">
    <path d="M 20.61 124.908736 
L 20.61 69.654368 
" style="fill: none; stroke: #000000; stroke-linejoin: miter; stroke-linecap: square"/>
   </g>
   <g id="patch_7">
    <path d="M 20.61 124.908736 
L 188.90964 124.908736 
" style="fill: none; stroke: #000000; stroke-linejoin: miter; stroke-linecap: square"/>
   </g>
   <g id="line2d_26">
    <path d="M 28.259984 101.378399 
L 30.438363 101.60653 
L 32.386152 102.060776 
L 34.513319 102.790398 
L 36.794131 103.812095 
L 39.22881 105.152002 
L 41.74037 106.789255 
L 44.277537 108.708901 
L 46.840348 110.931424 
L 49.608182 113.641152 
L 51.940327 115.847435 
L 53.708675 117.182873 
L 55.707674 118.412968 
L 57.937374 119.524111 
L 60.320714 120.465353 
L 62.883543 121.235025 
L 65.651356 121.834128 
L 68.496068 122.222167 
L 71.366422 122.392224 
L 74.031781 122.327142 
L 76.645835 122.042885 
L 79.157365 121.546912 
L 81.643279 120.825976 
L 84.20609 119.849282 
L 86.717694 118.654543 
L 89.177944 117.235435 
L 91.740768 115.498237 
L 94.303553 113.492411 
L 96.892 111.179481 
L 99.557319 108.493754 
L 102.427674 105.277171 
L 105.605562 101.376933 
L 109.706064 95.958512 
L 114.729166 88.955447 
L 117.240693 85.58783 
L 118.983433 83.65422 
L 120.956783 81.799111 
L 123.160783 80.03359 
L 125.518577 78.429172 
L 128.004489 77.007241 
L 130.695443 75.726829 
L 133.565778 74.609466 
L 136.538659 73.691242 
L 139.614012 72.974815 
L 142.740643 72.472211 
L 145.76475 72.211807 
L 148.711998 72.18017 
L 151.68484 72.371091 
L 154.58088 72.779352 
L 157.374278 73.397205 
L 160.142119 74.238263 
L 163.012454 75.345155 
L 165.934097 76.715778 
L 168.906927 78.358199 
L 171.982282 80.314199 
L 174.903914 82.432235 
L 177.671722 84.714706 
L 180.388304 87.24383 
L 181.234031 88.091298 
L 181.234031 88.091298 
" clip-path="url(#pa3d94491e1)" style="fill: none; stroke: #000000; stroke-width: 0.7; stroke-linecap: round"/>
   </g>
  </g>
 </g>
 <defs>
  <clipPath id="pfe8396a575">
   <rect x="20.61" y="7.2" width="168.29964" height="55.254368"/>
  </clipPath>
  <clipPath id="pa3d94491e1">
   <rect x="20.61" y="69.654368" width="168.29964" height="55.254368"/>
  </clipPath>
 </defs>
</svg>
