<?xml version="1.0" encoding="utf-8" standalone="no"?>
<!DOCTYPE svg PUBLIC "-//W3C//DTD SVG 1.1//EN"
  "http://www.w3.org/Graphics/SVG/1.1/DTD/svg11.dtd">
<svg xmlns:xlink="http://www.w3.org/1999/xlink" width="388.61928pt" height="218.623104pt" viewBox="0 0 388.61928 218.623104" xmlns="http://www.w3.org/2000/svg" version="1.1">
 <metadata>
  <rdf:RDF xmlns:dc="http://purl.org/dc/elements/1.1/" xmlns:cc="http://creativecommons.org/ns#" xmlns:rdf="http://www.w3.org/1999/02/22-rdf-syntax-ns#">
   <cc:Work>
    <dc:type rdf:resource="http://purl.org/dc/dcmitype/StillImage"/>
    <dc:date>2024-11-12T18:09:49.439852</dc:date>
    <dc:format>image/svg+xml</dc:format>
    <dc:creator>
     <cc:Agent>
      <dc:title>Matplotlib v3.8.2, https://matplotlib.org/</dc:title>
     </cc:Agent>
    </dc:creator>
   </cc:Work>
  </rdf:RDF>
 </metadata>
 <defs>
  <style type="text/css">*{stroke-linejoin: round; stroke-linecap: butt}</style>
 </defs>
 <g id="figure_1">
  <g id="patch_1">
   <path d="M 0 218.623104 
L 388.61928 218.623104 
L 388.61928 0 
L 0 0 
z
" style="fill: #ffffff"/>
  </g>
  <g id="axes_1">
   <g id="patch_2">
    <path d="M 25.214615 195.528177 
L 385.61904 195.528177 
L 385.61904 27.094314 
L 25.214615 27.094314 
z
" style="fill: #ffffff"/>
   </g>
   <g id="matplotlib.axis_1">
    <g id="xtick_1">
     <g id="line2d_1">
      <path d="M 43.581556 195.528177 
L 43.581556 27.094314 
" clip-path="url(#pf7822c44e2)" style="fill: none; stroke: #b0b0b0; stroke-width: 0.1; stroke-linecap: round"/>
     </g>
     <g id="line2d_2"/>
     <g id="text_1">
      <!-- −40 -->
      <g style="fill: #262626" transform="translate(36.194916 204.347083) scale(0.07 -0.07)">
       <defs>
        <path id="DejaVuSerif-2212" d="M 678 2259 
L 4684 2259 
L 4684 1753 
L 678 1753 
L 678 2259 
z
" transform="scale(0.015625)"/>
        <path id="DejaVuSerif-34" d="M 2234 1581 
L 2234 4063 
L 641 1581 
L 2234 1581 
z
M 3609 0 
L 1484 0 
L 1484 331 
L 2234 331 
L 2234 1247 
L 197 1247 
L 197 1588 
L 2241 4750 
L 2859 4750 
L 2859 1581 
L 3750 1581 
L 3750 1247 
L 2859 1247 
L 2859 331 
L 3609 331 
L 3609 0 
z
" transform="scale(0.015625)"/>
        <path id="DejaVuSerif-30" d="M 2034 219 
Q 2513 219 2750 744 
Q 2988 1269 2988 2328 
Q 2988 3391 2750 3916 
Q 2513 4441 2034 4441 
Q 1556 4441 1318 3916 
Q 1081 3391 1081 2328 
Q 1081 1269 1318 744 
Q 1556 219 2034 219 
z
M 2034 -91 
Q 1275 -91 848 546 
Q 422 1184 422 2328 
Q 422 3475 848 4112 
Q 1275 4750 2034 4750 
Q 2797 4750 3222 4112 
Q 3647 3475 3647 2328 
Q 3647 1184 3222 546 
Q 2797 -91 2034 -91 
z
" transform="scale(0.015625)"/>
       </defs>
       <use xlink:href="#DejaVuSerif-2212"/>
       <use xlink:href="#DejaVuSerif-34" x="83.789062"/>
       <use xlink:href="#DejaVuSerif-30" x="147.412109"/>
      </g>
     </g>
    </g>
    <g id="xtick_2">
     <g id="line2d_3">
      <path d="M 84.98503 195.528177 
L 84.98503 27.094314 
" clip-path="url(#pf7822c44e2)" style="fill: none; stroke: #b0b0b0; stroke-width: 0.1; stroke-linecap: round"/>
     </g>
     <g id="line2d_4"/>
     <g id="text_2">
      <!-- −30 -->
      <g style="fill: #262626" transform="translate(77.598389 204.347083) scale(0.07 -0.07)">
       <defs>
        <path id="DejaVuSerif-33" d="M 622 4469 
Q 988 4606 1323 4678 
Q 1659 4750 1953 4750 
Q 2638 4750 3022 4454 
Q 3406 4159 3406 3634 
Q 3406 3213 3140 2930 
Q 2875 2647 2388 2547 
Q 2963 2466 3280 2130 
Q 3597 1794 3597 1259 
Q 3597 606 3158 257 
Q 2719 -91 1894 -91 
Q 1528 -91 1179 -12 
Q 831 66 488 225 
L 488 1131 
L 838 1131 
Q 869 681 1141 450 
Q 1413 219 1906 219 
Q 2384 219 2661 495 
Q 2938 772 2938 1253 
Q 2938 1803 2653 2086 
Q 2369 2369 1819 2369 
L 1522 2369 
L 1522 2688 
L 1678 2688 
Q 2225 2688 2498 2914 
Q 2772 3141 2772 3597 
Q 2772 4006 2547 4223 
Q 2322 4441 1900 4441 
Q 1478 4441 1245 4241 
Q 1013 4041 972 3647 
L 622 3647 
L 622 4469 
z
" transform="scale(0.015625)"/>
       </defs>
       <use xlink:href="#DejaVuSerif-2212"/>
       <use xlink:href="#DejaVuSerif-33" x="83.789062"/>
       <use xlink:href="#DejaVuSerif-30" x="147.412109"/>
      </g>
     </g>
    </g>
    <g id="xtick_3">
     <g id="line2d_5">
      <path d="M 126.388504 195.528177 
L 126.388504 27.094314 
" clip-path="url(#pf7822c44e2)" style="fill: none; stroke: #b0b0b0; stroke-width: 0.1; stroke-linecap: round"/>
     </g>
     <g id="line2d_6"/>
     <g id="text_3">
      <!-- −20 -->
      <g style="fill: #262626" transform="translate(119.001863 204.347083) scale(0.07 -0.07)">
       <defs>
        <path id="DejaVuSerif-32" d="M 819 3553 
L 469 3553 
L 469 4384 
Q 803 4563 1142 4656 
Q 1481 4750 1806 4750 
Q 2534 4750 2956 4397 
Q 3378 4044 3378 3438 
Q 3378 2753 2422 1800 
Q 2347 1728 2309 1691 
L 1131 513 
L 3078 513 
L 3078 1088 
L 3444 1088 
L 3444 0 
L 434 0 
L 434 341 
L 1850 1753 
Q 2319 2222 2519 2614 
Q 2719 3006 2719 3438 
Q 2719 3909 2473 4175 
Q 2228 4441 1797 4441 
Q 1350 4441 1106 4219 
Q 863 3997 819 3553 
z
" transform="scale(0.015625)"/>
       </defs>
       <use xlink:href="#DejaVuSerif-2212"/>
       <use xlink:href="#DejaVuSerif-32" x="83.789062"/>
       <use xlink:href="#DejaVuSerif-30" x="147.412109"/>
      </g>
     </g>
    </g>
    <g id="xtick_4">
     <g id="line2d_7">
      <path d="M 167.791977 195.528177 
L 167.791977 27.094314 
" clip-path="url(#pf7822c44e2)" style="fill: none; stroke: #b0b0b0; stroke-width: 0.1; stroke-linecap: round"/>
     </g>
     <g id="line2d_8"/>
     <g id="text_4">
      <!-- −10 -->
      <g style="fill: #262626" transform="translate(160.405337 204.347083) scale(0.07 -0.07)">
       <defs>
        <path id="DejaVuSerif-31" d="M 909 0 
L 909 331 
L 1722 331 
L 1722 4213 
L 781 3603 
L 781 4013 
L 1919 4750 
L 2350 4750 
L 2350 331 
L 3163 331 
L 3163 0 
L 909 0 
z
" transform="scale(0.015625)"/>
       </defs>
       <use xlink:href="#DejaVuSerif-2212"/>
       <use xlink:href="#DejaVuSerif-31" x="83.789062"/>
       <use xlink:href="#DejaVuSerif-30" x="147.412109"/>
      </g>
     </g>
    </g>
    <g id="xtick_5">
     <g id="line2d_9">
      <path d="M 209.195451 195.528177 
L 209.195451 27.094314 
" clip-path="url(#pf7822c44e2)" style="fill: none; stroke: #b0b0b0; stroke-width: 0.1; stroke-linecap: round"/>
     </g>
     <g id="line2d_10"/>
     <g id="text_5">
      <!-- 0 -->
      <g style="fill: #262626" transform="translate(206.968576 204.347083) scale(0.07 -0.07)">
       <use xlink:href="#DejaVuSerif-30"/>
      </g>
     </g>
    </g>
    <g id="xtick_6">
     <g id="line2d_11">
      <path d="M 250.598925 195.528177 
L 250.598925 27.094314 
" clip-path="url(#pf7822c44e2)" style="fill: none; stroke: #b0b0b0; stroke-width: 0.1; stroke-linecap: round"/>
     </g>
     <g id="line2d_12"/>
     <g id="text_6">
      <!-- 10 -->
      <g style="fill: #262626" transform="translate(246.145175 204.347083) scale(0.07 -0.07)">
       <use xlink:href="#DejaVuSerif-31"/>
       <use xlink:href="#DejaVuSerif-30" x="63.623047"/>
      </g>
     </g>
    </g>
    <g id="xtick_7">
     <g id="line2d_13">
      <path d="M 292.002398 195.528177 
L 292.002398 27.094314 
" clip-path="url(#pf7822c44e2)" style="fill: none; stroke: #b0b0b0; stroke-width: 0.1; stroke-linecap: round"/>
     </g>
     <g id="line2d_14"/>
     <g id="text_7">
      <!-- 20 -->
      <g style="fill: #262626" transform="translate(287.548648 204.347083) scale(0.07 -0.07)">
       <use xlink:href="#DejaVuSerif-32"/>
       <use xlink:href="#DejaVuSerif-30" x="63.623047"/>
      </g>
     </g>
    </g>
    <g id="xtick_8">
     <g id="line2d_15">
      <path d="M 333.405872 195.528177 
L 333.405872 27.094314 
" clip-path="url(#pf7822c44e2)" style="fill: none; stroke: #b0b0b0; stroke-width: 0.1; stroke-linecap: round"/>
     </g>
     <g id="line2d_16"/>
     <g id="text_8">
      <!-- 30 -->
      <g style="fill: #262626" transform="translate(328.952122 204.347083) scale(0.07 -0.07)">
       <use xlink:href="#DejaVuSerif-33"/>
       <use xlink:href="#DejaVuSerif-30" x="63.623047"/>
      </g>
     </g>
    </g>
    <g id="xtick_9">
     <g id="line2d_17">
      <path d="M 374.809345 195.528177 
L 374.809345 27.094314 
" clip-path="url(#pf7822c44e2)" style="fill: none; stroke: #b0b0b0; stroke-width: 0.1; stroke-linecap: round"/>
     </g>
     <g id="line2d_18"/>
     <g id="text_9">
      <!-- 40 -->
      <g style="fill: #262626" transform="translate(370.355595 204.347083) scale(0.07 -0.07)">
       <use xlink:href="#DejaVuSerif-34"/>
       <use xlink:href="#DejaVuSerif-30" x="63.623047"/>
      </g>
     </g>
    </g>
    <g id="text_10">
     <!-- $y_0$ $[m]$ -->
     <g style="fill: #262626" transform="translate(195.996828 214.362864) scale(0.06 -0.06)">
      <defs>
       <path id="DejaVuSans-Oblique-79" d="M 1588 -325 
Q 1188 -997 936 -1164 
Q 684 -1331 294 -1331 
L -159 -1331 
L -63 -850 
L 269 -850 
Q 509 -850 678 -719 
Q 847 -588 1056 -206 
L 1234 128 
L 459 3500 
L 1069 3500 
L 1650 819 
L 3256 3500 
L 3859 3500 
L 1588 -325 
z
" transform="scale(0.015625)"/>
       <path id="DejaVuSans-30" d="M 2034 4250 
Q 1547 4250 1301 3770 
Q 1056 3291 1056 2328 
Q 1056 1369 1301 889 
Q 1547 409 2034 409 
Q 2525 409 2770 889 
Q 3016 1369 3016 2328 
Q 3016 3291 2770 3770 
Q 2525 4250 2034 4250 
z
M 2034 4750 
Q 2819 4750 3233 4129 
Q 3647 3509 3647 2328 
Q 3647 1150 3233 529 
Q 2819 -91 2034 -91 
Q 1250 -91 836 529 
Q 422 1150 422 2328 
Q 422 3509 836 4129 
Q 1250 4750 2034 4750 
z
" transform="scale(0.015625)"/>
       <path id="DejaVuSerif-20" transform="scale(0.015625)"/>
       <path id="DejaVuSans-5b" d="M 550 4863 
L 1875 4863 
L 1875 4416 
L 1125 4416 
L 1125 -397 
L 1875 -397 
L 1875 -844 
L 550 -844 
L 550 4863 
z
" transform="scale(0.015625)"/>
       <path id="DejaVuSans-Oblique-6d" d="M 5747 2113 
L 5338 0 
L 4763 0 
L 5166 2094 
Q 5191 2228 5203 2325 
Q 5216 2422 5216 2491 
Q 5216 2772 5059 2928 
Q 4903 3084 4622 3084 
Q 4203 3084 3875 2770 
Q 3547 2456 3450 1953 
L 3066 0 
L 2491 0 
L 2900 2094 
Q 2925 2209 2937 2307 
Q 2950 2406 2950 2484 
Q 2950 2769 2794 2926 
Q 2638 3084 2363 3084 
Q 1938 3084 1609 2770 
Q 1281 2456 1184 1953 
L 800 0 
L 225 0 
L 909 3500 
L 1484 3500 
L 1375 2956 
Q 1609 3263 1923 3423 
Q 2238 3584 2597 3584 
Q 2978 3584 3223 3384 
Q 3469 3184 3519 2828 
Q 3781 3197 4126 3390 
Q 4472 3584 4856 3584 
Q 5306 3584 5551 3325 
Q 5797 3066 5797 2591 
Q 5797 2488 5784 2364 
Q 5772 2241 5747 2113 
z
" transform="scale(0.015625)"/>
       <path id="DejaVuSans-5d" d="M 1947 4863 
L 1947 -844 
L 622 -844 
L 622 -397 
L 1369 -397 
L 1369 4416 
L 622 4416 
L 622 4863 
L 1947 4863 
z
" transform="scale(0.015625)"/>
      </defs>
      <use xlink:href="#DejaVuSans-Oblique-79" transform="translate(0 0.015625)"/>
      <use xlink:href="#DejaVuSans-30" transform="translate(59.179688 -16.390625) scale(0.7)"/>
      <use xlink:href="#DejaVuSerif-20" transform="translate(106.450195 0.015625)"/>
      <use xlink:href="#DejaVuSans-5b" transform="translate(138.237305 0.015625)"/>
      <use xlink:href="#DejaVuSans-Oblique-6d" transform="translate(177.250977 0.015625)"/>
      <use xlink:href="#DejaVuSans-5d" transform="translate(274.663086 0.015625)"/>
     </g>
    </g>
   </g>
   <g id="matplotlib.axis_2">
    <g id="ytick_1">
     <g id="line2d_19">
      <path d="M 25.214615 177.491075 
L 385.61904 177.491075 
" clip-path="url(#pf7822c44e2)" style="fill: none; stroke: #b0b0b0; stroke-width: 0.1; stroke-linecap: round"/>
     </g>
     <g id="line2d_20"/>
     <g id="text_11">
      <!-- 0 -->
      <g style="fill: #262626" transform="translate(17.260865 180.150528) scale(0.07 -0.07)">
       <use xlink:href="#DejaVuSerif-30"/>
      </g>
     </g>
    </g>
    <g id="ytick_2">
     <g id="line2d_21">
      <path d="M 25.214615 156.789338 
L 385.61904 156.789338 
" clip-path="url(#pf7822c44e2)" style="fill: none; stroke: #b0b0b0; stroke-width: 0.1; stroke-linecap: round"/>
     </g>
     <g id="line2d_22"/>
     <g id="text_12">
      <!-- 5 -->
      <g style="fill: #262626" transform="translate(17.260865 159.448792) scale(0.07 -0.07)">
       <defs>
        <path id="DejaVuSerif-35" d="M 3219 4666 
L 3219 4153 
L 1081 4153 
L 1081 2816 
Q 1244 2928 1461 2984 
Q 1678 3041 1947 3041 
Q 2703 3041 3140 2622 
Q 3578 2203 3578 1478 
Q 3578 738 3136 323 
Q 2694 -91 1894 -91 
Q 1572 -91 1234 -12 
Q 897 66 544 225 
L 544 1131 
L 897 1131 
Q 925 688 1179 453 
Q 1434 219 1894 219 
Q 2388 219 2653 544 
Q 2919 869 2919 1478 
Q 2919 2084 2655 2407 
Q 2391 2731 1894 2731 
Q 1613 2731 1398 2631 
Q 1184 2531 1019 2322 
L 750 2322 
L 750 4666 
L 3219 4666 
z
" transform="scale(0.015625)"/>
       </defs>
       <use xlink:href="#DejaVuSerif-35"/>
      </g>
     </g>
    </g>
    <g id="ytick_3">
     <g id="line2d_23">
      <path d="M 25.214615 136.087602 
L 385.61904 136.087602 
" clip-path="url(#pf7822c44e2)" style="fill: none; stroke: #b0b0b0; stroke-width: 0.1; stroke-linecap: round"/>
     </g>
     <g id="line2d_24"/>
     <g id="text_13">
      <!-- 10 -->
      <g style="fill: #262626" transform="translate(12.807115 138.747055) scale(0.07 -0.07)">
       <use xlink:href="#DejaVuSerif-31"/>
       <use xlink:href="#DejaVuSerif-30" x="63.623047"/>
      </g>
     </g>
    </g>
    <g id="ytick_4">
     <g id="line2d_25">
      <path d="M 25.214615 115.385865 
L 385.61904 115.385865 
" clip-path="url(#pf7822c44e2)" style="fill: none; stroke: #b0b0b0; stroke-width: 0.1; stroke-linecap: round"/>
     </g>
     <g id="line2d_26"/>
     <g id="text_14">
      <!-- 15 -->
      <g style="fill: #262626" transform="translate(12.807115 118.045318) scale(0.07 -0.07)">
       <use xlink:href="#DejaVuSerif-31"/>
       <use xlink:href="#DejaVuSerif-35" x="63.623047"/>
      </g>
     </g>
    </g>
    <g id="ytick_5">
     <g id="line2d_27">
      <path d="M 25.214615 94.684128 
L 385.61904 94.684128 
" clip-path="url(#pf7822c44e2)" style="fill: none; stroke: #b0b0b0; stroke-width: 0.1; stroke-linecap: round"/>
     </g>
     <g id="line2d_28"/>
     <g id="text_15">
      <!-- 20 -->
      <g style="fill: #262626" transform="translate(12.807115 97.343581) scale(0.07 -0.07)">
       <use xlink:href="#DejaVuSerif-32"/>
       <use xlink:href="#DejaVuSerif-30" x="63.623047"/>
      </g>
     </g>
    </g>
    <g id="ytick_6">
     <g id="line2d_29">
      <path d="M 25.214615 73.982391 
L 385.61904 73.982391 
" clip-path="url(#pf7822c44e2)" style="fill: none; stroke: #b0b0b0; stroke-width: 0.1; stroke-linecap: round"/>
     </g>
     <g id="line2d_30"/>
     <g id="text_16">
      <!-- 25 -->
      <g style="fill: #262626" transform="translate(12.807115 76.641844) scale(0.07 -0.07)">
       <use xlink:href="#DejaVuSerif-32"/>
       <use xlink:href="#DejaVuSerif-35" x="63.623047"/>
      </g>
     </g>
    </g>
    <g id="ytick_7">
     <g id="line2d_31">
      <path d="M 25.214615 53.280654 
L 385.61904 53.280654 
" clip-path="url(#pf7822c44e2)" style="fill: none; stroke: #b0b0b0; stroke-width: 0.1; stroke-linecap: round"/>
     </g>
     <g id="line2d_32"/>
     <g id="text_17">
      <!-- 30 -->
      <g style="fill: #262626" transform="translate(12.807115 55.940107) scale(0.07 -0.07)">
       <use xlink:href="#DejaVuSerif-33"/>
       <use xlink:href="#DejaVuSerif-30" x="63.623047"/>
      </g>
     </g>
    </g>
    <g id="ytick_8">
     <g id="line2d_33">
      <path d="M 25.214615 32.578917 
L 385.61904 32.578917 
" clip-path="url(#pf7822c44e2)" style="fill: none; stroke: #b0b0b0; stroke-width: 0.1; stroke-linecap: round"/>
     </g>
     <g id="line2d_34"/>
     <g id="text_18">
      <!-- 35 -->
      <g style="fill: #262626" transform="translate(12.807115 35.238371) scale(0.07 -0.07)">
       <use xlink:href="#DejaVuSerif-33"/>
       <use xlink:href="#DejaVuSerif-35" x="63.623047"/>
      </g>
     </g>
    </g>
    <g id="text_19">
     <!-- $x_0$ $[m]$ -->
     <g style="fill: #262626" transform="translate(7.559302 120.731245) rotate(-90) scale(0.06 -0.06)">
      <defs>
       <path id="DejaVuSans-Oblique-78" d="M 3841 3500 
L 2234 1784 
L 3219 0 
L 2559 0 
L 1819 1388 
L 531 0 
L -166 0 
L 1556 1844 
L 641 3500 
L 1300 3500 
L 1972 2234 
L 3144 3500 
L 3841 3500 
z
" transform="scale(0.015625)"/>
      </defs>
      <use xlink:href="#DejaVuSans-Oblique-78" transform="translate(0 0.015625)"/>
      <use xlink:href="#DejaVuSans-30" transform="translate(59.179688 -16.390625) scale(0.7)"/>
      <use xlink:href="#DejaVuSerif-20" transform="translate(106.450195 0.015625)"/>
      <use xlink:href="#DejaVuSans-5b" transform="translate(138.237305 0.015625)"/>
      <use xlink:href="#DejaVuSans-Oblique-6d" transform="translate(177.250977 0.015625)"/>
      <use xlink:href="#DejaVuSans-5d" transform="translate(274.663086 0.015625)"/>
     </g>
    </g>
   </g>
   <g id="line2d_35">
    <path d="M 209.195451 177.491075 
L 209.085273 159.820281 
L 208.752658 154.083043 
L 208.247533 149.089193 
L 207.567033 144.611086 
L 206.295259 137.926914 
L 204.049974 126.12567 
L 203.142969 120.072685 
L 202.556773 114.683763 
L 202.229042 109.634462 
L 202.13682 104.822426 
L 202.268204 100.144528 
L 202.609375 95.760385 
L 203.162536 91.609541 
L 204.170497 85.89413 
L 207.164201 69.554179 
L 207.938178 63.741798 
L 208.42062 58.46232 
L 208.655757 53.476383 
L 208.66074 48.683388 
L 208.506265 44.974041 
L 208.506265 44.974041 
" clip-path="url(#pf7822c44e2)" style="fill: none; stroke: #ff0000; stroke-width: 0.4; stroke-linecap: round"/>
   </g>
   <g id="line2d_36">
    <path d="M 209.195451 177.491075 
L 209.085705 160.328607 
L 208.748631 154.945942 
L 208.252016 150.419384 
L 207.524058 145.956131 
L 205.890623 137.645977 
L 204.4098 129.634357 
L 203.588254 123.96312 
L 203.079374 118.921603 
L 202.823086 114.185148 
L 202.798788 109.653903 
L 202.994805 105.300081 
L 203.383654 101.469052 
L 204.07984 97.000144 
L 205.602267 88.959338 
L 207.097811 80.624844 
L 207.87896 75.000957 
L 208.350575 70.01501 
L 208.573873 65.318324 
L 208.566437 60.812757 
L 208.49426 58.914043 
L 208.49426 58.914043 
" clip-path="url(#pf7822c44e2)" style="fill: none; stroke: #0000ff; stroke-width: 0.4; stroke-linecap: round"/>
   </g>
   <g id="patch_3">
    <path d="M 25.214615 195.528177 
L 25.214615 27.094314 
" style="fill: none; stroke: #000000; stroke-linejoin: miter; stroke-linecap: square"/>
   </g>
   <g id="patch_4">
    <path d="M 25.214615 195.528177 
L 385.61904 195.528177 
" style="fill: none; stroke: #000000; stroke-linejoin: miter; stroke-linecap: square"/>
   </g>
   <g id="text_20">
    <!-- Track plot -->
    <g style="fill: #262626" transform="translate(187.255656 21.094314) scale(0.07 -0.07)">
     <defs>
      <path id="DejaVuSerif-54" d="M 1222 0 
L 1222 331 
L 1819 331 
L 1819 4294 
L 447 4294 
L 447 3566 
L 63 3566 
L 63 4666 
L 4206 4666 
L 4206 3566 
L 3822 3566 
L 3822 4294 
L 2450 4294 
L 2450 331 
L 3047 331 
L 3047 0 
L 1222 0 
z
" transform="scale(0.015625)"/>
      <path id="DejaVuSerif-72" d="M 3059 3328 
L 3059 2497 
L 2728 2497 
Q 2713 2744 2591 2866 
Q 2469 2988 2234 2988 
Q 1809 2988 1582 2694 
Q 1356 2400 1356 1850 
L 1356 331 
L 2022 331 
L 2022 0 
L 263 0 
L 263 331 
L 781 331 
L 781 2994 
L 231 2994 
L 231 3322 
L 1356 3322 
L 1356 2731 
Q 1525 3078 1790 3245 
Q 2056 3413 2438 3413 
Q 2578 3413 2733 3391 
Q 2888 3369 3059 3328 
z
" transform="scale(0.015625)"/>
      <path id="DejaVuSerif-61" d="M 2547 1044 
L 2547 1747 
L 1806 1747 
Q 1378 1747 1168 1562 
Q 959 1378 959 997 
Q 959 650 1171 447 
Q 1384 244 1747 244 
Q 2106 244 2326 466 
Q 2547 688 2547 1044 
z
M 3122 2075 
L 3122 331 
L 3634 331 
L 3634 0 
L 2547 0 
L 2547 359 
Q 2356 128 2106 18 
Q 1856 -91 1522 -91 
Q 969 -91 644 203 
Q 319 497 319 997 
Q 319 1513 691 1797 
Q 1063 2081 1741 2081 
L 2547 2081 
L 2547 2309 
Q 2547 2688 2317 2895 
Q 2088 3103 1672 3103 
Q 1328 3103 1125 2947 
Q 922 2791 872 2484 
L 575 2484 
L 575 3156 
Q 875 3284 1158 3348 
Q 1441 3413 1709 3413 
Q 2400 3413 2761 3070 
Q 3122 2728 3122 2075 
z
" transform="scale(0.015625)"/>
      <path id="DejaVuSerif-63" d="M 3291 997 
Q 3169 466 2822 187 
Q 2475 -91 1925 -91 
Q 1200 -91 759 389 
Q 319 869 319 1663 
Q 319 2459 759 2936 
Q 1200 3413 1925 3413 
Q 2241 3413 2553 3339 
Q 2866 3266 3181 3116 
L 3181 2266 
L 2847 2266 
Q 2781 2703 2561 2903 
Q 2341 3103 1931 3103 
Q 1466 3103 1228 2742 
Q 991 2381 991 1663 
Q 991 944 1227 581 
Q 1463 219 1931 219 
Q 2303 219 2525 412 
Q 2747 606 2828 997 
L 3291 997 
z
" transform="scale(0.015625)"/>
      <path id="DejaVuSerif-6b" d="M 1831 0 
L 219 0 
L 219 331 
L 738 331 
L 738 4531 
L 184 4531 
L 184 4863 
L 1313 4863 
L 1313 1697 
L 2713 2988 
L 2234 2988 
L 2234 3322 
L 3738 3322 
L 3738 2988 
L 3169 2988 
L 2181 2075 
L 3444 331 
L 3922 331 
L 3922 0 
L 2284 0 
L 2284 331 
L 2759 331 
L 1766 1697 
L 1313 1275 
L 1313 331 
L 1831 331 
L 1831 0 
z
" transform="scale(0.015625)"/>
      <path id="DejaVuSerif-70" d="M 1313 1825 
L 1313 1497 
Q 1313 897 1542 583 
Q 1772 269 2209 269 
Q 2650 269 2876 622 
Q 3103 975 3103 1663 
Q 3103 2353 2876 2703 
Q 2650 3053 2209 3053 
Q 1772 3053 1542 2737 
Q 1313 2422 1313 1825 
z
M 738 2988 
L 184 2988 
L 184 3322 
L 1313 3322 
L 1313 2803 
Q 1481 3116 1742 3264 
Q 2003 3413 2388 3413 
Q 3000 3413 3387 2928 
Q 3775 2444 3775 1663 
Q 3775 881 3387 395 
Q 3000 -91 2388 -91 
Q 2003 -91 1742 57 
Q 1481 206 1313 519 
L 1313 -997 
L 1856 -997 
L 1856 -1331 
L 184 -1331 
L 184 -997 
L 738 -997 
L 738 2988 
z
" transform="scale(0.015625)"/>
      <path id="DejaVuSerif-6c" d="M 1313 331 
L 1856 331 
L 1856 0 
L 184 0 
L 184 331 
L 738 331 
L 738 4531 
L 184 4531 
L 184 4863 
L 1313 4863 
L 1313 331 
z
" transform="scale(0.015625)"/>
      <path id="DejaVuSerif-6f" d="M 1925 219 
Q 2388 219 2623 584 
Q 2859 950 2859 1663 
Q 2859 2375 2623 2739 
Q 2388 3103 1925 3103 
Q 1463 3103 1227 2739 
Q 991 2375 991 1663 
Q 991 950 1228 584 
Q 1466 219 1925 219 
z
M 1925 -91 
Q 1200 -91 759 389 
Q 319 869 319 1663 
Q 319 2456 758 2934 
Q 1197 3413 1925 3413 
Q 2653 3413 3092 2934 
Q 3531 2456 3531 1663 
Q 3531 869 3092 389 
Q 2653 -91 1925 -91 
z
" transform="scale(0.015625)"/>
      <path id="DejaVuSerif-74" d="M 691 2988 
L 184 2988 
L 184 3322 
L 691 3322 
L 691 4353 
L 1269 4353 
L 1269 3322 
L 2350 3322 
L 2350 2988 
L 1269 2988 
L 1269 878 
Q 1269 456 1350 337 
Q 1431 219 1650 219 
Q 1875 219 1978 351 
Q 2081 484 2088 781 
L 2522 781 
Q 2497 328 2275 118 
Q 2053 -91 1600 -91 
Q 1103 -91 897 129 
Q 691 350 691 878 
L 691 2988 
z
" transform="scale(0.015625)"/>
     </defs>
     <use xlink:href="#DejaVuSerif-54"/>
     <use xlink:href="#DejaVuSerif-72" x="66.699219"/>
     <use xlink:href="#DejaVuSerif-61" x="114.501953"/>
     <use xlink:href="#DejaVuSerif-63" x="174.121094"/>
     <use xlink:href="#DejaVuSerif-6b" x="230.126953"/>
     <use xlink:href="#DejaVuSerif-20" x="290.722656"/>
     <use xlink:href="#DejaVuSerif-70" x="322.509766"/>
     <use xlink:href="#DejaVuSerif-6c" x="386.523438"/>
     <use xlink:href="#DejaVuSerif-6f" x="418.505859"/>
     <use xlink:href="#DejaVuSerif-74" x="478.710938"/>
    </g>
   </g>
   <g id="legend_1">
    <g id="line2d_37">
     <path d="M 280.792946 36.26322 
L 287.792946 36.26322 
L 294.792946 36.26322 
" style="fill: none; stroke: #000000; stroke-width: 0.7; stroke-linecap: round"/>
    </g>
    <g id="text_21">
     <!-- experiment -->
     <g style="fill: #262626" transform="translate(300.392946 38.71322) scale(0.07 -0.07)">
      <defs>
       <path id="DejaVuSerif-65" d="M 3469 1600 
L 991 1600 
L 991 1575 
Q 991 903 1244 561 
Q 1497 219 1991 219 
Q 2369 219 2611 417 
Q 2853 616 2950 1006 
L 3413 1006 
Q 3275 459 2904 184 
Q 2534 -91 1931 -91 
Q 1203 -91 761 389 
Q 319 869 319 1663 
Q 319 2450 753 2931 
Q 1188 3413 1894 3413 
Q 2647 3413 3050 2948 
Q 3453 2484 3469 1600 
z
M 2791 1931 
Q 2772 2513 2545 2808 
Q 2319 3103 1894 3103 
Q 1497 3103 1269 2806 
Q 1041 2509 991 1931 
L 2791 1931 
z
" transform="scale(0.015625)"/>
       <path id="DejaVuSerif-78" d="M 1863 2028 
L 2559 2988 
L 2113 2988 
L 2113 3322 
L 3391 3322 
L 3391 2988 
L 2950 2988 
L 2059 1759 
L 3097 331 
L 3531 331 
L 3531 0 
L 1997 0 
L 1997 331 
L 2419 331 
L 1697 1325 
L 972 331 
L 1403 331 
L 1403 0 
L 141 0 
L 141 331 
L 581 331 
L 1497 1594 
L 488 2988 
L 78 2988 
L 78 3322 
L 1563 3322 
L 1563 2988 
L 1166 2988 
L 1863 2028 
z
" transform="scale(0.015625)"/>
       <path id="DejaVuSerif-69" d="M 622 4353 
Q 622 4497 726 4603 
Q 831 4709 978 4709 
Q 1122 4709 1226 4603 
Q 1331 4497 1331 4353 
Q 1331 4206 1228 4103 
Q 1125 4000 978 4000 
Q 831 4000 726 4103 
Q 622 4206 622 4353 
z
M 1356 331 
L 1900 331 
L 1900 0 
L 231 0 
L 231 331 
L 781 331 
L 781 2988 
L 231 2988 
L 231 3322 
L 1356 3322 
L 1356 331 
z
" transform="scale(0.015625)"/>
       <path id="DejaVuSerif-6d" d="M 3316 2675 
Q 3481 3041 3739 3227 
Q 3997 3413 4341 3413 
Q 4863 3413 5119 3089 
Q 5375 2766 5375 2113 
L 5375 331 
L 5894 331 
L 5894 0 
L 4300 0 
L 4300 331 
L 4800 331 
L 4800 2047 
Q 4800 2556 4650 2772 
Q 4500 2988 4153 2988 
Q 3769 2988 3567 2697 
Q 3366 2406 3366 1850 
L 3366 331 
L 3866 331 
L 3866 0 
L 2291 0 
L 2291 331 
L 2791 331 
L 2791 2069 
Q 2791 2566 2641 2777 
Q 2491 2988 2144 2988 
Q 1759 2988 1557 2697 
Q 1356 2406 1356 1850 
L 1356 331 
L 1856 331 
L 1856 0 
L 263 0 
L 263 331 
L 781 331 
L 781 2994 
L 231 2994 
L 231 3322 
L 1356 3322 
L 1356 2731 
Q 1516 3063 1762 3238 
Q 2009 3413 2322 3413 
Q 2709 3413 2968 3220 
Q 3228 3028 3316 2675 
z
" transform="scale(0.015625)"/>
       <path id="DejaVuSerif-6e" d="M 263 0 
L 263 331 
L 781 331 
L 781 2988 
L 231 2988 
L 231 3322 
L 1356 3322 
L 1356 2731 
Q 1516 3069 1770 3241 
Q 2025 3413 2363 3413 
Q 2913 3413 3172 3097 
Q 3431 2781 3431 2113 
L 3431 331 
L 3944 331 
L 3944 0 
L 2356 0 
L 2356 331 
L 2853 331 
L 2853 1931 
Q 2853 2541 2703 2767 
Q 2553 2994 2175 2994 
Q 1775 2994 1565 2701 
Q 1356 2409 1356 1850 
L 1356 331 
L 1856 331 
L 1856 0 
L 263 0 
z
" transform="scale(0.015625)"/>
      </defs>
      <use xlink:href="#DejaVuSerif-65"/>
      <use xlink:href="#DejaVuSerif-78" x="59.179688"/>
      <use xlink:href="#DejaVuSerif-70" x="115.576172"/>
      <use xlink:href="#DejaVuSerif-65" x="179.589844"/>
      <use xlink:href="#DejaVuSerif-72" x="238.769531"/>
      <use xlink:href="#DejaVuSerif-69" x="286.572266"/>
      <use xlink:href="#DejaVuSerif-6d" x="318.554688"/>
      <use xlink:href="#DejaVuSerif-65" x="413.378906"/>
      <use xlink:href="#DejaVuSerif-6e" x="472.558594"/>
      <use xlink:href="#DejaVuSerif-74" x="536.962891"/>
     </g>
    </g>
    <g id="line2d_38">
     <path d="M 280.792946 46.537907 
L 287.792946 46.537907 
L 294.792946 46.537907 
" style="fill: none; stroke: #ff0000; stroke-width: 0.4; stroke-linecap: round"/>
    </g>
    <g id="text_22">
     <!-- polynomial rudder -->
     <g style="fill: #262626" transform="translate(300.392946 48.987907) scale(0.07 -0.07)">
      <defs>
       <path id="DejaVuSerif-79" d="M 1381 -609 
L 1600 -56 
L 359 2988 
L -19 2988 
L -19 3322 
L 1509 3322 
L 1509 2988 
L 978 2988 
L 1913 703 
L 2847 2988 
L 2350 2988 
L 2350 3322 
L 3597 3322 
L 3597 2988 
L 3225 2988 
L 1703 -750 
Q 1547 -1138 1356 -1280 
Q 1166 -1422 819 -1422 
Q 672 -1422 517 -1397 
Q 363 -1372 206 -1325 
L 206 -691 
L 500 -691 
Q 519 -903 608 -995 
Q 697 -1088 884 -1088 
Q 1056 -1088 1161 -992 
Q 1266 -897 1381 -609 
z
" transform="scale(0.015625)"/>
       <path id="DejaVuSerif-75" d="M 2266 3322 
L 3341 3322 
L 3341 331 
L 3884 331 
L 3884 0 
L 2766 0 
L 2766 588 
Q 2606 256 2353 82 
Q 2100 -91 1766 -91 
Q 1213 -91 952 223 
Q 691 538 691 1209 
L 691 2988 
L 172 2988 
L 172 3322 
L 1269 3322 
L 1269 1388 
Q 1269 781 1417 556 
Q 1566 331 1947 331 
Q 2347 331 2556 625 
Q 2766 919 2766 1478 
L 2766 2988 
L 2266 2988 
L 2266 3322 
z
" transform="scale(0.015625)"/>
       <path id="DejaVuSerif-64" d="M 3359 331 
L 3909 331 
L 3909 0 
L 2784 0 
L 2784 519 
Q 2616 206 2355 57 
Q 2094 -91 1709 -91 
Q 1097 -91 708 395 
Q 319 881 319 1663 
Q 319 2444 706 2928 
Q 1094 3413 1709 3413 
Q 2094 3413 2355 3264 
Q 2616 3116 2784 2803 
L 2784 4531 
L 2241 4531 
L 2241 4863 
L 3359 4863 
L 3359 331 
z
M 2784 1497 
L 2784 1825 
Q 2784 2422 2554 2737 
Q 2325 3053 1888 3053 
Q 1444 3053 1217 2703 
Q 991 2353 991 1663 
Q 991 975 1217 622 
Q 1444 269 1888 269 
Q 2325 269 2554 583 
Q 2784 897 2784 1497 
z
" transform="scale(0.015625)"/>
      </defs>
      <use xlink:href="#DejaVuSerif-70"/>
      <use xlink:href="#DejaVuSerif-6f" x="64.013672"/>
      <use xlink:href="#DejaVuSerif-6c" x="124.21875"/>
      <use xlink:href="#DejaVuSerif-79" x="156.201172"/>
      <use xlink:href="#DejaVuSerif-6e" x="212.695312"/>
      <use xlink:href="#DejaVuSerif-6f" x="277.099609"/>
      <use xlink:href="#DejaVuSerif-6d" x="337.304688"/>
      <use xlink:href="#DejaVuSerif-69" x="432.128906"/>
      <use xlink:href="#DejaVuSerif-61" x="464.111328"/>
      <use xlink:href="#DejaVuSerif-6c" x="523.730469"/>
      <use xlink:href="#DejaVuSerif-20" x="555.712891"/>
      <use xlink:href="#DejaVuSerif-72" x="587.5"/>
      <use xlink:href="#DejaVuSerif-75" x="635.302734"/>
      <use xlink:href="#DejaVuSerif-64" x="699.707031"/>
      <use xlink:href="#DejaVuSerif-64" x="763.720703"/>
      <use xlink:href="#DejaVuSerif-65" x="827.734375"/>
      <use xlink:href="#DejaVuSerif-72" x="886.914062"/>
     </g>
    </g>
    <g id="line2d_39">
     <path d="M 280.792946 56.912126 
L 287.792946 56.912126 
L 294.792946 56.912126 
" style="fill: none; stroke: #0000ff; stroke-width: 0.4; stroke-linecap: round"/>
    </g>
    <g id="text_23">
     <!-- semi-empirical rudder -->
     <g style="fill: #262626" transform="translate(300.392946 59.362126) scale(0.07 -0.07)">
      <defs>
       <path id="DejaVuSerif-73" d="M 359 184 
L 359 959 
L 691 959 
Q 703 588 923 403 
Q 1144 219 1575 219 
Q 1963 219 2166 364 
Q 2369 509 2369 788 
Q 2369 1006 2220 1140 
Q 2072 1275 1594 1428 
L 1178 1569 
Q 750 1706 558 1912 
Q 366 2119 366 2438 
Q 366 2894 700 3153 
Q 1034 3413 1625 3413 
Q 1888 3413 2178 3344 
Q 2469 3275 2778 3144 
L 2778 2419 
L 2447 2419 
Q 2434 2741 2221 2922 
Q 2009 3103 1644 3103 
Q 1281 3103 1095 2975 
Q 909 2847 909 2591 
Q 909 2381 1050 2254 
Q 1191 2128 1613 1997 
L 2069 1856 
Q 2541 1709 2748 1489 
Q 2956 1269 2956 922 
Q 2956 450 2595 179 
Q 2234 -91 1600 -91 
Q 1278 -91 972 -22 
Q 666 47 359 184 
z
" transform="scale(0.015625)"/>
       <path id="DejaVuSerif-2d" d="M 281 1959 
L 1881 1959 
L 1881 1472 
L 281 1472 
L 281 1959 
z
" transform="scale(0.015625)"/>
      </defs>
      <use xlink:href="#DejaVuSerif-73"/>
      <use xlink:href="#DejaVuSerif-65" x="51.318359"/>
      <use xlink:href="#DejaVuSerif-6d" x="110.498047"/>
      <use xlink:href="#DejaVuSerif-69" x="205.322266"/>
      <use xlink:href="#DejaVuSerif-2d" x="237.304688"/>
      <use xlink:href="#DejaVuSerif-65" x="271.09375"/>
      <use xlink:href="#DejaVuSerif-6d" x="330.273438"/>
      <use xlink:href="#DejaVuSerif-70" x="425.097656"/>
      <use xlink:href="#DejaVuSerif-69" x="489.111328"/>
      <use xlink:href="#DejaVuSerif-72" x="521.09375"/>
      <use xlink:href="#DejaVuSerif-69" x="568.896484"/>
      <use xlink:href="#DejaVuSerif-63" x="600.878906"/>
      <use xlink:href="#DejaVuSerif-61" x="656.884766"/>
      <use xlink:href="#DejaVuSerif-6c" x="716.503906"/>
      <use xlink:href="#DejaVuSerif-20" x="748.486328"/>
      <use xlink:href="#DejaVuSerif-72" x="780.273438"/>
      <use xlink:href="#DejaVuSerif-75" x="828.076172"/>
      <use xlink:href="#DejaVuSerif-64" x="892.480469"/>
      <use xlink:href="#DejaVuSerif-64" x="956.494141"/>
      <use xlink:href="#DejaVuSerif-65" x="1020.507812"/>
      <use xlink:href="#DejaVuSerif-72" x="1079.6875"/>
     </g>
    </g>
   </g>
   <g id="line2d_40">
    <path d="M 209.168396 162.433303 
L 208.190458 163.473173 
L 207.702426 164.512158 
L 207.21627 166.589243 
L 207.242527 181.122642 
L 207.391375 182.160477 
L 207.736185 183.197957 
L 210.675626 183.192647 
L 211.016685 182.153927 
L 211.161782 181.115562 
L 211.135525 166.582162 
L 210.641867 164.506847 
L 210.150085 163.469632 
L 209.168396 162.433303 
" clip-path="url(#pf7822c44e2)" style="fill: none; stroke: #0000ff; stroke-opacity: 0.2; stroke-width: 0.4; stroke-linecap: round"/>
   </g>
   <g id="patch_5">
    <path d="M 209.168396 162.433303 
L 208.190458 163.473173 
L 207.702426 164.512158 
L 207.21627 166.589243 
L 207.242527 181.122642 
L 207.391375 182.160477 
L 207.736185 183.197957 
L 210.675626 183.192647 
L 211.016685 182.153927 
L 211.161782 181.115562 
L 211.135525 166.582162 
L 210.641867 164.506847 
L 210.150085 163.469632 
z
" clip-path="url(#pf7822c44e2)" style="fill: #0000ff; opacity: 0.2"/>
   </g>
   <g id="line2d_41">
    <path d="M 205.625385 131.777249 
L 204.888743 132.999972 
L 204.630803 134.118512 
L 204.593624 136.251409 
L 207.684283 150.452402 
L 208.048655 151.435504 
L 208.604508 152.376932 
L 211.476718 151.751834 
L 211.591048 150.664549 
L 211.513897 149.618937 
L 208.423238 135.417944 
L 207.503013 133.493413 
L 206.80355 132.58324 
L 205.625385 131.777249 
" clip-path="url(#pf7822c44e2)" style="fill: none; stroke: #0000ff; stroke-opacity: 0.2; stroke-width: 0.4; stroke-linecap: round"/>
   </g>
   <g id="patch_6">
    <path d="M 205.625385 131.777249 
L 204.888743 132.999972 
L 204.630803 134.118512 
L 204.593624 136.251409 
L 207.684283 150.452402 
L 208.048655 151.435504 
L 208.604508 152.376932 
L 211.476718 151.751834 
L 211.591048 150.664549 
L 211.513897 149.618937 
L 208.423238 135.417944 
L 207.503013 133.493413 
L 206.80355 132.58324 
z
" clip-path="url(#pf7822c44e2)" style="fill: #0000ff; opacity: 0.2"/>
   </g>
   <g id="line2d_42">
    <path d="M 202.28448 101.50906 
L 201.34744 102.58593 
L 200.899906 103.642991 
L 200.494346 105.737305 
L 201.081976 120.258844 
L 201.270802 121.290154 
L 201.655431 122.313541 
L 204.592473 122.19469 
L 204.893154 121.143571 
L 204.998032 120.100376 
L 204.410402 105.578838 
L 203.836948 103.52414 
L 203.305468 102.506696 
L 202.28448 101.50906 
" clip-path="url(#pf7822c44e2)" style="fill: none; stroke: #0000ff; stroke-opacity: 0.2; stroke-width: 0.4; stroke-linecap: round"/>
   </g>
   <g id="patch_7">
    <path d="M 202.28448 101.50906 
L 201.34744 102.58593 
L 200.899906 103.642991 
L 200.494346 105.737305 
L 201.081976 120.258844 
L 201.270802 121.290154 
L 201.655431 122.313541 
L 204.592473 122.19469 
L 204.893154 121.143571 
L 204.998032 120.100376 
L 204.410402 105.578838 
L 203.836948 103.52414 
L 203.305468 102.506696 
z
" clip-path="url(#pf7822c44e2)" style="fill: #0000ff; opacity: 0.2"/>
   </g>
   <g id="line2d_43">
    <path d="M 205.208249 71.951975 
L 204.025545 72.751291 
L 203.320946 73.657494 
L 202.389854 75.57679 
L 199.218942 89.76008 
L 199.13588 90.805239 
L 199.24406 91.893153 
L 202.112689 92.534483 
L 202.673856 91.596213 
L 203.043782 90.615187 
L 206.214694 76.431897 
L 206.189576 74.298825 
L 205.937965 73.178844 
L 205.208249 71.951975 
" clip-path="url(#pf7822c44e2)" style="fill: none; stroke: #0000ff; stroke-opacity: 0.2; stroke-width: 0.4; stroke-linecap: round"/>
   </g>
   <g id="patch_8">
    <path d="M 205.208249 71.951975 
L 204.025545 72.751291 
L 203.320946 73.657494 
L 202.389854 75.57679 
L 199.218942 89.76008 
L 199.13588 90.805239 
L 199.24406 91.893153 
L 202.112689 92.534483 
L 202.673856 91.596213 
L 203.043782 90.615187 
L 206.214694 76.431897 
L 206.189576 74.298825 
L 205.937965 73.178844 
z
" clip-path="url(#pf7822c44e2)" style="fill: #0000ff; opacity: 0.2"/>
   </g>
   <g id="line2d_44">
    <path d="M 207.715672 42.36595 
L 206.716517 43.385451 
L 206.207183 44.414161 
L 205.678337 46.480789 
L 205.405157 61.011644 
L 205.53259 62.052325 
L 205.855952 63.096689 
L 208.794879 63.151941 
L 209.157266 62.120469 
L 209.323725 61.085313 
L 209.596905 46.554458 
L 209.14611 44.469413 
L 208.675802 43.422286 
L 207.715672 42.36595 
" clip-path="url(#pf7822c44e2)" style="fill: none; stroke: #ff0000; stroke-opacity: 0.2; stroke-width: 0.4; stroke-linecap: round"/>
   </g>
   <g id="patch_9">
    <path d="M 207.715672 42.36595 
L 206.716517 43.385451 
L 206.207183 44.414161 
L 205.678337 46.480789 
L 205.405157 61.011644 
L 205.53259 62.052325 
L 205.855952 63.096689 
L 208.794879 63.151941 
L 209.157266 62.120469 
L 209.323725 61.085313 
L 209.596905 46.554458 
L 209.14611 44.469413 
L 208.675802 43.422286 
z
" clip-path="url(#pf7822c44e2)" style="fill: #ff0000; opacity: 0.2"/>
   </g>
   <g id="line2d_45">
    <path d="M 209.195451 167.110059 
L 208.215636 168.14816 
L 207.725728 169.186262 
L 207.23582 171.262465 
L 207.23582 185.795889 
L 207.382793 186.83399 
L 207.725728 187.872092 
L 210.665174 187.872092 
L 211.008109 186.83399 
L 211.155081 185.795889 
L 211.155081 171.262465 
L 210.665174 169.186262 
L 210.175266 168.14816 
L 209.195451 167.110059 
" clip-path="url(#pf7822c44e2)" style="fill: none; stroke: #0000ff; stroke-opacity: 0.2; stroke-width: 0.4; stroke-linecap: round"/>
   </g>
   <g id="patch_10">
    <path d="M 209.195451 167.110059 
L 208.215636 168.14816 
L 207.725728 169.186262 
L 207.23582 171.262465 
L 207.23582 185.795889 
L 207.382793 186.83399 
L 207.725728 187.872092 
L 210.665174 187.872092 
L 211.008109 186.83399 
L 211.155081 185.795889 
L 211.155081 171.262465 
L 210.665174 169.186262 
L 210.175266 168.14816 
z
" clip-path="url(#pf7822c44e2)" style="fill: #0000ff; opacity: 0.2"/>
   </g>
   <g id="line2d_46">
    <path d="M 206.275032 139.798262 
L 205.523058 141.011616 
L 205.25106 142.126821 
L 205.187038 144.25908 
L 208.098709 158.49785 
L 208.450678 159.48546 
L 208.994637 160.43381 
L 211.874488 159.844912 
L 212.002494 158.759153 
L 211.93851 157.712653 
L 209.026839 143.473883 
L 208.13091 141.537923 
L 207.442959 140.619018 
L 206.275032 139.798262 
" clip-path="url(#pf7822c44e2)" style="fill: none; stroke: #0000ff; stroke-opacity: 0.2; stroke-width: 0.4; stroke-linecap: round"/>
   </g>
   <g id="patch_11">
    <path d="M 206.275032 139.798262 
L 205.523058 141.011616 
L 205.25106 142.126821 
L 205.187038 144.25908 
L 208.098709 158.49785 
L 208.450678 159.48546 
L 208.994637 160.43381 
L 211.874488 159.844912 
L 212.002494 158.759153 
L 211.93851 157.712653 
L 209.026839 143.473883 
L 208.13091 141.537923 
L 207.442959 140.619018 
z
" clip-path="url(#pf7822c44e2)" style="fill: #0000ff; opacity: 0.2"/>
   </g>
   <g id="line2d_47">
    <path d="M 202.6235 113.050041 
L 201.746778 114.176562 
L 201.357746 115.256525 
L 201.067372 117.36989 
L 202.448583 131.837531 
L 202.693548 132.856966 
L 203.133589 133.857778 
L 206.05973 133.578422 
L 206.302455 132.512427 
L 206.350104 131.465057 
L 204.968893 116.997415 
L 204.283887 114.977169 
L 203.697539 113.990325 
L 202.6235 113.050041 
" clip-path="url(#pf7822c44e2)" style="fill: none; stroke: #0000ff; stroke-opacity: 0.2; stroke-width: 0.4; stroke-linecap: round"/>
   </g>
   <g id="patch_12">
    <path d="M 202.6235 113.050041 
L 201.746778 114.176562 
L 201.357746 115.256525 
L 201.067372 117.36989 
L 202.448583 131.837531 
L 202.693548 132.856966 
L 203.133589 133.857778 
L 206.05973 133.578422 
L 206.302455 132.512427 
L 206.350104 131.465057 
L 204.968893 116.997415 
L 204.283887 114.977169 
L 203.697539 113.990325 
z
" clip-path="url(#pf7822c44e2)" style="fill: #0000ff; opacity: 0.2"/>
   </g>
   <g id="line2d_48">
    <path d="M 204.61131 86.669256 
L 203.441107 87.486762 
L 202.750603 88.403752 
L 201.849297 90.337214 
L 198.898054 104.567834 
L 198.831161 105.614152 
L 198.956148 106.700264 
L 201.834351 107.297165 
L 202.380944 106.35033 
L 202.735657 105.363702 
L 205.6869 91.133082 
L 205.628806 89.000653 
L 205.359908 87.884696 
L 204.61131 86.669256 
" clip-path="url(#pf7822c44e2)" style="fill: none; stroke: #0000ff; stroke-opacity: 0.2; stroke-width: 0.4; stroke-linecap: round"/>
   </g>
   <g id="patch_13">
    <path d="M 204.61131 86.669256 
L 203.441107 87.486762 
L 202.750603 88.403752 
L 201.849297 90.337214 
L 198.898054 104.567834 
L 198.831161 105.614152 
L 198.956148 106.700264 
L 201.834351 107.297165 
L 202.380944 106.35033 
L 202.735657 105.363702 
L 205.6869 91.133082 
L 205.628806 89.000653 
L 205.359908 87.884696 
z
" clip-path="url(#pf7822c44e2)" style="fill: #0000ff; opacity: 0.2"/>
   </g>
   <g id="line2d_49">
    <path d="M 208.117071 60.707889 
L 207.025362 61.627598 
L 206.42037 62.603123 
L 205.697105 64.609991 
L 204.041268 79.048779 
L 204.06901 80.096866 
L 204.291438 81.167279 
L 207.211743 81.502179 
L 207.670719 80.509909 
L 207.935009 79.495312 
L 209.590845 65.056524 
L 209.340675 62.938023 
L 208.972232 61.850865 
L 208.117071 60.707889 
" clip-path="url(#pf7822c44e2)" style="fill: none; stroke: #0000ff; stroke-opacity: 0.2; stroke-width: 0.4; stroke-linecap: round"/>
   </g>
   <g id="patch_14">
    <path d="M 208.117071 60.707889 
L 207.025362 61.627598 
L 206.42037 62.603123 
L 205.697105 64.609991 
L 204.041268 79.048779 
L 204.06901 80.096866 
L 204.291438 81.167279 
L 207.211743 81.502179 
L 207.670719 80.509909 
L 207.935009 79.495312 
L 209.590845 65.056524 
L 209.340675 62.938023 
L 208.972232 61.850865 
z
" clip-path="url(#pf7822c44e2)" style="fill: #0000ff; opacity: 0.2"/>
   </g>
   <g id="line2d_50">
    <path d="M 206.705531 34.750398 
L 205.920643 35.942725 
L 205.618236 37.050071 
L 205.495902 39.179781 
L 208.016929 53.49288 
L 208.341747 54.48975 
L 208.859557 55.452627 
L 211.754441 54.942739 
L 211.912104 53.860888 
L 211.876775 52.813029 
L 209.355747 38.49993 
L 208.51312 36.540183 
L 207.850566 35.6028 
L 206.705531 34.750398 
" clip-path="url(#pf7822c44e2)" style="fill: none; stroke: #ff0000; stroke-opacity: 0.2; stroke-width: 0.4; stroke-linecap: round"/>
   </g>
   <g id="patch_15">
    <path d="M 206.705531 34.750398 
L 205.920643 35.942725 
L 205.618236 37.050071 
L 205.495902 39.179781 
L 208.016929 53.49288 
L 208.341747 54.48975 
L 208.859557 55.452627 
L 211.754441 54.942739 
L 211.912104 53.860888 
L 211.876775 52.813029 
L 209.355747 38.49993 
L 208.51312 36.540183 
L 207.850566 35.6028 
z
" clip-path="url(#pf7822c44e2)" style="fill: #ff0000; opacity: 0.2"/>
   </g>
   <g id="line2d_51">
    <path d="M 209.195451 167.110059 
L 208.215636 168.14816 
L 207.725728 169.186262 
L 207.23582 171.262465 
L 207.23582 185.795889 
L 207.382793 186.83399 
L 207.725728 187.872092 
L 210.665174 187.872092 
L 211.008109 186.83399 
L 211.155081 185.795889 
L 211.155081 171.262465 
L 210.665174 169.186262 
L 210.175266 168.14816 
L 209.195451 167.110059 
" clip-path="url(#pf7822c44e2)" style="fill: none; stroke: #0000ff; stroke-opacity: 0.2; stroke-width: 0.4; stroke-linecap: round"/>
   </g>
   <g id="patch_16">
    <path d="M 209.195451 167.110059 
L 208.215636 168.14816 
L 207.725728 169.186262 
L 207.23582 171.262465 
L 207.23582 185.795889 
L 207.382793 186.83399 
L 207.725728 187.872092 
L 210.665174 187.872092 
L 211.008109 186.83399 
L 211.155081 185.795889 
L 211.155081 171.262465 
L 210.665174 169.186262 
L 210.175266 168.14816 
z
" clip-path="url(#pf7822c44e2)" style="fill: #0000ff; opacity: 0.2"/>
   </g>
   <g id="line2d_52">
    <path d="M 205.262323 136.647452 
L 204.549551 137.884242 
L 204.313367 139.007577 
L 204.31759 141.140793 
L 207.683279 155.279129 
L 208.066662 156.254974 
L 208.640681 157.185437 
L 211.500218 156.504712 
L 211.593425 155.415413 
L 211.495995 154.371496 
L 208.130307 140.23316 
L 207.172905 138.326852 
L 206.455909 137.430425 
L 205.262323 136.647452 
" clip-path="url(#pf7822c44e2)" style="fill: none; stroke: #0000ff; stroke-opacity: 0.2; stroke-width: 0.4; stroke-linecap: round"/>
   </g>
   <g id="patch_17">
    <path d="M 205.262323 136.647452 
L 204.549551 137.884242 
L 204.313367 139.007577 
L 204.31759 141.140793 
L 207.683279 155.279129 
L 208.066662 156.254974 
L 208.640681 157.185437 
L 211.500218 156.504712 
L 211.593425 155.415413 
L 211.495995 154.371496 
L 208.130307 140.23316 
L 207.172905 138.326852 
L 206.455909 137.430425 
z
" clip-path="url(#pf7822c44e2)" style="fill: #0000ff; opacity: 0.2"/>
   </g>
   <g id="line2d_53">
    <path d="M 203.387936 106.631361 
L 202.365034 107.627035 
L 201.831601 108.643457 
L 201.254202 110.697049 
L 200.638687 125.217432 
L 200.741562 126.260827 
L 201.040224 127.312521 
L 203.977033 127.437011 
L 204.363626 126.414365 
L 204.554431 125.383419 
L 205.169946 110.863036 
L 204.768409 108.767947 
L 204.322906 107.710028 
L 203.387936 106.631361 
" clip-path="url(#pf7822c44e2)" style="fill: none; stroke: #0000ff; stroke-opacity: 0.2; stroke-width: 0.4; stroke-linecap: round"/>
   </g>
   <g id="patch_18">
    <path d="M 203.387936 106.631361 
L 202.365034 107.627035 
L 201.831601 108.643457 
L 201.254202 110.697049 
L 200.638687 125.217432 
L 200.741562 126.260827 
L 201.040224 127.312521 
L 203.977033 127.437011 
L 204.363626 126.414365 
L 204.554431 125.383419 
L 205.169946 110.863036 
L 204.768409 108.767947 
L 204.322906 107.710028 
z
" clip-path="url(#pf7822c44e2)" style="fill: #0000ff; opacity: 0.2"/>
   </g>
   <g id="line2d_54">
    <path d="M 207.678538 77.665019 
L 206.527895 78.509835 
L 205.85916 79.442818 
L 205.003599 81.396953 
L 202.388029 95.693078 
L 202.345776 96.74068 
L 202.496285 97.82355 
L 205.387736 98.35256 
L 205.911899 97.393126 
L 206.243298 96.398425 
L 208.858867 82.1023 
L 208.750611 79.971828 
L 208.455529 78.862508 
L 207.678538 77.665019 
" clip-path="url(#pf7822c44e2)" style="fill: none; stroke: #0000ff; stroke-opacity: 0.2; stroke-width: 0.4; stroke-linecap: round"/>
   </g>
   <g id="patch_19">
    <path d="M 207.678538 77.665019 
L 206.527895 78.509835 
L 205.85916 79.442818 
L 205.003599 81.396953 
L 202.388029 95.693078 
L 202.345776 96.74068 
L 202.496285 97.82355 
L 205.387736 98.35256 
L 205.911899 97.393126 
L 206.243298 96.398425 
L 208.858867 82.1023 
L 208.750611 79.971828 
L 208.455529 78.862508 
z
" clip-path="url(#pf7822c44e2)" style="fill: #0000ff; opacity: 0.2"/>
   </g>
   <g id="line2d_55">
    <path d="M 206.692603 48.690564 
L 205.907823 49.882962 
L 205.605515 50.990335 
L 205.483374 53.120055 
L 208.005694 67.432927 
L 208.330601 68.429767 
L 208.848498 69.392598 
L 211.743336 68.882448 
L 211.900902 67.800583 
L 211.865478 66.752727 
L 209.343158 52.439856 
L 208.500353 50.480185 
L 207.837715 49.542862 
L 206.692603 48.690564 
" clip-path="url(#pf7822c44e2)" style="fill: none; stroke: #ff0000; stroke-opacity: 0.2; stroke-width: 0.4; stroke-linecap: round"/>
   </g>
   <g id="patch_20">
    <path d="M 206.692603 48.690564 
L 205.907823 49.882962 
L 205.605515 50.990335 
L 205.483374 53.120055 
L 208.005694 67.432927 
L 208.330601 68.429767 
L 208.848498 69.392598 
L 211.743336 68.882448 
L 211.900902 67.800583 
L 211.865478 66.752727 
L 209.343158 52.439856 
L 208.500353 50.480185 
L 207.837715 49.542862 
z
" clip-path="url(#pf7822c44e2)" style="fill: #ff0000; opacity: 0.2"/>
   </g>
   <g id="line2d_56">
    <path d="M 209.187151 172.814302 
L 209.029149 155.889659 
L 208.689583 149.815839 
L 208.170867 144.451045 
L 207.503452 139.826102 
L 206.268733 133.082914 
L 203.795785 119.699476 
L 202.877845 113.326864 
L 202.265682 107.518965 
L 201.925022 102.175776 
L 201.819855 97.069497 
L 201.939679 92.062225 
L 202.272926 87.343585 
L 202.799539 83.04281 
L 203.787193 77.042856 
L 206.604651 60.537253 
L 207.359626 54.386602 
L 207.520544 52.745133 
L 207.520544 52.745133 
" clip-path="url(#pf7822c44e2)" style="fill: none; stroke: #000000; stroke-width: 0.7; stroke-linecap: round"/>
   </g>
  </g>
  <g id="text_24">
   <!-- zigzag 10/10 -->
   <g style="fill: #262626" transform="translate(171.735187 8.219615) scale(0.07 -0.07)">
    <defs>
     <path id="DejaVuSerif-7a" d="M 256 0 
L 256 269 
L 2338 2988 
L 691 2988 
L 691 2413 
L 359 2413 
L 359 3322 
L 3078 3322 
L 3078 3053 
L 997 331 
L 2803 331 
L 2803 934 
L 3138 934 
L 3138 0 
L 256 0 
z
" transform="scale(0.015625)"/>
     <path id="DejaVuSerif-67" d="M 3359 2988 
L 3359 72 
Q 3359 -644 2965 -1033 
Q 2572 -1422 1844 -1422 
Q 1516 -1422 1216 -1362 
Q 916 -1303 641 -1184 
L 641 -488 
L 941 -488 
Q 997 -813 1206 -963 
Q 1416 -1113 1806 -1113 
Q 2313 -1113 2548 -827 
Q 2784 -541 2784 72 
L 2784 519 
Q 2616 206 2355 57 
Q 2094 -91 1709 -91 
Q 1097 -91 708 395 
Q 319 881 319 1663 
Q 319 2444 706 2928 
Q 1094 3413 1709 3413 
Q 2094 3413 2355 3264 
Q 2616 3116 2784 2803 
L 2784 3322 
L 3909 3322 
L 3909 2988 
L 3359 2988 
z
M 2784 1825 
Q 2784 2422 2554 2737 
Q 2325 3053 1888 3053 
Q 1444 3053 1217 2703 
Q 991 2353 991 1663 
Q 991 975 1217 622 
Q 1444 269 1888 269 
Q 2325 269 2554 583 
Q 2784 897 2784 1497 
L 2784 1825 
z
" transform="scale(0.015625)"/>
     <path id="DejaVuSerif-2f" d="M 1656 4666 
L 2156 4666 
L 500 -594 
L 0 -594 
L 1656 4666 
z
" transform="scale(0.015625)"/>
    </defs>
    <use xlink:href="#DejaVuSerif-7a"/>
    <use xlink:href="#DejaVuSerif-69" x="52.685547"/>
    <use xlink:href="#DejaVuSerif-67" x="84.667969"/>
    <use xlink:href="#DejaVuSerif-7a" x="148.681641"/>
    <use xlink:href="#DejaVuSerif-61" x="201.367188"/>
    <use xlink:href="#DejaVuSerif-67" x="260.986328"/>
    <use xlink:href="#DejaVuSerif-20" x="325"/>
    <use xlink:href="#DejaVuSerif-31" x="356.787109"/>
    <use xlink:href="#DejaVuSerif-30" x="420.410156"/>
    <use xlink:href="#DejaVuSerif-2f" x="484.033203"/>
    <use xlink:href="#DejaVuSerif-31" x="517.724609"/>
    <use xlink:href="#DejaVuSerif-30" x="581.347656"/>
   </g>
  </g>
 </g>
 <defs>
  <clipPath id="pf7822c44e2">
   <rect x="25.214615" y="27.094314" width="360.404425" height="168.433863"/>
  </clipPath>
 </defs>
</svg>
