<?xml version="1.0" encoding="utf-8" standalone="no"?>
<!DOCTYPE svg PUBLIC "-//W3C//DTD SVG 1.1//EN"
  "http://www.w3.org/Graphics/SVG/1.1/DTD/svg11.dtd">
<svg xmlns:xlink="http://www.w3.org/1999/xlink" width="194.30964pt" height="145.748736pt" viewBox="0 0 194.30964 145.748736" xmlns="http://www.w3.org/2000/svg" version="1.1">
 <metadata>
  <rdf:RDF xmlns:dc="http://purl.org/dc/elements/1.1/" xmlns:cc="http://creativecommons.org/ns#" xmlns:rdf="http://www.w3.org/1999/02/22-rdf-syntax-ns#">
   <cc:Work>
    <dc:type rdf:resource="http://purl.org/dc/dcmitype/StillImage"/>
    <dc:date>2024-11-18T07:52:06.622072</dc:date>
    <dc:format>image/svg+xml</dc:format>
    <dc:creator>
     <cc:Agent>
      <dc:title>Matplotlib v3.8.2, https://matplotlib.org/</dc:title>
     </cc:Agent>
    </dc:creator>
   </cc:Work>
  </rdf:RDF>
 </metadata>
 <defs>
  <style type="text/css">*{stroke-linejoin: round; stroke-linecap: butt}</style>
 </defs>
 <g id="figure_1">
  <g id="patch_1">
   <path d="M 0 145.748736 
L 194.30964 145.748736 
L 194.30964 0 
L 0 0 
z
" style="fill: #ffffff"/>
  </g>
  <g id="axes_1">
   <g id="patch_2">
    <path d="M 20.61 62.454368 
L 188.90964 62.454368 
L 188.90964 7.2 
L 20.61 7.2 
z
" style="fill: #ffffff"/>
   </g>
   <g id="matplotlib.axis_1">
    <g id="xtick_1">
     <g id="line2d_1"/>
    </g>
    <g id="xtick_2">
     <g id="line2d_2"/>
    </g>
    <g id="xtick_3">
     <g id="line2d_3"/>
    </g>
    <g id="xtick_4">
     <g id="line2d_4"/>
    </g>
    <g id="xtick_5">
     <g id="line2d_5"/>
    </g>
   </g>
   <g id="matplotlib.axis_2">
    <g id="ytick_1">
     <g id="line2d_6"/>
     <g id="text_1">
      <!-- −10 -->
      <g style="fill: #262626" transform="translate(2.336719 60.731145) scale(0.07 -0.07)">
       <defs>
        <path id="DejaVuSerif-2212" d="M 678 2259 
L 4684 2259 
L 4684 1753 
L 678 1753 
L 678 2259 
z
" transform="scale(0.015625)"/>
        <path id="DejaVuSerif-31" d="M 909 0 
L 909 331 
L 1722 331 
L 1722 4213 
L 781 3603 
L 781 4013 
L 1919 4750 
L 2350 4750 
L 2350 331 
L 3163 331 
L 3163 0 
L 909 0 
z
" transform="scale(0.015625)"/>
        <path id="DejaVuSerif-30" d="M 2034 219 
Q 2513 219 2750 744 
Q 2988 1269 2988 2328 
Q 2988 3391 2750 3916 
Q 2513 4441 2034 4441 
Q 1556 4441 1318 3916 
Q 1081 3391 1081 2328 
Q 1081 1269 1318 744 
Q 1556 219 2034 219 
z
M 2034 -91 
Q 1275 -91 848 546 
Q 422 1184 422 2328 
Q 422 3475 848 4112 
Q 1275 4750 2034 4750 
Q 2797 4750 3222 4112 
Q 3647 3475 3647 2328 
Q 3647 1184 3222 546 
Q 2797 -91 2034 -91 
z
" transform="scale(0.015625)"/>
       </defs>
       <use xlink:href="#DejaVuSerif-2212"/>
       <use xlink:href="#DejaVuSerif-31" x="83.789062"/>
       <use xlink:href="#DejaVuSerif-30" x="147.412109"/>
      </g>
     </g>
    </g>
    <g id="ytick_2">
     <g id="line2d_7"/>
     <g id="text_2">
      <!-- 0 -->
      <g style="fill: #262626" transform="translate(12.65625 36.671355) scale(0.07 -0.07)">
       <use xlink:href="#DejaVuSerif-30"/>
      </g>
     </g>
    </g>
    <g id="ytick_3">
     <g id="line2d_8"/>
     <g id="text_3">
      <!-- 10 -->
      <g style="fill: #262626" transform="translate(8.2025 12.611566) scale(0.07 -0.07)">
       <use xlink:href="#DejaVuSerif-31"/>
       <use xlink:href="#DejaVuSerif-30" x="63.623047"/>
      </g>
     </g>
    </g>
    <g id="text_4">
     <!-- $\beta$ [deg] -->
     <g style="fill: #262626" transform="translate(-3.043281 45.657184) rotate(-90) scale(0.06 -0.06)">
      <defs>
       <path id="DejaVuSans-Oblique-3b2" d="M 872 216 
L 572 -1331 
L -6 -1331 
L 928 3478 
Q 1206 4903 2538 4903 
Q 3888 4903 3659 3700 
Q 3503 2844 2894 2531 
Q 3713 2250 3553 1416 
Q 3272 -69 1759 -66 
Q 1097 -63 872 216 
z
M 1019 966 
Q 1259 422 1875 425 
Q 2775 425 2966 1406 
Q 3138 2288 1675 2219 
L 1778 2750 
Q 2909 2731 3106 3750 
Q 3241 4438 2509 4434 
Q 1691 4434 1503 3459 
L 1019 966 
z
" transform="scale(0.015625)"/>
       <path id="DejaVuSerif-20" transform="scale(0.015625)"/>
       <path id="DejaVuSerif-5b" d="M 550 4863 
L 2003 4863 
L 2003 4531 
L 1147 4531 
L 1147 -513 
L 2003 -513 
L 2003 -844 
L 550 -844 
L 550 4863 
z
" transform="scale(0.015625)"/>
       <path id="DejaVuSerif-64" d="M 3359 331 
L 3909 331 
L 3909 0 
L 2784 0 
L 2784 519 
Q 2616 206 2355 57 
Q 2094 -91 1709 -91 
Q 1097 -91 708 395 
Q 319 881 319 1663 
Q 319 2444 706 2928 
Q 1094 3413 1709 3413 
Q 2094 3413 2355 3264 
Q 2616 3116 2784 2803 
L 2784 4531 
L 2241 4531 
L 2241 4863 
L 3359 4863 
L 3359 331 
z
M 2784 1497 
L 2784 1825 
Q 2784 2422 2554 2737 
Q 2325 3053 1888 3053 
Q 1444 3053 1217 2703 
Q 991 2353 991 1663 
Q 991 975 1217 622 
Q 1444 269 1888 269 
Q 2325 269 2554 583 
Q 2784 897 2784 1497 
z
" transform="scale(0.015625)"/>
       <path id="DejaVuSerif-65" d="M 3469 1600 
L 991 1600 
L 991 1575 
Q 991 903 1244 561 
Q 1497 219 1991 219 
Q 2369 219 2611 417 
Q 2853 616 2950 1006 
L 3413 1006 
Q 3275 459 2904 184 
Q 2534 -91 1931 -91 
Q 1203 -91 761 389 
Q 319 869 319 1663 
Q 319 2450 753 2931 
Q 1188 3413 1894 3413 
Q 2647 3413 3050 2948 
Q 3453 2484 3469 1600 
z
M 2791 1931 
Q 2772 2513 2545 2808 
Q 2319 3103 1894 3103 
Q 1497 3103 1269 2806 
Q 1041 2509 991 1931 
L 2791 1931 
z
" transform="scale(0.015625)"/>
       <path id="DejaVuSerif-67" d="M 3359 2988 
L 3359 72 
Q 3359 -644 2965 -1033 
Q 2572 -1422 1844 -1422 
Q 1516 -1422 1216 -1362 
Q 916 -1303 641 -1184 
L 641 -488 
L 941 -488 
Q 997 -813 1206 -963 
Q 1416 -1113 1806 -1113 
Q 2313 -1113 2548 -827 
Q 2784 -541 2784 72 
L 2784 519 
Q 2616 206 2355 57 
Q 2094 -91 1709 -91 
Q 1097 -91 708 395 
Q 319 881 319 1663 
Q 319 2444 706 2928 
Q 1094 3413 1709 3413 
Q 2094 3413 2355 3264 
Q 2616 3116 2784 2803 
L 2784 3322 
L 3909 3322 
L 3909 2988 
L 3359 2988 
z
M 2784 1825 
Q 2784 2422 2554 2737 
Q 2325 3053 1888 3053 
Q 1444 3053 1217 2703 
Q 991 2353 991 1663 
Q 991 975 1217 622 
Q 1444 269 1888 269 
Q 2325 269 2554 583 
Q 2784 897 2784 1497 
L 2784 1825 
z
" transform="scale(0.015625)"/>
       <path id="DejaVuSerif-5d" d="M 1947 4863 
L 1947 -844 
L 494 -844 
L 494 -513 
L 1350 -513 
L 1350 4531 
L 494 4531 
L 494 4863 
L 1947 4863 
z
" transform="scale(0.015625)"/>
      </defs>
      <use xlink:href="#DejaVuSans-Oblique-3b2" transform="translate(0 0.390625)"/>
      <use xlink:href="#DejaVuSerif-20" transform="translate(63.818359 0.390625)"/>
      <use xlink:href="#DejaVuSerif-5b" transform="translate(95.605469 0.390625)"/>
      <use xlink:href="#DejaVuSerif-64" transform="translate(134.619141 0.390625)"/>
      <use xlink:href="#DejaVuSerif-65" transform="translate(198.632812 0.390625)"/>
      <use xlink:href="#DejaVuSerif-67" transform="translate(257.8125 0.390625)"/>
      <use xlink:href="#DejaVuSerif-5d" transform="translate(321.826172 0.390625)"/>
     </g>
    </g>
   </g>
   <g id="line2d_9">
    <path d="M 28.259984 34.011902 
L 28.952049 33.903457 
L 29.644114 33.563484 
L 30.389415 32.932021 
L 32.199432 31.055434 
L 34.630534 28.189075 
L 42.757865 18.345327 
L 44.621118 16.551468 
L 45.277693 16.210667 
L 45.916522 16.123059 
L 46.573097 16.259046 
L 47.282907 16.63728 
L 48.116935 17.349711 
L 60.804799 29.592761 
L 65.400823 34.537944 
L 71.203524 41.146175 
L 76.012491 46.505608 
L 78.798498 49.280607 
L 81.140873 51.307527 
L 83.305795 52.892167 
L 85.417481 54.165219 
L 87.564658 55.200809 
L 89.818307 56.041332 
L 92.338135 56.737103 
L 94.804726 57.197518 
L 95.479047 57.072225 
L 96.242093 56.692661 
L 97.200337 55.947895 
L 98.531232 54.623342 
L 99.933108 53.369825 
L 102.027049 51.815407 
L 105.39865 49.626081 
L 112.549991 45.308302 
L 120.87252 40.17898 
L 127.970626 35.537812 
L 135.849524 30.104056 
L 146.496683 22.768799 
L 151.021725 19.947251 
L 154.854702 17.814718 
L 158.421501 16.080819 
L 161.899573 14.636431 
L 165.466371 13.397658 
L 169.263857 12.317411 
L 173.540466 11.33816 
L 178.828555 10.367227 
L 181.259656 9.97355 
L 181.259656 9.97355 
" clip-path="url(#p0b412ff3f0)" style="fill: none; stroke: #ff0000; stroke-width: 0.4; stroke-linecap: round"/>
   </g>
   <g id="line2d_10">
    <path d="M 28.259984 34.011902 
L 28.898813 33.862517 
L 29.519897 33.487008 
L 30.140982 32.8416 
L 31.596093 30.823061 
L 33.477091 27.801248 
L 38.72969 19.177706 
L 40.468726 16.890206 
L 42.048054 15.150681 
L 42.704629 14.733945 
L 43.307968 14.612788 
L 43.911307 14.722608 
L 44.550137 15.070926 
L 45.259947 15.721057 
L 46.981238 17.808061 
L 50.707744 22.458209 
L 55.357003 28.763785 
L 59.598121 34.887523 
L 65.329842 43.173574 
L 68.151339 46.83904 
L 70.440478 49.475861 
L 72.56991 51.593556 
L 74.344436 53.075945 
L 76.260925 54.368594 
L 78.283885 55.448547 
L 80.271355 56.257515 
L 82.418532 56.904599 
L 85.080321 57.44772 
L 85.719151 57.343483 
L 86.411216 56.995408 
L 87.174263 56.352565 
L 88.061526 55.295555 
L 94.786981 45.824743 
L 97.608478 41.359036 
L 100.802626 35.837235 
L 105.629338 26.912409 
L 108.415345 22.033295 
L 110.420559 18.952209 
L 112.088614 16.785637 
L 113.685688 15.055572 
L 115.300507 13.634739 
L 116.8266 12.594652 
L 118.423674 11.775424 
L 120.286927 11.069536 
L 122.380868 10.535017 
L 124.687752 10.180145 
L 124.687752 10.180145 
" clip-path="url(#p0b412ff3f0)" style="fill: none; stroke: #0000ff; stroke-width: 0.4; stroke-linecap: round"/>
   </g>
   <g id="line2d_11">
    <path d="M 28.259984 34.011902 
L 28.898813 33.856432 
L 29.555388 33.454473 
L 30.282944 32.721609 
L 31.986489 30.602526 
L 34.470826 27.122328 
L 38.960378 20.839735 
L 41.107555 18.251123 
L 43.024044 16.26336 
L 43.733855 15.817408 
L 44.408175 15.648246 
L 45.082495 15.713076 
L 45.827796 16.021805 
L 46.78604 16.68951 
L 48.738019 18.390129 
L 51.16912 20.820609 
L 53.79542 23.730947 
L 56.954077 27.56868 
L 60.236951 31.928274 
L 63.963456 37.313245 
L 72.321476 49.63468 
L 74.344436 52.09177 
L 76.136708 53.92107 
L 77.769272 55.277684 
L 79.419582 56.372631 
L 81.158618 57.261352 
L 82.95089 57.923064 
L 85.080321 58.44221 
L 85.843368 58.476887 
L 86.535433 58.255474 
L 87.280734 57.785491 
L 88.30996 56.849155 
L 92.39137 52.704628 
L 94.786981 50.254908 
L 96.987394 47.65282 
L 99.276533 44.605465 
L 101.938323 40.636864 
L 105.09698 35.467381 
L 112.869406 22.598275 
L 115.069819 19.527178 
L 116.933072 17.291816 
L 118.672108 15.540692 
L 120.49987 14.005006 
L 122.221161 12.841545 
L 124.066668 11.864089 
L 126.089628 11.044907 
L 128.290041 10.410107 
L 131.022812 9.898569 
L 132.60214 9.711562 
L 132.60214 9.711562 
" clip-path="url(#p0b412ff3f0)" style="fill: none; stroke: #00bfbf; stroke-width: 0.4; stroke-linecap: round"/>
   </g>
   <g id="patch_3">
    <path d="M 20.61 62.454368 
L 20.61 7.2 
" style="fill: none; stroke: #000000; stroke-linejoin: miter; stroke-linecap: square"/>
   </g>
   <g id="patch_4">
    <path d="M 20.61 62.454368 
L 188.90964 62.454368 
" style="fill: none; stroke: #000000; stroke-linejoin: miter; stroke-linecap: square"/>
   </g>
   <g id="legend_1">
    <g id="line2d_12">
     <path d="M 84.083546 18.84695 
L 91.083546 18.84695 
L 98.083546 18.84695 
" style="fill: none; stroke: #000000; stroke-width: 0.7; stroke-linecap: round"/>
    </g>
    <g id="text_5">
     <!-- experiment -->
     <g style="fill: #262626" transform="translate(103.683546 21.29695) scale(0.07 -0.07)">
      <defs>
       <path id="DejaVuSerif-78" d="M 1863 2028 
L 2559 2988 
L 2113 2988 
L 2113 3322 
L 3391 3322 
L 3391 2988 
L 2950 2988 
L 2059 1759 
L 3097 331 
L 3531 331 
L 3531 0 
L 1997 0 
L 1997 331 
L 2419 331 
L 1697 1325 
L 972 331 
L 1403 331 
L 1403 0 
L 141 0 
L 141 331 
L 581 331 
L 1497 1594 
L 488 2988 
L 78 2988 
L 78 3322 
L 1563 3322 
L 1563 2988 
L 1166 2988 
L 1863 2028 
z
" transform="scale(0.015625)"/>
       <path id="DejaVuSerif-70" d="M 1313 1825 
L 1313 1497 
Q 1313 897 1542 583 
Q 1772 269 2209 269 
Q 2650 269 2876 622 
Q 3103 975 3103 1663 
Q 3103 2353 2876 2703 
Q 2650 3053 2209 3053 
Q 1772 3053 1542 2737 
Q 1313 2422 1313 1825 
z
M 738 2988 
L 184 2988 
L 184 3322 
L 1313 3322 
L 1313 2803 
Q 1481 3116 1742 3264 
Q 2003 3413 2388 3413 
Q 3000 3413 3387 2928 
Q 3775 2444 3775 1663 
Q 3775 881 3387 395 
Q 3000 -91 2388 -91 
Q 2003 -91 1742 57 
Q 1481 206 1313 519 
L 1313 -997 
L 1856 -997 
L 1856 -1331 
L 184 -1331 
L 184 -997 
L 738 -997 
L 738 2988 
z
" transform="scale(0.015625)"/>
       <path id="DejaVuSerif-72" d="M 3059 3328 
L 3059 2497 
L 2728 2497 
Q 2713 2744 2591 2866 
Q 2469 2988 2234 2988 
Q 1809 2988 1582 2694 
Q 1356 2400 1356 1850 
L 1356 331 
L 2022 331 
L 2022 0 
L 263 0 
L 263 331 
L 781 331 
L 781 2994 
L 231 2994 
L 231 3322 
L 1356 3322 
L 1356 2731 
Q 1525 3078 1790 3245 
Q 2056 3413 2438 3413 
Q 2578 3413 2733 3391 
Q 2888 3369 3059 3328 
z
" transform="scale(0.015625)"/>
       <path id="DejaVuSerif-69" d="M 622 4353 
Q 622 4497 726 4603 
Q 831 4709 978 4709 
Q 1122 4709 1226 4603 
Q 1331 4497 1331 4353 
Q 1331 4206 1228 4103 
Q 1125 4000 978 4000 
Q 831 4000 726 4103 
Q 622 4206 622 4353 
z
M 1356 331 
L 1900 331 
L 1900 0 
L 231 0 
L 231 331 
L 781 331 
L 781 2988 
L 231 2988 
L 231 3322 
L 1356 3322 
L 1356 331 
z
" transform="scale(0.015625)"/>
       <path id="DejaVuSerif-6d" d="M 3316 2675 
Q 3481 3041 3739 3227 
Q 3997 3413 4341 3413 
Q 4863 3413 5119 3089 
Q 5375 2766 5375 2113 
L 5375 331 
L 5894 331 
L 5894 0 
L 4300 0 
L 4300 331 
L 4800 331 
L 4800 2047 
Q 4800 2556 4650 2772 
Q 4500 2988 4153 2988 
Q 3769 2988 3567 2697 
Q 3366 2406 3366 1850 
L 3366 331 
L 3866 331 
L 3866 0 
L 2291 0 
L 2291 331 
L 2791 331 
L 2791 2069 
Q 2791 2566 2641 2777 
Q 2491 2988 2144 2988 
Q 1759 2988 1557 2697 
Q 1356 2406 1356 1850 
L 1356 331 
L 1856 331 
L 1856 0 
L 263 0 
L 263 331 
L 781 331 
L 781 2994 
L 231 2994 
L 231 3322 
L 1356 3322 
L 1356 2731 
Q 1516 3063 1762 3238 
Q 2009 3413 2322 3413 
Q 2709 3413 2968 3220 
Q 3228 3028 3316 2675 
z
" transform="scale(0.015625)"/>
       <path id="DejaVuSerif-6e" d="M 263 0 
L 263 331 
L 781 331 
L 781 2988 
L 231 2988 
L 231 3322 
L 1356 3322 
L 1356 2731 
Q 1516 3069 1770 3241 
Q 2025 3413 2363 3413 
Q 2913 3413 3172 3097 
Q 3431 2781 3431 2113 
L 3431 331 
L 3944 331 
L 3944 0 
L 2356 0 
L 2356 331 
L 2853 331 
L 2853 1931 
Q 2853 2541 2703 2767 
Q 2553 2994 2175 2994 
Q 1775 2994 1565 2701 
Q 1356 2409 1356 1850 
L 1356 331 
L 1856 331 
L 1856 0 
L 263 0 
z
" transform="scale(0.015625)"/>
       <path id="DejaVuSerif-74" d="M 691 2988 
L 184 2988 
L 184 3322 
L 691 3322 
L 691 4353 
L 1269 4353 
L 1269 3322 
L 2350 3322 
L 2350 2988 
L 1269 2988 
L 1269 878 
Q 1269 456 1350 337 
Q 1431 219 1650 219 
Q 1875 219 1978 351 
Q 2081 484 2088 781 
L 2522 781 
Q 2497 328 2275 118 
Q 2053 -91 1600 -91 
Q 1103 -91 897 129 
Q 691 350 691 878 
L 691 2988 
z
" transform="scale(0.015625)"/>
      </defs>
      <use xlink:href="#DejaVuSerif-65"/>
      <use xlink:href="#DejaVuSerif-78" x="59.179688"/>
      <use xlink:href="#DejaVuSerif-70" x="115.576172"/>
      <use xlink:href="#DejaVuSerif-65" x="179.589844"/>
      <use xlink:href="#DejaVuSerif-72" x="238.769531"/>
      <use xlink:href="#DejaVuSerif-69" x="286.572266"/>
      <use xlink:href="#DejaVuSerif-6d" x="318.554688"/>
      <use xlink:href="#DejaVuSerif-65" x="413.378906"/>
      <use xlink:href="#DejaVuSerif-6e" x="472.558594"/>
      <use xlink:href="#DejaVuSerif-74" x="536.962891"/>
     </g>
    </g>
    <g id="line2d_13">
     <path d="M 84.083546 29.121637 
L 91.083546 29.121637 
L 98.083546 29.121637 
" style="fill: none; stroke: #ff0000; stroke-width: 0.4; stroke-linecap: round"/>
    </g>
    <g id="text_6">
     <!-- polynomial rudder -->
     <g style="fill: #262626" transform="translate(103.683546 31.571637) scale(0.07 -0.07)">
      <defs>
       <path id="DejaVuSerif-6f" d="M 1925 219 
Q 2388 219 2623 584 
Q 2859 950 2859 1663 
Q 2859 2375 2623 2739 
Q 2388 3103 1925 3103 
Q 1463 3103 1227 2739 
Q 991 2375 991 1663 
Q 991 950 1228 584 
Q 1466 219 1925 219 
z
M 1925 -91 
Q 1200 -91 759 389 
Q 319 869 319 1663 
Q 319 2456 758 2934 
Q 1197 3413 1925 3413 
Q 2653 3413 3092 2934 
Q 3531 2456 3531 1663 
Q 3531 869 3092 389 
Q 2653 -91 1925 -91 
z
" transform="scale(0.015625)"/>
       <path id="DejaVuSerif-6c" d="M 1313 331 
L 1856 331 
L 1856 0 
L 184 0 
L 184 331 
L 738 331 
L 738 4531 
L 184 4531 
L 184 4863 
L 1313 4863 
L 1313 331 
z
" transform="scale(0.015625)"/>
       <path id="DejaVuSerif-79" d="M 1381 -609 
L 1600 -56 
L 359 2988 
L -19 2988 
L -19 3322 
L 1509 3322 
L 1509 2988 
L 978 2988 
L 1913 703 
L 2847 2988 
L 2350 2988 
L 2350 3322 
L 3597 3322 
L 3597 2988 
L 3225 2988 
L 1703 -750 
Q 1547 -1138 1356 -1280 
Q 1166 -1422 819 -1422 
Q 672 -1422 517 -1397 
Q 363 -1372 206 -1325 
L 206 -691 
L 500 -691 
Q 519 -903 608 -995 
Q 697 -1088 884 -1088 
Q 1056 -1088 1161 -992 
Q 1266 -897 1381 -609 
z
" transform="scale(0.015625)"/>
       <path id="DejaVuSerif-61" d="M 2547 1044 
L 2547 1747 
L 1806 1747 
Q 1378 1747 1168 1562 
Q 959 1378 959 997 
Q 959 650 1171 447 
Q 1384 244 1747 244 
Q 2106 244 2326 466 
Q 2547 688 2547 1044 
z
M 3122 2075 
L 3122 331 
L 3634 331 
L 3634 0 
L 2547 0 
L 2547 359 
Q 2356 128 2106 18 
Q 1856 -91 1522 -91 
Q 969 -91 644 203 
Q 319 497 319 997 
Q 319 1513 691 1797 
Q 1063 2081 1741 2081 
L 2547 2081 
L 2547 2309 
Q 2547 2688 2317 2895 
Q 2088 3103 1672 3103 
Q 1328 3103 1125 2947 
Q 922 2791 872 2484 
L 575 2484 
L 575 3156 
Q 875 3284 1158 3348 
Q 1441 3413 1709 3413 
Q 2400 3413 2761 3070 
Q 3122 2728 3122 2075 
z
" transform="scale(0.015625)"/>
       <path id="DejaVuSerif-75" d="M 2266 3322 
L 3341 3322 
L 3341 331 
L 3884 331 
L 3884 0 
L 2766 0 
L 2766 588 
Q 2606 256 2353 82 
Q 2100 -91 1766 -91 
Q 1213 -91 952 223 
Q 691 538 691 1209 
L 691 2988 
L 172 2988 
L 172 3322 
L 1269 3322 
L 1269 1388 
Q 1269 781 1417 556 
Q 1566 331 1947 331 
Q 2347 331 2556 625 
Q 2766 919 2766 1478 
L 2766 2988 
L 2266 2988 
L 2266 3322 
z
" transform="scale(0.015625)"/>
      </defs>
      <use xlink:href="#DejaVuSerif-70"/>
      <use xlink:href="#DejaVuSerif-6f" x="64.013672"/>
      <use xlink:href="#DejaVuSerif-6c" x="124.21875"/>
      <use xlink:href="#DejaVuSerif-79" x="156.201172"/>
      <use xlink:href="#DejaVuSerif-6e" x="212.695312"/>
      <use xlink:href="#DejaVuSerif-6f" x="277.099609"/>
      <use xlink:href="#DejaVuSerif-6d" x="337.304688"/>
      <use xlink:href="#DejaVuSerif-69" x="432.128906"/>
      <use xlink:href="#DejaVuSerif-61" x="464.111328"/>
      <use xlink:href="#DejaVuSerif-6c" x="523.730469"/>
      <use xlink:href="#DejaVuSerif-20" x="555.712891"/>
      <use xlink:href="#DejaVuSerif-72" x="587.5"/>
      <use xlink:href="#DejaVuSerif-75" x="635.302734"/>
      <use xlink:href="#DejaVuSerif-64" x="699.707031"/>
      <use xlink:href="#DejaVuSerif-64" x="763.720703"/>
      <use xlink:href="#DejaVuSerif-65" x="827.734375"/>
      <use xlink:href="#DejaVuSerif-72" x="886.914062"/>
     </g>
    </g>
    <g id="line2d_14">
     <path d="M 84.083546 39.495856 
L 91.083546 39.495856 
L 98.083546 39.495856 
" style="fill: none; stroke: #0000ff; stroke-width: 0.4; stroke-linecap: round"/>
    </g>
    <g id="text_7">
     <!-- semi-empirical rudder -->
     <g style="fill: #262626" transform="translate(103.683546 41.945856) scale(0.07 -0.07)">
      <defs>
       <path id="DejaVuSerif-73" d="M 359 184 
L 359 959 
L 691 959 
Q 703 588 923 403 
Q 1144 219 1575 219 
Q 1963 219 2166 364 
Q 2369 509 2369 788 
Q 2369 1006 2220 1140 
Q 2072 1275 1594 1428 
L 1178 1569 
Q 750 1706 558 1912 
Q 366 2119 366 2438 
Q 366 2894 700 3153 
Q 1034 3413 1625 3413 
Q 1888 3413 2178 3344 
Q 2469 3275 2778 3144 
L 2778 2419 
L 2447 2419 
Q 2434 2741 2221 2922 
Q 2009 3103 1644 3103 
Q 1281 3103 1095 2975 
Q 909 2847 909 2591 
Q 909 2381 1050 2254 
Q 1191 2128 1613 1997 
L 2069 1856 
Q 2541 1709 2748 1489 
Q 2956 1269 2956 922 
Q 2956 450 2595 179 
Q 2234 -91 1600 -91 
Q 1278 -91 972 -22 
Q 666 47 359 184 
z
" transform="scale(0.015625)"/>
       <path id="DejaVuSerif-2d" d="M 281 1959 
L 1881 1959 
L 1881 1472 
L 281 1472 
L 281 1959 
z
" transform="scale(0.015625)"/>
       <path id="DejaVuSerif-63" d="M 3291 997 
Q 3169 466 2822 187 
Q 2475 -91 1925 -91 
Q 1200 -91 759 389 
Q 319 869 319 1663 
Q 319 2459 759 2936 
Q 1200 3413 1925 3413 
Q 2241 3413 2553 3339 
Q 2866 3266 3181 3116 
L 3181 2266 
L 2847 2266 
Q 2781 2703 2561 2903 
Q 2341 3103 1931 3103 
Q 1466 3103 1228 2742 
Q 991 2381 991 1663 
Q 991 944 1227 581 
Q 1463 219 1931 219 
Q 2303 219 2525 412 
Q 2747 606 2828 997 
L 3291 997 
z
" transform="scale(0.015625)"/>
      </defs>
      <use xlink:href="#DejaVuSerif-73"/>
      <use xlink:href="#DejaVuSerif-65" x="51.318359"/>
      <use xlink:href="#DejaVuSerif-6d" x="110.498047"/>
      <use xlink:href="#DejaVuSerif-69" x="205.322266"/>
      <use xlink:href="#DejaVuSerif-2d" x="237.304688"/>
      <use xlink:href="#DejaVuSerif-65" x="271.09375"/>
      <use xlink:href="#DejaVuSerif-6d" x="330.273438"/>
      <use xlink:href="#DejaVuSerif-70" x="425.097656"/>
      <use xlink:href="#DejaVuSerif-69" x="489.111328"/>
      <use xlink:href="#DejaVuSerif-72" x="521.09375"/>
      <use xlink:href="#DejaVuSerif-69" x="568.896484"/>
      <use xlink:href="#DejaVuSerif-63" x="600.878906"/>
      <use xlink:href="#DejaVuSerif-61" x="656.884766"/>
      <use xlink:href="#DejaVuSerif-6c" x="716.503906"/>
      <use xlink:href="#DejaVuSerif-20" x="748.486328"/>
      <use xlink:href="#DejaVuSerif-72" x="780.273438"/>
      <use xlink:href="#DejaVuSerif-75" x="828.076172"/>
      <use xlink:href="#DejaVuSerif-64" x="892.480469"/>
      <use xlink:href="#DejaVuSerif-64" x="956.494141"/>
      <use xlink:href="#DejaVuSerif-65" x="1020.507812"/>
      <use xlink:href="#DejaVuSerif-72" x="1079.6875"/>
     </g>
    </g>
    <g id="line2d_15">
     <path d="M 84.083546 49.770543 
L 91.083546 49.770543 
L 98.083546 49.770543 
" style="fill: none; stroke: #00bfbf; stroke-width: 0.4; stroke-linecap: round"/>
    </g>
    <g id="text_8">
     <!-- MMG rudder -->
     <g style="fill: #262626" transform="translate(103.683546 52.220543) scale(0.07 -0.07)">
      <defs>
       <path id="DejaVuSerif-4d" d="M 353 0 
L 353 331 
L 947 331 
L 947 4331 
L 319 4331 
L 319 4666 
L 1678 4666 
L 3316 1344 
L 4953 4666 
L 6228 4666 
L 6228 4331 
L 5606 4331 
L 5606 331 
L 6203 331 
L 6203 0 
L 4378 0 
L 4378 331 
L 4972 331 
L 4972 3938 
L 3372 684 
L 2931 684 
L 1331 3938 
L 1331 331 
L 1925 331 
L 1925 0 
L 353 0 
z
" transform="scale(0.015625)"/>
       <path id="DejaVuSerif-47" d="M 4097 3272 
Q 3988 3856 3641 4136 
Q 3294 4416 2675 4416 
Q 1869 4416 1472 3897 
Q 1075 3378 1075 2328 
Q 1075 1300 1484 772 
Q 1894 244 2688 244 
Q 3041 244 3362 331 
Q 3684 419 3975 594 
L 3975 1797 
L 3097 1797 
L 3097 2131 
L 4609 2131 
L 4609 391 
Q 4194 150 3714 29 
Q 3234 -91 2688 -91 
Q 1631 -91 995 570 
Q 359 1231 359 2328 
Q 359 3434 996 4092 
Q 1634 4750 2713 4750 
Q 3113 4750 3539 4658 
Q 3966 4566 4447 4378 
L 4447 3272 
L 4097 3272 
z
" transform="scale(0.015625)"/>
      </defs>
      <use xlink:href="#DejaVuSerif-4d"/>
      <use xlink:href="#DejaVuSerif-4d" x="102.392578"/>
      <use xlink:href="#DejaVuSerif-47" x="204.785156"/>
      <use xlink:href="#DejaVuSerif-20" x="284.667969"/>
      <use xlink:href="#DejaVuSerif-72" x="316.455078"/>
      <use xlink:href="#DejaVuSerif-75" x="364.257812"/>
      <use xlink:href="#DejaVuSerif-64" x="428.662109"/>
      <use xlink:href="#DejaVuSerif-64" x="492.675781"/>
      <use xlink:href="#DejaVuSerif-65" x="556.689453"/>
      <use xlink:href="#DejaVuSerif-72" x="615.869141"/>
     </g>
    </g>
   </g>
   <g id="line2d_16">
    <path d="M 28.259984 33.997065 
L 29.005242 33.884102 
L 29.768299 33.5385 
L 30.779783 32.784382 
L 32.696264 31.186537 
L 34.257871 29.590023 
L 35.659755 27.854513 
L 38.197295 24.324243 
L 41.480172 19.832663 
L 43.432146 17.537714 
L 44.266177 16.843057 
L 45.08245 16.435631 
L 45.916483 16.260673 
L 46.608545 16.327473 
L 47.265141 16.637911 
L 50.654469 18.459255 
L 51.754691 19.526442 
L 53.227537 21.300293 
L 56.066785 25.110527 
L 61.975957 33.471619 
L 74.007242 50.15088 
L 76.189919 52.644222 
L 78.567781 55.001238 
L 80.09387 56.258224 
L 82.82666 58.138198 
L 84.193037 58.863648 
L 86.712843 59.928192 
L 87.440401 59.895094 
L 88.27443 59.611056 
L 89.072972 59.101668 
L 89.977981 58.215664 
L 90.918478 57.411341 
L 93.260917 55.546052 
L 94.272354 54.432703 
L 95.816194 52.371159 
L 98.424714 48.461683 
L 100.802587 45.016972 
L 109.462278 33.322247 
L 114.501981 26.286012 
L 117.96226 21.774565 
L 120.00297 19.377232 
L 122.89545 16.378209 
L 125.947634 13.719549 
L 128.183539 12.12322 
L 130.312964 10.892529 
L 132.602101 9.798313 
L 132.602101 9.798313 
" clip-path="url(#p0b412ff3f0)" style="fill: none; stroke: #000000; stroke-width: 0.7; stroke-linecap: round"/>
   </g>
  </g>
  <g id="axes_2">
   <g id="patch_5">
    <path d="M 20.61 124.908736 
L 188.90964 124.908736 
L 188.90964 69.654368 
L 20.61 69.654368 
z
" style="fill: #ffffff"/>
   </g>
   <g id="matplotlib.axis_3">
    <g id="xtick_6">
     <g id="line2d_17"/>
     <g id="text_9">
      <!-- 0 -->
      <g style="fill: #262626" transform="translate(26.033109 133.727642) scale(0.07 -0.07)">
       <use xlink:href="#DejaVuSerif-30"/>
      </g>
     </g>
    </g>
    <g id="xtick_7">
     <g id="line2d_18"/>
     <g id="text_10">
      <!-- 20 -->
      <g style="fill: #262626" transform="translate(59.296763 133.727642) scale(0.07 -0.07)">
       <defs>
        <path id="DejaVuSerif-32" d="M 819 3553 
L 469 3553 
L 469 4384 
Q 803 4563 1142 4656 
Q 1481 4750 1806 4750 
Q 2534 4750 2956 4397 
Q 3378 4044 3378 3438 
Q 3378 2753 2422 1800 
Q 2347 1728 2309 1691 
L 1131 513 
L 3078 513 
L 3078 1088 
L 3444 1088 
L 3444 0 
L 434 0 
L 434 341 
L 1850 1753 
Q 2319 2222 2519 2614 
Q 2719 3006 2719 3438 
Q 2719 3909 2473 4175 
Q 2228 4441 1797 4441 
Q 1350 4441 1106 4219 
Q 863 3997 819 3553 
z
" transform="scale(0.015625)"/>
       </defs>
       <use xlink:href="#DejaVuSerif-32"/>
       <use xlink:href="#DejaVuSerif-30" x="63.623047"/>
      </g>
     </g>
    </g>
    <g id="xtick_8">
     <g id="line2d_19"/>
     <g id="text_11">
      <!-- 40 -->
      <g style="fill: #262626" transform="translate(94.787293 133.727642) scale(0.07 -0.07)">
       <defs>
        <path id="DejaVuSerif-34" d="M 2234 1581 
L 2234 4063 
L 641 1581 
L 2234 1581 
z
M 3609 0 
L 1484 0 
L 1484 331 
L 2234 331 
L 2234 1247 
L 197 1247 
L 197 1588 
L 2241 4750 
L 2859 4750 
L 2859 1581 
L 3750 1581 
L 3750 1247 
L 2859 1247 
L 2859 331 
L 3609 331 
L 3609 0 
z
" transform="scale(0.015625)"/>
       </defs>
       <use xlink:href="#DejaVuSerif-34"/>
       <use xlink:href="#DejaVuSerif-30" x="63.623047"/>
      </g>
     </g>
    </g>
    <g id="xtick_9">
     <g id="line2d_20"/>
     <g id="text_12">
      <!-- 60 -->
      <g style="fill: #262626" transform="translate(130.277822 133.727642) scale(0.07 -0.07)">
       <defs>
        <path id="DejaVuSerif-36" d="M 2094 219 
Q 2534 219 2771 542 
Q 3009 866 3009 1472 
Q 3009 2078 2771 2401 
Q 2534 2725 2094 2725 
Q 1647 2725 1412 2412 
Q 1178 2100 1178 1509 
Q 1178 888 1415 553 
Q 1653 219 2094 219 
z
M 1075 2569 
Q 1288 2803 1556 2918 
Q 1825 3034 2163 3034 
Q 2859 3034 3264 2615 
Q 3669 2197 3669 1472 
Q 3669 763 3233 336 
Q 2797 -91 2069 -91 
Q 1278 -91 853 498 
Q 428 1088 428 2181 
Q 428 3406 931 4078 
Q 1434 4750 2350 4750 
Q 2597 4750 2869 4703 
Q 3141 4656 3425 4563 
L 3425 3794 
L 3072 3794 
Q 3034 4109 2831 4275 
Q 2628 4441 2284 4441 
Q 1678 4441 1381 3981 
Q 1084 3522 1075 2569 
z
" transform="scale(0.015625)"/>
       </defs>
       <use xlink:href="#DejaVuSerif-36"/>
       <use xlink:href="#DejaVuSerif-30" x="63.623047"/>
      </g>
     </g>
    </g>
    <g id="xtick_10">
     <g id="line2d_21"/>
     <g id="text_13">
      <!-- 80 -->
      <g style="fill: #262626" transform="translate(165.768352 133.727642) scale(0.07 -0.07)">
       <defs>
        <path id="DejaVuSerif-38" d="M 2981 1275 
Q 2981 1775 2732 2051 
Q 2484 2328 2034 2328 
Q 1584 2328 1336 2051 
Q 1088 1775 1088 1275 
Q 1088 772 1336 495 
Q 1584 219 2034 219 
Q 2484 219 2732 495 
Q 2981 772 2981 1275 
z
M 2853 3541 
Q 2853 3966 2637 4203 
Q 2422 4441 2034 4441 
Q 1650 4441 1433 4203 
Q 1216 3966 1216 3541 
Q 1216 3113 1433 2875 
Q 1650 2638 2034 2638 
Q 2422 2638 2637 2875 
Q 2853 3113 2853 3541 
z
M 2516 2484 
Q 3047 2413 3344 2092 
Q 3641 1772 3641 1275 
Q 3641 619 3225 264 
Q 2809 -91 2034 -91 
Q 1263 -91 845 264 
Q 428 619 428 1275 
Q 428 1772 725 2092 
Q 1022 2413 1556 2484 
Q 1084 2569 832 2842 
Q 581 3116 581 3541 
Q 581 4103 968 4426 
Q 1356 4750 2034 4750 
Q 2713 4750 3100 4426 
Q 3488 4103 3488 3541 
Q 3488 3116 3236 2842 
Q 2984 2569 2516 2484 
z
" transform="scale(0.015625)"/>
       </defs>
       <use xlink:href="#DejaVuSerif-38"/>
       <use xlink:href="#DejaVuSerif-30" x="63.623047"/>
      </g>
     </g>
    </g>
    <g id="text_14">
     <!-- Time [s] -->
     <g style="fill: #262626" transform="translate(92.344976 143.742486) scale(0.06 -0.06)">
      <defs>
       <path id="DejaVuSerif-54" d="M 1222 0 
L 1222 331 
L 1819 331 
L 1819 4294 
L 447 4294 
L 447 3566 
L 63 3566 
L 63 4666 
L 4206 4666 
L 4206 3566 
L 3822 3566 
L 3822 4294 
L 2450 4294 
L 2450 331 
L 3047 331 
L 3047 0 
L 1222 0 
z
" transform="scale(0.015625)"/>
      </defs>
      <use xlink:href="#DejaVuSerif-54"/>
      <use xlink:href="#DejaVuSerif-69" x="66.699219"/>
      <use xlink:href="#DejaVuSerif-6d" x="98.681641"/>
      <use xlink:href="#DejaVuSerif-65" x="193.505859"/>
      <use xlink:href="#DejaVuSerif-20" x="252.685547"/>
      <use xlink:href="#DejaVuSerif-5b" x="284.472656"/>
      <use xlink:href="#DejaVuSerif-73" x="323.486328"/>
      <use xlink:href="#DejaVuSerif-5d" x="374.804688"/>
     </g>
    </g>
   </g>
   <g id="matplotlib.axis_4">
    <g id="ytick_4">
     <g id="line2d_22"/>
     <g id="text_15">
      <!-- −25 -->
      <g style="fill: #262626" transform="translate(2.336719 113.894287) scale(0.07 -0.07)">
       <defs>
        <path id="DejaVuSerif-35" d="M 3219 4666 
L 3219 4153 
L 1081 4153 
L 1081 2816 
Q 1244 2928 1461 2984 
Q 1678 3041 1947 3041 
Q 2703 3041 3140 2622 
Q 3578 2203 3578 1478 
Q 3578 738 3136 323 
Q 2694 -91 1894 -91 
Q 1572 -91 1234 -12 
Q 897 66 544 225 
L 544 1131 
L 897 1131 
Q 925 688 1179 453 
Q 1434 219 1894 219 
Q 2388 219 2653 544 
Q 2919 869 2919 1478 
Q 2919 2084 2655 2407 
Q 2391 2731 1894 2731 
Q 1613 2731 1398 2631 
Q 1184 2531 1019 2322 
L 750 2322 
L 750 4666 
L 3219 4666 
z
" transform="scale(0.015625)"/>
       </defs>
       <use xlink:href="#DejaVuSerif-2212"/>
       <use xlink:href="#DejaVuSerif-32" x="83.789062"/>
       <use xlink:href="#DejaVuSerif-35" x="147.412109"/>
      </g>
     </g>
    </g>
    <g id="ytick_5">
     <g id="line2d_23"/>
     <g id="text_16">
      <!-- 0 -->
      <g style="fill: #262626" transform="translate(12.65625 97.790652) scale(0.07 -0.07)">
       <use xlink:href="#DejaVuSerif-30"/>
      </g>
     </g>
    </g>
    <g id="ytick_6">
     <g id="line2d_24"/>
     <g id="text_17">
      <!-- 25 -->
      <g style="fill: #262626" transform="translate(8.2025 81.687018) scale(0.07 -0.07)">
       <use xlink:href="#DejaVuSerif-32"/>
       <use xlink:href="#DejaVuSerif-35" x="63.623047"/>
      </g>
     </g>
    </g>
    <g id="text_18">
     <!-- $\psi$ [deg] -->
     <g style="fill: #262626" transform="translate(-3.043281 108.171552) rotate(-90) scale(0.06 -0.06)">
      <defs>
       <path id="DejaVuSans-Oblique-3c8" d="M 1591 -78 
Q 891 38 616 341 
Q 278 713 425 1472 
L 819 3500 
L 1400 3500 
L 1009 1494 
Q 900 922 1119 684 
Q 1313 478 1691 434 
L 2284 3500 
L 2856 3500 
L 2263 438 
Q 2681 481 2928 688 
Q 3247 950 3353 1497 
L 3741 3500 
L 4322 3500 
L 3928 1475 
Q 3775 688 3300 344 
Q 2872 34 2163 -75 
L 1919 -1331 
L 1347 -1331 
L 1591 -78 
z
" transform="scale(0.015625)"/>
      </defs>
      <use xlink:href="#DejaVuSans-Oblique-3c8" transform="translate(0 0.015625)"/>
      <use xlink:href="#DejaVuSerif-20" transform="translate(65.966797 0.015625)"/>
      <use xlink:href="#DejaVuSerif-5b" transform="translate(97.753906 0.015625)"/>
      <use xlink:href="#DejaVuSerif-64" transform="translate(136.767578 0.015625)"/>
      <use xlink:href="#DejaVuSerif-65" transform="translate(200.78125 0.015625)"/>
      <use xlink:href="#DejaVuSerif-67" transform="translate(259.960938 0.015625)"/>
      <use xlink:href="#DejaVuSerif-5d" transform="translate(323.974609 0.015625)"/>
     </g>
    </g>
   </g>
   <g id="line2d_25">
    <path d="M 28.259984 95.131199 
L 30.229708 95.021209 
L 31.489622 94.703036 
L 32.873752 94.118057 
L 34.3821 93.232236 
L 36.014664 92.008833 
L 37.771446 90.40865 
L 39.687934 88.352445 
L 41.781875 85.769131 
L 44.141996 82.492151 
L 47.318398 78.046684 
L 48.578312 76.718916 
L 49.855971 75.702153 
L 51.240101 74.884574 
L 52.766194 74.243387 
L 54.434249 73.785971 
L 56.244266 73.522945 
L 58.160755 73.470736 
L 60.148224 73.63912 
L 62.18893 74.036849 
L 64.247381 74.666989 
L 66.305831 75.530997 
L 68.382027 76.646087 
L 70.475968 78.025412 
L 72.623146 79.709853 
L 74.859049 81.75308 
L 77.219169 84.217559 
L 79.809978 87.254781 
L 82.773437 91.086348 
L 86.464452 96.244747 
L 92.568823 105.224 
L 96.880922 111.425409 
L 98.371525 113.145209 
L 99.773401 114.424314 
L 101.334984 115.547434 
L 103.07402 116.522016 
L 105.025999 117.359138 
L 107.244157 118.06479 
L 109.746239 118.623809 
L 112.549991 119.018373 
L 115.602177 119.221498 
L 118.867305 119.214208 
L 122.238906 118.98401 
L 125.663742 118.527371 
L 129.088578 117.846607 
L 132.495669 116.942442 
L 135.867269 115.817868 
L 139.238869 114.457504 
L 142.61047 112.856249 
L 146.035306 110.982254 
L 149.584359 108.783273 
L 153.32861 106.196992 
L 157.410021 103.101507 
L 162.112516 99.245599 
L 168.145906 93.991072 
L 181.259656 82.248578 
L 181.259656 82.248578 
" clip-path="url(#pba9f5a030d)" style="fill: none; stroke: #ff0000; stroke-width: 0.4; stroke-linecap: round"/>
   </g>
   <g id="line2d_26">
    <path d="M 28.259984 95.131199 
L 29.99902 95.022102 
L 31.063735 94.721496 
L 32.199432 94.166169 
L 33.441601 93.304439 
L 34.807986 92.077093 
L 36.316334 90.413929 
L 38.05537 88.150524 
L 40.131566 85.062601 
L 42.757865 80.729836 
L 44.621118 77.814736 
L 45.81005 76.348805 
L 46.928002 75.326213 
L 48.09919 74.551447 
L 49.341358 73.992576 
L 50.689998 73.632258 
L 52.127365 73.482557 
L 53.671203 73.546929 
L 55.321512 73.839132 
L 57.042803 74.370677 
L 58.799584 75.147048 
L 60.609601 76.193792 
L 62.490599 77.541755 
L 64.495814 79.260494 
L 66.625246 81.386165 
L 68.89664 83.972446 
L 71.380977 87.149496 
L 74.184729 91.112614 
L 77.804763 96.646647 
L 83.004125 105.042067 
L 87.440442 112.107227 
L 88.700355 113.639534 
L 89.853798 114.68961 
L 91.060476 115.490259 
L 92.338135 116.073557 
L 93.686775 116.443189 
L 95.088651 116.596471 
L 96.543762 116.530501 
L 98.05211 116.239171 
L 99.613693 115.710855 
L 101.210767 114.93644 
L 102.861077 113.885594 
L 104.564622 112.5316 
L 106.339149 110.830903 
L 108.237892 108.695747 
L 110.314088 106.018059 
L 112.727444 102.524801 
L 115.637667 97.900492 
L 119.86104 90.722512 
L 124.687752 82.26823 
L 124.687752 82.26823 
" clip-path="url(#pba9f5a030d)" style="fill: none; stroke: #0000ff; stroke-width: 0.4; stroke-linecap: round"/>
   </g>
   <g id="line2d_27">
    <path d="M 28.259984 95.131199 
L 29.99902 95.02009 
L 31.134717 94.70848 
L 32.35914 94.137518 
L 33.70778 93.257061 
L 35.198382 92.00917 
L 36.848692 90.325465 
L 38.694199 88.113652 
L 40.805886 85.22388 
L 43.236987 81.507605 
L 45.721324 77.75615 
L 47.069964 76.125171 
L 48.383114 74.879712 
L 49.749499 73.889062 
L 51.16912 73.134902 
L 52.659723 72.596155 
L 54.203561 72.273704 
L 55.800635 72.165939 
L 57.433199 72.2792 
L 59.101254 72.620554 
L 60.769309 73.192584 
L 62.437364 74.002457 
L 64.140909 75.081825 
L 65.8622 76.439775 
L 67.636726 78.129206 
L 69.464488 80.183152 
L 71.380977 82.678429 
L 73.457173 85.758011 
L 75.799548 89.646025 
L 78.6033 94.755392 
L 82.152353 101.712807 
L 88.735846 114.748822 
L 90.084486 116.714279 
L 91.468617 118.339821 
L 92.888238 119.665758 
L 94.325604 120.708743 
L 95.762971 121.481911 
L 97.218082 122.014166 
L 98.690939 122.316652 
L 100.181542 122.394613 
L 101.689889 122.248785 
L 103.215982 121.87596 
L 104.795311 121.256059 
L 106.41013 120.380285 
L 108.09593 119.20681 
L 109.852711 117.708024 
L 111.733709 115.802581 
L 113.756669 113.431575 
L 115.992573 110.457909 
L 118.601127 106.600608 
L 121.706548 101.597829 
L 125.770213 94.598415 
L 131.803603 83.710541 
L 132.60214 82.249208 
L 132.60214 82.249208 
" clip-path="url(#pba9f5a030d)" style="fill: none; stroke: #00bfbf; stroke-width: 0.4; stroke-linecap: round"/>
   </g>
   <g id="patch_6">
    <path d="M 20.61 124.908736 
L 20.61 69.654368 
" style="fill: none; stroke: #000000; stroke-linejoin: miter; stroke-linecap: square"/>
   </g>
   <g id="patch_7">
    <path d="M 20.61 124.908736 
L 188.90964 124.908736 
" style="fill: none; stroke: #000000; stroke-linejoin: miter; stroke-linecap: square"/>
   </g>
   <g id="line2d_28">
    <path d="M 28.259984 95.217677 
L 29.96349 95.128727 
L 31.08147 94.834619 
L 32.341363 94.264274 
L 33.74323 93.379811 
L 35.28711 92.135304 
L 36.937383 90.511605 
L 38.800643 88.351701 
L 41.01882 85.420114 
L 44.053228 81.003664 
L 46.022951 78.298462 
L 47.265141 76.954131 
L 48.436321 76.021108 
L 49.749478 75.259066 
L 51.133612 74.711873 
L 52.553226 74.38771 
L 54.026096 74.282147 
L 55.587681 74.397344 
L 57.237955 74.746782 
L 59.012556 75.35503 
L 60.840265 76.215866 
L 62.721245 77.351605 
L 64.655495 78.780509 
L 66.607464 80.501859 
L 68.612682 82.569332 
L 70.759852 85.112777 
L 73.2087 88.372991 
L 76.686781 93.404871 
L 81.123134 100.233141 
L 88.806791 112.145578 
L 90.031238 113.522254 
L 91.237902 114.537519 
L 92.622034 115.412544 
L 94.148107 116.114019 
L 95.816194 116.635577 
L 97.643924 116.971685 
L 99.471697 117.08356 
L 101.33495 116.971665 
L 103.180483 116.638886 
L 105.061459 116.067684 
L 106.977937 115.251012 
L 109.001039 114.139112 
L 111.077093 112.74336 
L 113.259789 111.006591 
L 115.513419 108.922352 
L 117.997756 106.308404 
L 120.943462 102.87526 
L 124.953914 97.824668 
L 130.472691 90.507999 
L 132.602101 87.603896 
L 132.602101 87.603896 
" clip-path="url(#pba9f5a030d)" style="fill: none; stroke: #000000; stroke-width: 0.7; stroke-linecap: round"/>
   </g>
  </g>
 </g>
 <defs>
  <clipPath id="p0b412ff3f0">
   <rect x="20.61" y="7.2" width="168.29964" height="55.254368"/>
  </clipPath>
  <clipPath id="pba9f5a030d">
   <rect x="20.61" y="69.654368" width="168.29964" height="55.254368"/>
  </clipPath>
 </defs>
</svg>
