<?xml version="1.0" encoding="utf-8" standalone="no"?>
<!DOCTYPE svg PUBLIC "-//W3C//DTD SVG 1.1//EN"
  "http://www.w3.org/Graphics/SVG/1.1/DTD/svg11.dtd">
<svg xmlns:xlink="http://www.w3.org/1999/xlink" width="388.61928pt" height="218.623104pt" viewBox="0 0 388.61928 218.623104" xmlns="http://www.w3.org/2000/svg" version="1.1">
 <metadata>
  <rdf:RDF xmlns:dc="http://purl.org/dc/elements/1.1/" xmlns:cc="http://creativecommons.org/ns#" xmlns:rdf="http://www.w3.org/1999/02/22-rdf-syntax-ns#">
   <cc:Work>
    <dc:type rdf:resource="http://purl.org/dc/dcmitype/StillImage"/>
    <dc:date>2024-11-15T13:50:35.192152</dc:date>
    <dc:format>image/svg+xml</dc:format>
    <dc:creator>
     <cc:Agent>
      <dc:title>Matplotlib v3.8.2, https://matplotlib.org/</dc:title>
     </cc:Agent>
    </dc:creator>
   </cc:Work>
  </rdf:RDF>
 </metadata>
 <defs>
  <style type="text/css">*{stroke-linejoin: round; stroke-linecap: butt}</style>
 </defs>
 <g id="figure_1">
  <g id="patch_1">
   <path d="M 0 218.623104 
L 388.61928 218.623104 
L 388.61928 0 
L 0 0 
z
" style="fill: #ffffff"/>
  </g>
  <g id="axes_1">
   <g id="patch_2">
    <path d="M 41.22 91.641552 
L 188.90964 91.641552 
L 188.90964 10.8 
L 41.22 10.8 
z
" style="fill: #ffffff"/>
   </g>
   <g id="matplotlib.axis_1">
    <g id="xtick_1">
     <g id="line2d_1"/>
    </g>
    <g id="xtick_2">
     <g id="line2d_2"/>
    </g>
    <g id="xtick_3">
     <g id="line2d_3"/>
    </g>
    <g id="xtick_4">
     <g id="line2d_4"/>
    </g>
   </g>
   <g id="matplotlib.axis_2">
    <g id="ytick_1">
     <g id="line2d_5"/>
     <g id="text_1">
      <!-- 0.0 -->
      <g style="fill: #262626" transform="translate(26.587812 94.301005) scale(0.07 -0.07)">
       <defs>
        <path id="DejaVuSerif-30" d="M 2034 219 
Q 2513 219 2750 744 
Q 2988 1269 2988 2328 
Q 2988 3391 2750 3916 
Q 2513 4441 2034 4441 
Q 1556 4441 1318 3916 
Q 1081 3391 1081 2328 
Q 1081 1269 1318 744 
Q 1556 219 2034 219 
z
M 2034 -91 
Q 1275 -91 848 546 
Q 422 1184 422 2328 
Q 422 3475 848 4112 
Q 1275 4750 2034 4750 
Q 2797 4750 3222 4112 
Q 3647 3475 3647 2328 
Q 3647 1184 3222 546 
Q 2797 -91 2034 -91 
z
" transform="scale(0.015625)"/>
        <path id="DejaVuSerif-2e" d="M 603 325 
Q 603 500 722 622 
Q 841 744 1019 744 
Q 1191 744 1312 622 
Q 1434 500 1434 325 
Q 1434 153 1312 31 
Q 1191 -91 1019 -91 
Q 841 -91 722 29 
Q 603 150 603 325 
z
" transform="scale(0.015625)"/>
       </defs>
       <use xlink:href="#DejaVuSerif-30"/>
       <use xlink:href="#DejaVuSerif-2e" x="63.623047"/>
       <use xlink:href="#DejaVuSerif-30" x="95.410156"/>
      </g>
     </g>
    </g>
    <g id="ytick_2">
     <g id="line2d_6"/>
     <g id="text_2">
      <!-- 0.2 -->
      <g style="fill: #262626" transform="translate(26.587812 77.363226) scale(0.07 -0.07)">
       <defs>
        <path id="DejaVuSerif-32" d="M 819 3553 
L 469 3553 
L 469 4384 
Q 803 4563 1142 4656 
Q 1481 4750 1806 4750 
Q 2534 4750 2956 4397 
Q 3378 4044 3378 3438 
Q 3378 2753 2422 1800 
Q 2347 1728 2309 1691 
L 1131 513 
L 3078 513 
L 3078 1088 
L 3444 1088 
L 3444 0 
L 434 0 
L 434 341 
L 1850 1753 
Q 2319 2222 2519 2614 
Q 2719 3006 2719 3438 
Q 2719 3909 2473 4175 
Q 2228 4441 1797 4441 
Q 1350 4441 1106 4219 
Q 863 3997 819 3553 
z
" transform="scale(0.015625)"/>
       </defs>
       <use xlink:href="#DejaVuSerif-30"/>
       <use xlink:href="#DejaVuSerif-2e" x="63.623047"/>
       <use xlink:href="#DejaVuSerif-32" x="95.410156"/>
      </g>
     </g>
    </g>
    <g id="ytick_3">
     <g id="line2d_7"/>
     <g id="text_3">
      <!-- 0.4 -->
      <g style="fill: #262626" transform="translate(26.587812 60.425448) scale(0.07 -0.07)">
       <defs>
        <path id="DejaVuSerif-34" d="M 2234 1581 
L 2234 4063 
L 641 1581 
L 2234 1581 
z
M 3609 0 
L 1484 0 
L 1484 331 
L 2234 331 
L 2234 1247 
L 197 1247 
L 197 1588 
L 2241 4750 
L 2859 4750 
L 2859 1581 
L 3750 1581 
L 3750 1247 
L 2859 1247 
L 2859 331 
L 3609 331 
L 3609 0 
z
" transform="scale(0.015625)"/>
       </defs>
       <use xlink:href="#DejaVuSerif-30"/>
       <use xlink:href="#DejaVuSerif-2e" x="63.623047"/>
       <use xlink:href="#DejaVuSerif-34" x="95.410156"/>
      </g>
     </g>
    </g>
    <g id="ytick_4">
     <g id="line2d_8"/>
     <g id="text_4">
      <!-- 0.6 -->
      <g style="fill: #262626" transform="translate(26.587812 43.487669) scale(0.07 -0.07)">
       <defs>
        <path id="DejaVuSerif-36" d="M 2094 219 
Q 2534 219 2771 542 
Q 3009 866 3009 1472 
Q 3009 2078 2771 2401 
Q 2534 2725 2094 2725 
Q 1647 2725 1412 2412 
Q 1178 2100 1178 1509 
Q 1178 888 1415 553 
Q 1653 219 2094 219 
z
M 1075 2569 
Q 1288 2803 1556 2918 
Q 1825 3034 2163 3034 
Q 2859 3034 3264 2615 
Q 3669 2197 3669 1472 
Q 3669 763 3233 336 
Q 2797 -91 2069 -91 
Q 1278 -91 853 498 
Q 428 1088 428 2181 
Q 428 3406 931 4078 
Q 1434 4750 2350 4750 
Q 2597 4750 2869 4703 
Q 3141 4656 3425 4563 
L 3425 3794 
L 3072 3794 
Q 3034 4109 2831 4275 
Q 2628 4441 2284 4441 
Q 1678 4441 1381 3981 
Q 1084 3522 1075 2569 
z
" transform="scale(0.015625)"/>
       </defs>
       <use xlink:href="#DejaVuSerif-30"/>
       <use xlink:href="#DejaVuSerif-2e" x="63.623047"/>
       <use xlink:href="#DejaVuSerif-36" x="95.410156"/>
      </g>
     </g>
    </g>
    <g id="ytick_5">
     <g id="line2d_9"/>
     <g id="text_5">
      <!-- 0.8 -->
      <g style="fill: #262626" transform="translate(26.587812 26.54989) scale(0.07 -0.07)">
       <defs>
        <path id="DejaVuSerif-38" d="M 2981 1275 
Q 2981 1775 2732 2051 
Q 2484 2328 2034 2328 
Q 1584 2328 1336 2051 
Q 1088 1775 1088 1275 
Q 1088 772 1336 495 
Q 1584 219 2034 219 
Q 2484 219 2732 495 
Q 2981 772 2981 1275 
z
M 2853 3541 
Q 2853 3966 2637 4203 
Q 2422 4441 2034 4441 
Q 1650 4441 1433 4203 
Q 1216 3966 1216 3541 
Q 1216 3113 1433 2875 
Q 1650 2638 2034 2638 
Q 2422 2638 2637 2875 
Q 2853 3113 2853 3541 
z
M 2516 2484 
Q 3047 2413 3344 2092 
Q 3641 1772 3641 1275 
Q 3641 619 3225 264 
Q 2809 -91 2034 -91 
Q 1263 -91 845 264 
Q 428 619 428 1275 
Q 428 1772 725 2092 
Q 1022 2413 1556 2484 
Q 1084 2569 832 2842 
Q 581 3116 581 3541 
Q 581 4103 968 4426 
Q 1356 4750 2034 4750 
Q 2713 4750 3100 4426 
Q 3488 4103 3488 3541 
Q 3488 3116 3236 2842 
Q 2984 2569 2516 2484 
z
" transform="scale(0.015625)"/>
       </defs>
       <use xlink:href="#DejaVuSerif-30"/>
       <use xlink:href="#DejaVuSerif-2e" x="63.623047"/>
       <use xlink:href="#DejaVuSerif-38" x="95.410156"/>
      </g>
     </g>
    </g>
    <g id="text_6">
     <!-- $V$ [m/s] -->
     <g style="fill: #262626" transform="translate(21.34 61.990776) rotate(-90) scale(0.06 -0.06)">
      <defs>
       <path id="DejaVuSans-Oblique-56" d="M 1319 0 
L 500 4666 
L 1119 4666 
L 1797 653 
L 4063 4666 
L 4750 4666 
L 2053 0 
L 1319 0 
z
" transform="scale(0.015625)"/>
       <path id="DejaVuSerif-20" transform="scale(0.015625)"/>
       <path id="DejaVuSerif-5b" d="M 550 4863 
L 2003 4863 
L 2003 4531 
L 1147 4531 
L 1147 -513 
L 2003 -513 
L 2003 -844 
L 550 -844 
L 550 4863 
z
" transform="scale(0.015625)"/>
       <path id="DejaVuSerif-6d" d="M 3316 2675 
Q 3481 3041 3739 3227 
Q 3997 3413 4341 3413 
Q 4863 3413 5119 3089 
Q 5375 2766 5375 2113 
L 5375 331 
L 5894 331 
L 5894 0 
L 4300 0 
L 4300 331 
L 4800 331 
L 4800 2047 
Q 4800 2556 4650 2772 
Q 4500 2988 4153 2988 
Q 3769 2988 3567 2697 
Q 3366 2406 3366 1850 
L 3366 331 
L 3866 331 
L 3866 0 
L 2291 0 
L 2291 331 
L 2791 331 
L 2791 2069 
Q 2791 2566 2641 2777 
Q 2491 2988 2144 2988 
Q 1759 2988 1557 2697 
Q 1356 2406 1356 1850 
L 1356 331 
L 1856 331 
L 1856 0 
L 263 0 
L 263 331 
L 781 331 
L 781 2994 
L 231 2994 
L 231 3322 
L 1356 3322 
L 1356 2731 
Q 1516 3063 1762 3238 
Q 2009 3413 2322 3413 
Q 2709 3413 2968 3220 
Q 3228 3028 3316 2675 
z
" transform="scale(0.015625)"/>
       <path id="DejaVuSerif-2f" d="M 1656 4666 
L 2156 4666 
L 500 -594 
L 0 -594 
L 1656 4666 
z
" transform="scale(0.015625)"/>
       <path id="DejaVuSerif-73" d="M 359 184 
L 359 959 
L 691 959 
Q 703 588 923 403 
Q 1144 219 1575 219 
Q 1963 219 2166 364 
Q 2369 509 2369 788 
Q 2369 1006 2220 1140 
Q 2072 1275 1594 1428 
L 1178 1569 
Q 750 1706 558 1912 
Q 366 2119 366 2438 
Q 366 2894 700 3153 
Q 1034 3413 1625 3413 
Q 1888 3413 2178 3344 
Q 2469 3275 2778 3144 
L 2778 2419 
L 2447 2419 
Q 2434 2741 2221 2922 
Q 2009 3103 1644 3103 
Q 1281 3103 1095 2975 
Q 909 2847 909 2591 
Q 909 2381 1050 2254 
Q 1191 2128 1613 1997 
L 2069 1856 
Q 2541 1709 2748 1489 
Q 2956 1269 2956 922 
Q 2956 450 2595 179 
Q 2234 -91 1600 -91 
Q 1278 -91 972 -22 
Q 666 47 359 184 
z
" transform="scale(0.015625)"/>
       <path id="DejaVuSerif-5d" d="M 1947 4863 
L 1947 -844 
L 494 -844 
L 494 -513 
L 1350 -513 
L 1350 4531 
L 494 4531 
L 494 4863 
L 1947 4863 
z
" transform="scale(0.015625)"/>
      </defs>
      <use xlink:href="#DejaVuSans-Oblique-56" transform="translate(0 0.015625)"/>
      <use xlink:href="#DejaVuSerif-20" transform="translate(68.408203 0.015625)"/>
      <use xlink:href="#DejaVuSerif-5b" transform="translate(100.195312 0.015625)"/>
      <use xlink:href="#DejaVuSerif-6d" transform="translate(139.208984 0.015625)"/>
      <use xlink:href="#DejaVuSerif-2f" transform="translate(234.033203 0.015625)"/>
      <use xlink:href="#DejaVuSerif-73" transform="translate(267.724609 0.015625)"/>
      <use xlink:href="#DejaVuSerif-5d" transform="translate(319.042969 0.015625)"/>
     </g>
    </g>
   </g>
   <g id="line2d_10">
    <path d="M 47.933165 11.094142 
L 51.613171 11.195852 
L 67.091959 12.063895 
L 77.752595 12.853106 
L 81.356724 13.133052 
L 86.364568 13.266569 
L 98.732423 13.570341 
L 118.080907 14.492589 
L 127.906903 15.050889 
L 131.928352 15.367331 
L 135.57042 15.556754 
L 140.00919 15.522503 
L 156.550248 15.295854 
L 170.208002 15.547136 
L 182.196475 16.040277 
L 182.196475 16.040277 
" clip-path="url(#pd0c00f869a)" style="fill: none; stroke: #ff0000; stroke-width: 0.4; stroke-linecap: round"/>
   </g>
   <g id="line2d_11">
    <path d="M 47.933165 11.094142 
L 51.499357 11.192778 
L 61.78061 11.807155 
L 73.42764 12.858535 
L 79.042494 13.489318 
L 83.595079 13.612684 
L 92.169113 13.717986 
L 103.057378 14.220121 
L 110.00007 14.7533 
L 121.685037 15.876003 
L 126.541127 16.448417 
L 129.955566 16.541841 
L 134.50815 16.499579 
L 150.138691 16.189914 
L 157.840147 16.509285 
L 167.400574 16.974582 
L 167.400574 16.974582 
" clip-path="url(#pd0c00f869a)" style="fill: none; stroke: #0000ff; stroke-width: 0.4; stroke-linecap: round"/>
   </g>
   <g id="patch_3">
    <path d="M 41.22 91.641552 
L 41.22 10.8 
" style="fill: none; stroke: #000000; stroke-linejoin: miter; stroke-linecap: square"/>
   </g>
   <g id="patch_4">
    <path d="M 41.22 91.641552 
L 188.90964 91.641552 
" style="fill: none; stroke: #000000; stroke-linejoin: miter; stroke-linecap: square"/>
   </g>
   <g id="legend_1">
    <g id="line2d_12">
     <path d="M 47.52 60.786865 
L 54.52 60.786865 
L 61.52 60.786865 
" style="fill: none; stroke: #000000; stroke-width: 0.7; stroke-linecap: round"/>
    </g>
    <g id="text_7">
     <!-- experiment -->
     <g style="fill: #262626" transform="translate(67.12 63.236865) scale(0.07 -0.07)">
      <defs>
       <path id="DejaVuSerif-65" d="M 3469 1600 
L 991 1600 
L 991 1575 
Q 991 903 1244 561 
Q 1497 219 1991 219 
Q 2369 219 2611 417 
Q 2853 616 2950 1006 
L 3413 1006 
Q 3275 459 2904 184 
Q 2534 -91 1931 -91 
Q 1203 -91 761 389 
Q 319 869 319 1663 
Q 319 2450 753 2931 
Q 1188 3413 1894 3413 
Q 2647 3413 3050 2948 
Q 3453 2484 3469 1600 
z
M 2791 1931 
Q 2772 2513 2545 2808 
Q 2319 3103 1894 3103 
Q 1497 3103 1269 2806 
Q 1041 2509 991 1931 
L 2791 1931 
z
" transform="scale(0.015625)"/>
       <path id="DejaVuSerif-78" d="M 1863 2028 
L 2559 2988 
L 2113 2988 
L 2113 3322 
L 3391 3322 
L 3391 2988 
L 2950 2988 
L 2059 1759 
L 3097 331 
L 3531 331 
L 3531 0 
L 1997 0 
L 1997 331 
L 2419 331 
L 1697 1325 
L 972 331 
L 1403 331 
L 1403 0 
L 141 0 
L 141 331 
L 581 331 
L 1497 1594 
L 488 2988 
L 78 2988 
L 78 3322 
L 1563 3322 
L 1563 2988 
L 1166 2988 
L 1863 2028 
z
" transform="scale(0.015625)"/>
       <path id="DejaVuSerif-70" d="M 1313 1825 
L 1313 1497 
Q 1313 897 1542 583 
Q 1772 269 2209 269 
Q 2650 269 2876 622 
Q 3103 975 3103 1663 
Q 3103 2353 2876 2703 
Q 2650 3053 2209 3053 
Q 1772 3053 1542 2737 
Q 1313 2422 1313 1825 
z
M 738 2988 
L 184 2988 
L 184 3322 
L 1313 3322 
L 1313 2803 
Q 1481 3116 1742 3264 
Q 2003 3413 2388 3413 
Q 3000 3413 3387 2928 
Q 3775 2444 3775 1663 
Q 3775 881 3387 395 
Q 3000 -91 2388 -91 
Q 2003 -91 1742 57 
Q 1481 206 1313 519 
L 1313 -997 
L 1856 -997 
L 1856 -1331 
L 184 -1331 
L 184 -997 
L 738 -997 
L 738 2988 
z
" transform="scale(0.015625)"/>
       <path id="DejaVuSerif-72" d="M 3059 3328 
L 3059 2497 
L 2728 2497 
Q 2713 2744 2591 2866 
Q 2469 2988 2234 2988 
Q 1809 2988 1582 2694 
Q 1356 2400 1356 1850 
L 1356 331 
L 2022 331 
L 2022 0 
L 263 0 
L 263 331 
L 781 331 
L 781 2994 
L 231 2994 
L 231 3322 
L 1356 3322 
L 1356 2731 
Q 1525 3078 1790 3245 
Q 2056 3413 2438 3413 
Q 2578 3413 2733 3391 
Q 2888 3369 3059 3328 
z
" transform="scale(0.015625)"/>
       <path id="DejaVuSerif-69" d="M 622 4353 
Q 622 4497 726 4603 
Q 831 4709 978 4709 
Q 1122 4709 1226 4603 
Q 1331 4497 1331 4353 
Q 1331 4206 1228 4103 
Q 1125 4000 978 4000 
Q 831 4000 726 4103 
Q 622 4206 622 4353 
z
M 1356 331 
L 1900 331 
L 1900 0 
L 231 0 
L 231 331 
L 781 331 
L 781 2988 
L 231 2988 
L 231 3322 
L 1356 3322 
L 1356 331 
z
" transform="scale(0.015625)"/>
       <path id="DejaVuSerif-6e" d="M 263 0 
L 263 331 
L 781 331 
L 781 2988 
L 231 2988 
L 231 3322 
L 1356 3322 
L 1356 2731 
Q 1516 3069 1770 3241 
Q 2025 3413 2363 3413 
Q 2913 3413 3172 3097 
Q 3431 2781 3431 2113 
L 3431 331 
L 3944 331 
L 3944 0 
L 2356 0 
L 2356 331 
L 2853 331 
L 2853 1931 
Q 2853 2541 2703 2767 
Q 2553 2994 2175 2994 
Q 1775 2994 1565 2701 
Q 1356 2409 1356 1850 
L 1356 331 
L 1856 331 
L 1856 0 
L 263 0 
z
" transform="scale(0.015625)"/>
       <path id="DejaVuSerif-74" d="M 691 2988 
L 184 2988 
L 184 3322 
L 691 3322 
L 691 4353 
L 1269 4353 
L 1269 3322 
L 2350 3322 
L 2350 2988 
L 1269 2988 
L 1269 878 
Q 1269 456 1350 337 
Q 1431 219 1650 219 
Q 1875 219 1978 351 
Q 2081 484 2088 781 
L 2522 781 
Q 2497 328 2275 118 
Q 2053 -91 1600 -91 
Q 1103 -91 897 129 
Q 691 350 691 878 
L 691 2988 
z
" transform="scale(0.015625)"/>
      </defs>
      <use xlink:href="#DejaVuSerif-65"/>
      <use xlink:href="#DejaVuSerif-78" x="59.179688"/>
      <use xlink:href="#DejaVuSerif-70" x="115.576172"/>
      <use xlink:href="#DejaVuSerif-65" x="179.589844"/>
      <use xlink:href="#DejaVuSerif-72" x="238.769531"/>
      <use xlink:href="#DejaVuSerif-69" x="286.572266"/>
      <use xlink:href="#DejaVuSerif-6d" x="318.554688"/>
      <use xlink:href="#DejaVuSerif-65" x="413.378906"/>
      <use xlink:href="#DejaVuSerif-6e" x="472.558594"/>
      <use xlink:href="#DejaVuSerif-74" x="536.962891"/>
     </g>
    </g>
    <g id="line2d_13">
     <path d="M 47.52 71.061552 
L 54.52 71.061552 
L 61.52 71.061552 
" style="fill: none; stroke: #ff0000; stroke-width: 0.4; stroke-linecap: round"/>
    </g>
    <g id="text_8">
     <!-- polynomial rudder -->
     <g style="fill: #262626" transform="translate(67.12 73.511552) scale(0.07 -0.07)">
      <defs>
       <path id="DejaVuSerif-6f" d="M 1925 219 
Q 2388 219 2623 584 
Q 2859 950 2859 1663 
Q 2859 2375 2623 2739 
Q 2388 3103 1925 3103 
Q 1463 3103 1227 2739 
Q 991 2375 991 1663 
Q 991 950 1228 584 
Q 1466 219 1925 219 
z
M 1925 -91 
Q 1200 -91 759 389 
Q 319 869 319 1663 
Q 319 2456 758 2934 
Q 1197 3413 1925 3413 
Q 2653 3413 3092 2934 
Q 3531 2456 3531 1663 
Q 3531 869 3092 389 
Q 2653 -91 1925 -91 
z
" transform="scale(0.015625)"/>
       <path id="DejaVuSerif-6c" d="M 1313 331 
L 1856 331 
L 1856 0 
L 184 0 
L 184 331 
L 738 331 
L 738 4531 
L 184 4531 
L 184 4863 
L 1313 4863 
L 1313 331 
z
" transform="scale(0.015625)"/>
       <path id="DejaVuSerif-79" d="M 1381 -609 
L 1600 -56 
L 359 2988 
L -19 2988 
L -19 3322 
L 1509 3322 
L 1509 2988 
L 978 2988 
L 1913 703 
L 2847 2988 
L 2350 2988 
L 2350 3322 
L 3597 3322 
L 3597 2988 
L 3225 2988 
L 1703 -750 
Q 1547 -1138 1356 -1280 
Q 1166 -1422 819 -1422 
Q 672 -1422 517 -1397 
Q 363 -1372 206 -1325 
L 206 -691 
L 500 -691 
Q 519 -903 608 -995 
Q 697 -1088 884 -1088 
Q 1056 -1088 1161 -992 
Q 1266 -897 1381 -609 
z
" transform="scale(0.015625)"/>
       <path id="DejaVuSerif-61" d="M 2547 1044 
L 2547 1747 
L 1806 1747 
Q 1378 1747 1168 1562 
Q 959 1378 959 997 
Q 959 650 1171 447 
Q 1384 244 1747 244 
Q 2106 244 2326 466 
Q 2547 688 2547 1044 
z
M 3122 2075 
L 3122 331 
L 3634 331 
L 3634 0 
L 2547 0 
L 2547 359 
Q 2356 128 2106 18 
Q 1856 -91 1522 -91 
Q 969 -91 644 203 
Q 319 497 319 997 
Q 319 1513 691 1797 
Q 1063 2081 1741 2081 
L 2547 2081 
L 2547 2309 
Q 2547 2688 2317 2895 
Q 2088 3103 1672 3103 
Q 1328 3103 1125 2947 
Q 922 2791 872 2484 
L 575 2484 
L 575 3156 
Q 875 3284 1158 3348 
Q 1441 3413 1709 3413 
Q 2400 3413 2761 3070 
Q 3122 2728 3122 2075 
z
" transform="scale(0.015625)"/>
       <path id="DejaVuSerif-75" d="M 2266 3322 
L 3341 3322 
L 3341 331 
L 3884 331 
L 3884 0 
L 2766 0 
L 2766 588 
Q 2606 256 2353 82 
Q 2100 -91 1766 -91 
Q 1213 -91 952 223 
Q 691 538 691 1209 
L 691 2988 
L 172 2988 
L 172 3322 
L 1269 3322 
L 1269 1388 
Q 1269 781 1417 556 
Q 1566 331 1947 331 
Q 2347 331 2556 625 
Q 2766 919 2766 1478 
L 2766 2988 
L 2266 2988 
L 2266 3322 
z
" transform="scale(0.015625)"/>
       <path id="DejaVuSerif-64" d="M 3359 331 
L 3909 331 
L 3909 0 
L 2784 0 
L 2784 519 
Q 2616 206 2355 57 
Q 2094 -91 1709 -91 
Q 1097 -91 708 395 
Q 319 881 319 1663 
Q 319 2444 706 2928 
Q 1094 3413 1709 3413 
Q 2094 3413 2355 3264 
Q 2616 3116 2784 2803 
L 2784 4531 
L 2241 4531 
L 2241 4863 
L 3359 4863 
L 3359 331 
z
M 2784 1497 
L 2784 1825 
Q 2784 2422 2554 2737 
Q 2325 3053 1888 3053 
Q 1444 3053 1217 2703 
Q 991 2353 991 1663 
Q 991 975 1217 622 
Q 1444 269 1888 269 
Q 2325 269 2554 583 
Q 2784 897 2784 1497 
z
" transform="scale(0.015625)"/>
      </defs>
      <use xlink:href="#DejaVuSerif-70"/>
      <use xlink:href="#DejaVuSerif-6f" x="64.013672"/>
      <use xlink:href="#DejaVuSerif-6c" x="124.21875"/>
      <use xlink:href="#DejaVuSerif-79" x="156.201172"/>
      <use xlink:href="#DejaVuSerif-6e" x="212.695312"/>
      <use xlink:href="#DejaVuSerif-6f" x="277.099609"/>
      <use xlink:href="#DejaVuSerif-6d" x="337.304688"/>
      <use xlink:href="#DejaVuSerif-69" x="432.128906"/>
      <use xlink:href="#DejaVuSerif-61" x="464.111328"/>
      <use xlink:href="#DejaVuSerif-6c" x="523.730469"/>
      <use xlink:href="#DejaVuSerif-20" x="555.712891"/>
      <use xlink:href="#DejaVuSerif-72" x="587.5"/>
      <use xlink:href="#DejaVuSerif-75" x="635.302734"/>
      <use xlink:href="#DejaVuSerif-64" x="699.707031"/>
      <use xlink:href="#DejaVuSerif-64" x="763.720703"/>
      <use xlink:href="#DejaVuSerif-65" x="827.734375"/>
      <use xlink:href="#DejaVuSerif-72" x="886.914062"/>
     </g>
    </g>
    <g id="line2d_14">
     <path d="M 47.52 81.435771 
L 54.52 81.435771 
L 61.52 81.435771 
" style="fill: none; stroke: #0000ff; stroke-width: 0.4; stroke-linecap: round"/>
    </g>
    <g id="text_9">
     <!-- semi-empirical rudder -->
     <g style="fill: #262626" transform="translate(67.12 83.885771) scale(0.07 -0.07)">
      <defs>
       <path id="DejaVuSerif-2d" d="M 281 1959 
L 1881 1959 
L 1881 1472 
L 281 1472 
L 281 1959 
z
" transform="scale(0.015625)"/>
       <path id="DejaVuSerif-63" d="M 3291 997 
Q 3169 466 2822 187 
Q 2475 -91 1925 -91 
Q 1200 -91 759 389 
Q 319 869 319 1663 
Q 319 2459 759 2936 
Q 1200 3413 1925 3413 
Q 2241 3413 2553 3339 
Q 2866 3266 3181 3116 
L 3181 2266 
L 2847 2266 
Q 2781 2703 2561 2903 
Q 2341 3103 1931 3103 
Q 1466 3103 1228 2742 
Q 991 2381 991 1663 
Q 991 944 1227 581 
Q 1463 219 1931 219 
Q 2303 219 2525 412 
Q 2747 606 2828 997 
L 3291 997 
z
" transform="scale(0.015625)"/>
      </defs>
      <use xlink:href="#DejaVuSerif-73"/>
      <use xlink:href="#DejaVuSerif-65" x="51.318359"/>
      <use xlink:href="#DejaVuSerif-6d" x="110.498047"/>
      <use xlink:href="#DejaVuSerif-69" x="205.322266"/>
      <use xlink:href="#DejaVuSerif-2d" x="237.304688"/>
      <use xlink:href="#DejaVuSerif-65" x="271.09375"/>
      <use xlink:href="#DejaVuSerif-6d" x="330.273438"/>
      <use xlink:href="#DejaVuSerif-70" x="425.097656"/>
      <use xlink:href="#DejaVuSerif-69" x="489.111328"/>
      <use xlink:href="#DejaVuSerif-72" x="521.09375"/>
      <use xlink:href="#DejaVuSerif-69" x="568.896484"/>
      <use xlink:href="#DejaVuSerif-63" x="600.878906"/>
      <use xlink:href="#DejaVuSerif-61" x="656.884766"/>
      <use xlink:href="#DejaVuSerif-6c" x="716.503906"/>
      <use xlink:href="#DejaVuSerif-20" x="748.486328"/>
      <use xlink:href="#DejaVuSerif-72" x="780.273438"/>
      <use xlink:href="#DejaVuSerif-75" x="828.076172"/>
      <use xlink:href="#DejaVuSerif-64" x="892.480469"/>
      <use xlink:href="#DejaVuSerif-64" x="956.494141"/>
      <use xlink:href="#DejaVuSerif-65" x="1020.507812"/>
      <use xlink:href="#DejaVuSerif-72" x="1079.6875"/>
     </g>
    </g>
   </g>
   <g id="line2d_15">
    <path d="M 47.933165 11.094104 
L 54.534436 11.24108 
L 59.04906 11.402934 
L 61.856487 11.527475 
L 65.536504 11.752428 
L 67.054108 11.870345 
L 69.140645 12.005705 
L 71.720413 12.322312 
L 73.579464 12.329844 
L 76.804193 12.533488 
L 80.48415 12.862889 
L 82.381071 12.80051 
L 83.822712 12.83695 
L 86.0611 12.914695 
L 88.944415 12.887422 
L 91.600044 12.947447 
L 93.193482 13.00955 
L 95.431829 13.132926 
L 99.339434 13.044372 
L 103.323078 13.288165 
L 106.13038 13.196639 
L 107.116785 13.245166 
L 110.607096 13.733792 
L 114.818218 13.960553 
L 121.078029 14.317135 
L 123.240503 14.236132 
L 126.730943 14.814488 
L 128.210469 14.806918 
L 130.638495 14.794375 
L 136.101563 15.309277 
L 144.10655 15.199451 
L 146.80014 15.021248 
L 151.694207 15.062457 
L 154.387793 14.856461 
L 158.105744 14.97073 
L 162.165163 14.797467 
L 165.086435 14.802651 
L 166.907412 14.921925 
L 167.362701 14.971327 
L 167.362701 14.971327 
" clip-path="url(#pd0c00f869a)" style="fill: none; stroke: #000000; stroke-width: 0.7; stroke-linecap: round"/>
   </g>
  </g>
  <g id="axes_2">
   <g id="patch_5">
    <path d="M 230.12964 91.641552 
L 377.81928 91.641552 
L 377.81928 10.8 
L 230.12964 10.8 
z
" style="fill: #ffffff"/>
   </g>
   <g id="matplotlib.axis_3">
    <g id="xtick_5">
     <g id="line2d_16"/>
    </g>
    <g id="xtick_6">
     <g id="line2d_17"/>
    </g>
    <g id="xtick_7">
     <g id="line2d_18"/>
    </g>
    <g id="xtick_8">
     <g id="line2d_19"/>
    </g>
   </g>
   <g id="matplotlib.axis_4">
    <g id="ytick_6">
     <g id="line2d_20"/>
     <g id="text_10">
      <!-- −5 -->
      <g style="fill: #262626" transform="translate(216.310109 79.324927) scale(0.07 -0.07)">
       <defs>
        <path id="DejaVuSerif-2212" d="M 678 2259 
L 4684 2259 
L 4684 1753 
L 678 1753 
L 678 2259 
z
" transform="scale(0.015625)"/>
        <path id="DejaVuSerif-35" d="M 3219 4666 
L 3219 4153 
L 1081 4153 
L 1081 2816 
Q 1244 2928 1461 2984 
Q 1678 3041 1947 3041 
Q 2703 3041 3140 2622 
Q 3578 2203 3578 1478 
Q 3578 738 3136 323 
Q 2694 -91 1894 -91 
Q 1572 -91 1234 -12 
Q 897 66 544 225 
L 544 1131 
L 897 1131 
Q 925 688 1179 453 
Q 1434 219 1894 219 
Q 2388 219 2653 544 
Q 2919 869 2919 1478 
Q 2919 2084 2655 2407 
Q 2391 2731 1894 2731 
Q 1613 2731 1398 2631 
Q 1184 2531 1019 2322 
L 750 2322 
L 750 4666 
L 3219 4666 
z
" transform="scale(0.015625)"/>
       </defs>
       <use xlink:href="#DejaVuSerif-2212"/>
       <use xlink:href="#DejaVuSerif-35" x="83.789062"/>
      </g>
     </g>
    </g>
    <g id="ytick_7">
     <g id="line2d_21"/>
     <g id="text_11">
      <!-- 0 -->
      <g style="fill: #262626" transform="translate(222.17589 53.945492) scale(0.07 -0.07)">
       <use xlink:href="#DejaVuSerif-30"/>
      </g>
     </g>
    </g>
    <g id="ytick_8">
     <g id="line2d_22"/>
     <g id="text_12">
      <!-- 5 -->
      <g style="fill: #262626" transform="translate(222.17589 28.566056) scale(0.07 -0.07)">
       <use xlink:href="#DejaVuSerif-35"/>
      </g>
     </g>
    </g>
    <g id="text_13">
     <!-- $\beta$ [deg] -->
     <g style="fill: #262626" transform="translate(210.930109 62.050776) rotate(-90) scale(0.06 -0.06)">
      <defs>
       <path id="DejaVuSans-Oblique-3b2" d="M 872 216 
L 572 -1331 
L -6 -1331 
L 928 3478 
Q 1206 4903 2538 4903 
Q 3888 4903 3659 3700 
Q 3503 2844 2894 2531 
Q 3713 2250 3553 1416 
Q 3272 -69 1759 -66 
Q 1097 -63 872 216 
z
M 1019 966 
Q 1259 422 1875 425 
Q 2775 425 2966 1406 
Q 3138 2288 1675 2219 
L 1778 2750 
Q 2909 2731 3106 3750 
Q 3241 4438 2509 4434 
Q 1691 4434 1503 3459 
L 1019 966 
z
" transform="scale(0.015625)"/>
       <path id="DejaVuSerif-67" d="M 3359 2988 
L 3359 72 
Q 3359 -644 2965 -1033 
Q 2572 -1422 1844 -1422 
Q 1516 -1422 1216 -1362 
Q 916 -1303 641 -1184 
L 641 -488 
L 941 -488 
Q 997 -813 1206 -963 
Q 1416 -1113 1806 -1113 
Q 2313 -1113 2548 -827 
Q 2784 -541 2784 72 
L 2784 519 
Q 2616 206 2355 57 
Q 2094 -91 1709 -91 
Q 1097 -91 708 395 
Q 319 881 319 1663 
Q 319 2444 706 2928 
Q 1094 3413 1709 3413 
Q 2094 3413 2355 3264 
Q 2616 3116 2784 2803 
L 2784 3322 
L 3909 3322 
L 3909 2988 
L 3359 2988 
z
M 2784 1825 
Q 2784 2422 2554 2737 
Q 2325 3053 1888 3053 
Q 1444 3053 1217 2703 
Q 991 2353 991 1663 
Q 991 975 1217 622 
Q 1444 269 1888 269 
Q 2325 269 2554 583 
Q 2784 897 2784 1497 
L 2784 1825 
z
" transform="scale(0.015625)"/>
      </defs>
      <use xlink:href="#DejaVuSans-Oblique-3b2" transform="translate(0 0.390625)"/>
      <use xlink:href="#DejaVuSerif-20" transform="translate(63.818359 0.390625)"/>
      <use xlink:href="#DejaVuSerif-5b" transform="translate(95.605469 0.390625)"/>
      <use xlink:href="#DejaVuSerif-64" transform="translate(134.619141 0.390625)"/>
      <use xlink:href="#DejaVuSerif-65" transform="translate(198.632812 0.390625)"/>
      <use xlink:href="#DejaVuSerif-67" transform="translate(257.8125 0.390625)"/>
      <use xlink:href="#DejaVuSerif-5d" transform="translate(321.826172 0.390625)"/>
     </g>
    </g>
   </g>
   <g id="line2d_23">
    <path d="M 236.842805 51.286038 
L 237.563631 51.399351 
L 238.284457 51.745719 
L 239.043221 52.37084 
L 240.143429 53.642438 
L 245.378902 60.118077 
L 249.058908 64.439056 
L 252.093964 67.670245 
L 255.053144 70.490616 
L 257.974386 72.963233 
L 260.819751 75.076508 
L 262.033774 75.786225 
L 262.7546 75.912957 
L 263.437487 75.79932 
L 264.120375 75.461976 
L 264.879139 74.819046 
L 265.675842 73.841231 
L 266.586359 72.348665 
L 269.128218 67.546913 
L 276.336477 53.760861 
L 279.219781 48.844551 
L 281.913394 44.685207 
L 284.53113 41.048368 
L 287.110928 37.842048 
L 289.690726 34.983085 
L 292.232585 32.488382 
L 294.964136 30.11496 
L 297.771563 27.967611 
L 300.654867 26.036407 
L 303.462294 24.415283 
L 306.800856 22.747355 
L 309.987666 21.394256 
L 313.553857 20.123145 
L 315.716335 19.529411 
L 316.43716 19.618907 
L 317.157986 19.939214 
L 317.916751 20.528254 
L 318.751391 21.481741 
L 319.661908 22.886975 
L 320.800054 25.114838 
L 324.555936 33.083294 
L 328.956768 42.270248 
L 331.915948 47.929686 
L 334.609561 52.614497 
L 337.227297 56.729432 
L 339.807095 60.376221 
L 342.386893 63.640934 
L 344.966691 66.555824 
L 347.584427 69.182435 
L 350.240102 71.537769 
L 353.047529 73.732428 
L 355.892894 75.677032 
L 359.079703 77.578197 
L 362.11476 79.137624 
L 365.605075 80.66344 
L 369.09539 81.954658 
L 371.106115 82.599514 
L 371.106115 82.599514 
" clip-path="url(#p88564549a4)" style="fill: none; stroke: #ff0000; stroke-width: 0.4; stroke-linecap: round"/>
   </g>
   <g id="line2d_24">
    <path d="M 236.842805 51.286038 
L 237.525693 51.398404 
L 238.208581 51.744973 
L 238.891469 52.341881 
L 239.726109 53.396011 
L 242.495598 57.349171 
L 249.476228 67.340802 
L 252.359531 71.02683 
L 255.35665 74.506959 
L 257.898509 77.142851 
L 259.264285 78.327743 
L 259.947173 78.597604 
L 260.554184 78.613223 
L 261.161195 78.411783 
L 261.806145 77.964381 
L 262.526971 77.173251 
L 263.323673 75.93246 
L 264.613572 73.35127 
L 267.838319 66.448132 
L 274.781011 51.470207 
L 277.626376 45.944065 
L 280.357927 41.111735 
L 282.975663 36.937105 
L 285.517523 33.274819 
L 288.211136 29.798291 
L 290.942686 26.642435 
L 293.560423 23.966426 
L 296.140221 21.652996 
L 298.833833 19.526618 
L 301.755075 17.507959 
L 304.638379 15.775063 
L 307.028486 14.55773 
L 307.673435 14.477134 
L 308.318385 14.626881 
L 308.963334 15.00847 
L 309.646222 15.674385 
L 310.442924 16.787541 
L 311.277565 18.343674 
L 312.567464 21.352765 
L 324.176554 48.896457 
L 326.832229 54.413755 
L 329.601718 59.656131 
L 332.29533 64.265267 
L 334.685437 67.938712 
L 337.265235 71.4848 
L 339.845033 74.636187 
L 342.462769 77.474378 
L 345.19432 80.085167 
L 348.115562 82.557699 
L 351.11268 84.79307 
L 353.920107 86.614285 
L 356.310214 87.966936 
L 356.310214 87.966936 
" clip-path="url(#p88564549a4)" style="fill: none; stroke: #0000ff; stroke-width: 0.4; stroke-linecap: round"/>
   </g>
   <g id="patch_6">
    <path d="M 230.12964 91.641552 
L 230.12964 10.8 
" style="fill: none; stroke: #000000; stroke-linejoin: miter; stroke-linecap: square"/>
   </g>
   <g id="patch_7">
    <path d="M 230.12964 91.641552 
L 377.81928 91.641552 
" style="fill: none; stroke: #000000; stroke-linejoin: miter; stroke-linecap: square"/>
   </g>
   <g id="line2d_25">
    <path d="M 236.842805 51.003133 
L 237.525708 51.131531 
L 238.246523 51.494932 
L 239.005295 52.131461 
L 240.333166 53.638189 
L 248.641644 62.922115 
L 251.60079 65.850334 
L 255.698105 69.525677 
L 258.998744 72.079357 
L 260.971569 73.394596 
L 262.640941 74.296593 
L 263.323684 74.380799 
L 263.968638 74.247787 
L 264.651502 73.883809 
L 265.410312 73.210781 
L 266.244937 72.142425 
L 267.155477 70.580572 
L 271.404522 62.664636 
L 275.995083 54.517838 
L 279.78904 48.245317 
L 282.406666 44.322284 
L 284.569075 41.45075 
L 287.110962 38.480514 
L 289.994246 35.462198 
L 292.232718 33.424074 
L 294.926209 31.265094 
L 301.717163 26.260884 
L 304.904064 24.361147 
L 308.242527 22.636579 
L 310.063576 21.863551 
L 316.399222 19.724158 
L 318.523838 19.423056 
L 319.623996 19.39121 
L 320.306892 19.625762 
L 320.98976 20.093956 
L 321.7486 20.900155 
L 322.621202 22.154782 
L 323.531624 23.862899 
L 325.049182 27.305851 
L 328.387695 34.554994 
L 331.309013 40.434025 
L 334.41998 46.182949 
L 337.796385 51.946787 
L 340.186561 55.611483 
L 342.500715 58.750805 
L 345.270227 62.126673 
L 347.660315 64.658439 
L 350.278059 67.050084 
L 354.451261 70.53478 
L 356.272341 71.970437 
L 356.272341 71.970437 
" clip-path="url(#p88564549a4)" style="fill: none; stroke: #000000; stroke-width: 0.7; stroke-linecap: round"/>
   </g>
  </g>
  <g id="axes_3">
   <g id="patch_8">
    <path d="M 41.22 187.363104 
L 188.90964 187.363104 
L 188.90964 106.521552 
L 41.22 106.521552 
z
" style="fill: #ffffff"/>
   </g>
   <g id="matplotlib.axis_5">
    <g id="xtick_9">
     <g id="line2d_26"/>
     <g id="text_14">
      <!-- 0 -->
      <g style="fill: #262626" transform="translate(45.70629 196.18201) scale(0.07 -0.07)">
       <use xlink:href="#DejaVuSerif-30"/>
      </g>
     </g>
    </g>
    <g id="xtick_10">
     <g id="line2d_27"/>
     <g id="text_15">
      <!-- 10 -->
      <g style="fill: #262626" transform="translate(81.417621 196.18201) scale(0.07 -0.07)">
       <defs>
        <path id="DejaVuSerif-31" d="M 909 0 
L 909 331 
L 1722 331 
L 1722 4213 
L 781 3603 
L 781 4013 
L 1919 4750 
L 2350 4750 
L 2350 331 
L 3163 331 
L 3163 0 
L 909 0 
z
" transform="scale(0.015625)"/>
       </defs>
       <use xlink:href="#DejaVuSerif-31"/>
       <use xlink:href="#DejaVuSerif-30" x="63.623047"/>
      </g>
     </g>
    </g>
    <g id="xtick_11">
     <g id="line2d_28"/>
     <g id="text_16">
      <!-- 20 -->
      <g style="fill: #262626" transform="translate(119.355826 196.18201) scale(0.07 -0.07)">
       <use xlink:href="#DejaVuSerif-32"/>
       <use xlink:href="#DejaVuSerif-30" x="63.623047"/>
      </g>
     </g>
    </g>
    <g id="xtick_12">
     <g id="line2d_29"/>
     <g id="text_17">
      <!-- 30 -->
      <g style="fill: #262626" transform="translate(157.294032 196.18201) scale(0.07 -0.07)">
       <defs>
        <path id="DejaVuSerif-33" d="M 622 4469 
Q 988 4606 1323 4678 
Q 1659 4750 1953 4750 
Q 2638 4750 3022 4454 
Q 3406 4159 3406 3634 
Q 3406 3213 3140 2930 
Q 2875 2647 2388 2547 
Q 2963 2466 3280 2130 
Q 3597 1794 3597 1259 
Q 3597 606 3158 257 
Q 2719 -91 1894 -91 
Q 1528 -91 1179 -12 
Q 831 66 488 225 
L 488 1131 
L 838 1131 
Q 869 681 1141 450 
Q 1413 219 1906 219 
Q 2384 219 2661 495 
Q 2938 772 2938 1253 
Q 2938 1803 2653 2086 
Q 2369 2369 1819 2369 
L 1522 2369 
L 1522 2688 
L 1678 2688 
Q 2225 2688 2498 2914 
Q 2772 3141 2772 3597 
Q 2772 4006 2547 4223 
Q 2322 4441 1900 4441 
Q 1478 4441 1245 4241 
Q 1013 4041 972 3647 
L 622 3647 
L 622 4469 
z
" transform="scale(0.015625)"/>
       </defs>
       <use xlink:href="#DejaVuSerif-33"/>
       <use xlink:href="#DejaVuSerif-30" x="63.623047"/>
      </g>
     </g>
    </g>
    <g id="text_18">
     <!-- Time [s] -->
     <g style="fill: #262626" transform="translate(102.649976 206.196854) scale(0.06 -0.06)">
      <defs>
       <path id="DejaVuSerif-54" d="M 1222 0 
L 1222 331 
L 1819 331 
L 1819 4294 
L 447 4294 
L 447 3566 
L 63 3566 
L 63 4666 
L 4206 4666 
L 4206 3566 
L 3822 3566 
L 3822 4294 
L 2450 4294 
L 2450 331 
L 3047 331 
L 3047 0 
L 1222 0 
z
" transform="scale(0.015625)"/>
      </defs>
      <use xlink:href="#DejaVuSerif-54"/>
      <use xlink:href="#DejaVuSerif-69" x="66.699219"/>
      <use xlink:href="#DejaVuSerif-6d" x="98.681641"/>
      <use xlink:href="#DejaVuSerif-65" x="193.505859"/>
      <use xlink:href="#DejaVuSerif-20" x="252.685547"/>
      <use xlink:href="#DejaVuSerif-5b" x="284.472656"/>
      <use xlink:href="#DejaVuSerif-73" x="323.486328"/>
      <use xlink:href="#DejaVuSerif-5d" x="374.804688"/>
     </g>
    </g>
   </g>
   <g id="matplotlib.axis_6">
    <g id="ytick_9">
     <g id="line2d_30"/>
     <g id="text_19">
      <!-- −10 -->
      <g style="fill: #262626" transform="translate(22.946719 186.195657) scale(0.07 -0.07)">
       <use xlink:href="#DejaVuSerif-2212"/>
       <use xlink:href="#DejaVuSerif-31" x="83.789062"/>
       <use xlink:href="#DejaVuSerif-30" x="147.412109"/>
      </g>
     </g>
    </g>
    <g id="ytick_10">
     <g id="line2d_31"/>
     <g id="text_20">
      <!-- −5 -->
      <g style="fill: #262626" transform="translate(27.400469 167.91124) scale(0.07 -0.07)">
       <use xlink:href="#DejaVuSerif-2212"/>
       <use xlink:href="#DejaVuSerif-35" x="83.789062"/>
      </g>
     </g>
    </g>
    <g id="ytick_11">
     <g id="line2d_32"/>
     <g id="text_21">
      <!-- 0 -->
      <g style="fill: #262626" transform="translate(33.26625 149.626823) scale(0.07 -0.07)">
       <use xlink:href="#DejaVuSerif-30"/>
      </g>
     </g>
    </g>
    <g id="ytick_12">
     <g id="line2d_33"/>
     <g id="text_22">
      <!-- 5 -->
      <g style="fill: #262626" transform="translate(33.26625 131.342406) scale(0.07 -0.07)">
       <use xlink:href="#DejaVuSerif-35"/>
      </g>
     </g>
    </g>
    <g id="ytick_13">
     <g id="line2d_34"/>
     <g id="text_23">
      <!-- 10 -->
      <g style="fill: #262626" transform="translate(28.8125 113.057989) scale(0.07 -0.07)">
       <use xlink:href="#DejaVuSerif-31"/>
       <use xlink:href="#DejaVuSerif-30" x="63.623047"/>
      </g>
     </g>
    </g>
    <g id="text_24">
     <!-- $\delta$ [deg] -->
     <g style="fill: #262626" transform="translate(17.566719 157.712328) rotate(-90) scale(0.06 -0.06)">
      <defs>
       <path id="DejaVuSans-Oblique-3b4" d="M 3472 4053 
Q 3197 4272 2450 4272 
Q 1659 4272 1588 3906 
Q 1531 3619 2328 3469 
Q 2953 3353 3253 3003 
Q 3616 2581 3447 1716 
Q 3284 888 2763 400 
Q 2238 -91 1488 -91 
Q 741 -91 406 400 
Q 72 888 241 1747 
Q 363 2384 891 2900 
Q 1097 3100 1353 3213 
Q 913 3459 1000 3900 
Q 1166 4750 2544 4750 
Q 3234 4750 3566 4531 
L 3472 4053 
z
M 1753 3056 
Q 1525 2966 1306 2738 
Q 969 2384 847 1747 
Q 722 1113 919 756 
Q 1119 397 1584 397 
Q 2044 397 2381 759 
Q 2722 1122 2838 1716 
Q 2956 2338 2731 2638 
Q 2491 2959 2103 2994 
Q 1906 3013 1753 3056 
z
" transform="scale(0.015625)"/>
      </defs>
      <use xlink:href="#DejaVuSans-Oblique-3b4" transform="translate(0 0.015625)"/>
      <use xlink:href="#DejaVuSerif-20" transform="translate(61.181641 0.015625)"/>
      <use xlink:href="#DejaVuSerif-5b" transform="translate(92.96875 0.015625)"/>
      <use xlink:href="#DejaVuSerif-64" transform="translate(131.982422 0.015625)"/>
      <use xlink:href="#DejaVuSerif-65" transform="translate(195.996094 0.015625)"/>
      <use xlink:href="#DejaVuSerif-67" transform="translate(255.175781 0.015625)"/>
      <use xlink:href="#DejaVuSerif-5d" transform="translate(319.189453 0.015625)"/>
     </g>
    </g>
   </g>
   <g id="line2d_35">
    <path d="M 47.933165 146.96737 
L 50.58884 110.398536 
L 72.403308 110.398536 
L 77.600842 183.536203 
L 126.199683 183.536203 
L 131.397217 110.398536 
L 182.196475 110.398536 
L 182.196475 110.398536 
" clip-path="url(#pee37cf65ae)" style="fill: none; stroke: #ff0000; stroke-width: 0.4; stroke-linecap: round"/>
   </g>
   <g id="line2d_36">
    <path d="M 47.933165 146.96737 
L 50.58884 110.398536 
L 69.671757 110.398536 
L 74.869291 183.536203 
L 117.739463 183.536203 
L 122.936998 110.398536 
L 167.400574 110.398536 
L 167.400574 110.398536 
" clip-path="url(#pee37cf65ae)" style="fill: none; stroke: #0000ff; stroke-width: 0.4; stroke-linecap: round"/>
   </g>
   <g id="patch_9">
    <path d="M 41.22 187.363104 
L 41.22 106.521552 
" style="fill: none; stroke: #000000; stroke-linejoin: miter; stroke-linecap: square"/>
   </g>
   <g id="patch_10">
    <path d="M 41.22 187.363104 
L 188.90964 187.363104 
" style="fill: none; stroke: #000000; stroke-linejoin: miter; stroke-linecap: square"/>
   </g>
   <g id="line2d_37">
    <path d="M 47.933165 146.100212 
L 48.540181 137.156755 
L 50.475033 110.196168 
L 50.551004 110.306351 
L 50.740623 110.396501 
L 51.764943 110.400794 
L 73.086234 110.396501 
L 73.238051 112.625926 
L 74.83138 135.449628 
L 78.245837 183.688488 
L 78.435502 183.55684 
L 79.308073 183.532514 
L 129.993553 183.538238 
L 130.221148 180.32861 
L 134.621984 117.097655 
L 135.153195 110.196168 
L 135.191065 110.241958 
L 135.418709 110.37933 
L 136.291333 110.400794 
L 167.362701 110.397932 
L 167.362701 110.397932 
" clip-path="url(#pee37cf65ae)" style="fill: none; stroke: #000000; stroke-width: 0.7; stroke-linecap: round"/>
   </g>
  </g>
  <g id="axes_4">
   <g id="patch_11">
    <path d="M 230.12964 187.363104 
L 377.81928 187.363104 
L 377.81928 106.521552 
L 230.12964 106.521552 
z
" style="fill: #ffffff"/>
   </g>
   <g id="matplotlib.axis_7">
    <g id="xtick_13">
     <g id="line2d_38"/>
     <g id="text_25">
      <!-- 0 -->
      <g style="fill: #262626" transform="translate(234.61593 196.18201) scale(0.07 -0.07)">
       <use xlink:href="#DejaVuSerif-30"/>
      </g>
     </g>
    </g>
    <g id="xtick_14">
     <g id="line2d_39"/>
     <g id="text_26">
      <!-- 10 -->
      <g style="fill: #262626" transform="translate(270.327261 196.18201) scale(0.07 -0.07)">
       <use xlink:href="#DejaVuSerif-31"/>
       <use xlink:href="#DejaVuSerif-30" x="63.623047"/>
      </g>
     </g>
    </g>
    <g id="xtick_15">
     <g id="line2d_40"/>
     <g id="text_27">
      <!-- 20 -->
      <g style="fill: #262626" transform="translate(308.265466 196.18201) scale(0.07 -0.07)">
       <use xlink:href="#DejaVuSerif-32"/>
       <use xlink:href="#DejaVuSerif-30" x="63.623047"/>
      </g>
     </g>
    </g>
    <g id="xtick_16">
     <g id="line2d_41"/>
     <g id="text_28">
      <!-- 30 -->
      <g style="fill: #262626" transform="translate(346.203672 196.18201) scale(0.07 -0.07)">
       <use xlink:href="#DejaVuSerif-33"/>
       <use xlink:href="#DejaVuSerif-30" x="63.623047"/>
      </g>
     </g>
    </g>
    <g id="text_29">
     <!-- Time [s] -->
     <g style="fill: #262626" transform="translate(291.559616 206.196854) scale(0.06 -0.06)">
      <use xlink:href="#DejaVuSerif-54"/>
      <use xlink:href="#DejaVuSerif-69" x="66.699219"/>
      <use xlink:href="#DejaVuSerif-6d" x="98.681641"/>
      <use xlink:href="#DejaVuSerif-65" x="193.505859"/>
      <use xlink:href="#DejaVuSerif-20" x="252.685547"/>
      <use xlink:href="#DejaVuSerif-5b" x="284.472656"/>
      <use xlink:href="#DejaVuSerif-73" x="323.486328"/>
      <use xlink:href="#DejaVuSerif-5d" x="374.804688"/>
     </g>
    </g>
   </g>
   <g id="matplotlib.axis_8">
    <g id="ytick_14">
     <g id="line2d_42"/>
     <g id="text_30">
      <!-- −10 -->
      <g style="fill: #262626" transform="translate(211.856359 177.139236) scale(0.07 -0.07)">
       <use xlink:href="#DejaVuSerif-2212"/>
       <use xlink:href="#DejaVuSerif-31" x="83.789062"/>
       <use xlink:href="#DejaVuSerif-30" x="147.412109"/>
      </g>
     </g>
    </g>
    <g id="ytick_15">
     <g id="line2d_43"/>
     <g id="text_31">
      <!-- 0 -->
      <g style="fill: #262626" transform="translate(222.17589 149.952339) scale(0.07 -0.07)">
       <use xlink:href="#DejaVuSerif-30"/>
      </g>
     </g>
    </g>
    <g id="ytick_16">
     <g id="line2d_44"/>
     <g id="text_32">
      <!-- 10 -->
      <g style="fill: #262626" transform="translate(217.72214 122.765443) scale(0.07 -0.07)">
       <use xlink:href="#DejaVuSerif-31"/>
       <use xlink:href="#DejaVuSerif-30" x="63.623047"/>
      </g>
     </g>
    </g>
    <g id="text_33">
     <!-- $\psi$ [deg] -->
     <g style="fill: #262626" transform="translate(206.476359 157.832328) rotate(-90) scale(0.06 -0.06)">
      <defs>
       <path id="DejaVuSans-Oblique-3c8" d="M 1591 -78 
Q 891 38 616 341 
Q 278 713 425 1472 
L 819 3500 
L 1400 3500 
L 1009 1494 
Q 900 922 1119 684 
Q 1313 478 1691 434 
L 2284 3500 
L 2856 3500 
L 2263 438 
Q 2681 481 2928 688 
Q 3247 950 3353 1497 
L 3741 3500 
L 4322 3500 
L 3928 1475 
Q 3775 688 3300 344 
Q 2872 34 2163 -75 
L 1919 -1331 
L 1347 -1331 
L 1591 -78 
z
" transform="scale(0.015625)"/>
      </defs>
      <use xlink:href="#DejaVuSans-Oblique-3c8" transform="translate(0 0.015625)"/>
      <use xlink:href="#DejaVuSerif-20" transform="translate(65.966797 0.015625)"/>
      <use xlink:href="#DejaVuSerif-5b" transform="translate(97.753906 0.015625)"/>
      <use xlink:href="#DejaVuSerif-64" transform="translate(136.767578 0.015625)"/>
      <use xlink:href="#DejaVuSerif-65" transform="translate(200.78125 0.015625)"/>
      <use xlink:href="#DejaVuSerif-67" transform="translate(259.960938 0.015625)"/>
      <use xlink:href="#DejaVuSerif-5d" transform="translate(323.974609 0.015625)"/>
     </g>
    </g>
   </g>
   <g id="line2d_45">
    <path d="M 236.842805 147.292886 
L 238.815592 147.402515 
L 239.953738 147.703853 
L 241.129823 148.258125 
L 242.45766 149.136743 
L 244.013126 150.447127 
L 245.83416 152.290442 
L 247.9587 154.769984 
L 250.538498 158.13699 
L 253.763245 162.733318 
L 257.860571 168.984588 
L 264.65151 179.424197 
L 265.827594 180.682993 
L 266.813988 181.435533 
L 267.762443 181.888907 
L 268.748836 182.112425 
L 269.773168 182.112684 
L 270.873376 181.885959 
L 272.087398 181.402003 
L 273.453174 180.611003 
L 275.00864 179.443909 
L 276.829674 177.785152 
L 278.954214 175.530152 
L 281.458135 172.53145 
L 284.455253 168.580487 
L 288.135259 163.346793 
L 292.877535 156.192651 
L 298.985586 146.554974 
L 307.901064 132.031932 
L 317.954689 115.685808 
L 319.244588 114.109296 
L 320.306857 113.131714 
L 321.293251 112.515181 
L 322.279644 112.151634 
L 323.303976 112.006735 
L 324.404184 112.079627 
L 325.580268 112.383037 
L 326.908105 112.964081 
L 328.387695 113.863068 
L 330.094914 115.172986 
L 332.067701 116.982261 
L 334.343993 119.384386 
L 337.037606 122.56736 
L 340.224415 126.694097 
L 344.094112 132.087019 
L 348.988141 139.312525 
L 355.285883 149.024548 
L 363.859917 162.688009 
L 371.106115 174.431549 
L 371.106115 174.431549 
" clip-path="url(#p8a4b75251c)" style="fill: none; stroke: #ff0000; stroke-width: 0.4; stroke-linecap: round"/>
   </g>
   <g id="line2d_46">
    <path d="M 236.842805 147.292886 
L 238.739716 147.401971 
L 239.801985 147.695349 
L 240.902193 148.248031 
L 242.116216 149.11698 
L 243.51993 150.409183 
L 245.113334 152.18806 
L 247.010245 154.657978 
L 249.21066 157.896792 
L 251.866335 162.218407 
L 255.091082 167.90206 
L 259.378099 175.953553 
L 261.388824 179.52224 
L 262.640785 181.318534 
L 263.665117 182.427196 
L 264.575634 183.099433 
L 265.486151 183.5037 
L 266.434606 183.679634 
L 267.420999 183.630686 
L 268.483269 183.3472 
L 269.659353 182.790943 
L 270.949252 181.927274 
L 272.428842 180.656094 
L 274.098123 178.914464 
L 275.995033 176.602685 
L 278.233388 173.511212 
L 280.813186 169.557894 
L 283.924118 164.37122 
L 287.680001 157.653406 
L 292.156709 149.182223 
L 298.454451 136.739903 
L 309.873851 114.103875 
L 311.049935 112.454592 
L 312.036329 111.427682 
L 312.984784 110.761043 
L 313.933239 110.366002 
L 314.919632 110.202036 
L 315.943964 110.260996 
L 317.044172 110.549138 
L 318.258194 111.100286 
L 319.62397 111.9732 
L 321.179436 113.246993 
L 322.924594 114.980379 
L 324.859442 117.229283 
L 327.059858 120.145819 
L 329.56378 123.843185 
L 332.485021 128.570776 
L 336.013275 134.732514 
L 340.452045 142.952756 
L 346.332466 154.339535 
L 353.502787 168.704589 
L 356.310214 174.418719 
L 356.310214 174.418719 
" clip-path="url(#p8a4b75251c)" style="fill: none; stroke: #0000ff; stroke-width: 0.4; stroke-linecap: round"/>
   </g>
   <g id="patch_12">
    <path d="M 230.12964 187.363104 
L 230.12964 106.521552 
" style="fill: none; stroke: #000000; stroke-linejoin: miter; stroke-linecap: square"/>
   </g>
   <g id="patch_13">
    <path d="M 230.12964 187.363104 
L 377.81928 187.363104 
" style="fill: none; stroke: #000000; stroke-linejoin: miter; stroke-linecap: square"/>
   </g>
   <g id="line2d_47">
    <path d="M 236.842805 147.574308 
L 238.739776 147.807265 
L 239.915815 148.179726 
L 241.167761 148.818956 
L 242.647412 149.837395 
L 244.354627 151.295013 
L 246.365341 153.314514 
L 248.793424 156.080656 
L 251.714597 159.758803 
L 255.015236 164.280871 
L 258.922837 170.025424 
L 264.651502 178.486507 
L 265.903486 179.866783 
L 266.965775 180.723992 
L 267.914203 181.211651 
L 268.900612 181.469492 
L 269.962889 181.513518 
L 271.138943 181.331796 
L 272.466841 180.890865 
L 273.946374 180.158111 
L 275.615693 179.076733 
L 277.47473 177.604604 
L 279.561267 175.661837 
L 281.951366 173.121931 
L 284.948439 169.593265 
L 288.894099 164.582433 
L 294.281245 157.369621 
L 298.644207 151.175147 
L 303.386452 144.022579 
L 314.312621 126.991786 
L 320.610397 117.270092 
L 322.089953 115.399852 
L 323.266041 114.256623 
L 324.252469 113.588415 
L 325.238832 113.194249 
L 326.263197 113.025722 
L 327.401321 113.070261 
L 328.691307 113.355926 
L 330.170829 113.924943 
L 331.84025 114.812422 
L 333.699059 116.056312 
L 335.70978 117.679381 
L 337.872269 119.720176 
L 340.376187 122.403479 
L 343.373298 125.956845 
L 347.660315 131.422916 
L 353.009587 138.579737 
L 356.272341 143.1658 
L 356.272341 143.1658 
" clip-path="url(#p8a4b75251c)" style="fill: none; stroke: #000000; stroke-width: 0.7; stroke-linecap: round"/>
   </g>
  </g>
 </g>
 <defs>
  <clipPath id="pd0c00f869a">
   <rect x="41.22" y="10.8" width="147.68964" height="80.841552"/>
  </clipPath>
  <clipPath id="p88564549a4">
   <rect x="230.12964" y="10.8" width="147.68964" height="80.841552"/>
  </clipPath>
  <clipPath id="pee37cf65ae">
   <rect x="41.22" y="106.521552" width="147.68964" height="80.841552"/>
  </clipPath>
  <clipPath id="p8a4b75251c">
   <rect x="230.12964" y="106.521552" width="147.68964" height="80.841552"/>
  </clipPath>
 </defs>
</svg>
