<?xml version="1.0" encoding="utf-8" standalone="no"?>
<!DOCTYPE svg PUBLIC "-//W3C//DTD SVG 1.1//EN"
  "http://www.w3.org/Graphics/SVG/1.1/DTD/svg11.dtd">
<svg xmlns:xlink="http://www.w3.org/1999/xlink" width="388.61928pt" height="218.623104pt" viewBox="0 0 388.61928 218.623104" xmlns="http://www.w3.org/2000/svg" version="1.1">
 <metadata>
  <rdf:RDF xmlns:dc="http://purl.org/dc/elements/1.1/" xmlns:cc="http://creativecommons.org/ns#" xmlns:rdf="http://www.w3.org/1999/02/22-rdf-syntax-ns#">
   <cc:Work>
    <dc:type rdf:resource="http://purl.org/dc/dcmitype/StillImage"/>
    <dc:date>2024-11-25T10:07:06.983945</dc:date>
    <dc:format>image/svg+xml</dc:format>
    <dc:creator>
     <cc:Agent>
      <dc:title>Matplotlib v3.8.2, https://matplotlib.org/</dc:title>
     </cc:Agent>
    </dc:creator>
   </cc:Work>
  </rdf:RDF>
 </metadata>
 <defs>
  <style type="text/css">*{stroke-linejoin: round; stroke-linecap: butt}</style>
 </defs>
 <g id="figure_1">
  <g id="patch_1">
   <path d="M 0 218.623104 
L 388.61928 218.623104 
L 388.61928 0 
L 0 0 
z
" style="fill: #ffffff"/>
  </g>
  <g id="axes_1">
   <g id="patch_2">
    <path d="M 25.214615 195.528177 
L 384.91396 195.528177 
L 384.91396 27.094314 
L 25.214615 27.094314 
z
" style="fill: #ffffff"/>
   </g>
   <g id="matplotlib.axis_1">
    <g id="xtick_1">
     <g id="line2d_1">
      <path d="M 36.49951 195.528177 
L 36.49951 27.094314 
" clip-path="url(#p8b677e49aa)" style="fill: none; stroke: #b0b0b0; stroke-width: 0.1; stroke-linecap: round"/>
     </g>
     <g id="line2d_2"/>
     <g id="text_1">
      <!-- −40 -->
      <g style="fill: #262626" transform="translate(29.112869 204.347083) scale(0.07 -0.07)">
       <defs>
        <path id="DejaVuSerif-2212" d="M 678 2259 
L 4684 2259 
L 4684 1753 
L 678 1753 
L 678 2259 
z
" transform="scale(0.015625)"/>
        <path id="DejaVuSerif-34" d="M 2234 1581 
L 2234 4063 
L 641 1581 
L 2234 1581 
z
M 3609 0 
L 1484 0 
L 1484 331 
L 2234 331 
L 2234 1247 
L 197 1247 
L 197 1588 
L 2241 4750 
L 2859 4750 
L 2859 1581 
L 3750 1581 
L 3750 1247 
L 2859 1247 
L 2859 331 
L 3609 331 
L 3609 0 
z
" transform="scale(0.015625)"/>
        <path id="DejaVuSerif-30" d="M 2034 219 
Q 2513 219 2750 744 
Q 2988 1269 2988 2328 
Q 2988 3391 2750 3916 
Q 2513 4441 2034 4441 
Q 1556 4441 1318 3916 
Q 1081 3391 1081 2328 
Q 1081 1269 1318 744 
Q 1556 219 2034 219 
z
M 2034 -91 
Q 1275 -91 848 546 
Q 422 1184 422 2328 
Q 422 3475 848 4112 
Q 1275 4750 2034 4750 
Q 2797 4750 3222 4112 
Q 3647 3475 3647 2328 
Q 3647 1184 3222 546 
Q 2797 -91 2034 -91 
z
" transform="scale(0.015625)"/>
       </defs>
       <use xlink:href="#DejaVuSerif-2212"/>
       <use xlink:href="#DejaVuSerif-34" x="83.789062"/>
       <use xlink:href="#DejaVuSerif-30" x="147.412109"/>
      </g>
     </g>
    </g>
    <g id="xtick_2">
     <g id="line2d_3">
      <path d="M 79.583649 195.528177 
L 79.583649 27.094314 
" clip-path="url(#p8b677e49aa)" style="fill: none; stroke: #b0b0b0; stroke-width: 0.1; stroke-linecap: round"/>
     </g>
     <g id="line2d_4"/>
     <g id="text_2">
      <!-- −30 -->
      <g style="fill: #262626" transform="translate(72.197009 204.347083) scale(0.07 -0.07)">
       <defs>
        <path id="DejaVuSerif-33" d="M 622 4469 
Q 988 4606 1323 4678 
Q 1659 4750 1953 4750 
Q 2638 4750 3022 4454 
Q 3406 4159 3406 3634 
Q 3406 3213 3140 2930 
Q 2875 2647 2388 2547 
Q 2963 2466 3280 2130 
Q 3597 1794 3597 1259 
Q 3597 606 3158 257 
Q 2719 -91 1894 -91 
Q 1528 -91 1179 -12 
Q 831 66 488 225 
L 488 1131 
L 838 1131 
Q 869 681 1141 450 
Q 1413 219 1906 219 
Q 2384 219 2661 495 
Q 2938 772 2938 1253 
Q 2938 1803 2653 2086 
Q 2369 2369 1819 2369 
L 1522 2369 
L 1522 2688 
L 1678 2688 
Q 2225 2688 2498 2914 
Q 2772 3141 2772 3597 
Q 2772 4006 2547 4223 
Q 2322 4441 1900 4441 
Q 1478 4441 1245 4241 
Q 1013 4041 972 3647 
L 622 3647 
L 622 4469 
z
" transform="scale(0.015625)"/>
       </defs>
       <use xlink:href="#DejaVuSerif-2212"/>
       <use xlink:href="#DejaVuSerif-33" x="83.789062"/>
       <use xlink:href="#DejaVuSerif-30" x="147.412109"/>
      </g>
     </g>
    </g>
    <g id="xtick_3">
     <g id="line2d_5">
      <path d="M 122.667788 195.528177 
L 122.667788 27.094314 
" clip-path="url(#p8b677e49aa)" style="fill: none; stroke: #b0b0b0; stroke-width: 0.1; stroke-linecap: round"/>
     </g>
     <g id="line2d_6"/>
     <g id="text_3">
      <!-- −20 -->
      <g style="fill: #262626" transform="translate(115.281148 204.347083) scale(0.07 -0.07)">
       <defs>
        <path id="DejaVuSerif-32" d="M 819 3553 
L 469 3553 
L 469 4384 
Q 803 4563 1142 4656 
Q 1481 4750 1806 4750 
Q 2534 4750 2956 4397 
Q 3378 4044 3378 3438 
Q 3378 2753 2422 1800 
Q 2347 1728 2309 1691 
L 1131 513 
L 3078 513 
L 3078 1088 
L 3444 1088 
L 3444 0 
L 434 0 
L 434 341 
L 1850 1753 
Q 2319 2222 2519 2614 
Q 2719 3006 2719 3438 
Q 2719 3909 2473 4175 
Q 2228 4441 1797 4441 
Q 1350 4441 1106 4219 
Q 863 3997 819 3553 
z
" transform="scale(0.015625)"/>
       </defs>
       <use xlink:href="#DejaVuSerif-2212"/>
       <use xlink:href="#DejaVuSerif-32" x="83.789062"/>
       <use xlink:href="#DejaVuSerif-30" x="147.412109"/>
      </g>
     </g>
    </g>
    <g id="xtick_4">
     <g id="line2d_7">
      <path d="M 165.751928 195.528177 
L 165.751928 27.094314 
" clip-path="url(#p8b677e49aa)" style="fill: none; stroke: #b0b0b0; stroke-width: 0.1; stroke-linecap: round"/>
     </g>
     <g id="line2d_8"/>
     <g id="text_4">
      <!-- −10 -->
      <g style="fill: #262626" transform="translate(158.365287 204.347083) scale(0.07 -0.07)">
       <defs>
        <path id="DejaVuSerif-31" d="M 909 0 
L 909 331 
L 1722 331 
L 1722 4213 
L 781 3603 
L 781 4013 
L 1919 4750 
L 2350 4750 
L 2350 331 
L 3163 331 
L 3163 0 
L 909 0 
z
" transform="scale(0.015625)"/>
       </defs>
       <use xlink:href="#DejaVuSerif-2212"/>
       <use xlink:href="#DejaVuSerif-31" x="83.789062"/>
       <use xlink:href="#DejaVuSerif-30" x="147.412109"/>
      </g>
     </g>
    </g>
    <g id="xtick_5">
     <g id="line2d_9">
      <path d="M 208.836067 195.528177 
L 208.836067 27.094314 
" clip-path="url(#p8b677e49aa)" style="fill: none; stroke: #b0b0b0; stroke-width: 0.1; stroke-linecap: round"/>
     </g>
     <g id="line2d_10"/>
     <g id="text_5">
      <!-- 0 -->
      <g style="fill: #262626" transform="translate(206.609192 204.347083) scale(0.07 -0.07)">
       <use xlink:href="#DejaVuSerif-30"/>
      </g>
     </g>
    </g>
    <g id="xtick_6">
     <g id="line2d_11">
      <path d="M 251.920206 195.528177 
L 251.920206 27.094314 
" clip-path="url(#p8b677e49aa)" style="fill: none; stroke: #b0b0b0; stroke-width: 0.1; stroke-linecap: round"/>
     </g>
     <g id="line2d_12"/>
     <g id="text_6">
      <!-- 10 -->
      <g style="fill: #262626" transform="translate(247.466456 204.347083) scale(0.07 -0.07)">
       <use xlink:href="#DejaVuSerif-31"/>
       <use xlink:href="#DejaVuSerif-30" x="63.623047"/>
      </g>
     </g>
    </g>
    <g id="xtick_7">
     <g id="line2d_13">
      <path d="M 295.004345 195.528177 
L 295.004345 27.094314 
" clip-path="url(#p8b677e49aa)" style="fill: none; stroke: #b0b0b0; stroke-width: 0.1; stroke-linecap: round"/>
     </g>
     <g id="line2d_14"/>
     <g id="text_7">
      <!-- 20 -->
      <g style="fill: #262626" transform="translate(290.550595 204.347083) scale(0.07 -0.07)">
       <use xlink:href="#DejaVuSerif-32"/>
       <use xlink:href="#DejaVuSerif-30" x="63.623047"/>
      </g>
     </g>
    </g>
    <g id="xtick_8">
     <g id="line2d_15">
      <path d="M 338.088485 195.528177 
L 338.088485 27.094314 
" clip-path="url(#p8b677e49aa)" style="fill: none; stroke: #b0b0b0; stroke-width: 0.1; stroke-linecap: round"/>
     </g>
     <g id="line2d_16"/>
     <g id="text_8">
      <!-- 30 -->
      <g style="fill: #262626" transform="translate(333.634735 204.347083) scale(0.07 -0.07)">
       <use xlink:href="#DejaVuSerif-33"/>
       <use xlink:href="#DejaVuSerif-30" x="63.623047"/>
      </g>
     </g>
    </g>
    <g id="xtick_9">
     <g id="line2d_17">
      <path d="M 381.172624 195.528177 
L 381.172624 27.094314 
" clip-path="url(#p8b677e49aa)" style="fill: none; stroke: #b0b0b0; stroke-width: 0.1; stroke-linecap: round"/>
     </g>
     <g id="line2d_18"/>
     <g id="text_9">
      <!-- 40 -->
      <g style="fill: #262626" transform="translate(376.718874 204.347083) scale(0.07 -0.07)">
       <use xlink:href="#DejaVuSerif-34"/>
       <use xlink:href="#DejaVuSerif-30" x="63.623047"/>
      </g>
     </g>
    </g>
    <g id="text_10">
     <!-- $y_0$ $[m]$ -->
     <g style="fill: #262626" transform="translate(195.644288 214.362864) scale(0.06 -0.06)">
      <defs>
       <path id="DejaVuSans-Oblique-79" d="M 1588 -325 
Q 1188 -997 936 -1164 
Q 684 -1331 294 -1331 
L -159 -1331 
L -63 -850 
L 269 -850 
Q 509 -850 678 -719 
Q 847 -588 1056 -206 
L 1234 128 
L 459 3500 
L 1069 3500 
L 1650 819 
L 3256 3500 
L 3859 3500 
L 1588 -325 
z
" transform="scale(0.015625)"/>
       <path id="DejaVuSans-30" d="M 2034 4250 
Q 1547 4250 1301 3770 
Q 1056 3291 1056 2328 
Q 1056 1369 1301 889 
Q 1547 409 2034 409 
Q 2525 409 2770 889 
Q 3016 1369 3016 2328 
Q 3016 3291 2770 3770 
Q 2525 4250 2034 4250 
z
M 2034 4750 
Q 2819 4750 3233 4129 
Q 3647 3509 3647 2328 
Q 3647 1150 3233 529 
Q 2819 -91 2034 -91 
Q 1250 -91 836 529 
Q 422 1150 422 2328 
Q 422 3509 836 4129 
Q 1250 4750 2034 4750 
z
" transform="scale(0.015625)"/>
       <path id="DejaVuSerif-20" transform="scale(0.015625)"/>
       <path id="DejaVuSans-5b" d="M 550 4863 
L 1875 4863 
L 1875 4416 
L 1125 4416 
L 1125 -397 
L 1875 -397 
L 1875 -844 
L 550 -844 
L 550 4863 
z
" transform="scale(0.015625)"/>
       <path id="DejaVuSans-Oblique-6d" d="M 5747 2113 
L 5338 0 
L 4763 0 
L 5166 2094 
Q 5191 2228 5203 2325 
Q 5216 2422 5216 2491 
Q 5216 2772 5059 2928 
Q 4903 3084 4622 3084 
Q 4203 3084 3875 2770 
Q 3547 2456 3450 1953 
L 3066 0 
L 2491 0 
L 2900 2094 
Q 2925 2209 2937 2307 
Q 2950 2406 2950 2484 
Q 2950 2769 2794 2926 
Q 2638 3084 2363 3084 
Q 1938 3084 1609 2770 
Q 1281 2456 1184 1953 
L 800 0 
L 225 0 
L 909 3500 
L 1484 3500 
L 1375 2956 
Q 1609 3263 1923 3423 
Q 2238 3584 2597 3584 
Q 2978 3584 3223 3384 
Q 3469 3184 3519 2828 
Q 3781 3197 4126 3390 
Q 4472 3584 4856 3584 
Q 5306 3584 5551 3325 
Q 5797 3066 5797 2591 
Q 5797 2488 5784 2364 
Q 5772 2241 5747 2113 
z
" transform="scale(0.015625)"/>
       <path id="DejaVuSans-5d" d="M 1947 4863 
L 1947 -844 
L 622 -844 
L 622 -397 
L 1369 -397 
L 1369 4416 
L 622 4416 
L 622 4863 
L 1947 4863 
z
" transform="scale(0.015625)"/>
      </defs>
      <use xlink:href="#DejaVuSans-Oblique-79" transform="translate(0 0.015625)"/>
      <use xlink:href="#DejaVuSans-30" transform="translate(59.179688 -16.390625) scale(0.7)"/>
      <use xlink:href="#DejaVuSerif-20" transform="translate(106.450195 0.015625)"/>
      <use xlink:href="#DejaVuSans-5b" transform="translate(138.237305 0.015625)"/>
      <use xlink:href="#DejaVuSans-Oblique-6d" transform="translate(177.250977 0.015625)"/>
      <use xlink:href="#DejaVuSans-5d" transform="translate(274.663086 0.015625)"/>
     </g>
    </g>
   </g>
   <g id="matplotlib.axis_2">
    <g id="ytick_1">
     <g id="line2d_19">
      <path d="M 25.214615 177.04851 
L 384.91396 177.04851 
" clip-path="url(#p8b677e49aa)" style="fill: none; stroke: #b0b0b0; stroke-width: 0.1; stroke-linecap: round"/>
     </g>
     <g id="line2d_20"/>
     <g id="text_11">
      <!-- 0 -->
      <g style="fill: #262626" transform="translate(17.260865 179.707963) scale(0.07 -0.07)">
       <use xlink:href="#DejaVuSerif-30"/>
      </g>
     </g>
    </g>
    <g id="ytick_2">
     <g id="line2d_21">
      <path d="M 25.214615 155.464214 
L 384.91396 155.464214 
" clip-path="url(#p8b677e49aa)" style="fill: none; stroke: #b0b0b0; stroke-width: 0.1; stroke-linecap: round"/>
     </g>
     <g id="line2d_22"/>
     <g id="text_12">
      <!-- 5 -->
      <g style="fill: #262626" transform="translate(17.260865 158.123667) scale(0.07 -0.07)">
       <defs>
        <path id="DejaVuSerif-35" d="M 3219 4666 
L 3219 4153 
L 1081 4153 
L 1081 2816 
Q 1244 2928 1461 2984 
Q 1678 3041 1947 3041 
Q 2703 3041 3140 2622 
Q 3578 2203 3578 1478 
Q 3578 738 3136 323 
Q 2694 -91 1894 -91 
Q 1572 -91 1234 -12 
Q 897 66 544 225 
L 544 1131 
L 897 1131 
Q 925 688 1179 453 
Q 1434 219 1894 219 
Q 2388 219 2653 544 
Q 2919 869 2919 1478 
Q 2919 2084 2655 2407 
Q 2391 2731 1894 2731 
Q 1613 2731 1398 2631 
Q 1184 2531 1019 2322 
L 750 2322 
L 750 4666 
L 3219 4666 
z
" transform="scale(0.015625)"/>
       </defs>
       <use xlink:href="#DejaVuSerif-35"/>
      </g>
     </g>
    </g>
    <g id="ytick_3">
     <g id="line2d_23">
      <path d="M 25.214615 133.879918 
L 384.91396 133.879918 
" clip-path="url(#p8b677e49aa)" style="fill: none; stroke: #b0b0b0; stroke-width: 0.1; stroke-linecap: round"/>
     </g>
     <g id="line2d_24"/>
     <g id="text_13">
      <!-- 10 -->
      <g style="fill: #262626" transform="translate(12.807115 136.539371) scale(0.07 -0.07)">
       <use xlink:href="#DejaVuSerif-31"/>
       <use xlink:href="#DejaVuSerif-30" x="63.623047"/>
      </g>
     </g>
    </g>
    <g id="ytick_4">
     <g id="line2d_25">
      <path d="M 25.214615 112.295622 
L 384.91396 112.295622 
" clip-path="url(#p8b677e49aa)" style="fill: none; stroke: #b0b0b0; stroke-width: 0.1; stroke-linecap: round"/>
     </g>
     <g id="line2d_26"/>
     <g id="text_14">
      <!-- 15 -->
      <g style="fill: #262626" transform="translate(12.807115 114.955075) scale(0.07 -0.07)">
       <use xlink:href="#DejaVuSerif-31"/>
       <use xlink:href="#DejaVuSerif-35" x="63.623047"/>
      </g>
     </g>
    </g>
    <g id="ytick_5">
     <g id="line2d_27">
      <path d="M 25.214615 90.711326 
L 384.91396 90.711326 
" clip-path="url(#p8b677e49aa)" style="fill: none; stroke: #b0b0b0; stroke-width: 0.1; stroke-linecap: round"/>
     </g>
     <g id="line2d_28"/>
     <g id="text_15">
      <!-- 20 -->
      <g style="fill: #262626" transform="translate(12.807115 93.370779) scale(0.07 -0.07)">
       <use xlink:href="#DejaVuSerif-32"/>
       <use xlink:href="#DejaVuSerif-30" x="63.623047"/>
      </g>
     </g>
    </g>
    <g id="ytick_6">
     <g id="line2d_29">
      <path d="M 25.214615 69.127029 
L 384.91396 69.127029 
" clip-path="url(#p8b677e49aa)" style="fill: none; stroke: #b0b0b0; stroke-width: 0.1; stroke-linecap: round"/>
     </g>
     <g id="line2d_30"/>
     <g id="text_16">
      <!-- 25 -->
      <g style="fill: #262626" transform="translate(12.807115 71.786483) scale(0.07 -0.07)">
       <use xlink:href="#DejaVuSerif-32"/>
       <use xlink:href="#DejaVuSerif-35" x="63.623047"/>
      </g>
     </g>
    </g>
    <g id="ytick_7">
     <g id="line2d_31">
      <path d="M 25.214615 47.542733 
L 384.91396 47.542733 
" clip-path="url(#p8b677e49aa)" style="fill: none; stroke: #b0b0b0; stroke-width: 0.1; stroke-linecap: round"/>
     </g>
     <g id="line2d_32"/>
     <g id="text_17">
      <!-- 30 -->
      <g style="fill: #262626" transform="translate(12.807115 50.202186) scale(0.07 -0.07)">
       <use xlink:href="#DejaVuSerif-33"/>
       <use xlink:href="#DejaVuSerif-30" x="63.623047"/>
      </g>
     </g>
    </g>
    <g id="text_18">
     <!-- $x_0$ $[m]$ -->
     <g style="fill: #262626" transform="translate(7.559302 120.731245) rotate(-90) scale(0.06 -0.06)">
      <defs>
       <path id="DejaVuSans-Oblique-78" d="M 3841 3500 
L 2234 1784 
L 3219 0 
L 2559 0 
L 1819 1388 
L 531 0 
L -166 0 
L 1556 1844 
L 641 3500 
L 1300 3500 
L 1972 2234 
L 3144 3500 
L 3841 3500 
z
" transform="scale(0.015625)"/>
      </defs>
      <use xlink:href="#DejaVuSans-Oblique-78" transform="translate(0 0.015625)"/>
      <use xlink:href="#DejaVuSans-30" transform="translate(59.179688 -16.390625) scale(0.7)"/>
      <use xlink:href="#DejaVuSerif-20" transform="translate(106.450195 0.015625)"/>
      <use xlink:href="#DejaVuSans-5b" transform="translate(138.237305 0.015625)"/>
      <use xlink:href="#DejaVuSans-Oblique-6d" transform="translate(177.250977 0.015625)"/>
      <use xlink:href="#DejaVuSans-5d" transform="translate(274.663086 0.015625)"/>
     </g>
    </g>
   </g>
   <g id="line2d_33">
    <path d="M 208.836067 177.04851 
L 208.726291 158.716289 
L 208.387434 152.992458 
L 207.878268 148.042722 
L 207.175768 143.464683 
L 205.837512 136.423434 
L 203.780155 125.491512 
L 202.871616 119.389987 
L 202.288653 113.98561 
L 201.963054 108.902041 
L 201.873981 104.070331 
L 202.007464 99.383621 
L 202.344212 95.078257 
L 202.906289 90.85283 
L 203.913985 85.111741 
L 206.867539 68.931853 
L 207.627508 63.160011 
L 208.096684 57.908925 
L 208.317873 52.963509 
L 208.310208 48.187412 
L 208.200014 45.409775 
L 208.200014 45.409775 
" clip-path="url(#p8b677e49aa)" style="fill: none; stroke: #ff0000; stroke-width: 0.4; stroke-linecap: round"/>
   </g>
   <g id="line2d_34">
    <path d="M 208.836067 177.04851 
L 208.726142 158.990436 
L 208.385305 153.53877 
L 207.889224 148.979659 
L 207.155404 144.403873 
L 205.630215 136.553404 
L 203.977022 127.688813 
L 203.124304 121.891292 
L 202.584492 116.712112 
L 202.300403 111.849945 
L 202.249951 107.202085 
L 202.420953 102.699761 
L 202.78838 98.699457 
L 203.432177 94.295294 
L 204.693251 87.405594 
L 206.617298 76.789305 
L 207.414484 71.073349 
L 207.906854 65.948168 
L 208.147008 61.126767 
L 208.155006 56.503737 
L 208.0736 54.219736 
L 208.0736 54.219736 
" clip-path="url(#p8b677e49aa)" style="fill: none; stroke: #0000ff; stroke-width: 0.4; stroke-linecap: round"/>
   </g>
   <g id="patch_3">
    <path d="M 25.214615 195.528177 
L 25.214615 27.094314 
" style="fill: none; stroke: #000000; stroke-linejoin: miter; stroke-linecap: square"/>
   </g>
   <g id="patch_4">
    <path d="M 25.214615 195.528177 
L 384.91396 195.528177 
" style="fill: none; stroke: #000000; stroke-linejoin: miter; stroke-linecap: square"/>
   </g>
   <g id="text_19">
    <!-- Track plot -->
    <g style="fill: #262626" transform="translate(186.903116 21.094314) scale(0.07 -0.07)">
     <defs>
      <path id="DejaVuSerif-54" d="M 1222 0 
L 1222 331 
L 1819 331 
L 1819 4294 
L 447 4294 
L 447 3566 
L 63 3566 
L 63 4666 
L 4206 4666 
L 4206 3566 
L 3822 3566 
L 3822 4294 
L 2450 4294 
L 2450 331 
L 3047 331 
L 3047 0 
L 1222 0 
z
" transform="scale(0.015625)"/>
      <path id="DejaVuSerif-72" d="M 3059 3328 
L 3059 2497 
L 2728 2497 
Q 2713 2744 2591 2866 
Q 2469 2988 2234 2988 
Q 1809 2988 1582 2694 
Q 1356 2400 1356 1850 
L 1356 331 
L 2022 331 
L 2022 0 
L 263 0 
L 263 331 
L 781 331 
L 781 2994 
L 231 2994 
L 231 3322 
L 1356 3322 
L 1356 2731 
Q 1525 3078 1790 3245 
Q 2056 3413 2438 3413 
Q 2578 3413 2733 3391 
Q 2888 3369 3059 3328 
z
" transform="scale(0.015625)"/>
      <path id="DejaVuSerif-61" d="M 2547 1044 
L 2547 1747 
L 1806 1747 
Q 1378 1747 1168 1562 
Q 959 1378 959 997 
Q 959 650 1171 447 
Q 1384 244 1747 244 
Q 2106 244 2326 466 
Q 2547 688 2547 1044 
z
M 3122 2075 
L 3122 331 
L 3634 331 
L 3634 0 
L 2547 0 
L 2547 359 
Q 2356 128 2106 18 
Q 1856 -91 1522 -91 
Q 969 -91 644 203 
Q 319 497 319 997 
Q 319 1513 691 1797 
Q 1063 2081 1741 2081 
L 2547 2081 
L 2547 2309 
Q 2547 2688 2317 2895 
Q 2088 3103 1672 3103 
Q 1328 3103 1125 2947 
Q 922 2791 872 2484 
L 575 2484 
L 575 3156 
Q 875 3284 1158 3348 
Q 1441 3413 1709 3413 
Q 2400 3413 2761 3070 
Q 3122 2728 3122 2075 
z
" transform="scale(0.015625)"/>
      <path id="DejaVuSerif-63" d="M 3291 997 
Q 3169 466 2822 187 
Q 2475 -91 1925 -91 
Q 1200 -91 759 389 
Q 319 869 319 1663 
Q 319 2459 759 2936 
Q 1200 3413 1925 3413 
Q 2241 3413 2553 3339 
Q 2866 3266 3181 3116 
L 3181 2266 
L 2847 2266 
Q 2781 2703 2561 2903 
Q 2341 3103 1931 3103 
Q 1466 3103 1228 2742 
Q 991 2381 991 1663 
Q 991 944 1227 581 
Q 1463 219 1931 219 
Q 2303 219 2525 412 
Q 2747 606 2828 997 
L 3291 997 
z
" transform="scale(0.015625)"/>
      <path id="DejaVuSerif-6b" d="M 1831 0 
L 219 0 
L 219 331 
L 738 331 
L 738 4531 
L 184 4531 
L 184 4863 
L 1313 4863 
L 1313 1697 
L 2713 2988 
L 2234 2988 
L 2234 3322 
L 3738 3322 
L 3738 2988 
L 3169 2988 
L 2181 2075 
L 3444 331 
L 3922 331 
L 3922 0 
L 2284 0 
L 2284 331 
L 2759 331 
L 1766 1697 
L 1313 1275 
L 1313 331 
L 1831 331 
L 1831 0 
z
" transform="scale(0.015625)"/>
      <path id="DejaVuSerif-70" d="M 1313 1825 
L 1313 1497 
Q 1313 897 1542 583 
Q 1772 269 2209 269 
Q 2650 269 2876 622 
Q 3103 975 3103 1663 
Q 3103 2353 2876 2703 
Q 2650 3053 2209 3053 
Q 1772 3053 1542 2737 
Q 1313 2422 1313 1825 
z
M 738 2988 
L 184 2988 
L 184 3322 
L 1313 3322 
L 1313 2803 
Q 1481 3116 1742 3264 
Q 2003 3413 2388 3413 
Q 3000 3413 3387 2928 
Q 3775 2444 3775 1663 
Q 3775 881 3387 395 
Q 3000 -91 2388 -91 
Q 2003 -91 1742 57 
Q 1481 206 1313 519 
L 1313 -997 
L 1856 -997 
L 1856 -1331 
L 184 -1331 
L 184 -997 
L 738 -997 
L 738 2988 
z
" transform="scale(0.015625)"/>
      <path id="DejaVuSerif-6c" d="M 1313 331 
L 1856 331 
L 1856 0 
L 184 0 
L 184 331 
L 738 331 
L 738 4531 
L 184 4531 
L 184 4863 
L 1313 4863 
L 1313 331 
z
" transform="scale(0.015625)"/>
      <path id="DejaVuSerif-6f" d="M 1925 219 
Q 2388 219 2623 584 
Q 2859 950 2859 1663 
Q 2859 2375 2623 2739 
Q 2388 3103 1925 3103 
Q 1463 3103 1227 2739 
Q 991 2375 991 1663 
Q 991 950 1228 584 
Q 1466 219 1925 219 
z
M 1925 -91 
Q 1200 -91 759 389 
Q 319 869 319 1663 
Q 319 2456 758 2934 
Q 1197 3413 1925 3413 
Q 2653 3413 3092 2934 
Q 3531 2456 3531 1663 
Q 3531 869 3092 389 
Q 2653 -91 1925 -91 
z
" transform="scale(0.015625)"/>
      <path id="DejaVuSerif-74" d="M 691 2988 
L 184 2988 
L 184 3322 
L 691 3322 
L 691 4353 
L 1269 4353 
L 1269 3322 
L 2350 3322 
L 2350 2988 
L 1269 2988 
L 1269 878 
Q 1269 456 1350 337 
Q 1431 219 1650 219 
Q 1875 219 1978 351 
Q 2081 484 2088 781 
L 2522 781 
Q 2497 328 2275 118 
Q 2053 -91 1600 -91 
Q 1103 -91 897 129 
Q 691 350 691 878 
L 691 2988 
z
" transform="scale(0.015625)"/>
     </defs>
     <use xlink:href="#DejaVuSerif-54"/>
     <use xlink:href="#DejaVuSerif-72" x="66.699219"/>
     <use xlink:href="#DejaVuSerif-61" x="114.501953"/>
     <use xlink:href="#DejaVuSerif-63" x="174.121094"/>
     <use xlink:href="#DejaVuSerif-6b" x="230.126953"/>
     <use xlink:href="#DejaVuSerif-20" x="290.722656"/>
     <use xlink:href="#DejaVuSerif-70" x="322.509766"/>
     <use xlink:href="#DejaVuSerif-6c" x="386.523438"/>
     <use xlink:href="#DejaVuSerif-6f" x="418.505859"/>
     <use xlink:href="#DejaVuSerif-74" x="478.710938"/>
    </g>
   </g>
   <g id="legend_1">
    <g id="line2d_35">
     <path d="M 280.087867 36.26322 
L 287.087867 36.26322 
L 294.087867 36.26322 
" style="fill: none; stroke: #000000; stroke-width: 0.7; stroke-linecap: round"/>
    </g>
    <g id="text_20">
     <!-- experiment -->
     <g style="fill: #262626" transform="translate(299.687867 38.71322) scale(0.07 -0.07)">
      <defs>
       <path id="DejaVuSerif-65" d="M 3469 1600 
L 991 1600 
L 991 1575 
Q 991 903 1244 561 
Q 1497 219 1991 219 
Q 2369 219 2611 417 
Q 2853 616 2950 1006 
L 3413 1006 
Q 3275 459 2904 184 
Q 2534 -91 1931 -91 
Q 1203 -91 761 389 
Q 319 869 319 1663 
Q 319 2450 753 2931 
Q 1188 3413 1894 3413 
Q 2647 3413 3050 2948 
Q 3453 2484 3469 1600 
z
M 2791 1931 
Q 2772 2513 2545 2808 
Q 2319 3103 1894 3103 
Q 1497 3103 1269 2806 
Q 1041 2509 991 1931 
L 2791 1931 
z
" transform="scale(0.015625)"/>
       <path id="DejaVuSerif-78" d="M 1863 2028 
L 2559 2988 
L 2113 2988 
L 2113 3322 
L 3391 3322 
L 3391 2988 
L 2950 2988 
L 2059 1759 
L 3097 331 
L 3531 331 
L 3531 0 
L 1997 0 
L 1997 331 
L 2419 331 
L 1697 1325 
L 972 331 
L 1403 331 
L 1403 0 
L 141 0 
L 141 331 
L 581 331 
L 1497 1594 
L 488 2988 
L 78 2988 
L 78 3322 
L 1563 3322 
L 1563 2988 
L 1166 2988 
L 1863 2028 
z
" transform="scale(0.015625)"/>
       <path id="DejaVuSerif-69" d="M 622 4353 
Q 622 4497 726 4603 
Q 831 4709 978 4709 
Q 1122 4709 1226 4603 
Q 1331 4497 1331 4353 
Q 1331 4206 1228 4103 
Q 1125 4000 978 4000 
Q 831 4000 726 4103 
Q 622 4206 622 4353 
z
M 1356 331 
L 1900 331 
L 1900 0 
L 231 0 
L 231 331 
L 781 331 
L 781 2988 
L 231 2988 
L 231 3322 
L 1356 3322 
L 1356 331 
z
" transform="scale(0.015625)"/>
       <path id="DejaVuSerif-6d" d="M 3316 2675 
Q 3481 3041 3739 3227 
Q 3997 3413 4341 3413 
Q 4863 3413 5119 3089 
Q 5375 2766 5375 2113 
L 5375 331 
L 5894 331 
L 5894 0 
L 4300 0 
L 4300 331 
L 4800 331 
L 4800 2047 
Q 4800 2556 4650 2772 
Q 4500 2988 4153 2988 
Q 3769 2988 3567 2697 
Q 3366 2406 3366 1850 
L 3366 331 
L 3866 331 
L 3866 0 
L 2291 0 
L 2291 331 
L 2791 331 
L 2791 2069 
Q 2791 2566 2641 2777 
Q 2491 2988 2144 2988 
Q 1759 2988 1557 2697 
Q 1356 2406 1356 1850 
L 1356 331 
L 1856 331 
L 1856 0 
L 263 0 
L 263 331 
L 781 331 
L 781 2994 
L 231 2994 
L 231 3322 
L 1356 3322 
L 1356 2731 
Q 1516 3063 1762 3238 
Q 2009 3413 2322 3413 
Q 2709 3413 2968 3220 
Q 3228 3028 3316 2675 
z
" transform="scale(0.015625)"/>
       <path id="DejaVuSerif-6e" d="M 263 0 
L 263 331 
L 781 331 
L 781 2988 
L 231 2988 
L 231 3322 
L 1356 3322 
L 1356 2731 
Q 1516 3069 1770 3241 
Q 2025 3413 2363 3413 
Q 2913 3413 3172 3097 
Q 3431 2781 3431 2113 
L 3431 331 
L 3944 331 
L 3944 0 
L 2356 0 
L 2356 331 
L 2853 331 
L 2853 1931 
Q 2853 2541 2703 2767 
Q 2553 2994 2175 2994 
Q 1775 2994 1565 2701 
Q 1356 2409 1356 1850 
L 1356 331 
L 1856 331 
L 1856 0 
L 263 0 
z
" transform="scale(0.015625)"/>
      </defs>
      <use xlink:href="#DejaVuSerif-65"/>
      <use xlink:href="#DejaVuSerif-78" x="59.179688"/>
      <use xlink:href="#DejaVuSerif-70" x="115.576172"/>
      <use xlink:href="#DejaVuSerif-65" x="179.589844"/>
      <use xlink:href="#DejaVuSerif-72" x="238.769531"/>
      <use xlink:href="#DejaVuSerif-69" x="286.572266"/>
      <use xlink:href="#DejaVuSerif-6d" x="318.554688"/>
      <use xlink:href="#DejaVuSerif-65" x="413.378906"/>
      <use xlink:href="#DejaVuSerif-6e" x="472.558594"/>
      <use xlink:href="#DejaVuSerif-74" x="536.962891"/>
     </g>
    </g>
    <g id="line2d_36">
     <path d="M 280.087867 46.537907 
L 287.087867 46.537907 
L 294.087867 46.537907 
" style="fill: none; stroke: #ff0000; stroke-width: 0.4; stroke-linecap: round"/>
    </g>
    <g id="text_21">
     <!-- polynomial rudder -->
     <g style="fill: #262626" transform="translate(299.687867 48.987907) scale(0.07 -0.07)">
      <defs>
       <path id="DejaVuSerif-79" d="M 1381 -609 
L 1600 -56 
L 359 2988 
L -19 2988 
L -19 3322 
L 1509 3322 
L 1509 2988 
L 978 2988 
L 1913 703 
L 2847 2988 
L 2350 2988 
L 2350 3322 
L 3597 3322 
L 3597 2988 
L 3225 2988 
L 1703 -750 
Q 1547 -1138 1356 -1280 
Q 1166 -1422 819 -1422 
Q 672 -1422 517 -1397 
Q 363 -1372 206 -1325 
L 206 -691 
L 500 -691 
Q 519 -903 608 -995 
Q 697 -1088 884 -1088 
Q 1056 -1088 1161 -992 
Q 1266 -897 1381 -609 
z
" transform="scale(0.015625)"/>
       <path id="DejaVuSerif-75" d="M 2266 3322 
L 3341 3322 
L 3341 331 
L 3884 331 
L 3884 0 
L 2766 0 
L 2766 588 
Q 2606 256 2353 82 
Q 2100 -91 1766 -91 
Q 1213 -91 952 223 
Q 691 538 691 1209 
L 691 2988 
L 172 2988 
L 172 3322 
L 1269 3322 
L 1269 1388 
Q 1269 781 1417 556 
Q 1566 331 1947 331 
Q 2347 331 2556 625 
Q 2766 919 2766 1478 
L 2766 2988 
L 2266 2988 
L 2266 3322 
z
" transform="scale(0.015625)"/>
       <path id="DejaVuSerif-64" d="M 3359 331 
L 3909 331 
L 3909 0 
L 2784 0 
L 2784 519 
Q 2616 206 2355 57 
Q 2094 -91 1709 -91 
Q 1097 -91 708 395 
Q 319 881 319 1663 
Q 319 2444 706 2928 
Q 1094 3413 1709 3413 
Q 2094 3413 2355 3264 
Q 2616 3116 2784 2803 
L 2784 4531 
L 2241 4531 
L 2241 4863 
L 3359 4863 
L 3359 331 
z
M 2784 1497 
L 2784 1825 
Q 2784 2422 2554 2737 
Q 2325 3053 1888 3053 
Q 1444 3053 1217 2703 
Q 991 2353 991 1663 
Q 991 975 1217 622 
Q 1444 269 1888 269 
Q 2325 269 2554 583 
Q 2784 897 2784 1497 
z
" transform="scale(0.015625)"/>
      </defs>
      <use xlink:href="#DejaVuSerif-70"/>
      <use xlink:href="#DejaVuSerif-6f" x="64.013672"/>
      <use xlink:href="#DejaVuSerif-6c" x="124.21875"/>
      <use xlink:href="#DejaVuSerif-79" x="156.201172"/>
      <use xlink:href="#DejaVuSerif-6e" x="212.695312"/>
      <use xlink:href="#DejaVuSerif-6f" x="277.099609"/>
      <use xlink:href="#DejaVuSerif-6d" x="337.304688"/>
      <use xlink:href="#DejaVuSerif-69" x="432.128906"/>
      <use xlink:href="#DejaVuSerif-61" x="464.111328"/>
      <use xlink:href="#DejaVuSerif-6c" x="523.730469"/>
      <use xlink:href="#DejaVuSerif-20" x="555.712891"/>
      <use xlink:href="#DejaVuSerif-72" x="587.5"/>
      <use xlink:href="#DejaVuSerif-75" x="635.302734"/>
      <use xlink:href="#DejaVuSerif-64" x="699.707031"/>
      <use xlink:href="#DejaVuSerif-64" x="763.720703"/>
      <use xlink:href="#DejaVuSerif-65" x="827.734375"/>
      <use xlink:href="#DejaVuSerif-72" x="886.914062"/>
     </g>
    </g>
    <g id="line2d_37">
     <path d="M 280.087867 56.912126 
L 287.087867 56.912126 
L 294.087867 56.912126 
" style="fill: none; stroke: #0000ff; stroke-width: 0.4; stroke-linecap: round"/>
    </g>
    <g id="text_22">
     <!-- semi-empirical rudder -->
     <g style="fill: #262626" transform="translate(299.687867 59.362126) scale(0.07 -0.07)">
      <defs>
       <path id="DejaVuSerif-73" d="M 359 184 
L 359 959 
L 691 959 
Q 703 588 923 403 
Q 1144 219 1575 219 
Q 1963 219 2166 364 
Q 2369 509 2369 788 
Q 2369 1006 2220 1140 
Q 2072 1275 1594 1428 
L 1178 1569 
Q 750 1706 558 1912 
Q 366 2119 366 2438 
Q 366 2894 700 3153 
Q 1034 3413 1625 3413 
Q 1888 3413 2178 3344 
Q 2469 3275 2778 3144 
L 2778 2419 
L 2447 2419 
Q 2434 2741 2221 2922 
Q 2009 3103 1644 3103 
Q 1281 3103 1095 2975 
Q 909 2847 909 2591 
Q 909 2381 1050 2254 
Q 1191 2128 1613 1997 
L 2069 1856 
Q 2541 1709 2748 1489 
Q 2956 1269 2956 922 
Q 2956 450 2595 179 
Q 2234 -91 1600 -91 
Q 1278 -91 972 -22 
Q 666 47 359 184 
z
" transform="scale(0.015625)"/>
       <path id="DejaVuSerif-2d" d="M 281 1959 
L 1881 1959 
L 1881 1472 
L 281 1472 
L 281 1959 
z
" transform="scale(0.015625)"/>
      </defs>
      <use xlink:href="#DejaVuSerif-73"/>
      <use xlink:href="#DejaVuSerif-65" x="51.318359"/>
      <use xlink:href="#DejaVuSerif-6d" x="110.498047"/>
      <use xlink:href="#DejaVuSerif-69" x="205.322266"/>
      <use xlink:href="#DejaVuSerif-2d" x="237.304688"/>
      <use xlink:href="#DejaVuSerif-65" x="271.09375"/>
      <use xlink:href="#DejaVuSerif-6d" x="330.273438"/>
      <use xlink:href="#DejaVuSerif-70" x="425.097656"/>
      <use xlink:href="#DejaVuSerif-69" x="489.111328"/>
      <use xlink:href="#DejaVuSerif-72" x="521.09375"/>
      <use xlink:href="#DejaVuSerif-69" x="568.896484"/>
      <use xlink:href="#DejaVuSerif-63" x="600.878906"/>
      <use xlink:href="#DejaVuSerif-61" x="656.884766"/>
      <use xlink:href="#DejaVuSerif-6c" x="716.503906"/>
      <use xlink:href="#DejaVuSerif-20" x="748.486328"/>
      <use xlink:href="#DejaVuSerif-72" x="780.273438"/>
      <use xlink:href="#DejaVuSerif-75" x="828.076172"/>
      <use xlink:href="#DejaVuSerif-64" x="892.480469"/>
      <use xlink:href="#DejaVuSerif-64" x="956.494141"/>
      <use xlink:href="#DejaVuSerif-65" x="1020.507812"/>
      <use xlink:href="#DejaVuSerif-72" x="1079.6875"/>
     </g>
    </g>
   </g>
   <g id="line2d_38">
    <path d="M 208.807913 161.348793 
L 207.790279 162.432995 
L 207.282437 163.516274 
L 206.776547 165.681909 
L 206.80387 180.834899 
L 206.958759 181.916978 
L 207.317566 182.998689 
L 210.376326 182.993152 
L 210.73123 181.910149 
L 210.882216 180.827516 
L 210.854893 165.674527 
L 210.341197 163.510737 
L 209.829452 162.429303 
L 208.807913 161.348793 
" clip-path="url(#p8b677e49aa)" style="fill: none; stroke: #0000ff; stroke-opacity: 0.2; stroke-width: 0.4; stroke-linecap: round"/>
   </g>
   <g id="patch_5">
    <path d="M 208.807913 161.348793 
L 207.790279 162.432995 
L 207.282437 163.516274 
L 206.776547 165.681909 
L 206.80387 180.834899 
L 206.958759 181.916978 
L 207.317566 182.998689 
L 210.376326 182.993152 
L 210.73123 181.910149 
L 210.882216 180.827516 
L 210.854893 165.674527 
L 210.341197 163.510737 
L 209.829452 162.429303 
z
" clip-path="url(#p8b677e49aa)" style="fill: #0000ff; opacity: 0.2"/>
   </g>
   <g id="line2d_39">
    <path d="M 205.159188 129.583055 
L 204.391552 130.857245 
L 204.122142 132.023239 
L 204.081548 134.247031 
L 207.284975 149.056205 
L 207.663259 150.081544 
L 208.240833 151.063605 
L 211.230191 150.414429 
L 211.350133 149.280893 
L 211.270785 148.190636 
L 208.067358 133.381463 
L 207.111499 131.374063 
L 206.384457 130.424461 
L 205.159188 129.583055 
" clip-path="url(#p8b677e49aa)" style="fill: none; stroke: #0000ff; stroke-opacity: 0.2; stroke-width: 0.4; stroke-linecap: round"/>
   </g>
   <g id="patch_6">
    <path d="M 205.159188 129.583055 
L 204.391552 130.857245 
L 204.122142 132.023239 
L 204.081548 134.247031 
L 207.284975 149.056205 
L 207.663259 150.081544 
L 208.240833 151.063605 
L 211.230191 150.414429 
L 211.350133 149.280893 
L 211.270785 148.190636 
L 208.067358 133.381463 
L 207.111499 131.374063 
L 206.384457 130.424461 
z
" clip-path="url(#p8b677e49aa)" style="fill: #0000ff; opacity: 0.2"/>
   </g>
   <g id="line2d_40">
    <path d="M 201.65419 98.264898 
L 200.683399 99.3914 
L 200.221903 100.4953 
L 199.808206 102.680498 
L 200.477391 117.81867 
L 200.677978 118.893188 
L 201.082284 119.958665 
L 204.138052 119.823054 
L 204.44676 118.725935 
L 204.551749 117.637856 
L 203.882565 102.499683 
L 203.277672 100.359689 
L 202.720578 99.300993 
L 201.65419 98.264898 
" clip-path="url(#p8b677e49aa)" style="fill: none; stroke: #0000ff; stroke-opacity: 0.2; stroke-width: 0.4; stroke-linecap: round"/>
   </g>
   <g id="patch_7">
    <path d="M 201.65419 98.264898 
L 200.683399 99.3914 
L 200.221903 100.4953 
L 199.808206 102.680498 
L 200.477391 117.81867 
L 200.677978 118.893188 
L 201.082284 119.958665 
L 204.138052 119.823054 
L 204.44676 118.725935 
L 204.551749 117.637856 
L 203.882565 102.499683 
L 203.277672 100.359689 
L 202.720578 99.300993 
z
" clip-path="url(#p8b677e49aa)" style="fill: #0000ff; opacity: 0.2"/>
   </g>
   <g id="line2d_41">
    <path d="M 204.594917 67.626026 
L 203.364137 68.459317 
L 202.630859 69.404094 
L 201.661808 71.405134 
L 198.360973 86.192817 
L 198.27445 87.282526 
L 198.386928 88.416829 
L 201.371947 89.085745 
L 201.955974 88.107523 
L 202.340999 87.084705 
L 205.641834 72.297022 
L 205.615879 70.07301 
L 205.35415 68.905261 
L 204.594917 67.626026 
" clip-path="url(#p8b677e49aa)" style="fill: none; stroke: #0000ff; stroke-opacity: 0.2; stroke-width: 0.4; stroke-linecap: round"/>
   </g>
   <g id="patch_8">
    <path d="M 204.594917 67.626026 
L 203.364137 68.459317 
L 202.630859 69.404094 
L 201.661808 71.405134 
L 198.360973 86.192817 
L 198.27445 87.282526 
L 198.386928 88.416829 
L 201.371947 89.085745 
L 201.955974 88.107523 
L 202.340999 87.084705 
L 205.641834 72.297022 
L 205.615879 70.07301 
L 205.35415 68.905261 
z
" clip-path="url(#p8b677e49aa)" style="fill: #0000ff; opacity: 0.2"/>
   </g>
   <g id="line2d_42">
    <path d="M 207.297999 37.020078 
L 206.250151 38.074992 
L 205.711919 39.143439 
L 205.145068 41.293864 
L 204.744424 56.441559 
L 204.868691 57.527597 
L 205.196804 58.619048 
L 208.254496 58.700239 
L 208.639844 57.627733 
L 208.821346 56.549814 
L 209.22199 41.402118 
L 208.76961 39.22463 
L 208.288612 38.129119 
L 207.297999 37.020078 
" clip-path="url(#p8b677e49aa)" style="fill: none; stroke: #ff0000; stroke-opacity: 0.2; stroke-width: 0.4; stroke-linecap: round"/>
   </g>
   <g id="patch_9">
    <path d="M 207.297999 37.020078 
L 206.250151 38.074992 
L 205.711919 39.143439 
L 205.145068 41.293864 
L 204.744424 56.441559 
L 204.868691 57.527597 
L 205.196804 58.619048 
L 208.254496 58.700239 
L 208.639844 57.627733 
L 208.821346 56.549814 
L 209.22199 41.402118 
L 208.76961 39.22463 
L 208.288612 38.129119 
z
" clip-path="url(#p8b677e49aa)" style="fill: #ff0000; opacity: 0.2"/>
   </g>
   <g id="line2d_43">
    <path d="M 208.836067 166.224929 
L 207.816479 167.307287 
L 207.306685 168.389645 
L 206.79689 170.554361 
L 206.79689 185.707376 
L 206.949829 186.789734 
L 207.306685 187.872092 
L 210.365449 187.872092 
L 210.722305 186.789734 
L 210.875243 185.707376 
L 210.875243 170.554361 
L 210.365449 168.389645 
L 209.855655 167.307287 
L 208.836067 166.224929 
" clip-path="url(#p8b677e49aa)" style="fill: none; stroke: #0000ff; stroke-opacity: 0.2; stroke-width: 0.4; stroke-linecap: round"/>
   </g>
   <g id="patch_10">
    <path d="M 208.836067 166.224929 
L 207.816479 167.307287 
L 207.306685 168.389645 
L 206.79689 170.554361 
L 206.79689 185.707376 
L 206.949829 186.789734 
L 207.306685 187.872092 
L 210.365449 187.872092 
L 210.722305 186.789734 
L 210.875243 185.707376 
L 210.875243 170.554361 
L 210.365449 168.389645 
L 209.855655 167.307287 
z
" clip-path="url(#p8b677e49aa)" style="fill: #0000ff; opacity: 0.2"/>
   </g>
   <g id="line2d_44">
    <path d="M 205.917626 139.026895 
L 205.133628 140.291044 
L 204.849209 141.453455 
L 204.779951 143.676536 
L 207.792203 158.525932 
L 208.157238 159.556082 
L 208.722104 160.545535 
L 211.719581 159.935101 
L 211.854126 158.803212 
L 211.788839 157.712019 
L 208.776587 142.862623 
L 207.846686 140.84302 
L 207.131946 139.884088 
L 205.917626 139.026895 
" clip-path="url(#p8b677e49aa)" style="fill: none; stroke: #0000ff; stroke-opacity: 0.2; stroke-width: 0.4; stroke-linecap: round"/>
   </g>
   <g id="patch_11">
    <path d="M 205.917626 139.026895 
L 205.133628 140.291044 
L 204.849209 141.453455 
L 204.779951 143.676536 
L 207.792203 158.525932 
L 208.157238 159.556082 
L 208.722104 160.545535 
L 211.719581 159.935101 
L 211.854126 158.803212 
L 211.788839 157.712019 
L 208.776587 142.862623 
L 207.846686 140.84302 
L 207.131946 139.884088 
z
" clip-path="url(#p8b677e49aa)" style="fill: #0000ff; opacity: 0.2"/>
   </g>
   <g id="line2d_45">
    <path d="M 202.382796 112.410738 
L 201.47046 113.585265 
L 201.065611 114.711259 
L 200.7634 116.914715 
L 202.200342 131.999175 
L 202.455227 133.062077 
L 202.913107 134.105565 
L 205.958034 133.814368 
L 206.210637 132.702933 
L 206.260244 131.610912 
L 204.823302 116.526452 
L 204.110537 114.420062 
L 203.500411 113.391134 
L 202.382796 112.410738 
" clip-path="url(#p8b677e49aa)" style="fill: none; stroke: #0000ff; stroke-opacity: 0.2; stroke-width: 0.4; stroke-linecap: round"/>
   </g>
   <g id="patch_12">
    <path d="M 202.382796 112.410738 
L 201.47046 113.585265 
L 201.065611 114.711259 
L 200.7634 116.914715 
L 202.200342 131.999175 
L 202.455227 133.062077 
L 202.913107 134.105565 
L 205.958034 133.814368 
L 206.210637 132.702933 
L 206.260244 131.610912 
L 204.823302 116.526452 
L 204.110537 114.420062 
L 203.500411 113.391134 
z
" clip-path="url(#p8b677e49aa)" style="fill: #0000ff; opacity: 0.2"/>
   </g>
   <g id="line2d_46">
    <path d="M 204.346793 86.239003 
L 203.131062 87.094185 
L 202.414743 88.051933 
L 201.481514 90.069995 
L 198.444792 104.914387 
L 198.377707 106.00547 
L 198.510386 107.13758 
L 201.506853 107.752974 
L 202.073349 106.764456 
L 202.440081 105.734912 
L 205.476803 90.89052 
L 205.411209 88.667327 
L 205.128707 87.504447 
L 204.346793 86.239003 
" clip-path="url(#p8b677e49aa)" style="fill: none; stroke: #0000ff; stroke-opacity: 0.2; stroke-width: 0.4; stroke-linecap: round"/>
   </g>
   <g id="patch_13">
    <path d="M 204.346793 86.239003 
L 203.131062 87.094185 
L 202.414743 88.051933 
L 201.481514 90.069995 
L 198.444792 104.914387 
L 198.377707 106.00547 
L 198.510386 107.13758 
L 201.506853 107.752974 
L 202.073349 106.764456 
L 202.440081 105.734912 
L 205.476803 90.89052 
L 205.411209 88.667327 
L 205.128707 87.504447 
z
" clip-path="url(#p8b677e49aa)" style="fill: #0000ff; opacity: 0.2"/>
   </g>
   <g id="line2d_47">
    <path d="M 207.759423 60.506859 
L 206.620843 61.462728 
L 205.988579 62.478151 
L 205.230369 64.56855 
L 203.467122 79.618221 
L 203.493071 80.711063 
L 203.721547 81.827728 
L 206.759451 82.185051 
L 207.239819 81.151762 
L 207.51766 80.094652 
L 209.280908 65.044981 
L 209.026483 62.835474 
L 208.646112 61.700944 
L 207.759423 60.506859 
" clip-path="url(#p8b677e49aa)" style="fill: none; stroke: #0000ff; stroke-opacity: 0.2; stroke-width: 0.4; stroke-linecap: round"/>
   </g>
   <g id="patch_14">
    <path d="M 207.759423 60.506859 
L 206.620843 61.462728 
L 205.988579 62.478151 
L 205.230369 64.56855 
L 203.467122 79.618221 
L 203.493071 80.711063 
L 203.721547 81.827728 
L 206.759451 82.185051 
L 207.239819 81.151762 
L 207.51766 80.094652 
L 209.280908 65.044981 
L 209.026483 62.835474 
L 208.646112 61.700944 
z
" clip-path="url(#p8b677e49aa)" style="fill: #0000ff; opacity: 0.2"/>
   </g>
   <g id="line2d_48">
    <path d="M 206.325495 34.750398 
L 205.508827 35.99361 
L 205.194219 37.148184 
L 205.067063 39.368697 
L 207.691388 54.291824 
L 208.029458 55.33117 
L 208.568352 56.335062 
L 211.580712 55.803241 
L 211.744702 54.675257 
L 211.707869 53.582729 
L 209.083543 38.659601 
L 208.206579 36.616363 
L 207.517067 35.639062 
L 206.325495 34.750398 
" clip-path="url(#p8b677e49aa)" style="fill: none; stroke: #ff0000; stroke-opacity: 0.2; stroke-width: 0.4; stroke-linecap: round"/>
   </g>
   <g id="patch_15">
    <path d="M 206.325495 34.750398 
L 205.508827 35.99361 
L 205.194219 37.148184 
L 205.067063 39.368697 
L 207.691388 54.291824 
L 208.029458 55.33117 
L 208.568352 56.335062 
L 211.580712 55.803241 
L 211.744702 54.675257 
L 211.707869 53.582729 
L 209.083543 38.659601 
L 208.206579 36.616363 
L 207.517067 35.639062 
z
" clip-path="url(#p8b677e49aa)" style="fill: #ff0000; opacity: 0.2"/>
   </g>
   <g id="line2d_49">
    <path d="M 208.836067 166.224929 
L 207.816479 167.307287 
L 207.306685 168.389645 
L 206.79689 170.554361 
L 206.79689 185.707376 
L 206.949829 186.789734 
L 207.306685 187.872092 
L 210.365449 187.872092 
L 210.722305 186.789734 
L 210.875243 185.707376 
L 210.875243 170.554361 
L 210.365449 168.389645 
L 209.855655 167.307287 
L 208.836067 166.224929 
" clip-path="url(#p8b677e49aa)" style="fill: none; stroke: #0000ff; stroke-opacity: 0.2; stroke-width: 0.4; stroke-linecap: round"/>
   </g>
   <g id="patch_16">
    <path d="M 208.836067 166.224929 
L 207.816479 167.307287 
L 207.306685 168.389645 
L 206.79689 170.554361 
L 206.79689 185.707376 
L 206.949829 186.789734 
L 207.306685 187.872092 
L 210.365449 187.872092 
L 210.722305 186.789734 
L 210.875243 185.707376 
L 210.875243 170.554361 
L 210.365449 168.389645 
L 209.855655 167.307287 
z
" clip-path="url(#p8b677e49aa)" style="fill: #0000ff; opacity: 0.2"/>
   </g>
   <g id="line2d_50">
    <path d="M 204.793347 134.659327 
L 204.051574 135.948805 
L 203.805743 137.120017 
L 203.810021 139.344178 
L 207.311563 154.085444 
L 207.710455 155.102912 
L 208.307725 156.073074 
L 211.283375 155.363484 
L 211.380424 154.227751 
L 211.279096 153.139324 
L 207.777554 138.398058 
L 206.781393 136.410428 
L 206.035341 135.475745 
L 204.793347 134.659327 
" clip-path="url(#p8b677e49aa)" style="fill: none; stroke: #0000ff; stroke-opacity: 0.2; stroke-width: 0.4; stroke-linecap: round"/>
   </g>
   <g id="patch_17">
    <path d="M 204.793347 134.659327 
L 204.051574 135.948805 
L 203.805743 137.120017 
L 203.810021 139.344178 
L 207.311563 154.085444 
L 207.710455 155.102912 
L 208.307725 156.073074 
L 211.283375 155.363484 
L 211.380424 154.227751 
L 211.279096 153.139324 
L 207.777554 138.398058 
L 206.781393 136.410428 
L 206.035341 135.475745 
z
" clip-path="url(#p8b677e49aa)" style="fill: #0000ff; opacity: 0.2"/>
   </g>
   <g id="line2d_51">
    <path d="M 202.888628 103.583758 
L 201.823217 104.620862 
L 201.267121 105.680084 
L 200.664246 107.82065 
L 200.00933 122.959449 
L 200.115345 124.047428 
L 200.425087 125.144255 
L 203.480982 125.276974 
L 203.884283 124.211115 
L 204.083857 123.136408 
L 204.738773 107.997609 
L 204.323017 105.812804 
L 203.86048 104.709341 
L 202.888628 103.583758 
" clip-path="url(#p8b677e49aa)" style="fill: none; stroke: #0000ff; stroke-opacity: 0.2; stroke-width: 0.4; stroke-linecap: round"/>
   </g>
   <g id="patch_18">
    <path d="M 202.888628 103.583758 
L 201.823217 104.620862 
L 201.267121 105.680084 
L 200.664246 107.82065 
L 200.00933 122.959449 
L 200.115345 124.047428 
L 200.425087 125.144255 
L 203.480982 125.276974 
L 203.884283 124.211115 
L 204.083857 123.136408 
L 204.738773 107.997609 
L 204.323017 105.812804 
L 203.86048 104.709341 
z
" clip-path="url(#p8b677e49aa)" style="fill: #0000ff; opacity: 0.2"/>
   </g>
   <g id="line2d_52">
    <path d="M 207.232525 73.594857 
L 206.036003 74.476818 
L 205.341037 75.450233 
L 204.452663 77.488517 
L 201.744938 92.396679 
L 201.701996 93.488984 
L 201.859677 94.61787 
L 204.869016 95.166592 
L 205.413515 94.165741 
L 205.757391 93.128308 
L 208.465115 78.220146 
L 208.350377 75.998955 
L 208.042229 74.842633 
L 207.232525 73.594857 
" clip-path="url(#p8b677e49aa)" style="fill: none; stroke: #0000ff; stroke-opacity: 0.2; stroke-width: 0.4; stroke-linecap: round"/>
   </g>
   <g id="patch_19">
    <path d="M 207.232525 73.594857 
L 206.036003 74.476818 
L 205.341037 75.450233 
L 204.452663 77.488517 
L 201.744938 92.396679 
L 201.701996 93.488984 
L 201.859677 94.61787 
L 204.869016 95.166592 
L 205.413515 94.165741 
L 205.757391 93.128308 
L 208.465115 78.220146 
L 208.350377 75.998955 
L 208.042229 74.842633 
z
" clip-path="url(#p8b677e49aa)" style="fill: #0000ff; opacity: 0.2"/>
   </g>
   <g id="line2d_53">
    <path d="M 206.198017 43.560548 
L 205.381473 44.803841 
L 205.06698 45.958447 
L 204.940045 48.178972 
L 207.565862 63.101836 
L 207.904036 64.141149 
L 208.44303 65.144987 
L 211.455337 64.612863 
L 211.619214 63.484863 
L 211.582271 62.392338 
L 208.956455 47.469474 
L 208.079287 45.426324 
L 207.389677 44.449092 
L 206.198017 43.560548 
" clip-path="url(#p8b677e49aa)" style="fill: none; stroke: #ff0000; stroke-opacity: 0.2; stroke-width: 0.4; stroke-linecap: round"/>
   </g>
   <g id="patch_20">
    <path d="M 206.198017 43.560548 
L 205.381473 44.803841 
L 205.06698 45.958447 
L 204.940045 48.178972 
L 207.565862 63.101836 
L 207.904036 64.141149 
L 208.44303 65.144987 
L 211.455337 64.612863 
L 211.619214 63.484863 
L 211.582271 62.392338 
L 208.956455 47.469474 
L 208.079287 45.426324 
L 207.389677 44.449092 
z
" clip-path="url(#p8b677e49aa)" style="fill: #ff0000; opacity: 0.2"/>
   </g>
   <g id="line2d_54">
    <path d="M 208.82743 172.172356 
L 208.669057 154.689309 
L 208.330843 148.476204 
L 207.81256 142.960875 
L 207.147052 138.213775 
L 205.979821 131.732512 
L 203.12866 116.240158 
L 202.222803 109.831399 
L 201.611719 103.93507 
L 201.268858 98.482891 
L 201.161018 93.237925 
L 201.278525 88.134152 
L 201.610407 83.291068 
L 202.130571 78.920455 
L 203.086742 73.007734 
L 206.247554 54.33359 
L 206.984941 48.112131 
L 207.011824 47.83986 
L 207.011824 47.83986 
" clip-path="url(#p8b677e49aa)" style="fill: none; stroke: #000000; stroke-width: 0.7; stroke-linecap: round"/>
   </g>
  </g>
  <g id="text_23">
   <!-- zigzag 10/10 -->
   <g style="fill: #262626" transform="translate(171.735187 8.219615) scale(0.07 -0.07)">
    <defs>
     <path id="DejaVuSerif-7a" d="M 256 0 
L 256 269 
L 2338 2988 
L 691 2988 
L 691 2413 
L 359 2413 
L 359 3322 
L 3078 3322 
L 3078 3053 
L 997 331 
L 2803 331 
L 2803 934 
L 3138 934 
L 3138 0 
L 256 0 
z
" transform="scale(0.015625)"/>
     <path id="DejaVuSerif-67" d="M 3359 2988 
L 3359 72 
Q 3359 -644 2965 -1033 
Q 2572 -1422 1844 -1422 
Q 1516 -1422 1216 -1362 
Q 916 -1303 641 -1184 
L 641 -488 
L 941 -488 
Q 997 -813 1206 -963 
Q 1416 -1113 1806 -1113 
Q 2313 -1113 2548 -827 
Q 2784 -541 2784 72 
L 2784 519 
Q 2616 206 2355 57 
Q 2094 -91 1709 -91 
Q 1097 -91 708 395 
Q 319 881 319 1663 
Q 319 2444 706 2928 
Q 1094 3413 1709 3413 
Q 2094 3413 2355 3264 
Q 2616 3116 2784 2803 
L 2784 3322 
L 3909 3322 
L 3909 2988 
L 3359 2988 
z
M 2784 1825 
Q 2784 2422 2554 2737 
Q 2325 3053 1888 3053 
Q 1444 3053 1217 2703 
Q 991 2353 991 1663 
Q 991 975 1217 622 
Q 1444 269 1888 269 
Q 2325 269 2554 583 
Q 2784 897 2784 1497 
L 2784 1825 
z
" transform="scale(0.015625)"/>
     <path id="DejaVuSerif-2f" d="M 1656 4666 
L 2156 4666 
L 500 -594 
L 0 -594 
L 1656 4666 
z
" transform="scale(0.015625)"/>
    </defs>
    <use xlink:href="#DejaVuSerif-7a"/>
    <use xlink:href="#DejaVuSerif-69" x="52.685547"/>
    <use xlink:href="#DejaVuSerif-67" x="84.667969"/>
    <use xlink:href="#DejaVuSerif-7a" x="148.681641"/>
    <use xlink:href="#DejaVuSerif-61" x="201.367188"/>
    <use xlink:href="#DejaVuSerif-67" x="260.986328"/>
    <use xlink:href="#DejaVuSerif-20" x="325"/>
    <use xlink:href="#DejaVuSerif-31" x="356.787109"/>
    <use xlink:href="#DejaVuSerif-30" x="420.410156"/>
    <use xlink:href="#DejaVuSerif-2f" x="484.033203"/>
    <use xlink:href="#DejaVuSerif-31" x="517.724609"/>
    <use xlink:href="#DejaVuSerif-30" x="581.347656"/>
   </g>
  </g>
 </g>
 <defs>
  <clipPath id="p8b677e49aa">
   <rect x="25.214615" y="27.094314" width="359.699345" height="168.433863"/>
  </clipPath>
 </defs>
</svg>
