<?xml version="1.0" encoding="utf-8" standalone="no"?>
<!DOCTYPE svg PUBLIC "-//W3C//DTD SVG 1.1//EN"
  "http://www.w3.org/Graphics/SVG/1.1/DTD/svg11.dtd">
<svg xmlns:xlink="http://www.w3.org/1999/xlink" width="388.61928pt" height="218.623104pt" viewBox="0 0 388.61928 218.623104" xmlns="http://www.w3.org/2000/svg" version="1.1">
 <metadata>
  <rdf:RDF xmlns:dc="http://purl.org/dc/elements/1.1/" xmlns:cc="http://creativecommons.org/ns#" xmlns:rdf="http://www.w3.org/1999/02/22-rdf-syntax-ns#">
   <cc:Work>
    <dc:type rdf:resource="http://purl.org/dc/dcmitype/StillImage"/>
    <dc:date>2024-11-25T10:07:11.126454</dc:date>
    <dc:format>image/svg+xml</dc:format>
    <dc:creator>
     <cc:Agent>
      <dc:title>Matplotlib v3.8.2, https://matplotlib.org/</dc:title>
     </cc:Agent>
    </dc:creator>
   </cc:Work>
  </rdf:RDF>
 </metadata>
 <defs>
  <style type="text/css">*{stroke-linejoin: round; stroke-linecap: butt}</style>
 </defs>
 <g id="figure_1">
  <g id="patch_1">
   <path d="M 0 218.623104 
L 388.61928 218.623104 
L 388.61928 0 
L 0 0 
z
" style="fill: #ffffff"/>
  </g>
  <g id="axes_1">
   <g id="patch_2">
    <path d="M 25.214615 195.528177 
L 385.61904 195.528177 
L 385.61904 27.094314 
L 25.214615 27.094314 
z
" style="fill: #ffffff"/>
   </g>
   <g id="matplotlib.axis_1">
    <g id="xtick_1">
     <g id="line2d_1">
      <path d="M 66.243463 195.528177 
L 66.243463 27.094314 
" clip-path="url(#p2862f091d7)" style="fill: none; stroke: #b0b0b0; stroke-width: 0.1; stroke-linecap: round"/>
     </g>
     <g id="line2d_2"/>
     <g id="text_1">
      <!-- −30 -->
      <g style="fill: #262626" transform="translate(58.856823 204.347083) scale(0.07 -0.07)">
       <defs>
        <path id="DejaVuSerif-2212" d="M 678 2259 
L 4684 2259 
L 4684 1753 
L 678 1753 
L 678 2259 
z
" transform="scale(0.015625)"/>
        <path id="DejaVuSerif-33" d="M 622 4469 
Q 988 4606 1323 4678 
Q 1659 4750 1953 4750 
Q 2638 4750 3022 4454 
Q 3406 4159 3406 3634 
Q 3406 3213 3140 2930 
Q 2875 2647 2388 2547 
Q 2963 2466 3280 2130 
Q 3597 1794 3597 1259 
Q 3597 606 3158 257 
Q 2719 -91 1894 -91 
Q 1528 -91 1179 -12 
Q 831 66 488 225 
L 488 1131 
L 838 1131 
Q 869 681 1141 450 
Q 1413 219 1906 219 
Q 2384 219 2661 495 
Q 2938 772 2938 1253 
Q 2938 1803 2653 2086 
Q 2369 2369 1819 2369 
L 1522 2369 
L 1522 2688 
L 1678 2688 
Q 2225 2688 2498 2914 
Q 2772 3141 2772 3597 
Q 2772 4006 2547 4223 
Q 2322 4441 1900 4441 
Q 1478 4441 1245 4241 
Q 1013 4041 972 3647 
L 622 3647 
L 622 4469 
z
" transform="scale(0.015625)"/>
        <path id="DejaVuSerif-30" d="M 2034 219 
Q 2513 219 2750 744 
Q 2988 1269 2988 2328 
Q 2988 3391 2750 3916 
Q 2513 4441 2034 4441 
Q 1556 4441 1318 3916 
Q 1081 3391 1081 2328 
Q 1081 1269 1318 744 
Q 1556 219 2034 219 
z
M 2034 -91 
Q 1275 -91 848 546 
Q 422 1184 422 2328 
Q 422 3475 848 4112 
Q 1275 4750 2034 4750 
Q 2797 4750 3222 4112 
Q 3647 3475 3647 2328 
Q 3647 1184 3222 546 
Q 2797 -91 2034 -91 
z
" transform="scale(0.015625)"/>
       </defs>
       <use xlink:href="#DejaVuSerif-2212"/>
       <use xlink:href="#DejaVuSerif-33" x="83.789062"/>
       <use xlink:href="#DejaVuSerif-30" x="147.412109"/>
      </g>
     </g>
    </g>
    <g id="xtick_2">
     <g id="line2d_3">
      <path d="M 109.644827 195.528177 
L 109.644827 27.094314 
" clip-path="url(#p2862f091d7)" style="fill: none; stroke: #b0b0b0; stroke-width: 0.1; stroke-linecap: round"/>
     </g>
     <g id="line2d_4"/>
     <g id="text_2">
      <!-- −20 -->
      <g style="fill: #262626" transform="translate(102.258187 204.347083) scale(0.07 -0.07)">
       <defs>
        <path id="DejaVuSerif-32" d="M 819 3553 
L 469 3553 
L 469 4384 
Q 803 4563 1142 4656 
Q 1481 4750 1806 4750 
Q 2534 4750 2956 4397 
Q 3378 4044 3378 3438 
Q 3378 2753 2422 1800 
Q 2347 1728 2309 1691 
L 1131 513 
L 3078 513 
L 3078 1088 
L 3444 1088 
L 3444 0 
L 434 0 
L 434 341 
L 1850 1753 
Q 2319 2222 2519 2614 
Q 2719 3006 2719 3438 
Q 2719 3909 2473 4175 
Q 2228 4441 1797 4441 
Q 1350 4441 1106 4219 
Q 863 3997 819 3553 
z
" transform="scale(0.015625)"/>
       </defs>
       <use xlink:href="#DejaVuSerif-2212"/>
       <use xlink:href="#DejaVuSerif-32" x="83.789062"/>
       <use xlink:href="#DejaVuSerif-30" x="147.412109"/>
      </g>
     </g>
    </g>
    <g id="xtick_3">
     <g id="line2d_5">
      <path d="M 153.046191 195.528177 
L 153.046191 27.094314 
" clip-path="url(#p2862f091d7)" style="fill: none; stroke: #b0b0b0; stroke-width: 0.1; stroke-linecap: round"/>
     </g>
     <g id="line2d_6"/>
     <g id="text_3">
      <!-- −10 -->
      <g style="fill: #262626" transform="translate(145.659551 204.347083) scale(0.07 -0.07)">
       <defs>
        <path id="DejaVuSerif-31" d="M 909 0 
L 909 331 
L 1722 331 
L 1722 4213 
L 781 3603 
L 781 4013 
L 1919 4750 
L 2350 4750 
L 2350 331 
L 3163 331 
L 3163 0 
L 909 0 
z
" transform="scale(0.015625)"/>
       </defs>
       <use xlink:href="#DejaVuSerif-2212"/>
       <use xlink:href="#DejaVuSerif-31" x="83.789062"/>
       <use xlink:href="#DejaVuSerif-30" x="147.412109"/>
      </g>
     </g>
    </g>
    <g id="xtick_4">
     <g id="line2d_7">
      <path d="M 196.447556 195.528177 
L 196.447556 27.094314 
" clip-path="url(#p2862f091d7)" style="fill: none; stroke: #b0b0b0; stroke-width: 0.1; stroke-linecap: round"/>
     </g>
     <g id="line2d_8"/>
     <g id="text_4">
      <!-- 0 -->
      <g style="fill: #262626" transform="translate(194.220681 204.347083) scale(0.07 -0.07)">
       <use xlink:href="#DejaVuSerif-30"/>
      </g>
     </g>
    </g>
    <g id="xtick_5">
     <g id="line2d_9">
      <path d="M 239.84892 195.528177 
L 239.84892 27.094314 
" clip-path="url(#p2862f091d7)" style="fill: none; stroke: #b0b0b0; stroke-width: 0.1; stroke-linecap: round"/>
     </g>
     <g id="line2d_10"/>
     <g id="text_5">
      <!-- 10 -->
      <g style="fill: #262626" transform="translate(235.39517 204.347083) scale(0.07 -0.07)">
       <use xlink:href="#DejaVuSerif-31"/>
       <use xlink:href="#DejaVuSerif-30" x="63.623047"/>
      </g>
     </g>
    </g>
    <g id="xtick_6">
     <g id="line2d_11">
      <path d="M 283.250284 195.528177 
L 283.250284 27.094314 
" clip-path="url(#p2862f091d7)" style="fill: none; stroke: #b0b0b0; stroke-width: 0.1; stroke-linecap: round"/>
     </g>
     <g id="line2d_12"/>
     <g id="text_6">
      <!-- 20 -->
      <g style="fill: #262626" transform="translate(278.796534 204.347083) scale(0.07 -0.07)">
       <use xlink:href="#DejaVuSerif-32"/>
       <use xlink:href="#DejaVuSerif-30" x="63.623047"/>
      </g>
     </g>
    </g>
    <g id="xtick_7">
     <g id="line2d_13">
      <path d="M 326.651648 195.528177 
L 326.651648 27.094314 
" clip-path="url(#p2862f091d7)" style="fill: none; stroke: #b0b0b0; stroke-width: 0.1; stroke-linecap: round"/>
     </g>
     <g id="line2d_14"/>
     <g id="text_7">
      <!-- 30 -->
      <g style="fill: #262626" transform="translate(322.197898 204.347083) scale(0.07 -0.07)">
       <use xlink:href="#DejaVuSerif-33"/>
       <use xlink:href="#DejaVuSerif-30" x="63.623047"/>
      </g>
     </g>
    </g>
    <g id="xtick_8">
     <g id="line2d_15">
      <path d="M 370.053012 195.528177 
L 370.053012 27.094314 
" clip-path="url(#p2862f091d7)" style="fill: none; stroke: #b0b0b0; stroke-width: 0.1; stroke-linecap: round"/>
     </g>
     <g id="line2d_16"/>
     <g id="text_8">
      <!-- 40 -->
      <g style="fill: #262626" transform="translate(365.599262 204.347083) scale(0.07 -0.07)">
       <defs>
        <path id="DejaVuSerif-34" d="M 2234 1581 
L 2234 4063 
L 641 1581 
L 2234 1581 
z
M 3609 0 
L 1484 0 
L 1484 331 
L 2234 331 
L 2234 1247 
L 197 1247 
L 197 1588 
L 2241 4750 
L 2859 4750 
L 2859 1581 
L 3750 1581 
L 3750 1247 
L 2859 1247 
L 2859 331 
L 3609 331 
L 3609 0 
z
" transform="scale(0.015625)"/>
       </defs>
       <use xlink:href="#DejaVuSerif-34"/>
       <use xlink:href="#DejaVuSerif-30" x="63.623047"/>
      </g>
     </g>
    </g>
    <g id="text_9">
     <!-- $y_0$ $[m]$ -->
     <g style="fill: #262626" transform="translate(195.996828 214.362864) scale(0.06 -0.06)">
      <defs>
       <path id="DejaVuSans-Oblique-79" d="M 1588 -325 
Q 1188 -997 936 -1164 
Q 684 -1331 294 -1331 
L -159 -1331 
L -63 -850 
L 269 -850 
Q 509 -850 678 -719 
Q 847 -588 1056 -206 
L 1234 128 
L 459 3500 
L 1069 3500 
L 1650 819 
L 3256 3500 
L 3859 3500 
L 1588 -325 
z
" transform="scale(0.015625)"/>
       <path id="DejaVuSans-30" d="M 2034 4250 
Q 1547 4250 1301 3770 
Q 1056 3291 1056 2328 
Q 1056 1369 1301 889 
Q 1547 409 2034 409 
Q 2525 409 2770 889 
Q 3016 1369 3016 2328 
Q 3016 3291 2770 3770 
Q 2525 4250 2034 4250 
z
M 2034 4750 
Q 2819 4750 3233 4129 
Q 3647 3509 3647 2328 
Q 3647 1150 3233 529 
Q 2819 -91 2034 -91 
Q 1250 -91 836 529 
Q 422 1150 422 2328 
Q 422 3509 836 4129 
Q 1250 4750 2034 4750 
z
" transform="scale(0.015625)"/>
       <path id="DejaVuSerif-20" transform="scale(0.015625)"/>
       <path id="DejaVuSans-5b" d="M 550 4863 
L 1875 4863 
L 1875 4416 
L 1125 4416 
L 1125 -397 
L 1875 -397 
L 1875 -844 
L 550 -844 
L 550 4863 
z
" transform="scale(0.015625)"/>
       <path id="DejaVuSans-Oblique-6d" d="M 5747 2113 
L 5338 0 
L 4763 0 
L 5166 2094 
Q 5191 2228 5203 2325 
Q 5216 2422 5216 2491 
Q 5216 2772 5059 2928 
Q 4903 3084 4622 3084 
Q 4203 3084 3875 2770 
Q 3547 2456 3450 1953 
L 3066 0 
L 2491 0 
L 2900 2094 
Q 2925 2209 2937 2307 
Q 2950 2406 2950 2484 
Q 2950 2769 2794 2926 
Q 2638 3084 2363 3084 
Q 1938 3084 1609 2770 
Q 1281 2456 1184 1953 
L 800 0 
L 225 0 
L 909 3500 
L 1484 3500 
L 1375 2956 
Q 1609 3263 1923 3423 
Q 2238 3584 2597 3584 
Q 2978 3584 3223 3384 
Q 3469 3184 3519 2828 
Q 3781 3197 4126 3390 
Q 4472 3584 4856 3584 
Q 5306 3584 5551 3325 
Q 5797 3066 5797 2591 
Q 5797 2488 5784 2364 
Q 5772 2241 5747 2113 
z
" transform="scale(0.015625)"/>
       <path id="DejaVuSans-5d" d="M 1947 4863 
L 1947 -844 
L 622 -844 
L 622 -397 
L 1369 -397 
L 1369 4416 
L 622 4416 
L 622 4863 
L 1947 4863 
z
" transform="scale(0.015625)"/>
      </defs>
      <use xlink:href="#DejaVuSans-Oblique-79" transform="translate(0 0.015625)"/>
      <use xlink:href="#DejaVuSans-30" transform="translate(59.179688 -16.390625) scale(0.7)"/>
      <use xlink:href="#DejaVuSerif-20" transform="translate(106.450195 0.015625)"/>
      <use xlink:href="#DejaVuSans-5b" transform="translate(138.237305 0.015625)"/>
      <use xlink:href="#DejaVuSans-Oblique-6d" transform="translate(177.250977 0.015625)"/>
      <use xlink:href="#DejaVuSans-5d" transform="translate(274.663086 0.015625)"/>
     </g>
    </g>
   </g>
   <g id="matplotlib.axis_2">
    <g id="ytick_1">
     <g id="line2d_17">
      <path d="M 25.214615 176.990148 
L 385.61904 176.990148 
" clip-path="url(#p2862f091d7)" style="fill: none; stroke: #b0b0b0; stroke-width: 0.1; stroke-linecap: round"/>
     </g>
     <g id="line2d_18"/>
     <g id="text_10">
      <!-- 0 -->
      <g style="fill: #262626" transform="translate(17.260865 179.649601) scale(0.07 -0.07)">
       <use xlink:href="#DejaVuSerif-30"/>
      </g>
     </g>
    </g>
    <g id="ytick_2">
     <g id="line2d_19">
      <path d="M 25.214615 155.289466 
L 385.61904 155.289466 
" clip-path="url(#p2862f091d7)" style="fill: none; stroke: #b0b0b0; stroke-width: 0.1; stroke-linecap: round"/>
     </g>
     <g id="line2d_20"/>
     <g id="text_11">
      <!-- 5 -->
      <g style="fill: #262626" transform="translate(17.260865 157.948919) scale(0.07 -0.07)">
       <defs>
        <path id="DejaVuSerif-35" d="M 3219 4666 
L 3219 4153 
L 1081 4153 
L 1081 2816 
Q 1244 2928 1461 2984 
Q 1678 3041 1947 3041 
Q 2703 3041 3140 2622 
Q 3578 2203 3578 1478 
Q 3578 738 3136 323 
Q 2694 -91 1894 -91 
Q 1572 -91 1234 -12 
Q 897 66 544 225 
L 544 1131 
L 897 1131 
Q 925 688 1179 453 
Q 1434 219 1894 219 
Q 2388 219 2653 544 
Q 2919 869 2919 1478 
Q 2919 2084 2655 2407 
Q 2391 2731 1894 2731 
Q 1613 2731 1398 2631 
Q 1184 2531 1019 2322 
L 750 2322 
L 750 4666 
L 3219 4666 
z
" transform="scale(0.015625)"/>
       </defs>
       <use xlink:href="#DejaVuSerif-35"/>
      </g>
     </g>
    </g>
    <g id="ytick_3">
     <g id="line2d_21">
      <path d="M 25.214615 133.588784 
L 385.61904 133.588784 
" clip-path="url(#p2862f091d7)" style="fill: none; stroke: #b0b0b0; stroke-width: 0.1; stroke-linecap: round"/>
     </g>
     <g id="line2d_22"/>
     <g id="text_12">
      <!-- 10 -->
      <g style="fill: #262626" transform="translate(12.807115 136.248237) scale(0.07 -0.07)">
       <use xlink:href="#DejaVuSerif-31"/>
       <use xlink:href="#DejaVuSerif-30" x="63.623047"/>
      </g>
     </g>
    </g>
    <g id="ytick_4">
     <g id="line2d_23">
      <path d="M 25.214615 111.888102 
L 385.61904 111.888102 
" clip-path="url(#p2862f091d7)" style="fill: none; stroke: #b0b0b0; stroke-width: 0.1; stroke-linecap: round"/>
     </g>
     <g id="line2d_24"/>
     <g id="text_13">
      <!-- 15 -->
      <g style="fill: #262626" transform="translate(12.807115 114.547555) scale(0.07 -0.07)">
       <use xlink:href="#DejaVuSerif-31"/>
       <use xlink:href="#DejaVuSerif-35" x="63.623047"/>
      </g>
     </g>
    </g>
    <g id="ytick_5">
     <g id="line2d_25">
      <path d="M 25.214615 90.18742 
L 385.61904 90.18742 
" clip-path="url(#p2862f091d7)" style="fill: none; stroke: #b0b0b0; stroke-width: 0.1; stroke-linecap: round"/>
     </g>
     <g id="line2d_26"/>
     <g id="text_14">
      <!-- 20 -->
      <g style="fill: #262626" transform="translate(12.807115 92.846873) scale(0.07 -0.07)">
       <use xlink:href="#DejaVuSerif-32"/>
       <use xlink:href="#DejaVuSerif-30" x="63.623047"/>
      </g>
     </g>
    </g>
    <g id="ytick_6">
     <g id="line2d_27">
      <path d="M 25.214615 68.486738 
L 385.61904 68.486738 
" clip-path="url(#p2862f091d7)" style="fill: none; stroke: #b0b0b0; stroke-width: 0.1; stroke-linecap: round"/>
     </g>
     <g id="line2d_28"/>
     <g id="text_15">
      <!-- 25 -->
      <g style="fill: #262626" transform="translate(12.807115 71.146191) scale(0.07 -0.07)">
       <use xlink:href="#DejaVuSerif-32"/>
       <use xlink:href="#DejaVuSerif-35" x="63.623047"/>
      </g>
     </g>
    </g>
    <g id="ytick_7">
     <g id="line2d_29">
      <path d="M 25.214615 46.786055 
L 385.61904 46.786055 
" clip-path="url(#p2862f091d7)" style="fill: none; stroke: #b0b0b0; stroke-width: 0.1; stroke-linecap: round"/>
     </g>
     <g id="line2d_30"/>
     <g id="text_16">
      <!-- 30 -->
      <g style="fill: #262626" transform="translate(12.807115 49.445509) scale(0.07 -0.07)">
       <use xlink:href="#DejaVuSerif-33"/>
       <use xlink:href="#DejaVuSerif-30" x="63.623047"/>
      </g>
     </g>
    </g>
    <g id="text_17">
     <!-- $x_0$ $[m]$ -->
     <g style="fill: #262626" transform="translate(7.559302 120.731245) rotate(-90) scale(0.06 -0.06)">
      <defs>
       <path id="DejaVuSans-Oblique-78" d="M 3841 3500 
L 2234 1784 
L 3219 0 
L 2559 0 
L 1819 1388 
L 531 0 
L -166 0 
L 1556 1844 
L 641 3500 
L 1300 3500 
L 1972 2234 
L 3144 3500 
L 3841 3500 
z
" transform="scale(0.015625)"/>
      </defs>
      <use xlink:href="#DejaVuSans-Oblique-78" transform="translate(0 0.015625)"/>
      <use xlink:href="#DejaVuSans-30" transform="translate(59.179688 -16.390625) scale(0.7)"/>
      <use xlink:href="#DejaVuSerif-20" transform="translate(106.450195 0.015625)"/>
      <use xlink:href="#DejaVuSans-5b" transform="translate(138.237305 0.015625)"/>
      <use xlink:href="#DejaVuSans-Oblique-6d" transform="translate(177.250977 0.015625)"/>
      <use xlink:href="#DejaVuSans-5d" transform="translate(274.663086 0.015625)"/>
     </g>
    </g>
   </g>
   <g id="line2d_31">
    <path d="M 196.447556 176.990148 
L 196.557011 159.024981 
L 196.917589 154.845338 
L 197.462991 151.066449 
L 198.174894 147.647744 
L 199.056673 144.504837 
L 200.187759 141.312485 
L 201.703215 137.738659 
L 204.330572 132.198781 
L 207.603377 125.187655 
L 209.337572 120.932514 
L 210.643284 117.144236 
L 211.631822 113.604099 
L 212.357299 110.192172 
L 212.84139 106.852977 
L 213.089477 103.600652 
L 213.110321 100.41749 
L 212.910952 97.319471 
L 212.500113 94.351021 
L 211.885295 91.548641 
L 211.034506 88.725002 
L 209.875581 85.675606 
L 208.159507 81.822028 
L 202.108328 68.686541 
L 200.7281 64.901024 
L 199.686956 61.405219 
L 198.914161 58.036808 
L 198.392627 54.782419 
L 198.104312 51.594309 
L 198.043668 48.457065 
L 198.207175 45.390442 
L 198.246417 44.978937 
L 198.246417 44.978937 
" clip-path="url(#p2862f091d7)" style="fill: none; stroke: #ff0000; stroke-width: 0.4; stroke-linecap: round"/>
   </g>
   <g id="line2d_32">
    <path d="M 196.447556 176.990148 
L 196.557338 159.266316 
L 196.923153 155.272783 
L 197.482314 151.594817 
L 198.194365 148.346124 
L 199.100475 145.262075 
L 200.286028 142.033604 
L 201.985331 138.10373 
L 207.376534 126.005011 
L 208.734954 122.202177 
L 209.752006 118.705853 
L 210.504492 115.328741 
L 211.007938 112.053574 
L 211.27967 108.826623 
L 211.323372 105.663993 
L 211.143586 102.547772 
L 210.754725 99.591651 
L 210.168894 96.835494 
L 209.338652 94.005066 
L 208.174635 90.8545 
L 206.290335 86.459595 
L 202.591816 77.911573 
L 201.224138 74.115333 
L 200.22095 70.687512 
L 199.491045 67.407211 
L 199.011351 64.232714 
L 198.767123 61.124005 
L 198.75055 58.068765 
L 198.932336 55.299191 
L 198.932336 55.299191 
" clip-path="url(#p2862f091d7)" style="fill: none; stroke: #0000ff; stroke-width: 0.4; stroke-linecap: round"/>
   </g>
   <g id="patch_3">
    <path d="M 25.214615 195.528177 
L 25.214615 27.094314 
" style="fill: none; stroke: #000000; stroke-linejoin: miter; stroke-linecap: square"/>
   </g>
   <g id="patch_4">
    <path d="M 25.214615 195.528177 
L 385.61904 195.528177 
" style="fill: none; stroke: #000000; stroke-linejoin: miter; stroke-linecap: square"/>
   </g>
   <g id="text_18">
    <!-- Track plot -->
    <g style="fill: #262626" transform="translate(187.255656 21.094314) scale(0.07 -0.07)">
     <defs>
      <path id="DejaVuSerif-54" d="M 1222 0 
L 1222 331 
L 1819 331 
L 1819 4294 
L 447 4294 
L 447 3566 
L 63 3566 
L 63 4666 
L 4206 4666 
L 4206 3566 
L 3822 3566 
L 3822 4294 
L 2450 4294 
L 2450 331 
L 3047 331 
L 3047 0 
L 1222 0 
z
" transform="scale(0.015625)"/>
      <path id="DejaVuSerif-72" d="M 3059 3328 
L 3059 2497 
L 2728 2497 
Q 2713 2744 2591 2866 
Q 2469 2988 2234 2988 
Q 1809 2988 1582 2694 
Q 1356 2400 1356 1850 
L 1356 331 
L 2022 331 
L 2022 0 
L 263 0 
L 263 331 
L 781 331 
L 781 2994 
L 231 2994 
L 231 3322 
L 1356 3322 
L 1356 2731 
Q 1525 3078 1790 3245 
Q 2056 3413 2438 3413 
Q 2578 3413 2733 3391 
Q 2888 3369 3059 3328 
z
" transform="scale(0.015625)"/>
      <path id="DejaVuSerif-61" d="M 2547 1044 
L 2547 1747 
L 1806 1747 
Q 1378 1747 1168 1562 
Q 959 1378 959 997 
Q 959 650 1171 447 
Q 1384 244 1747 244 
Q 2106 244 2326 466 
Q 2547 688 2547 1044 
z
M 3122 2075 
L 3122 331 
L 3634 331 
L 3634 0 
L 2547 0 
L 2547 359 
Q 2356 128 2106 18 
Q 1856 -91 1522 -91 
Q 969 -91 644 203 
Q 319 497 319 997 
Q 319 1513 691 1797 
Q 1063 2081 1741 2081 
L 2547 2081 
L 2547 2309 
Q 2547 2688 2317 2895 
Q 2088 3103 1672 3103 
Q 1328 3103 1125 2947 
Q 922 2791 872 2484 
L 575 2484 
L 575 3156 
Q 875 3284 1158 3348 
Q 1441 3413 1709 3413 
Q 2400 3413 2761 3070 
Q 3122 2728 3122 2075 
z
" transform="scale(0.015625)"/>
      <path id="DejaVuSerif-63" d="M 3291 997 
Q 3169 466 2822 187 
Q 2475 -91 1925 -91 
Q 1200 -91 759 389 
Q 319 869 319 1663 
Q 319 2459 759 2936 
Q 1200 3413 1925 3413 
Q 2241 3413 2553 3339 
Q 2866 3266 3181 3116 
L 3181 2266 
L 2847 2266 
Q 2781 2703 2561 2903 
Q 2341 3103 1931 3103 
Q 1466 3103 1228 2742 
Q 991 2381 991 1663 
Q 991 944 1227 581 
Q 1463 219 1931 219 
Q 2303 219 2525 412 
Q 2747 606 2828 997 
L 3291 997 
z
" transform="scale(0.015625)"/>
      <path id="DejaVuSerif-6b" d="M 1831 0 
L 219 0 
L 219 331 
L 738 331 
L 738 4531 
L 184 4531 
L 184 4863 
L 1313 4863 
L 1313 1697 
L 2713 2988 
L 2234 2988 
L 2234 3322 
L 3738 3322 
L 3738 2988 
L 3169 2988 
L 2181 2075 
L 3444 331 
L 3922 331 
L 3922 0 
L 2284 0 
L 2284 331 
L 2759 331 
L 1766 1697 
L 1313 1275 
L 1313 331 
L 1831 331 
L 1831 0 
z
" transform="scale(0.015625)"/>
      <path id="DejaVuSerif-70" d="M 1313 1825 
L 1313 1497 
Q 1313 897 1542 583 
Q 1772 269 2209 269 
Q 2650 269 2876 622 
Q 3103 975 3103 1663 
Q 3103 2353 2876 2703 
Q 2650 3053 2209 3053 
Q 1772 3053 1542 2737 
Q 1313 2422 1313 1825 
z
M 738 2988 
L 184 2988 
L 184 3322 
L 1313 3322 
L 1313 2803 
Q 1481 3116 1742 3264 
Q 2003 3413 2388 3413 
Q 3000 3413 3387 2928 
Q 3775 2444 3775 1663 
Q 3775 881 3387 395 
Q 3000 -91 2388 -91 
Q 2003 -91 1742 57 
Q 1481 206 1313 519 
L 1313 -997 
L 1856 -997 
L 1856 -1331 
L 184 -1331 
L 184 -997 
L 738 -997 
L 738 2988 
z
" transform="scale(0.015625)"/>
      <path id="DejaVuSerif-6c" d="M 1313 331 
L 1856 331 
L 1856 0 
L 184 0 
L 184 331 
L 738 331 
L 738 4531 
L 184 4531 
L 184 4863 
L 1313 4863 
L 1313 331 
z
" transform="scale(0.015625)"/>
      <path id="DejaVuSerif-6f" d="M 1925 219 
Q 2388 219 2623 584 
Q 2859 950 2859 1663 
Q 2859 2375 2623 2739 
Q 2388 3103 1925 3103 
Q 1463 3103 1227 2739 
Q 991 2375 991 1663 
Q 991 950 1228 584 
Q 1466 219 1925 219 
z
M 1925 -91 
Q 1200 -91 759 389 
Q 319 869 319 1663 
Q 319 2456 758 2934 
Q 1197 3413 1925 3413 
Q 2653 3413 3092 2934 
Q 3531 2456 3531 1663 
Q 3531 869 3092 389 
Q 2653 -91 1925 -91 
z
" transform="scale(0.015625)"/>
      <path id="DejaVuSerif-74" d="M 691 2988 
L 184 2988 
L 184 3322 
L 691 3322 
L 691 4353 
L 1269 4353 
L 1269 3322 
L 2350 3322 
L 2350 2988 
L 1269 2988 
L 1269 878 
Q 1269 456 1350 337 
Q 1431 219 1650 219 
Q 1875 219 1978 351 
Q 2081 484 2088 781 
L 2522 781 
Q 2497 328 2275 118 
Q 2053 -91 1600 -91 
Q 1103 -91 897 129 
Q 691 350 691 878 
L 691 2988 
z
" transform="scale(0.015625)"/>
     </defs>
     <use xlink:href="#DejaVuSerif-54"/>
     <use xlink:href="#DejaVuSerif-72" x="66.699219"/>
     <use xlink:href="#DejaVuSerif-61" x="114.501953"/>
     <use xlink:href="#DejaVuSerif-63" x="174.121094"/>
     <use xlink:href="#DejaVuSerif-6b" x="230.126953"/>
     <use xlink:href="#DejaVuSerif-20" x="290.722656"/>
     <use xlink:href="#DejaVuSerif-70" x="322.509766"/>
     <use xlink:href="#DejaVuSerif-6c" x="386.523438"/>
     <use xlink:href="#DejaVuSerif-6f" x="418.505859"/>
     <use xlink:href="#DejaVuSerif-74" x="478.710938"/>
    </g>
   </g>
   <g id="legend_1">
    <g id="line2d_33">
     <path d="M 280.792946 36.26322 
L 287.792946 36.26322 
L 294.792946 36.26322 
" style="fill: none; stroke: #000000; stroke-width: 0.7; stroke-linecap: round"/>
    </g>
    <g id="text_19">
     <!-- experiment -->
     <g style="fill: #262626" transform="translate(300.392946 38.71322) scale(0.07 -0.07)">
      <defs>
       <path id="DejaVuSerif-65" d="M 3469 1600 
L 991 1600 
L 991 1575 
Q 991 903 1244 561 
Q 1497 219 1991 219 
Q 2369 219 2611 417 
Q 2853 616 2950 1006 
L 3413 1006 
Q 3275 459 2904 184 
Q 2534 -91 1931 -91 
Q 1203 -91 761 389 
Q 319 869 319 1663 
Q 319 2450 753 2931 
Q 1188 3413 1894 3413 
Q 2647 3413 3050 2948 
Q 3453 2484 3469 1600 
z
M 2791 1931 
Q 2772 2513 2545 2808 
Q 2319 3103 1894 3103 
Q 1497 3103 1269 2806 
Q 1041 2509 991 1931 
L 2791 1931 
z
" transform="scale(0.015625)"/>
       <path id="DejaVuSerif-78" d="M 1863 2028 
L 2559 2988 
L 2113 2988 
L 2113 3322 
L 3391 3322 
L 3391 2988 
L 2950 2988 
L 2059 1759 
L 3097 331 
L 3531 331 
L 3531 0 
L 1997 0 
L 1997 331 
L 2419 331 
L 1697 1325 
L 972 331 
L 1403 331 
L 1403 0 
L 141 0 
L 141 331 
L 581 331 
L 1497 1594 
L 488 2988 
L 78 2988 
L 78 3322 
L 1563 3322 
L 1563 2988 
L 1166 2988 
L 1863 2028 
z
" transform="scale(0.015625)"/>
       <path id="DejaVuSerif-69" d="M 622 4353 
Q 622 4497 726 4603 
Q 831 4709 978 4709 
Q 1122 4709 1226 4603 
Q 1331 4497 1331 4353 
Q 1331 4206 1228 4103 
Q 1125 4000 978 4000 
Q 831 4000 726 4103 
Q 622 4206 622 4353 
z
M 1356 331 
L 1900 331 
L 1900 0 
L 231 0 
L 231 331 
L 781 331 
L 781 2988 
L 231 2988 
L 231 3322 
L 1356 3322 
L 1356 331 
z
" transform="scale(0.015625)"/>
       <path id="DejaVuSerif-6d" d="M 3316 2675 
Q 3481 3041 3739 3227 
Q 3997 3413 4341 3413 
Q 4863 3413 5119 3089 
Q 5375 2766 5375 2113 
L 5375 331 
L 5894 331 
L 5894 0 
L 4300 0 
L 4300 331 
L 4800 331 
L 4800 2047 
Q 4800 2556 4650 2772 
Q 4500 2988 4153 2988 
Q 3769 2988 3567 2697 
Q 3366 2406 3366 1850 
L 3366 331 
L 3866 331 
L 3866 0 
L 2291 0 
L 2291 331 
L 2791 331 
L 2791 2069 
Q 2791 2566 2641 2777 
Q 2491 2988 2144 2988 
Q 1759 2988 1557 2697 
Q 1356 2406 1356 1850 
L 1356 331 
L 1856 331 
L 1856 0 
L 263 0 
L 263 331 
L 781 331 
L 781 2994 
L 231 2994 
L 231 3322 
L 1356 3322 
L 1356 2731 
Q 1516 3063 1762 3238 
Q 2009 3413 2322 3413 
Q 2709 3413 2968 3220 
Q 3228 3028 3316 2675 
z
" transform="scale(0.015625)"/>
       <path id="DejaVuSerif-6e" d="M 263 0 
L 263 331 
L 781 331 
L 781 2988 
L 231 2988 
L 231 3322 
L 1356 3322 
L 1356 2731 
Q 1516 3069 1770 3241 
Q 2025 3413 2363 3413 
Q 2913 3413 3172 3097 
Q 3431 2781 3431 2113 
L 3431 331 
L 3944 331 
L 3944 0 
L 2356 0 
L 2356 331 
L 2853 331 
L 2853 1931 
Q 2853 2541 2703 2767 
Q 2553 2994 2175 2994 
Q 1775 2994 1565 2701 
Q 1356 2409 1356 1850 
L 1356 331 
L 1856 331 
L 1856 0 
L 263 0 
z
" transform="scale(0.015625)"/>
      </defs>
      <use xlink:href="#DejaVuSerif-65"/>
      <use xlink:href="#DejaVuSerif-78" x="59.179688"/>
      <use xlink:href="#DejaVuSerif-70" x="115.576172"/>
      <use xlink:href="#DejaVuSerif-65" x="179.589844"/>
      <use xlink:href="#DejaVuSerif-72" x="238.769531"/>
      <use xlink:href="#DejaVuSerif-69" x="286.572266"/>
      <use xlink:href="#DejaVuSerif-6d" x="318.554688"/>
      <use xlink:href="#DejaVuSerif-65" x="413.378906"/>
      <use xlink:href="#DejaVuSerif-6e" x="472.558594"/>
      <use xlink:href="#DejaVuSerif-74" x="536.962891"/>
     </g>
    </g>
    <g id="line2d_34">
     <path d="M 280.792946 46.537907 
L 287.792946 46.537907 
L 294.792946 46.537907 
" style="fill: none; stroke: #ff0000; stroke-width: 0.4; stroke-linecap: round"/>
    </g>
    <g id="text_20">
     <!-- polynomial rudder -->
     <g style="fill: #262626" transform="translate(300.392946 48.987907) scale(0.07 -0.07)">
      <defs>
       <path id="DejaVuSerif-79" d="M 1381 -609 
L 1600 -56 
L 359 2988 
L -19 2988 
L -19 3322 
L 1509 3322 
L 1509 2988 
L 978 2988 
L 1913 703 
L 2847 2988 
L 2350 2988 
L 2350 3322 
L 3597 3322 
L 3597 2988 
L 3225 2988 
L 1703 -750 
Q 1547 -1138 1356 -1280 
Q 1166 -1422 819 -1422 
Q 672 -1422 517 -1397 
Q 363 -1372 206 -1325 
L 206 -691 
L 500 -691 
Q 519 -903 608 -995 
Q 697 -1088 884 -1088 
Q 1056 -1088 1161 -992 
Q 1266 -897 1381 -609 
z
" transform="scale(0.015625)"/>
       <path id="DejaVuSerif-75" d="M 2266 3322 
L 3341 3322 
L 3341 331 
L 3884 331 
L 3884 0 
L 2766 0 
L 2766 588 
Q 2606 256 2353 82 
Q 2100 -91 1766 -91 
Q 1213 -91 952 223 
Q 691 538 691 1209 
L 691 2988 
L 172 2988 
L 172 3322 
L 1269 3322 
L 1269 1388 
Q 1269 781 1417 556 
Q 1566 331 1947 331 
Q 2347 331 2556 625 
Q 2766 919 2766 1478 
L 2766 2988 
L 2266 2988 
L 2266 3322 
z
" transform="scale(0.015625)"/>
       <path id="DejaVuSerif-64" d="M 3359 331 
L 3909 331 
L 3909 0 
L 2784 0 
L 2784 519 
Q 2616 206 2355 57 
Q 2094 -91 1709 -91 
Q 1097 -91 708 395 
Q 319 881 319 1663 
Q 319 2444 706 2928 
Q 1094 3413 1709 3413 
Q 2094 3413 2355 3264 
Q 2616 3116 2784 2803 
L 2784 4531 
L 2241 4531 
L 2241 4863 
L 3359 4863 
L 3359 331 
z
M 2784 1497 
L 2784 1825 
Q 2784 2422 2554 2737 
Q 2325 3053 1888 3053 
Q 1444 3053 1217 2703 
Q 991 2353 991 1663 
Q 991 975 1217 622 
Q 1444 269 1888 269 
Q 2325 269 2554 583 
Q 2784 897 2784 1497 
z
" transform="scale(0.015625)"/>
      </defs>
      <use xlink:href="#DejaVuSerif-70"/>
      <use xlink:href="#DejaVuSerif-6f" x="64.013672"/>
      <use xlink:href="#DejaVuSerif-6c" x="124.21875"/>
      <use xlink:href="#DejaVuSerif-79" x="156.201172"/>
      <use xlink:href="#DejaVuSerif-6e" x="212.695312"/>
      <use xlink:href="#DejaVuSerif-6f" x="277.099609"/>
      <use xlink:href="#DejaVuSerif-6d" x="337.304688"/>
      <use xlink:href="#DejaVuSerif-69" x="432.128906"/>
      <use xlink:href="#DejaVuSerif-61" x="464.111328"/>
      <use xlink:href="#DejaVuSerif-6c" x="523.730469"/>
      <use xlink:href="#DejaVuSerif-20" x="555.712891"/>
      <use xlink:href="#DejaVuSerif-72" x="587.5"/>
      <use xlink:href="#DejaVuSerif-75" x="635.302734"/>
      <use xlink:href="#DejaVuSerif-64" x="699.707031"/>
      <use xlink:href="#DejaVuSerif-64" x="763.720703"/>
      <use xlink:href="#DejaVuSerif-65" x="827.734375"/>
      <use xlink:href="#DejaVuSerif-72" x="886.914062"/>
     </g>
    </g>
    <g id="line2d_35">
     <path d="M 280.792946 56.912126 
L 287.792946 56.912126 
L 294.792946 56.912126 
" style="fill: none; stroke: #0000ff; stroke-width: 0.4; stroke-linecap: round"/>
    </g>
    <g id="text_21">
     <!-- semi-empirical rudder -->
     <g style="fill: #262626" transform="translate(300.392946 59.362126) scale(0.07 -0.07)">
      <defs>
       <path id="DejaVuSerif-73" d="M 359 184 
L 359 959 
L 691 959 
Q 703 588 923 403 
Q 1144 219 1575 219 
Q 1963 219 2166 364 
Q 2369 509 2369 788 
Q 2369 1006 2220 1140 
Q 2072 1275 1594 1428 
L 1178 1569 
Q 750 1706 558 1912 
Q 366 2119 366 2438 
Q 366 2894 700 3153 
Q 1034 3413 1625 3413 
Q 1888 3413 2178 3344 
Q 2469 3275 2778 3144 
L 2778 2419 
L 2447 2419 
Q 2434 2741 2221 2922 
Q 2009 3103 1644 3103 
Q 1281 3103 1095 2975 
Q 909 2847 909 2591 
Q 909 2381 1050 2254 
Q 1191 2128 1613 1997 
L 2069 1856 
Q 2541 1709 2748 1489 
Q 2956 1269 2956 922 
Q 2956 450 2595 179 
Q 2234 -91 1600 -91 
Q 1278 -91 972 -22 
Q 666 47 359 184 
z
" transform="scale(0.015625)"/>
       <path id="DejaVuSerif-2d" d="M 281 1959 
L 1881 1959 
L 1881 1472 
L 281 1472 
L 281 1959 
z
" transform="scale(0.015625)"/>
      </defs>
      <use xlink:href="#DejaVuSerif-73"/>
      <use xlink:href="#DejaVuSerif-65" x="51.318359"/>
      <use xlink:href="#DejaVuSerif-6d" x="110.498047"/>
      <use xlink:href="#DejaVuSerif-69" x="205.322266"/>
      <use xlink:href="#DejaVuSerif-2d" x="237.304688"/>
      <use xlink:href="#DejaVuSerif-65" x="271.09375"/>
      <use xlink:href="#DejaVuSerif-6d" x="330.273438"/>
      <use xlink:href="#DejaVuSerif-70" x="425.097656"/>
      <use xlink:href="#DejaVuSerif-69" x="489.111328"/>
      <use xlink:href="#DejaVuSerif-72" x="521.09375"/>
      <use xlink:href="#DejaVuSerif-69" x="568.896484"/>
      <use xlink:href="#DejaVuSerif-63" x="600.878906"/>
      <use xlink:href="#DejaVuSerif-61" x="656.884766"/>
      <use xlink:href="#DejaVuSerif-6c" x="716.503906"/>
      <use xlink:href="#DejaVuSerif-20" x="748.486328"/>
      <use xlink:href="#DejaVuSerif-72" x="780.273438"/>
      <use xlink:href="#DejaVuSerif-75" x="828.076172"/>
      <use xlink:href="#DejaVuSerif-64" x="892.480469"/>
      <use xlink:href="#DejaVuSerif-64" x="956.494141"/>
      <use xlink:href="#DejaVuSerif-65" x="1020.507812"/>
      <use xlink:href="#DejaVuSerif-72" x="1079.6875"/>
     </g>
    </g>
   </g>
   <g id="line2d_36">
    <path d="M 196.432009 161.245396 
L 195.406048 162.334659 
L 194.893634 163.423388 
L 194.382354 165.600311 
L 194.398224 180.835024 
L 194.553422 181.923057 
L 194.914039 183.010877 
L 197.995324 183.007667 
L 198.353673 181.919098 
L 198.506604 180.830744 
L 198.490733 165.596031 
L 197.974918 163.420178 
L 197.460237 162.332519 
L 196.432009 161.245396 
" clip-path="url(#p2862f091d7)" style="fill: none; stroke: #0000ff; stroke-opacity: 0.2; stroke-width: 0.4; stroke-linecap: round"/>
   </g>
   <g id="patch_5">
    <path d="M 196.432009 161.245396 
L 195.406048 162.334659 
L 194.893634 163.423388 
L 194.382354 165.600311 
L 194.398224 180.835024 
L 194.553422 181.923057 
L 194.914039 183.010877 
L 197.995324 183.007667 
L 198.353673 181.919098 
L 198.506604 180.830744 
L 198.490733 165.596031 
L 197.974918 163.420178 
L 197.460237 162.332519 
z
" clip-path="url(#p2862f091d7)" style="fill: #0000ff; opacity: 0.2"/>
   </g>
   <g id="line2d_37">
    <path d="M 204.023545 126.882516 
L 202.621155 127.40443 
L 201.679387 128.15341 
L 200.256472 129.878435 
L 193.520417 143.543072 
L 193.177456 144.587237 
L 193.018745 145.722229 
L 195.782475 147.084624 
L 196.586057 146.267525 
L 197.20539 145.359599 
L 203.941445 131.694962 
L 204.443117 129.515805 
L 204.463642 128.312694 
L 204.023545 126.882516 
" clip-path="url(#p2862f091d7)" style="fill: none; stroke: #0000ff; stroke-opacity: 0.2; stroke-width: 0.4; stroke-linecap: round"/>
   </g>
   <g id="patch_6">
    <path d="M 204.023545 126.882516 
L 202.621155 127.40443 
L 201.679387 128.15341 
L 200.256472 129.878435 
L 193.520417 143.543072 
L 193.177456 144.587237 
L 193.018745 145.722229 
L 195.782475 147.084624 
L 196.586057 146.267525 
L 197.20539 145.359599 
L 203.941445 131.694962 
L 204.443117 129.515805 
L 204.463642 128.312694 
z
" clip-path="url(#p2862f091d7)" style="fill: #0000ff; opacity: 0.2"/>
   </g>
   <g id="line2d_38">
    <path d="M 211.716474 94.662858 
L 210.59936 95.658422 
L 209.99388 96.698274 
L 209.294555 98.822267 
L 207.980721 114.00023 
L 208.040366 115.097657 
L 208.304665 116.212799 
L 211.374472 116.478527 
L 211.826461 115.425389 
L 212.073797 114.354535 
L 213.387631 99.176571 
L 213.063687 96.964003 
L 212.645898 95.835574 
L 211.716474 94.662858 
" clip-path="url(#p2862f091d7)" style="fill: none; stroke: #0000ff; stroke-opacity: 0.2; stroke-width: 0.4; stroke-linecap: round"/>
   </g>
   <g id="patch_7">
    <path d="M 211.716474 94.662858 
L 210.59936 95.658422 
L 209.99388 96.698274 
L 209.294555 98.822267 
L 207.980721 114.00023 
L 208.040366 115.097657 
L 208.304665 116.212799 
L 211.374472 116.478527 
L 211.826461 115.425389 
L 212.073797 114.354535 
L 213.387631 99.176571 
L 213.063687 96.964003 
L 212.645898 95.835574 
z
" clip-path="url(#p2862f091d7)" style="fill: #0000ff; opacity: 0.2"/>
   </g>
   <g id="line2d_39">
    <path d="M 205.924906 64.864607 
L 205.484733 66.294761 
L 205.505194 67.497874 
L 206.006749 69.677057 
L 212.742075 83.342054 
L 213.36136 84.250013 
L 214.164898 85.067155 
L 216.928701 83.704907 
L 216.77005 82.569907 
L 216.427145 81.525724 
L 209.69182 67.860727 
L 208.268997 66.135626 
L 207.327268 65.386596 
L 205.924906 64.864607 
" clip-path="url(#p2862f091d7)" style="fill: none; stroke: #0000ff; stroke-opacity: 0.2; stroke-width: 0.4; stroke-linecap: round"/>
   </g>
   <g id="patch_8">
    <path d="M 205.924906 64.864607 
L 205.484733 66.294761 
L 205.505194 67.497874 
L 206.006749 69.677057 
L 212.742075 83.342054 
L 213.36136 84.250013 
L 214.164898 85.067155 
L 216.928701 83.704907 
L 216.77005 82.569907 
L 216.427145 81.525724 
L 209.69182 67.860727 
L 208.268997 66.135626 
L 207.327268 65.386596 
z
" clip-path="url(#p2862f091d7)" style="fill: #0000ff; opacity: 0.2"/>
   </g>
   <g id="line2d_40">
    <path d="M 199.556089 35.291775 
L 198.628438 36.465894 
L 198.212353 37.594952 
L 197.891751 39.808007 
L 199.228507 54.983969 
L 199.47746 56.054448 
L 199.931039 57.106903 
L 203.000441 56.836539 
L 203.263055 55.720999 
L 203.321043 54.623483 
L 201.984287 39.447521 
L 201.281755 37.324588 
L 200.674705 36.285651 
L 199.556089 35.291775 
" clip-path="url(#p2862f091d7)" style="fill: none; stroke: #ff0000; stroke-opacity: 0.2; stroke-width: 0.4; stroke-linecap: round"/>
   </g>
   <g id="patch_9">
    <path d="M 199.556089 35.291775 
L 198.628438 36.465894 
L 198.212353 37.594952 
L 197.891751 39.808007 
L 199.228507 54.983969 
L 199.47746 56.054448 
L 199.931039 57.106903 
L 203.000441 56.836539 
L 203.263055 55.720999 
L 203.321043 54.623483 
L 201.984287 39.447521 
L 201.281755 37.324588 
L 200.674705 36.285651 
z
" clip-path="url(#p2862f091d7)" style="fill: #ff0000; opacity: 0.2"/>
   </g>
   <g id="line2d_41">
    <path d="M 196.447556 166.108204 
L 195.42046 167.196398 
L 194.906912 168.284593 
L 194.393365 170.460981 
L 194.393365 185.695703 
L 194.547429 186.783897 
L 194.906912 187.872092 
L 197.988199 187.872092 
L 198.347682 186.783897 
L 198.501746 185.695703 
L 198.501746 170.460981 
L 197.988199 168.284593 
L 197.474651 167.196398 
L 196.447556 166.108204 
" clip-path="url(#p2862f091d7)" style="fill: none; stroke: #0000ff; stroke-opacity: 0.2; stroke-width: 0.4; stroke-linecap: round"/>
   </g>
   <g id="patch_10">
    <path d="M 196.447556 166.108204 
L 195.42046 167.196398 
L 194.906912 168.284593 
L 194.393365 170.460981 
L 194.393365 185.695703 
L 194.547429 186.783897 
L 194.906912 187.872092 
L 197.988199 187.872092 
L 198.347682 186.783897 
L 198.501746 185.695703 
L 198.501746 170.460981 
L 197.988199 168.284593 
L 197.474651 167.196398 
z
" clip-path="url(#p2862f091d7)" style="fill: #0000ff; opacity: 0.2"/>
   </g>
   <g id="line2d_42">
    <path d="M 203.256023 136.441528 
L 201.858745 136.976978 
L 200.924263 137.735029 
L 199.518094 139.473732 
L 192.914485 153.202865 
L 192.581637 154.250297 
L 192.433908 155.386771 
L 195.210682 156.722378 
L 196.006325 155.897547 
L 196.616851 154.983675 
L 203.22046 141.254542 
L 203.701037 139.070636 
L 203.709928 137.867383 
L 203.256023 136.441528 
" clip-path="url(#p2862f091d7)" style="fill: none; stroke: #0000ff; stroke-opacity: 0.2; stroke-width: 0.4; stroke-linecap: round"/>
   </g>
   <g id="patch_11">
    <path d="M 203.256023 136.441528 
L 201.858745 136.976978 
L 200.924263 137.735029 
L 199.518094 139.473732 
L 192.914485 153.202865 
L 192.581637 154.250297 
L 192.433908 155.386771 
L 195.210682 156.722378 
L 196.006325 155.897547 
L 196.616851 154.983675 
L 203.22046 141.254542 
L 203.701037 139.070636 
L 203.709928 137.867383 
z
" clip-path="url(#p2862f091d7)" style="fill: #0000ff; opacity: 0.2"/>
   </g>
   <g id="line2d_43">
    <path d="M 212.031074 109.196126 
L 210.797971 110.043799 
L 210.066915 110.999548 
L 209.10685 113.01912 
L 205.900719 127.912658 
L 205.822324 129.008905 
L 205.944748 130.148382 
L 208.957028 130.796835 
L 209.53747 129.808664 
L 209.917093 128.777262 
L 213.123223 113.883725 
L 213.079195 111.648001 
L 212.806158 110.476101 
L 212.031074 109.196126 
" clip-path="url(#p2862f091d7)" style="fill: none; stroke: #0000ff; stroke-opacity: 0.2; stroke-width: 0.4; stroke-linecap: round"/>
   </g>
   <g id="patch_12">
    <path d="M 212.031074 109.196126 
L 210.797971 110.043799 
L 210.066915 110.999548 
L 209.10685 113.01912 
L 205.900719 127.912658 
L 205.822324 129.008905 
L 205.944748 130.148382 
L 208.957028 130.796835 
L 209.53747 129.808664 
L 209.917093 128.777262 
L 213.123223 113.883725 
L 213.079195 111.648001 
L 212.806158 110.476101 
z
" clip-path="url(#p2862f091d7)" style="fill: #0000ff; opacity: 0.2"/>
   </g>
   <g id="line2d_44">
    <path d="M 207.614509 83.561072 
L 207.15783 84.986041 
L 207.16438 86.18931 
L 207.640708 88.374147 
L 214.217596 102.1161 
L 214.826343 103.031158 
L 215.62038 103.857536 
L 218.399747 102.527332 
L 218.254229 101.390574 
L 217.92342 100.342496 
L 211.346531 86.600542 
L 209.943748 84.859107 
L 209.010742 84.099239 
L 207.614509 83.561072 
" clip-path="url(#p2862f091d7)" style="fill: none; stroke: #0000ff; stroke-opacity: 0.2; stroke-width: 0.4; stroke-linecap: round"/>
   </g>
   <g id="patch_13">
    <path d="M 207.614509 83.561072 
L 207.15783 84.986041 
L 207.16438 86.18931 
L 207.640708 88.374147 
L 214.217596 102.1161 
L 214.826343 103.031158 
L 215.62038 103.857536 
L 218.399747 102.527332 
L 218.254229 101.390574 
L 217.92342 100.342496 
L 211.346531 86.600542 
L 209.943748 84.859107 
L 209.010742 84.099239 
z
" clip-path="url(#p2862f091d7)" style="fill: #0000ff; opacity: 0.2"/>
   </g>
   <g id="line2d_45">
    <path d="M 199.479026 59.40615 
L 198.803988 60.741596 
L 198.621272 61.930929 
L 198.748165 64.163483 
L 203.08268 78.768575 
L 203.539986 79.767962 
L 204.19422 80.708905 
L 207.148161 79.832231 
L 207.183179 78.686731 
L 207.021268 77.599677 
L 202.686753 62.994584 
L 201.575213 61.054255 
L 200.773282 60.157146 
L 199.479026 59.40615 
" clip-path="url(#p2862f091d7)" style="fill: none; stroke: #0000ff; stroke-opacity: 0.2; stroke-width: 0.4; stroke-linecap: round"/>
   </g>
   <g id="patch_14">
    <path d="M 199.479026 59.40615 
L 198.803988 60.741596 
L 198.621272 61.930929 
L 198.748165 64.163483 
L 203.08268 78.768575 
L 203.539986 79.767962 
L 204.19422 80.708905 
L 207.148161 79.832231 
L 207.183179 78.686731 
L 207.021268 77.599677 
L 202.686753 62.994584 
L 201.575213 61.054255 
L 200.773282 60.157146 
z
" clip-path="url(#p2862f091d7)" style="fill: #0000ff; opacity: 0.2"/>
   </g>
   <g id="line2d_46">
    <path d="M 201.960404 34.750398 
L 200.623582 35.422706 
L 199.769472 36.270287 
L 198.543962 38.140722 
L 193.34438 52.460676 
L 193.117795 53.536112 
L 193.084294 54.681657 
L 195.980565 55.733294 
L 196.689862 54.833131 
L 197.206074 53.862859 
L 202.405656 39.542905 
L 202.665742 37.321925 
L 202.554429 36.123798 
L 201.960404 34.750398 
" clip-path="url(#p2862f091d7)" style="fill: none; stroke: #ff0000; stroke-opacity: 0.2; stroke-width: 0.4; stroke-linecap: round"/>
   </g>
   <g id="patch_15">
    <path d="M 201.960404 34.750398 
L 200.623582 35.422706 
L 199.769472 36.270287 
L 198.543962 38.140722 
L 193.34438 52.460676 
L 193.117795 53.536112 
L 193.084294 54.681657 
L 195.980565 55.733294 
L 196.689862 54.833131 
L 197.206074 53.862859 
L 202.405656 39.542905 
L 202.665742 37.321925 
L 202.554429 36.123798 
z
" clip-path="url(#p2862f091d7)" style="fill: #ff0000; opacity: 0.2"/>
   </g>
   <g id="line2d_47">
    <path d="M 196.447556 166.108204 
L 195.42046 167.196398 
L 194.906912 168.284593 
L 194.393365 170.460981 
L 194.393365 185.695703 
L 194.547429 186.783897 
L 194.906912 187.872092 
L 197.988199 187.872092 
L 198.347682 186.783897 
L 198.501746 185.695703 
L 198.501746 170.460981 
L 197.988199 168.284593 
L 197.474651 167.196398 
L 196.447556 166.108204 
" clip-path="url(#p2862f091d7)" style="fill: none; stroke: #0000ff; stroke-opacity: 0.2; stroke-width: 0.4; stroke-linecap: round"/>
   </g>
   <g id="patch_16">
    <path d="M 196.447556 166.108204 
L 195.42046 167.196398 
L 194.906912 168.284593 
L 194.393365 170.460981 
L 194.393365 185.695703 
L 194.547429 186.783897 
L 194.906912 187.872092 
L 197.988199 187.872092 
L 198.347682 186.783897 
L 198.501746 185.695703 
L 198.501746 170.460981 
L 197.988199 168.284593 
L 197.474651 167.196398 
z
" clip-path="url(#p2862f091d7)" style="fill: #0000ff; opacity: 0.2"/>
   </g>
   <g id="line2d_48">
    <path d="M 205.554188 132.426867 
L 204.130005 132.885989 
L 203.155905 133.592409 
L 201.657789 135.252544 
L 194.321568 148.60457 
L 193.932577 149.632475 
L 193.72362 150.759299 
L 196.424123 152.243081 
L 197.263198 151.462472 
L 197.922239 150.582945 
L 205.25846 137.230919 
L 205.856408 135.07619 
L 205.93034 133.875177 
L 205.554188 132.426867 
" clip-path="url(#p2862f091d7)" style="fill: none; stroke: #0000ff; stroke-opacity: 0.2; stroke-width: 0.4; stroke-linecap: round"/>
   </g>
   <g id="patch_17">
    <path d="M 205.554188 132.426867 
L 204.130005 132.885989 
L 203.155905 133.592409 
L 201.657789 135.252544 
L 194.321568 148.60457 
L 193.932577 149.632475 
L 193.72362 150.759299 
L 196.424123 152.243081 
L 197.263198 151.462472 
L 197.922239 150.582945 
L 205.25846 137.230919 
L 205.856408 135.07619 
L 205.93034 133.875177 
z
" clip-path="url(#p2862f091d7)" style="fill: #0000ff; opacity: 0.2"/>
   </g>
   <g id="line2d_49">
    <path d="M 209.932459 100.64046 
L 209.025244 101.83044 
L 208.628741 102.966523 
L 208.346445 105.18479 
L 209.945357 120.335375 
L 210.212779 121.40139 
L 210.684485 122.445846 
L 213.748754 122.122459 
L 213.992044 121.002546 
L 214.031049 119.904192 
L 212.432138 104.753608 
L 211.69301 102.643136 
L 211.06809 101.614849 
L 209.932459 100.64046 
" clip-path="url(#p2862f091d7)" style="fill: none; stroke: #0000ff; stroke-opacity: 0.2; stroke-width: 0.4; stroke-linecap: round"/>
   </g>
   <g id="patch_18">
    <path d="M 209.932459 100.64046 
L 209.025244 101.83044 
L 208.628741 102.966523 
L 208.346445 105.18479 
L 209.945357 120.335375 
L 210.212779 121.40139 
L 210.684485 122.445846 
L 213.748754 122.122459 
L 213.992044 121.002546 
L 214.031049 119.904192 
L 212.432138 104.753608 
L 211.69301 102.643136 
L 211.06809 101.614849 
z
" clip-path="url(#p2862f091d7)" style="fill: #0000ff; opacity: 0.2"/>
   </g>
   <g id="line2d_50">
    <path d="M 200.670459 72.966801 
L 200.127883 74.361328 
L 200.061173 75.562764 
L 200.403616 77.772545 
L 206.131772 91.889378 
L 206.683685 92.839796 
L 207.425944 93.712977 
L 210.281133 92.554434 
L 210.205084 91.410925 
L 209.93869 90.344653 
L 204.210534 76.22782 
L 202.916361 74.40422 
L 202.031342 73.588966 
L 200.670459 72.966801 
" clip-path="url(#p2862f091d7)" style="fill: none; stroke: #0000ff; stroke-opacity: 0.2; stroke-width: 0.4; stroke-linecap: round"/>
   </g>
   <g id="patch_19">
    <path d="M 200.670459 72.966801 
L 200.127883 74.361328 
L 200.061173 75.562764 
L 200.403616 77.772545 
L 206.131772 91.889378 
L 206.683685 92.839796 
L 207.425944 93.712977 
L 210.281133 92.554434 
L 210.205084 91.410925 
L 209.93869 90.344653 
L 204.210534 76.22782 
L 202.916361 74.40422 
L 202.031342 73.588966 
z
" clip-path="url(#p2862f091d7)" style="fill: #0000ff; opacity: 0.2"/>
   </g>
   <g id="line2d_51">
    <path d="M 202.650885 45.072309 
L 201.313763 45.744021 
L 200.459274 46.591221 
L 199.232931 48.461109 
L 194.026962 62.778743 
L 193.799897 63.854077 
L 193.765886 64.999607 
L 196.661687 66.052536 
L 197.371386 65.15269 
L 197.888031 64.182648 
L 203.093999 49.865015 
L 203.355076 47.64415 
L 203.244297 46.445974 
L 202.650885 45.072309 
" clip-path="url(#p2862f091d7)" style="fill: none; stroke: #ff0000; stroke-opacity: 0.2; stroke-width: 0.4; stroke-linecap: round"/>
   </g>
   <g id="patch_20">
    <path d="M 202.650885 45.072309 
L 201.313763 45.744021 
L 200.459274 46.591221 
L 199.232931 48.461109 
L 194.026962 62.778743 
L 193.799897 63.854077 
L 193.765886 64.999607 
L 196.661687 66.052536 
L 197.371386 65.15269 
L 197.888031 64.182648 
L 203.093999 49.865015 
L 203.355076 47.64415 
L 203.244297 46.445974 
z
" clip-path="url(#p2862f091d7)" style="fill: #ff0000; opacity: 0.2"/>
   </g>
   <g id="line2d_52">
    <path d="M 196.443345 172.127334 
L 196.521113 153.064195 
L 196.880518 148.576041 
L 197.430599 144.449285 
L 198.158478 140.640922 
L 199.026996 137.264118 
L 200.132548 133.868531 
L 201.658748 129.939699 
L 205.092189 121.894585 
L 207.44226 116.065359 
L 209.086807 111.395187 
L 210.356364 107.129955 
L 211.358289 102.993542 
L 212.084169 99.054064 
L 212.564422 95.22612 
L 212.806996 91.519254 
L 212.822992 87.879114 
L 212.615803 84.352874 
L 212.191257 80.919532 
L 211.585338 77.789807 
L 210.755484 74.689795 
L 209.614249 71.31722 
L 207.720442 66.490316 
L 203.477674 55.825475 
L 201.908381 51.164778 
L 200.700765 46.892873 
L 200.510915 46.131748 
L 200.510915 46.131748 
" clip-path="url(#p2862f091d7)" style="fill: none; stroke: #000000; stroke-width: 0.7; stroke-linecap: round"/>
   </g>
  </g>
  <g id="text_22">
   <!-- zigzag 20/20 -->
   <g style="fill: #262626" transform="translate(171.735187 8.219615) scale(0.07 -0.07)">
    <defs>
     <path id="DejaVuSerif-7a" d="M 256 0 
L 256 269 
L 2338 2988 
L 691 2988 
L 691 2413 
L 359 2413 
L 359 3322 
L 3078 3322 
L 3078 3053 
L 997 331 
L 2803 331 
L 2803 934 
L 3138 934 
L 3138 0 
L 256 0 
z
" transform="scale(0.015625)"/>
     <path id="DejaVuSerif-67" d="M 3359 2988 
L 3359 72 
Q 3359 -644 2965 -1033 
Q 2572 -1422 1844 -1422 
Q 1516 -1422 1216 -1362 
Q 916 -1303 641 -1184 
L 641 -488 
L 941 -488 
Q 997 -813 1206 -963 
Q 1416 -1113 1806 -1113 
Q 2313 -1113 2548 -827 
Q 2784 -541 2784 72 
L 2784 519 
Q 2616 206 2355 57 
Q 2094 -91 1709 -91 
Q 1097 -91 708 395 
Q 319 881 319 1663 
Q 319 2444 706 2928 
Q 1094 3413 1709 3413 
Q 2094 3413 2355 3264 
Q 2616 3116 2784 2803 
L 2784 3322 
L 3909 3322 
L 3909 2988 
L 3359 2988 
z
M 2784 1825 
Q 2784 2422 2554 2737 
Q 2325 3053 1888 3053 
Q 1444 3053 1217 2703 
Q 991 2353 991 1663 
Q 991 975 1217 622 
Q 1444 269 1888 269 
Q 2325 269 2554 583 
Q 2784 897 2784 1497 
L 2784 1825 
z
" transform="scale(0.015625)"/>
     <path id="DejaVuSerif-2f" d="M 1656 4666 
L 2156 4666 
L 500 -594 
L 0 -594 
L 1656 4666 
z
" transform="scale(0.015625)"/>
    </defs>
    <use xlink:href="#DejaVuSerif-7a"/>
    <use xlink:href="#DejaVuSerif-69" x="52.685547"/>
    <use xlink:href="#DejaVuSerif-67" x="84.667969"/>
    <use xlink:href="#DejaVuSerif-7a" x="148.681641"/>
    <use xlink:href="#DejaVuSerif-61" x="201.367188"/>
    <use xlink:href="#DejaVuSerif-67" x="260.986328"/>
    <use xlink:href="#DejaVuSerif-20" x="325"/>
    <use xlink:href="#DejaVuSerif-32" x="356.787109"/>
    <use xlink:href="#DejaVuSerif-30" x="420.410156"/>
    <use xlink:href="#DejaVuSerif-2f" x="484.033203"/>
    <use xlink:href="#DejaVuSerif-32" x="517.724609"/>
    <use xlink:href="#DejaVuSerif-30" x="581.347656"/>
   </g>
  </g>
 </g>
 <defs>
  <clipPath id="p2862f091d7">
   <rect x="25.214615" y="27.094314" width="360.404425" height="168.433863"/>
  </clipPath>
 </defs>
</svg>
