<?xml version="1.0" encoding="utf-8" standalone="no"?>
<!DOCTYPE svg PUBLIC "-//W3C//DTD SVG 1.1//EN"
  "http://www.w3.org/Graphics/SVG/1.1/DTD/svg11.dtd">
<svg xmlns:xlink="http://www.w3.org/1999/xlink" width="194.30964pt" height="145.748736pt" viewBox="0 0 194.30964 145.748736" xmlns="http://www.w3.org/2000/svg" version="1.1">
 <metadata>
  <rdf:RDF xmlns:dc="http://purl.org/dc/elements/1.1/" xmlns:cc="http://creativecommons.org/ns#" xmlns:rdf="http://www.w3.org/1999/02/22-rdf-syntax-ns#">
   <cc:Work>
    <dc:type rdf:resource="http://purl.org/dc/dcmitype/StillImage"/>
    <dc:date>2024-11-12T15:51:44.735606</dc:date>
    <dc:format>image/svg+xml</dc:format>
    <dc:creator>
     <cc:Agent>
      <dc:title>Matplotlib v3.8.2, https://matplotlib.org/</dc:title>
     </cc:Agent>
    </dc:creator>
   </cc:Work>
  </rdf:RDF>
 </metadata>
 <defs>
  <style type="text/css">*{stroke-linejoin: round; stroke-linecap: butt}</style>
 </defs>
 <g id="figure_1">
  <g id="patch_1">
   <path d="M 0 145.748736 
L 194.30964 145.748736 
L 194.30964 0 
L 0 0 
z
" style="fill: #ffffff"/>
  </g>
  <g id="axes_1">
   <g id="patch_2">
    <path d="M 20.61 62.10136 
L 188.90964 62.10136 
L 188.90964 7.2 
L 20.61 7.2 
z
" style="fill: #ffffff"/>
   </g>
   <g id="matplotlib.axis_1">
    <g id="xtick_1">
     <g id="line2d_1"/>
    </g>
    <g id="xtick_2">
     <g id="line2d_2"/>
    </g>
    <g id="xtick_3">
     <g id="line2d_3"/>
    </g>
    <g id="xtick_4">
     <g id="line2d_4"/>
    </g>
    <g id="xtick_5">
     <g id="line2d_5"/>
    </g>
    <g id="xtick_6">
     <g id="line2d_6"/>
    </g>
   </g>
   <g id="matplotlib.axis_2">
    <g id="ytick_1">
     <g id="line2d_7"/>
     <g id="text_1">
      <!-- −10 -->
      <g style="fill: #262626" transform="translate(2.336719 61.58541) scale(0.07 -0.07)">
       <defs>
        <path id="DejaVuSerif-2212" d="M 678 2259 
L 4684 2259 
L 4684 1753 
L 678 1753 
L 678 2259 
z
" transform="scale(0.015625)"/>
        <path id="DejaVuSerif-31" d="M 909 0 
L 909 331 
L 1722 331 
L 1722 4213 
L 781 3603 
L 781 4013 
L 1919 4750 
L 2350 4750 
L 2350 331 
L 3163 331 
L 3163 0 
L 909 0 
z
" transform="scale(0.015625)"/>
        <path id="DejaVuSerif-30" d="M 2034 219 
Q 2513 219 2750 744 
Q 2988 1269 2988 2328 
Q 2988 3391 2750 3916 
Q 2513 4441 2034 4441 
Q 1556 4441 1318 3916 
Q 1081 3391 1081 2328 
Q 1081 1269 1318 744 
Q 1556 219 2034 219 
z
M 2034 -91 
Q 1275 -91 848 546 
Q 422 1184 422 2328 
Q 422 3475 848 4112 
Q 1275 4750 2034 4750 
Q 2797 4750 3222 4112 
Q 3647 3475 3647 2328 
Q 3647 1184 3222 546 
Q 2797 -91 2034 -91 
z
" transform="scale(0.015625)"/>
       </defs>
       <use xlink:href="#DejaVuSerif-2212"/>
       <use xlink:href="#DejaVuSerif-31" x="83.789062"/>
       <use xlink:href="#DejaVuSerif-30" x="147.412109"/>
      </g>
     </g>
    </g>
    <g id="ytick_2">
     <g id="line2d_8"/>
     <g id="text_2">
      <!-- 0 -->
      <g style="fill: #262626" transform="translate(12.65625 37.962878) scale(0.07 -0.07)">
       <use xlink:href="#DejaVuSerif-30"/>
      </g>
     </g>
    </g>
    <g id="ytick_3">
     <g id="line2d_9"/>
     <g id="text_3">
      <!-- 10 -->
      <g style="fill: #262626" transform="translate(8.2025 14.340345) scale(0.07 -0.07)">
       <use xlink:href="#DejaVuSerif-31"/>
       <use xlink:href="#DejaVuSerif-30" x="63.623047"/>
      </g>
     </g>
    </g>
    <g id="text_4">
     <!-- $\beta$ [deg] -->
     <g style="fill: #262626" transform="translate(-3.043281 45.48068) rotate(-90) scale(0.06 -0.06)">
      <defs>
       <path id="DejaVuSans-Oblique-3b2" d="M 872 216 
L 572 -1331 
L -6 -1331 
L 928 3478 
Q 1206 4903 2538 4903 
Q 3888 4903 3659 3700 
Q 3503 2844 2894 2531 
Q 3713 2250 3553 1416 
Q 3272 -69 1759 -66 
Q 1097 -63 872 216 
z
M 1019 966 
Q 1259 422 1875 425 
Q 2775 425 2966 1406 
Q 3138 2288 1675 2219 
L 1778 2750 
Q 2909 2731 3106 3750 
Q 3241 4438 2509 4434 
Q 1691 4434 1503 3459 
L 1019 966 
z
" transform="scale(0.015625)"/>
       <path id="DejaVuSerif-20" transform="scale(0.015625)"/>
       <path id="DejaVuSerif-5b" d="M 550 4863 
L 2003 4863 
L 2003 4531 
L 1147 4531 
L 1147 -513 
L 2003 -513 
L 2003 -844 
L 550 -844 
L 550 4863 
z
" transform="scale(0.015625)"/>
       <path id="DejaVuSerif-64" d="M 3359 331 
L 3909 331 
L 3909 0 
L 2784 0 
L 2784 519 
Q 2616 206 2355 57 
Q 2094 -91 1709 -91 
Q 1097 -91 708 395 
Q 319 881 319 1663 
Q 319 2444 706 2928 
Q 1094 3413 1709 3413 
Q 2094 3413 2355 3264 
Q 2616 3116 2784 2803 
L 2784 4531 
L 2241 4531 
L 2241 4863 
L 3359 4863 
L 3359 331 
z
M 2784 1497 
L 2784 1825 
Q 2784 2422 2554 2737 
Q 2325 3053 1888 3053 
Q 1444 3053 1217 2703 
Q 991 2353 991 1663 
Q 991 975 1217 622 
Q 1444 269 1888 269 
Q 2325 269 2554 583 
Q 2784 897 2784 1497 
z
" transform="scale(0.015625)"/>
       <path id="DejaVuSerif-65" d="M 3469 1600 
L 991 1600 
L 991 1575 
Q 991 903 1244 561 
Q 1497 219 1991 219 
Q 2369 219 2611 417 
Q 2853 616 2950 1006 
L 3413 1006 
Q 3275 459 2904 184 
Q 2534 -91 1931 -91 
Q 1203 -91 761 389 
Q 319 869 319 1663 
Q 319 2450 753 2931 
Q 1188 3413 1894 3413 
Q 2647 3413 3050 2948 
Q 3453 2484 3469 1600 
z
M 2791 1931 
Q 2772 2513 2545 2808 
Q 2319 3103 1894 3103 
Q 1497 3103 1269 2806 
Q 1041 2509 991 1931 
L 2791 1931 
z
" transform="scale(0.015625)"/>
       <path id="DejaVuSerif-67" d="M 3359 2988 
L 3359 72 
Q 3359 -644 2965 -1033 
Q 2572 -1422 1844 -1422 
Q 1516 -1422 1216 -1362 
Q 916 -1303 641 -1184 
L 641 -488 
L 941 -488 
Q 997 -813 1206 -963 
Q 1416 -1113 1806 -1113 
Q 2313 -1113 2548 -827 
Q 2784 -541 2784 72 
L 2784 519 
Q 2616 206 2355 57 
Q 2094 -91 1709 -91 
Q 1097 -91 708 395 
Q 319 881 319 1663 
Q 319 2444 706 2928 
Q 1094 3413 1709 3413 
Q 2094 3413 2355 3264 
Q 2616 3116 2784 2803 
L 2784 3322 
L 3909 3322 
L 3909 2988 
L 3359 2988 
z
M 2784 1825 
Q 2784 2422 2554 2737 
Q 2325 3053 1888 3053 
Q 1444 3053 1217 2703 
Q 991 2353 991 1663 
Q 991 975 1217 622 
Q 1444 269 1888 269 
Q 2325 269 2554 583 
Q 2784 897 2784 1497 
L 2784 1825 
z
" transform="scale(0.015625)"/>
       <path id="DejaVuSerif-5d" d="M 1947 4863 
L 1947 -844 
L 494 -844 
L 494 -513 
L 1350 -513 
L 1350 4531 
L 494 4531 
L 494 4863 
L 1947 4863 
z
" transform="scale(0.015625)"/>
      </defs>
      <use xlink:href="#DejaVuSans-Oblique-3b2" transform="translate(0 0.390625)"/>
      <use xlink:href="#DejaVuSerif-20" transform="translate(63.818359 0.390625)"/>
      <use xlink:href="#DejaVuSerif-5b" transform="translate(95.605469 0.390625)"/>
      <use xlink:href="#DejaVuSerif-64" transform="translate(134.619141 0.390625)"/>
      <use xlink:href="#DejaVuSerif-65" transform="translate(198.632812 0.390625)"/>
      <use xlink:href="#DejaVuSerif-67" transform="translate(257.8125 0.390625)"/>
      <use xlink:href="#DejaVuSerif-5d" transform="translate(321.826172 0.390625)"/>
     </g>
    </g>
   </g>
   <g id="line2d_10">
    <path d="M 28.259984 35.303424 
L 29.293011 35.392948 
L 30.353957 35.708399 
L 31.526582 36.296064 
L 33.815994 37.738648 
L 36.46836 39.672191 
L 39.874557 42.455329 
L 44.285862 46.359593 
L 50.846979 52.199441 
L 52.661756 53.5468 
L 53.499346 53.85352 
L 54.336935 53.916426 
L 55.230364 53.75455 
L 56.291311 53.3253 
L 57.575614 52.547609 
L 61.009731 50.075006 
L 63.662098 47.943373 
L 66.454063 45.423954 
L 70.083617 41.815276 
L 73.629412 37.969215 
L 78.040717 32.832875 
L 85.243986 24.426253 
L 88.203469 21.376842 
L 90.548719 19.263809 
L 92.782291 17.545907 
L 94.876264 16.200551 
L 97.221515 14.970559 
L 99.678444 13.949667 
L 102.163293 13.165467 
L 104.927338 12.523564 
L 107.886821 12.041135 
L 109.757437 11.890998 
L 110.539187 12.101 
L 111.516375 12.606302 
L 112.884438 13.587277 
L 119.724751 18.907618 
L 125.699556 23.210822 
L 128.519441 25.505325 
L 131.367245 28.074398 
L 134.522165 31.24438 
L 138.179639 35.231345 
L 144.321962 42.389249 
L 149.682534 48.537132 
L 152.41866 51.335714 
L 154.819749 53.489256 
L 156.913723 55.082526 
L 159.035616 56.421222 
L 161.073751 57.446581 
L 163.251483 58.275044 
L 165.485055 58.876858 
L 168.025743 59.30955 
L 170.957306 59.572181 
L 171.906574 59.605844 
L 171.906574 59.605844 
" clip-path="url(#p31d05ca618)" style="fill: none; stroke: #ff0000; stroke-width: 0.4; stroke-linecap: round"/>
   </g>
   <g id="line2d_11">
    <path d="M 28.259984 35.303424 
L 29.32093 35.373396 
L 30.326038 35.664188 
L 31.303225 36.18247 
L 33.704315 37.829934 
L 37.054673 40.405701 
L 47.971255 48.992157 
L 50.986577 51.015802 
L 53.303908 52.343722 
L 54.336935 52.676062 
L 55.342042 52.762472 
L 56.34715 52.620316 
L 57.352257 52.252141 
L 58.413204 51.618291 
L 60.925972 49.676176 
L 64.583446 46.625312 
L 67.905884 43.546209 
L 72.010073 39.467228 
L 75.667546 35.534651 
L 82.50786 27.752597 
L 86.109495 23.878914 
L 88.985219 21.114708 
L 91.386308 19.118945 
L 93.843238 17.374635 
L 96.04889 16.073805 
L 98.39414 14.934571 
L 100.79523 13.994257 
L 103.419677 13.200179 
L 106.546677 12.494366 
L 109.952875 11.954039 
L 110.902143 12.022666 
L 111.90725 12.321777 
L 113.051956 12.910724 
L 114.28042 13.805046 
L 115.592644 15.0347 
L 117.965814 17.248878 
L 122.572556 21.153806 
L 129.692066 27.28928 
L 135.583112 32.741084 
L 146.471775 42.848002 
L 150.464284 46.198703 
L 153.647124 48.593128 
L 156.662446 50.593557 
L 159.621929 52.283884 
L 162.69309 53.757057 
L 165.680493 54.935547 
L 168.975011 55.99396 
L 172.464967 56.880433 
L 176.317879 57.616304 
L 180.338308 58.147266 
L 181.259656 58.240609 
L 181.259656 58.240609 
" clip-path="url(#p31d05ca618)" style="fill: none; stroke: #0000ff; stroke-width: 0.4; stroke-linecap: round"/>
   </g>
   <g id="patch_3">
    <path d="M 20.61 62.10136 
L 20.61 7.2 
" style="fill: none; stroke: #000000; stroke-linejoin: miter; stroke-linecap: square"/>
   </g>
   <g id="patch_4">
    <path d="M 20.61 62.10136 
L 188.90964 62.10136 
" style="fill: none; stroke: #000000; stroke-linejoin: miter; stroke-linecap: square"/>
   </g>
   <g id="legend_1"/>
   <g id="line2d_12">
    <path d="M 28.259984 35.492969 
L 29.320905 35.693943 
L 30.465622 36.146901 
L 32.475837 37.267748 
L 38.059766 40.401398 
L 40.014116 41.848458 
L 42.41522 43.903991 
L 49.590561 50.156116 
L 51.963759 51.819071 
L 53.080557 52.28237 
L 54.253154 52.528229 
L 55.397873 52.543628 
L 56.542559 52.328213 
L 63.047846 50.226487 
L 64.611346 49.311132 
L 66.621544 47.851966 
L 74.718306 41.629754 
L 77.817326 39.172249 
L 82.089088 35.357179 
L 88.259272 29.607506 
L 93.312731 25.080765 
L 96.914374 22.077257 
L 102.107434 18.204331 
L 105.066903 16.369482 
L 108.389344 14.517175 
L 110.595007 13.456778 
L 115.006295 11.711869 
L 118.244974 10.682654 
L 120.646061 10.109895 
L 123.326369 9.698257 
L 124.415264 9.777376 
L 125.587836 10.119459 
L 127.12343 10.762055 
L 128.240211 11.51452 
L 129.664113 12.418505 
L 133.740373 14.851283 
L 136.336903 16.952677 
L 139.017192 19.465148 
L 143.791472 24.065889 
L 146.974348 26.600192 
L 150.966821 29.897662 
L 166.769334 43.245187 
L 171.962388 47.393353 
L 175.117295 49.643661 
L 178.886475 52.066105 
L 181.259623 53.483198 
L 181.259623 53.483198 
" clip-path="url(#p31d05ca618)" style="fill: none; stroke: #000000; stroke-width: 0.7; stroke-linecap: round"/>
   </g>
  </g>
  <g id="axes_2">
   <g id="patch_5">
    <path d="M 20.61 124.908736 
L 188.90964 124.908736 
L 188.90964 70.007376 
L 20.61 70.007376 
z
" style="fill: #ffffff"/>
   </g>
   <g id="matplotlib.axis_3">
    <g id="xtick_7">
     <g id="line2d_13"/>
     <g id="text_5">
      <!-- 0 -->
      <g style="fill: #262626" transform="translate(26.033109 133.727642) scale(0.07 -0.07)">
       <use xlink:href="#DejaVuSerif-30"/>
      </g>
     </g>
    </g>
    <g id="xtick_8">
     <g id="line2d_14"/>
     <g id="text_6">
      <!-- 10 -->
      <g style="fill: #262626" transform="translate(51.725882 133.727642) scale(0.07 -0.07)">
       <use xlink:href="#DejaVuSerif-31"/>
       <use xlink:href="#DejaVuSerif-30" x="63.623047"/>
      </g>
     </g>
    </g>
    <g id="xtick_9">
     <g id="line2d_15"/>
     <g id="text_7">
      <!-- 20 -->
      <g style="fill: #262626" transform="translate(79.64553 133.727642) scale(0.07 -0.07)">
       <defs>
        <path id="DejaVuSerif-32" d="M 819 3553 
L 469 3553 
L 469 4384 
Q 803 4563 1142 4656 
Q 1481 4750 1806 4750 
Q 2534 4750 2956 4397 
Q 3378 4044 3378 3438 
Q 3378 2753 2422 1800 
Q 2347 1728 2309 1691 
L 1131 513 
L 3078 513 
L 3078 1088 
L 3444 1088 
L 3444 0 
L 434 0 
L 434 341 
L 1850 1753 
Q 2319 2222 2519 2614 
Q 2719 3006 2719 3438 
Q 2719 3909 2473 4175 
Q 2228 4441 1797 4441 
Q 1350 4441 1106 4219 
Q 863 3997 819 3553 
z
" transform="scale(0.015625)"/>
       </defs>
       <use xlink:href="#DejaVuSerif-32"/>
       <use xlink:href="#DejaVuSerif-30" x="63.623047"/>
      </g>
     </g>
    </g>
    <g id="xtick_10">
     <g id="line2d_16"/>
     <g id="text_8">
      <!-- 30 -->
      <g style="fill: #262626" transform="translate(107.565179 133.727642) scale(0.07 -0.07)">
       <defs>
        <path id="DejaVuSerif-33" d="M 622 4469 
Q 988 4606 1323 4678 
Q 1659 4750 1953 4750 
Q 2638 4750 3022 4454 
Q 3406 4159 3406 3634 
Q 3406 3213 3140 2930 
Q 2875 2647 2388 2547 
Q 2963 2466 3280 2130 
Q 3597 1794 3597 1259 
Q 3597 606 3158 257 
Q 2719 -91 1894 -91 
Q 1528 -91 1179 -12 
Q 831 66 488 225 
L 488 1131 
L 838 1131 
Q 869 681 1141 450 
Q 1413 219 1906 219 
Q 2384 219 2661 495 
Q 2938 772 2938 1253 
Q 2938 1803 2653 2086 
Q 2369 2369 1819 2369 
L 1522 2369 
L 1522 2688 
L 1678 2688 
Q 2225 2688 2498 2914 
Q 2772 3141 2772 3597 
Q 2772 4006 2547 4223 
Q 2322 4441 1900 4441 
Q 1478 4441 1245 4241 
Q 1013 4041 972 3647 
L 622 3647 
L 622 4469 
z
" transform="scale(0.015625)"/>
       </defs>
       <use xlink:href="#DejaVuSerif-33"/>
       <use xlink:href="#DejaVuSerif-30" x="63.623047"/>
      </g>
     </g>
    </g>
    <g id="xtick_11">
     <g id="line2d_17"/>
     <g id="text_9">
      <!-- 40 -->
      <g style="fill: #262626" transform="translate(135.484827 133.727642) scale(0.07 -0.07)">
       <defs>
        <path id="DejaVuSerif-34" d="M 2234 1581 
L 2234 4063 
L 641 1581 
L 2234 1581 
z
M 3609 0 
L 1484 0 
L 1484 331 
L 2234 331 
L 2234 1247 
L 197 1247 
L 197 1588 
L 2241 4750 
L 2859 4750 
L 2859 1581 
L 3750 1581 
L 3750 1247 
L 2859 1247 
L 2859 331 
L 3609 331 
L 3609 0 
z
" transform="scale(0.015625)"/>
       </defs>
       <use xlink:href="#DejaVuSerif-34"/>
       <use xlink:href="#DejaVuSerif-30" x="63.623047"/>
      </g>
     </g>
    </g>
    <g id="xtick_12">
     <g id="line2d_18"/>
     <g id="text_10">
      <!-- 50 -->
      <g style="fill: #262626" transform="translate(163.404475 133.727642) scale(0.07 -0.07)">
       <defs>
        <path id="DejaVuSerif-35" d="M 3219 4666 
L 3219 4153 
L 1081 4153 
L 1081 2816 
Q 1244 2928 1461 2984 
Q 1678 3041 1947 3041 
Q 2703 3041 3140 2622 
Q 3578 2203 3578 1478 
Q 3578 738 3136 323 
Q 2694 -91 1894 -91 
Q 1572 -91 1234 -12 
Q 897 66 544 225 
L 544 1131 
L 897 1131 
Q 925 688 1179 453 
Q 1434 219 1894 219 
Q 2388 219 2653 544 
Q 2919 869 2919 1478 
Q 2919 2084 2655 2407 
Q 2391 2731 1894 2731 
Q 1613 2731 1398 2631 
Q 1184 2531 1019 2322 
L 750 2322 
L 750 4666 
L 3219 4666 
z
" transform="scale(0.015625)"/>
       </defs>
       <use xlink:href="#DejaVuSerif-35"/>
       <use xlink:href="#DejaVuSerif-30" x="63.623047"/>
      </g>
     </g>
    </g>
    <g id="text_11">
     <!-- Time [s] -->
     <g style="fill: #262626" transform="translate(92.344976 143.742486) scale(0.06 -0.06)">
      <defs>
       <path id="DejaVuSerif-54" d="M 1222 0 
L 1222 331 
L 1819 331 
L 1819 4294 
L 447 4294 
L 447 3566 
L 63 3566 
L 63 4666 
L 4206 4666 
L 4206 3566 
L 3822 3566 
L 3822 4294 
L 2450 4294 
L 2450 331 
L 3047 331 
L 3047 0 
L 1222 0 
z
" transform="scale(0.015625)"/>
       <path id="DejaVuSerif-69" d="M 622 4353 
Q 622 4497 726 4603 
Q 831 4709 978 4709 
Q 1122 4709 1226 4603 
Q 1331 4497 1331 4353 
Q 1331 4206 1228 4103 
Q 1125 4000 978 4000 
Q 831 4000 726 4103 
Q 622 4206 622 4353 
z
M 1356 331 
L 1900 331 
L 1900 0 
L 231 0 
L 231 331 
L 781 331 
L 781 2988 
L 231 2988 
L 231 3322 
L 1356 3322 
L 1356 331 
z
" transform="scale(0.015625)"/>
       <path id="DejaVuSerif-6d" d="M 3316 2675 
Q 3481 3041 3739 3227 
Q 3997 3413 4341 3413 
Q 4863 3413 5119 3089 
Q 5375 2766 5375 2113 
L 5375 331 
L 5894 331 
L 5894 0 
L 4300 0 
L 4300 331 
L 4800 331 
L 4800 2047 
Q 4800 2556 4650 2772 
Q 4500 2988 4153 2988 
Q 3769 2988 3567 2697 
Q 3366 2406 3366 1850 
L 3366 331 
L 3866 331 
L 3866 0 
L 2291 0 
L 2291 331 
L 2791 331 
L 2791 2069 
Q 2791 2566 2641 2777 
Q 2491 2988 2144 2988 
Q 1759 2988 1557 2697 
Q 1356 2406 1356 1850 
L 1356 331 
L 1856 331 
L 1856 0 
L 263 0 
L 263 331 
L 781 331 
L 781 2994 
L 231 2994 
L 231 3322 
L 1356 3322 
L 1356 2731 
Q 1516 3063 1762 3238 
Q 2009 3413 2322 3413 
Q 2709 3413 2968 3220 
Q 3228 3028 3316 2675 
z
" transform="scale(0.015625)"/>
       <path id="DejaVuSerif-73" d="M 359 184 
L 359 959 
L 691 959 
Q 703 588 923 403 
Q 1144 219 1575 219 
Q 1963 219 2166 364 
Q 2369 509 2369 788 
Q 2369 1006 2220 1140 
Q 2072 1275 1594 1428 
L 1178 1569 
Q 750 1706 558 1912 
Q 366 2119 366 2438 
Q 366 2894 700 3153 
Q 1034 3413 1625 3413 
Q 1888 3413 2178 3344 
Q 2469 3275 2778 3144 
L 2778 2419 
L 2447 2419 
Q 2434 2741 2221 2922 
Q 2009 3103 1644 3103 
Q 1281 3103 1095 2975 
Q 909 2847 909 2591 
Q 909 2381 1050 2254 
Q 1191 2128 1613 1997 
L 2069 1856 
Q 2541 1709 2748 1489 
Q 2956 1269 2956 922 
Q 2956 450 2595 179 
Q 2234 -91 1600 -91 
Q 1278 -91 972 -22 
Q 666 47 359 184 
z
" transform="scale(0.015625)"/>
      </defs>
      <use xlink:href="#DejaVuSerif-54"/>
      <use xlink:href="#DejaVuSerif-69" x="66.699219"/>
      <use xlink:href="#DejaVuSerif-6d" x="98.681641"/>
      <use xlink:href="#DejaVuSerif-65" x="193.505859"/>
      <use xlink:href="#DejaVuSerif-20" x="252.685547"/>
      <use xlink:href="#DejaVuSerif-5b" x="284.472656"/>
      <use xlink:href="#DejaVuSerif-73" x="323.486328"/>
      <use xlink:href="#DejaVuSerif-5d" x="374.804688"/>
     </g>
    </g>
   </g>
   <g id="matplotlib.axis_4">
    <g id="ytick_4">
     <g id="line2d_19"/>
     <g id="text_12">
      <!-- −25 -->
      <g style="fill: #262626" transform="translate(2.336719 118.627227) scale(0.07 -0.07)">
       <use xlink:href="#DejaVuSerif-2212"/>
       <use xlink:href="#DejaVuSerif-32" x="83.789062"/>
       <use xlink:href="#DejaVuSerif-35" x="147.412109"/>
      </g>
     </g>
    </g>
    <g id="ytick_5">
     <g id="line2d_20"/>
     <g id="text_13">
      <!-- 0 -->
      <g style="fill: #262626" transform="translate(12.65625 101.386437) scale(0.07 -0.07)">
       <use xlink:href="#DejaVuSerif-30"/>
      </g>
     </g>
    </g>
    <g id="ytick_6">
     <g id="line2d_21"/>
     <g id="text_14">
      <!-- 25 -->
      <g style="fill: #262626" transform="translate(8.2025 84.145646) scale(0.07 -0.07)">
       <use xlink:href="#DejaVuSerif-32"/>
       <use xlink:href="#DejaVuSerif-35" x="63.623047"/>
      </g>
     </g>
    </g>
    <g id="text_15">
     <!-- $\psi$ [deg] -->
     <g style="fill: #262626" transform="translate(-3.043281 108.348056) rotate(-90) scale(0.06 -0.06)">
      <defs>
       <path id="DejaVuSans-Oblique-3c8" d="M 1591 -78 
Q 891 38 616 341 
Q 278 713 425 1472 
L 819 3500 
L 1400 3500 
L 1009 1494 
Q 900 922 1119 684 
Q 1313 478 1691 434 
L 2284 3500 
L 2856 3500 
L 2263 438 
Q 2681 481 2928 688 
Q 3247 950 3353 1497 
L 3741 3500 
L 4322 3500 
L 3928 1475 
Q 3775 688 3300 344 
Q 2872 34 2163 -75 
L 1919 -1331 
L 1347 -1331 
L 1591 -78 
z
" transform="scale(0.015625)"/>
      </defs>
      <use xlink:href="#DejaVuSans-Oblique-3c8" transform="translate(0 0.015625)"/>
      <use xlink:href="#DejaVuSerif-20" transform="translate(65.966797 0.015625)"/>
      <use xlink:href="#DejaVuSerif-5b" transform="translate(97.753906 0.015625)"/>
      <use xlink:href="#DejaVuSerif-64" transform="translate(136.767578 0.015625)"/>
      <use xlink:href="#DejaVuSerif-65" transform="translate(200.78125 0.015625)"/>
      <use xlink:href="#DejaVuSerif-67" transform="translate(259.960938 0.015625)"/>
      <use xlink:href="#DejaVuSerif-5d" transform="translate(323.974609 0.015625)"/>
     </g>
    </g>
   </g>
   <g id="line2d_22">
    <path d="M 28.259984 98.726983 
L 31.303225 98.837781 
L 33.229681 99.156036 
L 35.239896 99.716382 
L 37.361789 100.544133 
L 39.539522 101.634663 
L 41.801013 103.018739 
L 44.118344 104.701597 
L 46.435675 106.660184 
L 48.836764 108.983843 
L 51.377452 111.758543 
L 56.961382 118.042882 
L 58.552802 119.354206 
L 60.172142 120.396672 
L 61.847321 121.21413 
L 63.606258 121.824862 
L 65.421036 122.219513 
L 67.291652 122.400024 
L 69.246027 122.366909 
L 71.284162 122.109243 
L 73.350216 121.62483 
L 75.472109 120.897115 
L 77.621922 119.921875 
L 79.827574 118.672473 
L 82.089066 117.131772 
L 84.434316 115.260895 
L 86.947084 112.96677 
L 89.65529 110.187062 
L 92.754371 106.674055 
L 96.439765 102.144268 
L 101.074426 96.078036 
L 107.412187 87.387956 
L 112.493563 80.49117 
L 114.2525 78.548243 
L 115.89976 77.062257 
L 117.602858 75.82938 
L 119.417635 74.792245 
L 121.344091 73.945915 
L 123.410145 73.281884 
L 125.615797 72.80994 
L 127.877289 72.551894 
L 130.1667 72.515688 
L 132.428191 72.701318 
L 134.661763 73.106352 
L 136.923255 73.743643 
L 139.184746 74.612863 
L 141.446238 75.719799 
L 143.763569 77.105471 
L 146.108819 78.772153 
L 148.481989 80.73409 
L 150.938918 83.05773 
L 153.535446 85.822798 
L 156.32741 89.129266 
L 159.370652 93.084909 
L 162.72101 97.812721 
L 166.406403 103.405074 
L 170.175556 109.527679 
L 171.906574 112.491428 
L 171.906574 112.491428 
" clip-path="url(#p496908dc05)" style="fill: none; stroke: #ff0000; stroke-width: 0.4; stroke-linecap: round"/>
   </g>
   <g id="line2d_23">
    <path d="M 28.259984 98.726983 
L 31.359065 98.83674 
L 33.173842 99.155381 
L 35.128217 99.728988 
L 37.25011 100.588355 
L 39.539522 101.760863 
L 41.996451 103.273337 
L 44.648817 105.170817 
L 47.468702 107.466735 
L 50.567783 110.287305 
L 54.364855 114.066316 
L 56.989302 116.554018 
L 58.6924 117.875735 
L 60.227981 118.789676 
L 61.87524 119.513235 
L 63.634178 120.041002 
L 65.504794 120.366681 
L 67.45917 120.478471 
L 69.525224 120.371868 
L 71.675037 120.038681 
L 73.880689 119.471332 
L 76.086341 118.672134 
L 78.319913 117.621767 
L 80.609324 116.293179 
L 82.954575 114.671787 
L 85.439423 112.679466 
L 88.147629 110.216943 
L 91.190871 107.135897 
L 94.764586 103.187523 
L 99.315489 97.805985 
L 106.183722 89.294003 
L 113.247393 80.604978 
L 115.006331 78.85617 
L 116.541912 77.637482 
L 118.161251 76.642279 
L 119.892269 75.841887 
L 121.762886 75.222682 
L 123.80102 74.785315 
L 126.006672 74.539426 
L 128.379842 74.499048 
L 130.864691 74.680225 
L 133.405379 75.088805 
L 136.057746 75.742053 
L 138.765952 76.640212 
L 141.529997 77.794017 
L 144.377801 79.226717 
L 147.337284 80.968122 
L 150.436365 83.053697 
L 153.758803 85.563136 
L 157.416277 88.609963 
L 161.632144 92.421524 
L 166.6856 97.302819 
L 172.800003 103.528165 
L 180.924621 112.144154 
L 181.259656 112.503699 
L 181.259656 112.503699 
" clip-path="url(#p496908dc05)" style="fill: none; stroke: #0000ff; stroke-width: 0.4; stroke-linecap: round"/>
   </g>
   <g id="patch_6">
    <path d="M 20.61 124.908736 
L 20.61 70.007376 
" style="fill: none; stroke: #000000; stroke-linejoin: miter; stroke-linecap: square"/>
   </g>
   <g id="patch_7">
    <path d="M 20.61 124.908736 
L 188.90964 124.908736 
" style="fill: none; stroke: #000000; stroke-linejoin: miter; stroke-linecap: square"/>
   </g>
   <g id="line2d_24">
    <path d="M 28.259984 98.852055 
L 30.856472 99.029286 
L 32.58749 99.378882 
L 34.486026 99.992796 
L 36.552114 100.900878 
L 38.757738 102.116953 
L 41.1309 103.683045 
L 43.643715 105.61013 
L 46.29604 107.930032 
L 49.255542 110.824958 
L 56.263349 117.844377 
L 57.826863 118.947906 
L 59.613726 119.925861 
L 61.651869 120.783776 
L 63.857505 121.472 
L 66.14691 121.956641 
L 68.464246 122.219624 
L 70.837417 122.264298 
L 73.238504 122.085852 
L 75.695433 121.677559 
L 78.208198 121.032183 
L 80.776823 120.139208 
L 83.485048 118.957039 
L 86.304932 117.479599 
L 89.152734 115.733433 
L 92.084291 113.672844 
L 95.239184 111.179625 
L 99.008345 107.906369 
L 103.55925 103.643997 
L 109.561994 97.716858 
L 121.53952 85.454224 
L 125.252822 81.824925 
L 127.207189 80.227656 
L 128.826599 79.1818 
L 130.585492 78.31851 
L 132.595695 77.581265 
L 134.829248 77.001728 
L 137.369936 76.575614 
L 140.106081 76.340079 
L 142.842178 76.327457 
L 145.606238 76.537473 
L 148.509873 76.984763 
L 151.469364 77.666293 
L 154.484677 78.59109 
L 157.583803 79.778156 
L 160.738698 81.225368 
L 163.921602 82.929935 
L 167.104423 84.88773 
L 170.28724 87.10965 
L 173.665495 89.74796 
L 177.685916 93.187156 
L 181.259623 96.405862 
L 181.259623 96.405862 
" clip-path="url(#p496908dc05)" style="fill: none; stroke: #000000; stroke-width: 0.7; stroke-linecap: round"/>
   </g>
  </g>
 </g>
 <defs>
  <clipPath id="p31d05ca618">
   <rect x="20.61" y="7.2" width="168.29964" height="54.90136"/>
  </clipPath>
  <clipPath id="p496908dc05">
   <rect x="20.61" y="70.007376" width="168.29964" height="54.90136"/>
  </clipPath>
 </defs>
</svg>
