<?xml version="1.0" encoding="utf-8" standalone="no"?>
<!DOCTYPE svg PUBLIC "-//W3C//DTD SVG 1.1//EN"
  "http://www.w3.org/Graphics/SVG/1.1/DTD/svg11.dtd">
<svg xmlns:xlink="http://www.w3.org/1999/xlink" width="388.61928pt" height="218.623104pt" viewBox="0 0 388.61928 218.623104" xmlns="http://www.w3.org/2000/svg" version="1.1">
 <metadata>
  <rdf:RDF xmlns:dc="http://purl.org/dc/elements/1.1/" xmlns:cc="http://creativecommons.org/ns#" xmlns:rdf="http://www.w3.org/1999/02/22-rdf-syntax-ns#">
   <cc:Work>
    <dc:type rdf:resource="http://purl.org/dc/dcmitype/StillImage"/>
    <dc:date>2024-11-25T10:07:11.328071</dc:date>
    <dc:format>image/svg+xml</dc:format>
    <dc:creator>
     <cc:Agent>
      <dc:title>Matplotlib v3.8.2, https://matplotlib.org/</dc:title>
     </cc:Agent>
    </dc:creator>
   </cc:Work>
  </rdf:RDF>
 </metadata>
 <defs>
  <style type="text/css">*{stroke-linejoin: round; stroke-linecap: butt}</style>
 </defs>
 <g id="figure_1">
  <g id="patch_1">
   <path d="M 0 218.623104 
L 388.61928 218.623104 
L 388.61928 0 
L 0 0 
z
" style="fill: #ffffff"/>
  </g>
  <g id="axes_1">
   <g id="patch_2">
    <path d="M 41.22 91.641552 
L 186.378629 91.641552 
L 186.378629 10.8 
L 41.22 10.8 
z
" style="fill: #ffffff"/>
   </g>
   <g id="matplotlib.axis_1">
    <g id="xtick_1">
     <g id="line2d_1"/>
    </g>
    <g id="xtick_2">
     <g id="line2d_2"/>
    </g>
    <g id="xtick_3">
     <g id="line2d_3"/>
    </g>
    <g id="xtick_4">
     <g id="line2d_4"/>
    </g>
    <g id="xtick_5">
     <g id="line2d_5"/>
    </g>
   </g>
   <g id="matplotlib.axis_2">
    <g id="ytick_1">
     <g id="line2d_6"/>
     <g id="text_1">
      <!-- 0.0 -->
      <g style="fill: #262626" transform="translate(26.587812 94.301005) scale(0.07 -0.07)">
       <defs>
        <path id="DejaVuSerif-30" d="M 2034 219 
Q 2513 219 2750 744 
Q 2988 1269 2988 2328 
Q 2988 3391 2750 3916 
Q 2513 4441 2034 4441 
Q 1556 4441 1318 3916 
Q 1081 3391 1081 2328 
Q 1081 1269 1318 744 
Q 1556 219 2034 219 
z
M 2034 -91 
Q 1275 -91 848 546 
Q 422 1184 422 2328 
Q 422 3475 848 4112 
Q 1275 4750 2034 4750 
Q 2797 4750 3222 4112 
Q 3647 3475 3647 2328 
Q 3647 1184 3222 546 
Q 2797 -91 2034 -91 
z
" transform="scale(0.015625)"/>
        <path id="DejaVuSerif-2e" d="M 603 325 
Q 603 500 722 622 
Q 841 744 1019 744 
Q 1191 744 1312 622 
Q 1434 500 1434 325 
Q 1434 153 1312 31 
Q 1191 -91 1019 -91 
Q 841 -91 722 29 
Q 603 150 603 325 
z
" transform="scale(0.015625)"/>
       </defs>
       <use xlink:href="#DejaVuSerif-30"/>
       <use xlink:href="#DejaVuSerif-2e" x="63.623047"/>
       <use xlink:href="#DejaVuSerif-30" x="95.410156"/>
      </g>
     </g>
    </g>
    <g id="ytick_2">
     <g id="line2d_7"/>
     <g id="text_2">
      <!-- 0.2 -->
      <g style="fill: #262626" transform="translate(26.587812 77.572876) scale(0.07 -0.07)">
       <defs>
        <path id="DejaVuSerif-32" d="M 819 3553 
L 469 3553 
L 469 4384 
Q 803 4563 1142 4656 
Q 1481 4750 1806 4750 
Q 2534 4750 2956 4397 
Q 3378 4044 3378 3438 
Q 3378 2753 2422 1800 
Q 2347 1728 2309 1691 
L 1131 513 
L 3078 513 
L 3078 1088 
L 3444 1088 
L 3444 0 
L 434 0 
L 434 341 
L 1850 1753 
Q 2319 2222 2519 2614 
Q 2719 3006 2719 3438 
Q 2719 3909 2473 4175 
Q 2228 4441 1797 4441 
Q 1350 4441 1106 4219 
Q 863 3997 819 3553 
z
" transform="scale(0.015625)"/>
       </defs>
       <use xlink:href="#DejaVuSerif-30"/>
       <use xlink:href="#DejaVuSerif-2e" x="63.623047"/>
       <use xlink:href="#DejaVuSerif-32" x="95.410156"/>
      </g>
     </g>
    </g>
    <g id="ytick_3">
     <g id="line2d_8"/>
     <g id="text_3">
      <!-- 0.4 -->
      <g style="fill: #262626" transform="translate(26.587812 60.844748) scale(0.07 -0.07)">
       <defs>
        <path id="DejaVuSerif-34" d="M 2234 1581 
L 2234 4063 
L 641 1581 
L 2234 1581 
z
M 3609 0 
L 1484 0 
L 1484 331 
L 2234 331 
L 2234 1247 
L 197 1247 
L 197 1588 
L 2241 4750 
L 2859 4750 
L 2859 1581 
L 3750 1581 
L 3750 1247 
L 2859 1247 
L 2859 331 
L 3609 331 
L 3609 0 
z
" transform="scale(0.015625)"/>
       </defs>
       <use xlink:href="#DejaVuSerif-30"/>
       <use xlink:href="#DejaVuSerif-2e" x="63.623047"/>
       <use xlink:href="#DejaVuSerif-34" x="95.410156"/>
      </g>
     </g>
    </g>
    <g id="ytick_4">
     <g id="line2d_9"/>
     <g id="text_4">
      <!-- 0.6 -->
      <g style="fill: #262626" transform="translate(26.587812 44.116619) scale(0.07 -0.07)">
       <defs>
        <path id="DejaVuSerif-36" d="M 2094 219 
Q 2534 219 2771 542 
Q 3009 866 3009 1472 
Q 3009 2078 2771 2401 
Q 2534 2725 2094 2725 
Q 1647 2725 1412 2412 
Q 1178 2100 1178 1509 
Q 1178 888 1415 553 
Q 1653 219 2094 219 
z
M 1075 2569 
Q 1288 2803 1556 2918 
Q 1825 3034 2163 3034 
Q 2859 3034 3264 2615 
Q 3669 2197 3669 1472 
Q 3669 763 3233 336 
Q 2797 -91 2069 -91 
Q 1278 -91 853 498 
Q 428 1088 428 2181 
Q 428 3406 931 4078 
Q 1434 4750 2350 4750 
Q 2597 4750 2869 4703 
Q 3141 4656 3425 4563 
L 3425 3794 
L 3072 3794 
Q 3034 4109 2831 4275 
Q 2628 4441 2284 4441 
Q 1678 4441 1381 3981 
Q 1084 3522 1075 2569 
z
" transform="scale(0.015625)"/>
       </defs>
       <use xlink:href="#DejaVuSerif-30"/>
       <use xlink:href="#DejaVuSerif-2e" x="63.623047"/>
       <use xlink:href="#DejaVuSerif-36" x="95.410156"/>
      </g>
     </g>
    </g>
    <g id="ytick_5">
     <g id="line2d_10"/>
     <g id="text_5">
      <!-- 0.8 -->
      <g style="fill: #262626" transform="translate(26.587812 27.38849) scale(0.07 -0.07)">
       <defs>
        <path id="DejaVuSerif-38" d="M 2981 1275 
Q 2981 1775 2732 2051 
Q 2484 2328 2034 2328 
Q 1584 2328 1336 2051 
Q 1088 1775 1088 1275 
Q 1088 772 1336 495 
Q 1584 219 2034 219 
Q 2484 219 2732 495 
Q 2981 772 2981 1275 
z
M 2853 3541 
Q 2853 3966 2637 4203 
Q 2422 4441 2034 4441 
Q 1650 4441 1433 4203 
Q 1216 3966 1216 3541 
Q 1216 3113 1433 2875 
Q 1650 2638 2034 2638 
Q 2422 2638 2637 2875 
Q 2853 3113 2853 3541 
z
M 2516 2484 
Q 3047 2413 3344 2092 
Q 3641 1772 3641 1275 
Q 3641 619 3225 264 
Q 2809 -91 2034 -91 
Q 1263 -91 845 264 
Q 428 619 428 1275 
Q 428 1772 725 2092 
Q 1022 2413 1556 2484 
Q 1084 2569 832 2842 
Q 581 3116 581 3541 
Q 581 4103 968 4426 
Q 1356 4750 2034 4750 
Q 2713 4750 3100 4426 
Q 3488 4103 3488 3541 
Q 3488 3116 3236 2842 
Q 2984 2569 2516 2484 
z
" transform="scale(0.015625)"/>
       </defs>
       <use xlink:href="#DejaVuSerif-30"/>
       <use xlink:href="#DejaVuSerif-2e" x="63.623047"/>
       <use xlink:href="#DejaVuSerif-38" x="95.410156"/>
      </g>
     </g>
    </g>
    <g id="text_6">
     <!-- $V$ [m/s] -->
     <g style="fill: #262626" transform="translate(21.34 61.990776) rotate(-90) scale(0.06 -0.06)">
      <defs>
       <path id="DejaVuSans-Oblique-56" d="M 1319 0 
L 500 4666 
L 1119 4666 
L 1797 653 
L 4063 4666 
L 4750 4666 
L 2053 0 
L 1319 0 
z
" transform="scale(0.015625)"/>
       <path id="DejaVuSerif-20" transform="scale(0.015625)"/>
       <path id="DejaVuSerif-5b" d="M 550 4863 
L 2003 4863 
L 2003 4531 
L 1147 4531 
L 1147 -513 
L 2003 -513 
L 2003 -844 
L 550 -844 
L 550 4863 
z
" transform="scale(0.015625)"/>
       <path id="DejaVuSerif-6d" d="M 3316 2675 
Q 3481 3041 3739 3227 
Q 3997 3413 4341 3413 
Q 4863 3413 5119 3089 
Q 5375 2766 5375 2113 
L 5375 331 
L 5894 331 
L 5894 0 
L 4300 0 
L 4300 331 
L 4800 331 
L 4800 2047 
Q 4800 2556 4650 2772 
Q 4500 2988 4153 2988 
Q 3769 2988 3567 2697 
Q 3366 2406 3366 1850 
L 3366 331 
L 3866 331 
L 3866 0 
L 2291 0 
L 2291 331 
L 2791 331 
L 2791 2069 
Q 2791 2566 2641 2777 
Q 2491 2988 2144 2988 
Q 1759 2988 1557 2697 
Q 1356 2406 1356 1850 
L 1356 331 
L 1856 331 
L 1856 0 
L 263 0 
L 263 331 
L 781 331 
L 781 2994 
L 231 2994 
L 231 3322 
L 1356 3322 
L 1356 2731 
Q 1516 3063 1762 3238 
Q 2009 3413 2322 3413 
Q 2709 3413 2968 3220 
Q 3228 3028 3316 2675 
z
" transform="scale(0.015625)"/>
       <path id="DejaVuSerif-2f" d="M 1656 4666 
L 2156 4666 
L 500 -594 
L 0 -594 
L 1656 4666 
z
" transform="scale(0.015625)"/>
       <path id="DejaVuSerif-73" d="M 359 184 
L 359 959 
L 691 959 
Q 703 588 923 403 
Q 1144 219 1575 219 
Q 1963 219 2166 364 
Q 2369 509 2369 788 
Q 2369 1006 2220 1140 
Q 2072 1275 1594 1428 
L 1178 1569 
Q 750 1706 558 1912 
Q 366 2119 366 2438 
Q 366 2894 700 3153 
Q 1034 3413 1625 3413 
Q 1888 3413 2178 3344 
Q 2469 3275 2778 3144 
L 2778 2419 
L 2447 2419 
Q 2434 2741 2221 2922 
Q 2009 3103 1644 3103 
Q 1281 3103 1095 2975 
Q 909 2847 909 2591 
Q 909 2381 1050 2254 
Q 1191 2128 1613 1997 
L 2069 1856 
Q 2541 1709 2748 1489 
Q 2956 1269 2956 922 
Q 2956 450 2595 179 
Q 2234 -91 1600 -91 
Q 1278 -91 972 -22 
Q 666 47 359 184 
z
" transform="scale(0.015625)"/>
       <path id="DejaVuSerif-5d" d="M 1947 4863 
L 1947 -844 
L 494 -844 
L 494 -513 
L 1350 -513 
L 1350 4531 
L 494 4531 
L 494 4863 
L 1947 4863 
z
" transform="scale(0.015625)"/>
      </defs>
      <use xlink:href="#DejaVuSans-Oblique-56" transform="translate(0 0.015625)"/>
      <use xlink:href="#DejaVuSerif-20" transform="translate(68.408203 0.015625)"/>
      <use xlink:href="#DejaVuSerif-5b" transform="translate(100.195312 0.015625)"/>
      <use xlink:href="#DejaVuSerif-6d" transform="translate(139.208984 0.015625)"/>
      <use xlink:href="#DejaVuSerif-2f" transform="translate(234.033203 0.015625)"/>
      <use xlink:href="#DejaVuSerif-73" transform="translate(267.724609 0.015625)"/>
      <use xlink:href="#DejaVuSerif-5d" transform="translate(319.042969 0.015625)"/>
     </g>
    </g>
   </g>
   <g id="line2d_11">
    <path d="M 47.81812 11.818798 
L 51.641138 12.019509 
L 53.518512 12.398135 
L 60.686671 14.161356 
L 65.192371 15.532452 
L 69.322596 16.980815 
L 72.565334 18.043263 
L 76.524889 18.939306 
L 81.406064 19.806891 
L 84.239193 19.993992 
L 97.346684 20.761174 
L 100.350483 21.232791 
L 104.173501 21.990081 
L 108.269592 22.997572 
L 119.738646 26.135227 
L 125.848648 27.779234 
L 129.262057 28.340156 
L 134.006696 28.795991 
L 136.259546 28.755702 
L 139.058541 28.454698 
L 144.076252 27.696855 
L 148.035807 27.196032 
L 150.868936 26.990405 
L 154.82849 26.90585 
L 159.402458 27.021678 
L 162.064917 27.312402 
L 169.369613 28.393869 
L 175.923358 29.587323 
L 179.78051 30.406348 
L 179.78051 30.406348 
" clip-path="url(#p567d262769)" style="fill: none; stroke: #ff0000; stroke-width: 0.4; stroke-linecap: round"/>
   </g>
   <g id="line2d_12">
    <path d="M 47.81812 11.818798 
L 51.197394 11.985515 
L 52.972367 12.338981 
L 64.339019 15.102512 
L 78.743605 19.544424 
L 80.382041 19.966551 
L 82.839695 20.31791 
L 87.345395 20.63106 
L 93.591934 21.173364 
L 99.975008 22.147357 
L 107.962385 24.054568 
L 130.11541 29.709321 
L 132.265857 29.821039 
L 134.79178 29.758962 
L 138.887871 29.416019 
L 142.676755 29.091335 
L 146.738711 28.916774 
L 150.664131 29.020098 
L 155.340502 29.398471 
L 159.504861 29.915617 
L 166.126874 31.127402 
L 169.779222 31.824128 
L 169.779222 31.824128 
" clip-path="url(#p567d262769)" style="fill: none; stroke: #0000ff; stroke-width: 0.4; stroke-linecap: round"/>
   </g>
   <g id="patch_3">
    <path d="M 41.22 91.641552 
L 41.22 10.8 
" style="fill: none; stroke: #000000; stroke-linejoin: miter; stroke-linecap: square"/>
   </g>
   <g id="patch_4">
    <path d="M 41.22 91.641552 
L 186.378629 91.641552 
" style="fill: none; stroke: #000000; stroke-linejoin: miter; stroke-linecap: square"/>
   </g>
   <g id="legend_1">
    <g id="line2d_13">
     <path d="M 47.52 60.786865 
L 54.52 60.786865 
L 61.52 60.786865 
" style="fill: none; stroke: #000000; stroke-width: 0.7; stroke-linecap: round"/>
    </g>
    <g id="text_7">
     <!-- experiment -->
     <g style="fill: #262626" transform="translate(67.12 63.236865) scale(0.07 -0.07)">
      <defs>
       <path id="DejaVuSerif-65" d="M 3469 1600 
L 991 1600 
L 991 1575 
Q 991 903 1244 561 
Q 1497 219 1991 219 
Q 2369 219 2611 417 
Q 2853 616 2950 1006 
L 3413 1006 
Q 3275 459 2904 184 
Q 2534 -91 1931 -91 
Q 1203 -91 761 389 
Q 319 869 319 1663 
Q 319 2450 753 2931 
Q 1188 3413 1894 3413 
Q 2647 3413 3050 2948 
Q 3453 2484 3469 1600 
z
M 2791 1931 
Q 2772 2513 2545 2808 
Q 2319 3103 1894 3103 
Q 1497 3103 1269 2806 
Q 1041 2509 991 1931 
L 2791 1931 
z
" transform="scale(0.015625)"/>
       <path id="DejaVuSerif-78" d="M 1863 2028 
L 2559 2988 
L 2113 2988 
L 2113 3322 
L 3391 3322 
L 3391 2988 
L 2950 2988 
L 2059 1759 
L 3097 331 
L 3531 331 
L 3531 0 
L 1997 0 
L 1997 331 
L 2419 331 
L 1697 1325 
L 972 331 
L 1403 331 
L 1403 0 
L 141 0 
L 141 331 
L 581 331 
L 1497 1594 
L 488 2988 
L 78 2988 
L 78 3322 
L 1563 3322 
L 1563 2988 
L 1166 2988 
L 1863 2028 
z
" transform="scale(0.015625)"/>
       <path id="DejaVuSerif-70" d="M 1313 1825 
L 1313 1497 
Q 1313 897 1542 583 
Q 1772 269 2209 269 
Q 2650 269 2876 622 
Q 3103 975 3103 1663 
Q 3103 2353 2876 2703 
Q 2650 3053 2209 3053 
Q 1772 3053 1542 2737 
Q 1313 2422 1313 1825 
z
M 738 2988 
L 184 2988 
L 184 3322 
L 1313 3322 
L 1313 2803 
Q 1481 3116 1742 3264 
Q 2003 3413 2388 3413 
Q 3000 3413 3387 2928 
Q 3775 2444 3775 1663 
Q 3775 881 3387 395 
Q 3000 -91 2388 -91 
Q 2003 -91 1742 57 
Q 1481 206 1313 519 
L 1313 -997 
L 1856 -997 
L 1856 -1331 
L 184 -1331 
L 184 -997 
L 738 -997 
L 738 2988 
z
" transform="scale(0.015625)"/>
       <path id="DejaVuSerif-72" d="M 3059 3328 
L 3059 2497 
L 2728 2497 
Q 2713 2744 2591 2866 
Q 2469 2988 2234 2988 
Q 1809 2988 1582 2694 
Q 1356 2400 1356 1850 
L 1356 331 
L 2022 331 
L 2022 0 
L 263 0 
L 263 331 
L 781 331 
L 781 2994 
L 231 2994 
L 231 3322 
L 1356 3322 
L 1356 2731 
Q 1525 3078 1790 3245 
Q 2056 3413 2438 3413 
Q 2578 3413 2733 3391 
Q 2888 3369 3059 3328 
z
" transform="scale(0.015625)"/>
       <path id="DejaVuSerif-69" d="M 622 4353 
Q 622 4497 726 4603 
Q 831 4709 978 4709 
Q 1122 4709 1226 4603 
Q 1331 4497 1331 4353 
Q 1331 4206 1228 4103 
Q 1125 4000 978 4000 
Q 831 4000 726 4103 
Q 622 4206 622 4353 
z
M 1356 331 
L 1900 331 
L 1900 0 
L 231 0 
L 231 331 
L 781 331 
L 781 2988 
L 231 2988 
L 231 3322 
L 1356 3322 
L 1356 331 
z
" transform="scale(0.015625)"/>
       <path id="DejaVuSerif-6e" d="M 263 0 
L 263 331 
L 781 331 
L 781 2988 
L 231 2988 
L 231 3322 
L 1356 3322 
L 1356 2731 
Q 1516 3069 1770 3241 
Q 2025 3413 2363 3413 
Q 2913 3413 3172 3097 
Q 3431 2781 3431 2113 
L 3431 331 
L 3944 331 
L 3944 0 
L 2356 0 
L 2356 331 
L 2853 331 
L 2853 1931 
Q 2853 2541 2703 2767 
Q 2553 2994 2175 2994 
Q 1775 2994 1565 2701 
Q 1356 2409 1356 1850 
L 1356 331 
L 1856 331 
L 1856 0 
L 263 0 
z
" transform="scale(0.015625)"/>
       <path id="DejaVuSerif-74" d="M 691 2988 
L 184 2988 
L 184 3322 
L 691 3322 
L 691 4353 
L 1269 4353 
L 1269 3322 
L 2350 3322 
L 2350 2988 
L 1269 2988 
L 1269 878 
Q 1269 456 1350 337 
Q 1431 219 1650 219 
Q 1875 219 1978 351 
Q 2081 484 2088 781 
L 2522 781 
Q 2497 328 2275 118 
Q 2053 -91 1600 -91 
Q 1103 -91 897 129 
Q 691 350 691 878 
L 691 2988 
z
" transform="scale(0.015625)"/>
      </defs>
      <use xlink:href="#DejaVuSerif-65"/>
      <use xlink:href="#DejaVuSerif-78" x="59.179688"/>
      <use xlink:href="#DejaVuSerif-70" x="115.576172"/>
      <use xlink:href="#DejaVuSerif-65" x="179.589844"/>
      <use xlink:href="#DejaVuSerif-72" x="238.769531"/>
      <use xlink:href="#DejaVuSerif-69" x="286.572266"/>
      <use xlink:href="#DejaVuSerif-6d" x="318.554688"/>
      <use xlink:href="#DejaVuSerif-65" x="413.378906"/>
      <use xlink:href="#DejaVuSerif-6e" x="472.558594"/>
      <use xlink:href="#DejaVuSerif-74" x="536.962891"/>
     </g>
    </g>
    <g id="line2d_14">
     <path d="M 47.52 71.061552 
L 54.52 71.061552 
L 61.52 71.061552 
" style="fill: none; stroke: #ff0000; stroke-width: 0.4; stroke-linecap: round"/>
    </g>
    <g id="text_8">
     <!-- polynomial rudder -->
     <g style="fill: #262626" transform="translate(67.12 73.511552) scale(0.07 -0.07)">
      <defs>
       <path id="DejaVuSerif-6f" d="M 1925 219 
Q 2388 219 2623 584 
Q 2859 950 2859 1663 
Q 2859 2375 2623 2739 
Q 2388 3103 1925 3103 
Q 1463 3103 1227 2739 
Q 991 2375 991 1663 
Q 991 950 1228 584 
Q 1466 219 1925 219 
z
M 1925 -91 
Q 1200 -91 759 389 
Q 319 869 319 1663 
Q 319 2456 758 2934 
Q 1197 3413 1925 3413 
Q 2653 3413 3092 2934 
Q 3531 2456 3531 1663 
Q 3531 869 3092 389 
Q 2653 -91 1925 -91 
z
" transform="scale(0.015625)"/>
       <path id="DejaVuSerif-6c" d="M 1313 331 
L 1856 331 
L 1856 0 
L 184 0 
L 184 331 
L 738 331 
L 738 4531 
L 184 4531 
L 184 4863 
L 1313 4863 
L 1313 331 
z
" transform="scale(0.015625)"/>
       <path id="DejaVuSerif-79" d="M 1381 -609 
L 1600 -56 
L 359 2988 
L -19 2988 
L -19 3322 
L 1509 3322 
L 1509 2988 
L 978 2988 
L 1913 703 
L 2847 2988 
L 2350 2988 
L 2350 3322 
L 3597 3322 
L 3597 2988 
L 3225 2988 
L 1703 -750 
Q 1547 -1138 1356 -1280 
Q 1166 -1422 819 -1422 
Q 672 -1422 517 -1397 
Q 363 -1372 206 -1325 
L 206 -691 
L 500 -691 
Q 519 -903 608 -995 
Q 697 -1088 884 -1088 
Q 1056 -1088 1161 -992 
Q 1266 -897 1381 -609 
z
" transform="scale(0.015625)"/>
       <path id="DejaVuSerif-61" d="M 2547 1044 
L 2547 1747 
L 1806 1747 
Q 1378 1747 1168 1562 
Q 959 1378 959 997 
Q 959 650 1171 447 
Q 1384 244 1747 244 
Q 2106 244 2326 466 
Q 2547 688 2547 1044 
z
M 3122 2075 
L 3122 331 
L 3634 331 
L 3634 0 
L 2547 0 
L 2547 359 
Q 2356 128 2106 18 
Q 1856 -91 1522 -91 
Q 969 -91 644 203 
Q 319 497 319 997 
Q 319 1513 691 1797 
Q 1063 2081 1741 2081 
L 2547 2081 
L 2547 2309 
Q 2547 2688 2317 2895 
Q 2088 3103 1672 3103 
Q 1328 3103 1125 2947 
Q 922 2791 872 2484 
L 575 2484 
L 575 3156 
Q 875 3284 1158 3348 
Q 1441 3413 1709 3413 
Q 2400 3413 2761 3070 
Q 3122 2728 3122 2075 
z
" transform="scale(0.015625)"/>
       <path id="DejaVuSerif-75" d="M 2266 3322 
L 3341 3322 
L 3341 331 
L 3884 331 
L 3884 0 
L 2766 0 
L 2766 588 
Q 2606 256 2353 82 
Q 2100 -91 1766 -91 
Q 1213 -91 952 223 
Q 691 538 691 1209 
L 691 2988 
L 172 2988 
L 172 3322 
L 1269 3322 
L 1269 1388 
Q 1269 781 1417 556 
Q 1566 331 1947 331 
Q 2347 331 2556 625 
Q 2766 919 2766 1478 
L 2766 2988 
L 2266 2988 
L 2266 3322 
z
" transform="scale(0.015625)"/>
       <path id="DejaVuSerif-64" d="M 3359 331 
L 3909 331 
L 3909 0 
L 2784 0 
L 2784 519 
Q 2616 206 2355 57 
Q 2094 -91 1709 -91 
Q 1097 -91 708 395 
Q 319 881 319 1663 
Q 319 2444 706 2928 
Q 1094 3413 1709 3413 
Q 2094 3413 2355 3264 
Q 2616 3116 2784 2803 
L 2784 4531 
L 2241 4531 
L 2241 4863 
L 3359 4863 
L 3359 331 
z
M 2784 1497 
L 2784 1825 
Q 2784 2422 2554 2737 
Q 2325 3053 1888 3053 
Q 1444 3053 1217 2703 
Q 991 2353 991 1663 
Q 991 975 1217 622 
Q 1444 269 1888 269 
Q 2325 269 2554 583 
Q 2784 897 2784 1497 
z
" transform="scale(0.015625)"/>
      </defs>
      <use xlink:href="#DejaVuSerif-70"/>
      <use xlink:href="#DejaVuSerif-6f" x="64.013672"/>
      <use xlink:href="#DejaVuSerif-6c" x="124.21875"/>
      <use xlink:href="#DejaVuSerif-79" x="156.201172"/>
      <use xlink:href="#DejaVuSerif-6e" x="212.695312"/>
      <use xlink:href="#DejaVuSerif-6f" x="277.099609"/>
      <use xlink:href="#DejaVuSerif-6d" x="337.304688"/>
      <use xlink:href="#DejaVuSerif-69" x="432.128906"/>
      <use xlink:href="#DejaVuSerif-61" x="464.111328"/>
      <use xlink:href="#DejaVuSerif-6c" x="523.730469"/>
      <use xlink:href="#DejaVuSerif-20" x="555.712891"/>
      <use xlink:href="#DejaVuSerif-72" x="587.5"/>
      <use xlink:href="#DejaVuSerif-75" x="635.302734"/>
      <use xlink:href="#DejaVuSerif-64" x="699.707031"/>
      <use xlink:href="#DejaVuSerif-64" x="763.720703"/>
      <use xlink:href="#DejaVuSerif-65" x="827.734375"/>
      <use xlink:href="#DejaVuSerif-72" x="886.914062"/>
     </g>
    </g>
    <g id="line2d_15">
     <path d="M 47.52 81.435771 
L 54.52 81.435771 
L 61.52 81.435771 
" style="fill: none; stroke: #0000ff; stroke-width: 0.4; stroke-linecap: round"/>
    </g>
    <g id="text_9">
     <!-- semi-empirical rudder -->
     <g style="fill: #262626" transform="translate(67.12 83.885771) scale(0.07 -0.07)">
      <defs>
       <path id="DejaVuSerif-2d" d="M 281 1959 
L 1881 1959 
L 1881 1472 
L 281 1472 
L 281 1959 
z
" transform="scale(0.015625)"/>
       <path id="DejaVuSerif-63" d="M 3291 997 
Q 3169 466 2822 187 
Q 2475 -91 1925 -91 
Q 1200 -91 759 389 
Q 319 869 319 1663 
Q 319 2459 759 2936 
Q 1200 3413 1925 3413 
Q 2241 3413 2553 3339 
Q 2866 3266 3181 3116 
L 3181 2266 
L 2847 2266 
Q 2781 2703 2561 2903 
Q 2341 3103 1931 3103 
Q 1466 3103 1228 2742 
Q 991 2381 991 1663 
Q 991 944 1227 581 
Q 1463 219 1931 219 
Q 2303 219 2525 412 
Q 2747 606 2828 997 
L 3291 997 
z
" transform="scale(0.015625)"/>
      </defs>
      <use xlink:href="#DejaVuSerif-73"/>
      <use xlink:href="#DejaVuSerif-65" x="51.318359"/>
      <use xlink:href="#DejaVuSerif-6d" x="110.498047"/>
      <use xlink:href="#DejaVuSerif-69" x="205.322266"/>
      <use xlink:href="#DejaVuSerif-2d" x="237.304688"/>
      <use xlink:href="#DejaVuSerif-65" x="271.09375"/>
      <use xlink:href="#DejaVuSerif-6d" x="330.273438"/>
      <use xlink:href="#DejaVuSerif-70" x="425.097656"/>
      <use xlink:href="#DejaVuSerif-69" x="489.111328"/>
      <use xlink:href="#DejaVuSerif-72" x="521.09375"/>
      <use xlink:href="#DejaVuSerif-69" x="568.896484"/>
      <use xlink:href="#DejaVuSerif-63" x="600.878906"/>
      <use xlink:href="#DejaVuSerif-61" x="656.884766"/>
      <use xlink:href="#DejaVuSerif-6c" x="716.503906"/>
      <use xlink:href="#DejaVuSerif-20" x="748.486328"/>
      <use xlink:href="#DejaVuSerif-72" x="780.273438"/>
      <use xlink:href="#DejaVuSerif-75" x="828.076172"/>
      <use xlink:href="#DejaVuSerif-64" x="892.480469"/>
      <use xlink:href="#DejaVuSerif-64" x="956.494141"/>
      <use xlink:href="#DejaVuSerif-65" x="1020.507812"/>
      <use xlink:href="#DejaVuSerif-72" x="1079.6875"/>
     </g>
    </g>
   </g>
   <g id="line2d_16">
    <path d="M 47.81812 11.818782 
L 52.32383 12.073257 
L 56.215136 12.784585 
L 60.8574 13.678201 
L 69.22018 15.899079 
L 72.736005 16.874945 
L 75.091284 17.506497 
L 76.900354 17.9818 
L 81.474363 18.895191 
L 83.010383 19.176765 
L 86.696854 19.495469 
L 89.359412 19.646386 
L 92.363117 19.832224 
L 94.411152 20.016816 
L 96.356822 19.911499 
L 97.653942 19.946862 
L 103.934566 20.720042 
L 105.675463 20.68664 
L 106.836008 20.976402 
L 109.80566 21.687358 
L 112.809433 22.024958 
L 115.130551 22.425776 
L 121.411213 23.58191 
L 122.571786 23.81351 
L 126.292395 24.653736 
L 131.583196 25.787228 
L 133.221632 26.156758 
L 136.97642 26.483981 
L 139.400001 26.717259 
L 141.550415 26.982002 
L 143.222907 26.934205 
L 153.429023 26.218191 
L 156.705869 25.983421 
L 158.890488 25.882779 
L 165.376006 25.827189 
L 169.74507 25.962564 
L 169.74507 25.962564 
" clip-path="url(#p567d262769)" style="fill: none; stroke: #000000; stroke-width: 0.7; stroke-linecap: round"/>
   </g>
  </g>
  <g id="axes_2">
   <g id="patch_5">
    <path d="M 230.12964 91.641552 
L 375.288269 91.641552 
L 375.288269 10.8 
L 230.12964 10.8 
z
" style="fill: #ffffff"/>
   </g>
   <g id="matplotlib.axis_3">
    <g id="xtick_6">
     <g id="line2d_17"/>
    </g>
    <g id="xtick_7">
     <g id="line2d_18"/>
    </g>
    <g id="xtick_8">
     <g id="line2d_19"/>
    </g>
    <g id="xtick_9">
     <g id="line2d_20"/>
    </g>
    <g id="xtick_10">
     <g id="line2d_21"/>
    </g>
   </g>
   <g id="matplotlib.axis_4">
    <g id="ytick_6">
     <g id="line2d_22"/>
     <g id="text_10">
      <!-- −10 -->
      <g style="fill: #262626" transform="translate(211.856359 79.713802) scale(0.07 -0.07)">
       <defs>
        <path id="DejaVuSerif-2212" d="M 678 2259 
L 4684 2259 
L 4684 1753 
L 678 1753 
L 678 2259 
z
" transform="scale(0.015625)"/>
        <path id="DejaVuSerif-31" d="M 909 0 
L 909 331 
L 1722 331 
L 1722 4213 
L 781 3603 
L 781 4013 
L 1919 4750 
L 2350 4750 
L 2350 331 
L 3163 331 
L 3163 0 
L 909 0 
z
" transform="scale(0.015625)"/>
       </defs>
       <use xlink:href="#DejaVuSerif-2212"/>
       <use xlink:href="#DejaVuSerif-31" x="83.789062"/>
       <use xlink:href="#DejaVuSerif-30" x="147.412109"/>
      </g>
     </g>
    </g>
    <g id="ytick_7">
     <g id="line2d_23"/>
     <g id="text_11">
      <!-- 0 -->
      <g style="fill: #262626" transform="translate(222.17589 53.904356) scale(0.07 -0.07)">
       <use xlink:href="#DejaVuSerif-30"/>
      </g>
     </g>
    </g>
    <g id="ytick_8">
     <g id="line2d_24"/>
     <g id="text_12">
      <!-- 10 -->
      <g style="fill: #262626" transform="translate(217.72214 28.094909) scale(0.07 -0.07)">
       <use xlink:href="#DejaVuSerif-31"/>
       <use xlink:href="#DejaVuSerif-30" x="63.623047"/>
      </g>
     </g>
    </g>
    <g id="text_13">
     <!-- $\beta$ [deg] -->
     <g style="fill: #262626" transform="translate(206.476359 62.050776) rotate(-90) scale(0.06 -0.06)">
      <defs>
       <path id="DejaVuSans-Oblique-3b2" d="M 872 216 
L 572 -1331 
L -6 -1331 
L 928 3478 
Q 1206 4903 2538 4903 
Q 3888 4903 3659 3700 
Q 3503 2844 2894 2531 
Q 3713 2250 3553 1416 
Q 3272 -69 1759 -66 
Q 1097 -63 872 216 
z
M 1019 966 
Q 1259 422 1875 425 
Q 2775 425 2966 1406 
Q 3138 2288 1675 2219 
L 1778 2750 
Q 2909 2731 3106 3750 
Q 3241 4438 2509 4434 
Q 1691 4434 1503 3459 
L 1019 966 
z
" transform="scale(0.015625)"/>
       <path id="DejaVuSerif-67" d="M 3359 2988 
L 3359 72 
Q 3359 -644 2965 -1033 
Q 2572 -1422 1844 -1422 
Q 1516 -1422 1216 -1362 
Q 916 -1303 641 -1184 
L 641 -488 
L 941 -488 
Q 997 -813 1206 -963 
Q 1416 -1113 1806 -1113 
Q 2313 -1113 2548 -827 
Q 2784 -541 2784 72 
L 2784 519 
Q 2616 206 2355 57 
Q 2094 -91 1709 -91 
Q 1097 -91 708 395 
Q 319 881 319 1663 
Q 319 2444 706 2928 
Q 1094 3413 1709 3413 
Q 2094 3413 2355 3264 
Q 2616 3116 2784 2803 
L 2784 3322 
L 3909 3322 
L 3909 2988 
L 3359 2988 
z
M 2784 1825 
Q 2784 2422 2554 2737 
Q 2325 3053 1888 3053 
Q 1444 3053 1217 2703 
Q 991 2353 991 1663 
Q 991 975 1217 622 
Q 1444 269 1888 269 
Q 2325 269 2554 583 
Q 2784 897 2784 1497 
L 2784 1825 
z
" transform="scale(0.015625)"/>
      </defs>
      <use xlink:href="#DejaVuSans-Oblique-3b2" transform="translate(0 0.390625)"/>
      <use xlink:href="#DejaVuSerif-20" transform="translate(63.818359 0.390625)"/>
      <use xlink:href="#DejaVuSerif-5b" transform="translate(95.605469 0.390625)"/>
      <use xlink:href="#DejaVuSerif-64" transform="translate(134.619141 0.390625)"/>
      <use xlink:href="#DejaVuSerif-65" transform="translate(198.632812 0.390625)"/>
      <use xlink:href="#DejaVuSerif-67" transform="translate(257.8125 0.390625)"/>
      <use xlink:href="#DejaVuSerif-5d" transform="translate(321.826172 0.390625)"/>
     </g>
    </g>
   </g>
   <g id="line2d_25">
    <path d="M 236.72776 51.244902 
L 237.615246 51.133002 
L 238.502732 50.787092 
L 239.390219 50.195801 
L 240.311839 49.311314 
L 241.335862 48.002617 
L 245.193014 42.304541 
L 248.811227 37.130585 
L 251.815027 33.232499 
L 254.614022 29.982962 
L 257.34475 27.157625 
L 259.495197 25.217141 
L 260.382684 24.728316 
L 261.236036 24.501584 
L 262.055254 24.506705 
L 262.908606 24.737393 
L 263.761958 25.19921 
L 264.683579 25.961323 
L 265.673467 27.084244 
L 266.69749 28.589942 
L 267.823915 30.665123 
L 270.042631 35.511005 
L 276.63051 50.15317 
L 279.190567 55.197577 
L 281.750624 59.761907 
L 284.14001 63.557068 
L 286.665933 67.199343 
L 289.157721 70.371438 
L 291.64951 73.202765 
L 294.2437 75.830234 
L 297.008562 78.305759 
L 299.944093 80.630185 
L 302.982027 82.755544 
L 306.122364 84.686021 
L 309.501639 86.49175 
L 312.403036 87.818161 
L 313.290522 87.964874 
L 314.143875 87.886917 
L 315.065495 87.568179 
L 316.02125 86.992951 
L 317.011138 86.127062 
L 318.035161 84.923443 
L 319.161586 83.248781 
L 320.322145 81.121248 
L 321.687509 78.069872 
L 325.851867 67.96183 
L 330.357567 57.219246 
L 333.190697 51.138672 
L 335.648351 46.382368 
L 338.276676 41.83048 
L 340.666062 38.135924 
L 343.157851 34.684175 
L 345.752042 31.458998 
L 348.24383 28.689678 
L 350.735619 26.24064 
L 353.67115 23.678631 
L 356.572548 21.445409 
L 359.67875 19.335526 
L 362.853221 17.438929 
L 366.130093 15.73005 
L 368.69015 14.541475 
L 368.69015 14.541475 
" clip-path="url(#p7708d9f0ae)" style="fill: none; stroke: #ff0000; stroke-width: 0.4; stroke-linecap: round"/>
   </g>
   <g id="line2d_26">
    <path d="M 236.72776 51.244902 
L 237.581112 51.134098 
L 238.40033 50.807171 
L 239.253682 50.220559 
L 240.141168 49.330952 
L 241.096923 48.042893 
L 243.418041 44.280513 
L 247.855473 37.251619 
L 250.552066 33.426783 
L 252.907318 30.453979 
L 255.26257 27.831175 
L 257.822627 25.314072 
L 258.675979 24.68857 
L 259.461063 24.377394 
L 260.212013 24.322709 
L 260.962963 24.490652 
L 261.748047 24.892328 
L 262.635534 25.609137 
L 263.591288 26.687805 
L 264.615311 28.195361 
L 265.741736 30.266703 
L 266.970563 33.031218 
L 275.845426 54.479588 
L 278.064142 58.983761 
L 280.248724 62.965909 
L 282.46744 66.584227 
L 285.129899 70.439924 
L 287.31448 73.217521 
L 289.39666 75.508325 
L 292.332191 78.35171 
L 294.585041 80.231284 
L 297.315769 82.201632 
L 300.08063 83.962439 
L 303.459905 85.779467 
L 307.146386 87.450739 
L 307.93147 87.617664 
L 308.68242 87.549582 
L 309.467504 87.256251 
L 310.320857 86.688054 
L 311.242477 85.797419 
L 312.2665 84.486803 
L 313.392925 82.673151 
L 314.587618 80.31911 
L 315.850579 77.327025 
L 318.205831 71.000445 
L 323.12114 58.019837 
L 325.681197 51.854253 
L 328.172986 46.361616 
L 330.528238 41.707651 
L 332.88349 37.543611 
L 334.999803 34.20843 
L 337.423324 30.827381 
L 339.539637 28.244464 
L 341.963158 25.621971 
L 344.625617 23.087304 
L 347.151539 20.988822 
L 349.472657 19.342517 
L 352.305787 17.606808 
L 355.514391 15.922491 
L 358.688862 14.474616 
L 358.688862 14.474616 
" clip-path="url(#p7708d9f0ae)" style="fill: none; stroke: #0000ff; stroke-width: 0.4; stroke-linecap: round"/>
   </g>
   <g id="patch_6">
    <path d="M 230.12964 91.641552 
L 230.12964 10.8 
" style="fill: none; stroke: #000000; stroke-linejoin: miter; stroke-linecap: square"/>
   </g>
   <g id="patch_7">
    <path d="M 230.12964 91.641552 
L 375.288269 91.641552 
" style="fill: none; stroke: #000000; stroke-linejoin: miter; stroke-linecap: square"/>
   </g>
   <g id="line2d_27">
    <path d="M 236.72776 51.148643 
L 237.581142 50.994081 
L 238.468602 50.61278 
L 239.390379 49.978121 
L 240.380114 49.020188 
L 241.438271 47.673196 
L 249.016028 37.297827 
L 252.053993 33.615215 
L 254.750559 30.727534 
L 257.583688 28.023745 
L 260.075528 25.915669 
L 261.816394 24.669967 
L 262.635585 24.370444 
L 263.420611 24.305316 
L 264.205698 24.464541 
L 264.990871 24.867253 
L 265.844172 25.579261 
L 266.799889 26.685058 
L 267.892173 28.312132 
L 269.086887 30.522496 
L 270.384003 33.402349 
L 273.490188 40.565333 
L 276.903603 47.851405 
L 279.361254 52.569533 
L 281.579987 56.415946 
L 283.628005 59.547084 
L 285.573693 62.157797 
L 288.918861 66.186851 
L 291.444715 68.909074 
L 293.390358 70.720737 
L 299.466237 75.814369 
L 302.367631 77.715644 
L 305.712813 79.619049 
L 308.068034 80.752682 
L 312.778497 82.668781 
L 314.99722 83.396468 
L 317.625572 84.015698 
L 321.175559 84.520184 
L 321.960578 84.269842 
L 322.779933 83.758508 
L 323.70143 82.911804 
L 324.691329 81.698784 
L 325.783698 79.999574 
L 327.046567 77.600998 
L 328.446065 74.45754 
L 330.767183 68.522804 
L 333.361398 62.328698 
L 336.160451 56.258698 
L 338.652199 51.362228 
L 340.870867 47.489594 
L 342.987262 44.262252 
L 345.240064 41.283519 
L 347.561162 38.592096 
L 349.984676 36.134612 
L 352.681354 33.675974 
L 356.36773 30.598251 
L 358.65471 28.838571 
L 358.65471 28.838571 
" clip-path="url(#p7708d9f0ae)" style="fill: none; stroke: #000000; stroke-width: 0.7; stroke-linecap: round"/>
   </g>
  </g>
  <g id="axes_3">
   <g id="patch_8">
    <path d="M 41.22 187.363104 
L 186.378629 187.363104 
L 186.378629 106.521552 
L 41.22 106.521552 
z
" style="fill: #ffffff"/>
   </g>
   <g id="matplotlib.axis_5">
    <g id="xtick_11">
     <g id="line2d_28"/>
     <g id="text_14">
      <!-- 0 -->
      <g style="fill: #262626" transform="translate(45.591245 196.18201) scale(0.07 -0.07)">
       <use xlink:href="#DejaVuSerif-30"/>
      </g>
     </g>
    </g>
    <g id="xtick_12">
     <g id="line2d_29"/>
     <g id="text_15">
      <!-- 10 -->
      <g style="fill: #262626" transform="translate(77.498459 196.18201) scale(0.07 -0.07)">
       <use xlink:href="#DejaVuSerif-31"/>
       <use xlink:href="#DejaVuSerif-30" x="63.623047"/>
      </g>
     </g>
    </g>
    <g id="xtick_13">
     <g id="line2d_30"/>
     <g id="text_16">
      <!-- 20 -->
      <g style="fill: #262626" transform="translate(111.632549 196.18201) scale(0.07 -0.07)">
       <use xlink:href="#DejaVuSerif-32"/>
       <use xlink:href="#DejaVuSerif-30" x="63.623047"/>
      </g>
     </g>
    </g>
    <g id="xtick_14">
     <g id="line2d_31"/>
     <g id="text_17">
      <!-- 30 -->
      <g style="fill: #262626" transform="translate(145.766638 196.18201) scale(0.07 -0.07)">
       <defs>
        <path id="DejaVuSerif-33" d="M 622 4469 
Q 988 4606 1323 4678 
Q 1659 4750 1953 4750 
Q 2638 4750 3022 4454 
Q 3406 4159 3406 3634 
Q 3406 3213 3140 2930 
Q 2875 2647 2388 2547 
Q 2963 2466 3280 2130 
Q 3597 1794 3597 1259 
Q 3597 606 3158 257 
Q 2719 -91 1894 -91 
Q 1528 -91 1179 -12 
Q 831 66 488 225 
L 488 1131 
L 838 1131 
Q 869 681 1141 450 
Q 1413 219 1906 219 
Q 2384 219 2661 495 
Q 2938 772 2938 1253 
Q 2938 1803 2653 2086 
Q 2369 2369 1819 2369 
L 1522 2369 
L 1522 2688 
L 1678 2688 
Q 2225 2688 2498 2914 
Q 2772 3141 2772 3597 
Q 2772 4006 2547 4223 
Q 2322 4441 1900 4441 
Q 1478 4441 1245 4241 
Q 1013 4041 972 3647 
L 622 3647 
L 622 4469 
z
" transform="scale(0.015625)"/>
       </defs>
       <use xlink:href="#DejaVuSerif-33"/>
       <use xlink:href="#DejaVuSerif-30" x="63.623047"/>
      </g>
     </g>
    </g>
    <g id="xtick_15">
     <g id="line2d_32"/>
     <g id="text_18">
      <!-- 40 -->
      <g style="fill: #262626" transform="translate(179.900728 196.18201) scale(0.07 -0.07)">
       <use xlink:href="#DejaVuSerif-34"/>
       <use xlink:href="#DejaVuSerif-30" x="63.623047"/>
      </g>
     </g>
    </g>
    <g id="text_19">
     <!-- Time [s] -->
     <g style="fill: #262626" transform="translate(101.384471 206.196854) scale(0.06 -0.06)">
      <defs>
       <path id="DejaVuSerif-54" d="M 1222 0 
L 1222 331 
L 1819 331 
L 1819 4294 
L 447 4294 
L 447 3566 
L 63 3566 
L 63 4666 
L 4206 4666 
L 4206 3566 
L 3822 3566 
L 3822 4294 
L 2450 4294 
L 2450 331 
L 3047 331 
L 3047 0 
L 1222 0 
z
" transform="scale(0.015625)"/>
      </defs>
      <use xlink:href="#DejaVuSerif-54"/>
      <use xlink:href="#DejaVuSerif-69" x="66.699219"/>
      <use xlink:href="#DejaVuSerif-6d" x="98.681641"/>
      <use xlink:href="#DejaVuSerif-65" x="193.505859"/>
      <use xlink:href="#DejaVuSerif-20" x="252.685547"/>
      <use xlink:href="#DejaVuSerif-5b" x="284.472656"/>
      <use xlink:href="#DejaVuSerif-73" x="323.486328"/>
      <use xlink:href="#DejaVuSerif-5d" x="374.804688"/>
     </g>
    </g>
   </g>
   <g id="matplotlib.axis_6">
    <g id="ytick_9">
     <g id="line2d_33"/>
     <g id="text_20">
      <!-- −20 -->
      <g style="fill: #262626" transform="translate(22.946719 186.268341) scale(0.07 -0.07)">
       <use xlink:href="#DejaVuSerif-2212"/>
       <use xlink:href="#DejaVuSerif-32" x="83.789062"/>
       <use xlink:href="#DejaVuSerif-30" x="147.412109"/>
      </g>
     </g>
    </g>
    <g id="ytick_10">
     <g id="line2d_34"/>
     <g id="text_21">
      <!-- −10 -->
      <g style="fill: #262626" transform="translate(22.946719 167.91603) scale(0.07 -0.07)">
       <use xlink:href="#DejaVuSerif-2212"/>
       <use xlink:href="#DejaVuSerif-31" x="83.789062"/>
       <use xlink:href="#DejaVuSerif-30" x="147.412109"/>
      </g>
     </g>
    </g>
    <g id="ytick_11">
     <g id="line2d_35"/>
     <g id="text_22">
      <!-- 0 -->
      <g style="fill: #262626" transform="translate(33.26625 149.56372) scale(0.07 -0.07)">
       <use xlink:href="#DejaVuSerif-30"/>
      </g>
     </g>
    </g>
    <g id="ytick_12">
     <g id="line2d_36"/>
     <g id="text_23">
      <!-- 10 -->
      <g style="fill: #262626" transform="translate(28.8125 131.21141) scale(0.07 -0.07)">
       <use xlink:href="#DejaVuSerif-31"/>
       <use xlink:href="#DejaVuSerif-30" x="63.623047"/>
      </g>
     </g>
    </g>
    <g id="ytick_13">
     <g id="line2d_37"/>
     <g id="text_24">
      <!-- 20 -->
      <g style="fill: #262626" transform="translate(28.8125 112.859099) scale(0.07 -0.07)">
       <use xlink:href="#DejaVuSerif-32"/>
       <use xlink:href="#DejaVuSerif-30" x="63.623047"/>
      </g>
     </g>
    </g>
    <g id="text_25">
     <!-- $\delta$ [deg] -->
     <g style="fill: #262626" transform="translate(17.566719 157.712328) rotate(-90) scale(0.06 -0.06)">
      <defs>
       <path id="DejaVuSans-Oblique-3b4" d="M 3472 4053 
Q 3197 4272 2450 4272 
Q 1659 4272 1588 3906 
Q 1531 3619 2328 3469 
Q 2953 3353 3253 3003 
Q 3616 2581 3447 1716 
Q 3284 888 2763 400 
Q 2238 -91 1488 -91 
Q 741 -91 406 400 
Q 72 888 241 1747 
Q 363 2384 891 2900 
Q 1097 3100 1353 3213 
Q 913 3459 1000 3900 
Q 1166 4750 2544 4750 
Q 3234 4750 3566 4531 
L 3472 4053 
z
M 1753 3056 
Q 1525 2966 1306 2738 
Q 969 2384 847 1747 
Q 722 1113 919 756 
Q 1119 397 1584 397 
Q 2044 397 2381 759 
Q 2722 1122 2838 1716 
Q 2956 2338 2731 2638 
Q 2491 2959 2103 2994 
Q 1906 3013 1753 3056 
z
" transform="scale(0.015625)"/>
      </defs>
      <use xlink:href="#DejaVuSans-Oblique-3b4" transform="translate(0 0.015625)"/>
      <use xlink:href="#DejaVuSerif-20" transform="translate(61.181641 0.015625)"/>
      <use xlink:href="#DejaVuSerif-5b" transform="translate(92.96875 0.015625)"/>
      <use xlink:href="#DejaVuSerif-64" transform="translate(131.982422 0.015625)"/>
      <use xlink:href="#DejaVuSerif-65" transform="translate(195.996094 0.015625)"/>
      <use xlink:href="#DejaVuSerif-67" transform="translate(255.175781 0.015625)"/>
      <use xlink:href="#DejaVuSerif-5d" transform="translate(319.189453 0.015625)"/>
     </g>
    </g>
   </g>
   <g id="line2d_38">
    <path d="M 47.81812 146.904267 
L 52.49449 183.608888 
L 69.93701 183.608888 
L 79.187348 110.199646 
L 122.981385 110.199646 
L 132.231723 183.608888 
L 179.78051 183.608888 
L 179.78051 183.608888 
" clip-path="url(#p556c72ce31)" style="fill: none; stroke: #ff0000; stroke-width: 0.4; stroke-linecap: round"/>
   </g>
   <g id="line2d_39">
    <path d="M 47.81812 146.904267 
L 52.49449 183.608888 
L 68.878853 183.608888 
L 78.129191 110.199646 
L 118.10021 110.199646 
L 127.350548 183.608888 
L 169.779222 183.608888 
L 169.779222 183.608888 
" clip-path="url(#p556c72ce31)" style="fill: none; stroke: #0000ff; stroke-width: 0.4; stroke-linecap: round"/>
   </g>
   <g id="patch_9">
    <path d="M 41.22 187.363104 
L 41.22 106.521552 
" style="fill: none; stroke: #000000; stroke-linejoin: miter; stroke-linecap: square"/>
   </g>
   <g id="patch_10">
    <path d="M 41.22 187.363104 
L 186.378629 187.363104 
" style="fill: none; stroke: #000000; stroke-linejoin: miter; stroke-linecap: square"/>
   </g>
   <g id="line2d_40">
    <path d="M 47.81812 147.055075 
L 52.426269 183.688488 
L 52.869965 183.608775 
L 72.258134 183.608775 
L 72.428853 182.24145 
L 76.490755 149.710732 
L 79.426334 126.231365 
L 81.337796 110.906402 
L 81.508469 110.217712 
L 83.044548 110.199041 
L 131.173573 110.199041 
L 131.275958 110.976779 
L 131.924506 116.21197 
L 140.423918 183.665508 
L 140.867641 183.607339 
L 143.461852 183.608775 
L 169.74507 183.607339 
L 169.74507 183.607339 
" clip-path="url(#p556c72ce31)" style="fill: none; stroke: #000000; stroke-width: 0.7; stroke-linecap: round"/>
   </g>
  </g>
  <g id="axes_4">
   <g id="patch_11">
    <path d="M 230.12964 187.363104 
L 375.288269 187.363104 
L 375.288269 106.521552 
L 230.12964 106.521552 
z
" style="fill: #ffffff"/>
   </g>
   <g id="matplotlib.axis_7">
    <g id="xtick_16">
     <g id="line2d_41"/>
     <g id="text_26">
      <!-- 0 -->
      <g style="fill: #262626" transform="translate(234.500885 196.18201) scale(0.07 -0.07)">
       <use xlink:href="#DejaVuSerif-30"/>
      </g>
     </g>
    </g>
    <g id="xtick_17">
     <g id="line2d_42"/>
     <g id="text_27">
      <!-- 10 -->
      <g style="fill: #262626" transform="translate(266.408099 196.18201) scale(0.07 -0.07)">
       <use xlink:href="#DejaVuSerif-31"/>
       <use xlink:href="#DejaVuSerif-30" x="63.623047"/>
      </g>
     </g>
    </g>
    <g id="xtick_18">
     <g id="line2d_43"/>
     <g id="text_28">
      <!-- 20 -->
      <g style="fill: #262626" transform="translate(300.542189 196.18201) scale(0.07 -0.07)">
       <use xlink:href="#DejaVuSerif-32"/>
       <use xlink:href="#DejaVuSerif-30" x="63.623047"/>
      </g>
     </g>
    </g>
    <g id="xtick_19">
     <g id="line2d_44"/>
     <g id="text_29">
      <!-- 30 -->
      <g style="fill: #262626" transform="translate(334.676278 196.18201) scale(0.07 -0.07)">
       <use xlink:href="#DejaVuSerif-33"/>
       <use xlink:href="#DejaVuSerif-30" x="63.623047"/>
      </g>
     </g>
    </g>
    <g id="xtick_20">
     <g id="line2d_45"/>
     <g id="text_30">
      <!-- 40 -->
      <g style="fill: #262626" transform="translate(368.810368 196.18201) scale(0.07 -0.07)">
       <use xlink:href="#DejaVuSerif-34"/>
       <use xlink:href="#DejaVuSerif-30" x="63.623047"/>
      </g>
     </g>
    </g>
    <g id="text_31">
     <!-- Time [s] -->
     <g style="fill: #262626" transform="translate(290.294111 206.196854) scale(0.06 -0.06)">
      <use xlink:href="#DejaVuSerif-54"/>
      <use xlink:href="#DejaVuSerif-69" x="66.699219"/>
      <use xlink:href="#DejaVuSerif-6d" x="98.681641"/>
      <use xlink:href="#DejaVuSerif-65" x="193.505859"/>
      <use xlink:href="#DejaVuSerif-20" x="252.685547"/>
      <use xlink:href="#DejaVuSerif-5b" x="284.472656"/>
      <use xlink:href="#DejaVuSerif-73" x="323.486328"/>
      <use xlink:href="#DejaVuSerif-5d" x="374.804688"/>
     </g>
    </g>
   </g>
   <g id="matplotlib.axis_8">
    <g id="ytick_14">
     <g id="line2d_46"/>
     <g id="text_32">
      <!-- −20 -->
      <g style="fill: #262626" transform="translate(211.856359 173.511314) scale(0.07 -0.07)">
       <use xlink:href="#DejaVuSerif-2212"/>
       <use xlink:href="#DejaVuSerif-32" x="83.789062"/>
       <use xlink:href="#DejaVuSerif-30" x="147.412109"/>
      </g>
     </g>
    </g>
    <g id="ytick_15">
     <g id="line2d_47"/>
     <g id="text_33">
      <!-- 0 -->
      <g style="fill: #262626" transform="translate(222.17589 149.025665) scale(0.07 -0.07)">
       <use xlink:href="#DejaVuSerif-30"/>
      </g>
     </g>
    </g>
    <g id="ytick_16">
     <g id="line2d_48"/>
     <g id="text_34">
      <!-- 20 -->
      <g style="fill: #262626" transform="translate(217.72214 124.540015) scale(0.07 -0.07)">
       <use xlink:href="#DejaVuSerif-32"/>
       <use xlink:href="#DejaVuSerif-30" x="63.623047"/>
      </g>
     </g>
    </g>
    <g id="text_35">
     <!-- $\psi$ [deg] -->
     <g style="fill: #262626" transform="translate(206.476359 157.832328) rotate(-90) scale(0.06 -0.06)">
      <defs>
       <path id="DejaVuSans-Oblique-3c8" d="M 1591 -78 
Q 891 38 616 341 
Q 278 713 425 1472 
L 819 3500 
L 1400 3500 
L 1009 1494 
Q 900 922 1119 684 
Q 1313 478 1691 434 
L 2284 3500 
L 2856 3500 
L 2263 438 
Q 2681 481 2928 688 
Q 3247 950 3353 1497 
L 3741 3500 
L 4322 3500 
L 3928 1475 
Q 3775 688 3300 344 
Q 2872 34 2163 -75 
L 1919 -1331 
L 1347 -1331 
L 1591 -78 
z
" transform="scale(0.015625)"/>
      </defs>
      <use xlink:href="#DejaVuSans-Oblique-3c8" transform="translate(0 0.015625)"/>
      <use xlink:href="#DejaVuSerif-20" transform="translate(65.966797 0.015625)"/>
      <use xlink:href="#DejaVuSerif-5b" transform="translate(97.753906 0.015625)"/>
      <use xlink:href="#DejaVuSerif-64" transform="translate(136.767578 0.015625)"/>
      <use xlink:href="#DejaVuSerif-65" transform="translate(200.78125 0.015625)"/>
      <use xlink:href="#DejaVuSerif-67" transform="translate(259.960938 0.015625)"/>
      <use xlink:href="#DejaVuSerif-5d" transform="translate(323.974609 0.015625)"/>
     </g>
    </g>
   </g>
   <g id="line2d_49">
    <path d="M 236.72776 146.366212 
L 239.014744 146.258263 
L 240.311839 145.96904 
L 241.472398 145.480448 
L 242.667091 144.722101 
L 244.032455 143.583671 
L 245.636757 141.942542 
L 247.514132 139.69051 
L 249.766982 136.624545 
L 252.497709 132.514299 
L 255.911118 126.954142 
L 263.52302 114.354963 
L 264.956652 112.623831 
L 266.185479 111.476487 
L 267.27777 110.751112 
L 268.267658 110.352959 
L 269.257547 110.199932 
L 270.28157 110.267671 
L 271.407995 110.569082 
L 272.670956 111.147549 
L 274.104588 112.063209 
L 275.70889 113.359403 
L 277.552131 115.140292 
L 279.668444 117.504706 
L 282.091965 120.558326 
L 284.959228 124.539725 
L 288.236101 129.494587 
L 292.195655 135.89333 
L 297.281634 144.560475 
L 303.83538 156.179282 
L 315.918847 177.729964 
L 317.52315 179.960492 
L 318.888513 181.49414 
L 320.083206 182.519657 
L 321.141363 183.157105 
L 322.19952 183.534646 
L 323.291811 183.684589 
L 324.45237 183.615386 
L 325.715331 183.31109 
L 327.080695 182.750191 
L 328.616729 181.869486 
L 330.323433 180.626387 
L 332.234942 178.948593 
L 334.351256 176.786869 
L 336.774776 173.981327 
L 339.505503 170.469566 
L 342.64584 166.057682 
L 346.229919 160.627545 
L 350.530814 153.67866 
L 356.128805 144.200728 
L 363.296964 131.598439 
L 368.69015 121.934449 
L 368.69015 121.934449 
" clip-path="url(#pc02fac9fac)" style="fill: none; stroke: #ff0000; stroke-width: 0.4; stroke-linecap: round"/>
   </g>
   <g id="line2d_50">
    <path d="M 236.72776 146.366212 
L 238.946475 146.259544 
L 240.209437 145.968444 
L 241.301728 145.491694 
L 242.428152 144.745282 
L 243.725248 143.604329 
L 245.261282 141.939255 
L 247.070389 139.629626 
L 249.25497 136.464049 
L 251.951563 132.144413 
L 255.603911 125.840438 
L 261.474974 115.642296 
L 262.840338 113.8347 
L 264.035031 112.597638 
L 265.093188 111.801789 
L 266.083077 111.329466 
L 267.004697 111.134333 
L 267.926317 111.171577 
L 268.95034 111.445377 
L 270.076765 111.981866 
L 271.37386 112.853525 
L 272.87576 114.143544 
L 274.582465 115.911772 
L 276.596376 118.333467 
L 278.951628 121.532148 
L 281.682356 125.627374 
L 285.027496 131.068177 
L 289.157721 138.254565 
L 295.711466 150.118197 
L 309.911248 175.856781 
L 311.481416 178.135577 
L 312.778511 179.64831 
L 313.93907 180.676374 
L 314.997227 181.327042 
L 315.987116 181.678376 
L 316.94287 181.782511 
L 318.001027 181.664121 
L 319.161586 181.307009 
L 320.492815 180.654529 
L 321.994715 179.659412 
L 323.667286 178.279396 
L 325.544661 176.435577 
L 327.62684 174.075233 
L 329.982092 171.056972 
L 332.678685 167.224157 
L 335.784888 162.404372 
L 339.64204 155.99739 
L 344.728019 147.101279 
L 355.650928 127.369067 
L 358.688862 121.903163 
L 358.688862 121.903163 
" clip-path="url(#pc02fac9fac)" style="fill: none; stroke: #0000ff; stroke-width: 0.4; stroke-linecap: round"/>
   </g>
   <g id="patch_12">
    <path d="M 230.12964 187.363104 
L 230.12964 106.521552 
" style="fill: none; stroke: #000000; stroke-linejoin: miter; stroke-linecap: square"/>
   </g>
   <g id="patch_13">
    <path d="M 230.12964 187.363104 
L 375.288269 187.363104 
" style="fill: none; stroke: #000000; stroke-linejoin: miter; stroke-linecap: square"/>
   </g>
   <g id="line2d_51">
    <path d="M 236.72776 146.439286 
L 238.912345 146.329269 
L 240.277705 146.034914 
L 241.472398 145.553245 
L 242.735373 144.78963 
L 244.203176 143.630199 
L 245.943984 141.960855 
L 248.094463 139.573617 
L 250.791015 136.233222 
L 254.170272 131.675529 
L 258.641842 125.248332 
L 264.274035 117.148024 
L 265.741739 115.494515 
L 267.004694 114.388399 
L 268.131214 113.680518 
L 269.189272 113.269495 
L 270.179171 113.113947 
L 271.203292 113.183311 
L 272.363749 113.496718 
L 273.694996 114.09215 
L 275.265205 115.045334 
L 277.108381 116.436801 
L 279.258862 118.352191 
L 281.818902 120.943557 
L 285.164043 124.665418 
L 289.36258 129.685651 
L 294.858121 136.625761 
L 301.480175 145.337386 
L 310.867132 158.107468 
L 322.950477 174.68292 
L 324.486507 176.294925 
L 325.817761 177.380604 
L 327.012423 178.077682 
L 328.138899 178.480878 
L 329.197032 178.629153 
L 330.289303 178.554074 
L 331.552284 178.236864 
L 333.054212 177.620542 
L 334.829157 176.64468 
L 336.911323 175.238309 
L 339.232454 173.391606 
L 341.92903 170.947064 
L 345.68377 167.212223 
L 350.32601 162.277785 
L 354.592808 157.426532 
L 358.65471 152.529049 
L 358.65471 152.529049 
" clip-path="url(#pc02fac9fac)" style="fill: none; stroke: #000000; stroke-width: 0.7; stroke-linecap: round"/>
   </g>
  </g>
 </g>
 <defs>
  <clipPath id="p567d262769">
   <rect x="41.22" y="10.8" width="145.158629" height="80.841552"/>
  </clipPath>
  <clipPath id="p7708d9f0ae">
   <rect x="230.12964" y="10.8" width="145.158629" height="80.841552"/>
  </clipPath>
  <clipPath id="p556c72ce31">
   <rect x="41.22" y="106.521552" width="145.158629" height="80.841552"/>
  </clipPath>
  <clipPath id="pc02fac9fac">
   <rect x="230.12964" y="106.521552" width="145.158629" height="80.841552"/>
  </clipPath>
 </defs>
</svg>
