<?xml version="1.0" encoding="utf-8" standalone="no"?>
<!DOCTYPE svg PUBLIC "-//W3C//DTD SVG 1.1//EN"
  "http://www.w3.org/Graphics/SVG/1.1/DTD/svg11.dtd">
<svg xmlns:xlink="http://www.w3.org/1999/xlink" width="388.61928pt" height="109.311552pt" viewBox="0 0 388.61928 109.311552" xmlns="http://www.w3.org/2000/svg" version="1.1">
 <metadata>
  <rdf:RDF xmlns:dc="http://purl.org/dc/elements/1.1/" xmlns:cc="http://creativecommons.org/ns#" xmlns:rdf="http://www.w3.org/1999/02/22-rdf-syntax-ns#">
   <cc:Work>
    <dc:type rdf:resource="http://purl.org/dc/dcmitype/StillImage"/>
    <dc:date>2024-11-12T17:46:26.962804</dc:date>
    <dc:format>image/svg+xml</dc:format>
    <dc:creator>
     <cc:Agent>
      <dc:title>Matplotlib v3.8.2, https://matplotlib.org/</dc:title>
     </cc:Agent>
    </dc:creator>
   </cc:Work>
  </rdf:RDF>
 </metadata>
 <defs>
  <style type="text/css">*{stroke-linejoin: round; stroke-linecap: butt}</style>
 </defs>
 <g id="figure_1">
  <g id="patch_1">
   <path d="M 0 109.311552 
L 388.61928 109.311552 
L 388.61928 0 
L 0 0 
z
" style="fill: #ffffff"/>
  </g>
  <g id="axes_1">
   <g id="patch_2">
    <path d="M 33.42 57.391552 
L 377.81928 57.391552 
L 377.81928 10.8 
L 33.42 10.8 
z
" style="fill: #ffffff"/>
   </g>
   <g id="matplotlib.axis_1">
    <g id="xtick_1">
     <g id="line2d_1"/>
     <g id="text_1">
      <!-- 10/10 port -->
      <g style="fill: #262626" transform="translate(78.401472 98.143583) rotate(-90) scale(0.07 -0.07)">
       <defs>
        <path id="DejaVuSerif-31" d="M 909 0 
L 909 331 
L 1722 331 
L 1722 4213 
L 781 3603 
L 781 4013 
L 1919 4750 
L 2350 4750 
L 2350 331 
L 3163 331 
L 3163 0 
L 909 0 
z
" transform="scale(0.015625)"/>
        <path id="DejaVuSerif-30" d="M 2034 219 
Q 2513 219 2750 744 
Q 2988 1269 2988 2328 
Q 2988 3391 2750 3916 
Q 2513 4441 2034 4441 
Q 1556 4441 1318 3916 
Q 1081 3391 1081 2328 
Q 1081 1269 1318 744 
Q 1556 219 2034 219 
z
M 2034 -91 
Q 1275 -91 848 546 
Q 422 1184 422 2328 
Q 422 3475 848 4112 
Q 1275 4750 2034 4750 
Q 2797 4750 3222 4112 
Q 3647 3475 3647 2328 
Q 3647 1184 3222 546 
Q 2797 -91 2034 -91 
z
" transform="scale(0.015625)"/>
        <path id="DejaVuSerif-2f" d="M 1656 4666 
L 2156 4666 
L 500 -594 
L 0 -594 
L 1656 4666 
z
" transform="scale(0.015625)"/>
        <path id="DejaVuSerif-20" transform="scale(0.015625)"/>
        <path id="DejaVuSerif-70" d="M 1313 1825 
L 1313 1497 
Q 1313 897 1542 583 
Q 1772 269 2209 269 
Q 2650 269 2876 622 
Q 3103 975 3103 1663 
Q 3103 2353 2876 2703 
Q 2650 3053 2209 3053 
Q 1772 3053 1542 2737 
Q 1313 2422 1313 1825 
z
M 738 2988 
L 184 2988 
L 184 3322 
L 1313 3322 
L 1313 2803 
Q 1481 3116 1742 3264 
Q 2003 3413 2388 3413 
Q 3000 3413 3387 2928 
Q 3775 2444 3775 1663 
Q 3775 881 3387 395 
Q 3000 -91 2388 -91 
Q 2003 -91 1742 57 
Q 1481 206 1313 519 
L 1313 -997 
L 1856 -997 
L 1856 -1331 
L 184 -1331 
L 184 -997 
L 738 -997 
L 738 2988 
z
" transform="scale(0.015625)"/>
        <path id="DejaVuSerif-6f" d="M 1925 219 
Q 2388 219 2623 584 
Q 2859 950 2859 1663 
Q 2859 2375 2623 2739 
Q 2388 3103 1925 3103 
Q 1463 3103 1227 2739 
Q 991 2375 991 1663 
Q 991 950 1228 584 
Q 1466 219 1925 219 
z
M 1925 -91 
Q 1200 -91 759 389 
Q 319 869 319 1663 
Q 319 2456 758 2934 
Q 1197 3413 1925 3413 
Q 2653 3413 3092 2934 
Q 3531 2456 3531 1663 
Q 3531 869 3092 389 
Q 2653 -91 1925 -91 
z
" transform="scale(0.015625)"/>
        <path id="DejaVuSerif-72" d="M 3059 3328 
L 3059 2497 
L 2728 2497 
Q 2713 2744 2591 2866 
Q 2469 2988 2234 2988 
Q 1809 2988 1582 2694 
Q 1356 2400 1356 1850 
L 1356 331 
L 2022 331 
L 2022 0 
L 263 0 
L 263 331 
L 781 331 
L 781 2994 
L 231 2994 
L 231 3322 
L 1356 3322 
L 1356 2731 
Q 1525 3078 1790 3245 
Q 2056 3413 2438 3413 
Q 2578 3413 2733 3391 
Q 2888 3369 3059 3328 
z
" transform="scale(0.015625)"/>
        <path id="DejaVuSerif-74" d="M 691 2988 
L 184 2988 
L 184 3322 
L 691 3322 
L 691 4353 
L 1269 4353 
L 1269 3322 
L 2350 3322 
L 2350 2988 
L 1269 2988 
L 1269 878 
Q 1269 456 1350 337 
Q 1431 219 1650 219 
Q 1875 219 1978 351 
Q 2081 484 2088 781 
L 2522 781 
Q 2497 328 2275 118 
Q 2053 -91 1600 -91 
Q 1103 -91 897 129 
Q 691 350 691 878 
L 691 2988 
z
" transform="scale(0.015625)"/>
       </defs>
       <use xlink:href="#DejaVuSerif-31"/>
       <use xlink:href="#DejaVuSerif-30" x="63.623047"/>
       <use xlink:href="#DejaVuSerif-2f" x="127.246094"/>
       <use xlink:href="#DejaVuSerif-31" x="160.9375"/>
       <use xlink:href="#DejaVuSerif-30" x="224.560547"/>
       <use xlink:href="#DejaVuSerif-20" x="288.183594"/>
       <use xlink:href="#DejaVuSerif-70" x="319.970703"/>
       <use xlink:href="#DejaVuSerif-6f" x="383.984375"/>
       <use xlink:href="#DejaVuSerif-72" x="444.189453"/>
       <use xlink:href="#DejaVuSerif-74" x="491.992188"/>
      </g>
     </g>
    </g>
    <g id="xtick_2">
     <g id="line2d_2"/>
     <g id="text_2">
      <!-- 10/10 stbd -->
      <g style="fill: #262626" transform="translate(164.501293 98.656552) rotate(-90) scale(0.07 -0.07)">
       <defs>
        <path id="DejaVuSerif-73" d="M 359 184 
L 359 959 
L 691 959 
Q 703 588 923 403 
Q 1144 219 1575 219 
Q 1963 219 2166 364 
Q 2369 509 2369 788 
Q 2369 1006 2220 1140 
Q 2072 1275 1594 1428 
L 1178 1569 
Q 750 1706 558 1912 
Q 366 2119 366 2438 
Q 366 2894 700 3153 
Q 1034 3413 1625 3413 
Q 1888 3413 2178 3344 
Q 2469 3275 2778 3144 
L 2778 2419 
L 2447 2419 
Q 2434 2741 2221 2922 
Q 2009 3103 1644 3103 
Q 1281 3103 1095 2975 
Q 909 2847 909 2591 
Q 909 2381 1050 2254 
Q 1191 2128 1613 1997 
L 2069 1856 
Q 2541 1709 2748 1489 
Q 2956 1269 2956 922 
Q 2956 450 2595 179 
Q 2234 -91 1600 -91 
Q 1278 -91 972 -22 
Q 666 47 359 184 
z
" transform="scale(0.015625)"/>
        <path id="DejaVuSerif-62" d="M 738 331 
L 738 4531 
L 184 4531 
L 184 4863 
L 1313 4863 
L 1313 2803 
Q 1481 3116 1742 3264 
Q 2003 3413 2388 3413 
Q 3000 3413 3387 2928 
Q 3775 2444 3775 1663 
Q 3775 881 3387 395 
Q 3000 -91 2388 -91 
Q 2003 -91 1742 57 
Q 1481 206 1313 519 
L 1313 0 
L 184 0 
L 184 331 
L 738 331 
z
M 1313 1497 
Q 1313 897 1542 583 
Q 1772 269 2209 269 
Q 2650 269 2876 622 
Q 3103 975 3103 1663 
Q 3103 2353 2876 2703 
Q 2650 3053 2209 3053 
Q 1772 3053 1542 2737 
Q 1313 2422 1313 1825 
L 1313 1497 
z
" transform="scale(0.015625)"/>
        <path id="DejaVuSerif-64" d="M 3359 331 
L 3909 331 
L 3909 0 
L 2784 0 
L 2784 519 
Q 2616 206 2355 57 
Q 2094 -91 1709 -91 
Q 1097 -91 708 395 
Q 319 881 319 1663 
Q 319 2444 706 2928 
Q 1094 3413 1709 3413 
Q 2094 3413 2355 3264 
Q 2616 3116 2784 2803 
L 2784 4531 
L 2241 4531 
L 2241 4863 
L 3359 4863 
L 3359 331 
z
M 2784 1497 
L 2784 1825 
Q 2784 2422 2554 2737 
Q 2325 3053 1888 3053 
Q 1444 3053 1217 2703 
Q 991 2353 991 1663 
Q 991 975 1217 622 
Q 1444 269 1888 269 
Q 2325 269 2554 583 
Q 2784 897 2784 1497 
z
" transform="scale(0.015625)"/>
       </defs>
       <use xlink:href="#DejaVuSerif-31"/>
       <use xlink:href="#DejaVuSerif-30" x="63.623047"/>
       <use xlink:href="#DejaVuSerif-2f" x="127.246094"/>
       <use xlink:href="#DejaVuSerif-31" x="160.9375"/>
       <use xlink:href="#DejaVuSerif-30" x="224.560547"/>
       <use xlink:href="#DejaVuSerif-20" x="288.183594"/>
       <use xlink:href="#DejaVuSerif-73" x="319.970703"/>
       <use xlink:href="#DejaVuSerif-74" x="371.289062"/>
       <use xlink:href="#DejaVuSerif-62" x="411.474609"/>
       <use xlink:href="#DejaVuSerif-64" x="475.488281"/>
      </g>
     </g>
    </g>
    <g id="xtick_3">
     <g id="line2d_3"/>
     <g id="text_3">
      <!-- 20/20 port -->
      <g style="fill: #262626" transform="translate(250.601112 98.143583) rotate(-90) scale(0.07 -0.07)">
       <defs>
        <path id="DejaVuSerif-32" d="M 819 3553 
L 469 3553 
L 469 4384 
Q 803 4563 1142 4656 
Q 1481 4750 1806 4750 
Q 2534 4750 2956 4397 
Q 3378 4044 3378 3438 
Q 3378 2753 2422 1800 
Q 2347 1728 2309 1691 
L 1131 513 
L 3078 513 
L 3078 1088 
L 3444 1088 
L 3444 0 
L 434 0 
L 434 341 
L 1850 1753 
Q 2319 2222 2519 2614 
Q 2719 3006 2719 3438 
Q 2719 3909 2473 4175 
Q 2228 4441 1797 4441 
Q 1350 4441 1106 4219 
Q 863 3997 819 3553 
z
" transform="scale(0.015625)"/>
       </defs>
       <use xlink:href="#DejaVuSerif-32"/>
       <use xlink:href="#DejaVuSerif-30" x="63.623047"/>
       <use xlink:href="#DejaVuSerif-2f" x="127.246094"/>
       <use xlink:href="#DejaVuSerif-32" x="160.9375"/>
       <use xlink:href="#DejaVuSerif-30" x="224.560547"/>
       <use xlink:href="#DejaVuSerif-20" x="288.183594"/>
       <use xlink:href="#DejaVuSerif-70" x="319.970703"/>
       <use xlink:href="#DejaVuSerif-6f" x="383.984375"/>
       <use xlink:href="#DejaVuSerif-72" x="444.189453"/>
       <use xlink:href="#DejaVuSerif-74" x="491.992188"/>
      </g>
     </g>
    </g>
    <g id="xtick_4">
     <g id="line2d_4"/>
     <g id="text_4">
      <!-- 20/20 stbd -->
      <g style="fill: #262626" transform="translate(336.700932 98.656552) rotate(-90) scale(0.07 -0.07)">
       <use xlink:href="#DejaVuSerif-32"/>
       <use xlink:href="#DejaVuSerif-30" x="63.623047"/>
       <use xlink:href="#DejaVuSerif-2f" x="127.246094"/>
       <use xlink:href="#DejaVuSerif-32" x="160.9375"/>
       <use xlink:href="#DejaVuSerif-30" x="224.560547"/>
       <use xlink:href="#DejaVuSerif-20" x="288.183594"/>
       <use xlink:href="#DejaVuSerif-73" x="319.970703"/>
       <use xlink:href="#DejaVuSerif-74" x="371.289062"/>
       <use xlink:href="#DejaVuSerif-62" x="411.474609"/>
       <use xlink:href="#DejaVuSerif-64" x="475.488281"/>
      </g>
     </g>
    </g>
   </g>
   <g id="matplotlib.axis_2">
    <g id="ytick_1">
     <g id="line2d_5"/>
     <g id="text_5">
      <!-- 0 -->
      <g style="fill: #262626" transform="translate(25.46625 60.051005) scale(0.07 -0.07)">
       <use xlink:href="#DejaVuSerif-30"/>
      </g>
     </g>
    </g>
    <g id="ytick_2">
     <g id="line2d_6"/>
     <g id="text_6">
      <!-- 10 -->
      <g style="fill: #262626" transform="translate(21.0125 37.790695) scale(0.07 -0.07)">
       <use xlink:href="#DejaVuSerif-31"/>
       <use xlink:href="#DejaVuSerif-30" x="63.623047"/>
      </g>
     </g>
    </g>
    <g id="ytick_3">
     <g id="line2d_7"/>
     <g id="text_7">
      <!-- 20 -->
      <g style="fill: #262626" transform="translate(21.0125 15.530385) scale(0.07 -0.07)">
       <use xlink:href="#DejaVuSerif-32"/>
       <use xlink:href="#DejaVuSerif-30" x="63.623047"/>
      </g>
     </g>
    </g>
    <g id="text_8">
     <!-- 2nd overshoot [deg] -->
     <g style="fill: #262626" transform="translate(15.679375 64.721557) rotate(-90) scale(0.06 -0.06)">
      <defs>
       <path id="DejaVuSerif-6e" d="M 263 0 
L 263 331 
L 781 331 
L 781 2988 
L 231 2988 
L 231 3322 
L 1356 3322 
L 1356 2731 
Q 1516 3069 1770 3241 
Q 2025 3413 2363 3413 
Q 2913 3413 3172 3097 
Q 3431 2781 3431 2113 
L 3431 331 
L 3944 331 
L 3944 0 
L 2356 0 
L 2356 331 
L 2853 331 
L 2853 1931 
Q 2853 2541 2703 2767 
Q 2553 2994 2175 2994 
Q 1775 2994 1565 2701 
Q 1356 2409 1356 1850 
L 1356 331 
L 1856 331 
L 1856 0 
L 263 0 
z
" transform="scale(0.015625)"/>
       <path id="DejaVuSerif-76" d="M 1581 0 
L 359 2988 
L -19 2988 
L -19 3322 
L 1509 3322 
L 1509 2988 
L 978 2988 
L 1913 703 
L 2847 2988 
L 2350 2988 
L 2350 3322 
L 3597 3322 
L 3597 2988 
L 3225 2988 
L 2003 0 
L 1581 0 
z
" transform="scale(0.015625)"/>
       <path id="DejaVuSerif-65" d="M 3469 1600 
L 991 1600 
L 991 1575 
Q 991 903 1244 561 
Q 1497 219 1991 219 
Q 2369 219 2611 417 
Q 2853 616 2950 1006 
L 3413 1006 
Q 3275 459 2904 184 
Q 2534 -91 1931 -91 
Q 1203 -91 761 389 
Q 319 869 319 1663 
Q 319 2450 753 2931 
Q 1188 3413 1894 3413 
Q 2647 3413 3050 2948 
Q 3453 2484 3469 1600 
z
M 2791 1931 
Q 2772 2513 2545 2808 
Q 2319 3103 1894 3103 
Q 1497 3103 1269 2806 
Q 1041 2509 991 1931 
L 2791 1931 
z
" transform="scale(0.015625)"/>
       <path id="DejaVuSerif-68" d="M 263 0 
L 263 331 
L 781 331 
L 781 4531 
L 231 4531 
L 231 4863 
L 1356 4863 
L 1356 2731 
Q 1516 3069 1770 3241 
Q 2025 3413 2363 3413 
Q 2913 3413 3172 3097 
Q 3431 2781 3431 2113 
L 3431 331 
L 3944 331 
L 3944 0 
L 2356 0 
L 2356 331 
L 2853 331 
L 2853 1931 
Q 2853 2541 2704 2764 
Q 2556 2988 2175 2988 
Q 1775 2988 1565 2697 
Q 1356 2406 1356 1850 
L 1356 331 
L 1856 331 
L 1856 0 
L 263 0 
z
" transform="scale(0.015625)"/>
       <path id="DejaVuSerif-5b" d="M 550 4863 
L 2003 4863 
L 2003 4531 
L 1147 4531 
L 1147 -513 
L 2003 -513 
L 2003 -844 
L 550 -844 
L 550 4863 
z
" transform="scale(0.015625)"/>
       <path id="DejaVuSerif-67" d="M 3359 2988 
L 3359 72 
Q 3359 -644 2965 -1033 
Q 2572 -1422 1844 -1422 
Q 1516 -1422 1216 -1362 
Q 916 -1303 641 -1184 
L 641 -488 
L 941 -488 
Q 997 -813 1206 -963 
Q 1416 -1113 1806 -1113 
Q 2313 -1113 2548 -827 
Q 2784 -541 2784 72 
L 2784 519 
Q 2616 206 2355 57 
Q 2094 -91 1709 -91 
Q 1097 -91 708 395 
Q 319 881 319 1663 
Q 319 2444 706 2928 
Q 1094 3413 1709 3413 
Q 2094 3413 2355 3264 
Q 2616 3116 2784 2803 
L 2784 3322 
L 3909 3322 
L 3909 2988 
L 3359 2988 
z
M 2784 1825 
Q 2784 2422 2554 2737 
Q 2325 3053 1888 3053 
Q 1444 3053 1217 2703 
Q 991 2353 991 1663 
Q 991 975 1217 622 
Q 1444 269 1888 269 
Q 2325 269 2554 583 
Q 2784 897 2784 1497 
L 2784 1825 
z
" transform="scale(0.015625)"/>
       <path id="DejaVuSerif-5d" d="M 1947 4863 
L 1947 -844 
L 494 -844 
L 494 -513 
L 1350 -513 
L 1350 4531 
L 494 4531 
L 494 4863 
L 1947 4863 
z
" transform="scale(0.015625)"/>
      </defs>
      <use xlink:href="#DejaVuSerif-32"/>
      <use xlink:href="#DejaVuSerif-6e" x="63.623047"/>
      <use xlink:href="#DejaVuSerif-64" x="128.027344"/>
      <use xlink:href="#DejaVuSerif-20" x="192.041016"/>
      <use xlink:href="#DejaVuSerif-6f" x="223.828125"/>
      <use xlink:href="#DejaVuSerif-76" x="284.033203"/>
      <use xlink:href="#DejaVuSerif-65" x="340.527344"/>
      <use xlink:href="#DejaVuSerif-72" x="399.707031"/>
      <use xlink:href="#DejaVuSerif-73" x="447.509766"/>
      <use xlink:href="#DejaVuSerif-68" x="498.828125"/>
      <use xlink:href="#DejaVuSerif-6f" x="563.232422"/>
      <use xlink:href="#DejaVuSerif-6f" x="623.4375"/>
      <use xlink:href="#DejaVuSerif-74" x="683.642578"/>
      <use xlink:href="#DejaVuSerif-20" x="723.828125"/>
      <use xlink:href="#DejaVuSerif-5b" x="755.615234"/>
      <use xlink:href="#DejaVuSerif-64" x="794.628906"/>
      <use xlink:href="#DejaVuSerif-65" x="858.642578"/>
      <use xlink:href="#DejaVuSerif-67" x="917.822266"/>
      <use xlink:href="#DejaVuSerif-5d" x="981.835938"/>
     </g>
    </g>
   </g>
   <g id="patch_3">
    <path d="M 54.944955 57.391552 
L 69.294925 57.391552 
L 69.294925 23.763209 
L 54.944955 23.763209 
z
" clip-path="url(#pc1ba73f085)"/>
   </g>
   <g id="patch_4">
    <path d="M 141.044775 57.391552 
L 155.394745 57.391552 
L 155.394745 18.811 
L 141.044775 18.811 
z
" clip-path="url(#pc1ba73f085)"/>
   </g>
   <g id="patch_5">
    <path d="M 227.144595 57.391552 
L 241.494565 57.391552 
L 241.494565 30.023521 
L 227.144595 30.023521 
z
" clip-path="url(#pc1ba73f085)"/>
   </g>
   <g id="patch_6">
    <path d="M 313.244415 57.391552 
L 327.594385 57.391552 
L 327.594385 26.33619 
L 313.244415 26.33619 
z
" clip-path="url(#pc1ba73f085)"/>
   </g>
   <g id="patch_7">
    <path d="M 69.294925 57.391552 
L 83.644895 57.391552 
L 83.644895 26.327142 
L 69.294925 26.327142 
z
" clip-path="url(#pc1ba73f085)" style="fill: #ff0000"/>
   </g>
   <g id="patch_8">
    <path d="M 155.394745 57.391552 
L 169.744715 57.391552 
L 169.744715 31.381937 
L 155.394745 31.381937 
z
" clip-path="url(#pc1ba73f085)" style="fill: #ff0000"/>
   </g>
   <g id="patch_9">
    <path d="M 241.494565 57.391552 
L 255.844535 57.391552 
L 255.844535 17.264604 
L 241.494565 17.264604 
z
" clip-path="url(#pc1ba73f085)" style="fill: #ff0000"/>
   </g>
   <g id="patch_10">
    <path d="M 327.594385 57.391552 
L 341.944355 57.391552 
L 341.944355 13.018645 
L 327.594385 13.018645 
z
" clip-path="url(#pc1ba73f085)" style="fill: #ff0000"/>
   </g>
   <g id="patch_11">
    <path d="M 83.644895 57.391552 
L 97.994865 57.391552 
L 97.994865 24.1744 
L 83.644895 24.1744 
z
" clip-path="url(#pc1ba73f085)" style="fill: #0000ff"/>
   </g>
   <g id="patch_12">
    <path d="M 169.744715 57.391552 
L 184.094685 57.391552 
L 184.094685 33.325807 
L 169.744715 33.325807 
z
" clip-path="url(#pc1ba73f085)" style="fill: #0000ff"/>
   </g>
   <g id="patch_13">
    <path d="M 255.844535 57.391552 
L 270.194505 57.391552 
L 270.194505 23.674094 
L 255.844535 23.674094 
z
" clip-path="url(#pc1ba73f085)" style="fill: #0000ff"/>
   </g>
   <g id="patch_14">
    <path d="M 341.944355 57.391552 
L 356.294325 57.391552 
L 356.294325 27.633453 
L 341.944355 27.633453 
z
" clip-path="url(#pc1ba73f085)" style="fill: #0000ff"/>
   </g>
   <g id="patch_15">
    <path d="M 33.42 57.391552 
L 33.42 10.8 
" style="fill: none; stroke: #000000; stroke-linejoin: miter; stroke-linecap: square"/>
   </g>
   <g id="patch_16">
    <path d="M 33.42 57.391552 
L 377.81928 57.391552 
" style="fill: none; stroke: #000000; stroke-linejoin: miter; stroke-linecap: square"/>
   </g>
  </g>
 </g>
 <defs>
  <clipPath id="pc1ba73f085">
   <rect x="33.42" y="10.8" width="344.39928" height="46.591552"/>
  </clipPath>
 </defs>
</svg>
