<?xml version="1.0" encoding="utf-8" standalone="no"?>
<!DOCTYPE svg PUBLIC "-//W3C//DTD SVG 1.1//EN"
  "http://www.w3.org/Graphics/SVG/1.1/DTD/svg11.dtd">
<svg xmlns:xlink="http://www.w3.org/1999/xlink" width="194.30964pt" height="145.748736pt" viewBox="0 0 194.30964 145.748736" xmlns="http://www.w3.org/2000/svg" version="1.1">
 <metadata>
  <rdf:RDF xmlns:dc="http://purl.org/dc/elements/1.1/" xmlns:cc="http://creativecommons.org/ns#" xmlns:rdf="http://www.w3.org/1999/02/22-rdf-syntax-ns#">
   <cc:Work>
    <dc:type rdf:resource="http://purl.org/dc/dcmitype/StillImage"/>
    <dc:date>2024-11-18T07:52:09.827408</dc:date>
    <dc:format>image/svg+xml</dc:format>
    <dc:creator>
     <cc:Agent>
      <dc:title>Matplotlib v3.8.2, https://matplotlib.org/</dc:title>
     </cc:Agent>
    </dc:creator>
   </cc:Work>
  </rdf:RDF>
 </metadata>
 <defs>
  <style type="text/css">*{stroke-linejoin: round; stroke-linecap: butt}</style>
 </defs>
 <g id="figure_1">
  <g id="patch_1">
   <path d="M 0 145.748736 
L 194.30964 145.748736 
L 194.30964 0 
L 0 0 
z
" style="fill: #ffffff"/>
  </g>
  <g id="axes_1">
   <g id="patch_2">
    <path d="M 20.61 62.383865 
L 188.90964 62.383865 
L 188.90964 7.2 
L 20.61 7.2 
z
" style="fill: #ffffff"/>
   </g>
   <g id="matplotlib.axis_1">
    <g id="xtick_1">
     <g id="line2d_1"/>
    </g>
    <g id="xtick_2">
     <g id="line2d_2"/>
    </g>
    <g id="xtick_3">
     <g id="line2d_3"/>
    </g>
    <g id="xtick_4">
     <g id="line2d_4"/>
    </g>
    <g id="xtick_5">
     <g id="line2d_5"/>
    </g>
   </g>
   <g id="matplotlib.axis_2">
    <g id="ytick_1">
     <g id="line2d_6"/>
     <g id="text_1">
      <!-- −10 -->
      <g style="fill: #262626" transform="translate(2.336719 62.028594) scale(0.07 -0.07)">
       <defs>
        <path id="DejaVuSerif-2212" d="M 678 2259 
L 4684 2259 
L 4684 1753 
L 678 1753 
L 678 2259 
z
" transform="scale(0.015625)"/>
        <path id="DejaVuSerif-31" d="M 909 0 
L 909 331 
L 1722 331 
L 1722 4213 
L 781 3603 
L 781 4013 
L 1919 4750 
L 2350 4750 
L 2350 331 
L 3163 331 
L 3163 0 
L 909 0 
z
" transform="scale(0.015625)"/>
        <path id="DejaVuSerif-30" d="M 2034 219 
Q 2513 219 2750 744 
Q 2988 1269 2988 2328 
Q 2988 3391 2750 3916 
Q 2513 4441 2034 4441 
Q 1556 4441 1318 3916 
Q 1081 3391 1081 2328 
Q 1081 1269 1318 744 
Q 1556 219 2034 219 
z
M 2034 -91 
Q 1275 -91 848 546 
Q 422 1184 422 2328 
Q 422 3475 848 4112 
Q 1275 4750 2034 4750 
Q 2797 4750 3222 4112 
Q 3647 3475 3647 2328 
Q 3647 1184 3222 546 
Q 2797 -91 2034 -91 
z
" transform="scale(0.015625)"/>
       </defs>
       <use xlink:href="#DejaVuSerif-2212"/>
       <use xlink:href="#DejaVuSerif-31" x="83.789062"/>
       <use xlink:href="#DejaVuSerif-30" x="147.412109"/>
      </g>
     </g>
    </g>
    <g id="ytick_2">
     <g id="line2d_7"/>
     <g id="text_2">
      <!-- 0 -->
      <g style="fill: #262626" transform="translate(12.65625 38.199568) scale(0.07 -0.07)">
       <use xlink:href="#DejaVuSerif-30"/>
      </g>
     </g>
    </g>
    <g id="ytick_3">
     <g id="line2d_8"/>
     <g id="text_3">
      <!-- 10 -->
      <g style="fill: #262626" transform="translate(8.2025 14.370541) scale(0.07 -0.07)">
       <use xlink:href="#DejaVuSerif-31"/>
       <use xlink:href="#DejaVuSerif-30" x="63.623047"/>
      </g>
     </g>
    </g>
    <g id="text_4">
     <!-- $\beta$ [deg] -->
     <g style="fill: #262626" transform="translate(-3.043281 45.621932) rotate(-90) scale(0.06 -0.06)">
      <defs>
       <path id="DejaVuSans-Oblique-3b2" d="M 872 216 
L 572 -1331 
L -6 -1331 
L 928 3478 
Q 1206 4903 2538 4903 
Q 3888 4903 3659 3700 
Q 3503 2844 2894 2531 
Q 3713 2250 3553 1416 
Q 3272 -69 1759 -66 
Q 1097 -63 872 216 
z
M 1019 966 
Q 1259 422 1875 425 
Q 2775 425 2966 1406 
Q 3138 2288 1675 2219 
L 1778 2750 
Q 2909 2731 3106 3750 
Q 3241 4438 2509 4434 
Q 1691 4434 1503 3459 
L 1019 966 
z
" transform="scale(0.015625)"/>
       <path id="DejaVuSerif-20" transform="scale(0.015625)"/>
       <path id="DejaVuSerif-5b" d="M 550 4863 
L 2003 4863 
L 2003 4531 
L 1147 4531 
L 1147 -513 
L 2003 -513 
L 2003 -844 
L 550 -844 
L 550 4863 
z
" transform="scale(0.015625)"/>
       <path id="DejaVuSerif-64" d="M 3359 331 
L 3909 331 
L 3909 0 
L 2784 0 
L 2784 519 
Q 2616 206 2355 57 
Q 2094 -91 1709 -91 
Q 1097 -91 708 395 
Q 319 881 319 1663 
Q 319 2444 706 2928 
Q 1094 3413 1709 3413 
Q 2094 3413 2355 3264 
Q 2616 3116 2784 2803 
L 2784 4531 
L 2241 4531 
L 2241 4863 
L 3359 4863 
L 3359 331 
z
M 2784 1497 
L 2784 1825 
Q 2784 2422 2554 2737 
Q 2325 3053 1888 3053 
Q 1444 3053 1217 2703 
Q 991 2353 991 1663 
Q 991 975 1217 622 
Q 1444 269 1888 269 
Q 2325 269 2554 583 
Q 2784 897 2784 1497 
z
" transform="scale(0.015625)"/>
       <path id="DejaVuSerif-65" d="M 3469 1600 
L 991 1600 
L 991 1575 
Q 991 903 1244 561 
Q 1497 219 1991 219 
Q 2369 219 2611 417 
Q 2853 616 2950 1006 
L 3413 1006 
Q 3275 459 2904 184 
Q 2534 -91 1931 -91 
Q 1203 -91 761 389 
Q 319 869 319 1663 
Q 319 2450 753 2931 
Q 1188 3413 1894 3413 
Q 2647 3413 3050 2948 
Q 3453 2484 3469 1600 
z
M 2791 1931 
Q 2772 2513 2545 2808 
Q 2319 3103 1894 3103 
Q 1497 3103 1269 2806 
Q 1041 2509 991 1931 
L 2791 1931 
z
" transform="scale(0.015625)"/>
       <path id="DejaVuSerif-67" d="M 3359 2988 
L 3359 72 
Q 3359 -644 2965 -1033 
Q 2572 -1422 1844 -1422 
Q 1516 -1422 1216 -1362 
Q 916 -1303 641 -1184 
L 641 -488 
L 941 -488 
Q 997 -813 1206 -963 
Q 1416 -1113 1806 -1113 
Q 2313 -1113 2548 -827 
Q 2784 -541 2784 72 
L 2784 519 
Q 2616 206 2355 57 
Q 2094 -91 1709 -91 
Q 1097 -91 708 395 
Q 319 881 319 1663 
Q 319 2444 706 2928 
Q 1094 3413 1709 3413 
Q 2094 3413 2355 3264 
Q 2616 3116 2784 2803 
L 2784 3322 
L 3909 3322 
L 3909 2988 
L 3359 2988 
z
M 2784 1825 
Q 2784 2422 2554 2737 
Q 2325 3053 1888 3053 
Q 1444 3053 1217 2703 
Q 991 2353 991 1663 
Q 991 975 1217 622 
Q 1444 269 1888 269 
Q 2325 269 2554 583 
Q 2784 897 2784 1497 
L 2784 1825 
z
" transform="scale(0.015625)"/>
       <path id="DejaVuSerif-5d" d="M 1947 4863 
L 1947 -844 
L 494 -844 
L 494 -513 
L 1350 -513 
L 1350 4531 
L 494 4531 
L 494 4863 
L 1947 4863 
z
" transform="scale(0.015625)"/>
      </defs>
      <use xlink:href="#DejaVuSans-Oblique-3b2" transform="translate(0 0.390625)"/>
      <use xlink:href="#DejaVuSerif-20" transform="translate(63.818359 0.390625)"/>
      <use xlink:href="#DejaVuSerif-5b" transform="translate(95.605469 0.390625)"/>
      <use xlink:href="#DejaVuSerif-64" transform="translate(134.619141 0.390625)"/>
      <use xlink:href="#DejaVuSerif-65" transform="translate(198.632812 0.390625)"/>
      <use xlink:href="#DejaVuSerif-67" transform="translate(257.8125 0.390625)"/>
      <use xlink:href="#DejaVuSerif-5d" transform="translate(321.826172 0.390625)"/>
     </g>
    </g>
   </g>
   <g id="line2d_9">
    <path d="M 28.259984 35.540115 
L 28.977198 35.653491 
L 29.676481 35.997251 
L 30.465417 36.657762 
L 32.383964 38.628152 
L 34.894213 41.55656 
L 42.532542 50.681055 
L 44.612462 52.707208 
L 45.293816 53.11574 
L 45.939308 53.250928 
L 46.602731 53.160359 
L 47.319945 52.828801 
L 48.144741 52.18673 
L 57.576105 43.422567 
L 62.381439 38.587691 
L 67.07919 33.540247 
L 78.142216 21.467456 
L 80.634535 19.212172 
L 82.875828 17.476442 
L 85.00954 16.10016 
L 87.143252 14.985171 
L 89.366615 14.074185 
L 91.769282 13.331828 
L 94.548486 12.707652 
L 95.696028 12.599702 
L 96.395312 12.808659 
L 97.238038 13.309838 
L 98.295929 14.217648 
L 100.752387 16.456472 
L 102.921959 18.027251 
L 106.56182 20.351543 
L 125.567991 32.170264 
L 132.650479 36.949702 
L 148.967097 48.095893 
L 153.055217 50.514347 
L 156.713008 52.423898 
L 160.209426 53.999544 
L 163.723775 55.340179 
L 167.399496 56.502905 
L 171.433825 57.542149 
L 176.221228 58.537153 
L 181.259656 59.421261 
L 181.259656 59.421261 
" clip-path="url(#p2d57dfbfd8)" style="fill: none; stroke: #ff0000; stroke-width: 0.4; stroke-linecap: round"/>
   </g>
   <g id="line2d_10">
    <path d="M 28.259984 35.540115 
L 28.941337 35.610768 
L 29.58683 35.904893 
L 30.250252 36.46536 
L 31.863984 38.239236 
L 34.176999 41.119535 
L 40.847089 49.629394 
L 43.016661 51.981167 
L 44.46902 53.274143 
L 45.150373 53.574702 
L 45.795865 53.618486 
L 46.441358 53.437565 
L 47.104781 53.014085 
L 47.839925 52.268851 
L 51.372204 47.984235 
L 53.810732 44.607214 
L 56.697518 40.233543 
L 59.225697 35.991949 
L 63.600703 28.063935 
L 66.361976 23.33282 
L 68.280524 20.464313 
L 70.001837 18.284567 
L 71.597639 16.622525 
L 73.19344 15.277204 
L 74.789241 14.198537 
L 76.474694 13.336991 
L 78.411171 12.608677 
L 80.562813 12.045085 
L 81.835868 11.904981 
L 82.46343 12.126629 
L 83.180644 12.626628 
L 84.00544 13.480136 
L 84.973679 14.815208 
L 86.784645 17.372839 
L 95.749819 29.055978 
L 101.200646 37.078111 
L 106.02391 44.07514 
L 108.58795 47.431206 
L 110.775452 49.95967 
L 112.855373 52.025099 
L 114.935293 53.769998 
L 116.907632 55.122969 
L 118.951692 56.259836 
L 121.049543 57.190776 
L 123.201185 57.913922 
L 125.585921 58.478511 
L 128.042379 58.861056 
L 128.042379 58.861056 
" clip-path="url(#p2d57dfbfd8)" style="fill: none; stroke: #0000ff; stroke-width: 0.4; stroke-linecap: round"/>
   </g>
   <g id="line2d_11">
    <path d="M 28.259984 35.540115 
L 28.923407 35.611793 
L 29.568899 35.910716 
L 30.268183 36.492263 
L 31.810193 38.151182 
L 33.818392 40.646624 
L 36.7769 44.725066 
L 41.707746 51.50265 
L 43.572502 53.673621 
L 44.289716 54.194211 
L 44.953139 54.418112 
L 45.634492 54.412569 
L 46.297915 54.190524 
L 47.248224 53.607302 
L 49.63296 51.805548 
L 51.730811 49.910798 
L 53.846592 47.675519 
L 56.052025 45.045595 
L 58.454692 41.825567 
L 61.180105 37.779573 
L 70.844564 23.092916 
L 73.067927 20.34155 
L 75.076126 18.202904 
L 77.012604 16.481703 
L 78.913221 15.096644 
L 80.831769 13.98372 
L 82.839968 13.081087 
L 84.955749 12.386361 
L 87.55565 11.783312 
L 88.61354 11.70158 
L 89.312824 11.920271 
L 90.15555 12.436774 
L 91.123789 13.297232 
L 93.580247 15.975025 
L 96.861501 19.60756 
L 100.859969 24.485704 
L 104.356387 29.140236 
L 107.852805 34.138743 
L 112.747791 41.578897 
L 117.051075 47.953199 
L 119.615115 51.342636 
L 121.677105 53.706497 
L 123.47014 55.421137 
L 125.155593 56.737352 
L 126.823115 57.765042 
L 128.580289 58.576035 
L 130.391255 59.189139 
L 132.453245 59.646864 
L 134.192489 59.875507 
L 134.192489 59.875507 
" clip-path="url(#p2d57dfbfd8)" style="fill: none; stroke: #00bfbf; stroke-width: 0.4; stroke-linecap: round"/>
   </g>
   <g id="patch_3">
    <path d="M 20.61 62.383865 
L 20.61 7.2 
" style="fill: none; stroke: #000000; stroke-linejoin: miter; stroke-linecap: square"/>
   </g>
   <g id="patch_4">
    <path d="M 20.61 62.383865 
L 188.90964 62.383865 
" style="fill: none; stroke: #000000; stroke-linejoin: miter; stroke-linecap: square"/>
   </g>
   <g id="legend_1"/>
   <g id="line2d_12">
    <path d="M 28.259984 35.731316 
L 28.941321 35.934047 
L 29.694399 36.404936 
L 31.469491 37.939823 
L 34.302529 40.42355 
L 35.683143 41.985416 
L 37.476171 44.392834 
L 41.90496 50.458441 
L 43.554554 52.258109 
L 44.325559 52.725032 
L 45.096557 52.935937 
L 45.83171 52.906146 
L 46.566878 52.637066 
L 47.804047 52.045736 
L 49.794314 51.156052 
L 50.834272 50.399696 
L 51.999797 49.251345 
L 53.48796 47.471276 
L 58.508471 41.434052 
L 60.355291 39.075255 
L 64.676507 32.926024 
L 70.163196 25.05619 
L 72.906527 21.519239 
L 75.578164 18.405922 
L 77.371199 16.642031 
L 80.222108 14.15973 
L 81.602761 13.205308 
L 84.364019 11.530956 
L 86.677054 10.444284 
L 88.523885 9.856335 
L 89.47419 9.708676 
L 90.137607 9.834241 
L 91.087907 10.316426 
L 91.912703 10.932143 
L 96.215985 15.170249 
L 98.439377 18.121195 
L 100.842022 21.860003 
L 102.599238 24.393669 
L 120.404025 47.565877 
L 122.824633 50.272522 
L 125.209364 52.638627 
L 129.440937 56.258757 
L 132.058754 57.964476 
L 134.192471 59.117154 
L 134.192471 59.117154 
" clip-path="url(#p2d57dfbfd8)" style="fill: none; stroke: #000000; stroke-width: 0.7; stroke-linecap: round"/>
   </g>
  </g>
  <g id="axes_2">
   <g id="patch_5">
    <path d="M 20.61 124.908736 
L 188.90964 124.908736 
L 188.90964 69.724871 
L 20.61 69.724871 
z
" style="fill: #ffffff"/>
   </g>
   <g id="matplotlib.axis_3">
    <g id="xtick_6">
     <g id="line2d_13"/>
     <g id="text_5">
      <!-- 0 -->
      <g style="fill: #262626" transform="translate(26.033109 133.727642) scale(0.07 -0.07)">
       <use xlink:href="#DejaVuSerif-30"/>
      </g>
     </g>
    </g>
    <g id="xtick_7">
     <g id="line2d_14"/>
     <g id="text_6">
      <!-- 20 -->
      <g style="fill: #262626" transform="translate(59.666933 133.727642) scale(0.07 -0.07)">
       <defs>
        <path id="DejaVuSerif-32" d="M 819 3553 
L 469 3553 
L 469 4384 
Q 803 4563 1142 4656 
Q 1481 4750 1806 4750 
Q 2534 4750 2956 4397 
Q 3378 4044 3378 3438 
Q 3378 2753 2422 1800 
Q 2347 1728 2309 1691 
L 1131 513 
L 3078 513 
L 3078 1088 
L 3444 1088 
L 3444 0 
L 434 0 
L 434 341 
L 1850 1753 
Q 2319 2222 2519 2614 
Q 2719 3006 2719 3438 
Q 2719 3909 2473 4175 
Q 2228 4441 1797 4441 
Q 1350 4441 1106 4219 
Q 863 3997 819 3553 
z
" transform="scale(0.015625)"/>
       </defs>
       <use xlink:href="#DejaVuSerif-32"/>
       <use xlink:href="#DejaVuSerif-30" x="63.623047"/>
      </g>
     </g>
    </g>
    <g id="xtick_8">
     <g id="line2d_15"/>
     <g id="text_7">
      <!-- 40 -->
      <g style="fill: #262626" transform="translate(95.527632 133.727642) scale(0.07 -0.07)">
       <defs>
        <path id="DejaVuSerif-34" d="M 2234 1581 
L 2234 4063 
L 641 1581 
L 2234 1581 
z
M 3609 0 
L 1484 0 
L 1484 331 
L 2234 331 
L 2234 1247 
L 197 1247 
L 197 1588 
L 2241 4750 
L 2859 4750 
L 2859 1581 
L 3750 1581 
L 3750 1247 
L 2859 1247 
L 2859 331 
L 3609 331 
L 3609 0 
z
" transform="scale(0.015625)"/>
       </defs>
       <use xlink:href="#DejaVuSerif-34"/>
       <use xlink:href="#DejaVuSerif-30" x="63.623047"/>
      </g>
     </g>
    </g>
    <g id="xtick_9">
     <g id="line2d_16"/>
     <g id="text_8">
      <!-- 60 -->
      <g style="fill: #262626" transform="translate(131.388331 133.727642) scale(0.07 -0.07)">
       <defs>
        <path id="DejaVuSerif-36" d="M 2094 219 
Q 2534 219 2771 542 
Q 3009 866 3009 1472 
Q 3009 2078 2771 2401 
Q 2534 2725 2094 2725 
Q 1647 2725 1412 2412 
Q 1178 2100 1178 1509 
Q 1178 888 1415 553 
Q 1653 219 2094 219 
z
M 1075 2569 
Q 1288 2803 1556 2918 
Q 1825 3034 2163 3034 
Q 2859 3034 3264 2615 
Q 3669 2197 3669 1472 
Q 3669 763 3233 336 
Q 2797 -91 2069 -91 
Q 1278 -91 853 498 
Q 428 1088 428 2181 
Q 428 3406 931 4078 
Q 1434 4750 2350 4750 
Q 2597 4750 2869 4703 
Q 3141 4656 3425 4563 
L 3425 3794 
L 3072 3794 
Q 3034 4109 2831 4275 
Q 2628 4441 2284 4441 
Q 1678 4441 1381 3981 
Q 1084 3522 1075 2569 
z
" transform="scale(0.015625)"/>
       </defs>
       <use xlink:href="#DejaVuSerif-36"/>
       <use xlink:href="#DejaVuSerif-30" x="63.623047"/>
      </g>
     </g>
    </g>
    <g id="xtick_10">
     <g id="line2d_17"/>
     <g id="text_9">
      <!-- 80 -->
      <g style="fill: #262626" transform="translate(167.24903 133.727642) scale(0.07 -0.07)">
       <defs>
        <path id="DejaVuSerif-38" d="M 2981 1275 
Q 2981 1775 2732 2051 
Q 2484 2328 2034 2328 
Q 1584 2328 1336 2051 
Q 1088 1775 1088 1275 
Q 1088 772 1336 495 
Q 1584 219 2034 219 
Q 2484 219 2732 495 
Q 2981 772 2981 1275 
z
M 2853 3541 
Q 2853 3966 2637 4203 
Q 2422 4441 2034 4441 
Q 1650 4441 1433 4203 
Q 1216 3966 1216 3541 
Q 1216 3113 1433 2875 
Q 1650 2638 2034 2638 
Q 2422 2638 2637 2875 
Q 2853 3113 2853 3541 
z
M 2516 2484 
Q 3047 2413 3344 2092 
Q 3641 1772 3641 1275 
Q 3641 619 3225 264 
Q 2809 -91 2034 -91 
Q 1263 -91 845 264 
Q 428 619 428 1275 
Q 428 1772 725 2092 
Q 1022 2413 1556 2484 
Q 1084 2569 832 2842 
Q 581 3116 581 3541 
Q 581 4103 968 4426 
Q 1356 4750 2034 4750 
Q 2713 4750 3100 4426 
Q 3488 4103 3488 3541 
Q 3488 3116 3236 2842 
Q 2984 2569 2516 2484 
z
" transform="scale(0.015625)"/>
       </defs>
       <use xlink:href="#DejaVuSerif-38"/>
       <use xlink:href="#DejaVuSerif-30" x="63.623047"/>
      </g>
     </g>
    </g>
    <g id="text_10">
     <!-- Time [s] -->
     <g style="fill: #262626" transform="translate(92.344976 143.742486) scale(0.06 -0.06)">
      <defs>
       <path id="DejaVuSerif-54" d="M 1222 0 
L 1222 331 
L 1819 331 
L 1819 4294 
L 447 4294 
L 447 3566 
L 63 3566 
L 63 4666 
L 4206 4666 
L 4206 3566 
L 3822 3566 
L 3822 4294 
L 2450 4294 
L 2450 331 
L 3047 331 
L 3047 0 
L 1222 0 
z
" transform="scale(0.015625)"/>
       <path id="DejaVuSerif-69" d="M 622 4353 
Q 622 4497 726 4603 
Q 831 4709 978 4709 
Q 1122 4709 1226 4603 
Q 1331 4497 1331 4353 
Q 1331 4206 1228 4103 
Q 1125 4000 978 4000 
Q 831 4000 726 4103 
Q 622 4206 622 4353 
z
M 1356 331 
L 1900 331 
L 1900 0 
L 231 0 
L 231 331 
L 781 331 
L 781 2988 
L 231 2988 
L 231 3322 
L 1356 3322 
L 1356 331 
z
" transform="scale(0.015625)"/>
       <path id="DejaVuSerif-6d" d="M 3316 2675 
Q 3481 3041 3739 3227 
Q 3997 3413 4341 3413 
Q 4863 3413 5119 3089 
Q 5375 2766 5375 2113 
L 5375 331 
L 5894 331 
L 5894 0 
L 4300 0 
L 4300 331 
L 4800 331 
L 4800 2047 
Q 4800 2556 4650 2772 
Q 4500 2988 4153 2988 
Q 3769 2988 3567 2697 
Q 3366 2406 3366 1850 
L 3366 331 
L 3866 331 
L 3866 0 
L 2291 0 
L 2291 331 
L 2791 331 
L 2791 2069 
Q 2791 2566 2641 2777 
Q 2491 2988 2144 2988 
Q 1759 2988 1557 2697 
Q 1356 2406 1356 1850 
L 1356 331 
L 1856 331 
L 1856 0 
L 263 0 
L 263 331 
L 781 331 
L 781 2994 
L 231 2994 
L 231 3322 
L 1356 3322 
L 1356 2731 
Q 1516 3063 1762 3238 
Q 2009 3413 2322 3413 
Q 2709 3413 2968 3220 
Q 3228 3028 3316 2675 
z
" transform="scale(0.015625)"/>
       <path id="DejaVuSerif-73" d="M 359 184 
L 359 959 
L 691 959 
Q 703 588 923 403 
Q 1144 219 1575 219 
Q 1963 219 2166 364 
Q 2369 509 2369 788 
Q 2369 1006 2220 1140 
Q 2072 1275 1594 1428 
L 1178 1569 
Q 750 1706 558 1912 
Q 366 2119 366 2438 
Q 366 2894 700 3153 
Q 1034 3413 1625 3413 
Q 1888 3413 2178 3344 
Q 2469 3275 2778 3144 
L 2778 2419 
L 2447 2419 
Q 2434 2741 2221 2922 
Q 2009 3103 1644 3103 
Q 1281 3103 1095 2975 
Q 909 2847 909 2591 
Q 909 2381 1050 2254 
Q 1191 2128 1613 1997 
L 2069 1856 
Q 2541 1709 2748 1489 
Q 2956 1269 2956 922 
Q 2956 450 2595 179 
Q 2234 -91 1600 -91 
Q 1278 -91 972 -22 
Q 666 47 359 184 
z
" transform="scale(0.015625)"/>
      </defs>
      <use xlink:href="#DejaVuSerif-54"/>
      <use xlink:href="#DejaVuSerif-69" x="66.699219"/>
      <use xlink:href="#DejaVuSerif-6d" x="98.681641"/>
      <use xlink:href="#DejaVuSerif-65" x="193.505859"/>
      <use xlink:href="#DejaVuSerif-20" x="252.685547"/>
      <use xlink:href="#DejaVuSerif-5b" x="284.472656"/>
      <use xlink:href="#DejaVuSerif-73" x="323.486328"/>
      <use xlink:href="#DejaVuSerif-5d" x="374.804688"/>
     </g>
    </g>
   </g>
   <g id="matplotlib.axis_4">
    <g id="ytick_4">
     <g id="line2d_18"/>
     <g id="text_11">
      <!-- −25 -->
      <g style="fill: #262626" transform="translate(2.336719 116.455147) scale(0.07 -0.07)">
       <defs>
        <path id="DejaVuSerif-35" d="M 3219 4666 
L 3219 4153 
L 1081 4153 
L 1081 2816 
Q 1244 2928 1461 2984 
Q 1678 3041 1947 3041 
Q 2703 3041 3140 2622 
Q 3578 2203 3578 1478 
Q 3578 738 3136 323 
Q 2694 -91 1894 -91 
Q 1572 -91 1234 -12 
Q 897 66 544 225 
L 544 1131 
L 897 1131 
Q 925 688 1179 453 
Q 1434 219 1894 219 
Q 2388 219 2653 544 
Q 2919 869 2919 1478 
Q 2919 2084 2655 2407 
Q 2391 2731 1894 2731 
Q 1613 2731 1398 2631 
Q 1184 2531 1019 2322 
L 750 2322 
L 750 4666 
L 3219 4666 
z
" transform="scale(0.015625)"/>
       </defs>
       <use xlink:href="#DejaVuSerif-2212"/>
       <use xlink:href="#DejaVuSerif-32" x="83.789062"/>
       <use xlink:href="#DejaVuSerif-35" x="147.412109"/>
      </g>
     </g>
    </g>
    <g id="ytick_5">
     <g id="line2d_19"/>
     <g id="text_12">
      <!-- 0 -->
      <g style="fill: #262626" transform="translate(12.65625 100.178444) scale(0.07 -0.07)">
       <use xlink:href="#DejaVuSerif-30"/>
      </g>
     </g>
    </g>
    <g id="ytick_6">
     <g id="line2d_20"/>
     <g id="text_13">
      <!-- 25 -->
      <g style="fill: #262626" transform="translate(8.2025 83.901742) scale(0.07 -0.07)">
       <use xlink:href="#DejaVuSerif-32"/>
       <use xlink:href="#DejaVuSerif-35" x="63.623047"/>
      </g>
     </g>
    </g>
    <g id="text_14">
     <!-- $\psi$ [deg] -->
     <g style="fill: #262626" transform="translate(-3.043281 108.206804) rotate(-90) scale(0.06 -0.06)">
      <defs>
       <path id="DejaVuSans-Oblique-3c8" d="M 1591 -78 
Q 891 38 616 341 
Q 278 713 425 1472 
L 819 3500 
L 1400 3500 
L 1009 1494 
Q 900 922 1119 684 
Q 1313 478 1691 434 
L 2284 3500 
L 2856 3500 
L 2263 438 
Q 2681 481 2928 688 
Q 3247 950 3353 1497 
L 3741 3500 
L 4322 3500 
L 3928 1475 
Q 3775 688 3300 344 
Q 2872 34 2163 -75 
L 1919 -1331 
L 1347 -1331 
L 1591 -78 
z
" transform="scale(0.015625)"/>
      </defs>
      <use xlink:href="#DejaVuSans-Oblique-3c8" transform="translate(0 0.015625)"/>
      <use xlink:href="#DejaVuSerif-20" transform="translate(65.966797 0.015625)"/>
      <use xlink:href="#DejaVuSerif-5b" transform="translate(97.753906 0.015625)"/>
      <use xlink:href="#DejaVuSerif-64" transform="translate(136.767578 0.015625)"/>
      <use xlink:href="#DejaVuSerif-65" transform="translate(200.78125 0.015625)"/>
      <use xlink:href="#DejaVuSerif-67" transform="translate(259.960938 0.015625)"/>
      <use xlink:href="#DejaVuSerif-5d" transform="translate(323.974609 0.015625)"/>
     </g>
    </g>
   </g>
   <g id="line2d_21">
    <path d="M 28.259984 97.518991 
L 30.232322 97.627705 
L 31.505377 97.946453 
L 32.886014 98.52713 
L 34.392163 99.407106 
L 36.023825 100.623504 
L 37.780999 102.215805 
L 39.699547 104.264019 
L 41.797398 106.840699 
L 44.146273 110.089521 
L 47.5889 114.905927 
L 48.826095 116.192888 
L 50.099149 117.196995 
L 51.497717 118.016352 
L 53.021796 118.651531 
L 54.689319 119.105852 
L 56.500284 119.367568 
L 58.418832 119.419495 
L 60.4091 119.251541 
L 62.45316 118.855061 
L 64.51515 118.227363 
L 66.595071 117.358878 
L 68.674992 116.247517 
L 70.790773 114.860861 
L 72.942415 113.181184 
L 75.183708 111.143656 
L 77.550515 108.684996 
L 80.132485 105.673822 
L 83.073062 101.89134 
L 86.712923 96.82713 
L 92.450635 88.407667 
L 97.524924 81.072797 
L 99.031073 79.329957 
L 100.465501 78.015033 
L 102.025442 76.887889 
L 103.764686 75.906448 
L 105.719094 75.060838 
L 107.924527 74.350966 
L 110.416845 73.785543 
L 113.196049 73.386971 
L 116.208348 73.181603 
L 119.39995 73.187474 
L 122.717065 73.417025 
L 126.087971 73.873982 
L 129.458877 74.555102 
L 132.811852 75.459039 
L 136.146897 76.588632 
L 139.464012 77.946949 
L 142.799057 79.553688 
L 146.187893 81.434872 
L 149.684311 83.632297 
L 153.377963 86.219793 
L 157.412291 89.323799 
L 162.038322 93.173832 
L 167.919476 98.376174 
L 181.259656 110.52753 
L 181.259656 110.52753 
" clip-path="url(#pd66d087afd)" style="fill: none; stroke: #ff0000; stroke-width: 0.4; stroke-linecap: round"/>
   </g>
   <g id="line2d_22">
    <path d="M 28.259984 97.518991 
L 30.286113 97.628627 
L 31.487447 97.948348 
L 32.814292 98.539999 
L 34.284581 99.449944 
L 35.898313 100.719556 
L 37.673417 102.405332 
L 39.609895 104.558063 
L 41.725676 107.251629 
L 44.182134 110.753181 
L 46.853756 114.542059 
L 48.07302 115.873463 
L 49.202632 116.777085 
L 50.386035 117.443602 
L 51.623229 117.888589 
L 52.914214 118.119699 
L 54.276921 118.138657 
L 55.729279 117.934473 
L 57.217498 117.499498 
L 58.723648 116.827197 
L 60.247727 115.900396 
L 61.825598 114.67418 
L 63.47519 113.105301 
L 65.250295 111.103306 
L 67.204703 108.552967 
L 69.445997 105.247012 
L 72.20727 100.755374 
L 75.918853 94.266815 
L 84.435769 79.21971 
L 85.583311 77.820529 
L 86.730854 76.765482 
L 87.968048 75.928311 
L 89.276963 75.311068 
L 90.693461 74.890671 
L 92.19961 74.674408 
L 93.795411 74.669857 
L 95.462934 74.889281 
L 97.184247 75.341045 
L 99.013143 76.05393 
L 100.89583 77.031058 
L 102.850238 78.299755 
L 104.894298 79.8968 
L 107.04594 81.864946 
L 109.394815 84.322656 
L 112.030577 87.416061 
L 115.078736 91.34958 
L 118.790319 96.524659 
L 123.254976 103.146296 
L 128.042379 110.514964 
L 128.042379 110.514964 
" clip-path="url(#pd66d087afd)" style="fill: none; stroke: #0000ff; stroke-width: 0.4; stroke-linecap: round"/>
   </g>
   <g id="line2d_23">
    <path d="M 28.259984 97.518991 
L 30.250252 97.627571 
L 31.451586 97.943933 
L 32.742571 98.517029 
L 34.141138 99.386011 
L 35.647288 100.592025 
L 37.261019 102.177302 
L 38.982333 104.189059 
L 40.829159 106.702027 
L 42.837358 109.822358 
L 47.230293 116.848078 
L 48.593 118.43145 
L 49.991567 119.722421 
L 51.425995 120.745193 
L 52.878354 121.509189 
L 54.348642 122.032183 
L 55.836861 122.327119 
L 57.32508 122.396583 
L 58.813299 122.245054 
L 60.319449 121.865784 
L 61.861459 121.245627 
L 63.439329 120.370496 
L 65.106852 119.187862 
L 66.864026 117.663873 
L 68.728783 115.746878 
L 70.754912 113.338633 
L 73.014136 110.296109 
L 75.542315 106.506448 
L 78.554614 101.573861 
L 82.337918 94.926226 
L 88.039769 84.398489 
L 90.621739 79.788474 
L 92.056167 77.688195 
L 93.383013 76.136876 
L 94.74572 74.879808 
L 96.126357 73.902105 
L 97.560785 73.158722 
L 99.049004 72.636278 
L 100.591014 72.328654 
L 102.204745 72.233686 
L 103.872268 72.359482 
L 105.575651 72.711157 
L 107.296964 73.293941 
L 109.036208 74.11952 
L 110.793383 75.202618 
L 112.604348 76.585139 
L 114.469104 78.293591 
L 116.405582 80.374655 
L 118.467572 82.925152 
L 120.655075 85.995024 
L 123.075672 89.791109 
L 125.872807 94.605349 
L 129.458877 101.25091 
L 134.192489 110.510543 
L 134.192489 110.510543 
" clip-path="url(#pd66d087afd)" style="fill: none; stroke: #00bfbf; stroke-width: 0.4; stroke-linecap: round"/>
   </g>
   <g id="patch_6">
    <path d="M 20.61 124.908736 
L 20.61 69.724871 
" style="fill: none; stroke: #000000; stroke-linejoin: miter; stroke-linecap: square"/>
   </g>
   <g id="patch_7">
    <path d="M 20.61 124.908736 
L 188.90964 124.908736 
" style="fill: none; stroke: #000000; stroke-linejoin: miter; stroke-linecap: square"/>
   </g>
   <g id="line2d_24">
    <path d="M 28.259984 97.637069 
L 29.963349 97.811765 
L 31.128825 98.169716 
L 32.4198 98.806172 
L 33.83631 99.75784 
L 35.396245 101.078973 
L 37.117609 102.835413 
L 38.964383 105.044274 
L 40.990507 107.825595 
L 43.590407 111.803869 
L 45.634501 114.810236 
L 46.871679 116.248947 
L 48.073002 117.295966 
L 49.453637 118.203978 
L 50.959788 118.928774 
L 52.501788 119.427904 
L 54.043819 119.694407 
L 55.603747 119.740123 
L 57.181648 119.565243 
L 58.81328 119.157966 
L 60.498723 118.504186 
L 62.237982 117.586675 
L 64.120659 116.333969 
L 66.075069 114.763193 
L 68.101204 112.844218 
L 70.270764 110.473152 
L 72.798949 107.359223 
L 75.883015 103.194943 
L 80.275949 96.858109 
L 91.518235 80.371499 
L 92.71961 79.172224 
L 93.956761 78.263028 
L 95.337428 77.523168 
L 96.861494 76.959392 
L 98.5828 76.561611 
L 100.393771 76.366746 
L 102.204731 76.395317 
L 104.051555 76.649025 
L 105.98802 77.141742 
L 107.978296 77.879578 
L 110.022367 78.877689 
L 112.156064 80.17056 
L 114.361501 81.771362 
L 116.602798 83.678142 
L 118.844115 85.880564 
L 121.210896 88.528036 
L 124.025977 92.032975 
L 128.329264 97.789516 
L 134.066949 105.857583 
L 134.192471 106.037197 
L 134.192471 106.037197 
" clip-path="url(#pd66d087afd)" style="fill: none; stroke: #000000; stroke-width: 0.7; stroke-linecap: round"/>
   </g>
  </g>
 </g>
 <defs>
  <clipPath id="p2d57dfbfd8">
   <rect x="20.61" y="7.2" width="168.29964" height="55.183865"/>
  </clipPath>
  <clipPath id="pd66d087afd">
   <rect x="20.61" y="69.724871" width="168.29964" height="55.183865"/>
  </clipPath>
 </defs>
</svg>
