<?xml version="1.0" encoding="utf-8" standalone="no"?>
<!DOCTYPE svg PUBLIC "-//W3C//DTD SVG 1.1//EN"
  "http://www.w3.org/Graphics/SVG/1.1/DTD/svg11.dtd">
<svg xmlns:xlink="http://www.w3.org/1999/xlink" width="388.61928pt" height="218.623104pt" viewBox="0 0 388.61928 218.623104" xmlns="http://www.w3.org/2000/svg" version="1.1">
 <metadata>
  <rdf:RDF xmlns:dc="http://purl.org/dc/elements/1.1/" xmlns:cc="http://creativecommons.org/ns#" xmlns:rdf="http://www.w3.org/1999/02/22-rdf-syntax-ns#">
   <cc:Work>
    <dc:type rdf:resource="http://purl.org/dc/dcmitype/StillImage"/>
    <dc:date>2024-11-06T09:57:36.523520</dc:date>
    <dc:format>image/svg+xml</dc:format>
    <dc:creator>
     <cc:Agent>
      <dc:title>Matplotlib v3.8.2, https://matplotlib.org/</dc:title>
     </cc:Agent>
    </dc:creator>
   </cc:Work>
  </rdf:RDF>
 </metadata>
 <defs>
  <style type="text/css">*{stroke-linejoin: round; stroke-linecap: butt}</style>
 </defs>
 <g id="figure_1">
  <g id="patch_1">
   <path d="M 0 218.623104 
L 388.61928 218.623104 
L 388.61928 0 
L 0 0 
z
" style="fill: #ffffff"/>
  </g>
  <g id="axes_1">
   <g id="patch_2">
    <path d="M 42.36649 193.605677 
L 385.61904 193.605677 
L 385.61904 3.00024 
L 42.36649 3.00024 
z
" style="fill: #ffffff"/>
   </g>
   <g id="matplotlib.axis_1">
    <g id="xtick_1">
     <g id="line2d_1"/>
     <g id="text_1">
      <!-- 0 -->
      <g style="fill: #262626" transform="translate(55.423879 203.184427) scale(0.08 -0.08)">
       <defs>
        <path id="DejaVuSerif-30" d="M 2034 219 
Q 2513 219 2750 744 
Q 2988 1269 2988 2328 
Q 2988 3391 2750 3916 
Q 2513 4441 2034 4441 
Q 1556 4441 1318 3916 
Q 1081 3391 1081 2328 
Q 1081 1269 1318 744 
Q 1556 219 2034 219 
z
M 2034 -91 
Q 1275 -91 848 546 
Q 422 1184 422 2328 
Q 422 3475 848 4112 
Q 1275 4750 2034 4750 
Q 2797 4750 3222 4112 
Q 3647 3475 3647 2328 
Q 3647 1184 3222 546 
Q 2797 -91 2034 -91 
z
" transform="scale(0.015625)"/>
       </defs>
       <use xlink:href="#DejaVuSerif-30"/>
      </g>
     </g>
    </g>
    <g id="xtick_2">
     <g id="line2d_2"/>
     <g id="text_2">
      <!-- 5 -->
      <g style="fill: #262626" transform="translate(107.449193 203.184427) scale(0.08 -0.08)">
       <defs>
        <path id="DejaVuSerif-35" d="M 3219 4666 
L 3219 4153 
L 1081 4153 
L 1081 2816 
Q 1244 2928 1461 2984 
Q 1678 3041 1947 3041 
Q 2703 3041 3140 2622 
Q 3578 2203 3578 1478 
Q 3578 738 3136 323 
Q 2694 -91 1894 -91 
Q 1572 -91 1234 -12 
Q 897 66 544 225 
L 544 1131 
L 897 1131 
Q 925 688 1179 453 
Q 1434 219 1894 219 
Q 2388 219 2653 544 
Q 2919 869 2919 1478 
Q 2919 2084 2655 2407 
Q 2391 2731 1894 2731 
Q 1613 2731 1398 2631 
Q 1184 2531 1019 2322 
L 750 2322 
L 750 4666 
L 3219 4666 
z
" transform="scale(0.015625)"/>
       </defs>
       <use xlink:href="#DejaVuSerif-35"/>
      </g>
     </g>
    </g>
    <g id="xtick_3">
     <g id="line2d_3"/>
     <g id="text_3">
      <!-- 10 -->
      <g style="fill: #262626" transform="translate(156.929507 203.184427) scale(0.08 -0.08)">
       <defs>
        <path id="DejaVuSerif-31" d="M 909 0 
L 909 331 
L 1722 331 
L 1722 4213 
L 781 3603 
L 781 4013 
L 1919 4750 
L 2350 4750 
L 2350 331 
L 3163 331 
L 3163 0 
L 909 0 
z
" transform="scale(0.015625)"/>
       </defs>
       <use xlink:href="#DejaVuSerif-31"/>
       <use xlink:href="#DejaVuSerif-30" x="63.623047"/>
      </g>
     </g>
    </g>
    <g id="xtick_4">
     <g id="line2d_4"/>
     <g id="text_4">
      <!-- 15 -->
      <g style="fill: #262626" transform="translate(208.954822 203.184427) scale(0.08 -0.08)">
       <use xlink:href="#DejaVuSerif-31"/>
       <use xlink:href="#DejaVuSerif-35" x="63.623047"/>
      </g>
     </g>
    </g>
    <g id="xtick_5">
     <g id="line2d_5"/>
     <g id="text_5">
      <!-- 20 -->
      <g style="fill: #262626" transform="translate(260.980136 203.184427) scale(0.08 -0.08)">
       <defs>
        <path id="DejaVuSerif-32" d="M 819 3553 
L 469 3553 
L 469 4384 
Q 803 4563 1142 4656 
Q 1481 4750 1806 4750 
Q 2534 4750 2956 4397 
Q 3378 4044 3378 3438 
Q 3378 2753 2422 1800 
Q 2347 1728 2309 1691 
L 1131 513 
L 3078 513 
L 3078 1088 
L 3444 1088 
L 3444 0 
L 434 0 
L 434 341 
L 1850 1753 
Q 2319 2222 2519 2614 
Q 2719 3006 2719 3438 
Q 2719 3909 2473 4175 
Q 2228 4441 1797 4441 
Q 1350 4441 1106 4219 
Q 863 3997 819 3553 
z
" transform="scale(0.015625)"/>
       </defs>
       <use xlink:href="#DejaVuSerif-32"/>
       <use xlink:href="#DejaVuSerif-30" x="63.623047"/>
      </g>
     </g>
    </g>
    <g id="xtick_6">
     <g id="line2d_6"/>
     <g id="text_6">
      <!-- 25 -->
      <g style="fill: #262626" transform="translate(313.00545 203.184427) scale(0.08 -0.08)">
       <use xlink:href="#DejaVuSerif-32"/>
       <use xlink:href="#DejaVuSerif-35" x="63.623047"/>
      </g>
     </g>
    </g>
    <g id="xtick_7">
     <g id="line2d_7"/>
     <g id="text_7">
      <!-- 30 -->
      <g style="fill: #262626" transform="translate(365.030764 203.184427) scale(0.08 -0.08)">
       <defs>
        <path id="DejaVuSerif-33" d="M 622 4469 
Q 988 4606 1323 4678 
Q 1659 4750 1953 4750 
Q 2638 4750 3022 4454 
Q 3406 4159 3406 3634 
Q 3406 3213 3140 2930 
Q 2875 2647 2388 2547 
Q 2963 2466 3280 2130 
Q 3597 1794 3597 1259 
Q 3597 606 3158 257 
Q 2719 -91 1894 -91 
Q 1528 -91 1179 -12 
Q 831 66 488 225 
L 488 1131 
L 838 1131 
Q 869 681 1141 450 
Q 1413 219 1906 219 
Q 2384 219 2661 495 
Q 2938 772 2938 1253 
Q 2938 1803 2653 2086 
Q 2369 2369 1819 2369 
L 1522 2369 
L 1522 2688 
L 1678 2688 
Q 2225 2688 2498 2914 
Q 2772 3141 2772 3597 
Q 2772 4006 2547 4223 
Q 2322 4441 1900 4441 
Q 1478 4441 1245 4241 
Q 1013 4041 972 3647 
L 622 3647 
L 622 4469 
z
" transform="scale(0.015625)"/>
       </defs>
       <use xlink:href="#DejaVuSerif-33"/>
       <use xlink:href="#DejaVuSerif-30" x="63.623047"/>
      </g>
     </g>
    </g>
    <g id="text_8">
     <!-- time -->
     <g style="fill: #262626" transform="translate(206.076202 214.167083) scale(0.07 -0.07)">
      <defs>
       <path id="DejaVuSerif-74" d="M 691 2988 
L 184 2988 
L 184 3322 
L 691 3322 
L 691 4353 
L 1269 4353 
L 1269 3322 
L 2350 3322 
L 2350 2988 
L 1269 2988 
L 1269 878 
Q 1269 456 1350 337 
Q 1431 219 1650 219 
Q 1875 219 1978 351 
Q 2081 484 2088 781 
L 2522 781 
Q 2497 328 2275 118 
Q 2053 -91 1600 -91 
Q 1103 -91 897 129 
Q 691 350 691 878 
L 691 2988 
z
" transform="scale(0.015625)"/>
       <path id="DejaVuSerif-69" d="M 622 4353 
Q 622 4497 726 4603 
Q 831 4709 978 4709 
Q 1122 4709 1226 4603 
Q 1331 4497 1331 4353 
Q 1331 4206 1228 4103 
Q 1125 4000 978 4000 
Q 831 4000 726 4103 
Q 622 4206 622 4353 
z
M 1356 331 
L 1900 331 
L 1900 0 
L 231 0 
L 231 331 
L 781 331 
L 781 2988 
L 231 2988 
L 231 3322 
L 1356 3322 
L 1356 331 
z
" transform="scale(0.015625)"/>
       <path id="DejaVuSerif-6d" d="M 3316 2675 
Q 3481 3041 3739 3227 
Q 3997 3413 4341 3413 
Q 4863 3413 5119 3089 
Q 5375 2766 5375 2113 
L 5375 331 
L 5894 331 
L 5894 0 
L 4300 0 
L 4300 331 
L 4800 331 
L 4800 2047 
Q 4800 2556 4650 2772 
Q 4500 2988 4153 2988 
Q 3769 2988 3567 2697 
Q 3366 2406 3366 1850 
L 3366 331 
L 3866 331 
L 3866 0 
L 2291 0 
L 2291 331 
L 2791 331 
L 2791 2069 
Q 2791 2566 2641 2777 
Q 2491 2988 2144 2988 
Q 1759 2988 1557 2697 
Q 1356 2406 1356 1850 
L 1356 331 
L 1856 331 
L 1856 0 
L 263 0 
L 263 331 
L 781 331 
L 781 2994 
L 231 2994 
L 231 3322 
L 1356 3322 
L 1356 2731 
Q 1516 3063 1762 3238 
Q 2009 3413 2322 3413 
Q 2709 3413 2968 3220 
Q 3228 3028 3316 2675 
z
" transform="scale(0.015625)"/>
       <path id="DejaVuSerif-65" d="M 3469 1600 
L 991 1600 
L 991 1575 
Q 991 903 1244 561 
Q 1497 219 1991 219 
Q 2369 219 2611 417 
Q 2853 616 2950 1006 
L 3413 1006 
Q 3275 459 2904 184 
Q 2534 -91 1931 -91 
Q 1203 -91 761 389 
Q 319 869 319 1663 
Q 319 2450 753 2931 
Q 1188 3413 1894 3413 
Q 2647 3413 3050 2948 
Q 3453 2484 3469 1600 
z
M 2791 1931 
Q 2772 2513 2545 2808 
Q 2319 3103 1894 3103 
Q 1497 3103 1269 2806 
Q 1041 2509 991 1931 
L 2791 1931 
z
" transform="scale(0.015625)"/>
      </defs>
      <use xlink:href="#DejaVuSerif-74"/>
      <use xlink:href="#DejaVuSerif-69" x="40.185547"/>
      <use xlink:href="#DejaVuSerif-6d" x="72.167969"/>
      <use xlink:href="#DejaVuSerif-65" x="166.992188"/>
     </g>
    </g>
   </g>
   <g id="matplotlib.axis_2">
    <g id="ytick_1">
     <g id="line2d_8"/>
     <g id="text_9">
      <!-- −0.02 -->
      <g style="fill: #262626" transform="translate(14.35024 174.9602) scale(0.08 -0.08)">
       <defs>
        <path id="DejaVuSerif-2212" d="M 678 2259 
L 4684 2259 
L 4684 1753 
L 678 1753 
L 678 2259 
z
" transform="scale(0.015625)"/>
        <path id="DejaVuSerif-2e" d="M 603 325 
Q 603 500 722 622 
Q 841 744 1019 744 
Q 1191 744 1312 622 
Q 1434 500 1434 325 
Q 1434 153 1312 31 
Q 1191 -91 1019 -91 
Q 841 -91 722 29 
Q 603 150 603 325 
z
" transform="scale(0.015625)"/>
       </defs>
       <use xlink:href="#DejaVuSerif-2212"/>
       <use xlink:href="#DejaVuSerif-30" x="83.789062"/>
       <use xlink:href="#DejaVuSerif-2e" x="147.412109"/>
       <use xlink:href="#DejaVuSerif-30" x="179.199219"/>
       <use xlink:href="#DejaVuSerif-32" x="242.822266"/>
      </g>
     </g>
    </g>
    <g id="ytick_2">
     <g id="line2d_9"/>
     <g id="text_10">
      <!-- −0.01 -->
      <g style="fill: #262626" transform="translate(14.35024 140.119965) scale(0.08 -0.08)">
       <use xlink:href="#DejaVuSerif-2212"/>
       <use xlink:href="#DejaVuSerif-30" x="83.789062"/>
       <use xlink:href="#DejaVuSerif-2e" x="147.412109"/>
       <use xlink:href="#DejaVuSerif-30" x="179.199219"/>
       <use xlink:href="#DejaVuSerif-31" x="242.822266"/>
      </g>
     </g>
    </g>
    <g id="ytick_3">
     <g id="line2d_10"/>
     <g id="text_11">
      <!-- 0.00 -->
      <g style="fill: #262626" transform="translate(21.05399 105.27973) scale(0.08 -0.08)">
       <use xlink:href="#DejaVuSerif-30"/>
       <use xlink:href="#DejaVuSerif-2e" x="63.623047"/>
       <use xlink:href="#DejaVuSerif-30" x="95.410156"/>
       <use xlink:href="#DejaVuSerif-30" x="159.033203"/>
      </g>
     </g>
    </g>
    <g id="ytick_4">
     <g id="line2d_11"/>
     <g id="text_12">
      <!-- 0.01 -->
      <g style="fill: #262626" transform="translate(21.05399 70.439495) scale(0.08 -0.08)">
       <use xlink:href="#DejaVuSerif-30"/>
       <use xlink:href="#DejaVuSerif-2e" x="63.623047"/>
       <use xlink:href="#DejaVuSerif-30" x="95.410156"/>
       <use xlink:href="#DejaVuSerif-31" x="159.033203"/>
      </g>
     </g>
    </g>
    <g id="ytick_5">
     <g id="line2d_12"/>
     <g id="text_13">
      <!-- 0.02 -->
      <g style="fill: #262626" transform="translate(21.05399 35.599261) scale(0.08 -0.08)">
       <use xlink:href="#DejaVuSerif-30"/>
       <use xlink:href="#DejaVuSerif-2e" x="63.623047"/>
       <use xlink:href="#DejaVuSerif-30" x="95.410156"/>
       <use xlink:href="#DejaVuSerif-32" x="159.033203"/>
      </g>
     </g>
    </g>
    <g id="text_14">
     <!-- $\dot{v}$ $[m/s^2]$ -->
     <g style="fill: #262626" transform="translate(8.894459 112.477958) rotate(-90) scale(0.07 -0.07)">
      <defs>
       <path id="DejaVuSans-307" d="M -1894 4863 
L -1319 4863 
L -1319 4134 
L -1894 4134 
L -1894 4863 
z
M -1600 3584 
L -1600 3584 
z
" transform="scale(0.015625)"/>
       <path id="DejaVuSans-Oblique-76" d="M 459 3500 
L 1069 3500 
L 1581 525 
L 3256 3500 
L 3866 3500 
L 1875 0 
L 1100 0 
L 459 3500 
z
" transform="scale(0.015625)"/>
       <path id="DejaVuSerif-20" transform="scale(0.015625)"/>
       <path id="DejaVuSans-5b" d="M 550 4863 
L 1875 4863 
L 1875 4416 
L 1125 4416 
L 1125 -397 
L 1875 -397 
L 1875 -844 
L 550 -844 
L 550 4863 
z
" transform="scale(0.015625)"/>
       <path id="DejaVuSans-Oblique-6d" d="M 5747 2113 
L 5338 0 
L 4763 0 
L 5166 2094 
Q 5191 2228 5203 2325 
Q 5216 2422 5216 2491 
Q 5216 2772 5059 2928 
Q 4903 3084 4622 3084 
Q 4203 3084 3875 2770 
Q 3547 2456 3450 1953 
L 3066 0 
L 2491 0 
L 2900 2094 
Q 2925 2209 2937 2307 
Q 2950 2406 2950 2484 
Q 2950 2769 2794 2926 
Q 2638 3084 2363 3084 
Q 1938 3084 1609 2770 
Q 1281 2456 1184 1953 
L 800 0 
L 225 0 
L 909 3500 
L 1484 3500 
L 1375 2956 
Q 1609 3263 1923 3423 
Q 2238 3584 2597 3584 
Q 2978 3584 3223 3384 
Q 3469 3184 3519 2828 
Q 3781 3197 4126 3390 
Q 4472 3584 4856 3584 
Q 5306 3584 5551 3325 
Q 5797 3066 5797 2591 
Q 5797 2488 5784 2364 
Q 5772 2241 5747 2113 
z
" transform="scale(0.015625)"/>
       <path id="DejaVuSans-2f" d="M 1625 4666 
L 2156 4666 
L 531 -594 
L 0 -594 
L 1625 4666 
z
" transform="scale(0.015625)"/>
       <path id="DejaVuSans-Oblique-73" d="M 3200 3397 
L 3091 2853 
Q 2863 2978 2609 3040 
Q 2356 3103 2088 3103 
Q 1634 3103 1373 2948 
Q 1113 2794 1113 2528 
Q 1113 2219 1719 2053 
Q 1766 2041 1788 2034 
L 1972 1978 
Q 2547 1819 2739 1644 
Q 2931 1469 2931 1166 
Q 2931 609 2489 259 
Q 2047 -91 1331 -91 
Q 1053 -91 747 -37 
Q 441 16 72 128 
L 184 722 
Q 500 559 806 475 
Q 1113 391 1394 391 
Q 1816 391 2080 572 
Q 2344 753 2344 1031 
Q 2344 1331 1650 1516 
L 1591 1531 
L 1394 1581 
Q 956 1697 753 1886 
Q 550 2075 550 2369 
Q 550 2928 970 3256 
Q 1391 3584 2113 3584 
Q 2397 3584 2667 3537 
Q 2938 3491 3200 3397 
z
" transform="scale(0.015625)"/>
       <path id="DejaVuSans-32" d="M 1228 531 
L 3431 531 
L 3431 0 
L 469 0 
L 469 531 
Q 828 903 1448 1529 
Q 2069 2156 2228 2338 
Q 2531 2678 2651 2914 
Q 2772 3150 2772 3378 
Q 2772 3750 2511 3984 
Q 2250 4219 1831 4219 
Q 1534 4219 1204 4116 
Q 875 4013 500 3803 
L 500 4441 
Q 881 4594 1212 4672 
Q 1544 4750 1819 4750 
Q 2544 4750 2975 4387 
Q 3406 4025 3406 3419 
Q 3406 3131 3298 2873 
Q 3191 2616 2906 2266 
Q 2828 2175 2409 1742 
Q 1991 1309 1228 531 
z
" transform="scale(0.015625)"/>
       <path id="DejaVuSans-5d" d="M 1947 4863 
L 1947 -844 
L 622 -844 
L 622 -397 
L 1369 -397 
L 1369 4416 
L 622 4416 
L 622 4863 
L 1947 4863 
z
" transform="scale(0.015625)"/>
      </defs>
      <use xlink:href="#DejaVuSans-307" transform="translate(62.388672 11.953125)"/>
      <use xlink:href="#DejaVuSans-Oblique-76" transform="translate(0 0.765625)"/>
      <use xlink:href="#DejaVuSerif-20" transform="translate(59.179688 0.765625)"/>
      <use xlink:href="#DejaVuSans-5b" transform="translate(90.966797 0.765625)"/>
      <use xlink:href="#DejaVuSans-Oblique-6d" transform="translate(129.980469 0.765625)"/>
      <use xlink:href="#DejaVuSans-2f" transform="translate(227.392578 0.765625)"/>
      <use xlink:href="#DejaVuSans-Oblique-73" transform="translate(261.083984 0.765625)"/>
      <use xlink:href="#DejaVuSans-32" transform="translate(317.83349 39.046875) scale(0.7)"/>
      <use xlink:href="#DejaVuSans-5d" transform="translate(365.103997 0.765625)"/>
     </g>
    </g>
   </g>
   <g id="line2d_13">
    <path d="M 57.968879 100.121275 
L 58.489153 99.913146 
L 60.154067 99.106873 
L 62.339078 97.622356 
L 63.379501 96.548169 
L 65.044259 94.275539 
L 66.81314 90.995861 
L 67.853626 88.775008 
L 69.726568 83.845074 
L 71.391389 78.186936 
L 72.640017 73.610222 
L 73.264279 72.096642 
L 74.408847 70.61016 
L 74.617146 70.498327 
L 75.033119 70.320742 
L 76.489839 70.476886 
L 76.80275 70.593514 
L 76.906103 70.532826 
L 77.114496 70.72227 
L 77.426481 70.859458 
L 78.363062 71.248591 
L 78.778911 71.349287 
L 78.987199 71.409642 
L 79.507265 71.346679 
L 79.715564 71.314242 
L 80.547875 70.937673 
L 81.796597 69.416961 
L 82.837104 67.305643 
L 83.877516 64.73221 
L 85.126114 61.489681 
L 86.166641 57.869653 
L 86.894901 55.808501 
L 88.14354 52.474118 
L 88.351891 52.061974 
L 88.559722 51.712901 
L 88.663835 51.608981 
L 89.080235 50.74319 
L 89.704331 49.656383 
L 90.640703 48.742159 
L 90.848919 48.802003 
L 91.056937 48.549441 
L 91.265059 48.597274 
L 91.577211 48.384493 
L 92.409595 48.059956 
L 92.617852 48.015159 
L 92.825808 48.01156 
L 93.034169 48.028728 
L 93.137949 47.986619 
L 93.346082 48.124314 
L 93.762274 48.256065 
L 93.970521 48.488809 
L 94.178466 48.672817 
L 94.38689 48.865722 
L 94.490618 48.903522 
L 94.80277 49.352782 
L 95.32321 50.127997 
L 95.739257 50.774305 
L 96.259468 51.900253 
L 96.779763 52.949513 
L 100.109383 60.421894 
L 100.837686 61.475632 
L 101.982326 63.441603 
L 103.647073 65.148904 
L 104.063276 65.649406 
L 104.687621 66.073857 
L 105.7282 66.047924 
L 107.393198 65.247751 
L 107.705048 65.046322 
L 107.913472 64.850834 
L 108.329352 64.522962 
L 108.537495 64.45953 
L 108.745471 64.26467 
L 108.953687 64.280355 
L 109.473857 64.028946 
L 109.682145 63.884816 
L 110.618736 63.123447 
L 111.034626 62.786816 
L 111.347028 62.528986 
L 111.867094 62.154356 
L 112.075362 62.023508 
L 112.491325 61.787075 
L 112.595417 61.839712 
L 112.803487 61.68507 
L 113.011734 61.659198 
L 113.531852 61.554129 
L 113.74012 61.552079 
L 114.156135 61.555071 
L 114.46864 61.607896 
L 114.572348 61.604169 
L 114.988634 61.942351 
L 115.300754 62.116518 
L 115.509157 62.20157 
L 115.716978 62.373868 
L 117.277675 63.440112 
L 119.462748 66.253159 
L 120.399245 67.741361 
L 121.439762 69.161794 
L 121.856173 69.660068 
L 123.520702 71.951454 
L 124.353138 73.070982 
L 125.18573 73.875801 
L 126.122092 74.717028 
L 127.266847 75.805872 
L 127.578728 76.028996 
L 129.035479 77.123604 
L 129.451806 77.410656 
L 130.075902 77.923382 
L 130.700237 78.455595 
L 131.220667 78.849825 
L 131.636661 79.33132 
L 132.365047 80.494244 
L 132.98934 81.430229 
L 133.925869 83.063165 
L 134.966281 85.521822 
L 136.006788 88.609031 
L 137.463809 93.977134 
L 138.399973 98.423311 
L 140.689243 110.384078 
L 141.729635 115.561823 
L 143.394351 123.331975 
L 145.163305 131.126286 
L 149.429454 146.191214 
L 150.261724 148.519039 
L 151.198356 150.731131 
L 151.822494 152.032828 
L 152.238727 152.677085 
L 153.175141 154.448524 
L 153.383461 154.858602 
L 154.215648 156.720936 
L 154.423978 157.174438 
L 154.944002 158.475134 
L 155.568285 160.112187 
L 156.504876 163.107987 
L 160.146565 175.991431 
L 160.666776 177.728152 
L 161.395339 179.780794 
L 162.019601 181.166179 
L 162.539792 182.123414 
L 162.74781 182.459335 
L 162.851881 182.317312 
L 163.059961 183.101869 
L 163.164158 183.038931 
L 163.580183 183.600281 
L 163.788399 183.887554 
L 164.308611 184.309723 
L 164.516878 184.480766 
L 164.724792 184.662561 
L 165.661217 184.921029 
L 165.869412 184.858511 
L 166.285489 184.724296 
L 167.534128 183.668149 
L 167.742448 183.431503 
L 167.84628 183.392416 
L 168.054537 183.059467 
L 168.262472 182.734533 
L 168.782798 181.860532 
L 169.40706 180.472792 
L 169.927313 179.031633 
L 170.135383 178.723649 
L 170.343766 178.144909 
L 170.655876 177.349174 
L 171.07186 176.205316 
L 171.592175 174.607552 
L 172.528579 172.128753 
L 172.840721 171.465963 
L 173.049186 171.07219 
L 173.881518 169.631097 
L 173.985246 169.513142 
L 174.297752 168.913246 
L 174.401459 168.803214 
L 174.817683 167.949018 
L 175.025773 167.703278 
L 175.442163 167.092098 
L 175.546027 167.016956 
L 175.754315 166.736964 
L 177.106848 165.586577 
L 177.419 165.45791 
L 177.835213 165.191581 
L 178.667629 165.016661 
L 178.875699 165.197926 
L 179.083956 165.168066 
L 179.29187 165.439038 
L 179.395993 165.443402 
L 179.708093 165.750364 
L 180.228274 166.430378 
L 180.436479 166.546532 
L 180.748631 166.965221 
L 180.852713 167.013147 
L 181.06072 167.457282 
L 181.164812 167.433137 
L 182.309473 169.302277 
L 182.517429 169.83542 
L 182.621542 169.827435 
L 183.037786 170.509356 
L 183.662173 171.277002 
L 183.974263 171.591095 
L 184.390424 171.920687 
L 184.702482 172.261557 
L 185.639062 172.974278 
L 186.055088 173.10076 
L 186.159274 172.989929 
L 186.367271 173.037648 
L 186.575518 172.8622 
L 186.783463 172.85167 
L 186.991752 172.648935 
L 187.928062 171.682813 
L 188.136381 171.339583 
L 188.76055 170.147033 
L 189.800983 167.90306 
L 190.217384 166.741271 
L 190.425298 166.390539 
L 190.737824 165.6661 
L 190.945561 165.079691 
L 191.881986 162.824331 
L 194.483262 155.998664 
L 196.876416 151.409443 
L 197.396669 150.700217 
L 197.812882 150.20098 
L 198.437144 149.664368 
L 199.685824 148.564885 
L 200.518157 148.465723 
L 201.246636 148.594193 
L 201.662734 148.605944 
L 201.870929 148.606723 
L 202.911331 148.667978 
L 203.119558 148.72357 
L 204.992354 149.394469 
L 205.096415 149.338101 
L 205.408557 149.46566 
L 206.033027 149.633171 
L 206.449022 149.689114 
L 206.657237 149.696433 
L 207.073346 149.626351 
L 207.38581 149.456835 
L 207.489559 149.443451 
L 207.697744 149.253342 
L 207.905772 149.279803 
L 208.21809 149.203615 
L 208.738187 149.011524 
L 209.154411 148.634902 
L 209.362543 148.671206 
L 209.570894 148.442433 
L 209.674633 148.393357 
L 209.882921 148.15311 
L 212.067808 145.904993 
L 215.709725 141.452062 
L 216.437913 140.272229 
L 217.478451 138.916747 
L 217.894622 138.503374 
L 219.663555 136.838873 
L 220.183715 136.611692 
L 220.392087 136.473491 
L 221.432666 135.878558 
L 221.640497 135.741259 
L 221.744683 135.619337 
L 221.952596 135.779464 
L 222.160958 135.543085 
L 222.576952 135.406367 
L 222.88925 135.211787 
L 223.097153 135.199084 
L 223.305536 135.115627 
L 224.657996 134.863714 
L 225.80247 135.134439 
L 226.010821 135.128989 
L 226.218703 135.073719 
L 226.426992 135.055912 
L 226.843018 135.032305 
L 227.051441 135.083121 
L 227.363364 135.161777 
L 227.883576 135.332493 
L 228.091677 135.24235 
L 228.299737 135.352282 
L 228.507984 135.330529 
L 228.924009 135.276949 
L 229.132267 135.199172 
L 229.340233 135.318235 
L 229.5485 135.254501 
L 229.964516 135.213718 
L 230.172887 135.157519 
L 232.045549 135.580118 
L 232.14961 135.521124 
L 232.35768 135.633546 
L 232.56601 135.510971 
L 232.773945 135.430404 
L 234.542743 134.294238 
L 235.167037 133.565562 
L 236.727827 132.459717 
L 238.28868 132.006058 
L 238.912953 131.72889 
L 239.120929 131.690159 
L 239.329249 131.604788 
L 240.057406 131.360322 
L 240.369693 131.253693 
L 241.306065 130.840834 
L 242.5546 129.782206 
L 242.970896 129.350951 
L 243.699282 128.827848 
L 243.90729 128.776736 
L 244.219577 128.580224 
L 246.612637 127.351646 
L 246.820707 127.394287 
L 247.028829 127.31746 
L 247.445011 127.305515 
L 249.422139 126.761425 
L 250.150306 126.784621 
L 250.774704 126.560718 
L 250.982795 126.566642 
L 251.191094 126.475442 
L 251.711191 126.429403 
L 253.063807 126.456996 
L 254.208281 125.888988 
L 254.624546 125.529831 
L 255.144789 125.341612 
L 255.353119 125.187323 
L 256.081234 125.039998 
L 257.53788 124.67611 
L 257.850043 124.58299 
L 258.26662 124.526459 
L 258.474398 124.452991 
L 260.555411 123.097452 
L 262.116118 122.793793 
L 262.324542 122.71652 
L 263.468922 122.58618 
L 263.885291 122.59981 
L 264.197183 122.535694 
L 266.590389 121.887969 
L 267.006539 121.677779 
L 268.151096 121.073 
L 268.983501 120.398461 
L 272.417183 117.690399 
L 272.937467 117.087952 
L 273.561781 116.700098 
L 275.954904 115.94641 
L 277.099596 116.188519 
L 277.515622 116.353259 
L 279.596666 116.078754 
L 280.533152 115.389773 
L 281.78176 114.416806 
L 282.51027 113.614466 
L 284.487149 111.170186 
L 288.961253 106.425094 
L 289.585599 105.681108 
L 290.105862 104.741434 
L 291.562613 101.36892 
L 292.395049 99.083995 
L 294.163743 92.787852 
L 295.828699 85.551616 
L 298.846073 71.818794 
L 299.78256 68.219048 
L 302.487929 59.426495 
L 306.545799 47.512193 
L 308.4187 42.929025 
L 310.187665 38.320879 
L 310.396005 37.762311 
L 310.811854 36.659562 
L 311.020101 36.173078 
L 311.956453 33.831856 
L 312.580777 32.237832 
L 313.205008 30.372048 
L 313.309121 30.256407 
L 313.621263 29.314194 
L 314.14163 27.663745 
L 316.222435 21.734731 
L 316.534795 21.05882 
L 316.846853 20.180426 
L 317.991347 17.481398 
L 318.095461 17.369397 
L 318.511611 16.384694 
L 318.71992 15.884697 
L 319.343974 14.61393 
L 319.448056 14.539398 
L 319.86428 13.71383 
L 320.904775 12.323013 
L 321.008878 12.347279 
L 321.216865 12.021789 
L 321.320936 12.08712 
L 321.529027 11.855352 
L 321.633151 12.029782 
L 321.841294 11.664123 
L 321.945282 11.814779 
L 322.153352 11.691324 
L 322.257402 11.831468 
L 322.465514 11.746956 
L 322.88181 12.011504 
L 323.089828 11.999989 
L 323.714132 12.843555 
L 323.922181 12.927165 
L 324.234635 13.48135 
L 324.338425 13.584399 
L 324.546704 13.909145 
L 324.75467 14.253302 
L 325.899154 16.371901 
L 326.31545 17.494431 
L 326.523457 17.865448 
L 326.939754 18.94319 
L 327.564161 20.412162 
L 328.60447 22.801049 
L 329.333043 24.805527 
L 330.373362 27.380176 
L 330.581432 27.539784 
L 330.893761 28.075437 
L 331.726187 29.058733 
L 333.494891 30.193071 
L 333.702961 30.232155 
L 334.015134 30.451421 
L 334.327359 30.644742 
L 336.20028 31.442878 
L 336.40833 31.090085 
L 336.616493 31.311356 
L 336.824511 31.057155 
L 336.928645 31.226954 
L 337.136674 31.011916 
L 337.344764 31.047101 
L 337.657031 30.861058 
L 338.28123 30.675114 
L 338.385291 30.778663 
L 338.593372 30.37078 
L 338.697527 30.557414 
L 338.905524 30.139233 
L 339.009699 30.168428 
L 339.321862 29.88528 
L 339.841927 29.597406 
L 339.946061 29.635241 
L 340.15409 29.412124 
L 340.258203 29.444425 
L 340.466242 29.306816 
L 340.570407 29.320451 
L 340.778435 29.169522 
L 341.194669 29.196834 
L 341.402708 29.110329 
L 341.71487 29.277944 
L 341.92294 29.183928 
L 342.235134 29.275611 
L 342.443193 29.252934 
L 342.547285 29.373637 
L 342.755366 29.255485 
L 342.96353 29.411665 
L 343.171548 29.521165 
L 343.587813 29.728495 
L 343.796143 29.869006 
L 343.899923 29.885544 
L 344.108149 30.02605 
L 344.83642 30.384243 
L 345.044677 30.514064 
L 345.460661 30.764055 
L 345.77299 31.107962 
L 345.876958 31.18367 
L 346.085423 31.525313 
L 346.189286 31.45163 
L 346.813403 32.434083 
L 348.06199 34.221999 
L 348.270382 34.603298 
L 348.374173 34.679276 
L 348.894447 35.767227 
L 349.93514 37.600766 
L 350.038941 37.704046 
L 350.351311 38.292879 
L 350.559194 38.705492 
L 352.224056 42.187198 
L 352.432085 42.485256 
L 352.744237 43.114164 
L 353.265 44.134512 
L 353.368561 44.198454 
L 353.576819 44.68911 
L 355.137391 46.846847 
L 355.761715 47.338951 
L 356.281979 47.692349 
L 356.69816 48.006903 
L 357.322475 48.599739 
L 357.530545 48.759268 
L 357.842707 49.129818 
L 358.154901 49.492778 
L 358.987264 50.358047 
L 359.507746 50.669895 
L 359.611568 50.693405 
L 359.819867 50.837923 
L 360.027791 50.947443 
L 361.06836 51.246729 
L 361.484625 51.200508 
L 362.004815 51.223525 
L 362.212833 51.1288 
L 362.42108 51.223827 
L 362.629046 51.17747 
L 362.94125 51.409379 
L 363.149258 51.53324 
L 365.438392 53.326713 
L 365.646743 53.471783 
L 366.583126 54.395267 
L 366.791071 54.386817 
L 367.103265 54.647672 
L 367.935639 54.958496 
L 368.768169 55.732714 
L 370.016651 56.791524 
L 370.016651 56.791524 
" clip-path="url(#pfe47a6d3ce)" style="fill: none; stroke: #2a2eec; stroke-width: 0.4; stroke-linecap: round"/>
   </g>
   <g id="line2d_14">
    <path d="M 57.968879 100.233996 
L 58.489153 100.035458 
L 60.362022 99.160538 
L 62.54719 97.736174 
L 63.796036 96.509942 
L 65.252339 94.670058 
L 66.084786 93.37234 
L 67.645535 90.622393 
L 68.790102 88.112125 
L 70.03871 84.814122 
L 71.287307 80.477876 
L 73.16051 73.370142 
L 73.784553 71.74967 
L 74.304963 70.698227 
L 74.929235 69.600634 
L 75.865608 68.305151 
L 76.073823 68.086839 
L 76.593972 67.517925 
L 76.698013 67.502534 
L 76.906103 67.053989 
L 77.010154 67.118472 
L 77.426481 66.659965 
L 79.611389 64.757736 
L 80.131631 64.154596 
L 80.339837 63.990489 
L 81.484456 62.680468 
L 83.56576 59.612539 
L 83.877516 59.231659 
L 85.230247 57.547972 
L 86.270598 55.766735 
L 86.790851 55.178995 
L 86.999129 55.052758 
L 88.14354 54.02394 
L 88.247622 54.059312 
L 88.455692 53.879245 
L 88.663835 53.993508 
L 88.871853 53.787109 
L 88.976008 53.880275 
L 89.184046 53.68668 
L 89.288191 53.756005 
L 89.49624 53.507163 
L 89.808413 53.501271 
L 90.01642 53.405053 
L 90.120523 53.494221 
L 90.328562 53.445073 
L 90.4328 53.570306 
L 90.640703 53.575559 
L 90.848919 53.796204 
L 91.056937 53.714252 
L 91.265059 53.883358 
L 91.577211 53.842795 
L 93.762274 53.66024 
L 93.970521 53.774796 
L 94.178466 53.83209 
L 94.38689 53.882929 
L 94.490618 53.85142 
L 94.698865 54.01232 
L 95.114891 54.187495 
L 95.32321 54.322761 
L 95.427095 54.344899 
L 95.635466 54.527202 
L 95.739257 54.526824 
L 96.051565 54.807742 
L 96.467559 55.123024 
L 96.779763 55.42562 
L 100.005249 58.533098 
L 100.629647 58.827647 
L 100.837686 58.909441 
L 102.190417 60.16225 
L 102.398435 60.186992 
L 102.606692 60.387587 
L 103.334901 60.955331 
L 104.375625 62.054413 
L 104.583477 62.273349 
L 105.103772 62.618123 
L 105.7282 62.857571 
L 106.248266 63.038726 
L 106.560522 63.215833 
L 107.184878 63.379467 
L 107.393198 63.392161 
L 107.496895 63.373769 
L 107.80913 63.557739 
L 108.017158 63.492628 
L 108.225572 63.599002 
L 108.433444 63.679989 
L 109.57797 64.339901 
L 109.786019 64.36186 
L 109.994307 64.44005 
L 110.514477 64.551289 
L 110.722454 64.434487 
L 110.930721 64.476672 
L 113.2197 64.64507 
L 113.74012 64.711819 
L 114.260269 64.855481 
L 114.46864 64.87168 
L 114.572348 64.875431 
L 114.988634 65.194172 
L 115.300754 65.332093 
L 115.509157 65.381715 
L 115.925152 65.556818 
L 116.341198 65.651997 
L 116.445322 65.762496 
L 116.653329 65.715159 
L 116.965731 65.845915 
L 117.381777 66.024233 
L 118.318337 66.611237 
L 118.942495 66.976959 
L 119.878919 67.599348 
L 120.191248 67.90153 
L 121.02356 68.525826 
L 121.231567 68.593767 
L 121.751976 68.988394 
L 121.959953 69.05493 
L 122.376134 69.409831 
L 122.896377 69.747213 
L 123.312673 70.209663 
L 123.624846 70.486224 
L 124.457241 71.259184 
L 126.538139 72.918353 
L 126.85027 73.274629 
L 127.266847 73.611475 
L 127.578728 73.879559 
L 131.012368 77.473066 
L 131.740733 78.526885 
L 133.093453 80.915417 
L 133.717643 82.083253 
L 134.654119 84.234861 
L 135.902851 87.654989 
L 137.359508 92.614818 
L 138.087842 95.730845 
L 139.752662 103.854952 
L 143.186323 121.479619 
L 144.955121 131.054734 
L 149.845532 154.064575 
L 151.510415 159.576036 
L 152.862989 162.615177 
L 153.799445 164.492649 
L 154.215648 165.370195 
L 154.319719 165.451618 
L 154.735932 166.259577 
L 155.256164 167.217826 
L 155.568285 167.769874 
L 156.817017 170.211617 
L 157.85743 172.226213 
L 158.065687 172.56584 
L 158.481807 173.199504 
L 160.874909 176.595761 
L 161.083072 176.746015 
L 161.499202 177.06143 
L 161.603294 177.044228 
L 161.811302 177.240821 
L 161.915373 177.187441 
L 162.123495 177.376122 
L 162.227608 177.222679 
L 162.435699 177.552294 
L 162.64379 177.536121 
L 162.74781 177.53234 
L 162.851881 177.276009 
L 163.059961 177.777514 
L 163.164158 177.60966 
L 163.476268 177.723939 
L 165.973358 178.210645 
L 166.181553 178.192418 
L 166.493591 178.164782 
L 166.701817 178.0919 
L 166.805888 178.177852 
L 167.014021 178.102239 
L 167.117894 178.13724 
L 167.32611 178.051473 
L 167.534128 178.026365 
L 167.638168 177.93223 
L 167.84628 178.062319 
L 167.950351 177.916386 
L 168.158411 177.982065 
L 168.470563 177.842704 
L 169.094846 177.486797 
L 169.303134 177.248806 
L 169.511111 177.025065 
L 169.719514 176.825496 
L 169.823252 176.831362 
L 170.031593 176.573884 
L 170.135383 176.569779 
L 170.343766 176.324808 
L 170.447556 176.293729 
L 170.655876 176.027676 
L 170.759729 175.969611 
L 170.967924 175.64659 
L 171.384001 175.113752 
L 171.800225 174.427574 
L 172.840721 173.453851 
L 172.944782 173.260096 
L 173.049186 173.332284 
L 173.881518 172.850011 
L 173.985246 172.839352 
L 174.193441 172.482131 
L 174.401459 172.512935 
L 174.609644 172.261309 
L 175.233885 171.702458 
L 175.442163 171.479046 
L 175.546027 171.451706 
L 175.754315 171.244248 
L 176.170362 170.992039 
L 176.378733 170.80431 
L 176.482545 170.810397 
L 176.794821 170.467737 
L 177.7311 169.661968 
L 178.147407 169.175757 
L 178.771887 168.808112 
L 178.875699 168.809472 
L 179.083956 168.589154 
L 179.29187 168.670598 
L 179.395993 168.568649 
L 179.604011 168.64888 
L 179.812248 168.610986 
L 179.916153 168.62395 
L 180.020266 168.518852 
L 180.228274 168.668181 
L 180.436479 168.538716 
L 180.644518 168.710297 
L 180.852713 168.50544 
L 181.06072 168.695915 
L 181.268978 168.57049 
L 181.476975 168.65807 
L 181.581015 168.62829 
L 181.789064 168.789363 
L 181.893188 168.738763 
L 182.101195 168.973726 
L 182.309473 168.943425 
L 182.517429 169.211446 
L 182.621542 169.074016 
L 182.829581 169.221758 
L 182.933673 169.16199 
L 183.141712 169.278444 
L 183.34998 169.251323 
L 183.453989 169.340631 
L 183.662173 169.282543 
L 183.766016 169.31899 
L 183.974263 169.254199 
L 184.390424 169.158785 
L 184.598421 169.248184 
L 184.806626 169.207255 
L 185.014644 169.33681 
L 185.222839 169.258457 
L 185.430919 169.283735 
L 185.639062 169.193701 
L 186.055088 169.084537 
L 186.263429 168.973518 
L 187.407798 167.846282 
L 187.61618 167.656848 
L 188.240214 166.848171 
L 188.55273 166.342938 
L 188.656416 166.2641 
L 188.968807 165.741572 
L 189.488832 164.869177 
L 189.697151 164.431825 
L 190.113104 163.667529 
L 190.321455 163.358064 
L 192.402249 160.110631 
L 192.610642 159.712824 
L 192.818504 159.35147 
L 194.171203 157.14486 
L 195.003494 156.068873 
L 195.835951 155.049131 
L 196.668294 154.193825 
L 197.188568 153.546583 
L 199.581753 151.485954 
L 199.997976 151.180032 
L 201.246636 150.779423 
L 201.662734 150.540324 
L 201.974865 150.3481 
L 203.015382 149.602861 
L 203.431574 149.495322 
L 203.848026 149.345104 
L 203.951838 149.341569 
L 204.160022 149.102988 
L 204.368009 149.080159 
L 204.784253 148.809445 
L 206.761184 147.835903 
L 207.801888 146.915469 
L 208.426181 146.575082 
L 211.963975 143.567065 
L 212.37997 143.27596 
L 212.588446 143.173891 
L 212.692059 143.123699 
L 212.900369 142.913438 
L 215.709725 141.042245 
L 216.229895 140.497187 
L 217.894622 139.333596 
L 218.414844 138.949085 
L 219.247343 138.473131 
L 219.559526 138.3807 
L 220.080008 138.259963 
L 220.495856 138.072227 
L 220.912194 137.829039 
L 221.536425 137.585674 
L 221.744683 137.334375 
L 221.952596 137.493935 
L 222.160958 137.231489 
L 222.576952 137.040983 
L 222.88925 136.788128 
L 223.097153 136.735639 
L 223.305536 136.60285 
L 225.074157 135.839379 
L 225.386309 135.809604 
L 225.80247 135.762614 
L 226.010821 135.671954 
L 226.218703 135.530559 
L 226.634916 135.317348 
L 227.051441 135.190593 
L 227.25922 135.127214 
L 227.571362 135.110107 
L 227.779817 135.078021 
L 227.883576 135.095968 
L 228.091677 134.923744 
L 228.299737 134.95161 
L 228.507984 134.85071 
L 228.924009 134.644618 
L 229.132267 134.496248 
L 229.340233 134.542985 
L 229.5485 134.414098 
L 229.964516 134.250815 
L 230.172887 134.140523 
L 231.213206 134.212805 
L 231.837583 134.293377 
L 232.045549 134.260004 
L 232.254077 134.259058 
L 232.35768 134.294953 
L 232.56601 134.170829 
L 232.773945 134.090358 
L 233.814618 133.565047 
L 234.022511 133.473132 
L 236.103524 132.038003 
L 236.311594 132.011086 
L 236.727827 131.786405 
L 238.392575 131.738734 
L 238.60103 131.733362 
L 239.120929 131.688635 
L 239.329249 131.658905 
L 240.057406 131.598026 
L 240.369693 131.563483 
L 241.201984 131.441433 
L 241.618238 131.155454 
L 242.138429 130.865055 
L 242.970896 130.075632 
L 243.80353 129.593289 
L 244.323461 129.305367 
L 244.843932 129.007185 
L 246.612637 127.947246 
L 246.820707 127.957945 
L 247.133025 127.847005 
L 247.445011 127.756857 
L 249.630095 126.710374 
L 250.046506 126.65938 
L 250.670632 126.329267 
L 251.399132 125.987756 
L 253.480031 125.618051 
L 254.10449 125.244148 
L 255.041248 124.638397 
L 255.144789 124.62696 
L 255.353119 124.485995 
L 255.977173 124.424676 
L 256.601487 124.361894 
L 256.913597 124.329913 
L 258.162174 124.144229 
L 258.474398 124.127423 
L 260.555411 123.085361 
L 262.012276 123.003738 
L 262.844483 122.817753 
L 263.573035 122.909329 
L 264.509366 122.859583 
L 264.821497 122.712471 
L 265.44578 122.566903 
L 265.862003 122.405953 
L 266.382236 122.255812 
L 267.006539 121.940286 
L 268.151096 121.217013 
L 268.983501 120.429869 
L 272.729345 116.900721 
L 273.14562 116.486562 
L 274.394301 115.884538 
L 275.954904 115.511761 
L 276.99541 115.819958 
L 277.827815 116.132625 
L 278.660189 116.111277 
L 279.284524 116.232863 
L 280.845242 115.441553 
L 282.301982 114.351944 
L 285.111536 111.378444 
L 285.839662 110.59597 
L 286.463976 109.924936 
L 289.793908 106.619558 
L 290.52195 105.124707 
L 292.498933 100.467611 
L 294.163743 94.883221 
L 295.724586 88.382033 
L 300.40677 66.39371 
L 301.135239 63.307908 
L 302.279817 58.193449 
L 305.401221 44.946588 
L 306.233939 41.851986 
L 306.753994 40.034002 
L 307.378194 38.133668 
L 309.251063 32.628548 
L 309.563236 31.808062 
L 310.396005 29.797323 
L 310.811854 28.880263 
L 311.020101 28.518068 
L 311.540208 27.528929 
L 311.748362 27.296045 
L 313.205008 24.968889 
L 313.309121 25.011952 
L 313.51716 24.361643 
L 313.621263 24.526533 
L 313.933394 24.031761 
L 314.14163 23.692018 
L 315.390134 22.231632 
L 315.59837 22.00095 
L 316.43065 21.339484 
L 316.534795 21.310702 
L 316.74274 20.958089 
L 316.950883 20.897222 
L 320.28069 18.380831 
L 320.488563 18.219775 
L 320.904775 17.940933 
L 321.008878 17.99826 
L 321.216865 17.748597 
L 321.320936 17.831649 
L 321.529027 17.648241 
L 321.633151 17.822982 
L 321.841294 17.491357 
L 321.945282 17.631007 
L 322.153352 17.500912 
L 322.257402 17.618639 
L 322.569586 17.563294 
L 322.777645 17.557672 
L 322.88181 17.616877 
L 323.089828 17.516626 
L 323.402095 17.681345 
L 323.610092 17.786697 
L 323.714132 17.95875 
L 323.922181 17.893695 
L 324.130366 18.222057 
L 324.338425 18.188397 
L 324.44259 18.36576 
L 324.65064 18.311946 
L 324.858845 18.515081 
L 324.962937 18.440476 
L 326.211306 19.586345 
L 326.419615 19.831167 
L 326.62757 20.149925 
L 327.147876 20.744984 
L 327.355904 20.876384 
L 327.564161 21.099567 
L 327.980187 21.503037 
L 328.188476 21.689358 
L 328.60447 22.168794 
L 329.228878 23.218257 
L 329.436865 23.499822 
L 329.645174 23.893046 
L 330.165417 24.593119 
L 330.26927 24.662064 
L 330.477641 24.904296 
L 330.581432 24.912046 
L 330.789606 25.243502 
L 330.997614 25.304167 
L 331.205829 25.479791 
L 331.517929 25.66795 
L 331.726187 25.754363 
L 332.662455 26.006066 
L 332.974732 26.280416 
L 333.702961 26.696105 
L 334.119237 27.127565 
L 335.679934 28.552837 
L 335.88817 28.758211 
L 336.096167 28.949929 
L 336.20028 29.178452 
L 336.40833 28.980606 
L 336.616493 29.381367 
L 336.824511 29.298728 
L 336.928645 29.563309 
L 337.136674 29.52731 
L 337.449086 29.742121 
L 337.657031 29.847337 
L 338.28123 30.239244 
L 338.385291 30.440047 
L 338.593372 30.225207 
L 338.697527 30.509369 
L 338.905524 30.284506 
L 339.009699 30.409984 
L 339.217697 30.412053 
L 339.529942 30.468723 
L 340.050237 30.646077 
L 340.466242 30.802526 
L 340.67452 30.850257 
L 341.402708 31.263906 
L 341.71487 31.613874 
L 341.92294 31.63702 
L 342.235134 31.881265 
L 342.443193 31.952149 
L 342.651544 32.078907 
L 342.755366 32.077431 
L 342.96353 32.298898 
L 343.275744 32.520411 
L 344.108149 33.115071 
L 345.564733 33.857354 
L 346.085423 34.283149 
L 346.189286 34.178741 
L 346.605437 34.662554 
L 346.917433 34.976871 
L 347.541778 35.653478 
L 347.749858 35.716299 
L 348.166051 36.210646 
L 348.374173 36.243204 
L 348.790344 36.848368 
L 349.830871 38.076486 
L 350.038941 38.146901 
L 350.351311 38.524645 
L 350.559194 38.799317 
L 351.599857 40.226736 
L 351.911884 40.742492 
L 353.265 42.78329 
L 353.368561 42.807002 
L 353.576819 43.2308 
L 355.657654 45.446131 
L 356.177959 45.849466 
L 357.530545 47.284958 
L 357.946799 47.969048 
L 358.571041 48.830782 
L 358.987264 49.432667 
L 359.819867 50.305807 
L 360.131873 50.605362 
L 361.380553 51.473503 
L 361.58855 51.54048 
L 361.692664 51.67264 
L 361.900682 51.613031 
L 362.10897 51.71336 
L 362.629046 51.976553 
L 362.94125 52.331708 
L 363.253496 52.647496 
L 364.189889 53.624397 
L 365.022356 54.502855 
L 365.438392 54.96762 
L 365.854689 55.45963 
L 366.062686 55.614564 
L 366.375087 55.93198 
L 367.103265 56.44647 
L 368.039721 56.866273 
L 368.248124 56.999191 
L 368.351841 57.03742 
L 368.663993 57.381779 
L 370.016651 58.329097 
L 370.016651 58.329097 
" clip-path="url(#pfe47a6d3ce)" style="fill: none; stroke: #fa7c17; stroke-width: 0.4; stroke-linecap: round"/>
   </g>
   <g id="patch_3">
    <path d="M 42.36649 193.605677 
L 42.36649 3.00024 
" style="fill: none; stroke: #000000; stroke-linejoin: miter; stroke-linecap: square"/>
   </g>
   <g id="patch_4">
    <path d="M 42.36649 193.605677 
L 385.61904 193.605677 
" style="fill: none; stroke: #000000; stroke-linejoin: miter; stroke-linecap: square"/>
   </g>
   <g id="legend_1">
    <g id="line2d_15">
     <path d="M 49.56649 13.47899 
L 57.56649 13.47899 
L 65.56649 13.47899 
" style="fill: none; stroke: #2a2eec; stroke-width: 0.4; stroke-linecap: round"/>
    </g>
    <g id="text_15">
     <!-- original data -->
     <g style="fill: #262626" transform="translate(71.96649 16.27899) scale(0.08 -0.08)">
      <defs>
       <path id="DejaVuSerif-6f" d="M 1925 219 
Q 2388 219 2623 584 
Q 2859 950 2859 1663 
Q 2859 2375 2623 2739 
Q 2388 3103 1925 3103 
Q 1463 3103 1227 2739 
Q 991 2375 991 1663 
Q 991 950 1228 584 
Q 1466 219 1925 219 
z
M 1925 -91 
Q 1200 -91 759 389 
Q 319 869 319 1663 
Q 319 2456 758 2934 
Q 1197 3413 1925 3413 
Q 2653 3413 3092 2934 
Q 3531 2456 3531 1663 
Q 3531 869 3092 389 
Q 2653 -91 1925 -91 
z
" transform="scale(0.015625)"/>
       <path id="DejaVuSerif-72" d="M 3059 3328 
L 3059 2497 
L 2728 2497 
Q 2713 2744 2591 2866 
Q 2469 2988 2234 2988 
Q 1809 2988 1582 2694 
Q 1356 2400 1356 1850 
L 1356 331 
L 2022 331 
L 2022 0 
L 263 0 
L 263 331 
L 781 331 
L 781 2994 
L 231 2994 
L 231 3322 
L 1356 3322 
L 1356 2731 
Q 1525 3078 1790 3245 
Q 2056 3413 2438 3413 
Q 2578 3413 2733 3391 
Q 2888 3369 3059 3328 
z
" transform="scale(0.015625)"/>
       <path id="DejaVuSerif-67" d="M 3359 2988 
L 3359 72 
Q 3359 -644 2965 -1033 
Q 2572 -1422 1844 -1422 
Q 1516 -1422 1216 -1362 
Q 916 -1303 641 -1184 
L 641 -488 
L 941 -488 
Q 997 -813 1206 -963 
Q 1416 -1113 1806 -1113 
Q 2313 -1113 2548 -827 
Q 2784 -541 2784 72 
L 2784 519 
Q 2616 206 2355 57 
Q 2094 -91 1709 -91 
Q 1097 -91 708 395 
Q 319 881 319 1663 
Q 319 2444 706 2928 
Q 1094 3413 1709 3413 
Q 2094 3413 2355 3264 
Q 2616 3116 2784 2803 
L 2784 3322 
L 3909 3322 
L 3909 2988 
L 3359 2988 
z
M 2784 1825 
Q 2784 2422 2554 2737 
Q 2325 3053 1888 3053 
Q 1444 3053 1217 2703 
Q 991 2353 991 1663 
Q 991 975 1217 622 
Q 1444 269 1888 269 
Q 2325 269 2554 583 
Q 2784 897 2784 1497 
L 2784 1825 
z
" transform="scale(0.015625)"/>
       <path id="DejaVuSerif-6e" d="M 263 0 
L 263 331 
L 781 331 
L 781 2988 
L 231 2988 
L 231 3322 
L 1356 3322 
L 1356 2731 
Q 1516 3069 1770 3241 
Q 2025 3413 2363 3413 
Q 2913 3413 3172 3097 
Q 3431 2781 3431 2113 
L 3431 331 
L 3944 331 
L 3944 0 
L 2356 0 
L 2356 331 
L 2853 331 
L 2853 1931 
Q 2853 2541 2703 2767 
Q 2553 2994 2175 2994 
Q 1775 2994 1565 2701 
Q 1356 2409 1356 1850 
L 1356 331 
L 1856 331 
L 1856 0 
L 263 0 
z
" transform="scale(0.015625)"/>
       <path id="DejaVuSerif-61" d="M 2547 1044 
L 2547 1747 
L 1806 1747 
Q 1378 1747 1168 1562 
Q 959 1378 959 997 
Q 959 650 1171 447 
Q 1384 244 1747 244 
Q 2106 244 2326 466 
Q 2547 688 2547 1044 
z
M 3122 2075 
L 3122 331 
L 3634 331 
L 3634 0 
L 2547 0 
L 2547 359 
Q 2356 128 2106 18 
Q 1856 -91 1522 -91 
Q 969 -91 644 203 
Q 319 497 319 997 
Q 319 1513 691 1797 
Q 1063 2081 1741 2081 
L 2547 2081 
L 2547 2309 
Q 2547 2688 2317 2895 
Q 2088 3103 1672 3103 
Q 1328 3103 1125 2947 
Q 922 2791 872 2484 
L 575 2484 
L 575 3156 
Q 875 3284 1158 3348 
Q 1441 3413 1709 3413 
Q 2400 3413 2761 3070 
Q 3122 2728 3122 2075 
z
" transform="scale(0.015625)"/>
       <path id="DejaVuSerif-6c" d="M 1313 331 
L 1856 331 
L 1856 0 
L 184 0 
L 184 331 
L 738 331 
L 738 4531 
L 184 4531 
L 184 4863 
L 1313 4863 
L 1313 331 
z
" transform="scale(0.015625)"/>
       <path id="DejaVuSerif-64" d="M 3359 331 
L 3909 331 
L 3909 0 
L 2784 0 
L 2784 519 
Q 2616 206 2355 57 
Q 2094 -91 1709 -91 
Q 1097 -91 708 395 
Q 319 881 319 1663 
Q 319 2444 706 2928 
Q 1094 3413 1709 3413 
Q 2094 3413 2355 3264 
Q 2616 3116 2784 2803 
L 2784 4531 
L 2241 4531 
L 2241 4863 
L 3359 4863 
L 3359 331 
z
M 2784 1497 
L 2784 1825 
Q 2784 2422 2554 2737 
Q 2325 3053 1888 3053 
Q 1444 3053 1217 2703 
Q 991 2353 991 1663 
Q 991 975 1217 622 
Q 1444 269 1888 269 
Q 2325 269 2554 583 
Q 2784 897 2784 1497 
z
" transform="scale(0.015625)"/>
      </defs>
      <use xlink:href="#DejaVuSerif-6f"/>
      <use xlink:href="#DejaVuSerif-72" x="60.205078"/>
      <use xlink:href="#DejaVuSerif-69" x="108.007812"/>
      <use xlink:href="#DejaVuSerif-67" x="139.990234"/>
      <use xlink:href="#DejaVuSerif-69" x="204.003906"/>
      <use xlink:href="#DejaVuSerif-6e" x="235.986328"/>
      <use xlink:href="#DejaVuSerif-61" x="300.390625"/>
      <use xlink:href="#DejaVuSerif-6c" x="360.009766"/>
      <use xlink:href="#DejaVuSerif-20" x="391.992188"/>
      <use xlink:href="#DejaVuSerif-64" x="423.779297"/>
      <use xlink:href="#DejaVuSerif-61" x="487.792969"/>
      <use xlink:href="#DejaVuSerif-74" x="547.412109"/>
      <use xlink:href="#DejaVuSerif-61" x="587.597656"/>
     </g>
    </g>
    <g id="line2d_16">
     <path d="M 49.56649 25.33524 
L 57.56649 25.33524 
L 65.56649 25.33524 
" style="fill: none; stroke: #fa7c17; stroke-width: 0.4; stroke-linecap: round"/>
    </g>
    <g id="text_16">
     <!-- transformed to roll centre -->
     <g style="fill: #262626" transform="translate(71.96649 28.13524) scale(0.08 -0.08)">
      <defs>
       <path id="DejaVuSerif-73" d="M 359 184 
L 359 959 
L 691 959 
Q 703 588 923 403 
Q 1144 219 1575 219 
Q 1963 219 2166 364 
Q 2369 509 2369 788 
Q 2369 1006 2220 1140 
Q 2072 1275 1594 1428 
L 1178 1569 
Q 750 1706 558 1912 
Q 366 2119 366 2438 
Q 366 2894 700 3153 
Q 1034 3413 1625 3413 
Q 1888 3413 2178 3344 
Q 2469 3275 2778 3144 
L 2778 2419 
L 2447 2419 
Q 2434 2741 2221 2922 
Q 2009 3103 1644 3103 
Q 1281 3103 1095 2975 
Q 909 2847 909 2591 
Q 909 2381 1050 2254 
Q 1191 2128 1613 1997 
L 2069 1856 
Q 2541 1709 2748 1489 
Q 2956 1269 2956 922 
Q 2956 450 2595 179 
Q 2234 -91 1600 -91 
Q 1278 -91 972 -22 
Q 666 47 359 184 
z
" transform="scale(0.015625)"/>
       <path id="DejaVuSerif-66" d="M 2753 4078 
L 2450 4078 
Q 2447 4313 2317 4434 
Q 2188 4556 1941 4556 
Q 1619 4556 1487 4379 
Q 1356 4203 1356 3750 
L 1356 3322 
L 2284 3322 
L 2284 2988 
L 1356 2988 
L 1356 331 
L 2094 331 
L 2094 0 
L 231 0 
L 231 331 
L 781 331 
L 781 2988 
L 231 2988 
L 231 3322 
L 781 3322 
L 781 3738 
Q 781 4294 1070 4578 
Q 1359 4863 1919 4863 
Q 2128 4863 2337 4825 
Q 2547 4788 2753 4709 
L 2753 4078 
z
" transform="scale(0.015625)"/>
       <path id="DejaVuSerif-63" d="M 3291 997 
Q 3169 466 2822 187 
Q 2475 -91 1925 -91 
Q 1200 -91 759 389 
Q 319 869 319 1663 
Q 319 2459 759 2936 
Q 1200 3413 1925 3413 
Q 2241 3413 2553 3339 
Q 2866 3266 3181 3116 
L 3181 2266 
L 2847 2266 
Q 2781 2703 2561 2903 
Q 2341 3103 1931 3103 
Q 1466 3103 1228 2742 
Q 991 2381 991 1663 
Q 991 944 1227 581 
Q 1463 219 1931 219 
Q 2303 219 2525 412 
Q 2747 606 2828 997 
L 3291 997 
z
" transform="scale(0.015625)"/>
      </defs>
      <use xlink:href="#DejaVuSerif-74"/>
      <use xlink:href="#DejaVuSerif-72" x="40.185547"/>
      <use xlink:href="#DejaVuSerif-61" x="87.988281"/>
      <use xlink:href="#DejaVuSerif-6e" x="147.607422"/>
      <use xlink:href="#DejaVuSerif-73" x="212.011719"/>
      <use xlink:href="#DejaVuSerif-66" x="263.330078"/>
      <use xlink:href="#DejaVuSerif-6f" x="300.341797"/>
      <use xlink:href="#DejaVuSerif-72" x="360.546875"/>
      <use xlink:href="#DejaVuSerif-6d" x="408.349609"/>
      <use xlink:href="#DejaVuSerif-65" x="503.173828"/>
      <use xlink:href="#DejaVuSerif-64" x="562.353516"/>
      <use xlink:href="#DejaVuSerif-20" x="626.367188"/>
      <use xlink:href="#DejaVuSerif-74" x="658.154297"/>
      <use xlink:href="#DejaVuSerif-6f" x="698.339844"/>
      <use xlink:href="#DejaVuSerif-20" x="758.544922"/>
      <use xlink:href="#DejaVuSerif-72" x="790.332031"/>
      <use xlink:href="#DejaVuSerif-6f" x="838.134766"/>
      <use xlink:href="#DejaVuSerif-6c" x="898.339844"/>
      <use xlink:href="#DejaVuSerif-6c" x="930.322266"/>
      <use xlink:href="#DejaVuSerif-20" x="962.304688"/>
      <use xlink:href="#DejaVuSerif-63" x="994.091797"/>
      <use xlink:href="#DejaVuSerif-65" x="1050.097656"/>
      <use xlink:href="#DejaVuSerif-6e" x="1109.277344"/>
      <use xlink:href="#DejaVuSerif-74" x="1173.681641"/>
      <use xlink:href="#DejaVuSerif-72" x="1213.867188"/>
      <use xlink:href="#DejaVuSerif-65" x="1261.669922"/>
     </g>
    </g>
   </g>
  </g>
 </g>
 <defs>
  <clipPath id="pfe47a6d3ce">
   <rect x="42.36649" y="3.00024" width="343.25255" height="190.605437"/>
  </clipPath>
 </defs>
</svg>
