<?xml version="1.0" encoding="utf-8" standalone="no"?>
<!DOCTYPE svg PUBLIC "-//W3C//DTD SVG 1.1//EN"
  "http://www.w3.org/Graphics/SVG/1.1/DTD/svg11.dtd">
<svg xmlns:xlink="http://www.w3.org/1999/xlink" width="194.30964pt" height="218.623104pt" viewBox="0 0 194.30964 218.623104" xmlns="http://www.w3.org/2000/svg" version="1.1">
 <metadata>
  <rdf:RDF xmlns:dc="http://purl.org/dc/elements/1.1/" xmlns:cc="http://creativecommons.org/ns#" xmlns:rdf="http://www.w3.org/1999/02/22-rdf-syntax-ns#">
   <cc:Work>
    <dc:type rdf:resource="http://purl.org/dc/dcmitype/StillImage"/>
    <dc:date>2024-12-02T16:01:53.258191</dc:date>
    <dc:format>image/svg+xml</dc:format>
    <dc:creator>
     <cc:Agent>
      <dc:title>Matplotlib v3.8.2, https://matplotlib.org/</dc:title>
     </cc:Agent>
    </dc:creator>
   </cc:Work>
  </rdf:RDF>
 </metadata>
 <defs>
  <style type="text/css">*{stroke-linejoin: round; stroke-linecap: butt}</style>
 </defs>
 <g id="figure_1">
  <g id="patch_1">
   <path d="M 0 218.623104 
L 194.30964 218.623104 
L 194.30964 0 
L 0 0 
z
" style="fill: #ffffff"/>
  </g>
  <g id="axes_1">
   <g id="patch_2">
    <path d="M 38.251959 195.541302 
L 191.3094 195.541302 
L 191.3094 3.00024 
L 38.251959 3.00024 
z
" style="fill: #ffffff"/>
   </g>
   <g id="matplotlib.axis_1">
    <g id="xtick_1">
     <g id="line2d_1"/>
     <g id="text_1">
      <!-- 0 -->
      <g style="fill: #262626" transform="translate(42.98224 204.360208) scale(0.07 -0.07)">
       <defs>
        <path id="DejaVuSerif-30" d="M 2034 219 
Q 2513 219 2750 744 
Q 2988 1269 2988 2328 
Q 2988 3391 2750 3916 
Q 2513 4441 2034 4441 
Q 1556 4441 1318 3916 
Q 1081 3391 1081 2328 
Q 1081 1269 1318 744 
Q 1556 219 2034 219 
z
M 2034 -91 
Q 1275 -91 848 546 
Q 422 1184 422 2328 
Q 422 3475 848 4112 
Q 1275 4750 2034 4750 
Q 2797 4750 3222 4112 
Q 3647 3475 3647 2328 
Q 3647 1184 3222 546 
Q 2797 -91 2034 -91 
z
" transform="scale(0.015625)"/>
       </defs>
       <use xlink:href="#DejaVuSerif-30"/>
      </g>
     </g>
    </g>
    <g id="xtick_2">
     <g id="line2d_2"/>
     <g id="text_2">
      <!-- 5 -->
      <g style="fill: #262626" transform="translate(66.180499 204.360208) scale(0.07 -0.07)">
       <defs>
        <path id="DejaVuSerif-35" d="M 3219 4666 
L 3219 4153 
L 1081 4153 
L 1081 2816 
Q 1244 2928 1461 2984 
Q 1678 3041 1947 3041 
Q 2703 3041 3140 2622 
Q 3578 2203 3578 1478 
Q 3578 738 3136 323 
Q 2694 -91 1894 -91 
Q 1572 -91 1234 -12 
Q 897 66 544 225 
L 544 1131 
L 897 1131 
Q 925 688 1179 453 
Q 1434 219 1894 219 
Q 2388 219 2653 544 
Q 2919 869 2919 1478 
Q 2919 2084 2655 2407 
Q 2391 2731 1894 2731 
Q 1613 2731 1398 2631 
Q 1184 2531 1019 2322 
L 750 2322 
L 750 4666 
L 3219 4666 
z
" transform="scale(0.015625)"/>
       </defs>
       <use xlink:href="#DejaVuSerif-35"/>
      </g>
     </g>
    </g>
    <g id="xtick_3">
     <g id="line2d_3"/>
     <g id="text_3">
      <!-- 10 -->
      <g style="fill: #262626" transform="translate(87.151883 204.360208) scale(0.07 -0.07)">
       <defs>
        <path id="DejaVuSerif-31" d="M 909 0 
L 909 331 
L 1722 331 
L 1722 4213 
L 781 3603 
L 781 4013 
L 1919 4750 
L 2350 4750 
L 2350 331 
L 3163 331 
L 3163 0 
L 909 0 
z
" transform="scale(0.015625)"/>
       </defs>
       <use xlink:href="#DejaVuSerif-31"/>
       <use xlink:href="#DejaVuSerif-30" x="63.623047"/>
      </g>
     </g>
    </g>
    <g id="xtick_4">
     <g id="line2d_4"/>
     <g id="text_4">
      <!-- 15 -->
      <g style="fill: #262626" transform="translate(110.350142 204.360208) scale(0.07 -0.07)">
       <use xlink:href="#DejaVuSerif-31"/>
       <use xlink:href="#DejaVuSerif-35" x="63.623047"/>
      </g>
     </g>
    </g>
    <g id="xtick_5">
     <g id="line2d_5"/>
     <g id="text_5">
      <!-- 20 -->
      <g style="fill: #262626" transform="translate(133.5484 204.360208) scale(0.07 -0.07)">
       <defs>
        <path id="DejaVuSerif-32" d="M 819 3553 
L 469 3553 
L 469 4384 
Q 803 4563 1142 4656 
Q 1481 4750 1806 4750 
Q 2534 4750 2956 4397 
Q 3378 4044 3378 3438 
Q 3378 2753 2422 1800 
Q 2347 1728 2309 1691 
L 1131 513 
L 3078 513 
L 3078 1088 
L 3444 1088 
L 3444 0 
L 434 0 
L 434 341 
L 1850 1753 
Q 2319 2222 2519 2614 
Q 2719 3006 2719 3438 
Q 2719 3909 2473 4175 
Q 2228 4441 1797 4441 
Q 1350 4441 1106 4219 
Q 863 3997 819 3553 
z
" transform="scale(0.015625)"/>
       </defs>
       <use xlink:href="#DejaVuSerif-32"/>
       <use xlink:href="#DejaVuSerif-30" x="63.623047"/>
      </g>
     </g>
    </g>
    <g id="xtick_6">
     <g id="line2d_6"/>
     <g id="text_6">
      <!-- 25 -->
      <g style="fill: #262626" transform="translate(156.746659 204.360208) scale(0.07 -0.07)">
       <use xlink:href="#DejaVuSerif-32"/>
       <use xlink:href="#DejaVuSerif-35" x="63.623047"/>
      </g>
     </g>
    </g>
    <g id="xtick_7">
     <g id="line2d_7"/>
     <g id="text_7">
      <!-- 30 -->
      <g style="fill: #262626" transform="translate(179.944918 204.360208) scale(0.07 -0.07)">
       <defs>
        <path id="DejaVuSerif-33" d="M 622 4469 
Q 988 4606 1323 4678 
Q 1659 4750 1953 4750 
Q 2638 4750 3022 4454 
Q 3406 4159 3406 3634 
Q 3406 3213 3140 2930 
Q 2875 2647 2388 2547 
Q 2963 2466 3280 2130 
Q 3597 1794 3597 1259 
Q 3597 606 3158 257 
Q 2719 -91 1894 -91 
Q 1528 -91 1179 -12 
Q 831 66 488 225 
L 488 1131 
L 838 1131 
Q 869 681 1141 450 
Q 1413 219 1906 219 
Q 2384 219 2661 495 
Q 2938 772 2938 1253 
Q 2938 1803 2653 2086 
Q 2369 2369 1819 2369 
L 1522 2369 
L 1522 2688 
L 1678 2688 
Q 2225 2688 2498 2914 
Q 2772 3141 2772 3597 
Q 2772 4006 2547 4223 
Q 2322 4441 1900 4441 
Q 1478 4441 1245 4241 
Q 1013 4041 972 3647 
L 622 3647 
L 622 4469 
z
" transform="scale(0.015625)"/>
       </defs>
       <use xlink:href="#DejaVuSerif-33"/>
       <use xlink:href="#DejaVuSerif-30" x="63.623047"/>
      </g>
     </g>
    </g>
    <g id="text_8">
     <!-- time -->
     <g style="fill: #262626" transform="translate(107.995054 214.375052) scale(0.06 -0.06)">
      <defs>
       <path id="DejaVuSerif-74" d="M 691 2988 
L 184 2988 
L 184 3322 
L 691 3322 
L 691 4353 
L 1269 4353 
L 1269 3322 
L 2350 3322 
L 2350 2988 
L 1269 2988 
L 1269 878 
Q 1269 456 1350 337 
Q 1431 219 1650 219 
Q 1875 219 1978 351 
Q 2081 484 2088 781 
L 2522 781 
Q 2497 328 2275 118 
Q 2053 -91 1600 -91 
Q 1103 -91 897 129 
Q 691 350 691 878 
L 691 2988 
z
" transform="scale(0.015625)"/>
       <path id="DejaVuSerif-69" d="M 622 4353 
Q 622 4497 726 4603 
Q 831 4709 978 4709 
Q 1122 4709 1226 4603 
Q 1331 4497 1331 4353 
Q 1331 4206 1228 4103 
Q 1125 4000 978 4000 
Q 831 4000 726 4103 
Q 622 4206 622 4353 
z
M 1356 331 
L 1900 331 
L 1900 0 
L 231 0 
L 231 331 
L 781 331 
L 781 2988 
L 231 2988 
L 231 3322 
L 1356 3322 
L 1356 331 
z
" transform="scale(0.015625)"/>
       <path id="DejaVuSerif-6d" d="M 3316 2675 
Q 3481 3041 3739 3227 
Q 3997 3413 4341 3413 
Q 4863 3413 5119 3089 
Q 5375 2766 5375 2113 
L 5375 331 
L 5894 331 
L 5894 0 
L 4300 0 
L 4300 331 
L 4800 331 
L 4800 2047 
Q 4800 2556 4650 2772 
Q 4500 2988 4153 2988 
Q 3769 2988 3567 2697 
Q 3366 2406 3366 1850 
L 3366 331 
L 3866 331 
L 3866 0 
L 2291 0 
L 2291 331 
L 2791 331 
L 2791 2069 
Q 2791 2566 2641 2777 
Q 2491 2988 2144 2988 
Q 1759 2988 1557 2697 
Q 1356 2406 1356 1850 
L 1356 331 
L 1856 331 
L 1856 0 
L 263 0 
L 263 331 
L 781 331 
L 781 2994 
L 231 2994 
L 231 3322 
L 1356 3322 
L 1356 2731 
Q 1516 3063 1762 3238 
Q 2009 3413 2322 3413 
Q 2709 3413 2968 3220 
Q 3228 3028 3316 2675 
z
" transform="scale(0.015625)"/>
       <path id="DejaVuSerif-65" d="M 3469 1600 
L 991 1600 
L 991 1575 
Q 991 903 1244 561 
Q 1497 219 1991 219 
Q 2369 219 2611 417 
Q 2853 616 2950 1006 
L 3413 1006 
Q 3275 459 2904 184 
Q 2534 -91 1931 -91 
Q 1203 -91 761 389 
Q 319 869 319 1663 
Q 319 2450 753 2931 
Q 1188 3413 1894 3413 
Q 2647 3413 3050 2948 
Q 3453 2484 3469 1600 
z
M 2791 1931 
Q 2772 2513 2545 2808 
Q 2319 3103 1894 3103 
Q 1497 3103 1269 2806 
Q 1041 2509 991 1931 
L 2791 1931 
z
" transform="scale(0.015625)"/>
      </defs>
      <use xlink:href="#DejaVuSerif-74"/>
      <use xlink:href="#DejaVuSerif-69" x="40.185547"/>
      <use xlink:href="#DejaVuSerif-6d" x="72.167969"/>
      <use xlink:href="#DejaVuSerif-65" x="166.992188"/>
     </g>
    </g>
   </g>
   <g id="matplotlib.axis_2">
    <g id="ytick_1">
     <g id="line2d_8"/>
     <g id="text_9">
      <!-- −0.02 -->
      <g style="fill: #262626" transform="translate(13.30024 176.29569) scale(0.07 -0.07)">
       <defs>
        <path id="DejaVuSerif-2212" d="M 678 2259 
L 4684 2259 
L 4684 1753 
L 678 1753 
L 678 2259 
z
" transform="scale(0.015625)"/>
        <path id="DejaVuSerif-2e" d="M 603 325 
Q 603 500 722 622 
Q 841 744 1019 744 
Q 1191 744 1312 622 
Q 1434 500 1434 325 
Q 1434 153 1312 31 
Q 1191 -91 1019 -91 
Q 841 -91 722 29 
Q 603 150 603 325 
z
" transform="scale(0.015625)"/>
       </defs>
       <use xlink:href="#DejaVuSerif-2212"/>
       <use xlink:href="#DejaVuSerif-30" x="83.789062"/>
       <use xlink:href="#DejaVuSerif-2e" x="147.412109"/>
       <use xlink:href="#DejaVuSerif-30" x="179.199219"/>
       <use xlink:href="#DejaVuSerif-32" x="242.822266"/>
      </g>
     </g>
    </g>
    <g id="ytick_2">
     <g id="line2d_9"/>
     <g id="text_10">
      <!-- −0.01 -->
      <g style="fill: #262626" transform="translate(13.30024 141.101648) scale(0.07 -0.07)">
       <use xlink:href="#DejaVuSerif-2212"/>
       <use xlink:href="#DejaVuSerif-30" x="83.789062"/>
       <use xlink:href="#DejaVuSerif-2e" x="147.412109"/>
       <use xlink:href="#DejaVuSerif-30" x="179.199219"/>
       <use xlink:href="#DejaVuSerif-31" x="242.822266"/>
      </g>
     </g>
    </g>
    <g id="ytick_3">
     <g id="line2d_10"/>
     <g id="text_11">
      <!-- 0.00 -->
      <g style="fill: #262626" transform="translate(19.166021 105.907606) scale(0.07 -0.07)">
       <use xlink:href="#DejaVuSerif-30"/>
       <use xlink:href="#DejaVuSerif-2e" x="63.623047"/>
       <use xlink:href="#DejaVuSerif-30" x="95.410156"/>
       <use xlink:href="#DejaVuSerif-30" x="159.033203"/>
      </g>
     </g>
    </g>
    <g id="ytick_4">
     <g id="line2d_11"/>
     <g id="text_12">
      <!-- 0.01 -->
      <g style="fill: #262626" transform="translate(19.166021 70.713563) scale(0.07 -0.07)">
       <use xlink:href="#DejaVuSerif-30"/>
       <use xlink:href="#DejaVuSerif-2e" x="63.623047"/>
       <use xlink:href="#DejaVuSerif-30" x="95.410156"/>
       <use xlink:href="#DejaVuSerif-31" x="159.033203"/>
      </g>
     </g>
    </g>
    <g id="ytick_5">
     <g id="line2d_12"/>
     <g id="text_13">
      <!-- 0.02 -->
      <g style="fill: #262626" transform="translate(19.166021 35.519521) scale(0.07 -0.07)">
       <use xlink:href="#DejaVuSerif-30"/>
       <use xlink:href="#DejaVuSerif-2e" x="63.623047"/>
       <use xlink:href="#DejaVuSerif-30" x="95.410156"/>
       <use xlink:href="#DejaVuSerif-32" x="159.033203"/>
      </g>
     </g>
    </g>
    <g id="text_14">
     <!-- $\dot{v}$ $[m/s^2]$ -->
     <g style="fill: #262626" transform="translate(8.052427 111.420771) rotate(-90) scale(0.06 -0.06)">
      <defs>
       <path id="DejaVuSans-307" d="M -1894 4863 
L -1319 4863 
L -1319 4134 
L -1894 4134 
L -1894 4863 
z
M -1600 3584 
L -1600 3584 
z
" transform="scale(0.015625)"/>
       <path id="DejaVuSans-Oblique-76" d="M 459 3500 
L 1069 3500 
L 1581 525 
L 3256 3500 
L 3866 3500 
L 1875 0 
L 1100 0 
L 459 3500 
z
" transform="scale(0.015625)"/>
       <path id="DejaVuSerif-20" transform="scale(0.015625)"/>
       <path id="DejaVuSans-5b" d="M 550 4863 
L 1875 4863 
L 1875 4416 
L 1125 4416 
L 1125 -397 
L 1875 -397 
L 1875 -844 
L 550 -844 
L 550 4863 
z
" transform="scale(0.015625)"/>
       <path id="DejaVuSans-Oblique-6d" d="M 5747 2113 
L 5338 0 
L 4763 0 
L 5166 2094 
Q 5191 2228 5203 2325 
Q 5216 2422 5216 2491 
Q 5216 2772 5059 2928 
Q 4903 3084 4622 3084 
Q 4203 3084 3875 2770 
Q 3547 2456 3450 1953 
L 3066 0 
L 2491 0 
L 2900 2094 
Q 2925 2209 2937 2307 
Q 2950 2406 2950 2484 
Q 2950 2769 2794 2926 
Q 2638 3084 2363 3084 
Q 1938 3084 1609 2770 
Q 1281 2456 1184 1953 
L 800 0 
L 225 0 
L 909 3500 
L 1484 3500 
L 1375 2956 
Q 1609 3263 1923 3423 
Q 2238 3584 2597 3584 
Q 2978 3584 3223 3384 
Q 3469 3184 3519 2828 
Q 3781 3197 4126 3390 
Q 4472 3584 4856 3584 
Q 5306 3584 5551 3325 
Q 5797 3066 5797 2591 
Q 5797 2488 5784 2364 
Q 5772 2241 5747 2113 
z
" transform="scale(0.015625)"/>
       <path id="DejaVuSans-2f" d="M 1625 4666 
L 2156 4666 
L 531 -594 
L 0 -594 
L 1625 4666 
z
" transform="scale(0.015625)"/>
       <path id="DejaVuSans-Oblique-73" d="M 3200 3397 
L 3091 2853 
Q 2863 2978 2609 3040 
Q 2356 3103 2088 3103 
Q 1634 3103 1373 2948 
Q 1113 2794 1113 2528 
Q 1113 2219 1719 2053 
Q 1766 2041 1788 2034 
L 1972 1978 
Q 2547 1819 2739 1644 
Q 2931 1469 2931 1166 
Q 2931 609 2489 259 
Q 2047 -91 1331 -91 
Q 1053 -91 747 -37 
Q 441 16 72 128 
L 184 722 
Q 500 559 806 475 
Q 1113 391 1394 391 
Q 1816 391 2080 572 
Q 2344 753 2344 1031 
Q 2344 1331 1650 1516 
L 1591 1531 
L 1394 1581 
Q 956 1697 753 1886 
Q 550 2075 550 2369 
Q 550 2928 970 3256 
Q 1391 3584 2113 3584 
Q 2397 3584 2667 3537 
Q 2938 3491 3200 3397 
z
" transform="scale(0.015625)"/>
       <path id="DejaVuSans-32" d="M 1228 531 
L 3431 531 
L 3431 0 
L 469 0 
L 469 531 
Q 828 903 1448 1529 
Q 2069 2156 2228 2338 
Q 2531 2678 2651 2914 
Q 2772 3150 2772 3378 
Q 2772 3750 2511 3984 
Q 2250 4219 1831 4219 
Q 1534 4219 1204 4116 
Q 875 4013 500 3803 
L 500 4441 
Q 881 4594 1212 4672 
Q 1544 4750 1819 4750 
Q 2544 4750 2975 4387 
Q 3406 4025 3406 3419 
Q 3406 3131 3298 2873 
Q 3191 2616 2906 2266 
Q 2828 2175 2409 1742 
Q 1991 1309 1228 531 
z
" transform="scale(0.015625)"/>
       <path id="DejaVuSans-5d" d="M 1947 4863 
L 1947 -844 
L 622 -844 
L 622 -397 
L 1369 -397 
L 1369 4416 
L 622 4416 
L 622 4863 
L 1947 4863 
z
" transform="scale(0.015625)"/>
      </defs>
      <use xlink:href="#DejaVuSans-307" transform="translate(62.388672 11.953125)"/>
      <use xlink:href="#DejaVuSans-Oblique-76" transform="translate(0 0.765625)"/>
      <use xlink:href="#DejaVuSerif-20" transform="translate(59.179688 0.765625)"/>
      <use xlink:href="#DejaVuSans-5b" transform="translate(90.966797 0.765625)"/>
      <use xlink:href="#DejaVuSans-Oblique-6d" transform="translate(129.980469 0.765625)"/>
      <use xlink:href="#DejaVuSans-2f" transform="translate(227.392578 0.765625)"/>
      <use xlink:href="#DejaVuSans-Oblique-73" transform="translate(261.083984 0.765625)"/>
      <use xlink:href="#DejaVuSans-32" transform="translate(317.83349 39.046875) scale(0.7)"/>
      <use xlink:href="#DejaVuSans-5d" transform="translate(365.103997 0.765625)"/>
     </g>
    </g>
   </g>
   <g id="line2d_13">
    <path d="M 45.209115 101.107553 
L 45.441107 100.89731 
L 46.276226 99.956097 
L 47.250599 98.386217 
L 47.946533 96.591835 
L 48.735227 93.709492 
L 49.616757 89.646063 
L 50.683881 83.017101 
L 51.333469 77.686479 
L 51.84378 73.75149 
L 52.400557 71.576158 
L 53.003716 70.932691 
L 53.050117 70.991438 
L 53.28217 71.059725 
L 53.514106 71.227424 
L 53.560498 71.351146 
L 53.6072 71.279933 
L 53.653286 71.218629 
L 53.838877 71.539032 
L 53.978094 71.663812 
L 54.720397 72.110541 
L 54.952351 71.967536 
L 54.998776 72.000882 
L 55.045307 71.897979 
L 55.787521 70.306735 
L 56.901107 64.618926 
L 57.318616 62.083649 
L 58.060927 56.542536 
L 58.293026 55.185947 
L 58.803286 52.311846 
L 58.942628 51.802699 
L 59.406468 50.009201 
L 59.638404 49.372599 
L 59.684884 49.404706 
L 59.777589 49.206674 
L 59.824032 49.259885 
L 59.870433 49.267127 
L 59.963189 49.011999 
L 60.055992 49.060318 
L 60.287969 48.785711 
L 60.519952 48.494843 
L 60.659207 48.472292 
L 60.751935 48.468656 
L 60.798331 48.545764 
L 60.844844 48.485999 
L 60.89112 48.443462 
L 61.076696 48.758767 
L 61.123241 48.73864 
L 61.169508 48.715644 
L 61.401491 49.312981 
L 61.494279 49.369677 
L 61.819068 50.500457 
L 62.051051 51.259457 
L 62.515016 53.456755 
L 64.138908 61.40182 
L 65.345181 65.272268 
L 65.762759 66.285617 
L 66.087585 66.72186 
L 66.365969 66.756188 
L 66.922732 66.366382 
L 67.433047 65.636638 
L 67.665016 65.147734 
L 67.804331 64.952324 
L 68.03616 64.79689 
L 68.175354 64.648701 
L 68.360973 64.422653 
L 68.871307 63.393957 
L 69.149723 62.927308 
L 69.520853 62.384063 
L 69.567268 62.437235 
L 69.613776 62.338354 
L 69.799237 62.224799 
L 69.93851 62.179755 
L 70.124022 62.129462 
L 70.356028 62.251566 
L 70.448788 62.1993 
L 70.727177 62.627651 
L 71.144769 63.242961 
L 71.237524 63.315268 
L 71.469544 63.732044 
L 71.655102 64.053887 
L 72.815006 67.504433 
L 73.186238 68.817101 
L 75.41322 75.042226 
L 76.109307 76.545223 
L 76.341257 76.902511 
L 77.918632 79.70897 
L 79.264122 84.848645 
L 80.192071 90.864083 
L 80.888019 97.328039 
L 84.2286 133.540301 
L 86.826754 152.479585 
L 87.754791 156.400745 
L 89.378591 166.533173 
L 90.02816 171.888493 
L 91.466452 182.332358 
L 91.930385 184.281767 
L 91.976791 184.138302 
L 92.162363 185.060599 
L 92.255207 185.311565 
L 92.811928 186.507367 
L 93.229483 186.76846 
L 93.415078 186.587035 
L 93.507848 186.569729 
L 94.20381 185.224324 
L 94.48218 184.255943 
L 94.946163 181.946523 
L 95.270939 180.072046 
L 95.456618 179.119712 
L 95.781292 177.024785 
L 96.198865 174.417362 
L 96.616577 172.350857 
L 96.662835 172.28207 
L 96.894942 171.323257 
L 96.987615 170.902469 
L 97.312381 169.624097 
L 97.497967 169.084589 
L 97.730029 168.399733 
L 98.379645 167.230837 
L 98.425916 167.249235 
L 98.657908 166.838657 
L 99.029085 166.661961 
L 100.189035 169.268093 
L 100.884913 171.933212 
L 100.977753 172.210435 
L 101.39533 173.303159 
L 101.580898 173.636098 
L 101.85924 174.388412 
L 101.952075 174.47123 
L 102.183988 174.751542 
L 102.230426 174.681445 
L 102.323177 174.828155 
L 102.508842 174.647323 
L 102.926355 173.955198 
L 104.13266 168.751569 
L 104.503855 166.72563 
L 105.153397 163.082271 
L 105.43186 161.366299 
L 105.802949 159.083932 
L 106.498901 155.555756 
L 107.751598 151.326246 
L 108.679528 149.884993 
L 109.00428 150.02952 
L 109.236337 150.061446 
L 109.607435 150.164652 
L 109.746639 150.095381 
L 110.117815 150.378947 
L 110.488969 150.715966 
L 110.628247 150.745283 
L 111.277714 151.149361 
L 111.324148 151.094945 
L 111.370586 151.167162 
L 111.648961 151.158994 
L 112.716048 150.150515 
L 112.90162 149.67104 
L 113.040861 149.414895 
L 113.411987 148.583289 
L 114.154489 146.787497 
L 114.52548 145.768834 
L 115.035879 144.392495 
L 115.26782 143.728974 
L 115.685384 142.312522 
L 116.149372 140.801359 
L 117.355788 138.1737 
L 117.541244 137.968535 
L 117.773241 137.575792 
L 118.237285 136.966102 
L 118.283974 137.095489 
L 118.329994 137.127856 
L 118.469193 136.871539 
L 118.701227 136.605296 
L 119.025998 136.357149 
L 119.16515 136.283425 
L 119.489935 136.18502 
L 120.371455 136.416786 
L 120.557055 136.342734 
L 120.789024 136.552044 
L 121.43857 136.620238 
L 121.531433 136.54167 
L 121.624166 136.661943 
L 121.670558 136.568788 
L 121.856232 136.558902 
L 122.273731 136.591321 
L 122.505709 136.83257 
L 123.108836 136.84791 
L 124.175974 135.019776 
L 124.500717 134.441396 
L 124.779161 133.996268 
L 127.006185 132.061129 
L 127.470178 131.207406 
L 127.841345 130.390821 
L 129.094056 128.766141 
L 129.558031 128.600875 
L 129.743556 128.533586 
L 129.929179 128.434608 
L 130.671482 128.008679 
L 130.903446 128.041668 
L 131.228384 127.82704 
L 131.413808 127.696779 
L 131.599449 127.682843 
L 132.202586 127.710717 
L 132.71291 127.136941 
L 132.991285 126.681714 
L 133.176894 126.438135 
L 133.733634 126.205555 
L 134.661587 125.612285 
L 135.8215 124.204686 
L 136.099842 124.128819 
L 136.424641 123.838702 
L 136.703099 123.80507 
L 137.074192 123.820894 
L 137.259945 123.741735 
L 137.352581 123.66071 
L 138.00222 123.242716 
L 138.280557 123.067381 
L 138.976468 122.167208 
L 139.811703 120.778122 
L 140.136427 120.187439 
L 141.528267 117.673536 
L 142.548986 117.068851 
L 142.780978 117.162149 
L 143.10573 117.504375 
L 144.08008 117.135018 
L 144.590419 116.30078 
L 145.379187 114.598245 
L 146.260693 112.153542 
L 148.580658 106.408206 
L 149.137301 103.566475 
L 149.740516 100.059739 
L 150.71481 91.908701 
L 153.730537 63.711821 
L 154.565744 57.807795 
L 156.003981 48.255584 
L 157.117492 41.950748 
L 157.535177 39.509381 
L 158.045488 36.509953 
L 161.014777 18.268851 
L 161.061229 18.19357 
L 161.385977 16.520615 
L 161.5716 15.589565 
L 162.035523 13.669765 
L 162.592258 12.113404 
L 162.638664 12.179398 
L 162.731452 11.945276 
L 162.777881 12.121478 
L 162.824417 11.94516 
L 162.870693 11.752106 
L 162.917062 11.904292 
L 163.009841 11.779583 
L 163.056237 11.92115 
L 163.102699 11.87412 
L 163.149035 11.83578 
L 163.195441 11.932738 
L 163.288215 11.99718 
L 163.984172 13.691882 
L 164.216229 14.549156 
L 164.262644 14.580181 
L 165.144113 19.105093 
L 165.700922 21.996739 
L 166.257583 25.309031 
L 166.535985 26.988853 
L 167.603105 29.863882 
L 167.695884 29.850188 
L 167.9279 30.281119 
L 168.15985 30.508699 
L 168.391865 30.893829 
L 168.809387 31.260503 
L 168.948595 31.397815 
L 169.087808 31.59181 
L 169.134241 31.549025 
L 169.226988 31.585865 
L 169.273412 31.731717 
L 169.320004 31.536007 
L 169.366182 31.375341 
L 169.412583 31.539352 
L 169.459003 31.59886 
L 169.551759 31.342077 
L 169.598193 31.513601 
L 169.644687 31.361585 
L 169.922982 31.143988 
L 170.201315 30.956156 
L 170.247716 31.060756 
L 170.479689 30.414834 
L 170.526142 30.444325 
L 170.75812 30.027095 
L 170.990121 29.753361 
L 171.314827 29.435275 
L 171.500427 29.462865 
L 171.593192 29.375481 
L 171.732386 29.544798 
L 171.778857 29.483215 
L 171.917982 29.504886 
L 172.103563 29.641462 
L 172.150052 29.564464 
L 172.196347 29.522111 
L 172.381923 29.790489 
L 172.567537 29.999924 
L 172.753147 30.310403 
L 172.845926 30.342426 
L 173.170697 30.807443 
L 173.263457 30.847127 
L 173.495477 31.33918 
L 173.588275 31.469877 
L 173.773838 31.940483 
L 174.191425 33.391552 
L 174.423407 34.079765 
L 175.212199 37.255293 
L 175.954479 40.283626 
L 176.836026 44.495456 
L 176.928805 44.616828 
L 177.160783 45.649644 
L 177.717532 47.292115 
L 178.320687 48.259472 
L 179.4806 50.922908 
L 180.26942 51.680113 
L 180.594126 51.701027 
L 180.64055 51.785116 
L 180.687053 51.677202 
L 180.872495 51.617552 
L 180.965353 51.713544 
L 181.011824 51.647229 
L 181.150912 51.818214 
L 183.099626 55.205459 
L 183.146045 55.147444 
L 183.19234 55.214139 
L 183.702711 56.047932 
L 184.120289 56.963242 
L 184.213049 57.01583 
L 184.352244 57.337782 
L 184.352244 57.337782 
" clip-path="url(#pf850f34c28)" style="fill: none; stroke: #2a2eec; stroke-width: 0.4; stroke-linecap: round"/>
   </g>
   <g id="line2d_14">
    <path d="M 45.209115 101.221419 
L 45.441107 101.020864 
L 46.322659 100.074635 
L 47.296963 98.606649 
L 48.132202 96.610547 
L 48.920804 93.943948 
L 49.709536 90.64804 
L 50.451908 86.560844 
L 51.240667 80.398099 
L 52.075786 73.525771 
L 52.632632 70.806084 
L 53.143026 69.133138 
L 53.514106 68.173111 
L 53.560498 68.157564 
L 53.792457 67.468457 
L 53.885324 67.306439 
L 55.045307 64.930554 
L 55.416377 64.062425 
L 56.251491 61.511554 
L 56.854632 59.625302 
L 58.153799 55.581359 
L 58.757 54.472376 
L 58.803286 54.395928 
L 58.849673 54.455996 
L 58.896097 54.511352 
L 59.081771 54.269843 
L 59.360058 54.010836 
L 59.777589 54.089158 
L 59.870433 54.312044 
L 59.916955 54.261721 
L 59.963189 54.22926 
L 60.055992 54.400083 
L 60.102462 54.355322 
L 60.241568 54.351378 
L 60.33444 54.322694 
L 60.519952 54.229828 
L 60.659207 54.221465 
L 60.751935 54.205638 
L 60.798331 54.261564 
L 60.844844 54.191003 
L 60.89112 54.132835 
L 60.937516 54.210098 
L 61.169508 54.174699 
L 61.308693 54.280998 
L 61.679897 54.656166 
L 61.772644 54.707309 
L 62.004771 55.050465 
L 62.051051 55.050084 
L 62.283015 55.559829 
L 62.468638 55.885561 
L 62.839778 56.596828 
L 63.071793 57.219932 
L 63.164544 57.299997 
L 63.442914 58.102721 
L 63.860492 59.014796 
L 64.324457 59.477207 
L 65.113263 60.970364 
L 65.484375 61.668048 
L 65.809141 62.500827 
L 66.133926 63.076984 
L 66.365969 63.34441 
L 67.61874 64.214391 
L 67.711431 64.2962 
L 68.360973 65.079203 
L 68.453729 65.090774 
L 68.500172 65.175711 
L 68.546638 65.116986 
L 68.917731 65.135007 
L 69.288926 65.142892 
L 69.474559 65.098552 
L 69.660047 65.149843 
L 69.845638 65.271082 
L 70.077695 65.338509 
L 70.309631 65.48363 
L 71.052008 66.192089 
L 71.423152 66.446055 
L 71.887104 66.899591 
L 72.211874 67.406662 
L 72.49024 67.735469 
L 72.722296 68.148321 
L 72.815006 68.255361 
L 73.093422 68.837882 
L 73.603738 69.537355 
L 73.928522 70.08423 
L 74.253363 70.635444 
L 74.995666 72.239349 
L 75.088445 72.306883 
L 75.320455 72.694617 
L 75.598857 73.19083 
L 77.965052 78.778504 
L 78.197067 79.672947 
L 79.356971 84.820259 
L 79.96013 88.51467 
L 80.795309 95.23206 
L 81.862336 106.985558 
L 85.759676 151.487766 
L 86.687579 159.621331 
L 88.497034 168.507695 
L 90.770482 177.33658 
L 90.863353 177.613163 
L 91.095253 178.358648 
L 91.280852 178.596857 
L 91.512793 179.010259 
L 91.559199 178.956336 
L 91.605675 179.066098 
L 91.652001 179.146934 
L 91.698426 178.991932 
L 91.74498 179.176718 
L 91.884003 179.308557 
L 91.930385 179.304738 
L 91.976791 179.045804 
L 92.023498 179.326479 
L 92.069575 179.552402 
L 92.162363 179.458834 
L 92.208774 179.403225 
L 92.255207 179.498282 
L 93.368668 179.989931 
L 93.507848 179.98011 
L 93.69349 179.869981 
L 93.739896 179.956806 
L 93.786223 179.88676 
L 94.06462 179.80378 
L 94.111012 179.708689 
L 94.157511 179.774741 
L 94.20381 179.840099 
L 94.250216 179.692684 
L 94.34299 179.75903 
L 94.574991 179.494145 
L 94.76055 179.258732 
L 94.992569 178.575734 
L 95.085348 178.596642 
L 95.270939 178.068321 
L 95.363727 178.053549 
L 95.595761 177.399838 
L 95.781292 176.861589 
L 96.106076 175.801417 
L 96.245266 175.559163 
L 96.477249 174.989109 
L 96.523803 175.06203 
L 97.497967 173.415653 
L 97.683553 172.961798 
L 97.776342 172.889268 
L 98.008459 172.508384 
L 98.054749 172.514533 
L 98.333128 171.853059 
L 98.425916 171.820311 
L 98.750669 170.964366 
L 99.075574 170.491915 
L 99.121864 170.493288 
L 99.214727 170.270732 
L 99.261137 170.374242 
L 99.63223 170.199717 
L 99.724982 170.350562 
L 99.771424 170.268148 
L 99.817821 170.219782 
L 99.864338 170.329252 
L 99.910586 170.393106 
L 100.003421 170.186168 
L 100.049943 170.308065 
L 100.096172 170.378578 
L 100.142587 170.219112 
L 100.189035 170.251879 
L 100.420943 170.472974 
L 100.467372 170.421861 
L 100.560124 170.65921 
L 100.606543 170.614781 
L 100.652995 170.628602 
L 100.745724 170.899344 
L 100.792148 170.760518 
L 100.977753 170.930793 
L 101.163339 171.029841 
L 101.348897 170.897331 
L 101.488137 170.894292 
L 102.044858 170.972367 
L 102.230426 170.741916 
L 102.276878 170.812903 
L 102.323177 170.771146 
L 102.555239 170.3172 
L 102.647962 170.236377 
L 102.833604 169.736178 
L 103.065535 169.209355 
L 103.993484 165.909936 
L 104.271868 164.829212 
L 104.55028 163.810268 
L 105.339007 160.939239 
L 106.174111 158.036235 
L 106.777275 156.394555 
L 107.566016 154.516966 
L 107.798013 154.165011 
L 108.865114 152.451475 
L 109.282678 152.038614 
L 109.561145 151.653864 
L 109.700238 151.397074 
L 109.978612 151.036213 
L 110.767367 150.226214 
L 110.952953 149.980788 
L 112.576826 147.54187 
L 112.762459 147.123163 
L 112.85521 147.04587 
L 113.087179 146.51559 
L 113.319254 146.052615 
L 114.015109 144.810035 
L 114.386332 144.17799 
L 115.685384 142.090461 
L 116.056574 141.340866 
L 117.170151 139.848669 
L 117.958832 139.112372 
L 118.237285 138.698557 
L 118.329994 138.859737 
L 118.515632 138.45074 
L 118.608397 138.402185 
L 118.886808 137.95265 
L 118.979564 137.910005 
L 119.211579 137.577147 
L 119.30434 137.528147 
L 119.489935 137.302205 
L 120.232266 136.876423 
L 120.557055 136.495417 
L 120.649834 136.554812 
L 120.696235 136.468982 
L 120.83542 136.451701 
L 121.067431 136.263446 
L 121.160205 136.291594 
L 121.392239 136.020803 
L 122.181021 135.451517 
L 122.644875 135.644585 
L 122.876876 135.529553 
L 122.969655 135.628269 
L 123.155269 135.421597 
L 125.011093 133.059404 
L 125.428652 133.073604 
L 125.660635 133.046092 
L 125.846249 132.975287 
L 126.402988 132.903955 
L 126.58857 132.85824 
L 126.913359 132.745771 
L 127.238158 132.261707 
L 127.377329 132.043785 
L 128.212471 130.671469 
L 128.444435 130.406253 
L 128.954825 129.610427 
L 129.558031 129.114842 
L 129.743556 128.969126 
L 129.929179 128.786019 
L 130.810699 127.902191 
L 130.903446 127.877707 
L 131.228384 127.503927 
L 131.506601 127.222805 
L 131.692201 127.161457 
L 132.016958 127.110556 
L 132.71291 126.403718 
L 132.991285 125.949741 
L 133.176894 125.724332 
L 134.058405 125.525572 
L 134.290438 125.393386 
L 134.661587 125.300164 
L 135.8215 124.277895 
L 136.099842 124.276514 
L 136.424641 124.056713 
L 136.703099 124.072751 
L 137.074192 124.138459 
L 137.259945 124.073587 
L 137.352581 123.997105 
L 138.744467 122.74011 
L 139.486857 121.268618 
L 141.528267 117.184709 
L 142.3634 116.664504 
L 142.64183 116.706075 
L 143.012988 117.151128 
L 143.198588 117.27304 
L 143.987422 117.332994 
L 144.219261 117.077968 
L 145.425663 115.009636 
L 146.121546 113.236489 
L 148.39498 108.218589 
L 148.71976 107.077128 
L 149.647644 102.380745 
L 150.297218 97.691623 
L 150.993157 91.511965 
L 151.874681 82.2307 
L 155.818381 43.029373 
L 156.096774 40.79093 
L 156.839118 35.620642 
L 157.95263 29.143078 
L 158.184668 28.310617 
L 158.46301 27.164549 
L 158.741398 26.250404 
L 159.019745 25.191984 
L 159.066169 25.235484 
L 159.298133 24.259458 
L 159.390954 24.138443 
L 159.715702 23.02761 
L 160.179728 22.008838 
L 160.411664 21.599066 
L 161.5716 19.588855 
L 161.989136 18.826558 
L 162.731452 17.796994 
L 162.777881 17.973509 
L 162.824417 17.816186 
L 162.870693 17.638516 
L 162.963519 17.718105 
L 163.102699 17.705182 
L 163.241851 17.671464 
L 163.334663 17.765311 
L 163.381087 17.668124 
L 163.47382 17.757511 
L 163.705798 18.110655 
L 163.75231 18.056219 
L 163.798568 18.044941 
L 163.891398 18.376637 
L 163.937892 18.331412 
L 163.984172 18.342634 
L 164.03062 18.521799 
L 164.12339 18.467439 
L 164.308962 18.692747 
L 164.680106 19.408739 
L 164.912182 20.002087 
L 165.329676 21.057919 
L 165.515285 21.583416 
L 165.608046 21.690935 
L 165.840098 22.249102 
L 166.118459 23.212287 
L 166.582447 24.812398 
L 166.814351 25.344602 
L 167.04637 25.708074 
L 167.185537 25.898144 
L 167.371169 26.066039 
L 167.417515 26.050575 
L 167.603105 26.295818 
L 167.695884 26.239694 
L 167.9279 26.649064 
L 168.113513 26.878847 
L 168.299048 27.234083 
L 168.623871 27.891617 
L 168.809387 28.257361 
L 169.041388 28.812327 
L 169.273412 29.444295 
L 169.366182 29.24444 
L 169.459003 29.649271 
L 169.505516 29.567411 
L 169.551759 29.565793 
L 169.598193 29.833061 
L 169.690953 29.796696 
L 169.922982 30.119973 
L 170.386943 30.788728 
L 170.433474 30.620376 
L 170.479689 30.561581 
L 170.618888 30.690424 
L 170.75812 30.747669 
L 171.082853 31.057387 
L 171.175619 31.084862 
L 171.361256 31.278167 
L 171.454016 31.360168 
L 171.732386 31.90445 
L 171.825165 31.92783 
L 172.103563 32.406894 
L 172.196347 32.372714 
L 172.428385 32.820192 
L 172.892327 33.556356 
L 173.124296 33.758204 
L 173.309905 34.036556 
L 173.402647 34.029556 
L 173.68123 34.600831 
L 173.727543 34.495363 
L 173.773838 34.651795 
L 174.052226 35.301598 
L 174.469836 36.201636 
L 174.562588 36.316696 
L 174.794575 36.957647 
L 175.676099 39.162862 
L 177.346388 44.612007 
L 177.810335 45.596081 
L 178.042326 46.091701 
L 178.274346 46.452306 
L 178.552656 47.085865 
L 179.619817 50.425391 
L 179.712583 50.5376 
L 179.944588 51.088799 
L 180.64055 52.166915 
L 180.733306 52.106701 
L 180.918929 52.35395 
L 181.382853 53.247004 
L 181.707651 54.040302 
L 182.449968 55.800699 
L 182.682015 56.424663 
L 182.913947 56.71703 
L 183.099626 57.025018 
L 183.146045 56.972389 
L 183.19234 57.039298 
L 183.888362 58.165189 
L 184.352244 58.890969 
L 184.352244 58.890969 
" clip-path="url(#pf850f34c28)" style="fill: none; stroke: #fa7c17; stroke-width: 0.4; stroke-linecap: round"/>
   </g>
   <g id="patch_3">
    <path d="M 38.251959 195.541302 
L 38.251959 3.00024 
" style="fill: none; stroke: #000000; stroke-linejoin: miter; stroke-linecap: square"/>
   </g>
   <g id="patch_4">
    <path d="M 38.251959 195.541302 
L 191.3094 195.541302 
" style="fill: none; stroke: #000000; stroke-linejoin: miter; stroke-linecap: square"/>
   </g>
   <g id="legend_1">
    <g id="line2d_15">
     <path d="M 44.551959 12.169146 
L 51.551959 12.169146 
L 58.551959 12.169146 
" style="fill: none; stroke: #2a2eec; stroke-width: 0.4; stroke-linecap: round"/>
    </g>
    <g id="text_15">
     <!-- original data -->
     <g style="fill: #262626" transform="translate(64.151959 14.619146) scale(0.07 -0.07)">
      <defs>
       <path id="DejaVuSerif-6f" d="M 1925 219 
Q 2388 219 2623 584 
Q 2859 950 2859 1663 
Q 2859 2375 2623 2739 
Q 2388 3103 1925 3103 
Q 1463 3103 1227 2739 
Q 991 2375 991 1663 
Q 991 950 1228 584 
Q 1466 219 1925 219 
z
M 1925 -91 
Q 1200 -91 759 389 
Q 319 869 319 1663 
Q 319 2456 758 2934 
Q 1197 3413 1925 3413 
Q 2653 3413 3092 2934 
Q 3531 2456 3531 1663 
Q 3531 869 3092 389 
Q 2653 -91 1925 -91 
z
" transform="scale(0.015625)"/>
       <path id="DejaVuSerif-72" d="M 3059 3328 
L 3059 2497 
L 2728 2497 
Q 2713 2744 2591 2866 
Q 2469 2988 2234 2988 
Q 1809 2988 1582 2694 
Q 1356 2400 1356 1850 
L 1356 331 
L 2022 331 
L 2022 0 
L 263 0 
L 263 331 
L 781 331 
L 781 2994 
L 231 2994 
L 231 3322 
L 1356 3322 
L 1356 2731 
Q 1525 3078 1790 3245 
Q 2056 3413 2438 3413 
Q 2578 3413 2733 3391 
Q 2888 3369 3059 3328 
z
" transform="scale(0.015625)"/>
       <path id="DejaVuSerif-67" d="M 3359 2988 
L 3359 72 
Q 3359 -644 2965 -1033 
Q 2572 -1422 1844 -1422 
Q 1516 -1422 1216 -1362 
Q 916 -1303 641 -1184 
L 641 -488 
L 941 -488 
Q 997 -813 1206 -963 
Q 1416 -1113 1806 -1113 
Q 2313 -1113 2548 -827 
Q 2784 -541 2784 72 
L 2784 519 
Q 2616 206 2355 57 
Q 2094 -91 1709 -91 
Q 1097 -91 708 395 
Q 319 881 319 1663 
Q 319 2444 706 2928 
Q 1094 3413 1709 3413 
Q 2094 3413 2355 3264 
Q 2616 3116 2784 2803 
L 2784 3322 
L 3909 3322 
L 3909 2988 
L 3359 2988 
z
M 2784 1825 
Q 2784 2422 2554 2737 
Q 2325 3053 1888 3053 
Q 1444 3053 1217 2703 
Q 991 2353 991 1663 
Q 991 975 1217 622 
Q 1444 269 1888 269 
Q 2325 269 2554 583 
Q 2784 897 2784 1497 
L 2784 1825 
z
" transform="scale(0.015625)"/>
       <path id="DejaVuSerif-6e" d="M 263 0 
L 263 331 
L 781 331 
L 781 2988 
L 231 2988 
L 231 3322 
L 1356 3322 
L 1356 2731 
Q 1516 3069 1770 3241 
Q 2025 3413 2363 3413 
Q 2913 3413 3172 3097 
Q 3431 2781 3431 2113 
L 3431 331 
L 3944 331 
L 3944 0 
L 2356 0 
L 2356 331 
L 2853 331 
L 2853 1931 
Q 2853 2541 2703 2767 
Q 2553 2994 2175 2994 
Q 1775 2994 1565 2701 
Q 1356 2409 1356 1850 
L 1356 331 
L 1856 331 
L 1856 0 
L 263 0 
z
" transform="scale(0.015625)"/>
       <path id="DejaVuSerif-61" d="M 2547 1044 
L 2547 1747 
L 1806 1747 
Q 1378 1747 1168 1562 
Q 959 1378 959 997 
Q 959 650 1171 447 
Q 1384 244 1747 244 
Q 2106 244 2326 466 
Q 2547 688 2547 1044 
z
M 3122 2075 
L 3122 331 
L 3634 331 
L 3634 0 
L 2547 0 
L 2547 359 
Q 2356 128 2106 18 
Q 1856 -91 1522 -91 
Q 969 -91 644 203 
Q 319 497 319 997 
Q 319 1513 691 1797 
Q 1063 2081 1741 2081 
L 2547 2081 
L 2547 2309 
Q 2547 2688 2317 2895 
Q 2088 3103 1672 3103 
Q 1328 3103 1125 2947 
Q 922 2791 872 2484 
L 575 2484 
L 575 3156 
Q 875 3284 1158 3348 
Q 1441 3413 1709 3413 
Q 2400 3413 2761 3070 
Q 3122 2728 3122 2075 
z
" transform="scale(0.015625)"/>
       <path id="DejaVuSerif-6c" d="M 1313 331 
L 1856 331 
L 1856 0 
L 184 0 
L 184 331 
L 738 331 
L 738 4531 
L 184 4531 
L 184 4863 
L 1313 4863 
L 1313 331 
z
" transform="scale(0.015625)"/>
       <path id="DejaVuSerif-64" d="M 3359 331 
L 3909 331 
L 3909 0 
L 2784 0 
L 2784 519 
Q 2616 206 2355 57 
Q 2094 -91 1709 -91 
Q 1097 -91 708 395 
Q 319 881 319 1663 
Q 319 2444 706 2928 
Q 1094 3413 1709 3413 
Q 2094 3413 2355 3264 
Q 2616 3116 2784 2803 
L 2784 4531 
L 2241 4531 
L 2241 4863 
L 3359 4863 
L 3359 331 
z
M 2784 1497 
L 2784 1825 
Q 2784 2422 2554 2737 
Q 2325 3053 1888 3053 
Q 1444 3053 1217 2703 
Q 991 2353 991 1663 
Q 991 975 1217 622 
Q 1444 269 1888 269 
Q 2325 269 2554 583 
Q 2784 897 2784 1497 
z
" transform="scale(0.015625)"/>
      </defs>
      <use xlink:href="#DejaVuSerif-6f"/>
      <use xlink:href="#DejaVuSerif-72" x="60.205078"/>
      <use xlink:href="#DejaVuSerif-69" x="108.007812"/>
      <use xlink:href="#DejaVuSerif-67" x="139.990234"/>
      <use xlink:href="#DejaVuSerif-69" x="204.003906"/>
      <use xlink:href="#DejaVuSerif-6e" x="235.986328"/>
      <use xlink:href="#DejaVuSerif-61" x="300.390625"/>
      <use xlink:href="#DejaVuSerif-6c" x="360.009766"/>
      <use xlink:href="#DejaVuSerif-20" x="391.992188"/>
      <use xlink:href="#DejaVuSerif-64" x="423.779297"/>
      <use xlink:href="#DejaVuSerif-61" x="487.792969"/>
      <use xlink:href="#DejaVuSerif-74" x="547.412109"/>
      <use xlink:href="#DejaVuSerif-61" x="587.597656"/>
     </g>
    </g>
    <g id="line2d_16">
     <path d="M 44.551959 22.543365 
L 51.551959 22.543365 
L 58.551959 22.543365 
" style="fill: none; stroke: #fa7c17; stroke-width: 0.4; stroke-linecap: round"/>
    </g>
    <g id="text_16">
     <!-- transformed to roll centre -->
     <g style="fill: #262626" transform="translate(64.151959 24.993365) scale(0.07 -0.07)">
      <defs>
       <path id="DejaVuSerif-73" d="M 359 184 
L 359 959 
L 691 959 
Q 703 588 923 403 
Q 1144 219 1575 219 
Q 1963 219 2166 364 
Q 2369 509 2369 788 
Q 2369 1006 2220 1140 
Q 2072 1275 1594 1428 
L 1178 1569 
Q 750 1706 558 1912 
Q 366 2119 366 2438 
Q 366 2894 700 3153 
Q 1034 3413 1625 3413 
Q 1888 3413 2178 3344 
Q 2469 3275 2778 3144 
L 2778 2419 
L 2447 2419 
Q 2434 2741 2221 2922 
Q 2009 3103 1644 3103 
Q 1281 3103 1095 2975 
Q 909 2847 909 2591 
Q 909 2381 1050 2254 
Q 1191 2128 1613 1997 
L 2069 1856 
Q 2541 1709 2748 1489 
Q 2956 1269 2956 922 
Q 2956 450 2595 179 
Q 2234 -91 1600 -91 
Q 1278 -91 972 -22 
Q 666 47 359 184 
z
" transform="scale(0.015625)"/>
       <path id="DejaVuSerif-66" d="M 2753 4078 
L 2450 4078 
Q 2447 4313 2317 4434 
Q 2188 4556 1941 4556 
Q 1619 4556 1487 4379 
Q 1356 4203 1356 3750 
L 1356 3322 
L 2284 3322 
L 2284 2988 
L 1356 2988 
L 1356 331 
L 2094 331 
L 2094 0 
L 231 0 
L 231 331 
L 781 331 
L 781 2988 
L 231 2988 
L 231 3322 
L 781 3322 
L 781 3738 
Q 781 4294 1070 4578 
Q 1359 4863 1919 4863 
Q 2128 4863 2337 4825 
Q 2547 4788 2753 4709 
L 2753 4078 
z
" transform="scale(0.015625)"/>
       <path id="DejaVuSerif-63" d="M 3291 997 
Q 3169 466 2822 187 
Q 2475 -91 1925 -91 
Q 1200 -91 759 389 
Q 319 869 319 1663 
Q 319 2459 759 2936 
Q 1200 3413 1925 3413 
Q 2241 3413 2553 3339 
Q 2866 3266 3181 3116 
L 3181 2266 
L 2847 2266 
Q 2781 2703 2561 2903 
Q 2341 3103 1931 3103 
Q 1466 3103 1228 2742 
Q 991 2381 991 1663 
Q 991 944 1227 581 
Q 1463 219 1931 219 
Q 2303 219 2525 412 
Q 2747 606 2828 997 
L 3291 997 
z
" transform="scale(0.015625)"/>
      </defs>
      <use xlink:href="#DejaVuSerif-74"/>
      <use xlink:href="#DejaVuSerif-72" x="40.185547"/>
      <use xlink:href="#DejaVuSerif-61" x="87.988281"/>
      <use xlink:href="#DejaVuSerif-6e" x="147.607422"/>
      <use xlink:href="#DejaVuSerif-73" x="212.011719"/>
      <use xlink:href="#DejaVuSerif-66" x="263.330078"/>
      <use xlink:href="#DejaVuSerif-6f" x="300.341797"/>
      <use xlink:href="#DejaVuSerif-72" x="360.546875"/>
      <use xlink:href="#DejaVuSerif-6d" x="408.349609"/>
      <use xlink:href="#DejaVuSerif-65" x="503.173828"/>
      <use xlink:href="#DejaVuSerif-64" x="562.353516"/>
      <use xlink:href="#DejaVuSerif-20" x="626.367188"/>
      <use xlink:href="#DejaVuSerif-74" x="658.154297"/>
      <use xlink:href="#DejaVuSerif-6f" x="698.339844"/>
      <use xlink:href="#DejaVuSerif-20" x="758.544922"/>
      <use xlink:href="#DejaVuSerif-72" x="790.332031"/>
      <use xlink:href="#DejaVuSerif-6f" x="838.134766"/>
      <use xlink:href="#DejaVuSerif-6c" x="898.339844"/>
      <use xlink:href="#DejaVuSerif-6c" x="930.322266"/>
      <use xlink:href="#DejaVuSerif-20" x="962.304688"/>
      <use xlink:href="#DejaVuSerif-63" x="994.091797"/>
      <use xlink:href="#DejaVuSerif-65" x="1050.097656"/>
      <use xlink:href="#DejaVuSerif-6e" x="1109.277344"/>
      <use xlink:href="#DejaVuSerif-74" x="1173.681641"/>
      <use xlink:href="#DejaVuSerif-72" x="1213.867188"/>
      <use xlink:href="#DejaVuSerif-65" x="1261.669922"/>
     </g>
    </g>
   </g>
  </g>
 </g>
 <defs>
  <clipPath id="pf850f34c28">
   <rect x="38.251959" y="3.00024" width="153.057441" height="192.541062"/>
  </clipPath>
 </defs>
</svg>
