<?xml version="1.0" encoding="utf-8" standalone="no"?>
<!DOCTYPE svg PUBLIC "-//W3C//DTD SVG 1.1//EN"
  "http://www.w3.org/Graphics/SVG/1.1/DTD/svg11.dtd">
<svg xmlns:xlink="http://www.w3.org/1999/xlink" width="194.30964pt" height="109.311552pt" viewBox="0 0 194.30964 109.311552" xmlns="http://www.w3.org/2000/svg" version="1.1">
 <metadata>
  <rdf:RDF xmlns:dc="http://purl.org/dc/elements/1.1/" xmlns:cc="http://creativecommons.org/ns#" xmlns:rdf="http://www.w3.org/1999/02/22-rdf-syntax-ns#">
   <cc:Work>
    <dc:type rdf:resource="http://purl.org/dc/dcmitype/StillImage"/>
    <dc:date>2025-01-02T15:32:52.006474</dc:date>
    <dc:format>image/svg+xml</dc:format>
    <dc:creator>
     <cc:Agent>
      <dc:title>Matplotlib v3.8.2, https://matplotlib.org/</dc:title>
     </cc:Agent>
    </dc:creator>
   </cc:Work>
  </rdf:RDF>
 </metadata>
 <defs>
  <style type="text/css">*{stroke-linejoin: round; stroke-linecap: butt}</style>
 </defs>
 <g id="figure_1">
  <g id="patch_1">
   <path d="M 0 109.311552 
L 194.30964 109.311552 
L 194.30964 0 
L 0 0 
z
" style="fill: #ffffff"/>
  </g>
  <g id="axes_1">
   <g id="patch_2">
    <path d="M 20.61 46.840776 
L 188.90964 46.840776 
L 188.90964 5.4 
L 20.61 5.4 
z
" style="fill: #ffffff"/>
   </g>
   <g id="matplotlib.axis_1">
    <g id="xtick_1">
     <g id="line2d_1"/>
    </g>
    <g id="xtick_2">
     <g id="line2d_2"/>
    </g>
    <g id="xtick_3">
     <g id="line2d_3"/>
    </g>
    <g id="xtick_4">
     <g id="line2d_4"/>
    </g>
    <g id="xtick_5">
     <g id="line2d_5"/>
    </g>
    <g id="xtick_6">
     <g id="line2d_6"/>
    </g>
    <g id="xtick_7">
     <g id="line2d_7"/>
    </g>
   </g>
   <g id="matplotlib.axis_2">
    <g id="ytick_1">
     <g id="line2d_8"/>
     <g id="text_1">
      <!-- −10 -->
      <g style="fill: #262626" transform="translate(2.336719 46.217374) scale(0.07 -0.07)">
       <defs>
        <path id="DejaVuSerif-2212" d="M 678 2259 
L 4684 2259 
L 4684 1753 
L 678 1753 
L 678 2259 
z
" transform="scale(0.015625)"/>
        <path id="DejaVuSerif-31" d="M 909 0 
L 909 331 
L 1722 331 
L 1722 4213 
L 781 3603 
L 781 4013 
L 1919 4750 
L 2350 4750 
L 2350 331 
L 3163 331 
L 3163 0 
L 909 0 
z
" transform="scale(0.015625)"/>
        <path id="DejaVuSerif-30" d="M 2034 219 
Q 2513 219 2750 744 
Q 2988 1269 2988 2328 
Q 2988 3391 2750 3916 
Q 2513 4441 2034 4441 
Q 1556 4441 1318 3916 
Q 1081 3391 1081 2328 
Q 1081 1269 1318 744 
Q 1556 219 2034 219 
z
M 2034 -91 
Q 1275 -91 848 546 
Q 422 1184 422 2328 
Q 422 3475 848 4112 
Q 1275 4750 2034 4750 
Q 2797 4750 3222 4112 
Q 3647 3475 3647 2328 
Q 3647 1184 3222 546 
Q 2797 -91 2034 -91 
z
" transform="scale(0.015625)"/>
       </defs>
       <use xlink:href="#DejaVuSerif-2212"/>
       <use xlink:href="#DejaVuSerif-31" x="83.789062"/>
       <use xlink:href="#DejaVuSerif-30" x="147.412109"/>
      </g>
     </g>
    </g>
    <g id="ytick_2">
     <g id="line2d_9"/>
     <g id="text_2">
      <!-- 0 -->
      <g style="fill: #262626" transform="translate(12.65625 28.22592) scale(0.07 -0.07)">
       <use xlink:href="#DejaVuSerif-30"/>
      </g>
     </g>
    </g>
    <g id="ytick_3">
     <g id="line2d_10"/>
     <g id="text_3">
      <!-- 10 -->
      <g style="fill: #262626" transform="translate(8.2025 10.234467) scale(0.07 -0.07)">
       <use xlink:href="#DejaVuSerif-31"/>
       <use xlink:href="#DejaVuSerif-30" x="63.623047"/>
      </g>
     </g>
    </g>
    <g id="text_4">
     <!-- $\beta$ [deg] -->
     <g style="fill: #262626" transform="translate(-3.043281 36.950388) rotate(-90) scale(0.06 -0.06)">
      <defs>
       <path id="DejaVuSans-Oblique-3b2" d="M 872 216 
L 572 -1331 
L -6 -1331 
L 928 3478 
Q 1206 4903 2538 4903 
Q 3888 4903 3659 3700 
Q 3503 2844 2894 2531 
Q 3713 2250 3553 1416 
Q 3272 -69 1759 -66 
Q 1097 -63 872 216 
z
M 1019 966 
Q 1259 422 1875 425 
Q 2775 425 2966 1406 
Q 3138 2288 1675 2219 
L 1778 2750 
Q 2909 2731 3106 3750 
Q 3241 4438 2509 4434 
Q 1691 4434 1503 3459 
L 1019 966 
z
" transform="scale(0.015625)"/>
       <path id="DejaVuSerif-20" transform="scale(0.015625)"/>
       <path id="DejaVuSerif-5b" d="M 550 4863 
L 2003 4863 
L 2003 4531 
L 1147 4531 
L 1147 -513 
L 2003 -513 
L 2003 -844 
L 550 -844 
L 550 4863 
z
" transform="scale(0.015625)"/>
       <path id="DejaVuSerif-64" d="M 3359 331 
L 3909 331 
L 3909 0 
L 2784 0 
L 2784 519 
Q 2616 206 2355 57 
Q 2094 -91 1709 -91 
Q 1097 -91 708 395 
Q 319 881 319 1663 
Q 319 2444 706 2928 
Q 1094 3413 1709 3413 
Q 2094 3413 2355 3264 
Q 2616 3116 2784 2803 
L 2784 4531 
L 2241 4531 
L 2241 4863 
L 3359 4863 
L 3359 331 
z
M 2784 1497 
L 2784 1825 
Q 2784 2422 2554 2737 
Q 2325 3053 1888 3053 
Q 1444 3053 1217 2703 
Q 991 2353 991 1663 
Q 991 975 1217 622 
Q 1444 269 1888 269 
Q 2325 269 2554 583 
Q 2784 897 2784 1497 
z
" transform="scale(0.015625)"/>
       <path id="DejaVuSerif-65" d="M 3469 1600 
L 991 1600 
L 991 1575 
Q 991 903 1244 561 
Q 1497 219 1991 219 
Q 2369 219 2611 417 
Q 2853 616 2950 1006 
L 3413 1006 
Q 3275 459 2904 184 
Q 2534 -91 1931 -91 
Q 1203 -91 761 389 
Q 319 869 319 1663 
Q 319 2450 753 2931 
Q 1188 3413 1894 3413 
Q 2647 3413 3050 2948 
Q 3453 2484 3469 1600 
z
M 2791 1931 
Q 2772 2513 2545 2808 
Q 2319 3103 1894 3103 
Q 1497 3103 1269 2806 
Q 1041 2509 991 1931 
L 2791 1931 
z
" transform="scale(0.015625)"/>
       <path id="DejaVuSerif-67" d="M 3359 2988 
L 3359 72 
Q 3359 -644 2965 -1033 
Q 2572 -1422 1844 -1422 
Q 1516 -1422 1216 -1362 
Q 916 -1303 641 -1184 
L 641 -488 
L 941 -488 
Q 997 -813 1206 -963 
Q 1416 -1113 1806 -1113 
Q 2313 -1113 2548 -827 
Q 2784 -541 2784 72 
L 2784 519 
Q 2616 206 2355 57 
Q 2094 -91 1709 -91 
Q 1097 -91 708 395 
Q 319 881 319 1663 
Q 319 2444 706 2928 
Q 1094 3413 1709 3413 
Q 2094 3413 2355 3264 
Q 2616 3116 2784 2803 
L 2784 3322 
L 3909 3322 
L 3909 2988 
L 3359 2988 
z
M 2784 1825 
Q 2784 2422 2554 2737 
Q 2325 3053 1888 3053 
Q 1444 3053 1217 2703 
Q 991 2353 991 1663 
Q 991 975 1217 622 
Q 1444 269 1888 269 
Q 2325 269 2554 583 
Q 2784 897 2784 1497 
L 2784 1825 
z
" transform="scale(0.015625)"/>
       <path id="DejaVuSerif-5d" d="M 1947 4863 
L 1947 -844 
L 494 -844 
L 494 -513 
L 1350 -513 
L 1350 4531 
L 494 4531 
L 494 4863 
L 1947 4863 
z
" transform="scale(0.015625)"/>
      </defs>
      <use xlink:href="#DejaVuSans-Oblique-3b2" transform="translate(0 0.390625)"/>
      <use xlink:href="#DejaVuSerif-20" transform="translate(63.818359 0.390625)"/>
      <use xlink:href="#DejaVuSerif-5b" transform="translate(95.605469 0.390625)"/>
      <use xlink:href="#DejaVuSerif-64" transform="translate(134.619141 0.390625)"/>
      <use xlink:href="#DejaVuSerif-65" transform="translate(198.632812 0.390625)"/>
      <use xlink:href="#DejaVuSerif-67" transform="translate(257.8125 0.390625)"/>
      <use xlink:href="#DejaVuSerif-5d" transform="translate(321.826172 0.390625)"/>
     </g>
    </g>
   </g>
   <g id="line2d_11">
    <path d="M 28.259984 25.566467 
L 29.313028 25.454956 
L 30.366073 25.114413 
L 31.624589 24.443422 
L 34.347095 22.736593 
L 39.021586 19.499302 
L 43.824496 16.263727 
L 47.266154 14.212851 
L 50.296868 12.651557 
L 51.632437 12.146482 
L 52.685481 11.998739 
L 53.789894 12.069977 
L 54.945674 12.369669 
L 56.281243 12.955024 
L 59.825637 14.817642 
L 63.755291 17.187385 
L 68.121574 20.076359 
L 73.284061 23.795312 
L 89.542042 35.755974 
L 92.855279 37.770311 
L 95.680521 39.238745 
L 98.505763 40.455677 
L 101.408056 41.461025 
L 104.490138 42.281889 
L 107.70064 42.904047 
L 111.399138 43.396969 
L 112.452182 43.353405 
L 113.582279 43.081941 
L 115.020584 42.491343 
L 116.715729 41.533889 
L 121.980952 38.510685 
L 125.987658 36.081198 
L 129.942996 33.412728 
L 135.413691 29.409854 
L 150.875468 17.818976 
L 154.394177 15.593222 
L 157.553311 13.859013 
L 160.686761 12.394903 
L 163.691791 11.22697 
L 166.927976 10.210886 
L 170.34395 9.374625 
L 174.1195 8.691639 
L 178.357363 8.155372 
L 181.259656 7.898022 
L 181.259656 7.898022 
" clip-path="url(#pc3928a0f02)" style="fill: none; stroke: #00bfbf; stroke-width: 0.4; stroke-linecap: round"/>
   </g>
   <g id="line2d_12">
    <path d="M 28.259984 25.566467 
L 29.287344 25.425844 
L 30.314705 25.06091 
L 31.496169 24.38403 
L 33.987519 22.690756 
L 38.405169 19.358664 
L 42.540296 16.346807 
L 45.468273 14.485804 
L 48.190779 13.006397 
L 50.296868 12.077653 
L 51.349912 11.882177 
L 52.454325 11.904267 
L 53.63579 12.151198 
L 54.91999 12.645998 
L 58.490068 14.374235 
L 62.471091 16.541712 
L 67.145581 19.323299 
L 71.255023 22.012678 
L 75.364466 24.955912 
L 82.067993 30.105586 
L 86.97364 33.764411 
L 90.415298 36.074445 
L 93.266224 37.7288 
L 96.014413 39.064171 
L 98.736919 40.141766 
L 101.664896 41.052998 
L 104.849714 41.80714 
L 108.394108 42.407748 
L 112.606286 42.887625 
L 114.147327 42.916965 
L 115.303108 42.671587 
L 116.664361 42.147828 
L 118.308138 41.261934 
L 123.085364 38.494711 
L 126.989334 36.138635 
L 130.585096 33.735185 
L 134.694539 30.719929 
L 138.675561 27.519792 
L 150.336103 18.023451 
L 153.443869 15.905651 
L 156.217742 14.277025 
L 158.940248 12.930144 
L 161.919594 11.709019 
L 164.898939 10.73742 
L 168.135125 9.921112 
L 171.705203 9.247612 
L 175.891697 8.688784 
L 180.052508 8.315328 
L 180.052508 8.315328 
" clip-path="url(#pc3928a0f02)" style="fill: none; stroke: #bf00bf; stroke-width: 0.4; stroke-linecap: round"/>
   </g>
   <g id="patch_3">
    <path d="M 20.61 46.840776 
L 20.61 5.4 
" style="fill: none; stroke: #000000; stroke-linejoin: miter; stroke-linecap: square"/>
   </g>
   <g id="patch_4">
    <path d="M 20.61 46.840776 
L 188.90964 46.840776 
" style="fill: none; stroke: #000000; stroke-linejoin: miter; stroke-linecap: square"/>
   </g>
   <g id="legend_1">
    <g id="line2d_13">
     <path style="fill: none; stroke: #000000; stroke-width: 0.7; stroke-linecap: round"/>
    </g>
    <g id="text_5">
     <!-- FRMT -->
     <g style="fill: #262626" transform="translate(39.189507 0.995409) scale(0.07 -0.07)">
      <defs>
       <path id="DejaVuSerif-46" d="M 353 0 
L 353 331 
L 947 331 
L 947 4331 
L 353 4331 
L 353 4666 
L 4172 4666 
L 4172 3628 
L 3788 3628 
L 3788 4281 
L 1581 4281 
L 1581 2719 
L 3175 2719 
L 3175 3303 
L 3559 3303 
L 3559 1753 
L 3175 1753 
L 3175 2338 
L 1581 2338 
L 1581 331 
L 2328 331 
L 2328 0 
L 353 0 
z
" transform="scale(0.015625)"/>
       <path id="DejaVuSerif-52" d="M 3066 2316 
Q 3284 2256 3442 2114 
Q 3600 1972 3725 1716 
L 4403 331 
L 4972 331 
L 4972 0 
L 3872 0 
L 3144 1484 
Q 2934 1916 2759 2042 
Q 2584 2169 2278 2169 
L 1581 2169 
L 1581 331 
L 2241 331 
L 2241 0 
L 353 0 
L 353 331 
L 947 331 
L 947 4331 
L 353 4331 
L 353 4666 
L 2719 4666 
Q 3400 4666 3770 4341 
Q 4141 4016 4141 3419 
Q 4141 2938 3870 2661 
Q 3600 2384 3066 2316 
z
M 1581 2503 
L 2503 2503 
Q 2975 2503 3200 2726 
Q 3425 2950 3425 3419 
Q 3425 3888 3200 4109 
Q 2975 4331 2503 4331 
L 1581 4331 
L 1581 2503 
z
" transform="scale(0.015625)"/>
       <path id="DejaVuSerif-4d" d="M 353 0 
L 353 331 
L 947 331 
L 947 4331 
L 319 4331 
L 319 4666 
L 1678 4666 
L 3316 1344 
L 4953 4666 
L 6228 4666 
L 6228 4331 
L 5606 4331 
L 5606 331 
L 6203 331 
L 6203 0 
L 4378 0 
L 4378 331 
L 4972 331 
L 4972 3938 
L 3372 684 
L 2931 684 
L 1331 3938 
L 1331 331 
L 1925 331 
L 1925 0 
L 353 0 
z
" transform="scale(0.015625)"/>
       <path id="DejaVuSerif-54" d="M 1222 0 
L 1222 331 
L 1819 331 
L 1819 4294 
L 447 4294 
L 447 3566 
L 63 3566 
L 63 4666 
L 4206 4666 
L 4206 3566 
L 3822 3566 
L 3822 4294 
L 2450 4294 
L 2450 331 
L 3047 331 
L 3047 0 
L 1222 0 
z
" transform="scale(0.015625)"/>
      </defs>
      <use xlink:href="#DejaVuSerif-46"/>
      <use xlink:href="#DejaVuSerif-52" x="69.384766"/>
      <use xlink:href="#DejaVuSerif-4d" x="144.677734"/>
      <use xlink:href="#DejaVuSerif-54" x="247.070312"/>
     </g>
    </g>
    <g id="line2d_14">
     <path style="fill: none; stroke: #00bfbf; stroke-width: 0.4; stroke-linecap: round"/>
    </g>
    <g id="text_6">
     <!-- MMG -->
     <g style="fill: #262626" transform="translate(94.754195 -3.701482) scale(0.07 -0.07)">
      <defs>
       <path id="DejaVuSerif-47" d="M 4097 3272 
Q 3988 3856 3641 4136 
Q 3294 4416 2675 4416 
Q 1869 4416 1472 3897 
Q 1075 3378 1075 2328 
Q 1075 1300 1484 772 
Q 1894 244 2688 244 
Q 3041 244 3362 331 
Q 3684 419 3975 594 
L 3975 1797 
L 3097 1797 
L 3097 2131 
L 4609 2131 
L 4609 391 
Q 4194 150 3714 29 
Q 3234 -91 2688 -91 
Q 1631 -91 995 570 
Q 359 1231 359 2328 
Q 359 3434 996 4092 
Q 1634 4750 2713 4750 
Q 3113 4750 3539 4658 
Q 3966 4566 4447 4378 
L 4447 3272 
L 4097 3272 
z
" transform="scale(0.015625)"/>
      </defs>
      <use xlink:href="#DejaVuSerif-4d"/>
      <use xlink:href="#DejaVuSerif-4d" x="102.392578"/>
      <use xlink:href="#DejaVuSerif-47" x="204.785156"/>
     </g>
     <!-- original -->
     <g style="fill: #262626" transform="translate(94.754195 4.136987) scale(0.07 -0.07)">
      <defs>
       <path id="DejaVuSerif-6f" d="M 1925 219 
Q 2388 219 2623 584 
Q 2859 950 2859 1663 
Q 2859 2375 2623 2739 
Q 2388 3103 1925 3103 
Q 1463 3103 1227 2739 
Q 991 2375 991 1663 
Q 991 950 1228 584 
Q 1466 219 1925 219 
z
M 1925 -91 
Q 1200 -91 759 389 
Q 319 869 319 1663 
Q 319 2456 758 2934 
Q 1197 3413 1925 3413 
Q 2653 3413 3092 2934 
Q 3531 2456 3531 1663 
Q 3531 869 3092 389 
Q 2653 -91 1925 -91 
z
" transform="scale(0.015625)"/>
       <path id="DejaVuSerif-72" d="M 3059 3328 
L 3059 2497 
L 2728 2497 
Q 2713 2744 2591 2866 
Q 2469 2988 2234 2988 
Q 1809 2988 1582 2694 
Q 1356 2400 1356 1850 
L 1356 331 
L 2022 331 
L 2022 0 
L 263 0 
L 263 331 
L 781 331 
L 781 2994 
L 231 2994 
L 231 3322 
L 1356 3322 
L 1356 2731 
Q 1525 3078 1790 3245 
Q 2056 3413 2438 3413 
Q 2578 3413 2733 3391 
Q 2888 3369 3059 3328 
z
" transform="scale(0.015625)"/>
       <path id="DejaVuSerif-69" d="M 622 4353 
Q 622 4497 726 4603 
Q 831 4709 978 4709 
Q 1122 4709 1226 4603 
Q 1331 4497 1331 4353 
Q 1331 4206 1228 4103 
Q 1125 4000 978 4000 
Q 831 4000 726 4103 
Q 622 4206 622 4353 
z
M 1356 331 
L 1900 331 
L 1900 0 
L 231 0 
L 231 331 
L 781 331 
L 781 2988 
L 231 2988 
L 231 3322 
L 1356 3322 
L 1356 331 
z
" transform="scale(0.015625)"/>
       <path id="DejaVuSerif-6e" d="M 263 0 
L 263 331 
L 781 331 
L 781 2988 
L 231 2988 
L 231 3322 
L 1356 3322 
L 1356 2731 
Q 1516 3069 1770 3241 
Q 2025 3413 2363 3413 
Q 2913 3413 3172 3097 
Q 3431 2781 3431 2113 
L 3431 331 
L 3944 331 
L 3944 0 
L 2356 0 
L 2356 331 
L 2853 331 
L 2853 1931 
Q 2853 2541 2703 2767 
Q 2553 2994 2175 2994 
Q 1775 2994 1565 2701 
Q 1356 2409 1356 1850 
L 1356 331 
L 1856 331 
L 1856 0 
L 263 0 
z
" transform="scale(0.015625)"/>
       <path id="DejaVuSerif-61" d="M 2547 1044 
L 2547 1747 
L 1806 1747 
Q 1378 1747 1168 1562 
Q 959 1378 959 997 
Q 959 650 1171 447 
Q 1384 244 1747 244 
Q 2106 244 2326 466 
Q 2547 688 2547 1044 
z
M 3122 2075 
L 3122 331 
L 3634 331 
L 3634 0 
L 2547 0 
L 2547 359 
Q 2356 128 2106 18 
Q 1856 -91 1522 -91 
Q 969 -91 644 203 
Q 319 497 319 997 
Q 319 1513 691 1797 
Q 1063 2081 1741 2081 
L 2547 2081 
L 2547 2309 
Q 2547 2688 2317 2895 
Q 2088 3103 1672 3103 
Q 1328 3103 1125 2947 
Q 922 2791 872 2484 
L 575 2484 
L 575 3156 
Q 875 3284 1158 3348 
Q 1441 3413 1709 3413 
Q 2400 3413 2761 3070 
Q 3122 2728 3122 2075 
z
" transform="scale(0.015625)"/>
       <path id="DejaVuSerif-6c" d="M 1313 331 
L 1856 331 
L 1856 0 
L 184 0 
L 184 331 
L 738 331 
L 738 4531 
L 184 4531 
L 184 4863 
L 1313 4863 
L 1313 331 
z
" transform="scale(0.015625)"/>
      </defs>
      <use xlink:href="#DejaVuSerif-6f"/>
      <use xlink:href="#DejaVuSerif-72" x="60.205078"/>
      <use xlink:href="#DejaVuSerif-69" x="108.007812"/>
      <use xlink:href="#DejaVuSerif-67" x="139.990234"/>
      <use xlink:href="#DejaVuSerif-69" x="204.003906"/>
      <use xlink:href="#DejaVuSerif-6e" x="235.986328"/>
      <use xlink:href="#DejaVuSerif-61" x="300.390625"/>
      <use xlink:href="#DejaVuSerif-6c" x="360.009766"/>
     </g>
    </g>
    <g id="line2d_15">
     <path style="fill: none; stroke: #bf00bf; stroke-width: 0.4; stroke-linecap: round"/>
    </g>
    <g id="text_7">
     <!-- MMG -->
     <g style="fill: #262626" transform="translate(155.794195 -3.651716) scale(0.07 -0.07)">
      <use xlink:href="#DejaVuSerif-4d"/>
      <use xlink:href="#DejaVuSerif-4d" x="102.392578"/>
      <use xlink:href="#DejaVuSerif-47" x="204.785156"/>
     </g>
     <!-- quadratic -->
     <g style="fill: #262626" transform="translate(155.794195 4.186753) scale(0.07 -0.07)">
      <defs>
       <path id="DejaVuSerif-71" d="M 3359 2988 
L 3359 -997 
L 3909 -997 
L 3909 -1331 
L 2241 -1331 
L 2241 -997 
L 2784 -997 
L 2784 519 
Q 2616 206 2355 57 
Q 2094 -91 1709 -91 
Q 1097 -91 708 395 
Q 319 881 319 1663 
Q 319 2444 706 2928 
Q 1094 3413 1709 3413 
Q 2094 3413 2355 3264 
Q 2616 3116 2784 2803 
L 2784 3322 
L 3909 3322 
L 3909 2988 
L 3359 2988 
z
M 2784 1825 
Q 2784 2422 2554 2737 
Q 2325 3053 1888 3053 
Q 1444 3053 1217 2703 
Q 991 2353 991 1663 
Q 991 975 1217 622 
Q 1444 269 1888 269 
Q 2325 269 2554 583 
Q 2784 897 2784 1497 
L 2784 1825 
z
" transform="scale(0.015625)"/>
       <path id="DejaVuSerif-75" d="M 2266 3322 
L 3341 3322 
L 3341 331 
L 3884 331 
L 3884 0 
L 2766 0 
L 2766 588 
Q 2606 256 2353 82 
Q 2100 -91 1766 -91 
Q 1213 -91 952 223 
Q 691 538 691 1209 
L 691 2988 
L 172 2988 
L 172 3322 
L 1269 3322 
L 1269 1388 
Q 1269 781 1417 556 
Q 1566 331 1947 331 
Q 2347 331 2556 625 
Q 2766 919 2766 1478 
L 2766 2988 
L 2266 2988 
L 2266 3322 
z
" transform="scale(0.015625)"/>
       <path id="DejaVuSerif-74" d="M 691 2988 
L 184 2988 
L 184 3322 
L 691 3322 
L 691 4353 
L 1269 4353 
L 1269 3322 
L 2350 3322 
L 2350 2988 
L 1269 2988 
L 1269 878 
Q 1269 456 1350 337 
Q 1431 219 1650 219 
Q 1875 219 1978 351 
Q 2081 484 2088 781 
L 2522 781 
Q 2497 328 2275 118 
Q 2053 -91 1600 -91 
Q 1103 -91 897 129 
Q 691 350 691 878 
L 691 2988 
z
" transform="scale(0.015625)"/>
       <path id="DejaVuSerif-63" d="M 3291 997 
Q 3169 466 2822 187 
Q 2475 -91 1925 -91 
Q 1200 -91 759 389 
Q 319 869 319 1663 
Q 319 2459 759 2936 
Q 1200 3413 1925 3413 
Q 2241 3413 2553 3339 
Q 2866 3266 3181 3116 
L 3181 2266 
L 2847 2266 
Q 2781 2703 2561 2903 
Q 2341 3103 1931 3103 
Q 1466 3103 1228 2742 
Q 991 2381 991 1663 
Q 991 944 1227 581 
Q 1463 219 1931 219 
Q 2303 219 2525 412 
Q 2747 606 2828 997 
L 3291 997 
z
" transform="scale(0.015625)"/>
      </defs>
      <use xlink:href="#DejaVuSerif-71"/>
      <use xlink:href="#DejaVuSerif-75" x="64.013672"/>
      <use xlink:href="#DejaVuSerif-61" x="128.417969"/>
      <use xlink:href="#DejaVuSerif-64" x="188.037109"/>
      <use xlink:href="#DejaVuSerif-72" x="252.050781"/>
      <use xlink:href="#DejaVuSerif-61" x="299.853516"/>
      <use xlink:href="#DejaVuSerif-74" x="359.472656"/>
      <use xlink:href="#DejaVuSerif-69" x="399.658203"/>
      <use xlink:href="#DejaVuSerif-63" x="431.640625"/>
     </g>
    </g>
   </g>
   <g id="line2d_16">
    <path d="M 28.259984 25.555372 
L 29.492801 25.445593 
L 30.699906 25.125603 
L 33.21695 24.111748 
L 35.708299 22.942763 
L 37.865784 21.691194 
L 40.690993 19.751737 
L 48.088017 14.510827 
L 50.425265 13.14304 
L 51.735116 12.630008 
L 53.070685 12.353163 
L 54.406264 12.299126 
L 55.382236 12.46665 
L 57.462667 12.95944 
L 59.620103 13.546473 
L 61.212556 14.182936 
L 63.010419 15.175786 
L 65.861352 17.047856 
L 69.765299 19.812924 
L 76.26335 24.585645 
L 94.396346 37.586034 
L 97.452661 39.399889 
L 100.688855 41.075592 
L 103.103145 42.132583 
L 106.878697 43.492913 
L 109.626894 44.248095 
L 113.017179 44.953335 
L 114.224374 44.88323 
L 115.611272 44.57299 
L 116.792732 44.092401 
L 120.46553 42.466061 
L 122.648718 41.512245 
L 124.369496 40.468936 
L 126.989339 38.581752 
L 134.463329 32.996242 
L 139.779932 29.400425 
L 154.111615 19.082087 
L 159.890503 15.297103 
L 163.640369 13.194134 
L 166.183112 11.935617 
L 170.523687 10.042722 
L 173.554444 8.977548 
L 176.276901 8.205517 
L 180.026775 7.283672 
L 180.026775 7.283672 
" clip-path="url(#pc3928a0f02)" style="fill: none; stroke: #000000; stroke-width: 0.7; stroke-linecap: round"/>
   </g>
  </g>
  <g id="axes_2">
   <g id="patch_5">
    <path d="M 20.61 93.681552 
L 188.90964 93.681552 
L 188.90964 52.240776 
L 20.61 52.240776 
z
" style="fill: #ffffff"/>
   </g>
   <g id="matplotlib.axis_3">
    <g id="xtick_8">
     <g id="line2d_17"/>
     <g id="text_8">
      <!-- 0 -->
      <g style="fill: #262626" transform="translate(26.033109 102.500458) scale(0.07 -0.07)">
       <use xlink:href="#DejaVuSerif-30"/>
      </g>
     </g>
    </g>
    <g id="xtick_9">
     <g id="line2d_18"/>
     <g id="text_9">
      <!-- 10 -->
      <g style="fill: #262626" transform="translate(49.490248 102.500458) scale(0.07 -0.07)">
       <use xlink:href="#DejaVuSerif-31"/>
       <use xlink:href="#DejaVuSerif-30" x="63.623047"/>
      </g>
     </g>
    </g>
    <g id="xtick_10">
     <g id="line2d_19"/>
     <g id="text_10">
      <!-- 20 -->
      <g style="fill: #262626" transform="translate(75.174262 102.500458) scale(0.07 -0.07)">
       <defs>
        <path id="DejaVuSerif-32" d="M 819 3553 
L 469 3553 
L 469 4384 
Q 803 4563 1142 4656 
Q 1481 4750 1806 4750 
Q 2534 4750 2956 4397 
Q 3378 4044 3378 3438 
Q 3378 2753 2422 1800 
Q 2347 1728 2309 1691 
L 1131 513 
L 3078 513 
L 3078 1088 
L 3444 1088 
L 3444 0 
L 434 0 
L 434 341 
L 1850 1753 
Q 2319 2222 2519 2614 
Q 2719 3006 2719 3438 
Q 2719 3909 2473 4175 
Q 2228 4441 1797 4441 
Q 1350 4441 1106 4219 
Q 863 3997 819 3553 
z
" transform="scale(0.015625)"/>
       </defs>
       <use xlink:href="#DejaVuSerif-32"/>
       <use xlink:href="#DejaVuSerif-30" x="63.623047"/>
      </g>
     </g>
    </g>
    <g id="xtick_11">
     <g id="line2d_20"/>
     <g id="text_11">
      <!-- 30 -->
      <g style="fill: #262626" transform="translate(100.858276 102.500458) scale(0.07 -0.07)">
       <defs>
        <path id="DejaVuSerif-33" d="M 622 4469 
Q 988 4606 1323 4678 
Q 1659 4750 1953 4750 
Q 2638 4750 3022 4454 
Q 3406 4159 3406 3634 
Q 3406 3213 3140 2930 
Q 2875 2647 2388 2547 
Q 2963 2466 3280 2130 
Q 3597 1794 3597 1259 
Q 3597 606 3158 257 
Q 2719 -91 1894 -91 
Q 1528 -91 1179 -12 
Q 831 66 488 225 
L 488 1131 
L 838 1131 
Q 869 681 1141 450 
Q 1413 219 1906 219 
Q 2384 219 2661 495 
Q 2938 772 2938 1253 
Q 2938 1803 2653 2086 
Q 2369 2369 1819 2369 
L 1522 2369 
L 1522 2688 
L 1678 2688 
Q 2225 2688 2498 2914 
Q 2772 3141 2772 3597 
Q 2772 4006 2547 4223 
Q 2322 4441 1900 4441 
Q 1478 4441 1245 4241 
Q 1013 4041 972 3647 
L 622 3647 
L 622 4469 
z
" transform="scale(0.015625)"/>
       </defs>
       <use xlink:href="#DejaVuSerif-33"/>
       <use xlink:href="#DejaVuSerif-30" x="63.623047"/>
      </g>
     </g>
    </g>
    <g id="xtick_12">
     <g id="line2d_21"/>
     <g id="text_12">
      <!-- 40 -->
      <g style="fill: #262626" transform="translate(126.542291 102.500458) scale(0.07 -0.07)">
       <defs>
        <path id="DejaVuSerif-34" d="M 2234 1581 
L 2234 4063 
L 641 1581 
L 2234 1581 
z
M 3609 0 
L 1484 0 
L 1484 331 
L 2234 331 
L 2234 1247 
L 197 1247 
L 197 1588 
L 2241 4750 
L 2859 4750 
L 2859 1581 
L 3750 1581 
L 3750 1247 
L 2859 1247 
L 2859 331 
L 3609 331 
L 3609 0 
z
" transform="scale(0.015625)"/>
       </defs>
       <use xlink:href="#DejaVuSerif-34"/>
       <use xlink:href="#DejaVuSerif-30" x="63.623047"/>
      </g>
     </g>
    </g>
    <g id="xtick_13">
     <g id="line2d_22"/>
     <g id="text_13">
      <!-- 50 -->
      <g style="fill: #262626" transform="translate(152.226305 102.500458) scale(0.07 -0.07)">
       <defs>
        <path id="DejaVuSerif-35" d="M 3219 4666 
L 3219 4153 
L 1081 4153 
L 1081 2816 
Q 1244 2928 1461 2984 
Q 1678 3041 1947 3041 
Q 2703 3041 3140 2622 
Q 3578 2203 3578 1478 
Q 3578 738 3136 323 
Q 2694 -91 1894 -91 
Q 1572 -91 1234 -12 
Q 897 66 544 225 
L 544 1131 
L 897 1131 
Q 925 688 1179 453 
Q 1434 219 1894 219 
Q 2388 219 2653 544 
Q 2919 869 2919 1478 
Q 2919 2084 2655 2407 
Q 2391 2731 1894 2731 
Q 1613 2731 1398 2631 
Q 1184 2531 1019 2322 
L 750 2322 
L 750 4666 
L 3219 4666 
z
" transform="scale(0.015625)"/>
       </defs>
       <use xlink:href="#DejaVuSerif-35"/>
       <use xlink:href="#DejaVuSerif-30" x="63.623047"/>
      </g>
     </g>
    </g>
    <g id="xtick_14">
     <g id="line2d_23"/>
     <g id="text_14">
      <!-- 60 -->
      <g style="fill: #262626" transform="translate(177.910319 102.500458) scale(0.07 -0.07)">
       <defs>
        <path id="DejaVuSerif-36" d="M 2094 219 
Q 2534 219 2771 542 
Q 3009 866 3009 1472 
Q 3009 2078 2771 2401 
Q 2534 2725 2094 2725 
Q 1647 2725 1412 2412 
Q 1178 2100 1178 1509 
Q 1178 888 1415 553 
Q 1653 219 2094 219 
z
M 1075 2569 
Q 1288 2803 1556 2918 
Q 1825 3034 2163 3034 
Q 2859 3034 3264 2615 
Q 3669 2197 3669 1472 
Q 3669 763 3233 336 
Q 2797 -91 2069 -91 
Q 1278 -91 853 498 
Q 428 1088 428 2181 
Q 428 3406 931 4078 
Q 1434 4750 2350 4750 
Q 2597 4750 2869 4703 
Q 3141 4656 3425 4563 
L 3425 3794 
L 3072 3794 
Q 3034 4109 2831 4275 
Q 2628 4441 2284 4441 
Q 1678 4441 1381 3981 
Q 1084 3522 1075 2569 
z
" transform="scale(0.015625)"/>
       </defs>
       <use xlink:href="#DejaVuSerif-36"/>
       <use xlink:href="#DejaVuSerif-30" x="63.623047"/>
      </g>
     </g>
    </g>
    <g id="text_15">
     <!-- Time [s] -->
     <g style="fill: #262626" transform="translate(92.344976 112.515302) scale(0.06 -0.06)">
      <defs>
       <path id="DejaVuSerif-6d" d="M 3316 2675 
Q 3481 3041 3739 3227 
Q 3997 3413 4341 3413 
Q 4863 3413 5119 3089 
Q 5375 2766 5375 2113 
L 5375 331 
L 5894 331 
L 5894 0 
L 4300 0 
L 4300 331 
L 4800 331 
L 4800 2047 
Q 4800 2556 4650 2772 
Q 4500 2988 4153 2988 
Q 3769 2988 3567 2697 
Q 3366 2406 3366 1850 
L 3366 331 
L 3866 331 
L 3866 0 
L 2291 0 
L 2291 331 
L 2791 331 
L 2791 2069 
Q 2791 2566 2641 2777 
Q 2491 2988 2144 2988 
Q 1759 2988 1557 2697 
Q 1356 2406 1356 1850 
L 1356 331 
L 1856 331 
L 1856 0 
L 263 0 
L 263 331 
L 781 331 
L 781 2994 
L 231 2994 
L 231 3322 
L 1356 3322 
L 1356 2731 
Q 1516 3063 1762 3238 
Q 2009 3413 2322 3413 
Q 2709 3413 2968 3220 
Q 3228 3028 3316 2675 
z
" transform="scale(0.015625)"/>
       <path id="DejaVuSerif-73" d="M 359 184 
L 359 959 
L 691 959 
Q 703 588 923 403 
Q 1144 219 1575 219 
Q 1963 219 2166 364 
Q 2369 509 2369 788 
Q 2369 1006 2220 1140 
Q 2072 1275 1594 1428 
L 1178 1569 
Q 750 1706 558 1912 
Q 366 2119 366 2438 
Q 366 2894 700 3153 
Q 1034 3413 1625 3413 
Q 1888 3413 2178 3344 
Q 2469 3275 2778 3144 
L 2778 2419 
L 2447 2419 
Q 2434 2741 2221 2922 
Q 2009 3103 1644 3103 
Q 1281 3103 1095 2975 
Q 909 2847 909 2591 
Q 909 2381 1050 2254 
Q 1191 2128 1613 1997 
L 2069 1856 
Q 2541 1709 2748 1489 
Q 2956 1269 2956 922 
Q 2956 450 2595 179 
Q 2234 -91 1600 -91 
Q 1278 -91 972 -22 
Q 666 47 359 184 
z
" transform="scale(0.015625)"/>
      </defs>
      <use xlink:href="#DejaVuSerif-54"/>
      <use xlink:href="#DejaVuSerif-69" x="66.699219"/>
      <use xlink:href="#DejaVuSerif-6d" x="98.681641"/>
      <use xlink:href="#DejaVuSerif-65" x="193.505859"/>
      <use xlink:href="#DejaVuSerif-20" x="252.685547"/>
      <use xlink:href="#DejaVuSerif-5b" x="284.472656"/>
      <use xlink:href="#DejaVuSerif-73" x="323.486328"/>
      <use xlink:href="#DejaVuSerif-5d" x="374.804688"/>
     </g>
    </g>
   </g>
   <g id="matplotlib.axis_4">
    <g id="ytick_4">
     <g id="line2d_24"/>
     <g id="text_16">
      <!-- −25 -->
      <g style="fill: #262626" transform="translate(2.336719 88.131161) scale(0.07 -0.07)">
       <use xlink:href="#DejaVuSerif-2212"/>
       <use xlink:href="#DejaVuSerif-32" x="83.789062"/>
       <use xlink:href="#DejaVuSerif-35" x="147.412109"/>
      </g>
     </g>
    </g>
    <g id="ytick_5">
     <g id="line2d_25"/>
     <g id="text_17">
      <!-- 0 -->
      <g style="fill: #262626" transform="translate(12.65625 74.720259) scale(0.07 -0.07)">
       <use xlink:href="#DejaVuSerif-30"/>
      </g>
     </g>
    </g>
    <g id="ytick_6">
     <g id="line2d_26"/>
     <g id="text_18">
      <!-- 25 -->
      <g style="fill: #262626" transform="translate(8.2025 61.309358) scale(0.07 -0.07)">
       <use xlink:href="#DejaVuSerif-32"/>
       <use xlink:href="#DejaVuSerif-35" x="63.623047"/>
      </g>
     </g>
    </g>
    <g id="text_19">
     <!-- $\psi$ [deg] -->
     <g style="fill: #262626" transform="translate(-3.043281 83.851164) rotate(-90) scale(0.06 -0.06)">
      <defs>
       <path id="DejaVuSans-Oblique-3c8" d="M 1591 -78 
Q 891 38 616 341 
Q 278 713 425 1472 
L 819 3500 
L 1400 3500 
L 1009 1494 
Q 900 922 1119 684 
Q 1313 478 1691 434 
L 2284 3500 
L 2856 3500 
L 2263 438 
Q 2681 481 2928 688 
Q 3247 950 3353 1497 
L 3741 3500 
L 4322 3500 
L 3928 1475 
Q 3775 688 3300 344 
Q 2872 34 2163 -75 
L 1919 -1331 
L 1347 -1331 
L 1591 -78 
z
" transform="scale(0.015625)"/>
      </defs>
      <use xlink:href="#DejaVuSans-Oblique-3c8" transform="translate(0 0.015625)"/>
      <use xlink:href="#DejaVuSerif-20" transform="translate(65.966797 0.015625)"/>
      <use xlink:href="#DejaVuSerif-5b" transform="translate(97.753906 0.015625)"/>
      <use xlink:href="#DejaVuSerif-64" transform="translate(136.767578 0.015625)"/>
      <use xlink:href="#DejaVuSerif-65" transform="translate(200.78125 0.015625)"/>
      <use xlink:href="#DejaVuSerif-67" transform="translate(259.960938 0.015625)"/>
      <use xlink:href="#DejaVuSerif-5d" transform="translate(323.974609 0.015625)"/>
     </g>
    </g>
   </g>
   <g id="line2d_27">
    <path d="M 28.259984 72.060806 
L 31.110909 71.951922 
L 32.985842 71.634656 
L 35.040563 71.055994 
L 37.275073 70.189636 
L 39.68937 69.009194 
L 42.334823 67.463226 
L 45.288485 65.473878 
L 48.576039 62.986527 
L 55.947351 57.260467 
L 57.719548 56.34152 
L 59.620165 55.609912 
L 61.649202 55.0707 
L 63.832343 54.722166 
L 66.195273 54.572244 
L 68.660938 54.638258 
L 71.229339 54.930766 
L 73.849109 55.452473 
L 76.520246 56.210608 
L 79.242752 57.215014 
L 82.042309 58.487889 
L 84.918919 60.043668 
L 87.872581 61.896268 
L 90.980346 64.113525 
L 94.344952 66.7956 
L 98.223238 70.184469 
L 102.974781 74.644978 
L 109.652625 81.246335 
L 114.789428 86.248798 
L 116.690045 87.746137 
L 118.51361 88.89526 
L 120.439911 89.846021 
L 122.520316 90.623097 
L 124.729141 91.210907 
L 127.066386 91.601854 
L 129.506368 91.784379 
L 132.049085 91.752188 
L 134.694539 91.496987 
L 137.442728 91.006887 
L 140.242286 90.281499 
L 143.093211 89.313086 
L 146.021189 88.083494 
L 149.077587 86.555712 
L 152.313772 84.68735 
L 155.806798 82.409428 
L 159.762136 79.557265 
L 164.308207 75.9969 
L 169.984374 71.256042 
L 178.228943 64.047467 
L 181.259656 61.353585 
L 181.259656 61.353585 
" clip-path="url(#pf06ed2b2a1)" style="fill: none; stroke: #00bfbf; stroke-width: 0.4; stroke-linecap: round"/>
   </g>
   <g id="line2d_28">
    <path d="M 28.259984 72.060806 
L 30.956805 71.950407 
L 32.754686 71.635233 
L 34.680987 71.068976 
L 36.787076 70.212625 
L 39.072954 69.036744 
L 41.615671 67.471702 
L 44.517965 65.41533 
L 47.959623 62.694513 
L 54.380626 57.528118 
L 56.178507 56.491769 
L 58.079124 55.656395 
L 60.133845 54.996232 
L 62.394039 54.509037 
L 64.83402 54.213432 
L 67.428105 54.125465 
L 70.073559 54.257564 
L 72.744696 54.614789 
L 75.364466 55.188451 
L 77.984235 55.991123 
L 80.629689 57.035326 
L 83.352194 58.350701 
L 86.20312 59.978832 
L 89.208149 61.95711 
L 92.495703 64.395256 
L 96.373989 67.560973 
L 101.43374 71.999434 
L 109.575573 79.474741 
L 116.484572 85.732316 
L 118.436558 87.147057 
L 120.260123 88.193667 
L 122.237792 89.071655 
L 124.395249 89.78449 
L 126.681126 90.304082 
L 129.095423 90.623194 
L 131.586773 90.726074 
L 134.12949 90.608296 
L 136.697892 90.266293 
L 139.266293 89.698951 
L 141.886063 88.891258 
L 144.582884 87.824091 
L 147.382442 86.475266 
L 150.413155 84.763183 
L 153.726393 82.630417 
L 157.578995 79.874704 
L 162.356222 76.170451 
L 168.905646 70.783652 
L 180.052508 61.346749 
L 180.052508 61.346749 
" clip-path="url(#pf06ed2b2a1)" style="fill: none; stroke: #bf00bf; stroke-width: 0.4; stroke-linecap: round"/>
   </g>
   <g id="patch_6">
    <path d="M 20.61 93.681552 
L 20.61 52.240776 
" style="fill: none; stroke: #000000; stroke-linejoin: miter; stroke-linecap: square"/>
   </g>
   <g id="patch_7">
    <path d="M 20.61 93.681552 
L 188.90964 93.681552 
" style="fill: none; stroke: #000000; stroke-linejoin: miter; stroke-linecap: square"/>
   </g>
   <g id="line2d_29">
    <path d="M 28.259984 72.132824 
L 30.905381 72.040778 
L 32.67759 71.741464 
L 34.680936 71.171872 
L 36.864103 70.316392 
L 39.175664 69.170538 
L 41.641304 67.693725 
L 44.389529 65.779439 
L 47.651391 63.223393 
L 54.842897 57.460031 
L 56.46098 56.576741 
L 58.28454 55.845143 
L 60.339274 55.264316 
L 62.522405 54.880601 
L 64.782683 54.708512 
L 67.196924 54.749718 
L 69.765299 55.018123 
L 72.513476 55.532362 
L 75.364461 56.292539 
L 78.241093 57.293982 
L 81.143369 58.540451 
L 84.019932 60.019689 
L 86.896562 61.747552 
L 89.952922 63.848176 
L 93.394585 66.494418 
L 98.171832 70.468753 
L 104.104824 75.70493 
L 115.996515 86.304697 
L 117.691665 87.390902 
L 119.438211 88.232943 
L 121.492899 88.97473 
L 123.830141 89.579661 
L 126.449919 90.025288 
L 129.326551 90.289169 
L 132.203156 90.332536 
L 135.156797 90.155243 
L 138.033404 89.762531 
L 141.012791 89.130332 
L 144.043476 88.255356 
L 147.176928 87.118527 
L 150.43878 85.69238 
L 153.70073 84.020473 
L 157.142313 81.999827 
L 161.174708 79.363392 
L 166.183112 75.80123 
L 173.24618 70.493958 
L 180.026775 65.205554 
L 180.026775 65.205554 
" clip-path="url(#pf06ed2b2a1)" style="fill: none; stroke: #000000; stroke-width: 0.7; stroke-linecap: round"/>
   </g>
  </g>
 </g>
 <defs>
  <clipPath id="pc3928a0f02">
   <rect x="20.61" y="5.4" width="168.29964" height="41.440776"/>
  </clipPath>
  <clipPath id="pf06ed2b2a1">
   <rect x="20.61" y="52.240776" width="168.29964" height="41.440776"/>
  </clipPath>
 </defs>
</svg>
