<?xml version="1.0" encoding="utf-8" standalone="no"?>
<!DOCTYPE svg PUBLIC "-//W3C//DTD SVG 1.1//EN"
  "http://www.w3.org/Graphics/SVG/1.1/DTD/svg11.dtd">
<svg xmlns:xlink="http://www.w3.org/1999/xlink" width="177.252993pt" height="78.622338pt" viewBox="0 0 177.252993 78.622338" xmlns="http://www.w3.org/2000/svg" version="1.1">
 <metadata>
  <rdf:RDF xmlns:dc="http://purl.org/dc/elements/1.1/" xmlns:cc="http://creativecommons.org/ns#" xmlns:rdf="http://www.w3.org/1999/02/22-rdf-syntax-ns#">
   <cc:Work>
    <dc:type rdf:resource="http://purl.org/dc/dcmitype/StillImage"/>
    <dc:date>2025-04-09T18:29:33.032288</dc:date>
    <dc:format>image/svg+xml</dc:format>
    <dc:creator>
     <cc:Agent>
      <dc:title>Matplotlib v3.8.2, https://matplotlib.org/</dc:title>
     </cc:Agent>
    </dc:creator>
   </cc:Work>
  </rdf:RDF>
 </metadata>
 <defs>
  <style type="text/css">*{stroke-linejoin: round; stroke-linecap: butt}</style>
 </defs>
 <g id="figure_1">
  <g id="patch_1">
   <path d="M 0 78.622338 
L 177.252993 78.622338 
L 177.252993 -0 
L 0 -0 
z
" style="fill: #ffffff"/>
  </g>
  <g id="axes_1">
   <g id="patch_2">
    <path d="M 35.413281 27.833262 
L 170.052993 27.833262 
L 170.052993 7.2 
L 35.413281 7.2 
z
" style="fill: #ffffff"/>
   </g>
   <g id="matplotlib.axis_1">
    <g id="xtick_1">
     <g id="line2d_1"/>
    </g>
    <g id="xtick_2">
     <g id="line2d_2"/>
    </g>
    <g id="xtick_3">
     <g id="line2d_3"/>
    </g>
    <g id="xtick_4">
     <g id="line2d_4"/>
    </g>
   </g>
   <g id="matplotlib.axis_2">
    <g id="ytick_1">
     <g id="line2d_5"/>
     <g id="text_1">
      <!-- −5 -->
      <g style="fill: #262626" transform="translate(21.59375 26.770647) scale(0.07 -0.07)">
       <defs>
        <path id="DejaVuSerif-2212" d="M 678 2259 
L 4684 2259 
L 4684 1753 
L 678 1753 
L 678 2259 
z
" transform="scale(0.015625)"/>
        <path id="DejaVuSerif-35" d="M 3219 4666 
L 3219 4153 
L 1081 4153 
L 1081 2816 
Q 1244 2928 1461 2984 
Q 1678 3041 1947 3041 
Q 2703 3041 3140 2622 
Q 3578 2203 3578 1478 
Q 3578 738 3136 323 
Q 2694 -91 1894 -91 
Q 1572 -91 1234 -12 
Q 897 66 544 225 
L 544 1131 
L 897 1131 
Q 925 688 1179 453 
Q 1434 219 1894 219 
Q 2388 219 2653 544 
Q 2919 869 2919 1478 
Q 2919 2084 2655 2407 
Q 2391 2731 1894 2731 
Q 1613 2731 1398 2631 
Q 1184 2531 1019 2322 
L 750 2322 
L 750 4666 
L 3219 4666 
z
" transform="scale(0.015625)"/>
       </defs>
       <use xlink:href="#DejaVuSerif-2212"/>
       <use xlink:href="#DejaVuSerif-35" x="83.789062"/>
      </g>
     </g>
    </g>
    <g id="ytick_2">
     <g id="line2d_6"/>
     <g id="text_2">
      <!-- 0 -->
      <g style="fill: #262626" transform="translate(27.459531 20.398292) scale(0.07 -0.07)">
       <defs>
        <path id="DejaVuSerif-30" d="M 2034 219 
Q 2513 219 2750 744 
Q 2988 1269 2988 2328 
Q 2988 3391 2750 3916 
Q 2513 4441 2034 4441 
Q 1556 4441 1318 3916 
Q 1081 3391 1081 2328 
Q 1081 1269 1318 744 
Q 1556 219 2034 219 
z
M 2034 -91 
Q 1275 -91 848 546 
Q 422 1184 422 2328 
Q 422 3475 848 4112 
Q 1275 4750 2034 4750 
Q 2797 4750 3222 4112 
Q 3647 3475 3647 2328 
Q 3647 1184 3222 546 
Q 2797 -91 2034 -91 
z
" transform="scale(0.015625)"/>
       </defs>
       <use xlink:href="#DejaVuSerif-30"/>
      </g>
     </g>
    </g>
    <g id="ytick_3">
     <g id="line2d_7"/>
     <g id="text_3">
      <!-- 5 -->
      <g style="fill: #262626" transform="translate(27.459531 14.025938) scale(0.07 -0.07)">
       <use xlink:href="#DejaVuSerif-35"/>
      </g>
     </g>
    </g>
    <g id="text_4">
     <!-- $\beta$ [deg] -->
     <g style="fill: #262626" transform="translate(16.21375 28.346631) rotate(-90) scale(0.06 -0.06)">
      <defs>
       <path id="DejaVuSans-Oblique-3b2" d="M 872 216 
L 572 -1331 
L -6 -1331 
L 928 3478 
Q 1206 4903 2538 4903 
Q 3888 4903 3659 3700 
Q 3503 2844 2894 2531 
Q 3713 2250 3553 1416 
Q 3272 -69 1759 -66 
Q 1097 -63 872 216 
z
M 1019 966 
Q 1259 422 1875 425 
Q 2775 425 2966 1406 
Q 3138 2288 1675 2219 
L 1778 2750 
Q 2909 2731 3106 3750 
Q 3241 4438 2509 4434 
Q 1691 4434 1503 3459 
L 1019 966 
z
" transform="scale(0.015625)"/>
       <path id="DejaVuSerif-20" transform="scale(0.015625)"/>
       <path id="DejaVuSerif-5b" d="M 550 4863 
L 2003 4863 
L 2003 4531 
L 1147 4531 
L 1147 -513 
L 2003 -513 
L 2003 -844 
L 550 -844 
L 550 4863 
z
" transform="scale(0.015625)"/>
       <path id="DejaVuSerif-64" d="M 3359 331 
L 3909 331 
L 3909 0 
L 2784 0 
L 2784 519 
Q 2616 206 2355 57 
Q 2094 -91 1709 -91 
Q 1097 -91 708 395 
Q 319 881 319 1663 
Q 319 2444 706 2928 
Q 1094 3413 1709 3413 
Q 2094 3413 2355 3264 
Q 2616 3116 2784 2803 
L 2784 4531 
L 2241 4531 
L 2241 4863 
L 3359 4863 
L 3359 331 
z
M 2784 1497 
L 2784 1825 
Q 2784 2422 2554 2737 
Q 2325 3053 1888 3053 
Q 1444 3053 1217 2703 
Q 991 2353 991 1663 
Q 991 975 1217 622 
Q 1444 269 1888 269 
Q 2325 269 2554 583 
Q 2784 897 2784 1497 
z
" transform="scale(0.015625)"/>
       <path id="DejaVuSerif-65" d="M 3469 1600 
L 991 1600 
L 991 1575 
Q 991 903 1244 561 
Q 1497 219 1991 219 
Q 2369 219 2611 417 
Q 2853 616 2950 1006 
L 3413 1006 
Q 3275 459 2904 184 
Q 2534 -91 1931 -91 
Q 1203 -91 761 389 
Q 319 869 319 1663 
Q 319 2450 753 2931 
Q 1188 3413 1894 3413 
Q 2647 3413 3050 2948 
Q 3453 2484 3469 1600 
z
M 2791 1931 
Q 2772 2513 2545 2808 
Q 2319 3103 1894 3103 
Q 1497 3103 1269 2806 
Q 1041 2509 991 1931 
L 2791 1931 
z
" transform="scale(0.015625)"/>
       <path id="DejaVuSerif-67" d="M 3359 2988 
L 3359 72 
Q 3359 -644 2965 -1033 
Q 2572 -1422 1844 -1422 
Q 1516 -1422 1216 -1362 
Q 916 -1303 641 -1184 
L 641 -488 
L 941 -488 
Q 997 -813 1206 -963 
Q 1416 -1113 1806 -1113 
Q 2313 -1113 2548 -827 
Q 2784 -541 2784 72 
L 2784 519 
Q 2616 206 2355 57 
Q 2094 -91 1709 -91 
Q 1097 -91 708 395 
Q 319 881 319 1663 
Q 319 2444 706 2928 
Q 1094 3413 1709 3413 
Q 2094 3413 2355 3264 
Q 2616 3116 2784 2803 
L 2784 3322 
L 3909 3322 
L 3909 2988 
L 3359 2988 
z
M 2784 1825 
Q 2784 2422 2554 2737 
Q 2325 3053 1888 3053 
Q 1444 3053 1217 2703 
Q 991 2353 991 1663 
Q 991 975 1217 622 
Q 1444 269 1888 269 
Q 2325 269 2554 583 
Q 2784 897 2784 1497 
L 2784 1825 
z
" transform="scale(0.015625)"/>
       <path id="DejaVuSerif-5d" d="M 1947 4863 
L 1947 -844 
L 494 -844 
L 494 -513 
L 1350 -513 
L 1350 4531 
L 494 4531 
L 494 4863 
L 1947 4863 
z
" transform="scale(0.015625)"/>
      </defs>
      <use xlink:href="#DejaVuSans-Oblique-3b2" transform="translate(0 0.390625)"/>
      <use xlink:href="#DejaVuSerif-20" transform="translate(63.818359 0.390625)"/>
      <use xlink:href="#DejaVuSerif-5b" transform="translate(95.605469 0.390625)"/>
      <use xlink:href="#DejaVuSerif-64" transform="translate(134.619141 0.390625)"/>
      <use xlink:href="#DejaVuSerif-65" transform="translate(198.632812 0.390625)"/>
      <use xlink:href="#DejaVuSerif-67" transform="translate(257.8125 0.390625)"/>
      <use xlink:href="#DejaVuSerif-5d" transform="translate(321.826172 0.390625)"/>
     </g>
    </g>
   </g>
   <g id="line2d_8">
    <path d="M 41.533268 17.738839 
L 42.507693 17.625835 
L 45.053131 16.909394 
L 49.626963 15.384418 
L 58.535994 12.385142 
L 59.510419 12.371384 
L 61.041659 12.639745 
L 64.14391 13.380661 
L 68.061497 14.551665 
L 73.868276 16.535188 
L 81.504588 19.376902 
L 94.370978 24.181428 
L 99.143673 25.690567 
L 102.00729 26.404154 
L 102.981715 26.36695 
L 104.453296 26.032232 
L 109.146446 24.75469 
L 116.305488 22.485703 
L 124.379297 19.689877 
L 146.51267 11.796581 
L 151.484227 10.366126 
L 156.077946 9.273007 
L 159.53815 8.600887 
L 159.53815 8.600887 
" clip-path="url(#pe34000cf6d)" style="fill: none; stroke: #00bfbf; stroke-width: 0.4; stroke-linecap: round"/>
   </g>
   <g id="line2d_9">
    <path d="M 41.533268 17.738839 
L 42.487807 17.600767 
L 44.655406 16.905132 
L 48.234927 15.519076 
L 57.124072 11.978847 
L 58.078611 11.942791 
L 60.126892 12.212951 
L 63.746186 12.895811 
L 68.439336 14.027962 
L 74.305773 15.678549 
L 80.371073 17.623138 
L 85.720469 19.601203 
L 100.177757 25.11055 
L 104.055571 26.238982 
L 106.978847 26.884076 
L 107.933386 26.839927 
L 109.444739 26.48136 
L 117.796956 24.161354 
L 124.399184 22.071924 
L 129.808238 20.143287 
L 134.600819 18.210773 
L 144.643364 13.863674 
L 149.634808 11.871368 
L 153.711485 10.482012 
L 157.489868 9.42792 
L 161.347797 8.584986 
L 163.933006 8.137876 
L 163.933006 8.137876 
" clip-path="url(#pe34000cf6d)" style="fill: none; stroke: #bf00bf; stroke-width: 0.4; stroke-linecap: round"/>
   </g>
   <g id="patch_3">
    <path d="M 35.413281 27.833262 
L 35.413281 7.2 
" style="fill: none; stroke: #000000; stroke-linejoin: miter; stroke-linecap: square"/>
   </g>
   <g id="patch_4">
    <path d="M 35.413281 27.833262 
L 170.052993 27.833262 
" style="fill: none; stroke: #000000; stroke-linejoin: miter; stroke-linecap: square"/>
   </g>
   <g id="line2d_10">
    <path d="M 41.533268 17.710898 
L 42.686669 17.631811 
L 47.439478 16.763532 
L 50.124137 15.921857 
L 57.044539 13.443095 
L 58.695084 12.947618 
L 59.768932 12.887387 
L 62.334279 12.84401 
L 64.621174 12.911368 
L 66.72914 13.236886 
L 69.493302 13.906162 
L 81.723354 17.261343 
L 86.754556 18.923833 
L 106.640777 25.790777 
L 108.828266 26.323764 
L 109.802706 26.277282 
L 111.592464 26.117586 
L 114.655013 25.89854 
L 116.743031 25.483467 
L 119.765742 24.591344 
L 123.762816 23.416218 
L 142.674664 18.258445 
L 150.350744 15.656639 
L 163.276759 11.138527 
L 163.634745 11.031328 
L 163.634745 11.031328 
" clip-path="url(#pe34000cf6d)" style="fill: none; stroke: #000000; stroke-width: 0.7; stroke-linecap: round"/>
   </g>
  </g>
  <g id="axes_2">
   <g id="patch_5">
    <path d="M 35.413281 51.340776 
L 170.052993 51.340776 
L 170.052993 30.707514 
L 35.413281 30.707514 
z
" style="fill: #ffffff"/>
   </g>
   <g id="matplotlib.axis_3">
    <g id="xtick_5">
     <g id="line2d_11"/>
     <g id="text_5">
      <!-- 0 -->
      <g style="fill: #262626" transform="translate(39.306393 60.159682) scale(0.07 -0.07)">
       <use xlink:href="#DejaVuSerif-30"/>
      </g>
     </g>
    </g>
    <g id="xtick_6">
     <g id="line2d_12"/>
     <g id="text_6">
      <!-- 20 -->
      <g style="fill: #262626" transform="translate(76.851976 60.159682) scale(0.07 -0.07)">
       <defs>
        <path id="DejaVuSerif-32" d="M 819 3553 
L 469 3553 
L 469 4384 
Q 803 4563 1142 4656 
Q 1481 4750 1806 4750 
Q 2534 4750 2956 4397 
Q 3378 4044 3378 3438 
Q 3378 2753 2422 1800 
Q 2347 1728 2309 1691 
L 1131 513 
L 3078 513 
L 3078 1088 
L 3444 1088 
L 3444 0 
L 434 0 
L 434 341 
L 1850 1753 
Q 2319 2222 2519 2614 
Q 2719 3006 2719 3438 
Q 2719 3909 2473 4175 
Q 2228 4441 1797 4441 
Q 1350 4441 1106 4219 
Q 863 3997 819 3553 
z
" transform="scale(0.015625)"/>
       </defs>
       <use xlink:href="#DejaVuSerif-32"/>
       <use xlink:href="#DejaVuSerif-30" x="63.623047"/>
      </g>
     </g>
    </g>
    <g id="xtick_7">
     <g id="line2d_13"/>
     <g id="text_7">
      <!-- 40 -->
      <g style="fill: #262626" transform="translate(116.624433 60.159682) scale(0.07 -0.07)">
       <defs>
        <path id="DejaVuSerif-34" d="M 2234 1581 
L 2234 4063 
L 641 1581 
L 2234 1581 
z
M 3609 0 
L 1484 0 
L 1484 331 
L 2234 331 
L 2234 1247 
L 197 1247 
L 197 1588 
L 2241 4750 
L 2859 4750 
L 2859 1581 
L 3750 1581 
L 3750 1247 
L 2859 1247 
L 2859 331 
L 3609 331 
L 3609 0 
z
" transform="scale(0.015625)"/>
       </defs>
       <use xlink:href="#DejaVuSerif-34"/>
       <use xlink:href="#DejaVuSerif-30" x="63.623047"/>
      </g>
     </g>
    </g>
    <g id="xtick_8">
     <g id="line2d_14"/>
     <g id="text_8">
      <!-- 60 -->
      <g style="fill: #262626" transform="translate(156.396891 60.159682) scale(0.07 -0.07)">
       <defs>
        <path id="DejaVuSerif-36" d="M 2094 219 
Q 2534 219 2771 542 
Q 3009 866 3009 1472 
Q 3009 2078 2771 2401 
Q 2534 2725 2094 2725 
Q 1647 2725 1412 2412 
Q 1178 2100 1178 1509 
Q 1178 888 1415 553 
Q 1653 219 2094 219 
z
M 1075 2569 
Q 1288 2803 1556 2918 
Q 1825 3034 2163 3034 
Q 2859 3034 3264 2615 
Q 3669 2197 3669 1472 
Q 3669 763 3233 336 
Q 2797 -91 2069 -91 
Q 1278 -91 853 498 
Q 428 1088 428 2181 
Q 428 3406 931 4078 
Q 1434 4750 2350 4750 
Q 2597 4750 2869 4703 
Q 3141 4656 3425 4563 
L 3425 3794 
L 3072 3794 
Q 3034 4109 2831 4275 
Q 2628 4441 2284 4441 
Q 1678 4441 1381 3981 
Q 1084 3522 1075 2569 
z
" transform="scale(0.015625)"/>
       </defs>
       <use xlink:href="#DejaVuSerif-36"/>
       <use xlink:href="#DejaVuSerif-30" x="63.623047"/>
      </g>
     </g>
    </g>
    <g id="text_9">
     <!-- Time [s] -->
     <g style="fill: #262626" transform="translate(90.318294 70.174526) scale(0.06 -0.06)">
      <defs>
       <path id="DejaVuSerif-54" d="M 1222 0 
L 1222 331 
L 1819 331 
L 1819 4294 
L 447 4294 
L 447 3566 
L 63 3566 
L 63 4666 
L 4206 4666 
L 4206 3566 
L 3822 3566 
L 3822 4294 
L 2450 4294 
L 2450 331 
L 3047 331 
L 3047 0 
L 1222 0 
z
" transform="scale(0.015625)"/>
       <path id="DejaVuSerif-69" d="M 622 4353 
Q 622 4497 726 4603 
Q 831 4709 978 4709 
Q 1122 4709 1226 4603 
Q 1331 4497 1331 4353 
Q 1331 4206 1228 4103 
Q 1125 4000 978 4000 
Q 831 4000 726 4103 
Q 622 4206 622 4353 
z
M 1356 331 
L 1900 331 
L 1900 0 
L 231 0 
L 231 331 
L 781 331 
L 781 2988 
L 231 2988 
L 231 3322 
L 1356 3322 
L 1356 331 
z
" transform="scale(0.015625)"/>
       <path id="DejaVuSerif-6d" d="M 3316 2675 
Q 3481 3041 3739 3227 
Q 3997 3413 4341 3413 
Q 4863 3413 5119 3089 
Q 5375 2766 5375 2113 
L 5375 331 
L 5894 331 
L 5894 0 
L 4300 0 
L 4300 331 
L 4800 331 
L 4800 2047 
Q 4800 2556 4650 2772 
Q 4500 2988 4153 2988 
Q 3769 2988 3567 2697 
Q 3366 2406 3366 1850 
L 3366 331 
L 3866 331 
L 3866 0 
L 2291 0 
L 2291 331 
L 2791 331 
L 2791 2069 
Q 2791 2566 2641 2777 
Q 2491 2988 2144 2988 
Q 1759 2988 1557 2697 
Q 1356 2406 1356 1850 
L 1356 331 
L 1856 331 
L 1856 0 
L 263 0 
L 263 331 
L 781 331 
L 781 2994 
L 231 2994 
L 231 3322 
L 1356 3322 
L 1356 2731 
Q 1516 3063 1762 3238 
Q 2009 3413 2322 3413 
Q 2709 3413 2968 3220 
Q 3228 3028 3316 2675 
z
" transform="scale(0.015625)"/>
       <path id="DejaVuSerif-73" d="M 359 184 
L 359 959 
L 691 959 
Q 703 588 923 403 
Q 1144 219 1575 219 
Q 1963 219 2166 364 
Q 2369 509 2369 788 
Q 2369 1006 2220 1140 
Q 2072 1275 1594 1428 
L 1178 1569 
Q 750 1706 558 1912 
Q 366 2119 366 2438 
Q 366 2894 700 3153 
Q 1034 3413 1625 3413 
Q 1888 3413 2178 3344 
Q 2469 3275 2778 3144 
L 2778 2419 
L 2447 2419 
Q 2434 2741 2221 2922 
Q 2009 3103 1644 3103 
Q 1281 3103 1095 2975 
Q 909 2847 909 2591 
Q 909 2381 1050 2254 
Q 1191 2128 1613 1997 
L 2069 1856 
Q 2541 1709 2748 1489 
Q 2956 1269 2956 922 
Q 2956 450 2595 179 
Q 2234 -91 1600 -91 
Q 1278 -91 972 -22 
Q 666 47 359 184 
z
" transform="scale(0.015625)"/>
      </defs>
      <use xlink:href="#DejaVuSerif-54"/>
      <use xlink:href="#DejaVuSerif-69" x="66.699219"/>
      <use xlink:href="#DejaVuSerif-6d" x="98.681641"/>
      <use xlink:href="#DejaVuSerif-65" x="193.505859"/>
      <use xlink:href="#DejaVuSerif-20" x="252.685547"/>
      <use xlink:href="#DejaVuSerif-5b" x="284.472656"/>
      <use xlink:href="#DejaVuSerif-73" x="323.486328"/>
      <use xlink:href="#DejaVuSerif-5d" x="374.804688"/>
     </g>
    </g>
   </g>
   <g id="matplotlib.axis_4">
    <g id="ytick_4">
     <g id="line2d_15"/>
     <g id="text_10">
      <!-- −25 -->
      <g style="fill: #262626" transform="translate(17.14 52.162308) scale(0.07 -0.07)">
       <use xlink:href="#DejaVuSerif-2212"/>
       <use xlink:href="#DejaVuSerif-32" x="83.789062"/>
       <use xlink:href="#DejaVuSerif-35" x="147.412109"/>
      </g>
     </g>
    </g>
    <g id="ytick_5">
     <g id="line2d_16"/>
     <g id="text_11">
      <!-- 0 -->
      <g style="fill: #262626" transform="translate(27.459531 42.011526) scale(0.07 -0.07)">
       <use xlink:href="#DejaVuSerif-30"/>
      </g>
     </g>
    </g>
    <g id="text_12">
     <!-- $\psi$ [deg] -->
     <g style="fill: #262626" transform="translate(11.76 51.914145) rotate(-90) scale(0.06 -0.06)">
      <defs>
       <path id="DejaVuSans-Oblique-3c8" d="M 1591 -78 
Q 891 38 616 341 
Q 278 713 425 1472 
L 819 3500 
L 1400 3500 
L 1009 1494 
Q 900 922 1119 684 
Q 1313 478 1691 434 
L 2284 3500 
L 2856 3500 
L 2263 438 
Q 2681 481 2928 688 
Q 3247 950 3353 1497 
L 3741 3500 
L 4322 3500 
L 3928 1475 
Q 3775 688 3300 344 
Q 2872 34 2163 -75 
L 1919 -1331 
L 1347 -1331 
L 1591 -78 
z
" transform="scale(0.015625)"/>
      </defs>
      <use xlink:href="#DejaVuSans-Oblique-3c8" transform="translate(0 0.015625)"/>
      <use xlink:href="#DejaVuSerif-20" transform="translate(65.966797 0.015625)"/>
      <use xlink:href="#DejaVuSerif-5b" transform="translate(97.753906 0.015625)"/>
      <use xlink:href="#DejaVuSerif-64" transform="translate(136.767578 0.015625)"/>
      <use xlink:href="#DejaVuSerif-65" transform="translate(200.78125 0.015625)"/>
      <use xlink:href="#DejaVuSerif-67" transform="translate(259.960938 0.015625)"/>
      <use xlink:href="#DejaVuSerif-5d" transform="translate(323.974609 0.015625)"/>
     </g>
    </g>
   </g>
   <g id="line2d_17">
    <path d="M 41.533268 39.352072 
L 44.198023 39.241002 
L 46.663915 38.890447 
L 49.428101 38.270398 
L 52.470694 37.355936 
L 55.732036 36.140394 
L 62.075742 33.674318 
L 64.402431 33.192885 
L 67.027413 32.879467 
L 69.910917 32.761724 
L 72.993282 32.859889 
L 76.175079 33.185165 
L 79.356875 33.733082 
L 82.558558 34.511085 
L 85.780127 35.524609 
L 89.061355 36.791926 
L 92.442014 38.33842 
L 95.981763 40.205302 
L 99.819805 42.486007 
L 104.870907 45.517955 
L 107.058392 46.441505 
L 109.544171 47.244936 
L 112.328243 47.90608 
L 115.410608 48.407146 
L 118.652063 48.708623 
L 121.973064 48.796036 
L 125.294064 48.660919 
L 128.615064 48.303397 
L 131.995723 47.716353 
L 135.396268 46.899107 
L 138.836586 45.843607 
L 142.336562 44.537143 
L 146.015514 42.923454 
L 149.933101 40.95846 
L 154.248413 38.540222 
L 159.279629 35.456194 
L 159.53815 35.291823 
L 159.53815 35.291823 
" clip-path="url(#pb54e0c02d3)" style="fill: none; stroke: #00bfbf; stroke-width: 0.4; stroke-linecap: round"/>
   </g>
   <g id="line2d_18">
    <path d="M 41.533268 39.352072 
L 43.979274 39.242792 
L 46.226418 38.897638 
L 48.692311 38.290593 
L 51.376951 37.397529 
L 54.300227 36.186831 
L 60.922341 33.307217 
L 63.447892 32.655214 
L 66.371168 32.13459 
L 69.592737 31.787921 
L 72.973396 31.647682 
L 76.393827 31.726452 
L 79.734714 32.02367 
L 82.896624 32.528164 
L 85.959103 33.240693 
L 89.021583 34.183198 
L 92.123834 35.372795 
L 95.325517 36.840873 
L 98.785721 38.677717 
L 102.623763 40.974608 
L 107.396458 44.107566 
L 109.504398 45.361174 
L 111.632225 46.352907 
L 114.118003 47.262258 
L 116.961734 48.062111 
L 120.083872 48.707465 
L 123.345213 49.155423 
L 126.626441 49.381731 
L 129.808238 49.380293 
L 132.870717 49.158795 
L 135.873538 48.717311 
L 138.876358 48.051385 
L 141.918951 47.147986 
L 145.060975 45.980611 
L 148.381975 44.505569 
L 152.021155 42.63895 
L 156.137605 40.26969 
L 161.308024 37.021641 
L 163.933006 35.300326 
L 163.933006 35.300326 
" clip-path="url(#pb54e0c02d3)" style="fill: none; stroke: #bf00bf; stroke-width: 0.4; stroke-linecap: round"/>
   </g>
   <g id="patch_6">
    <path d="M 35.413281 51.340776 
L 35.413281 30.707514 
" style="fill: none; stroke: #000000; stroke-linejoin: miter; stroke-linecap: square"/>
   </g>
   <g id="patch_7">
    <path d="M 35.413281 51.340776 
L 170.052993 51.340776 
" style="fill: none; stroke: #000000; stroke-linejoin: miter; stroke-linecap: square"/>
   </g>
   <g id="line2d_19">
    <path d="M 41.533268 39.410644 
L 44.019057 39.322777 
L 46.445167 38.986497 
L 49.229245 38.372176 
L 52.132626 37.502811 
L 55.055912 36.396894 
L 58.297357 34.915976 
L 60.604175 33.939468 
L 62.731982 33.309754 
L 65.277441 32.79542 
L 68.16095 32.443365 
L 71.581368 32.259534 
L 75.379703 32.281321 
L 79.018801 32.518522 
L 82.419353 32.95756 
L 86.118193 33.669613 
L 89.71761 34.585883 
L 93.098249 35.674718 
L 96.200531 36.906659 
L 99.223208 38.345497 
L 102.34535 40.082477 
L 106.2033 42.497449 
L 110.876556 45.425975 
L 113.16351 46.469604 
L 115.967448 47.498981 
L 119.129349 48.418715 
L 122.510018 49.16918 
L 126.268487 49.768341 
L 130.325304 50.19433 
L 134.282663 50.391251 
L 137.901945 50.352183 
L 141.421795 50.094926 
L 144.802494 49.626482 
L 148.183127 48.934416 
L 151.56378 48.015003 
L 154.924541 46.869951 
L 158.16599 45.530108 
L 161.546665 43.886597 
L 163.634745 42.765651 
L 163.634745 42.765651 
" clip-path="url(#pb54e0c02d3)" style="fill: none; stroke: #000000; stroke-width: 0.7; stroke-linecap: round"/>
   </g>
  </g>
 </g>
 <defs>
  <clipPath id="pe34000cf6d">
   <rect x="35.413281" y="7.2" width="134.639712" height="20.633262"/>
  </clipPath>
  <clipPath id="pb54e0c02d3">
   <rect x="35.413281" y="30.707514" width="134.639712" height="20.633262"/>
  </clipPath>
 </defs>
</svg>
