<?xml version="1.0" encoding="utf-8" standalone="no"?>
<!DOCTYPE svg PUBLIC "-//W3C//DTD SVG 1.1//EN"
  "http://www.w3.org/Graphics/SVG/1.1/DTD/svg11.dtd">
<svg xmlns:xlink="http://www.w3.org/1999/xlink" width="194.30964pt" height="145.748736pt" viewBox="0 0 194.30964 145.748736" xmlns="http://www.w3.org/2000/svg" version="1.1">
 <metadata>
  <rdf:RDF xmlns:dc="http://purl.org/dc/elements/1.1/" xmlns:cc="http://creativecommons.org/ns#" xmlns:rdf="http://www.w3.org/1999/02/22-rdf-syntax-ns#">
   <cc:Work>
    <dc:type rdf:resource="http://purl.org/dc/dcmitype/StillImage"/>
    <dc:date>2024-11-18T07:52:03.153078</dc:date>
    <dc:format>image/svg+xml</dc:format>
    <dc:creator>
     <cc:Agent>
      <dc:title>Matplotlib v3.8.2, https://matplotlib.org/</dc:title>
     </cc:Agent>
    </dc:creator>
   </cc:Work>
  </rdf:RDF>
 </metadata>
 <defs>
  <style type="text/css">*{stroke-linejoin: round; stroke-linecap: butt}</style>
 </defs>
 <g id="figure_1">
  <g id="patch_1">
   <path d="M 0 145.748736 
L 194.30964 145.748736 
L 194.30964 0 
L 0 0 
z
" style="fill: #ffffff"/>
  </g>
  <g id="axes_1">
   <g id="patch_2">
    <path d="M 20.61 62.454368 
L 188.90964 62.454368 
L 188.90964 7.2 
L 20.61 7.2 
z
" style="fill: #ffffff"/>
   </g>
   <g id="matplotlib.axis_1">
    <g id="xtick_1">
     <g id="line2d_1"/>
    </g>
    <g id="xtick_2">
     <g id="line2d_2"/>
    </g>
    <g id="xtick_3">
     <g id="line2d_3"/>
    </g>
    <g id="xtick_4">
     <g id="line2d_4"/>
    </g>
    <g id="xtick_5">
     <g id="line2d_5"/>
    </g>
    <g id="xtick_6">
     <g id="line2d_6"/>
    </g>
    <g id="xtick_7">
     <g id="line2d_7"/>
    </g>
    <g id="xtick_8">
     <g id="line2d_8"/>
    </g>
   </g>
   <g id="matplotlib.axis_2">
    <g id="ytick_1">
     <g id="line2d_9"/>
     <g id="text_1">
      <!-- −5 -->
      <g style="fill: #262626" transform="translate(6.790469 52.02227) scale(0.07 -0.07)">
       <defs>
        <path id="DejaVuSerif-2212" d="M 678 2259 
L 4684 2259 
L 4684 1753 
L 678 1753 
L 678 2259 
z
" transform="scale(0.015625)"/>
        <path id="DejaVuSerif-35" d="M 3219 4666 
L 3219 4153 
L 1081 4153 
L 1081 2816 
Q 1244 2928 1461 2984 
Q 1678 3041 1947 3041 
Q 2703 3041 3140 2622 
Q 3578 2203 3578 1478 
Q 3578 738 3136 323 
Q 2694 -91 1894 -91 
Q 1572 -91 1234 -12 
Q 897 66 544 225 
L 544 1131 
L 897 1131 
Q 925 688 1179 453 
Q 1434 219 1894 219 
Q 2388 219 2653 544 
Q 2919 869 2919 1478 
Q 2919 2084 2655 2407 
Q 2391 2731 1894 2731 
Q 1613 2731 1398 2631 
Q 1184 2531 1019 2322 
L 750 2322 
L 750 4666 
L 3219 4666 
z
" transform="scale(0.015625)"/>
       </defs>
       <use xlink:href="#DejaVuSerif-2212"/>
       <use xlink:href="#DejaVuSerif-35" x="83.789062"/>
      </g>
     </g>
    </g>
    <g id="ytick_2">
     <g id="line2d_10"/>
     <g id="text_2">
      <!-- 0 -->
      <g style="fill: #262626" transform="translate(12.65625 35.757886) scale(0.07 -0.07)">
       <defs>
        <path id="DejaVuSerif-30" d="M 2034 219 
Q 2513 219 2750 744 
Q 2988 1269 2988 2328 
Q 2988 3391 2750 3916 
Q 2513 4441 2034 4441 
Q 1556 4441 1318 3916 
Q 1081 3391 1081 2328 
Q 1081 1269 1318 744 
Q 1556 219 2034 219 
z
M 2034 -91 
Q 1275 -91 848 546 
Q 422 1184 422 2328 
Q 422 3475 848 4112 
Q 1275 4750 2034 4750 
Q 2797 4750 3222 4112 
Q 3647 3475 3647 2328 
Q 3647 1184 3222 546 
Q 2797 -91 2034 -91 
z
" transform="scale(0.015625)"/>
       </defs>
       <use xlink:href="#DejaVuSerif-30"/>
      </g>
     </g>
    </g>
    <g id="ytick_3">
     <g id="line2d_11"/>
     <g id="text_3">
      <!-- 5 -->
      <g style="fill: #262626" transform="translate(12.65625 19.493501) scale(0.07 -0.07)">
       <use xlink:href="#DejaVuSerif-35"/>
      </g>
     </g>
    </g>
    <g id="text_4">
     <!-- $\beta$ [deg] -->
     <g style="fill: #262626" transform="translate(1.410469 45.657184) rotate(-90) scale(0.06 -0.06)">
      <defs>
       <path id="DejaVuSans-Oblique-3b2" d="M 872 216 
L 572 -1331 
L -6 -1331 
L 928 3478 
Q 1206 4903 2538 4903 
Q 3888 4903 3659 3700 
Q 3503 2844 2894 2531 
Q 3713 2250 3553 1416 
Q 3272 -69 1759 -66 
Q 1097 -63 872 216 
z
M 1019 966 
Q 1259 422 1875 425 
Q 2775 425 2966 1406 
Q 3138 2288 1675 2219 
L 1778 2750 
Q 2909 2731 3106 3750 
Q 3241 4438 2509 4434 
Q 1691 4434 1503 3459 
L 1019 966 
z
" transform="scale(0.015625)"/>
       <path id="DejaVuSerif-20" transform="scale(0.015625)"/>
       <path id="DejaVuSerif-5b" d="M 550 4863 
L 2003 4863 
L 2003 4531 
L 1147 4531 
L 1147 -513 
L 2003 -513 
L 2003 -844 
L 550 -844 
L 550 4863 
z
" transform="scale(0.015625)"/>
       <path id="DejaVuSerif-64" d="M 3359 331 
L 3909 331 
L 3909 0 
L 2784 0 
L 2784 519 
Q 2616 206 2355 57 
Q 2094 -91 1709 -91 
Q 1097 -91 708 395 
Q 319 881 319 1663 
Q 319 2444 706 2928 
Q 1094 3413 1709 3413 
Q 2094 3413 2355 3264 
Q 2616 3116 2784 2803 
L 2784 4531 
L 2241 4531 
L 2241 4863 
L 3359 4863 
L 3359 331 
z
M 2784 1497 
L 2784 1825 
Q 2784 2422 2554 2737 
Q 2325 3053 1888 3053 
Q 1444 3053 1217 2703 
Q 991 2353 991 1663 
Q 991 975 1217 622 
Q 1444 269 1888 269 
Q 2325 269 2554 583 
Q 2784 897 2784 1497 
z
" transform="scale(0.015625)"/>
       <path id="DejaVuSerif-65" d="M 3469 1600 
L 991 1600 
L 991 1575 
Q 991 903 1244 561 
Q 1497 219 1991 219 
Q 2369 219 2611 417 
Q 2853 616 2950 1006 
L 3413 1006 
Q 3275 459 2904 184 
Q 2534 -91 1931 -91 
Q 1203 -91 761 389 
Q 319 869 319 1663 
Q 319 2450 753 2931 
Q 1188 3413 1894 3413 
Q 2647 3413 3050 2948 
Q 3453 2484 3469 1600 
z
M 2791 1931 
Q 2772 2513 2545 2808 
Q 2319 3103 1894 3103 
Q 1497 3103 1269 2806 
Q 1041 2509 991 1931 
L 2791 1931 
z
" transform="scale(0.015625)"/>
       <path id="DejaVuSerif-67" d="M 3359 2988 
L 3359 72 
Q 3359 -644 2965 -1033 
Q 2572 -1422 1844 -1422 
Q 1516 -1422 1216 -1362 
Q 916 -1303 641 -1184 
L 641 -488 
L 941 -488 
Q 997 -813 1206 -963 
Q 1416 -1113 1806 -1113 
Q 2313 -1113 2548 -827 
Q 2784 -541 2784 72 
L 2784 519 
Q 2616 206 2355 57 
Q 2094 -91 1709 -91 
Q 1097 -91 708 395 
Q 319 881 319 1663 
Q 319 2444 706 2928 
Q 1094 3413 1709 3413 
Q 2094 3413 2355 3264 
Q 2616 3116 2784 2803 
L 2784 3322 
L 3909 3322 
L 3909 2988 
L 3359 2988 
z
M 2784 1825 
Q 2784 2422 2554 2737 
Q 2325 3053 1888 3053 
Q 1444 3053 1217 2703 
Q 991 2353 991 1663 
Q 991 975 1217 622 
Q 1444 269 1888 269 
Q 2325 269 2554 583 
Q 2784 897 2784 1497 
L 2784 1825 
z
" transform="scale(0.015625)"/>
       <path id="DejaVuSerif-5d" d="M 1947 4863 
L 1947 -844 
L 494 -844 
L 494 -513 
L 1350 -513 
L 1350 4531 
L 494 4531 
L 494 4863 
L 1947 4863 
z
" transform="scale(0.015625)"/>
      </defs>
      <use xlink:href="#DejaVuSans-Oblique-3b2" transform="translate(0 0.390625)"/>
      <use xlink:href="#DejaVuSerif-20" transform="translate(63.818359 0.390625)"/>
      <use xlink:href="#DejaVuSerif-5b" transform="translate(95.605469 0.390625)"/>
      <use xlink:href="#DejaVuSerif-64" transform="translate(134.619141 0.390625)"/>
      <use xlink:href="#DejaVuSerif-65" transform="translate(198.632812 0.390625)"/>
      <use xlink:href="#DejaVuSerif-67" transform="translate(257.8125 0.390625)"/>
      <use xlink:href="#DejaVuSerif-5d" transform="translate(321.826172 0.390625)"/>
     </g>
    </g>
   </g>
   <g id="line2d_12">
    <path d="M 28.259984 33.098433 
L 29.000375 33.210112 
L 29.849647 33.589928 
L 32.201478 34.906556 
L 35.206596 36.858269 
L 39.300524 39.802101 
L 48.228771 46.323551 
L 48.92561 46.407828 
L 49.709553 46.251857 
L 51.865399 45.465397 
L 54.565649 44.233784 
L 58.158724 42.333345 
L 62.971267 39.52034 
L 68.611306 35.965897 
L 74.425555 32.040435 
L 80.718881 27.513919 
L 96.179992 16.241278 
L 99.838396 13.95945 
L 103.409695 11.992905 
L 104.12831 11.764343 
L 104.825149 11.773261 
L 105.543764 12.006395 
L 107.416518 12.976542 
L 114.602668 16.889885 
L 132.437387 26.919633 
L 139.819523 31.333662 
L 146.374163 35.513264 
L 153.756299 40.500757 
L 164.862168 48.013925 
L 169.39162 50.782854 
L 173.24601 52.884154 
L 176.817309 54.581613 
L 180.301503 55.992832 
L 181.259656 56.338789 
L 181.259656 56.338789 
" clip-path="url(#pbd61391814)" style="fill: none; stroke: #ff0000; stroke-width: 0.4; stroke-linecap: round"/>
   </g>
   <g id="line2d_13">
    <path d="M 28.259984 33.098433 
L 28.956822 33.158911 
L 29.697214 33.460788 
L 31.918387 34.671371 
L 34.727519 36.484098 
L 38.97388 39.584719 
L 46.268912 45.305657 
L 47.989233 46.523031 
L 48.664295 46.692457 
L 49.295805 46.62805 
L 50.18863 46.260811 
L 52.192042 45.216588 
L 54.587425 43.695291 
L 57.461885 41.584947 
L 60.989632 38.694733 
L 64.669812 35.400536 
L 68.197558 31.934811 
L 72.465696 27.388063 
L 82.330321 16.712292 
L 85.422543 13.777329 
L 87.992136 11.633612 
L 90.300415 9.978979 
L 90.953701 9.738507 
L 91.585211 9.742794 
L 92.216721 9.975082 
L 93.588623 10.832474 
L 103.605681 17.195654 
L 109.70302 21.196 
L 122.398553 29.868452 
L 127.690172 33.746945 
L 133.700407 38.455696 
L 145.220024 47.549916 
L 149.37928 50.498576 
L 153.037684 52.823202 
L 156.434774 54.726613 
L 159.766534 56.338922 
L 162.728099 57.562464 
L 162.728099 57.562464 
" clip-path="url(#pbd61391814)" style="fill: none; stroke: #0000ff; stroke-width: 0.4; stroke-linecap: round"/>
   </g>
   <g id="line2d_14">
    <path d="M 28.259984 33.098433 
L 28.935046 33.158652 
L 29.653661 33.460357 
L 31.700625 34.623964 
L 34.117785 36.259612 
L 37.014021 38.495738 
L 40.563544 41.520001 
L 45.550297 46.083291 
L 46.704436 47.016158 
L 47.401275 47.277623 
L 48.054561 47.291458 
L 49.186924 46.994838 
L 51.059679 46.302365 
L 53.084866 45.311364 
L 55.436697 43.917951 
L 58.071619 42.108362 
L 61.142065 39.742256 
L 64.691588 36.697057 
L 69.438802 32.280578 
L 78.628364 23.342118 
L 83.615117 18.696428 
L 87.229969 15.618345 
L 90.343967 13.249166 
L 93.327308 11.252331 
L 95.047629 10.306488 
L 95.744468 10.222094 
L 96.441307 10.365946 
L 97.551893 10.883047 
L 101.53694 12.993557 
L 107.852042 16.649498 
L 113.056557 20.065526 
L 121.832371 26.023745 
L 128.27813 30.680319 
L 132.611596 34.088635 
L 137.141049 37.94772 
L 142.36734 42.71274 
L 152.841698 52.312483 
L 156.304116 55.122352 
L 159.309234 57.27969 
L 162.096589 59.010353 
L 163.81691 59.942806 
L 163.81691 59.942806 
" clip-path="url(#pbd61391814)" style="fill: none; stroke: #00bfbf; stroke-width: 0.4; stroke-linecap: round"/>
   </g>
   <g id="patch_3">
    <path d="M 20.61 62.454368 
L 20.61 7.2 
" style="fill: none; stroke: #000000; stroke-linejoin: miter; stroke-linecap: square"/>
   </g>
   <g id="patch_4">
    <path d="M 20.61 62.454368 
L 188.90964 62.454368 
" style="fill: none; stroke: #000000; stroke-linejoin: miter; stroke-linecap: square"/>
   </g>
   <g id="legend_1"/>
   <g id="line2d_15">
    <path d="M 28.259984 33.362891 
L 29.000379 33.601486 
L 30.590032 34.494078 
L 32.680555 35.443629 
L 35.07594 36.566679 
L 37.014019 37.731328 
L 39.387639 39.418851 
L 42.414546 41.852113 
L 46.508468 45.029084 
L 47.270628 45.287666 
L 47.967459 45.288686 
L 49.448269 45.1891 
L 52.823611 45.021365 
L 54.500316 44.666722 
L 56.024651 44.125718 
L 57.657884 43.293284 
L 60.031474 41.863697 
L 64.147181 39.166421 
L 67.522496 36.944633 
L 72.356848 33.849055 
L 75.841027 31.076077 
L 82.613435 25.628349 
L 96.027556 14.501312 
L 99.577075 12.051683 
L 102.059574 10.668454 
L 102.799965 10.55052 
L 103.475034 10.668819 
L 105.739776 11.324145 
L 108.418222 11.992091 
L 109.790171 12.604295 
L 111.118474 13.404698 
L 113.317861 14.98447 
L 117.999758 18.522065 
L 122.071909 21.266855 
L 126.013421 23.635722 
L 134.375526 28.694885 
L 136.357112 29.948771 
L 145.350685 36.211806 
L 158.242201 46.306272 
L 160.528721 48.103685 
L 160.528721 48.103685 
" clip-path="url(#pbd61391814)" style="fill: none; stroke: #000000; stroke-width: 0.7; stroke-linecap: round"/>
   </g>
  </g>
  <g id="axes_2">
   <g id="patch_5">
    <path d="M 20.61 124.908736 
L 188.90964 124.908736 
L 188.90964 69.654368 
L 20.61 69.654368 
z
" style="fill: #ffffff"/>
   </g>
   <g id="matplotlib.axis_3">
    <g id="xtick_9">
     <g id="line2d_16"/>
     <g id="text_5">
      <!-- 0 -->
      <g style="fill: #262626" transform="translate(26.033109 133.727642) scale(0.07 -0.07)">
       <use xlink:href="#DejaVuSerif-30"/>
      </g>
     </g>
    </g>
    <g id="xtick_10">
     <g id="line2d_17"/>
     <g id="text_6">
      <!-- 10 -->
      <g style="fill: #262626" transform="translate(45.582447 133.727642) scale(0.07 -0.07)">
       <defs>
        <path id="DejaVuSerif-31" d="M 909 0 
L 909 331 
L 1722 331 
L 1722 4213 
L 781 3603 
L 781 4013 
L 1919 4750 
L 2350 4750 
L 2350 331 
L 3163 331 
L 3163 0 
L 909 0 
z
" transform="scale(0.015625)"/>
       </defs>
       <use xlink:href="#DejaVuSerif-31"/>
       <use xlink:href="#DejaVuSerif-30" x="63.623047"/>
      </g>
     </g>
    </g>
    <g id="xtick_11">
     <g id="line2d_18"/>
     <g id="text_7">
      <!-- 20 -->
      <g style="fill: #262626" transform="translate(67.35866 133.727642) scale(0.07 -0.07)">
       <defs>
        <path id="DejaVuSerif-32" d="M 819 3553 
L 469 3553 
L 469 4384 
Q 803 4563 1142 4656 
Q 1481 4750 1806 4750 
Q 2534 4750 2956 4397 
Q 3378 4044 3378 3438 
Q 3378 2753 2422 1800 
Q 2347 1728 2309 1691 
L 1131 513 
L 3078 513 
L 3078 1088 
L 3444 1088 
L 3444 0 
L 434 0 
L 434 341 
L 1850 1753 
Q 2319 2222 2519 2614 
Q 2719 3006 2719 3438 
Q 2719 3909 2473 4175 
Q 2228 4441 1797 4441 
Q 1350 4441 1106 4219 
Q 863 3997 819 3553 
z
" transform="scale(0.015625)"/>
       </defs>
       <use xlink:href="#DejaVuSerif-32"/>
       <use xlink:href="#DejaVuSerif-30" x="63.623047"/>
      </g>
     </g>
    </g>
    <g id="xtick_12">
     <g id="line2d_19"/>
     <g id="text_8">
      <!-- 30 -->
      <g style="fill: #262626" transform="translate(89.134873 133.727642) scale(0.07 -0.07)">
       <defs>
        <path id="DejaVuSerif-33" d="M 622 4469 
Q 988 4606 1323 4678 
Q 1659 4750 1953 4750 
Q 2638 4750 3022 4454 
Q 3406 4159 3406 3634 
Q 3406 3213 3140 2930 
Q 2875 2647 2388 2547 
Q 2963 2466 3280 2130 
Q 3597 1794 3597 1259 
Q 3597 606 3158 257 
Q 2719 -91 1894 -91 
Q 1528 -91 1179 -12 
Q 831 66 488 225 
L 488 1131 
L 838 1131 
Q 869 681 1141 450 
Q 1413 219 1906 219 
Q 2384 219 2661 495 
Q 2938 772 2938 1253 
Q 2938 1803 2653 2086 
Q 2369 2369 1819 2369 
L 1522 2369 
L 1522 2688 
L 1678 2688 
Q 2225 2688 2498 2914 
Q 2772 3141 2772 3597 
Q 2772 4006 2547 4223 
Q 2322 4441 1900 4441 
Q 1478 4441 1245 4241 
Q 1013 4041 972 3647 
L 622 3647 
L 622 4469 
z
" transform="scale(0.015625)"/>
       </defs>
       <use xlink:href="#DejaVuSerif-33"/>
       <use xlink:href="#DejaVuSerif-30" x="63.623047"/>
      </g>
     </g>
    </g>
    <g id="xtick_13">
     <g id="line2d_20"/>
     <g id="text_9">
      <!-- 40 -->
      <g style="fill: #262626" transform="translate(110.911086 133.727642) scale(0.07 -0.07)">
       <defs>
        <path id="DejaVuSerif-34" d="M 2234 1581 
L 2234 4063 
L 641 1581 
L 2234 1581 
z
M 3609 0 
L 1484 0 
L 1484 331 
L 2234 331 
L 2234 1247 
L 197 1247 
L 197 1588 
L 2241 4750 
L 2859 4750 
L 2859 1581 
L 3750 1581 
L 3750 1247 
L 2859 1247 
L 2859 331 
L 3609 331 
L 3609 0 
z
" transform="scale(0.015625)"/>
       </defs>
       <use xlink:href="#DejaVuSerif-34"/>
       <use xlink:href="#DejaVuSerif-30" x="63.623047"/>
      </g>
     </g>
    </g>
    <g id="xtick_14">
     <g id="line2d_21"/>
     <g id="text_10">
      <!-- 50 -->
      <g style="fill: #262626" transform="translate(132.687299 133.727642) scale(0.07 -0.07)">
       <use xlink:href="#DejaVuSerif-35"/>
       <use xlink:href="#DejaVuSerif-30" x="63.623047"/>
      </g>
     </g>
    </g>
    <g id="xtick_15">
     <g id="line2d_22"/>
     <g id="text_11">
      <!-- 60 -->
      <g style="fill: #262626" transform="translate(154.463512 133.727642) scale(0.07 -0.07)">
       <defs>
        <path id="DejaVuSerif-36" d="M 2094 219 
Q 2534 219 2771 542 
Q 3009 866 3009 1472 
Q 3009 2078 2771 2401 
Q 2534 2725 2094 2725 
Q 1647 2725 1412 2412 
Q 1178 2100 1178 1509 
Q 1178 888 1415 553 
Q 1653 219 2094 219 
z
M 1075 2569 
Q 1288 2803 1556 2918 
Q 1825 3034 2163 3034 
Q 2859 3034 3264 2615 
Q 3669 2197 3669 1472 
Q 3669 763 3233 336 
Q 2797 -91 2069 -91 
Q 1278 -91 853 498 
Q 428 1088 428 2181 
Q 428 3406 931 4078 
Q 1434 4750 2350 4750 
Q 2597 4750 2869 4703 
Q 3141 4656 3425 4563 
L 3425 3794 
L 3072 3794 
Q 3034 4109 2831 4275 
Q 2628 4441 2284 4441 
Q 1678 4441 1381 3981 
Q 1084 3522 1075 2569 
z
" transform="scale(0.015625)"/>
       </defs>
       <use xlink:href="#DejaVuSerif-36"/>
       <use xlink:href="#DejaVuSerif-30" x="63.623047"/>
      </g>
     </g>
    </g>
    <g id="xtick_16">
     <g id="line2d_23"/>
     <g id="text_12">
      <!-- 70 -->
      <g style="fill: #262626" transform="translate(176.239725 133.727642) scale(0.07 -0.07)">
       <defs>
        <path id="DejaVuSerif-37" d="M 3609 4347 
L 1784 0 
L 1319 0 
L 3059 4153 
L 903 4153 
L 903 3578 
L 538 3578 
L 538 4666 
L 3609 4666 
L 3609 4347 
z
" transform="scale(0.015625)"/>
       </defs>
       <use xlink:href="#DejaVuSerif-37"/>
       <use xlink:href="#DejaVuSerif-30" x="63.623047"/>
      </g>
     </g>
    </g>
    <g id="text_13">
     <!-- Time [s] -->
     <g style="fill: #262626" transform="translate(92.344976 143.742486) scale(0.06 -0.06)">
      <defs>
       <path id="DejaVuSerif-54" d="M 1222 0 
L 1222 331 
L 1819 331 
L 1819 4294 
L 447 4294 
L 447 3566 
L 63 3566 
L 63 4666 
L 4206 4666 
L 4206 3566 
L 3822 3566 
L 3822 4294 
L 2450 4294 
L 2450 331 
L 3047 331 
L 3047 0 
L 1222 0 
z
" transform="scale(0.015625)"/>
       <path id="DejaVuSerif-69" d="M 622 4353 
Q 622 4497 726 4603 
Q 831 4709 978 4709 
Q 1122 4709 1226 4603 
Q 1331 4497 1331 4353 
Q 1331 4206 1228 4103 
Q 1125 4000 978 4000 
Q 831 4000 726 4103 
Q 622 4206 622 4353 
z
M 1356 331 
L 1900 331 
L 1900 0 
L 231 0 
L 231 331 
L 781 331 
L 781 2988 
L 231 2988 
L 231 3322 
L 1356 3322 
L 1356 331 
z
" transform="scale(0.015625)"/>
       <path id="DejaVuSerif-6d" d="M 3316 2675 
Q 3481 3041 3739 3227 
Q 3997 3413 4341 3413 
Q 4863 3413 5119 3089 
Q 5375 2766 5375 2113 
L 5375 331 
L 5894 331 
L 5894 0 
L 4300 0 
L 4300 331 
L 4800 331 
L 4800 2047 
Q 4800 2556 4650 2772 
Q 4500 2988 4153 2988 
Q 3769 2988 3567 2697 
Q 3366 2406 3366 1850 
L 3366 331 
L 3866 331 
L 3866 0 
L 2291 0 
L 2291 331 
L 2791 331 
L 2791 2069 
Q 2791 2566 2641 2777 
Q 2491 2988 2144 2988 
Q 1759 2988 1557 2697 
Q 1356 2406 1356 1850 
L 1356 331 
L 1856 331 
L 1856 0 
L 263 0 
L 263 331 
L 781 331 
L 781 2994 
L 231 2994 
L 231 3322 
L 1356 3322 
L 1356 2731 
Q 1516 3063 1762 3238 
Q 2009 3413 2322 3413 
Q 2709 3413 2968 3220 
Q 3228 3028 3316 2675 
z
" transform="scale(0.015625)"/>
       <path id="DejaVuSerif-73" d="M 359 184 
L 359 959 
L 691 959 
Q 703 588 923 403 
Q 1144 219 1575 219 
Q 1963 219 2166 364 
Q 2369 509 2369 788 
Q 2369 1006 2220 1140 
Q 2072 1275 1594 1428 
L 1178 1569 
Q 750 1706 558 1912 
Q 366 2119 366 2438 
Q 366 2894 700 3153 
Q 1034 3413 1625 3413 
Q 1888 3413 2178 3344 
Q 2469 3275 2778 3144 
L 2778 2419 
L 2447 2419 
Q 2434 2741 2221 2922 
Q 2009 3103 1644 3103 
Q 1281 3103 1095 2975 
Q 909 2847 909 2591 
Q 909 2381 1050 2254 
Q 1191 2128 1613 1997 
L 2069 1856 
Q 2541 1709 2748 1489 
Q 2956 1269 2956 922 
Q 2956 450 2595 179 
Q 2234 -91 1600 -91 
Q 1278 -91 972 -22 
Q 666 47 359 184 
z
" transform="scale(0.015625)"/>
      </defs>
      <use xlink:href="#DejaVuSerif-54"/>
      <use xlink:href="#DejaVuSerif-69" x="66.699219"/>
      <use xlink:href="#DejaVuSerif-6d" x="98.681641"/>
      <use xlink:href="#DejaVuSerif-65" x="193.505859"/>
      <use xlink:href="#DejaVuSerif-20" x="252.685547"/>
      <use xlink:href="#DejaVuSerif-5b" x="284.472656"/>
      <use xlink:href="#DejaVuSerif-73" x="323.486328"/>
      <use xlink:href="#DejaVuSerif-5d" x="374.804688"/>
     </g>
    </g>
   </g>
   <g id="matplotlib.axis_4">
    <g id="ytick_4">
     <g id="line2d_24"/>
     <g id="text_14">
      <!-- −20 -->
      <g style="fill: #262626" transform="translate(2.336719 126.616686) scale(0.07 -0.07)">
       <use xlink:href="#DejaVuSerif-2212"/>
       <use xlink:href="#DejaVuSerif-32" x="83.789062"/>
       <use xlink:href="#DejaVuSerif-30" x="147.412109"/>
      </g>
     </g>
    </g>
    <g id="ytick_5">
     <g id="line2d_25"/>
     <g id="text_15">
      <!-- 0 -->
      <g style="fill: #262626" transform="translate(12.65625 105.119958) scale(0.07 -0.07)">
       <use xlink:href="#DejaVuSerif-30"/>
      </g>
     </g>
    </g>
    <g id="ytick_6">
     <g id="line2d_26"/>
     <g id="text_16">
      <!-- 20 -->
      <g style="fill: #262626" transform="translate(8.2025 83.623231) scale(0.07 -0.07)">
       <use xlink:href="#DejaVuSerif-32"/>
       <use xlink:href="#DejaVuSerif-30" x="63.623047"/>
      </g>
     </g>
    </g>
    <g id="text_17">
     <!-- $\psi$ [deg] -->
     <g style="fill: #262626" transform="translate(-3.043281 108.171552) rotate(-90) scale(0.06 -0.06)">
      <defs>
       <path id="DejaVuSans-Oblique-3c8" d="M 1591 -78 
Q 891 38 616 341 
Q 278 713 425 1472 
L 819 3500 
L 1400 3500 
L 1009 1494 
Q 900 922 1119 684 
Q 1313 478 1691 434 
L 2284 3500 
L 2856 3500 
L 2263 438 
Q 2681 481 2928 688 
Q 3247 950 3353 1497 
L 3741 3500 
L 4322 3500 
L 3928 1475 
Q 3775 688 3300 344 
Q 2872 34 2163 -75 
L 1919 -1331 
L 1347 -1331 
L 1591 -78 
z
" transform="scale(0.015625)"/>
      </defs>
      <use xlink:href="#DejaVuSans-Oblique-3c8" transform="translate(0 0.015625)"/>
      <use xlink:href="#DejaVuSerif-20" transform="translate(65.966797 0.015625)"/>
      <use xlink:href="#DejaVuSerif-5b" transform="translate(97.753906 0.015625)"/>
      <use xlink:href="#DejaVuSerif-64" transform="translate(136.767578 0.015625)"/>
      <use xlink:href="#DejaVuSerif-65" transform="translate(200.78125 0.015625)"/>
      <use xlink:href="#DejaVuSerif-67" transform="translate(259.960938 0.015625)"/>
      <use xlink:href="#DejaVuSerif-5d" transform="translate(323.974609 0.015625)"/>
     </g>
    </g>
   </g>
   <g id="line2d_27">
    <path d="M 28.259984 102.460505 
L 30.3505 102.56998 
L 32.070821 102.913664 
L 33.943575 103.520708 
L 35.968763 104.417146 
L 38.124608 105.619897 
L 40.389334 107.140968 
L 42.762942 109.005057 
L 45.267206 111.260028 
L 47.94568 113.980989 
L 50.036197 116.024421 
L 51.647636 117.267324 
L 53.41151 118.346498 
L 55.327816 119.257971 
L 57.418333 120.00364 
L 59.639507 120.559115 
L 61.969561 120.912906 
L 64.364945 121.0527 
L 66.803881 120.972232 
L 69.242817 120.670156 
L 71.681752 120.145027 
L 74.120688 119.392615 
L 76.559624 118.407164 
L 79.020336 117.170388 
L 81.502824 115.669681 
L 84.007089 113.89347 
L 86.576682 111.794373 
L 89.23338 109.330633 
L 91.998959 106.45581 
L 94.916972 103.095089 
L 98.052746 99.137026 
L 101.515164 94.39725 
L 106.872113 86.980047 
L 108.635986 85.125297 
L 110.574069 83.412266 
L 112.708138 81.825082 
L 115.038193 80.370208 
L 117.564233 79.056698 
L 120.242707 77.916351 
L 123.008287 76.980446 
L 125.817418 76.263072 
L 128.648326 75.769479 
L 131.457457 75.505269 
L 134.223036 75.466903 
L 136.966839 75.651176 
L 139.667089 76.055318 
L 142.345564 76.682112 
L 145.002262 77.534075 
L 147.637183 78.613493 
L 150.272105 79.933789 
L 152.928803 81.515362 
L 155.629054 83.385411 
L 158.372856 85.559238 
L 161.203764 88.090065 
L 164.143553 91.021433 
L 167.235775 94.424034 
L 170.54576 98.403195 
L 174.160611 103.103867 
L 178.254539 108.804473 
L 181.259656 113.194033 
L 181.259656 113.194033 
" clip-path="url(#p33a9ad5ab5)" style="fill: none; stroke: #ff0000; stroke-width: 0.4; stroke-linecap: round"/>
   </g>
   <g id="line2d_28">
    <path d="M 28.259984 102.460505 
L 30.459381 102.568541 
L 32.179702 102.909713 
L 34.052456 103.513941 
L 36.055868 104.399405 
L 38.189937 105.589871 
L 40.432887 107.098132 
L 42.784718 108.950071 
L 45.24543 111.173626 
L 47.858575 113.840089 
L 49.949092 115.906326 
L 51.408098 117.010988 
L 52.954209 117.90462 
L 54.609201 118.602785 
L 56.351298 119.095276 
L 58.1805 119.378947 
L 60.075031 119.447102 
L 62.03489 119.292791 
L 64.038302 118.907826 
L 66.019937 118.299335 
L 68.001572 117.455612 
L 69.983208 116.366589 
L 72.008396 114.993612 
L 74.05536 113.334691 
L 76.189429 111.315667 
L 78.432378 108.880995 
L 80.805986 105.966404 
L 83.353803 102.479236 
L 86.162934 98.243874 
L 89.40759 92.930657 
L 92.957113 87.127413 
L 94.503224 85.140622 
L 96.179992 83.345433 
L 98.03097 81.692718 
L 100.034382 80.20506 
L 102.212003 78.869737 
L 104.607387 77.663233 
L 107.089875 76.660162 
L 109.572363 75.894575 
L 112.12018 75.343509 
L 114.711549 75.010662 
L 117.324695 74.900263 
L 119.916064 75.013233 
L 122.485657 75.34788 
L 125.011698 75.902052 
L 127.47241 76.669119 
L 129.911346 77.664558 
L 132.350282 78.902417 
L 134.810994 80.401829 
L 137.337035 82.204644 
L 139.928404 84.330865 
L 142.628654 86.839336 
L 145.481338 89.798695 
L 148.508232 93.265866 
L 151.774664 97.354443 
L 155.324187 102.162398 
L 159.265681 107.88523 
L 162.728099 113.18889 
L 162.728099 113.18889 
" clip-path="url(#p33a9ad5ab5)" style="fill: none; stroke: #0000ff; stroke-width: 0.4; stroke-linecap: round"/>
   </g>
   <g id="line2d_29">
    <path d="M 28.259984 102.460505 
L 30.415829 102.570686 
L 32.070821 102.913872 
L 33.834694 103.51213 
L 35.685672 104.376544 
L 37.645531 105.542893 
L 39.670719 107.010704 
L 41.783012 108.821167 
L 43.960633 110.986008 
L 46.203583 113.534549 
L 48.947386 116.667564 
L 50.580602 118.131724 
L 52.300923 119.375372 
L 54.086572 120.392436 
L 55.93755 121.190764 
L 57.810305 121.759269 
L 59.726611 122.109417 
L 61.642918 122.233799 
L 63.559225 122.135718 
L 65.475532 121.813731 
L 67.435391 121.254961 
L 69.417026 120.457816 
L 71.46399 119.391854 
L 73.554507 118.049152 
L 75.710352 116.396707 
L 77.953302 114.390949 
L 80.283357 112.002544 
L 82.744069 109.155138 
L 85.357214 105.781173 
L 88.188122 101.751319 
L 91.345673 96.855526 
L 94.916972 90.894429 
L 97.247027 87.115398 
L 98.967347 84.780989 
L 100.818325 82.64244 
L 102.843513 80.646992 
L 105.042911 78.791413 
L 107.329413 77.150551 
L 109.637692 75.76234 
L 111.989523 74.607639 
L 114.406682 73.667633 
L 116.867394 72.949142 
L 119.30633 72.467282 
L 121.745266 72.209733 
L 124.118873 72.181021 
L 126.492481 72.374489 
L 128.822535 72.788801 
L 131.065485 73.413306 
L 133.264883 74.257899 
L 135.442504 75.332584 
L 137.620125 76.65702 
L 139.819523 78.258617 
L 142.040697 80.155188 
L 144.327199 82.405591 
L 146.67903 85.040015 
L 149.117966 88.112512 
L 151.665783 91.686578 
L 154.366033 95.865256 
L 157.284046 100.802544 
L 160.485149 106.669668 
L 163.81691 113.201601 
L 163.81691 113.201601 
" clip-path="url(#p33a9ad5ab5)" style="fill: none; stroke: #00bfbf; stroke-width: 0.4; stroke-linecap: round"/>
   </g>
   <g id="patch_6">
    <path d="M 20.61 124.908736 
L 20.61 69.654368 
" style="fill: none; stroke: #000000; stroke-linejoin: miter; stroke-linecap: square"/>
   </g>
   <g id="patch_7">
    <path d="M 20.61 124.908736 
L 188.90964 124.908736 
" style="fill: none; stroke: #000000; stroke-linejoin: miter; stroke-linecap: square"/>
   </g>
   <g id="line2d_30">
    <path d="M 28.259984 102.64195 
L 30.154523 102.864874 
L 31.874865 103.318456 
L 33.747629 104.046169 
L 35.772799 105.075527 
L 37.950438 106.438253 
L 40.193409 108.106399 
L 42.458072 110.068897 
L 44.744603 112.346431 
L 49.361134 117.08831 
L 51.081466 118.335824 
L 53.019531 119.465131 
L 55.110072 120.427373 
L 57.331224 121.203149 
L 59.770183 121.81581 
L 62.252667 122.210785 
L 64.778691 122.390166 
L 67.108739 122.334513 
L 69.417022 122.056799 
L 71.616426 121.568379 
L 73.794039 120.85503 
L 76.05883 119.877323 
L 78.258171 118.686591 
L 80.457568 117.238879 
L 82.74408 115.465916 
L 85.030567 113.410805 
L 87.360626 111.012703 
L 89.799594 108.177179 
L 92.521582 104.660264 
L 95.657359 100.227011 
L 99.969095 93.723742 
L 104.171858 87.400188 
L 105.805089 85.479034 
L 107.656045 83.65014 
L 109.681292 81.959722 
L 111.837146 80.450402 
L 114.123655 79.122582 
L 116.584319 77.951328 
L 119.153964 76.972 
L 121.832371 76.189732 
L 124.597959 75.615196 
L 127.25465 75.286171 
L 129.846015 75.185932 
L 132.459154 75.309636 
L 135.006982 75.650975 
L 137.467692 76.202374 
L 139.906617 76.978863 
L 142.432682 78.021294 
L 145.002314 79.327739 
L 147.637179 80.920066 
L 150.359234 82.827712 
L 152.950588 84.909484 
L 155.433092 87.192454 
L 157.872017 89.740062 
L 160.528721 92.837511 
L 160.528721 92.837511 
" clip-path="url(#p33a9ad5ab5)" style="fill: none; stroke: #000000; stroke-width: 0.7; stroke-linecap: round"/>
   </g>
  </g>
 </g>
 <defs>
  <clipPath id="pbd61391814">
   <rect x="20.61" y="7.2" width="168.29964" height="55.254368"/>
  </clipPath>
  <clipPath id="p33a9ad5ab5">
   <rect x="20.61" y="69.654368" width="168.29964" height="55.254368"/>
  </clipPath>
 </defs>
</svg>
