<?xml version="1.0" encoding="utf-8" standalone="no"?>
<!DOCTYPE svg PUBLIC "-//W3C//DTD SVG 1.1//EN"
  "http://www.w3.org/Graphics/SVG/1.1/DTD/svg11.dtd">
<svg xmlns:xlink="http://www.w3.org/1999/xlink" width="388.61928pt" height="218.623104pt" viewBox="0 0 388.61928 218.623104" xmlns="http://www.w3.org/2000/svg" version="1.1">
 <metadata>
  <rdf:RDF xmlns:dc="http://purl.org/dc/elements/1.1/" xmlns:cc="http://creativecommons.org/ns#" xmlns:rdf="http://www.w3.org/1999/02/22-rdf-syntax-ns#">
   <cc:Work>
    <dc:type rdf:resource="http://purl.org/dc/dcmitype/StillImage"/>
    <dc:date>2024-11-11T10:12:51.367180</dc:date>
    <dc:format>image/svg+xml</dc:format>
    <dc:creator>
     <cc:Agent>
      <dc:title>Matplotlib v3.8.2, https://matplotlib.org/</dc:title>
     </cc:Agent>
    </dc:creator>
   </cc:Work>
  </rdf:RDF>
 </metadata>
 <defs>
  <style type="text/css">*{stroke-linejoin: round; stroke-linecap: butt}</style>
 </defs>
 <g id="figure_1">
  <g id="patch_1">
   <path d="M 0 218.623104 
L 388.61928 218.623104 
L 388.61928 0 
L 0 0 
z
" style="fill: #ffffff"/>
  </g>
  <g id="axes_1">
   <g id="patch_2">
    <path d="M 43.86 90.201552 
L 188.90964 90.201552 
L 188.90964 10.8 
L 43.86 10.8 
z
" style="fill: #ffffff"/>
   </g>
   <g id="matplotlib.axis_1">
    <g id="xtick_1">
     <g id="line2d_1">
      <path d="M 50.453165 90.201552 
L 50.453165 10.8 
" clip-path="url(#p264b93efa0)" style="fill: none; stroke: #b0b0b0; stroke-width: 0.1; stroke-linecap: round"/>
     </g>
     <g id="line2d_2"/>
    </g>
    <g id="xtick_2">
     <g id="line2d_3">
      <path d="M 86.334343 90.201552 
L 86.334343 10.8 
" clip-path="url(#p264b93efa0)" style="fill: none; stroke: #b0b0b0; stroke-width: 0.1; stroke-linecap: round"/>
     </g>
     <g id="line2d_4"/>
    </g>
    <g id="xtick_3">
     <g id="line2d_5">
      <path d="M 122.215521 90.201552 
L 122.215521 10.8 
" clip-path="url(#p264b93efa0)" style="fill: none; stroke: #b0b0b0; stroke-width: 0.1; stroke-linecap: round"/>
     </g>
     <g id="line2d_6"/>
    </g>
    <g id="xtick_4">
     <g id="line2d_7">
      <path d="M 158.096699 90.201552 
L 158.096699 10.8 
" clip-path="url(#p264b93efa0)" style="fill: none; stroke: #b0b0b0; stroke-width: 0.1; stroke-linecap: round"/>
     </g>
     <g id="line2d_8"/>
    </g>
   </g>
   <g id="matplotlib.axis_2">
    <g id="ytick_1">
     <g id="line2d_9">
      <path d="M 43.86 90.201552 
L 188.90964 90.201552 
" clip-path="url(#p264b93efa0)" style="fill: none; stroke: #b0b0b0; stroke-width: 0.1; stroke-linecap: round"/>
     </g>
     <g id="line2d_10"/>
     <g id="text_1">
      <!-- 0.00 -->
      <g style="fill: #262626" transform="translate(22.5475 93.240927) scale(0.08 -0.08)">
       <defs>
        <path id="DejaVuSerif-30" d="M 2034 219 
Q 2513 219 2750 744 
Q 2988 1269 2988 2328 
Q 2988 3391 2750 3916 
Q 2513 4441 2034 4441 
Q 1556 4441 1318 3916 
Q 1081 3391 1081 2328 
Q 1081 1269 1318 744 
Q 1556 219 2034 219 
z
M 2034 -91 
Q 1275 -91 848 546 
Q 422 1184 422 2328 
Q 422 3475 848 4112 
Q 1275 4750 2034 4750 
Q 2797 4750 3222 4112 
Q 3647 3475 3647 2328 
Q 3647 1184 3222 546 
Q 2797 -91 2034 -91 
z
" transform="scale(0.015625)"/>
        <path id="DejaVuSerif-2e" d="M 603 325 
Q 603 500 722 622 
Q 841 744 1019 744 
Q 1191 744 1312 622 
Q 1434 500 1434 325 
Q 1434 153 1312 31 
Q 1191 -91 1019 -91 
Q 841 -91 722 29 
Q 603 150 603 325 
z
" transform="scale(0.015625)"/>
       </defs>
       <use xlink:href="#DejaVuSerif-30"/>
       <use xlink:href="#DejaVuSerif-2e" x="63.623047"/>
       <use xlink:href="#DejaVuSerif-30" x="95.410156"/>
       <use xlink:href="#DejaVuSerif-30" x="159.033203"/>
      </g>
     </g>
    </g>
    <g id="ytick_2">
     <g id="line2d_11">
      <path d="M 43.86 69.491192 
L 188.90964 69.491192 
" clip-path="url(#p264b93efa0)" style="fill: none; stroke: #b0b0b0; stroke-width: 0.1; stroke-linecap: round"/>
     </g>
     <g id="line2d_12"/>
     <g id="text_2">
      <!-- 0.25 -->
      <g style="fill: #262626" transform="translate(22.5475 72.530567) scale(0.08 -0.08)">
       <defs>
        <path id="DejaVuSerif-32" d="M 819 3553 
L 469 3553 
L 469 4384 
Q 803 4563 1142 4656 
Q 1481 4750 1806 4750 
Q 2534 4750 2956 4397 
Q 3378 4044 3378 3438 
Q 3378 2753 2422 1800 
Q 2347 1728 2309 1691 
L 1131 513 
L 3078 513 
L 3078 1088 
L 3444 1088 
L 3444 0 
L 434 0 
L 434 341 
L 1850 1753 
Q 2319 2222 2519 2614 
Q 2719 3006 2719 3438 
Q 2719 3909 2473 4175 
Q 2228 4441 1797 4441 
Q 1350 4441 1106 4219 
Q 863 3997 819 3553 
z
" transform="scale(0.015625)"/>
        <path id="DejaVuSerif-35" d="M 3219 4666 
L 3219 4153 
L 1081 4153 
L 1081 2816 
Q 1244 2928 1461 2984 
Q 1678 3041 1947 3041 
Q 2703 3041 3140 2622 
Q 3578 2203 3578 1478 
Q 3578 738 3136 323 
Q 2694 -91 1894 -91 
Q 1572 -91 1234 -12 
Q 897 66 544 225 
L 544 1131 
L 897 1131 
Q 925 688 1179 453 
Q 1434 219 1894 219 
Q 2388 219 2653 544 
Q 2919 869 2919 1478 
Q 2919 2084 2655 2407 
Q 2391 2731 1894 2731 
Q 1613 2731 1398 2631 
Q 1184 2531 1019 2322 
L 750 2322 
L 750 4666 
L 3219 4666 
z
" transform="scale(0.015625)"/>
       </defs>
       <use xlink:href="#DejaVuSerif-30"/>
       <use xlink:href="#DejaVuSerif-2e" x="63.623047"/>
       <use xlink:href="#DejaVuSerif-32" x="95.410156"/>
       <use xlink:href="#DejaVuSerif-35" x="159.033203"/>
      </g>
     </g>
    </g>
    <g id="ytick_3">
     <g id="line2d_13">
      <path d="M 43.86 48.780832 
L 188.90964 48.780832 
" clip-path="url(#p264b93efa0)" style="fill: none; stroke: #b0b0b0; stroke-width: 0.1; stroke-linecap: round"/>
     </g>
     <g id="line2d_14"/>
     <g id="text_3">
      <!-- 0.50 -->
      <g style="fill: #262626" transform="translate(22.5475 51.820207) scale(0.08 -0.08)">
       <use xlink:href="#DejaVuSerif-30"/>
       <use xlink:href="#DejaVuSerif-2e" x="63.623047"/>
       <use xlink:href="#DejaVuSerif-35" x="95.410156"/>
       <use xlink:href="#DejaVuSerif-30" x="159.033203"/>
      </g>
     </g>
    </g>
    <g id="ytick_4">
     <g id="line2d_15">
      <path d="M 43.86 28.070472 
L 188.90964 28.070472 
" clip-path="url(#p264b93efa0)" style="fill: none; stroke: #b0b0b0; stroke-width: 0.1; stroke-linecap: round"/>
     </g>
     <g id="line2d_16"/>
     <g id="text_4">
      <!-- 0.75 -->
      <g style="fill: #262626" transform="translate(22.5475 31.109847) scale(0.08 -0.08)">
       <defs>
        <path id="DejaVuSerif-37" d="M 3609 4347 
L 1784 0 
L 1319 0 
L 3059 4153 
L 903 4153 
L 903 3578 
L 538 3578 
L 538 4666 
L 3609 4666 
L 3609 4347 
z
" transform="scale(0.015625)"/>
       </defs>
       <use xlink:href="#DejaVuSerif-30"/>
       <use xlink:href="#DejaVuSerif-2e" x="63.623047"/>
       <use xlink:href="#DejaVuSerif-37" x="95.410156"/>
       <use xlink:href="#DejaVuSerif-35" x="159.033203"/>
      </g>
     </g>
    </g>
    <g id="text_5">
     <!-- $V$ -->
     <g style="fill: #262626" transform="translate(17.091719 52.915776) rotate(-90) scale(0.07 -0.07)">
      <defs>
       <path id="DejaVuSans-Oblique-56" d="M 1319 0 
L 500 4666 
L 1119 4666 
L 1797 653 
L 4063 4666 
L 4750 4666 
L 2053 0 
L 1319 0 
z
" transform="scale(0.015625)"/>
      </defs>
      <use xlink:href="#DejaVuSans-Oblique-56" transform="translate(0 0.09375)"/>
     </g>
    </g>
   </g>
   <g id="line2d_17">
    <path d="M 50.453165 12.120531 
L 50.865772 12.248229 
L 51.870463 12.167949 
L 52.749536 12.28923 
L 56.750303 12.746274 
L 57.43206 12.87253 
L 62.616861 15.010806 
L 64.46474 15.876981 
L 66.492113 17.285937 
L 68.626964 18.69884 
L 69.506044 19.224376 
L 72.125372 20.341138 
L 73.650324 20.836538 
L 75.282923 21.059861 
L 80.970084 21.114249 
L 81.974766 20.994816 
L 84.217341 21.046657 
L 86.962241 20.656836 
L 88.935704 20.9063 
L 91.250072 21.064827 
L 92.541773 21.361578 
L 93.779664 21.712574 
L 96.058135 22.495239 
L 99.32335 24.027917 
L 101.027666 24.875959 
L 101.817054 25.360511 
L 103.306164 26.330221 
L 104.831076 27.232097 
L 112.940213 32.093725 
L 113.747542 32.537078 
L 114.931628 33.121751 
L 118.125049 34.144142 
L 120.869956 34.031676 
L 123.345755 33.821019 
L 125.857443 33.552343 
L 130.324671 32.823691 
L 132.26224 32.307341 
L 133.78725 32.145001 
L 135.22245 31.987107 
L 139.241128 31.681188 
L 140.479026 31.636599 
L 146.058542 31.979165 
L 147.296454 32.272549 
L 147.906429 32.423633 
L 149.449328 32.981753 
L 150.687225 33.388463 
L 153.252719 34.261905 
L 156.069391 35.248813 
L 159.047534 36.376865 
L 161.074837 37.126731 
L 162.312743 37.462265 
L 163.389173 37.830996 
L 164.322078 38.097072 
L 165.918774 38.293374 
L 169.471015 38.17057 
L 173.112956 37.460659 
L 174.081746 37.266571 
L 175.032615 37.117476 
L 176.62931 36.656894 
L 178.72838 36.071116 
L 182.316475 35.116975 
L 182.316475 35.116975 
" clip-path="url(#p264b93efa0)" style="fill: none; stroke: #000000; stroke-width: 0.4; stroke-linecap: round"/>
   </g>
   <g id="line2d_18">
    <path d="M 50.453165 12.120607 
L 52.1037 12.191207 
L 55.17154 12.800733 
L 59.620806 13.850489 
L 63.119221 14.92143 
L 65.415617 15.875509 
L 68.806388 17.625803 
L 71.264249 19.003676 
L 72.771258 19.54055 
L 74.601198 19.946073 
L 77.112881 20.239518 
L 80.180721 20.36513 
L 86.54963 20.556705 
L 88.828085 20.931089 
L 90.729788 21.454104 
L 92.703252 22.221937 
L 95.179054 23.460034 
L 98.211013 25.219666 
L 105.42313 29.532759 
L 107.593941 30.507756 
L 109.352119 30.955601 
L 111.451168 31.254393 
L 114.160197 31.388466 
L 116.68982 31.253796 
L 120.080591 30.78979 
L 125.731877 30.029691 
L 128.207678 29.925607 
L 130.199083 30.049296 
L 132.190489 30.389279 
L 134.181894 30.970024 
L 136.209181 31.773884 
L 138.774685 33.041565 
L 142.757496 35.275478 
L 142.757496 35.275478 
" clip-path="url(#p264b93efa0)" style="fill: none; stroke-dasharray: 1.48,0.64; stroke-dashoffset: 0; stroke: #0000ff; stroke-width: 0.4"/>
   </g>
   <g id="line2d_19">
    <path d="M 50.453165 12.120607 
L 52.462511 12.24876 
L 58.83142 13.356268 
L 62.509241 14.296323 
L 65.128567 15.158414 
L 68.429636 16.499955 
L 70.295457 17.413614 
L 71.802466 18.069526 
L 73.524763 18.568587 
L 75.56999 18.928235 
L 78.673712 19.229869 
L 87.105789 19.891719 
L 89.456006 20.424182 
L 91.537114 21.130551 
L 93.869391 22.15126 
L 96.686063 23.634333 
L 101.045626 26.214693 
L 104.472279 28.160139 
L 108.383327 29.983151 
L 110.033861 30.369913 
L 112.258494 30.638245 
L 114.841939 30.723385 
L 117.497146 30.582454 
L 129.355876 29.632597 
L 132.334013 29.757701 
L 135.150686 30.1071 
L 138.505576 30.776879 
L 144.946247 32.404775 
L 148.767593 33.493402 
L 148.767593 33.493402 
" clip-path="url(#p264b93efa0)" style="fill: none; stroke-dasharray: 1.48,0.64; stroke-dashoffset: 0; stroke: #ff0000; stroke-width: 0.4"/>
   </g>
   <g id="patch_3">
    <path d="M 43.86 90.201552 
L 43.86 10.8 
" style="fill: none; stroke: #000000; stroke-linejoin: miter; stroke-linecap: square"/>
   </g>
   <g id="patch_4">
    <path d="M 43.86 90.201552 
L 188.90964 90.201552 
" style="fill: none; stroke: #000000; stroke-linejoin: miter; stroke-linecap: square"/>
   </g>
   <g id="legend_1"/>
  </g>
  <g id="axes_2">
   <g id="patch_5">
    <path d="M 232.76964 90.201552 
L 377.81928 90.201552 
L 377.81928 10.8 
L 232.76964 10.8 
z
" style="fill: #ffffff"/>
   </g>
   <g id="matplotlib.axis_3">
    <g id="xtick_5">
     <g id="line2d_20">
      <path d="M 239.362805 90.201552 
L 239.362805 10.8 
" clip-path="url(#pd51e103614)" style="fill: none; stroke: #b0b0b0; stroke-width: 0.1; stroke-linecap: round"/>
     </g>
     <g id="line2d_21"/>
    </g>
    <g id="xtick_6">
     <g id="line2d_22">
      <path d="M 275.243983 90.201552 
L 275.243983 10.8 
" clip-path="url(#pd51e103614)" style="fill: none; stroke: #b0b0b0; stroke-width: 0.1; stroke-linecap: round"/>
     </g>
     <g id="line2d_23"/>
    </g>
    <g id="xtick_7">
     <g id="line2d_24">
      <path d="M 311.125161 90.201552 
L 311.125161 10.8 
" clip-path="url(#pd51e103614)" style="fill: none; stroke: #b0b0b0; stroke-width: 0.1; stroke-linecap: round"/>
     </g>
     <g id="line2d_25"/>
    </g>
    <g id="xtick_8">
     <g id="line2d_26">
      <path d="M 347.006339 90.201552 
L 347.006339 10.8 
" clip-path="url(#pd51e103614)" style="fill: none; stroke: #b0b0b0; stroke-width: 0.1; stroke-linecap: round"/>
     </g>
     <g id="line2d_27"/>
    </g>
   </g>
   <g id="matplotlib.axis_4">
    <g id="ytick_5">
     <g id="line2d_28">
      <path d="M 232.76964 84.962027 
L 377.81928 84.962027 
" clip-path="url(#pd51e103614)" style="fill: none; stroke: #b0b0b0; stroke-width: 0.1; stroke-linecap: round"/>
     </g>
     <g id="line2d_29"/>
     <g id="text_6">
      <!-- −10 -->
      <g style="fill: #262626" transform="translate(212.38589 88.001402) scale(0.08 -0.08)">
       <defs>
        <path id="DejaVuSerif-2212" d="M 678 2259 
L 4684 2259 
L 4684 1753 
L 678 1753 
L 678 2259 
z
" transform="scale(0.015625)"/>
        <path id="DejaVuSerif-31" d="M 909 0 
L 909 331 
L 1722 331 
L 1722 4213 
L 781 3603 
L 781 4013 
L 1919 4750 
L 2350 4750 
L 2350 331 
L 3163 331 
L 3163 0 
L 909 0 
z
" transform="scale(0.015625)"/>
       </defs>
       <use xlink:href="#DejaVuSerif-2212"/>
       <use xlink:href="#DejaVuSerif-31" x="83.789062"/>
       <use xlink:href="#DejaVuSerif-30" x="147.412109"/>
      </g>
     </g>
    </g>
    <g id="ytick_6">
     <g id="line2d_30">
      <path d="M 232.76964 51.10823 
L 377.81928 51.10823 
" clip-path="url(#pd51e103614)" style="fill: none; stroke: #b0b0b0; stroke-width: 0.1; stroke-linecap: round"/>
     </g>
     <g id="line2d_31"/>
     <g id="text_7">
      <!-- 0 -->
      <g style="fill: #262626" transform="translate(224.17964 54.147605) scale(0.08 -0.08)">
       <use xlink:href="#DejaVuSerif-30"/>
      </g>
     </g>
    </g>
    <g id="ytick_7">
     <g id="line2d_32">
      <path d="M 232.76964 17.254433 
L 377.81928 17.254433 
" clip-path="url(#pd51e103614)" style="fill: none; stroke: #b0b0b0; stroke-width: 0.1; stroke-linecap: round"/>
     </g>
     <g id="line2d_33"/>
     <g id="text_8">
      <!-- 10 -->
      <g style="fill: #262626" transform="translate(219.08964 20.293808) scale(0.08 -0.08)">
       <use xlink:href="#DejaVuSerif-31"/>
       <use xlink:href="#DejaVuSerif-30" x="63.623047"/>
      </g>
     </g>
    </g>
    <g id="text_9">
     <!-- $beta$ [deg] -->
     <g style="fill: #262626" transform="translate(206.77589 68.805776) rotate(-90) scale(0.07 -0.07)">
      <defs>
       <path id="DejaVuSans-Oblique-62" d="M 3169 2138 
Q 3169 2591 2961 2847 
Q 2753 3103 2388 3103 
Q 2122 3103 1889 2973 
Q 1656 2844 1484 2597 
Q 1303 2338 1198 1995 
Q 1094 1653 1094 1313 
Q 1094 881 1298 636 
Q 1503 391 1863 391 
Q 2134 391 2365 517 
Q 2597 644 2772 891 
Q 2950 1147 3059 1487 
Q 3169 1828 3169 2138 
z
M 1381 2969 
Q 1594 3256 1914 3420 
Q 2234 3584 2584 3584 
Q 3122 3584 3439 3221 
Q 3756 2859 3756 2241 
Q 3756 1734 3570 1259 
Q 3384 784 3041 416 
Q 2816 172 2522 40 
Q 2228 -91 1906 -91 
Q 1566 -91 1316 65 
Q 1066 222 909 531 
L 806 0 
L 231 0 
L 1178 4863 
L 1753 4863 
L 1381 2969 
z
" transform="scale(0.015625)"/>
       <path id="DejaVuSans-Oblique-65" d="M 3078 2063 
Q 3088 2113 3092 2166 
Q 3097 2219 3097 2272 
Q 3097 2653 2873 2875 
Q 2650 3097 2266 3097 
Q 1838 3097 1509 2826 
Q 1181 2556 1013 2059 
L 3078 2063 
z
M 3578 1613 
L 903 1613 
Q 884 1494 878 1425 
Q 872 1356 872 1306 
Q 872 872 1139 634 
Q 1406 397 1894 397 
Q 2269 397 2603 481 
Q 2938 566 3225 728 
L 3116 159 
Q 2806 34 2476 -28 
Q 2147 -91 1806 -91 
Q 1078 -91 686 257 
Q 294 606 294 1247 
Q 294 1794 489 2264 
Q 684 2734 1063 3103 
Q 1306 3334 1642 3459 
Q 1978 3584 2356 3584 
Q 2950 3584 3301 3228 
Q 3653 2872 3653 2272 
Q 3653 2128 3634 1964 
Q 3616 1800 3578 1613 
z
" transform="scale(0.015625)"/>
       <path id="DejaVuSans-Oblique-74" d="M 2706 3500 
L 2619 3053 
L 1472 3053 
L 1100 1153 
Q 1081 1047 1072 975 
Q 1063 903 1063 863 
Q 1063 663 1183 572 
Q 1303 481 1569 481 
L 2150 481 
L 2053 0 
L 1503 0 
Q 991 0 739 200 
Q 488 400 488 806 
Q 488 878 497 964 
Q 506 1050 525 1153 
L 897 3053 
L 409 3053 
L 500 3500 
L 978 3500 
L 1172 4494 
L 1747 4494 
L 1556 3500 
L 2706 3500 
z
" transform="scale(0.015625)"/>
       <path id="DejaVuSans-Oblique-61" d="M 3438 1997 
L 3047 0 
L 2472 0 
L 2578 531 
Q 2325 219 2001 64 
Q 1678 -91 1281 -91 
Q 834 -91 548 182 
Q 263 456 263 884 
Q 263 1497 752 1853 
Q 1241 2209 2100 2209 
L 2900 2209 
L 2931 2363 
Q 2938 2388 2941 2417 
Q 2944 2447 2944 2509 
Q 2944 2788 2717 2942 
Q 2491 3097 2081 3097 
Q 1800 3097 1504 3025 
Q 1209 2953 897 2809 
L 997 3341 
Q 1322 3463 1633 3523 
Q 1944 3584 2234 3584 
Q 2853 3584 3176 3315 
Q 3500 3047 3500 2534 
Q 3500 2431 3484 2292 
Q 3469 2153 3438 1997 
z
M 2816 1759 
L 2241 1759 
Q 1534 1759 1195 1570 
Q 856 1381 856 984 
Q 856 709 1029 553 
Q 1203 397 1509 397 
Q 1978 397 2328 733 
Q 2678 1069 2791 1631 
L 2816 1759 
z
" transform="scale(0.015625)"/>
       <path id="DejaVuSerif-20" transform="scale(0.015625)"/>
       <path id="DejaVuSerif-5b" d="M 550 4863 
L 2003 4863 
L 2003 4531 
L 1147 4531 
L 1147 -513 
L 2003 -513 
L 2003 -844 
L 550 -844 
L 550 4863 
z
" transform="scale(0.015625)"/>
       <path id="DejaVuSerif-64" d="M 3359 331 
L 3909 331 
L 3909 0 
L 2784 0 
L 2784 519 
Q 2616 206 2355 57 
Q 2094 -91 1709 -91 
Q 1097 -91 708 395 
Q 319 881 319 1663 
Q 319 2444 706 2928 
Q 1094 3413 1709 3413 
Q 2094 3413 2355 3264 
Q 2616 3116 2784 2803 
L 2784 4531 
L 2241 4531 
L 2241 4863 
L 3359 4863 
L 3359 331 
z
M 2784 1497 
L 2784 1825 
Q 2784 2422 2554 2737 
Q 2325 3053 1888 3053 
Q 1444 3053 1217 2703 
Q 991 2353 991 1663 
Q 991 975 1217 622 
Q 1444 269 1888 269 
Q 2325 269 2554 583 
Q 2784 897 2784 1497 
z
" transform="scale(0.015625)"/>
       <path id="DejaVuSerif-65" d="M 3469 1600 
L 991 1600 
L 991 1575 
Q 991 903 1244 561 
Q 1497 219 1991 219 
Q 2369 219 2611 417 
Q 2853 616 2950 1006 
L 3413 1006 
Q 3275 459 2904 184 
Q 2534 -91 1931 -91 
Q 1203 -91 761 389 
Q 319 869 319 1663 
Q 319 2450 753 2931 
Q 1188 3413 1894 3413 
Q 2647 3413 3050 2948 
Q 3453 2484 3469 1600 
z
M 2791 1931 
Q 2772 2513 2545 2808 
Q 2319 3103 1894 3103 
Q 1497 3103 1269 2806 
Q 1041 2509 991 1931 
L 2791 1931 
z
" transform="scale(0.015625)"/>
       <path id="DejaVuSerif-67" d="M 3359 2988 
L 3359 72 
Q 3359 -644 2965 -1033 
Q 2572 -1422 1844 -1422 
Q 1516 -1422 1216 -1362 
Q 916 -1303 641 -1184 
L 641 -488 
L 941 -488 
Q 997 -813 1206 -963 
Q 1416 -1113 1806 -1113 
Q 2313 -1113 2548 -827 
Q 2784 -541 2784 72 
L 2784 519 
Q 2616 206 2355 57 
Q 2094 -91 1709 -91 
Q 1097 -91 708 395 
Q 319 881 319 1663 
Q 319 2444 706 2928 
Q 1094 3413 1709 3413 
Q 2094 3413 2355 3264 
Q 2616 3116 2784 2803 
L 2784 3322 
L 3909 3322 
L 3909 2988 
L 3359 2988 
z
M 2784 1825 
Q 2784 2422 2554 2737 
Q 2325 3053 1888 3053 
Q 1444 3053 1217 2703 
Q 991 2353 991 1663 
Q 991 975 1217 622 
Q 1444 269 1888 269 
Q 2325 269 2554 583 
Q 2784 897 2784 1497 
L 2784 1825 
z
" transform="scale(0.015625)"/>
       <path id="DejaVuSerif-5d" d="M 1947 4863 
L 1947 -844 
L 494 -844 
L 494 -513 
L 1350 -513 
L 1350 4531 
L 494 4531 
L 494 4863 
L 1947 4863 
z
" transform="scale(0.015625)"/>
      </defs>
      <use xlink:href="#DejaVuSans-Oblique-62" transform="translate(0 0.015625)"/>
      <use xlink:href="#DejaVuSans-Oblique-65" transform="translate(63.476562 0.015625)"/>
      <use xlink:href="#DejaVuSans-Oblique-74" transform="translate(125 0.015625)"/>
      <use xlink:href="#DejaVuSans-Oblique-61" transform="translate(164.208984 0.015625)"/>
      <use xlink:href="#DejaVuSerif-20" transform="translate(225.488281 0.015625)"/>
      <use xlink:href="#DejaVuSerif-5b" transform="translate(257.275391 0.015625)"/>
      <use xlink:href="#DejaVuSerif-64" transform="translate(296.289062 0.015625)"/>
      <use xlink:href="#DejaVuSerif-65" transform="translate(360.302734 0.015625)"/>
      <use xlink:href="#DejaVuSerif-67" transform="translate(419.482422 0.015625)"/>
      <use xlink:href="#DejaVuSerif-5d" transform="translate(483.496094 0.015625)"/>
     </g>
    </g>
   </g>
   <g id="line2d_34">
    <path d="M 239.362805 51.379869 
L 239.93689 51.601459 
L 240.5648 52.0934 
L 241.336249 53.006835 
L 243.489119 55.587375 
L 245.372888 57.994355 
L 246.68256 60.07508 
L 248.404839 63.326961 
L 253.230859 72.664993 
L 254.63027 74.818783 
L 255.329913 75.453277 
L 255.993737 75.773691 
L 256.603695 75.838827 
L 257.231605 75.676147 
L 257.805717 75.289902 
L 258.648921 74.707114 
L 261.035012 73.181107 
L 261.985872 72.17525 
L 263.04436 70.697736 
L 264.407882 68.403121 
L 272.301723 54.490225 
L 283.514654 32.091618 
L 286.833598 26.576671 
L 288.807072 23.85411 
L 290.995801 21.147728 
L 292.323426 19.748933 
L 295.193915 17.228547 
L 297.292973 15.757047 
L 298.746141 14.995192 
L 300.360813 14.420747 
L 300.988711 14.467814 
L 301.526923 14.741706 
L 302.567477 15.580747 
L 303.231302 16.401053 
L 305.115062 19.037417 
L 306.837362 21.307442 
L 307.931727 23.182612 
L 309.564312 26.323769 
L 311.699242 31.032105 
L 313.493315 34.799649 
L 315.55648 38.476652 
L 318.498747 43.914628 
L 324.365307 55.042261 
L 331.487706 68.072171 
L 333.891749 71.902944 
L 336.188155 75.175781 
L 340.852697 80.794006 
L 342.98764 82.780757 
L 345.553134 84.732215 
L 347.383072 85.809932 
L 349.159219 86.562734 
L 349.787159 86.558471 
L 350.379147 86.308515 
L 351.114723 85.741839 
L 351.993803 84.731128 
L 354.074922 82.126854 
L 355.474281 80.576336 
L 356.819861 78.731198 
L 358.129512 76.494035 
L 360.372083 72.128209 
L 363.278432 66.482459 
L 367.063932 59.803246 
L 368.73238 56.493747 
L 370.042037 53.409807 
L 371.226115 50.140144 
L 371.226115 50.140144 
" clip-path="url(#pd51e103614)" style="fill: none; stroke: #000000; stroke-width: 0.4; stroke-linecap: round"/>
   </g>
   <g id="line2d_35">
    <path d="M 239.362805 51.10823 
L 239.918964 51.194472 
L 240.493063 51.511644 
L 241.156864 52.154002 
L 242.466527 53.904008 
L 244.045299 56.371521 
L 246.036705 59.877852 
L 249.032783 65.683723 
L 254.576425 76.569507 
L 255.186405 77.40594 
L 255.670801 77.730805 
L 256.119316 77.782794 
L 256.603711 77.606457 
L 257.195751 77.128855 
L 257.913374 76.243048 
L 259.276859 74.115583 
L 261.519433 70.32688 
L 263.492898 66.479212 
L 265.896937 61.227152 
L 268.480381 55.018698 
L 271.709687 46.613708 
L 276.123072 35.173497 
L 278.18624 30.499559 
L 279.782952 27.401212 
L 281.23614 25.024467 
L 282.581684 23.211593 
L 284.016931 21.622026 
L 285.434238 20.362668 
L 286.905366 19.349292 
L 288.484138 18.527292 
L 290.098791 17.907551 
L 291.58786 17.528785 
L 292.000493 17.679962 
L 292.50283 18.126472 
L 293.202513 19.083992 
L 294.278948 20.972856 
L 296.844452 25.580654 
L 303.76952 37.032423 
L 305.707103 40.939894 
L 307.931736 45.96548 
L 310.766349 52.965565 
L 318.929317 73.619249 
L 320.651614 77.104094 
L 322.086861 79.536958 
L 323.486227 81.484824 
L 324.777949 82.911226 
L 326.087612 84.016261 
L 327.379335 84.812588 
L 328.796641 85.396644 
L 330.339532 85.784638 
L 331.667136 85.936383 
L 331.667136 85.936383 
" clip-path="url(#pd51e103614)" style="fill: none; stroke-dasharray: 1.48,0.64; stroke-dashoffset: 0; stroke: #0000ff; stroke-width: 0.4"/>
   </g>
   <g id="line2d_36">
    <path d="M 239.362805 51.10823 
L 239.936904 51.170675 
L 240.493063 51.461349 
L 241.067161 52.030023 
L 242.000072 53.370094 
L 243.901774 56.476979 
L 247.13108 62.243066 
L 251.257416 69.468871 
L 253.446168 72.883549 
L 255.258167 75.318105 
L 255.886088 75.878631 
L 256.460187 76.111788 
L 256.998404 76.092783 
L 257.536622 75.848498 
L 258.110721 75.339063 
L 258.756582 74.460531 
L 261.14268 70.28623 
L 263.457016 65.820096 
L 266.363392 59.594108 
L 269.03654 53.38461 
L 272.570836 44.477752 
L 276.123072 35.682122 
L 278.204181 31.135203 
L 279.836774 28.06959 
L 281.397605 25.571147 
L 282.850793 23.63676 
L 284.321921 22.024202 
L 285.79305 20.710658 
L 287.33594 19.625835 
L 289.022356 18.715839 
L 290.69083 18.018146 
L 292.018434 17.640438 
L 292.520771 17.767871 
L 293.094869 18.156673 
L 293.776612 18.919256 
L 294.548057 20.135535 
L 295.427146 21.941118 
L 297.185324 25.583356 
L 307.4294 45.566992 
L 316.758506 64.662183 
L 319.144605 68.876401 
L 321.243653 72.136914 
L 323.163296 74.710419 
L 324.957355 76.755533 
L 326.733474 78.463721 
L 328.617236 79.967613 
L 330.554819 81.234986 
L 332.528284 82.271053 
L 334.645273 83.135733 
L 336.887847 83.79827 
L 337.677233 83.979844 
L 337.677233 83.979844 
" clip-path="url(#pd51e103614)" style="fill: none; stroke-dasharray: 1.48,0.64; stroke-dashoffset: 0; stroke: #ff0000; stroke-width: 0.4"/>
   </g>
   <g id="patch_6">
    <path d="M 232.76964 90.201552 
L 232.76964 10.8 
" style="fill: none; stroke: #000000; stroke-linejoin: miter; stroke-linecap: square"/>
   </g>
   <g id="patch_7">
    <path d="M 232.76964 90.201552 
L 377.81928 90.201552 
" style="fill: none; stroke: #000000; stroke-linejoin: miter; stroke-linecap: square"/>
   </g>
  </g>
  <g id="axes_3">
   <g id="patch_8">
    <path d="M 43.86 185.443104 
L 188.90964 185.443104 
L 188.90964 106.041552 
L 43.86 106.041552 
z
" style="fill: #ffffff"/>
   </g>
   <g id="matplotlib.axis_5">
    <g id="xtick_9">
     <g id="line2d_37">
      <path d="M 50.453165 185.443104 
L 50.453165 106.041552 
" clip-path="url(#p4827a6bfbd)" style="fill: none; stroke: #b0b0b0; stroke-width: 0.1; stroke-linecap: round"/>
     </g>
     <g id="line2d_38"/>
     <g id="text_10">
      <!-- 0 -->
      <g style="fill: #262626" transform="translate(47.908165 195.021854) scale(0.08 -0.08)">
       <use xlink:href="#DejaVuSerif-30"/>
      </g>
     </g>
    </g>
    <g id="xtick_10">
     <g id="line2d_39">
      <path d="M 86.334343 185.443104 
L 86.334343 106.041552 
" clip-path="url(#p4827a6bfbd)" style="fill: none; stroke: #b0b0b0; stroke-width: 0.1; stroke-linecap: round"/>
     </g>
     <g id="line2d_40"/>
     <g id="text_11">
      <!-- 20 -->
      <g style="fill: #262626" transform="translate(81.244343 195.021854) scale(0.08 -0.08)">
       <use xlink:href="#DejaVuSerif-32"/>
       <use xlink:href="#DejaVuSerif-30" x="63.623047"/>
      </g>
     </g>
    </g>
    <g id="xtick_11">
     <g id="line2d_41">
      <path d="M 122.215521 185.443104 
L 122.215521 106.041552 
" clip-path="url(#p4827a6bfbd)" style="fill: none; stroke: #b0b0b0; stroke-width: 0.1; stroke-linecap: round"/>
     </g>
     <g id="line2d_42"/>
     <g id="text_12">
      <!-- 40 -->
      <g style="fill: #262626" transform="translate(117.125521 195.021854) scale(0.08 -0.08)">
       <defs>
        <path id="DejaVuSerif-34" d="M 2234 1581 
L 2234 4063 
L 641 1581 
L 2234 1581 
z
M 3609 0 
L 1484 0 
L 1484 331 
L 2234 331 
L 2234 1247 
L 197 1247 
L 197 1588 
L 2241 4750 
L 2859 4750 
L 2859 1581 
L 3750 1581 
L 3750 1247 
L 2859 1247 
L 2859 331 
L 3609 331 
L 3609 0 
z
" transform="scale(0.015625)"/>
       </defs>
       <use xlink:href="#DejaVuSerif-34"/>
       <use xlink:href="#DejaVuSerif-30" x="63.623047"/>
      </g>
     </g>
    </g>
    <g id="xtick_12">
     <g id="line2d_43">
      <path d="M 158.096699 185.443104 
L 158.096699 106.041552 
" clip-path="url(#p4827a6bfbd)" style="fill: none; stroke: #b0b0b0; stroke-width: 0.1; stroke-linecap: round"/>
     </g>
     <g id="line2d_44"/>
     <g id="text_13">
      <!-- 60 -->
      <g style="fill: #262626" transform="translate(153.006699 195.021854) scale(0.08 -0.08)">
       <defs>
        <path id="DejaVuSerif-36" d="M 2094 219 
Q 2534 219 2771 542 
Q 3009 866 3009 1472 
Q 3009 2078 2771 2401 
Q 2534 2725 2094 2725 
Q 1647 2725 1412 2412 
Q 1178 2100 1178 1509 
Q 1178 888 1415 553 
Q 1653 219 2094 219 
z
M 1075 2569 
Q 1288 2803 1556 2918 
Q 1825 3034 2163 3034 
Q 2859 3034 3264 2615 
Q 3669 2197 3669 1472 
Q 3669 763 3233 336 
Q 2797 -91 2069 -91 
Q 1278 -91 853 498 
Q 428 1088 428 2181 
Q 428 3406 931 4078 
Q 1434 4750 2350 4750 
Q 2597 4750 2869 4703 
Q 3141 4656 3425 4563 
L 3425 3794 
L 3072 3794 
Q 3034 4109 2831 4275 
Q 2628 4441 2284 4441 
Q 1678 4441 1381 3981 
Q 1084 3522 1075 2569 
z
" transform="scale(0.015625)"/>
       </defs>
       <use xlink:href="#DejaVuSerif-36"/>
       <use xlink:href="#DejaVuSerif-30" x="63.623047"/>
      </g>
     </g>
    </g>
    <g id="text_14">
     <!-- Time [s] -->
     <g style="fill: #262626" transform="translate(101.900836 206.00451) scale(0.07 -0.07)">
      <defs>
       <path id="DejaVuSerif-54" d="M 1222 0 
L 1222 331 
L 1819 331 
L 1819 4294 
L 447 4294 
L 447 3566 
L 63 3566 
L 63 4666 
L 4206 4666 
L 4206 3566 
L 3822 3566 
L 3822 4294 
L 2450 4294 
L 2450 331 
L 3047 331 
L 3047 0 
L 1222 0 
z
" transform="scale(0.015625)"/>
       <path id="DejaVuSerif-69" d="M 622 4353 
Q 622 4497 726 4603 
Q 831 4709 978 4709 
Q 1122 4709 1226 4603 
Q 1331 4497 1331 4353 
Q 1331 4206 1228 4103 
Q 1125 4000 978 4000 
Q 831 4000 726 4103 
Q 622 4206 622 4353 
z
M 1356 331 
L 1900 331 
L 1900 0 
L 231 0 
L 231 331 
L 781 331 
L 781 2988 
L 231 2988 
L 231 3322 
L 1356 3322 
L 1356 331 
z
" transform="scale(0.015625)"/>
       <path id="DejaVuSerif-6d" d="M 3316 2675 
Q 3481 3041 3739 3227 
Q 3997 3413 4341 3413 
Q 4863 3413 5119 3089 
Q 5375 2766 5375 2113 
L 5375 331 
L 5894 331 
L 5894 0 
L 4300 0 
L 4300 331 
L 4800 331 
L 4800 2047 
Q 4800 2556 4650 2772 
Q 4500 2988 4153 2988 
Q 3769 2988 3567 2697 
Q 3366 2406 3366 1850 
L 3366 331 
L 3866 331 
L 3866 0 
L 2291 0 
L 2291 331 
L 2791 331 
L 2791 2069 
Q 2791 2566 2641 2777 
Q 2491 2988 2144 2988 
Q 1759 2988 1557 2697 
Q 1356 2406 1356 1850 
L 1356 331 
L 1856 331 
L 1856 0 
L 263 0 
L 263 331 
L 781 331 
L 781 2994 
L 231 2994 
L 231 3322 
L 1356 3322 
L 1356 2731 
Q 1516 3063 1762 3238 
Q 2009 3413 2322 3413 
Q 2709 3413 2968 3220 
Q 3228 3028 3316 2675 
z
" transform="scale(0.015625)"/>
       <path id="DejaVuSerif-73" d="M 359 184 
L 359 959 
L 691 959 
Q 703 588 923 403 
Q 1144 219 1575 219 
Q 1963 219 2166 364 
Q 2369 509 2369 788 
Q 2369 1006 2220 1140 
Q 2072 1275 1594 1428 
L 1178 1569 
Q 750 1706 558 1912 
Q 366 2119 366 2438 
Q 366 2894 700 3153 
Q 1034 3413 1625 3413 
Q 1888 3413 2178 3344 
Q 2469 3275 2778 3144 
L 2778 2419 
L 2447 2419 
Q 2434 2741 2221 2922 
Q 2009 3103 1644 3103 
Q 1281 3103 1095 2975 
Q 909 2847 909 2591 
Q 909 2381 1050 2254 
Q 1191 2128 1613 1997 
L 2069 1856 
Q 2541 1709 2748 1489 
Q 2956 1269 2956 922 
Q 2956 450 2595 179 
Q 2234 -91 1600 -91 
Q 1278 -91 972 -22 
Q 666 47 359 184 
z
" transform="scale(0.015625)"/>
      </defs>
      <use xlink:href="#DejaVuSerif-54"/>
      <use xlink:href="#DejaVuSerif-69" x="66.699219"/>
      <use xlink:href="#DejaVuSerif-6d" x="98.681641"/>
      <use xlink:href="#DejaVuSerif-65" x="193.505859"/>
      <use xlink:href="#DejaVuSerif-20" x="252.685547"/>
      <use xlink:href="#DejaVuSerif-5b" x="284.472656"/>
      <use xlink:href="#DejaVuSerif-73" x="323.486328"/>
      <use xlink:href="#DejaVuSerif-5d" x="374.804688"/>
     </g>
    </g>
   </g>
   <g id="matplotlib.axis_6">
    <g id="ytick_8">
     <g id="line2d_45">
      <path d="M 43.86 181.672401 
L 188.90964 181.672401 
" clip-path="url(#p4827a6bfbd)" style="fill: none; stroke: #b0b0b0; stroke-width: 0.1; stroke-linecap: round"/>
     </g>
     <g id="line2d_46"/>
     <g id="text_15">
      <!-- −20 -->
      <g style="fill: #262626" transform="translate(23.47625 184.711776) scale(0.08 -0.08)">
       <use xlink:href="#DejaVuSerif-2212"/>
       <use xlink:href="#DejaVuSerif-32" x="83.789062"/>
       <use xlink:href="#DejaVuSerif-30" x="147.412109"/>
      </g>
     </g>
    </g>
    <g id="ytick_9">
     <g id="line2d_47">
      <path d="M 43.86 145.749708 
L 188.90964 145.749708 
" clip-path="url(#p4827a6bfbd)" style="fill: none; stroke: #b0b0b0; stroke-width: 0.1; stroke-linecap: round"/>
     </g>
     <g id="line2d_48"/>
     <g id="text_16">
      <!-- 0 -->
      <g style="fill: #262626" transform="translate(35.27 148.789083) scale(0.08 -0.08)">
       <use xlink:href="#DejaVuSerif-30"/>
      </g>
     </g>
    </g>
    <g id="ytick_10">
     <g id="line2d_49">
      <path d="M 43.86 109.827015 
L 188.90964 109.827015 
" clip-path="url(#p4827a6bfbd)" style="fill: none; stroke: #b0b0b0; stroke-width: 0.1; stroke-linecap: round"/>
     </g>
     <g id="line2d_50"/>
     <g id="text_17">
      <!-- 20 -->
      <g style="fill: #262626" transform="translate(30.18 112.86639) scale(0.08 -0.08)">
       <use xlink:href="#DejaVuSerif-32"/>
       <use xlink:href="#DejaVuSerif-30" x="63.623047"/>
      </g>
     </g>
    </g>
    <g id="text_18">
     <!-- $delta$ [deg] -->
     <g style="fill: #262626" transform="translate(17.86625 165.027328) rotate(-90) scale(0.07 -0.07)">
      <defs>
       <path id="DejaVuSans-Oblique-64" d="M 2675 525 
Q 2444 222 2128 65 
Q 1813 -91 1428 -91 
Q 903 -91 598 267 
Q 294 625 294 1247 
Q 294 1766 478 2236 
Q 663 2706 1013 3078 
Q 1244 3325 1534 3454 
Q 1825 3584 2144 3584 
Q 2481 3584 2739 3421 
Q 2997 3259 3138 2956 
L 3513 4863 
L 4091 4863 
L 3144 0 
L 2566 0 
L 2675 525 
z
M 891 1350 
Q 891 897 1095 644 
Q 1300 391 1663 391 
Q 1931 391 2161 520 
Q 2391 650 2566 903 
Q 2750 1166 2856 1509 
Q 2963 1853 2963 2188 
Q 2963 2622 2758 2865 
Q 2553 3109 2194 3109 
Q 1922 3109 1687 2981 
Q 1453 2853 1288 2613 
Q 1106 2353 998 2009 
Q 891 1666 891 1350 
z
" transform="scale(0.015625)"/>
       <path id="DejaVuSans-Oblique-6c" d="M 1172 4863 
L 1747 4863 
L 800 0 
L 225 0 
L 1172 4863 
z
" transform="scale(0.015625)"/>
      </defs>
      <use xlink:href="#DejaVuSans-Oblique-64" transform="translate(0 0.015625)"/>
      <use xlink:href="#DejaVuSans-Oblique-65" transform="translate(63.476562 0.015625)"/>
      <use xlink:href="#DejaVuSans-Oblique-6c" transform="translate(125 0.015625)"/>
      <use xlink:href="#DejaVuSans-Oblique-74" transform="translate(152.783203 0.015625)"/>
      <use xlink:href="#DejaVuSans-Oblique-61" transform="translate(191.992188 0.015625)"/>
      <use xlink:href="#DejaVuSerif-20" transform="translate(253.271484 0.015625)"/>
      <use xlink:href="#DejaVuSerif-5b" transform="translate(285.058594 0.015625)"/>
      <use xlink:href="#DejaVuSerif-64" transform="translate(324.072266 0.015625)"/>
      <use xlink:href="#DejaVuSerif-65" transform="translate(388.085938 0.015625)"/>
      <use xlink:href="#DejaVuSerif-67" transform="translate(447.265625 0.015625)"/>
      <use xlink:href="#DejaVuSerif-5d" transform="translate(511.279297 0.015625)"/>
     </g>
    </g>
   </g>
   <g id="line2d_51">
    <path d="M 50.453165 143.88579 
L 50.973426 133.842986 
L 52.031948 113.621729 
L 52.247224 109.650713 
L 52.336904 109.794795 
L 65.05678 109.827125 
L 65.16443 111.914544 
L 65.75647 123.223857 
L 68.824305 181.817777 
L 68.896077 181.733437 
L 69.111356 181.695484 
L 69.452231 181.672993 
L 70.833698 181.673696 
L 71.425716 181.670182 
L 72.376545 181.672993 
L 73.775924 181.673696 
L 110.805294 181.670885 
L 110.877071 180.345339 
L 112.724926 144.910523 
L 114.572818 109.666879 
L 114.680454 109.787766 
L 115.972186 109.827828 
L 118.860662 109.825719 
L 119.811455 109.826422 
L 120.74437 109.825719 
L 121.462036 109.828531 
L 124.278673 109.826422 
L 125.01423 109.829936 
L 126.467428 109.825719 
L 127.902684 109.827828 
L 130.719344 109.827125 
L 132.136649 109.827125 
L 134.935374 109.826422 
L 135.904185 109.828531 
L 136.621798 109.826422 
L 137.572647 109.827125 
L 159.65752 109.826422 
L 159.74723 111.542042 
L 161.415683 143.513288 
L 163.425042 181.833943 
L 163.622377 181.698998 
L 164.322078 181.670182 
L 167.192549 181.674399 
L 167.784597 181.670885 
L 169.237785 181.674399 
L 169.973385 181.670885 
L 170.690971 181.672291 
L 172.12622 181.675102 
L 172.861793 181.671588 
L 175.624628 181.670885 
L 176.216674 181.673696 
L 179.033347 181.672993 
L 180.414767 181.670885 
L 182.316475 181.671588 
L 182.316475 181.671588 
" clip-path="url(#p4827a6bfbd)" style="fill: none; stroke: #000000; stroke-width: 0.4; stroke-linecap: round"/>
   </g>
   <g id="line2d_52">
    <path d="M 50.453165 145.749708 
L 52.42663 109.827015 
L 65.720607 109.827015 
L 69.577833 181.672401 
L 102.427052 181.672401 
L 106.284278 109.827015 
L 142.757496 109.827015 
L 142.757496 109.827015 
" clip-path="url(#p4827a6bfbd)" style="fill: none; stroke-dasharray: 1.48,0.64; stroke-dashoffset: 0; stroke: #0000ff; stroke-width: 0.4"/>
   </g>
   <g id="line2d_53">
    <path d="M 50.453165 145.749708 
L 52.42663 109.827015 
L 66.240884 109.827015 
L 70.09811 181.672401 
L 102.749982 181.672401 
L 106.607209 109.827015 
L 148.767593 109.827015 
L 148.767593 109.827015 
" clip-path="url(#p4827a6bfbd)" style="fill: none; stroke-dasharray: 1.48,0.64; stroke-dashoffset: 0; stroke: #ff0000; stroke-width: 0.4"/>
   </g>
   <g id="patch_9">
    <path d="M 43.86 185.443104 
L 43.86 106.041552 
" style="fill: none; stroke: #000000; stroke-linejoin: miter; stroke-linecap: square"/>
   </g>
   <g id="patch_10">
    <path d="M 43.86 185.443104 
L 188.90964 185.443104 
" style="fill: none; stroke: #000000; stroke-linejoin: miter; stroke-linecap: square"/>
   </g>
  </g>
  <g id="axes_4">
   <g id="patch_11">
    <path d="M 232.76964 185.443104 
L 377.81928 185.443104 
L 377.81928 106.041552 
L 232.76964 106.041552 
z
" style="fill: #ffffff"/>
   </g>
   <g id="matplotlib.axis_7">
    <g id="xtick_13">
     <g id="line2d_54">
      <path d="M 239.362805 185.443104 
L 239.362805 106.041552 
" clip-path="url(#p730735d382)" style="fill: none; stroke: #b0b0b0; stroke-width: 0.1; stroke-linecap: round"/>
     </g>
     <g id="line2d_55"/>
     <g id="text_19">
      <!-- 0 -->
      <g style="fill: #262626" transform="translate(236.817805 195.021854) scale(0.08 -0.08)">
       <use xlink:href="#DejaVuSerif-30"/>
      </g>
     </g>
    </g>
    <g id="xtick_14">
     <g id="line2d_56">
      <path d="M 275.243983 185.443104 
L 275.243983 106.041552 
" clip-path="url(#p730735d382)" style="fill: none; stroke: #b0b0b0; stroke-width: 0.1; stroke-linecap: round"/>
     </g>
     <g id="line2d_57"/>
     <g id="text_20">
      <!-- 20 -->
      <g style="fill: #262626" transform="translate(270.153983 195.021854) scale(0.08 -0.08)">
       <use xlink:href="#DejaVuSerif-32"/>
       <use xlink:href="#DejaVuSerif-30" x="63.623047"/>
      </g>
     </g>
    </g>
    <g id="xtick_15">
     <g id="line2d_58">
      <path d="M 311.125161 185.443104 
L 311.125161 106.041552 
" clip-path="url(#p730735d382)" style="fill: none; stroke: #b0b0b0; stroke-width: 0.1; stroke-linecap: round"/>
     </g>
     <g id="line2d_59"/>
     <g id="text_21">
      <!-- 40 -->
      <g style="fill: #262626" transform="translate(306.035161 195.021854) scale(0.08 -0.08)">
       <use xlink:href="#DejaVuSerif-34"/>
       <use xlink:href="#DejaVuSerif-30" x="63.623047"/>
      </g>
     </g>
    </g>
    <g id="xtick_16">
     <g id="line2d_60">
      <path d="M 347.006339 185.443104 
L 347.006339 106.041552 
" clip-path="url(#p730735d382)" style="fill: none; stroke: #b0b0b0; stroke-width: 0.1; stroke-linecap: round"/>
     </g>
     <g id="line2d_61"/>
     <g id="text_22">
      <!-- 60 -->
      <g style="fill: #262626" transform="translate(341.916339 195.021854) scale(0.08 -0.08)">
       <use xlink:href="#DejaVuSerif-36"/>
       <use xlink:href="#DejaVuSerif-30" x="63.623047"/>
      </g>
     </g>
    </g>
    <g id="text_23">
     <!-- Time [s] -->
     <g style="fill: #262626" transform="translate(290.810476 206.00451) scale(0.07 -0.07)">
      <use xlink:href="#DejaVuSerif-54"/>
      <use xlink:href="#DejaVuSerif-69" x="66.699219"/>
      <use xlink:href="#DejaVuSerif-6d" x="98.681641"/>
      <use xlink:href="#DejaVuSerif-65" x="193.505859"/>
      <use xlink:href="#DejaVuSerif-20" x="252.685547"/>
      <use xlink:href="#DejaVuSerif-5b" x="284.472656"/>
      <use xlink:href="#DejaVuSerif-73" x="323.486328"/>
      <use xlink:href="#DejaVuSerif-5d" x="374.804688"/>
     </g>
    </g>
   </g>
   <g id="matplotlib.axis_8">
    <g id="ytick_11">
     <g id="line2d_62">
      <path d="M 232.76964 167.525235 
L 377.81928 167.525235 
" clip-path="url(#p730735d382)" style="fill: none; stroke: #b0b0b0; stroke-width: 0.1; stroke-linecap: round"/>
     </g>
     <g id="line2d_63"/>
     <g id="text_24">
      <!-- −20 -->
      <g style="fill: #262626" transform="translate(212.38589 170.56461) scale(0.08 -0.08)">
       <use xlink:href="#DejaVuSerif-2212"/>
       <use xlink:href="#DejaVuSerif-32" x="83.789062"/>
       <use xlink:href="#DejaVuSerif-30" x="147.412109"/>
      </g>
     </g>
    </g>
    <g id="ytick_12">
     <g id="line2d_64">
      <path d="M 232.76964 147.577525 
L 377.81928 147.577525 
" clip-path="url(#p730735d382)" style="fill: none; stroke: #b0b0b0; stroke-width: 0.1; stroke-linecap: round"/>
     </g>
     <g id="line2d_65"/>
     <g id="text_25">
      <!-- 0 -->
      <g style="fill: #262626" transform="translate(224.17964 150.6169) scale(0.08 -0.08)">
       <use xlink:href="#DejaVuSerif-30"/>
      </g>
     </g>
    </g>
    <g id="ytick_13">
     <g id="line2d_66">
      <path d="M 232.76964 127.629815 
L 377.81928 127.629815 
" clip-path="url(#p730735d382)" style="fill: none; stroke: #b0b0b0; stroke-width: 0.1; stroke-linecap: round"/>
     </g>
     <g id="line2d_67"/>
     <g id="text_26">
      <!-- 20 -->
      <g style="fill: #262626" transform="translate(219.08964 130.66919) scale(0.08 -0.08)">
       <use xlink:href="#DejaVuSerif-32"/>
       <use xlink:href="#DejaVuSerif-30" x="63.623047"/>
      </g>
     </g>
    </g>
    <g id="ytick_14">
     <g id="line2d_68">
      <path d="M 232.76964 107.682106 
L 377.81928 107.682106 
" clip-path="url(#p730735d382)" style="fill: none; stroke: #b0b0b0; stroke-width: 0.1; stroke-linecap: round"/>
     </g>
     <g id="line2d_69"/>
     <g id="text_27">
      <!-- 40 -->
      <g style="fill: #262626" transform="translate(219.08964 110.721481) scale(0.08 -0.08)">
       <use xlink:href="#DejaVuSerif-34"/>
       <use xlink:href="#DejaVuSerif-30" x="63.623047"/>
      </g>
     </g>
    </g>
    <g id="text_28">
     <!-- $psi$ [deg] -->
     <g style="fill: #262626" transform="translate(206.77589 161.177328) rotate(-90) scale(0.07 -0.07)">
      <defs>
       <path id="DejaVuSans-Oblique-70" d="M 3175 2156 
Q 3175 2616 2975 2859 
Q 2775 3103 2400 3103 
Q 2144 3103 1911 2972 
Q 1678 2841 1497 2591 
Q 1319 2344 1212 1994 
Q 1106 1644 1106 1300 
Q 1106 863 1306 627 
Q 1506 391 1875 391 
Q 2147 391 2380 519 
Q 2613 647 2778 891 
Q 2956 1147 3065 1494 
Q 3175 1841 3175 2156 
z
M 1394 2969 
Q 1625 3272 1939 3428 
Q 2253 3584 2638 3584 
Q 3175 3584 3472 3232 
Q 3769 2881 3769 2247 
Q 3769 1728 3584 1258 
Q 3400 788 3053 416 
Q 2822 169 2531 39 
Q 2241 -91 1919 -91 
Q 1547 -91 1294 64 
Q 1041 219 916 525 
L 556 -1331 
L -19 -1331 
L 922 3500 
L 1497 3500 
L 1394 2969 
z
" transform="scale(0.015625)"/>
       <path id="DejaVuSans-Oblique-73" d="M 3200 3397 
L 3091 2853 
Q 2863 2978 2609 3040 
Q 2356 3103 2088 3103 
Q 1634 3103 1373 2948 
Q 1113 2794 1113 2528 
Q 1113 2219 1719 2053 
Q 1766 2041 1788 2034 
L 1972 1978 
Q 2547 1819 2739 1644 
Q 2931 1469 2931 1166 
Q 2931 609 2489 259 
Q 2047 -91 1331 -91 
Q 1053 -91 747 -37 
Q 441 16 72 128 
L 184 722 
Q 500 559 806 475 
Q 1113 391 1394 391 
Q 1816 391 2080 572 
Q 2344 753 2344 1031 
Q 2344 1331 1650 1516 
L 1591 1531 
L 1394 1581 
Q 956 1697 753 1886 
Q 550 2075 550 2369 
Q 550 2928 970 3256 
Q 1391 3584 2113 3584 
Q 2397 3584 2667 3537 
Q 2938 3491 3200 3397 
z
" transform="scale(0.015625)"/>
       <path id="DejaVuSans-Oblique-69" d="M 1172 4863 
L 1747 4863 
L 1606 4134 
L 1031 4134 
L 1172 4863 
z
M 909 3500 
L 1484 3500 
L 800 0 
L 225 0 
L 909 3500 
z
" transform="scale(0.015625)"/>
      </defs>
      <use xlink:href="#DejaVuSans-Oblique-70" transform="translate(0 0.015625)"/>
      <use xlink:href="#DejaVuSans-Oblique-73" transform="translate(63.476562 0.015625)"/>
      <use xlink:href="#DejaVuSans-Oblique-69" transform="translate(115.576172 0.015625)"/>
      <use xlink:href="#DejaVuSerif-20" transform="translate(143.359375 0.015625)"/>
      <use xlink:href="#DejaVuSerif-5b" transform="translate(175.146484 0.015625)"/>
      <use xlink:href="#DejaVuSerif-64" transform="translate(214.160156 0.015625)"/>
      <use xlink:href="#DejaVuSerif-65" transform="translate(278.173828 0.015625)"/>
      <use xlink:href="#DejaVuSerif-67" transform="translate(337.353516 0.015625)"/>
      <use xlink:href="#DejaVuSerif-5d" transform="translate(401.367188 0.015625)"/>
     </g>
    </g>
   </g>
   <g id="line2d_70">
    <path d="M 239.362805 147.758411 
L 240.79804 147.949099 
L 241.748884 148.305268 
L 242.771496 148.936863 
L 243.91972 149.916737 
L 245.211416 151.326074 
L 246.628717 153.211707 
L 248.207494 155.691408 
L 249.929789 158.824995 
L 251.813585 162.731966 
L 254.127889 168.077877 
L 256.675454 173.921482 
L 257.859583 176.074662 
L 258.953957 177.596521 
L 260.155986 178.891354 
L 261.42971 179.946114 
L 262.7394 180.74907 
L 264.031103 181.283612 
L 265.304892 181.569119 
L 266.578674 181.62609 
L 267.852439 181.461003 
L 269.162102 181.064601 
L 270.525585 180.415764 
L 271.942902 179.492555 
L 273.449959 178.237294 
L 275.082497 176.580569 
L 276.822737 174.490749 
L 278.634769 171.959625 
L 280.572329 168.859553 
L 282.725214 164.979694 
L 285.380398 159.712881 
L 288.860878 152.264118 
L 293.310133 142.22391 
L 302.101038 122.324135 
L 303.338928 120.201277 
L 304.397421 118.813944 
L 305.56355 117.652943 
L 306.801451 116.732123 
L 308.111117 116.033506 
L 309.54637 115.52069 
L 311.035476 115.222511 
L 312.506565 115.155022 
L 313.977701 115.311671 
L 315.502643 115.702356 
L 317.099363 116.34409 
L 318.749915 117.250417 
L 320.472185 118.455821 
L 322.284182 120.004155 
L 324.16796 121.90913 
L 326.123481 124.204531 
L 328.132816 126.908945 
L 330.196009 130.067401 
L 332.384743 133.836611 
L 335.004069 138.81824 
L 338.933051 146.825947 
L 344.135834 157.959989 
L 351.042979 172.760635 
L 352.298813 174.816849 
L 353.393169 176.192274 
L 354.631066 177.390886 
L 355.940738 178.35141 
L 357.322163 179.088502 
L 358.73947 179.592752 
L 360.210584 179.882972 
L 361.663782 179.946382 
L 363.116983 179.788739 
L 364.588095 179.406238 
L 366.130985 178.77016 
L 367.745662 177.858068 
L 369.396235 176.667589 
L 370.88524 175.327664 
L 371.226115 174.975082 
L 371.226115 174.975082 
" clip-path="url(#p730735d382)" style="fill: none; stroke: #000000; stroke-width: 0.4; stroke-linecap: round"/>
   </g>
   <g id="line2d_71">
    <path d="M 239.362805 147.577525 
L 241.085102 147.687649 
L 242.107716 147.994233 
L 243.202091 148.562616 
L 244.36823 149.425079 
L 245.624071 150.634379 
L 246.987556 152.266394 
L 248.440743 154.363535 
L 249.965694 156.962637 
L 251.562406 160.136239 
L 253.284702 164.074387 
L 255.168464 168.960768 
L 257.285454 174.384322 
L 258.451592 176.761514 
L 259.510087 178.441129 
L 260.586522 179.744592 
L 261.645017 180.687088 
L 262.685571 181.322322 
L 263.708185 181.692893 
L 264.748739 181.832258 
L 265.807234 181.748502 
L 266.90161 181.436972 
L 268.049807 180.872427 
L 269.251827 180.024636 
L 270.507668 178.858862 
L 271.835271 177.315524 
L 273.252578 175.315332 
L 274.777528 172.762956 
L 276.428062 169.548761 
L 278.258002 165.483469 
L 280.374992 160.207308 
L 282.940496 153.184541 
L 286.277446 143.366899 
L 291.085523 128.467717 
L 293.579265 120.96227 
L 294.835107 117.919647 
L 295.983304 115.706868 
L 297.149442 113.935983 
L 298.333521 112.533431 
L 299.535541 111.444393 
L 300.755501 110.632372 
L 302.011342 110.062237 
L 303.249243 109.74098 
L 304.487143 109.65206 
L 305.707103 109.789381 
L 306.927063 110.154147 
L 308.164964 110.76218 
L 309.456687 111.652468 
L 310.78429 112.844967 
L 312.165715 114.391281 
L 313.618903 116.360114 
L 315.143853 118.811002 
L 316.758506 121.843029 
L 318.480803 125.571683 
L 320.346624 130.158353 
L 322.409792 135.841778 
L 324.724128 142.885114 
L 327.361394 151.647002 
L 330.196007 161.846603 
L 331.667136 167.484468 
L 331.667136 167.484468 
" clip-path="url(#p730735d382)" style="fill: none; stroke-dasharray: 1.48,0.64; stroke-dashoffset: 0; stroke: #0000ff; stroke-width: 0.4"/>
   </g>
   <g id="line2d_72">
    <path d="M 239.362805 147.577525 
L 241.138924 147.687225 
L 242.089775 147.989957 
L 243.130329 148.559667 
L 244.296467 149.461596 
L 245.60613 150.769225 
L 247.059318 152.549729 
L 248.673971 154.893828 
L 250.450089 157.873266 
L 252.405614 161.603309 
L 254.648187 166.38061 
L 258.254246 174.164062 
L 259.330681 175.869644 
L 260.353295 177.079666 
L 261.375908 177.957436 
L 262.416462 178.562122 
L 263.457016 178.913023 
L 264.515511 179.035505 
L 265.609887 178.938098 
L 266.758085 178.611662 
L 267.960104 178.035839 
L 269.198005 177.194454 
L 270.489727 176.040755 
L 271.853212 174.513939 
L 273.3064 172.538646 
L 274.867231 170.024707 
L 276.589528 166.807319 
L 278.509171 162.731049 
L 280.787625 157.340563 
L 283.622238 150.025567 
L 287.587109 139.135219 
L 294.422473 120.306215 
L 295.570671 117.952567 
L 296.629165 116.284139 
L 297.705601 114.996033 
L 298.799977 114.023775 
L 299.930234 113.312739 
L 301.114313 112.831541 
L 302.334273 112.574799 
L 303.608055 112.532553 
L 304.935658 112.713094 
L 306.299143 113.125656 
L 307.73439 113.797457 
L 309.241399 114.752557 
L 310.820171 116.023172 
L 312.470705 117.643128 
L 314.228883 119.68668 
L 316.112645 122.227276 
L 318.139932 125.345866 
L 320.382505 129.218375 
L 322.930069 134.079033 
L 325.962028 140.366205 
L 329.747493 148.75625 
L 334.429986 159.698432 
L 337.677233 167.502216 
L 337.677233 167.502216 
" clip-path="url(#p730735d382)" style="fill: none; stroke-dasharray: 1.48,0.64; stroke-dashoffset: 0; stroke: #ff0000; stroke-width: 0.4"/>
   </g>
   <g id="patch_12">
    <path d="M 232.76964 185.443104 
L 232.76964 106.041552 
" style="fill: none; stroke: #000000; stroke-linejoin: miter; stroke-linecap: square"/>
   </g>
   <g id="patch_13">
    <path d="M 232.76964 185.443104 
L 377.81928 185.443104 
" style="fill: none; stroke: #000000; stroke-linejoin: miter; stroke-linecap: square"/>
   </g>
  </g>
  <g id="text_29">
   <!-- zigzag 20/20 port -->
   <g style="fill: #262626" transform="translate(158.75089 10.337462) scale(0.08 -0.08)">
    <defs>
     <path id="DejaVuSerif-7a" d="M 256 0 
L 256 269 
L 2338 2988 
L 691 2988 
L 691 2413 
L 359 2413 
L 359 3322 
L 3078 3322 
L 3078 3053 
L 997 331 
L 2803 331 
L 2803 934 
L 3138 934 
L 3138 0 
L 256 0 
z
" transform="scale(0.015625)"/>
     <path id="DejaVuSerif-61" d="M 2547 1044 
L 2547 1747 
L 1806 1747 
Q 1378 1747 1168 1562 
Q 959 1378 959 997 
Q 959 650 1171 447 
Q 1384 244 1747 244 
Q 2106 244 2326 466 
Q 2547 688 2547 1044 
z
M 3122 2075 
L 3122 331 
L 3634 331 
L 3634 0 
L 2547 0 
L 2547 359 
Q 2356 128 2106 18 
Q 1856 -91 1522 -91 
Q 969 -91 644 203 
Q 319 497 319 997 
Q 319 1513 691 1797 
Q 1063 2081 1741 2081 
L 2547 2081 
L 2547 2309 
Q 2547 2688 2317 2895 
Q 2088 3103 1672 3103 
Q 1328 3103 1125 2947 
Q 922 2791 872 2484 
L 575 2484 
L 575 3156 
Q 875 3284 1158 3348 
Q 1441 3413 1709 3413 
Q 2400 3413 2761 3070 
Q 3122 2728 3122 2075 
z
" transform="scale(0.015625)"/>
     <path id="DejaVuSerif-2f" d="M 1656 4666 
L 2156 4666 
L 500 -594 
L 0 -594 
L 1656 4666 
z
" transform="scale(0.015625)"/>
     <path id="DejaVuSerif-70" d="M 1313 1825 
L 1313 1497 
Q 1313 897 1542 583 
Q 1772 269 2209 269 
Q 2650 269 2876 622 
Q 3103 975 3103 1663 
Q 3103 2353 2876 2703 
Q 2650 3053 2209 3053 
Q 1772 3053 1542 2737 
Q 1313 2422 1313 1825 
z
M 738 2988 
L 184 2988 
L 184 3322 
L 1313 3322 
L 1313 2803 
Q 1481 3116 1742 3264 
Q 2003 3413 2388 3413 
Q 3000 3413 3387 2928 
Q 3775 2444 3775 1663 
Q 3775 881 3387 395 
Q 3000 -91 2388 -91 
Q 2003 -91 1742 57 
Q 1481 206 1313 519 
L 1313 -997 
L 1856 -997 
L 1856 -1331 
L 184 -1331 
L 184 -997 
L 738 -997 
L 738 2988 
z
" transform="scale(0.015625)"/>
     <path id="DejaVuSerif-6f" d="M 1925 219 
Q 2388 219 2623 584 
Q 2859 950 2859 1663 
Q 2859 2375 2623 2739 
Q 2388 3103 1925 3103 
Q 1463 3103 1227 2739 
Q 991 2375 991 1663 
Q 991 950 1228 584 
Q 1466 219 1925 219 
z
M 1925 -91 
Q 1200 -91 759 389 
Q 319 869 319 1663 
Q 319 2456 758 2934 
Q 1197 3413 1925 3413 
Q 2653 3413 3092 2934 
Q 3531 2456 3531 1663 
Q 3531 869 3092 389 
Q 2653 -91 1925 -91 
z
" transform="scale(0.015625)"/>
     <path id="DejaVuSerif-72" d="M 3059 3328 
L 3059 2497 
L 2728 2497 
Q 2713 2744 2591 2866 
Q 2469 2988 2234 2988 
Q 1809 2988 1582 2694 
Q 1356 2400 1356 1850 
L 1356 331 
L 2022 331 
L 2022 0 
L 263 0 
L 263 331 
L 781 331 
L 781 2994 
L 231 2994 
L 231 3322 
L 1356 3322 
L 1356 2731 
Q 1525 3078 1790 3245 
Q 2056 3413 2438 3413 
Q 2578 3413 2733 3391 
Q 2888 3369 3059 3328 
z
" transform="scale(0.015625)"/>
     <path id="DejaVuSerif-74" d="M 691 2988 
L 184 2988 
L 184 3322 
L 691 3322 
L 691 4353 
L 1269 4353 
L 1269 3322 
L 2350 3322 
L 2350 2988 
L 1269 2988 
L 1269 878 
Q 1269 456 1350 337 
Q 1431 219 1650 219 
Q 1875 219 1978 351 
Q 2081 484 2088 781 
L 2522 781 
Q 2497 328 2275 118 
Q 2053 -91 1600 -91 
Q 1103 -91 897 129 
Q 691 350 691 878 
L 691 2988 
z
" transform="scale(0.015625)"/>
    </defs>
    <use xlink:href="#DejaVuSerif-7a"/>
    <use xlink:href="#DejaVuSerif-69" x="52.685547"/>
    <use xlink:href="#DejaVuSerif-67" x="84.667969"/>
    <use xlink:href="#DejaVuSerif-7a" x="148.681641"/>
    <use xlink:href="#DejaVuSerif-61" x="201.367188"/>
    <use xlink:href="#DejaVuSerif-67" x="260.986328"/>
    <use xlink:href="#DejaVuSerif-20" x="325"/>
    <use xlink:href="#DejaVuSerif-32" x="356.787109"/>
    <use xlink:href="#DejaVuSerif-30" x="420.410156"/>
    <use xlink:href="#DejaVuSerif-2f" x="484.033203"/>
    <use xlink:href="#DejaVuSerif-32" x="517.724609"/>
    <use xlink:href="#DejaVuSerif-30" x="581.347656"/>
    <use xlink:href="#DejaVuSerif-20" x="644.970703"/>
    <use xlink:href="#DejaVuSerif-70" x="676.757812"/>
    <use xlink:href="#DejaVuSerif-6f" x="740.771484"/>
    <use xlink:href="#DejaVuSerif-72" x="800.976562"/>
    <use xlink:href="#DejaVuSerif-74" x="848.779297"/>
   </g>
  </g>
 </g>
 <defs>
  <clipPath id="p264b93efa0">
   <rect x="43.86" y="10.8" width="145.04964" height="79.401552"/>
  </clipPath>
  <clipPath id="pd51e103614">
   <rect x="232.76964" y="10.8" width="145.04964" height="79.401552"/>
  </clipPath>
  <clipPath id="p4827a6bfbd">
   <rect x="43.86" y="106.041552" width="145.04964" height="79.401552"/>
  </clipPath>
  <clipPath id="p730735d382">
   <rect x="232.76964" y="106.041552" width="145.04964" height="79.401552"/>
  </clipPath>
 </defs>
</svg>
