<?xml version="1.0" encoding="utf-8" standalone="no"?>
<!DOCTYPE svg PUBLIC "-//W3C//DTD SVG 1.1//EN"
  "http://www.w3.org/Graphics/SVG/1.1/DTD/svg11.dtd">
<svg xmlns:xlink="http://www.w3.org/1999/xlink" width="194.30964pt" height="145.748736pt" viewBox="0 0 194.30964 145.748736" xmlns="http://www.w3.org/2000/svg" version="1.1">
 <metadata>
  <rdf:RDF xmlns:dc="http://purl.org/dc/elements/1.1/" xmlns:cc="http://creativecommons.org/ns#" xmlns:rdf="http://www.w3.org/1999/02/22-rdf-syntax-ns#">
   <cc:Work>
    <dc:type rdf:resource="http://purl.org/dc/dcmitype/StillImage"/>
    <dc:date>2024-11-13T17:57:19.926414</dc:date>
    <dc:format>image/svg+xml</dc:format>
    <dc:creator>
     <cc:Agent>
      <dc:title>Matplotlib v3.8.2, https://matplotlib.org/</dc:title>
     </cc:Agent>
    </dc:creator>
   </cc:Work>
  </rdf:RDF>
 </metadata>
 <defs>
  <style type="text/css">*{stroke-linejoin: round; stroke-linecap: butt}</style>
 </defs>
 <g id="figure_1">
  <g id="patch_1">
   <path d="M 0 145.748736 
L 194.30964 145.748736 
L 194.30964 0 
L 0 0 
z
" style="fill: #ffffff"/>
  </g>
  <g id="axes_1">
   <g id="patch_2">
    <path d="M 20.61 62.454368 
L 188.126947 62.454368 
L 188.126947 7.2 
L 20.61 7.2 
z
" style="fill: #ffffff"/>
   </g>
   <g id="matplotlib.axis_1">
    <g id="xtick_1">
     <g id="line2d_1"/>
    </g>
    <g id="xtick_2">
     <g id="line2d_2"/>
    </g>
    <g id="xtick_3">
     <g id="line2d_3"/>
    </g>
    <g id="xtick_4">
     <g id="line2d_4"/>
    </g>
   </g>
   <g id="matplotlib.axis_2">
    <g id="ytick_1">
     <g id="line2d_5"/>
     <g id="text_1">
      <!-- −5 -->
      <g style="fill: #262626" transform="translate(6.790469 54.564149) scale(0.07 -0.07)">
       <defs>
        <path id="DejaVuSerif-2212" d="M 678 2259 
L 4684 2259 
L 4684 1753 
L 678 1753 
L 678 2259 
z
" transform="scale(0.015625)"/>
        <path id="DejaVuSerif-35" d="M 3219 4666 
L 3219 4153 
L 1081 4153 
L 1081 2816 
Q 1244 2928 1461 2984 
Q 1678 3041 1947 3041 
Q 2703 3041 3140 2622 
Q 3578 2203 3578 1478 
Q 3578 738 3136 323 
Q 2694 -91 1894 -91 
Q 1572 -91 1234 -12 
Q 897 66 544 225 
L 544 1131 
L 897 1131 
Q 925 688 1179 453 
Q 1434 219 1894 219 
Q 2388 219 2653 544 
Q 2919 869 2919 1478 
Q 2919 2084 2655 2407 
Q 2391 2731 1894 2731 
Q 1613 2731 1398 2631 
Q 1184 2531 1019 2322 
L 750 2322 
L 750 4666 
L 3219 4666 
z
" transform="scale(0.015625)"/>
       </defs>
       <use xlink:href="#DejaVuSerif-2212"/>
       <use xlink:href="#DejaVuSerif-35" x="83.789062"/>
      </g>
     </g>
    </g>
    <g id="ytick_2">
     <g id="line2d_6"/>
     <g id="text_2">
      <!-- 0 -->
      <g style="fill: #262626" transform="translate(12.65625 36.883088) scale(0.07 -0.07)">
       <defs>
        <path id="DejaVuSerif-30" d="M 2034 219 
Q 2513 219 2750 744 
Q 2988 1269 2988 2328 
Q 2988 3391 2750 3916 
Q 2513 4441 2034 4441 
Q 1556 4441 1318 3916 
Q 1081 3391 1081 2328 
Q 1081 1269 1318 744 
Q 1556 219 2034 219 
z
M 2034 -91 
Q 1275 -91 848 546 
Q 422 1184 422 2328 
Q 422 3475 848 4112 
Q 1275 4750 2034 4750 
Q 2797 4750 3222 4112 
Q 3647 3475 3647 2328 
Q 3647 1184 3222 546 
Q 2797 -91 2034 -91 
z
" transform="scale(0.015625)"/>
       </defs>
       <use xlink:href="#DejaVuSerif-30"/>
      </g>
     </g>
    </g>
    <g id="ytick_3">
     <g id="line2d_7"/>
     <g id="text_3">
      <!-- 5 -->
      <g style="fill: #262626" transform="translate(12.65625 19.202028) scale(0.07 -0.07)">
       <use xlink:href="#DejaVuSerif-35"/>
      </g>
     </g>
    </g>
    <g id="text_4">
     <!-- $\beta$ [deg] -->
     <g style="fill: #262626" transform="translate(1.410469 45.657184) rotate(-90) scale(0.06 -0.06)">
      <defs>
       <path id="DejaVuSans-Oblique-3b2" d="M 872 216 
L 572 -1331 
L -6 -1331 
L 928 3478 
Q 1206 4903 2538 4903 
Q 3888 4903 3659 3700 
Q 3503 2844 2894 2531 
Q 3713 2250 3553 1416 
Q 3272 -69 1759 -66 
Q 1097 -63 872 216 
z
M 1019 966 
Q 1259 422 1875 425 
Q 2775 425 2966 1406 
Q 3138 2288 1675 2219 
L 1778 2750 
Q 2909 2731 3106 3750 
Q 3241 4438 2509 4434 
Q 1691 4434 1503 3459 
L 1019 966 
z
" transform="scale(0.015625)"/>
       <path id="DejaVuSerif-20" transform="scale(0.015625)"/>
       <path id="DejaVuSerif-5b" d="M 550 4863 
L 2003 4863 
L 2003 4531 
L 1147 4531 
L 1147 -513 
L 2003 -513 
L 2003 -844 
L 550 -844 
L 550 4863 
z
" transform="scale(0.015625)"/>
       <path id="DejaVuSerif-64" d="M 3359 331 
L 3909 331 
L 3909 0 
L 2784 0 
L 2784 519 
Q 2616 206 2355 57 
Q 2094 -91 1709 -91 
Q 1097 -91 708 395 
Q 319 881 319 1663 
Q 319 2444 706 2928 
Q 1094 3413 1709 3413 
Q 2094 3413 2355 3264 
Q 2616 3116 2784 2803 
L 2784 4531 
L 2241 4531 
L 2241 4863 
L 3359 4863 
L 3359 331 
z
M 2784 1497 
L 2784 1825 
Q 2784 2422 2554 2737 
Q 2325 3053 1888 3053 
Q 1444 3053 1217 2703 
Q 991 2353 991 1663 
Q 991 975 1217 622 
Q 1444 269 1888 269 
Q 2325 269 2554 583 
Q 2784 897 2784 1497 
z
" transform="scale(0.015625)"/>
       <path id="DejaVuSerif-65" d="M 3469 1600 
L 991 1600 
L 991 1575 
Q 991 903 1244 561 
Q 1497 219 1991 219 
Q 2369 219 2611 417 
Q 2853 616 2950 1006 
L 3413 1006 
Q 3275 459 2904 184 
Q 2534 -91 1931 -91 
Q 1203 -91 761 389 
Q 319 869 319 1663 
Q 319 2450 753 2931 
Q 1188 3413 1894 3413 
Q 2647 3413 3050 2948 
Q 3453 2484 3469 1600 
z
M 2791 1931 
Q 2772 2513 2545 2808 
Q 2319 3103 1894 3103 
Q 1497 3103 1269 2806 
Q 1041 2509 991 1931 
L 2791 1931 
z
" transform="scale(0.015625)"/>
       <path id="DejaVuSerif-67" d="M 3359 2988 
L 3359 72 
Q 3359 -644 2965 -1033 
Q 2572 -1422 1844 -1422 
Q 1516 -1422 1216 -1362 
Q 916 -1303 641 -1184 
L 641 -488 
L 941 -488 
Q 997 -813 1206 -963 
Q 1416 -1113 1806 -1113 
Q 2313 -1113 2548 -827 
Q 2784 -541 2784 72 
L 2784 519 
Q 2616 206 2355 57 
Q 2094 -91 1709 -91 
Q 1097 -91 708 395 
Q 319 881 319 1663 
Q 319 2444 706 2928 
Q 1094 3413 1709 3413 
Q 2094 3413 2355 3264 
Q 2616 3116 2784 2803 
L 2784 3322 
L 3909 3322 
L 3909 2988 
L 3359 2988 
z
M 2784 1825 
Q 2784 2422 2554 2737 
Q 2325 3053 1888 3053 
Q 1444 3053 1217 2703 
Q 991 2353 991 1663 
Q 991 975 1217 622 
Q 1444 269 1888 269 
Q 2325 269 2554 583 
Q 2784 897 2784 1497 
L 2784 1825 
z
" transform="scale(0.015625)"/>
       <path id="DejaVuSerif-5d" d="M 1947 4863 
L 1947 -844 
L 494 -844 
L 494 -513 
L 1350 -513 
L 1350 4531 
L 494 4531 
L 494 4863 
L 1947 4863 
z
" transform="scale(0.015625)"/>
      </defs>
      <use xlink:href="#DejaVuSans-Oblique-3b2" transform="translate(0 0.390625)"/>
      <use xlink:href="#DejaVuSerif-20" transform="translate(63.818359 0.390625)"/>
      <use xlink:href="#DejaVuSerif-5b" transform="translate(95.605469 0.390625)"/>
      <use xlink:href="#DejaVuSerif-64" transform="translate(134.619141 0.390625)"/>
      <use xlink:href="#DejaVuSerif-65" transform="translate(198.632812 0.390625)"/>
      <use xlink:href="#DejaVuSerif-67" transform="translate(257.8125 0.390625)"/>
      <use xlink:href="#DejaVuSerif-5d" transform="translate(321.826172 0.390625)"/>
     </g>
    </g>
   </g>
   <g id="line2d_8">
    <path d="M 28.224407 34.223635 
L 28.925466 34.335277 
L 29.762214 34.71931 
L 32.00108 36.03194 
L 34.782702 37.933093 
L 38.355842 40.657488 
L 43.715552 45.054189 
L 48.17067 48.638702 
L 48.849114 48.838748 
L 49.504943 48.799787 
L 50.47738 48.472725 
L 52.693632 47.515713 
L 55.430024 46.078179 
L 58.980549 43.947164 
L 63.752274 40.810804 
L 69.541666 36.735117 
L 75.602435 32.194812 
L 82.251189 26.925126 
L 96.181912 15.774757 
L 100.02643 13.063182 
L 103.418652 10.946337 
L 104.278014 10.566512 
L 104.911229 10.538045 
L 105.567059 10.73671 
L 106.584725 11.334616 
L 113.323939 15.592798 
L 133.722498 28.977278 
L 141.298459 34.197182 
L 148.150747 39.19135 
L 157.716812 46.486703 
L 164.297722 51.37206 
L 168.61715 54.302236 
L 172.393824 56.602384 
L 175.876505 58.466696 
L 179.065193 59.942806 
L 179.065193 59.942806 
" clip-path="url(#pccfdd4df72)" style="fill: none; stroke: #bf00bf; stroke-width: 0.4; stroke-linecap: round"/>
   </g>
   <g id="line2d_9">
    <path d="M 28.224407 34.223635 
L 28.948081 34.331983 
L 29.739599 34.69069 
L 32.04631 36.032977 
L 35.00885 38.02909 
L 39.034286 41.02902 
L 48.622966 48.295566 
L 49.30141 48.376958 
L 50.025084 48.229683 
L 52.173491 47.373473 
L 54.796809 46.076579 
L 58.211645 44.127395 
L 62.847682 41.20936 
L 68.637073 37.293173 
L 74.788302 32.862505 
L 81.708434 27.592077 
L 94.644105 17.671461 
L 98.646927 14.929452 
L 102.129607 12.803217 
L 104.504163 11.57423 
L 105.182607 11.50452 
L 105.883666 11.658699 
L 106.788258 12.126793 
L 117.93736 18.87945 
L 134.514016 29.302744 
L 141.954289 34.264317 
L 149.100569 39.303749 
L 166.039062 51.400061 
L 170.200187 53.975299 
L 173.931631 56.026532 
L 177.459541 57.713906 
L 180.512541 58.971161 
L 180.512541 58.971161 
" clip-path="url(#pccfdd4df72)" style="fill: none; stroke: #ff0000; stroke-width: 0.4; stroke-linecap: round"/>
   </g>
   <g id="line2d_10">
    <path d="M 28.224407 34.223635 
L 28.925466 34.283611 
L 29.626525 34.570456 
L 31.842776 35.808216 
L 34.692243 37.672701 
L 38.695064 40.588376 
L 49.097877 48.336863 
L 49.753706 48.370331 
L 50.386921 48.173577 
L 52.060417 47.260166 
L 54.276668 45.800234 
L 56.899986 43.795354 
L 59.998215 41.150635 
L 63.865348 37.555226 
L 67.574177 33.834402 
L 72.00668 29.055168 
L 82.839174 17.265891 
L 86.163551 14.09656 
L 88.899943 11.795073 
L 91.364958 9.99576 
L 92.020787 9.750056 
L 92.631387 9.750863 
L 93.241987 9.973429 
L 94.259653 10.642601 
L 104.594622 18.02211 
L 113.821465 24.737149 
L 130.149358 37.162652 
L 145.708347 49.479121 
L 149.869472 52.393337 
L 153.600916 54.743257 
L 157.015753 56.644281 
L 160.498433 58.335704 
L 163.212211 59.482228 
L 163.212211 59.482228 
" clip-path="url(#pccfdd4df72)" style="fill: none; stroke: #0000ff; stroke-width: 0.4; stroke-linecap: round"/>
   </g>
   <g id="patch_3">
    <path d="M 20.61 62.454368 
L 20.61 7.2 
" style="fill: none; stroke: #000000; stroke-linejoin: miter; stroke-linecap: square"/>
   </g>
   <g id="patch_4">
    <path d="M 20.61 62.454368 
L 188.126947 62.454368 
" style="fill: none; stroke: #000000; stroke-linejoin: miter; stroke-linecap: square"/>
   </g>
   <g id="legend_1"/>
   <g id="line2d_11">
    <path d="M 28.224407 34.511129 
L 28.948094 34.748236 
L 30.078821 35.422473 
L 31.978497 36.40068 
L 35.596848 38.161544 
L 37.519087 39.400585 
L 39.893644 41.18458 
L 43.263253 44.02655 
L 47.198228 47.205173 
L 47.967148 47.474587 
L 48.668195 47.479205 
L 50.092922 47.370434 
L 53.756521 47.181652 
L 55.43004 46.812783 
L 56.990437 46.242052 
L 58.596167 45.398158 
L 61.400343 43.63502 
L 65.267491 40.986772 
L 68.637071 38.635382 
L 73.928955 35.111264 
L 77.479507 32.155942 
L 85.892201 25.018971 
L 97.538812 14.840312 
L 101.473778 11.880983 
L 104.051864 10.243784 
L 104.979074 9.804543 
L 105.680128 9.712871 
L 106.358591 9.848394 
L 108.416518 10.495022 
L 111.379063 11.244818 
L 112.781233 11.885552 
L 114.047619 12.66074 
L 116.241245 14.273162 
L 121.985404 18.793981 
L 126.214403 21.736218 
L 129.470927 23.762976 
L 133.157127 26.217342 
L 136.16492 28.198874 
L 140.416518 30.751257 
L 149.756407 37.553366 
L 163.121745 48.504559 
L 163.1896 48.562602 
L 163.1896 48.562602 
" clip-path="url(#pccfdd4df72)" style="fill: none; stroke: #000000; stroke-width: 0.7; stroke-linecap: round"/>
   </g>
  </g>
  <g id="axes_2">
   <g id="patch_5">
    <path d="M 20.61 124.908736 
L 188.126947 124.908736 
L 188.126947 69.654368 
L 20.61 69.654368 
z
" style="fill: #ffffff"/>
   </g>
   <g id="matplotlib.axis_3">
    <g id="xtick_5">
     <g id="line2d_12"/>
     <g id="text_5">
      <!-- 0 -->
      <g style="fill: #262626" transform="translate(25.997532 133.727642) scale(0.07 -0.07)">
       <use xlink:href="#DejaVuSerif-30"/>
      </g>
     </g>
    </g>
    <g id="xtick_6">
     <g id="line2d_13"/>
     <g id="text_6">
      <!-- 20 -->
      <g style="fill: #262626" transform="translate(69.000278 133.727642) scale(0.07 -0.07)">
       <defs>
        <path id="DejaVuSerif-32" d="M 819 3553 
L 469 3553 
L 469 4384 
Q 803 4563 1142 4656 
Q 1481 4750 1806 4750 
Q 2534 4750 2956 4397 
Q 3378 4044 3378 3438 
Q 3378 2753 2422 1800 
Q 2347 1728 2309 1691 
L 1131 513 
L 3078 513 
L 3078 1088 
L 3444 1088 
L 3444 0 
L 434 0 
L 434 341 
L 1850 1753 
Q 2319 2222 2519 2614 
Q 2719 3006 2719 3438 
Q 2719 3909 2473 4175 
Q 2228 4441 1797 4441 
Q 1350 4441 1106 4219 
Q 863 3997 819 3553 
z
" transform="scale(0.015625)"/>
       </defs>
       <use xlink:href="#DejaVuSerif-32"/>
       <use xlink:href="#DejaVuSerif-30" x="63.623047"/>
      </g>
     </g>
    </g>
    <g id="xtick_7">
     <g id="line2d_14"/>
     <g id="text_7">
      <!-- 40 -->
      <g style="fill: #262626" transform="translate(114.229899 133.727642) scale(0.07 -0.07)">
       <defs>
        <path id="DejaVuSerif-34" d="M 2234 1581 
L 2234 4063 
L 641 1581 
L 2234 1581 
z
M 3609 0 
L 1484 0 
L 1484 331 
L 2234 331 
L 2234 1247 
L 197 1247 
L 197 1588 
L 2241 4750 
L 2859 4750 
L 2859 1581 
L 3750 1581 
L 3750 1247 
L 2859 1247 
L 2859 331 
L 3609 331 
L 3609 0 
z
" transform="scale(0.015625)"/>
       </defs>
       <use xlink:href="#DejaVuSerif-34"/>
       <use xlink:href="#DejaVuSerif-30" x="63.623047"/>
      </g>
     </g>
    </g>
    <g id="xtick_8">
     <g id="line2d_15"/>
     <g id="text_8">
      <!-- 60 -->
      <g style="fill: #262626" transform="translate(159.45952 133.727642) scale(0.07 -0.07)">
       <defs>
        <path id="DejaVuSerif-36" d="M 2094 219 
Q 2534 219 2771 542 
Q 3009 866 3009 1472 
Q 3009 2078 2771 2401 
Q 2534 2725 2094 2725 
Q 1647 2725 1412 2412 
Q 1178 2100 1178 1509 
Q 1178 888 1415 553 
Q 1653 219 2094 219 
z
M 1075 2569 
Q 1288 2803 1556 2918 
Q 1825 3034 2163 3034 
Q 2859 3034 3264 2615 
Q 3669 2197 3669 1472 
Q 3669 763 3233 336 
Q 2797 -91 2069 -91 
Q 1278 -91 853 498 
Q 428 1088 428 2181 
Q 428 3406 931 4078 
Q 1434 4750 2350 4750 
Q 2597 4750 2869 4703 
Q 3141 4656 3425 4563 
L 3425 3794 
L 3072 3794 
Q 3034 4109 2831 4275 
Q 2628 4441 2284 4441 
Q 1678 4441 1381 3981 
Q 1084 3522 1075 2569 
z
" transform="scale(0.015625)"/>
       </defs>
       <use xlink:href="#DejaVuSerif-36"/>
       <use xlink:href="#DejaVuSerif-30" x="63.623047"/>
      </g>
     </g>
    </g>
    <g id="text_9">
     <!-- Time [s] -->
     <g style="fill: #262626" transform="translate(91.95363 143.742486) scale(0.06 -0.06)">
      <defs>
       <path id="DejaVuSerif-54" d="M 1222 0 
L 1222 331 
L 1819 331 
L 1819 4294 
L 447 4294 
L 447 3566 
L 63 3566 
L 63 4666 
L 4206 4666 
L 4206 3566 
L 3822 3566 
L 3822 4294 
L 2450 4294 
L 2450 331 
L 3047 331 
L 3047 0 
L 1222 0 
z
" transform="scale(0.015625)"/>
       <path id="DejaVuSerif-69" d="M 622 4353 
Q 622 4497 726 4603 
Q 831 4709 978 4709 
Q 1122 4709 1226 4603 
Q 1331 4497 1331 4353 
Q 1331 4206 1228 4103 
Q 1125 4000 978 4000 
Q 831 4000 726 4103 
Q 622 4206 622 4353 
z
M 1356 331 
L 1900 331 
L 1900 0 
L 231 0 
L 231 331 
L 781 331 
L 781 2988 
L 231 2988 
L 231 3322 
L 1356 3322 
L 1356 331 
z
" transform="scale(0.015625)"/>
       <path id="DejaVuSerif-6d" d="M 3316 2675 
Q 3481 3041 3739 3227 
Q 3997 3413 4341 3413 
Q 4863 3413 5119 3089 
Q 5375 2766 5375 2113 
L 5375 331 
L 5894 331 
L 5894 0 
L 4300 0 
L 4300 331 
L 4800 331 
L 4800 2047 
Q 4800 2556 4650 2772 
Q 4500 2988 4153 2988 
Q 3769 2988 3567 2697 
Q 3366 2406 3366 1850 
L 3366 331 
L 3866 331 
L 3866 0 
L 2291 0 
L 2291 331 
L 2791 331 
L 2791 2069 
Q 2791 2566 2641 2777 
Q 2491 2988 2144 2988 
Q 1759 2988 1557 2697 
Q 1356 2406 1356 1850 
L 1356 331 
L 1856 331 
L 1856 0 
L 263 0 
L 263 331 
L 781 331 
L 781 2994 
L 231 2994 
L 231 3322 
L 1356 3322 
L 1356 2731 
Q 1516 3063 1762 3238 
Q 2009 3413 2322 3413 
Q 2709 3413 2968 3220 
Q 3228 3028 3316 2675 
z
" transform="scale(0.015625)"/>
       <path id="DejaVuSerif-73" d="M 359 184 
L 359 959 
L 691 959 
Q 703 588 923 403 
Q 1144 219 1575 219 
Q 1963 219 2166 364 
Q 2369 509 2369 788 
Q 2369 1006 2220 1140 
Q 2072 1275 1594 1428 
L 1178 1569 
Q 750 1706 558 1912 
Q 366 2119 366 2438 
Q 366 2894 700 3153 
Q 1034 3413 1625 3413 
Q 1888 3413 2178 3344 
Q 2469 3275 2778 3144 
L 2778 2419 
L 2447 2419 
Q 2434 2741 2221 2922 
Q 2009 3103 1644 3103 
Q 1281 3103 1095 2975 
Q 909 2847 909 2591 
Q 909 2381 1050 2254 
Q 1191 2128 1613 1997 
L 2069 1856 
Q 2541 1709 2748 1489 
Q 2956 1269 2956 922 
Q 2956 450 2595 179 
Q 2234 -91 1600 -91 
Q 1278 -91 972 -22 
Q 666 47 359 184 
z
" transform="scale(0.015625)"/>
      </defs>
      <use xlink:href="#DejaVuSerif-54"/>
      <use xlink:href="#DejaVuSerif-69" x="66.699219"/>
      <use xlink:href="#DejaVuSerif-6d" x="98.681641"/>
      <use xlink:href="#DejaVuSerif-65" x="193.505859"/>
      <use xlink:href="#DejaVuSerif-20" x="252.685547"/>
      <use xlink:href="#DejaVuSerif-5b" x="284.472656"/>
      <use xlink:href="#DejaVuSerif-73" x="323.486328"/>
      <use xlink:href="#DejaVuSerif-5d" x="374.804688"/>
     </g>
    </g>
   </g>
   <g id="matplotlib.axis_4">
    <g id="ytick_4">
     <g id="line2d_16"/>
     <g id="text_10">
      <!-- −20 -->
      <g style="fill: #262626" transform="translate(2.336719 126.716468) scale(0.07 -0.07)">
       <use xlink:href="#DejaVuSerif-2212"/>
       <use xlink:href="#DejaVuSerif-32" x="83.789062"/>
       <use xlink:href="#DejaVuSerif-30" x="147.412109"/>
      </g>
     </g>
    </g>
    <g id="ytick_5">
     <g id="line2d_17"/>
     <g id="text_11">
      <!-- 0 -->
      <g style="fill: #262626" transform="translate(12.65625 103.844802) scale(0.07 -0.07)">
       <use xlink:href="#DejaVuSerif-30"/>
      </g>
     </g>
    </g>
    <g id="ytick_6">
     <g id="line2d_18"/>
     <g id="text_12">
      <!-- 20 -->
      <g style="fill: #262626" transform="translate(8.2025 80.973136) scale(0.07 -0.07)">
       <use xlink:href="#DejaVuSerif-32"/>
       <use xlink:href="#DejaVuSerif-30" x="63.623047"/>
      </g>
     </g>
    </g>
    <g id="text_13">
     <!-- $\psi$ [deg] -->
     <g style="fill: #262626" transform="translate(-3.043281 108.171552) rotate(-90) scale(0.06 -0.06)">
      <defs>
       <path id="DejaVuSans-Oblique-3c8" d="M 1591 -78 
Q 891 38 616 341 
Q 278 713 425 1472 
L 819 3500 
L 1400 3500 
L 1009 1494 
Q 900 922 1119 684 
Q 1313 478 1691 434 
L 2284 3500 
L 2856 3500 
L 2263 438 
Q 2681 481 2928 688 
Q 3247 950 3353 1497 
L 3741 3500 
L 4322 3500 
L 3928 1475 
Q 3775 688 3300 344 
Q 2872 34 2163 -75 
L 1919 -1331 
L 1347 -1331 
L 1591 -78 
z
" transform="scale(0.015625)"/>
      </defs>
      <use xlink:href="#DejaVuSans-Oblique-3c8" transform="translate(0 0.015625)"/>
      <use xlink:href="#DejaVuSerif-20" transform="translate(65.966797 0.015625)"/>
      <use xlink:href="#DejaVuSerif-5b" transform="translate(97.753906 0.015625)"/>
      <use xlink:href="#DejaVuSerif-64" transform="translate(136.767578 0.015625)"/>
      <use xlink:href="#DejaVuSerif-65" transform="translate(200.78125 0.015625)"/>
      <use xlink:href="#DejaVuSerif-67" transform="translate(259.960938 0.015625)"/>
      <use xlink:href="#DejaVuSerif-5d" transform="translate(323.974609 0.015625)"/>
     </g>
    </g>
   </g>
   <g id="line2d_19">
    <path d="M 28.224407 101.185349 
L 30.304969 101.294839 
L 32.00108 101.633213 
L 33.83288 102.228688 
L 35.800368 103.10657 
L 37.880931 104.281918 
L 40.074567 105.780299 
L 42.381278 107.631173 
L 44.778448 109.844288 
L 47.288692 112.468912 
L 50.545225 115.911682 
L 52.173491 117.216562 
L 53.937446 118.343063 
L 55.83709 119.290346 
L 57.872423 120.054952 
L 60.02083 120.623935 
L 62.259697 120.987136 
L 64.566407 121.135809 
L 66.918347 121.062744 
L 69.270288 120.767288 
L 71.644843 120.243334 
L 74.019398 119.489596 
L 76.393953 118.501275 
L 78.791123 117.259838 
L 81.210908 115.752394 
L 83.653307 113.966451 
L 86.140936 111.870537 
L 88.719025 109.402191 
L 91.387572 106.532679 
L 94.191809 103.182424 
L 97.154349 99.290361 
L 100.365652 94.696765 
L 103.938792 89.18504 
L 106.313347 85.616475 
L 107.941614 83.605635 
L 109.728184 81.751883 
L 111.673058 80.053458 
L 113.79885 78.492501 
L 116.10556 77.076893 
L 118.54796 75.83888 
L 121.103433 74.791599 
L 123.726752 73.954801 
L 126.395299 73.336359 
L 129.063847 72.945821 
L 131.70978 72.782296 
L 134.333098 72.842516 
L 136.933801 73.125601 
L 139.489274 73.626687 
L 142.022133 74.348487 
L 144.554992 75.301983 
L 147.087851 76.494831 
L 149.62071 77.934276 
L 152.176183 79.642823 
L 154.776886 81.650749 
L 157.445434 83.995867 
L 160.204441 86.72291 
L 163.053907 89.856264 
L 166.061677 93.499807 
L 169.27298 97.747093 
L 172.755661 102.730712 
L 176.645408 108.696884 
L 179.065193 112.586795 
L 179.065193 112.586795 
" clip-path="url(#pa5852ac066)" style="fill: none; stroke: #bf00bf; stroke-width: 0.4; stroke-linecap: round"/>
   </g>
   <g id="line2d_20">
    <path d="M 28.224407 101.185349 
L 30.327584 101.294092 
L 32.023695 101.632831 
L 33.855495 102.228468 
L 35.822983 103.104403 
L 37.92616 104.287579 
L 40.142412 105.792487 
L 42.471737 107.646092 
L 44.914137 109.877637 
L 47.492225 112.541156 
L 50.658299 115.838564 
L 52.30918 117.155181 
L 54.073135 118.279506 
L 55.995394 119.239371 
L 58.053342 120.01518 
L 60.224364 120.593597 
L 62.485845 120.963731 
L 64.792555 121.115406 
L 67.121881 121.046828 
L 69.473821 120.755139 
L 71.825761 120.239481 
L 74.177702 119.496859 
L 76.552257 118.512419 
L 78.949427 117.274354 
L 81.369211 115.770828 
L 83.834226 113.973088 
L 86.34447 111.864301 
L 88.945173 109.384561 
L 91.65895 106.482858 
L 94.508416 103.104212 
L 97.561416 99.131514 
L 100.885793 94.431064 
L 104.639851 88.723866 
L 106.810873 85.558934 
L 108.484369 83.53009 
L 110.338784 81.632224 
L 112.351502 79.891683 
L 114.545138 78.290242 
L 116.897079 76.848834 
L 119.384708 75.584169 
L 121.985411 74.512277 
L 124.631344 73.662067 
L 127.299892 73.037944 
L 129.945824 72.6455 
L 132.569142 72.478682 
L 135.169846 72.534535 
L 137.747934 72.812063 
L 140.303408 73.311398 
L 142.836266 74.03321 
L 145.369125 74.987752 
L 147.901984 76.181673 
L 150.457458 77.634906 
L 153.035546 79.358914 
L 155.658864 81.382085 
L 158.372641 83.760756 
L 161.176878 86.520221 
L 164.094188 89.706835 
L 167.192417 93.426085 
L 170.516794 97.771225 
L 174.157779 102.904173 
L 178.273674 109.102795 
L 180.512541 112.619674 
L 180.512541 112.619674 
" clip-path="url(#pa5852ac066)" style="fill: none; stroke: #ff0000; stroke-width: 0.4; stroke-linecap: round"/>
   </g>
   <g id="line2d_21">
    <path d="M 28.224407 101.185349 
L 30.463273 101.294172 
L 32.181999 101.633668 
L 34.059028 102.237104 
L 36.071746 103.123524 
L 38.220153 104.317463 
L 40.481634 105.830889 
L 42.878804 107.707499 
L 45.389048 109.960343 
L 48.012366 112.618678 
L 50.861832 115.515298 
L 52.331795 116.628061 
L 53.869602 117.514108 
L 55.497868 118.194861 
L 57.193979 118.663686 
L 58.957934 118.923035 
L 60.789734 118.967803 
L 62.689378 118.788855 
L 64.611637 118.384095 
L 66.556511 117.747442 
L 68.523999 116.865013 
L 70.491488 115.736654 
L 72.504206 114.324574 
L 74.584768 112.590395 
L 76.75579 110.483867 
L 79.039886 107.948794 
L 81.437056 104.949472 
L 84.037759 101.330004 
L 86.86461 97.004348 
L 90.098528 91.634832 
L 94.259653 84.698267 
L 95.820075 82.681293 
L 97.516186 80.851111 
L 99.347986 79.202142 
L 101.315474 77.728938 
L 103.418652 76.434007 
L 105.725362 75.279261 
L 108.167762 74.305601 
L 110.610161 73.569284 
L 113.007331 73.075879 
L 115.449731 72.800675 
L 117.914745 72.745768 
L 120.402374 72.913053 
L 122.890004 73.302957 
L 125.377633 73.919251 
L 127.797417 74.747793 
L 130.217202 75.810823 
L 132.659602 77.130066 
L 135.147231 78.73045 
L 137.68009 80.628401 
L 140.326022 82.895068 
L 143.062415 85.537248 
L 145.95711 88.647655 
L 149.032724 92.285732 
L 152.357102 96.570161 
L 156.020701 101.665705 
L 160.113982 107.75016 
L 163.212211 112.585835 
L 163.212211 112.585835 
" clip-path="url(#pa5852ac066)" style="fill: none; stroke: #0000ff; stroke-width: 0.4; stroke-linecap: round"/>
   </g>
   <g id="patch_6">
    <path d="M 20.61 124.908736 
L 20.61 69.654368 
" style="fill: none; stroke: #000000; stroke-linejoin: miter; stroke-linecap: square"/>
   </g>
   <g id="patch_7">
    <path d="M 20.61 124.908736 
L 188.126947 124.908736 
" style="fill: none; stroke: #000000; stroke-linejoin: miter; stroke-linecap: square"/>
   </g>
   <g id="line2d_22">
    <path d="M 28.224407 101.378399 
L 30.146659 101.60653 
L 31.865432 102.060776 
L 33.742493 102.790398 
L 35.777765 103.82491 
L 37.9488 105.182849 
L 40.210265 106.861575 
L 42.516978 108.855076 
L 44.823702 111.145718 
L 47.492243 114.131905 
L 49.301412 116.01687 
L 50.92967 117.372249 
L 52.784159 118.62227 
L 54.819426 119.725046 
L 56.96782 120.638021 
L 59.274553 121.375378 
L 61.762182 121.937024 
L 64.295032 122.279721 
L 66.782663 122.397164 
L 69.111986 122.284717 
L 71.396103 121.95573 
L 73.589717 121.417044 
L 75.805986 120.640131 
L 78.090082 119.602568 
L 80.30632 118.35134 
L 82.545197 116.825681 
L 84.87455 114.964342 
L 87.203835 112.813698 
L 89.555768 110.335236 
L 92.020794 107.409575 
L 94.779823 103.775956 
L 97.900638 99.282128 
L 102.197477 92.678823 
L 107.172703 85.013447 
L 108.823582 83.043129 
L 110.700623 81.150832 
L 112.758573 79.391118 
L 114.929611 77.826871 
L 117.23629 76.440778 
L 119.701317 75.218725 
L 122.302023 74.177319 
L 124.993194 73.340715 
L 127.774798 72.711522 
L 130.465961 72.325106 
L 133.111898 72.169477 
L 135.735211 72.241033 
L 138.335915 72.534426 
L 140.84619 73.039985 
L 143.288556 73.758203 
L 145.798816 74.732299 
L 148.331686 75.952147 
L 150.95504 77.463412 
L 153.668749 79.287493 
L 156.405221 81.394166 
L 158.960622 83.643685 
L 161.448251 86.133887 
L 163.1896 88.065219 
L 163.1896 88.065219 
" clip-path="url(#pa5852ac066)" style="fill: none; stroke: #000000; stroke-width: 0.7; stroke-linecap: round"/>
   </g>
  </g>
 </g>
 <defs>
  <clipPath id="pccfdd4df72">
   <rect x="20.61" y="7.2" width="167.516947" height="55.254368"/>
  </clipPath>
  <clipPath id="pa5852ac066">
   <rect x="20.61" y="69.654368" width="167.516947" height="55.254368"/>
  </clipPath>
 </defs>
</svg>
