<?xml version="1.0" encoding="utf-8" standalone="no"?>
<!DOCTYPE svg PUBLIC "-//W3C//DTD SVG 1.1//EN"
  "http://www.w3.org/Graphics/SVG/1.1/DTD/svg11.dtd">
<svg xmlns:xlink="http://www.w3.org/1999/xlink" width="388.61928pt" height="218.623104pt" viewBox="0 0 388.61928 218.623104" xmlns="http://www.w3.org/2000/svg" version="1.1">
 <metadata>
  <rdf:RDF xmlns:dc="http://purl.org/dc/elements/1.1/" xmlns:cc="http://creativecommons.org/ns#" xmlns:rdf="http://www.w3.org/1999/02/22-rdf-syntax-ns#">
   <cc:Work>
    <dc:type rdf:resource="http://purl.org/dc/dcmitype/StillImage"/>
    <dc:date>2024-11-06T09:57:35.672028</dc:date>
    <dc:format>image/svg+xml</dc:format>
    <dc:creator>
     <cc:Agent>
      <dc:title>Matplotlib v3.8.2, https://matplotlib.org/</dc:title>
     </cc:Agent>
    </dc:creator>
   </cc:Work>
  </rdf:RDF>
 </metadata>
 <defs>
  <style type="text/css">*{stroke-linejoin: round; stroke-linecap: butt}</style>
 </defs>
 <g id="figure_1">
  <g id="patch_1">
   <path d="M 0 218.623104 
L 388.61928 218.623104 
L 388.61928 0 
L 0 0 
z
" style="fill: #ffffff"/>
  </g>
  <g id="axes_1">
   <g id="patch_2">
    <path d="M 46.89649 193.605677 
L 385.61904 193.605677 
L 385.61904 3.00024 
L 46.89649 3.00024 
z
" style="fill: #ffffff"/>
   </g>
   <g id="matplotlib.axis_1">
    <g id="xtick_1">
     <g id="line2d_1">
      <path d="M 86.453998 193.605677 
L 86.453998 3.00024 
" clip-path="url(#p0fcbfa84eb)" style="fill: none; stroke: #b0b0b0; stroke-width: 0.1; stroke-linecap: round"/>
     </g>
     <g id="line2d_2"/>
     <g id="text_1">
      <!-- 27.5 -->
      <g style="fill: #262626" transform="translate(77.547748 203.184427) scale(0.08 -0.08)">
       <defs>
        <path id="DejaVuSerif-32" d="M 819 3553 
L 469 3553 
L 469 4384 
Q 803 4563 1142 4656 
Q 1481 4750 1806 4750 
Q 2534 4750 2956 4397 
Q 3378 4044 3378 3438 
Q 3378 2753 2422 1800 
Q 2347 1728 2309 1691 
L 1131 513 
L 3078 513 
L 3078 1088 
L 3444 1088 
L 3444 0 
L 434 0 
L 434 341 
L 1850 1753 
Q 2319 2222 2519 2614 
Q 2719 3006 2719 3438 
Q 2719 3909 2473 4175 
Q 2228 4441 1797 4441 
Q 1350 4441 1106 4219 
Q 863 3997 819 3553 
z
" transform="scale(0.015625)"/>
        <path id="DejaVuSerif-37" d="M 3609 4347 
L 1784 0 
L 1319 0 
L 3059 4153 
L 903 4153 
L 903 3578 
L 538 3578 
L 538 4666 
L 3609 4666 
L 3609 4347 
z
" transform="scale(0.015625)"/>
        <path id="DejaVuSerif-2e" d="M 603 325 
Q 603 500 722 622 
Q 841 744 1019 744 
Q 1191 744 1312 622 
Q 1434 500 1434 325 
Q 1434 153 1312 31 
Q 1191 -91 1019 -91 
Q 841 -91 722 29 
Q 603 150 603 325 
z
" transform="scale(0.015625)"/>
        <path id="DejaVuSerif-35" d="M 3219 4666 
L 3219 4153 
L 1081 4153 
L 1081 2816 
Q 1244 2928 1461 2984 
Q 1678 3041 1947 3041 
Q 2703 3041 3140 2622 
Q 3578 2203 3578 1478 
Q 3578 738 3136 323 
Q 2694 -91 1894 -91 
Q 1572 -91 1234 -12 
Q 897 66 544 225 
L 544 1131 
L 897 1131 
Q 925 688 1179 453 
Q 1434 219 1894 219 
Q 2388 219 2653 544 
Q 2919 869 2919 1478 
Q 2919 2084 2655 2407 
Q 2391 2731 1894 2731 
Q 1613 2731 1398 2631 
Q 1184 2531 1019 2322 
L 750 2322 
L 750 4666 
L 3219 4666 
z
" transform="scale(0.015625)"/>
       </defs>
       <use xlink:href="#DejaVuSerif-32"/>
       <use xlink:href="#DejaVuSerif-37" x="63.623047"/>
       <use xlink:href="#DejaVuSerif-2e" x="127.246094"/>
       <use xlink:href="#DejaVuSerif-35" x="159.033203"/>
      </g>
     </g>
    </g>
    <g id="xtick_2">
     <g id="line2d_3">
      <path d="M 126.992445 193.605677 
L 126.992445 3.00024 
" clip-path="url(#p0fcbfa84eb)" style="fill: none; stroke: #b0b0b0; stroke-width: 0.1; stroke-linecap: round"/>
     </g>
     <g id="line2d_4"/>
     <g id="text_2">
      <!-- 30.0 -->
      <g style="fill: #262626" transform="translate(118.086195 203.184427) scale(0.08 -0.08)">
       <defs>
        <path id="DejaVuSerif-33" d="M 622 4469 
Q 988 4606 1323 4678 
Q 1659 4750 1953 4750 
Q 2638 4750 3022 4454 
Q 3406 4159 3406 3634 
Q 3406 3213 3140 2930 
Q 2875 2647 2388 2547 
Q 2963 2466 3280 2130 
Q 3597 1794 3597 1259 
Q 3597 606 3158 257 
Q 2719 -91 1894 -91 
Q 1528 -91 1179 -12 
Q 831 66 488 225 
L 488 1131 
L 838 1131 
Q 869 681 1141 450 
Q 1413 219 1906 219 
Q 2384 219 2661 495 
Q 2938 772 2938 1253 
Q 2938 1803 2653 2086 
Q 2369 2369 1819 2369 
L 1522 2369 
L 1522 2688 
L 1678 2688 
Q 2225 2688 2498 2914 
Q 2772 3141 2772 3597 
Q 2772 4006 2547 4223 
Q 2322 4441 1900 4441 
Q 1478 4441 1245 4241 
Q 1013 4041 972 3647 
L 622 3647 
L 622 4469 
z
" transform="scale(0.015625)"/>
        <path id="DejaVuSerif-30" d="M 2034 219 
Q 2513 219 2750 744 
Q 2988 1269 2988 2328 
Q 2988 3391 2750 3916 
Q 2513 4441 2034 4441 
Q 1556 4441 1318 3916 
Q 1081 3391 1081 2328 
Q 1081 1269 1318 744 
Q 1556 219 2034 219 
z
M 2034 -91 
Q 1275 -91 848 546 
Q 422 1184 422 2328 
Q 422 3475 848 4112 
Q 1275 4750 2034 4750 
Q 2797 4750 3222 4112 
Q 3647 3475 3647 2328 
Q 3647 1184 3222 546 
Q 2797 -91 2034 -91 
z
" transform="scale(0.015625)"/>
       </defs>
       <use xlink:href="#DejaVuSerif-33"/>
       <use xlink:href="#DejaVuSerif-30" x="63.623047"/>
       <use xlink:href="#DejaVuSerif-2e" x="127.246094"/>
       <use xlink:href="#DejaVuSerif-30" x="159.033203"/>
      </g>
     </g>
    </g>
    <g id="xtick_3">
     <g id="line2d_5">
      <path d="M 167.530892 193.605677 
L 167.530892 3.00024 
" clip-path="url(#p0fcbfa84eb)" style="fill: none; stroke: #b0b0b0; stroke-width: 0.1; stroke-linecap: round"/>
     </g>
     <g id="line2d_6"/>
     <g id="text_3">
      <!-- 32.5 -->
      <g style="fill: #262626" transform="translate(158.624642 203.184427) scale(0.08 -0.08)">
       <use xlink:href="#DejaVuSerif-33"/>
       <use xlink:href="#DejaVuSerif-32" x="63.623047"/>
       <use xlink:href="#DejaVuSerif-2e" x="127.246094"/>
       <use xlink:href="#DejaVuSerif-35" x="159.033203"/>
      </g>
     </g>
    </g>
    <g id="xtick_4">
     <g id="line2d_7">
      <path d="M 208.069339 193.605677 
L 208.069339 3.00024 
" clip-path="url(#p0fcbfa84eb)" style="fill: none; stroke: #b0b0b0; stroke-width: 0.1; stroke-linecap: round"/>
     </g>
     <g id="line2d_8"/>
     <g id="text_4">
      <!-- 35.0 -->
      <g style="fill: #262626" transform="translate(199.163089 203.184427) scale(0.08 -0.08)">
       <use xlink:href="#DejaVuSerif-33"/>
       <use xlink:href="#DejaVuSerif-35" x="63.623047"/>
       <use xlink:href="#DejaVuSerif-2e" x="127.246094"/>
       <use xlink:href="#DejaVuSerif-30" x="159.033203"/>
      </g>
     </g>
    </g>
    <g id="xtick_5">
     <g id="line2d_9">
      <path d="M 248.607786 193.605677 
L 248.607786 3.00024 
" clip-path="url(#p0fcbfa84eb)" style="fill: none; stroke: #b0b0b0; stroke-width: 0.1; stroke-linecap: round"/>
     </g>
     <g id="line2d_10"/>
     <g id="text_5">
      <!-- 37.5 -->
      <g style="fill: #262626" transform="translate(239.701536 203.184427) scale(0.08 -0.08)">
       <use xlink:href="#DejaVuSerif-33"/>
       <use xlink:href="#DejaVuSerif-37" x="63.623047"/>
       <use xlink:href="#DejaVuSerif-2e" x="127.246094"/>
       <use xlink:href="#DejaVuSerif-35" x="159.033203"/>
      </g>
     </g>
    </g>
    <g id="xtick_6">
     <g id="line2d_11">
      <path d="M 289.146234 193.605677 
L 289.146234 3.00024 
" clip-path="url(#p0fcbfa84eb)" style="fill: none; stroke: #b0b0b0; stroke-width: 0.1; stroke-linecap: round"/>
     </g>
     <g id="line2d_12"/>
     <g id="text_6">
      <!-- 40.0 -->
      <g style="fill: #262626" transform="translate(280.239984 203.184427) scale(0.08 -0.08)">
       <defs>
        <path id="DejaVuSerif-34" d="M 2234 1581 
L 2234 4063 
L 641 1581 
L 2234 1581 
z
M 3609 0 
L 1484 0 
L 1484 331 
L 2234 331 
L 2234 1247 
L 197 1247 
L 197 1588 
L 2241 4750 
L 2859 4750 
L 2859 1581 
L 3750 1581 
L 3750 1247 
L 2859 1247 
L 2859 331 
L 3609 331 
L 3609 0 
z
" transform="scale(0.015625)"/>
       </defs>
       <use xlink:href="#DejaVuSerif-34"/>
       <use xlink:href="#DejaVuSerif-30" x="63.623047"/>
       <use xlink:href="#DejaVuSerif-2e" x="127.246094"/>
       <use xlink:href="#DejaVuSerif-30" x="159.033203"/>
      </g>
     </g>
    </g>
    <g id="xtick_7">
     <g id="line2d_13">
      <path d="M 329.684681 193.605677 
L 329.684681 3.00024 
" clip-path="url(#p0fcbfa84eb)" style="fill: none; stroke: #b0b0b0; stroke-width: 0.1; stroke-linecap: round"/>
     </g>
     <g id="line2d_14"/>
     <g id="text_7">
      <!-- 42.5 -->
      <g style="fill: #262626" transform="translate(320.778431 203.184427) scale(0.08 -0.08)">
       <use xlink:href="#DejaVuSerif-34"/>
       <use xlink:href="#DejaVuSerif-32" x="63.623047"/>
       <use xlink:href="#DejaVuSerif-2e" x="127.246094"/>
       <use xlink:href="#DejaVuSerif-35" x="159.033203"/>
      </g>
     </g>
    </g>
    <g id="xtick_8">
     <g id="line2d_15">
      <path d="M 370.223128 193.605677 
L 370.223128 3.00024 
" clip-path="url(#p0fcbfa84eb)" style="fill: none; stroke: #b0b0b0; stroke-width: 0.1; stroke-linecap: round"/>
     </g>
     <g id="line2d_16"/>
     <g id="text_8">
      <!-- 45.0 -->
      <g style="fill: #262626" transform="translate(361.316878 203.184427) scale(0.08 -0.08)">
       <use xlink:href="#DejaVuSerif-34"/>
       <use xlink:href="#DejaVuSerif-35" x="63.623047"/>
       <use xlink:href="#DejaVuSerif-2e" x="127.246094"/>
       <use xlink:href="#DejaVuSerif-30" x="159.033203"/>
      </g>
     </g>
    </g>
    <g id="text_9">
     <!-- time -->
     <g style="fill: #262626" transform="translate(208.341202 214.167083) scale(0.07 -0.07)">
      <defs>
       <path id="DejaVuSerif-74" d="M 691 2988 
L 184 2988 
L 184 3322 
L 691 3322 
L 691 4353 
L 1269 4353 
L 1269 3322 
L 2350 3322 
L 2350 2988 
L 1269 2988 
L 1269 878 
Q 1269 456 1350 337 
Q 1431 219 1650 219 
Q 1875 219 1978 351 
Q 2081 484 2088 781 
L 2522 781 
Q 2497 328 2275 118 
Q 2053 -91 1600 -91 
Q 1103 -91 897 129 
Q 691 350 691 878 
L 691 2988 
z
" transform="scale(0.015625)"/>
       <path id="DejaVuSerif-69" d="M 622 4353 
Q 622 4497 726 4603 
Q 831 4709 978 4709 
Q 1122 4709 1226 4603 
Q 1331 4497 1331 4353 
Q 1331 4206 1228 4103 
Q 1125 4000 978 4000 
Q 831 4000 726 4103 
Q 622 4206 622 4353 
z
M 1356 331 
L 1900 331 
L 1900 0 
L 231 0 
L 231 331 
L 781 331 
L 781 2988 
L 231 2988 
L 231 3322 
L 1356 3322 
L 1356 331 
z
" transform="scale(0.015625)"/>
       <path id="DejaVuSerif-6d" d="M 3316 2675 
Q 3481 3041 3739 3227 
Q 3997 3413 4341 3413 
Q 4863 3413 5119 3089 
Q 5375 2766 5375 2113 
L 5375 331 
L 5894 331 
L 5894 0 
L 4300 0 
L 4300 331 
L 4800 331 
L 4800 2047 
Q 4800 2556 4650 2772 
Q 4500 2988 4153 2988 
Q 3769 2988 3567 2697 
Q 3366 2406 3366 1850 
L 3366 331 
L 3866 331 
L 3866 0 
L 2291 0 
L 2291 331 
L 2791 331 
L 2791 2069 
Q 2791 2566 2641 2777 
Q 2491 2988 2144 2988 
Q 1759 2988 1557 2697 
Q 1356 2406 1356 1850 
L 1356 331 
L 1856 331 
L 1856 0 
L 263 0 
L 263 331 
L 781 331 
L 781 2994 
L 231 2994 
L 231 3322 
L 1356 3322 
L 1356 2731 
Q 1516 3063 1762 3238 
Q 2009 3413 2322 3413 
Q 2709 3413 2968 3220 
Q 3228 3028 3316 2675 
z
" transform="scale(0.015625)"/>
       <path id="DejaVuSerif-65" d="M 3469 1600 
L 991 1600 
L 991 1575 
Q 991 903 1244 561 
Q 1497 219 1991 219 
Q 2369 219 2611 417 
Q 2853 616 2950 1006 
L 3413 1006 
Q 3275 459 2904 184 
Q 2534 -91 1931 -91 
Q 1203 -91 761 389 
Q 319 869 319 1663 
Q 319 2450 753 2931 
Q 1188 3413 1894 3413 
Q 2647 3413 3050 2948 
Q 3453 2484 3469 1600 
z
M 2791 1931 
Q 2772 2513 2545 2808 
Q 2319 3103 1894 3103 
Q 1497 3103 1269 2806 
Q 1041 2509 991 1931 
L 2791 1931 
z
" transform="scale(0.015625)"/>
      </defs>
      <use xlink:href="#DejaVuSerif-74"/>
      <use xlink:href="#DejaVuSerif-69" x="40.185547"/>
      <use xlink:href="#DejaVuSerif-6d" x="72.167969"/>
      <use xlink:href="#DejaVuSerif-65" x="166.992188"/>
     </g>
    </g>
   </g>
   <g id="matplotlib.axis_2">
    <g id="ytick_1">
     <g id="line2d_17">
      <path d="M 46.89649 190.119176 
L 385.61904 190.119176 
" clip-path="url(#p0fcbfa84eb)" style="fill: none; stroke: #b0b0b0; stroke-width: 0.1; stroke-linecap: round"/>
     </g>
     <g id="line2d_18"/>
     <g id="text_10">
      <!-- −0.015 -->
      <g style="fill: #262626" transform="translate(13.79024 193.158551) scale(0.08 -0.08)">
       <defs>
        <path id="DejaVuSerif-2212" d="M 678 2259 
L 4684 2259 
L 4684 1753 
L 678 1753 
L 678 2259 
z
" transform="scale(0.015625)"/>
        <path id="DejaVuSerif-31" d="M 909 0 
L 909 331 
L 1722 331 
L 1722 4213 
L 781 3603 
L 781 4013 
L 1919 4750 
L 2350 4750 
L 2350 331 
L 3163 331 
L 3163 0 
L 909 0 
z
" transform="scale(0.015625)"/>
       </defs>
       <use xlink:href="#DejaVuSerif-2212"/>
       <use xlink:href="#DejaVuSerif-30" x="83.789062"/>
       <use xlink:href="#DejaVuSerif-2e" x="147.412109"/>
       <use xlink:href="#DejaVuSerif-30" x="179.199219"/>
       <use xlink:href="#DejaVuSerif-31" x="242.822266"/>
       <use xlink:href="#DejaVuSerif-35" x="306.445312"/>
      </g>
     </g>
    </g>
    <g id="ytick_2">
     <g id="line2d_19">
      <path d="M 46.89649 161.924948 
L 385.61904 161.924948 
" clip-path="url(#p0fcbfa84eb)" style="fill: none; stroke: #b0b0b0; stroke-width: 0.1; stroke-linecap: round"/>
     </g>
     <g id="line2d_20"/>
     <g id="text_11">
      <!-- −0.010 -->
      <g style="fill: #262626" transform="translate(13.79024 164.964323) scale(0.08 -0.08)">
       <use xlink:href="#DejaVuSerif-2212"/>
       <use xlink:href="#DejaVuSerif-30" x="83.789062"/>
       <use xlink:href="#DejaVuSerif-2e" x="147.412109"/>
       <use xlink:href="#DejaVuSerif-30" x="179.199219"/>
       <use xlink:href="#DejaVuSerif-31" x="242.822266"/>
       <use xlink:href="#DejaVuSerif-30" x="306.445312"/>
      </g>
     </g>
    </g>
    <g id="ytick_3">
     <g id="line2d_21">
      <path d="M 46.89649 133.730719 
L 385.61904 133.730719 
" clip-path="url(#p0fcbfa84eb)" style="fill: none; stroke: #b0b0b0; stroke-width: 0.1; stroke-linecap: round"/>
     </g>
     <g id="line2d_22"/>
     <g id="text_12">
      <!-- −0.005 -->
      <g style="fill: #262626" transform="translate(13.79024 136.770094) scale(0.08 -0.08)">
       <use xlink:href="#DejaVuSerif-2212"/>
       <use xlink:href="#DejaVuSerif-30" x="83.789062"/>
       <use xlink:href="#DejaVuSerif-2e" x="147.412109"/>
       <use xlink:href="#DejaVuSerif-30" x="179.199219"/>
       <use xlink:href="#DejaVuSerif-30" x="242.822266"/>
       <use xlink:href="#DejaVuSerif-35" x="306.445312"/>
      </g>
     </g>
    </g>
    <g id="ytick_4">
     <g id="line2d_23">
      <path d="M 46.89649 105.536491 
L 385.61904 105.536491 
" clip-path="url(#p0fcbfa84eb)" style="fill: none; stroke: #b0b0b0; stroke-width: 0.1; stroke-linecap: round"/>
     </g>
     <g id="line2d_24"/>
     <g id="text_13">
      <!-- 0.000 -->
      <g style="fill: #262626" transform="translate(20.49399 108.575866) scale(0.08 -0.08)">
       <use xlink:href="#DejaVuSerif-30"/>
       <use xlink:href="#DejaVuSerif-2e" x="63.623047"/>
       <use xlink:href="#DejaVuSerif-30" x="95.410156"/>
       <use xlink:href="#DejaVuSerif-30" x="159.033203"/>
       <use xlink:href="#DejaVuSerif-30" x="222.65625"/>
      </g>
     </g>
    </g>
    <g id="ytick_5">
     <g id="line2d_25">
      <path d="M 46.89649 77.342263 
L 385.61904 77.342263 
" clip-path="url(#p0fcbfa84eb)" style="fill: none; stroke: #b0b0b0; stroke-width: 0.1; stroke-linecap: round"/>
     </g>
     <g id="line2d_26"/>
     <g id="text_14">
      <!-- 0.005 -->
      <g style="fill: #262626" transform="translate(20.49399 80.381638) scale(0.08 -0.08)">
       <use xlink:href="#DejaVuSerif-30"/>
       <use xlink:href="#DejaVuSerif-2e" x="63.623047"/>
       <use xlink:href="#DejaVuSerif-30" x="95.410156"/>
       <use xlink:href="#DejaVuSerif-30" x="159.033203"/>
       <use xlink:href="#DejaVuSerif-35" x="222.65625"/>
      </g>
     </g>
    </g>
    <g id="ytick_6">
     <g id="line2d_27">
      <path d="M 46.89649 49.148035 
L 385.61904 49.148035 
" clip-path="url(#p0fcbfa84eb)" style="fill: none; stroke: #b0b0b0; stroke-width: 0.1; stroke-linecap: round"/>
     </g>
     <g id="line2d_28"/>
     <g id="text_15">
      <!-- 0.010 -->
      <g style="fill: #262626" transform="translate(20.49399 52.18741) scale(0.08 -0.08)">
       <use xlink:href="#DejaVuSerif-30"/>
       <use xlink:href="#DejaVuSerif-2e" x="63.623047"/>
       <use xlink:href="#DejaVuSerif-30" x="95.410156"/>
       <use xlink:href="#DejaVuSerif-31" x="159.033203"/>
       <use xlink:href="#DejaVuSerif-30" x="222.65625"/>
      </g>
     </g>
    </g>
    <g id="ytick_7">
     <g id="line2d_29">
      <path d="M 46.89649 20.953806 
L 385.61904 20.953806 
" clip-path="url(#p0fcbfa84eb)" style="fill: none; stroke: #b0b0b0; stroke-width: 0.1; stroke-linecap: round"/>
     </g>
     <g id="line2d_30"/>
     <g id="text_16">
      <!-- 0.015 -->
      <g style="fill: #262626" transform="translate(20.49399 23.993181) scale(0.08 -0.08)">
       <use xlink:href="#DejaVuSerif-30"/>
       <use xlink:href="#DejaVuSerif-2e" x="63.623047"/>
       <use xlink:href="#DejaVuSerif-30" x="95.410156"/>
       <use xlink:href="#DejaVuSerif-31" x="159.033203"/>
       <use xlink:href="#DejaVuSerif-35" x="222.65625"/>
      </g>
     </g>
    </g>
    <g id="text_17">
     <!-- $y_0$ [m] -->
     <g style="fill: #262626" transform="translate(8.32024 109.222958) rotate(-90) scale(0.07 -0.07)">
      <defs>
       <path id="DejaVuSans-Oblique-79" d="M 1588 -325 
Q 1188 -997 936 -1164 
Q 684 -1331 294 -1331 
L -159 -1331 
L -63 -850 
L 269 -850 
Q 509 -850 678 -719 
Q 847 -588 1056 -206 
L 1234 128 
L 459 3500 
L 1069 3500 
L 1650 819 
L 3256 3500 
L 3859 3500 
L 1588 -325 
z
" transform="scale(0.015625)"/>
       <path id="DejaVuSans-30" d="M 2034 4250 
Q 1547 4250 1301 3770 
Q 1056 3291 1056 2328 
Q 1056 1369 1301 889 
Q 1547 409 2034 409 
Q 2525 409 2770 889 
Q 3016 1369 3016 2328 
Q 3016 3291 2770 3770 
Q 2525 4250 2034 4250 
z
M 2034 4750 
Q 2819 4750 3233 4129 
Q 3647 3509 3647 2328 
Q 3647 1150 3233 529 
Q 2819 -91 2034 -91 
Q 1250 -91 836 529 
Q 422 1150 422 2328 
Q 422 3509 836 4129 
Q 1250 4750 2034 4750 
z
" transform="scale(0.015625)"/>
       <path id="DejaVuSerif-20" transform="scale(0.015625)"/>
       <path id="DejaVuSerif-5b" d="M 550 4863 
L 2003 4863 
L 2003 4531 
L 1147 4531 
L 1147 -513 
L 2003 -513 
L 2003 -844 
L 550 -844 
L 550 4863 
z
" transform="scale(0.015625)"/>
       <path id="DejaVuSerif-5d" d="M 1947 4863 
L 1947 -844 
L 494 -844 
L 494 -513 
L 1350 -513 
L 1350 4531 
L 494 4531 
L 494 4863 
L 1947 4863 
z
" transform="scale(0.015625)"/>
      </defs>
      <use xlink:href="#DejaVuSans-Oblique-79" transform="translate(0 0.015625)"/>
      <use xlink:href="#DejaVuSans-30" transform="translate(59.179688 -16.390625) scale(0.7)"/>
      <use xlink:href="#DejaVuSerif-20" transform="translate(106.450195 0.015625)"/>
      <use xlink:href="#DejaVuSerif-5b" transform="translate(138.237305 0.015625)"/>
      <use xlink:href="#DejaVuSerif-6d" transform="translate(177.250977 0.015625)"/>
      <use xlink:href="#DejaVuSerif-5d" transform="translate(272.075195 0.015625)"/>
     </g>
    </g>
   </g>
   <g id="line2d_31">
    <path d="M 62.29297 115.749795 
L 66.022053 54.029732 
L 67.319429 36.693736 
L 68.292157 26.488198 
L 69.102942 19.962373 
L 69.751606 16.063227 
L 70.400383 13.426796 
L 70.886747 12.217561 
L 71.211006 11.790443 
L 71.53593 11.664123 
L 71.859621 11.84874 
L 72.18401 12.378872 
L 72.670374 13.780769 
L 73.319022 16.645578 
L 74.130358 21.730964 
L 74.940722 28.323302 
L 75.913369 38.186871 
L 77.048591 52.24704 
L 78.832267 77.634775 
L 83.85944 150.978642 
L 85.156232 165.240252 
L 86.129155 173.597033 
L 86.93994 178.85664 
L 87.588701 181.84546 
L 88.237251 183.822882 
L 88.723583 184.662387 
L 89.048069 184.90539 
L 89.372214 184.927357 
L 89.696554 184.713172 
L 90.021024 184.243898 
L 90.507453 183.022583 
L 91.156085 180.514005 
L 91.804992 177.121299 
L 92.777639 170.491235 
L 93.912699 161.090522 
L 95.048035 149.925616 
L 96.831386 129.523668 
L 100.723045 83.832841 
L 102.020275 71.01061 
L 103.155449 61.931507 
L 104.128371 55.827 
L 104.939027 52.084255 
L 105.587804 50.097488 
L 106.074217 49.130456 
L 106.560727 48.631287 
L 106.884872 48.581741 
L 107.209391 48.735656 
L 107.696111 49.337059 
L 108.182249 50.314904 
L 108.830669 52.253564 
L 109.641454 55.577987 
L 110.452369 59.839433 
L 111.425357 66.242205 
L 112.722555 76.321932 
L 114.668335 93.474677 
L 118.073922 124.091613 
L 119.532803 134.811887 
L 120.667944 141.587836 
L 121.640916 146.034023 
L 122.289596 148.152881 
L 122.938081 149.570208 
L 123.586664 150.444341 
L 124.073158 150.748459 
L 124.397433 150.746124 
L 124.721935 150.578455 
L 125.208186 150.007861 
L 125.694825 149.09907 
L 126.505416 146.930386 
L 127.316233 144.079096 
L 128.289335 139.799742 
L 129.424589 133.703096 
L 130.721495 125.520769 
L 132.667341 111.791169 
L 135.586077 91.440781 
L 137.045655 82.769969 
L 138.018594 78.139537 
L 138.991744 74.427166 
L 139.802254 72.122981 
L 140.612877 70.560434 
L 141.099273 69.993079 
L 141.585978 69.734838 
L 142.072131 69.763626 
L 142.558609 70.043068 
L 143.045297 70.584309 
L 143.53205 71.406435 
L 144.18013 72.956087 
L 145.153215 75.995992 
L 146.288454 80.434931 
L 147.585749 86.602288 
L 149.369214 96.196382 
L 152.77433 115.289592 
L 154.071592 121.171408 
L 155.530928 126.737658 
L 156.34181 129.087251 
L 157.152887 130.895839 
L 157.963218 132.173433 
L 158.611898 132.772215 
L 159.098457 132.951754 
L 159.584886 132.921115 
L 160.07125 132.689306 
L 160.557955 132.238101 
L 161.36848 131.147682 
L 162.179444 129.628293 
L 163.152513 127.179135 
L 164.287573 123.522971 
L 165.746779 117.887458 
L 168.016834 108.22623 
L 170.124818 99.387954 
L 171.908542 93.15243 
L 173.368055 88.686159 
L 174.178695 86.888402 
L 175.151731 85.270766 
L 175.800233 84.605727 
L 176.610985 84.142421 
L 177.259714 84.093795 
L 177.908345 84.287559 
L 178.556977 84.795893 
L 179.20577 85.678167 
L 180.178304 87.446653 
L 181.151356 89.753834 
L 182.448846 93.486352 
L 184.880845 101.412299 
L 186.66478 107.098568 
L 190.069685 117.136483 
L 191.04264 119.075619 
L 192.015595 120.611242 
L 192.826332 121.445443 
L 193.475012 121.906391 
L 194.123692 122.09905 
L 194.610007 122.039245 
L 195.258606 121.721381 
L 195.907529 121.151872 
L 197.042411 119.798935 
L 198.015237 118.282758 
L 199.312872 115.640816 
L 201.420434 110.770129 
L 206.771541 98.368554 
L 208.068804 96.109214 
L 209.041727 94.833439 
L 209.85269 94.084896 
L 210.663184 93.618217 
L 211.636155 93.355261 
L 212.77128 93.313549 
L 213.257758 93.447452 
L 213.90634 93.886967 
L 214.717093 94.769833 
L 216.014324 96.596393 
L 217.149676 98.418864 
L 218.284995 100.849944 
L 222.662661 110.913211 
L 223.959843 113.158942 
L 225.094919 114.678638 
L 226.067939 115.604529 
L 226.878692 116.091171 
L 227.689558 116.309744 
L 228.500279 116.26083 
L 229.311064 115.988307 
L 230.932521 115.130266 
L 231.581249 114.572753 
L 232.716245 113.207957 
L 234.013345 111.403135 
L 240.499643 100.894082 
L 241.310477 99.96555 
L 242.121132 99.391289 
L 244.229472 98.26502 
L 245.364321 97.938725 
L 246.337228 97.878202 
L 247.310102 98.042057 
L 248.283073 98.44002 
L 249.418118 99.175131 
L 250.715348 100.335363 
L 252.174635 101.951879 
L 254.282618 104.666504 
L 257.363799 108.611029 
L 258.822891 110.139276 
L 260.120284 111.18031 
L 261.093223 111.722646 
L 262.066259 112.007541 
L 263.039052 112.033199 
L 264.01191 111.818604 
L 265.147084 111.320743 
L 266.768573 110.298069 
L 269.200766 108.597349 
L 274.876262 103.182557 
L 276.011452 102.496996 
L 278.281378 101.045216 
L 279.578641 100.495507 
L 280.713701 100.236216 
L 281.84881 100.205327 
L 282.983968 100.394921 
L 284.281458 100.860285 
L 285.740696 101.640942 
L 287.524225 102.884961 
L 293.523932 107.210405 
L 295.145843 107.953304 
L 296.604854 108.376625 
L 298.712723 108.968595 
L 299.523736 109.210105 
L 300.334537 109.190841 
L 302.605128 108.73652 
L 303.415232 108.403965 
L 307.469158 106.141253 
L 308.766437 105.387404 
L 309.739295 105.11984 
L 310.874549 104.659368 
L 315.090418 102.735771 
L 316.387535 102.477841 
L 317.68483 102.436021 
L 319.306271 102.61335 
L 321.252359 103.077046 
L 323.684553 103.891662 
L 325.792584 104.801063 
L 326.927515 105.526299 
L 328.387013 106.588417 
L 329.359968 106.944973 
L 332.765165 107.786186 
L 336.170281 107.58371 
L 338.764871 106.913023 
L 340.061988 106.444675 
L 341.19713 106.144253 
L 344.116157 104.993555 
L 346.061792 104.841882 
L 350.926292 103.652221 
L 352.547846 103.61769 
L 355.304639 103.836974 
L 356.926031 104.142715 
L 358.22318 104.58151 
L 359.35863 105.214572 
L 360.979908 106.270036 
L 362.115098 106.615241 
L 364.222919 107.20932 
L 365.033931 107.512671 
L 366.49304 107.714203 
L 368.438901 107.881214 
L 370.22256 107.779813 
L 370.22256 107.779813 
" clip-path="url(#p0fcbfa84eb)" style="fill: none; stroke: #2a2eec; stroke-width: 0.4; stroke-linecap: round"/>
   </g>
   <g id="line2d_32">
    <path d="M 62.29297 90.367096 
L 63.265568 92.953107 
L 64.400482 95.305917 
L 64.725114 95.915616 
L 65.860418 98.118226 
L 66.833049 100.132377 
L 67.481453 101.421377 
L 67.968141 102.235505 
L 71.53593 108.443452 
L 72.18401 109.263546 
L 72.508156 109.517806 
L 72.994633 110.020413 
L 75.102584 111.986149 
L 75.426891 112.180496 
L 76.07562 112.462647 
L 76.238001 112.426345 
L 76.886373 112.646106 
L 77.211053 112.633112 
L 77.535264 112.769892 
L 79.643441 113.13837 
L 80.453934 113.090703 
L 81.102566 113.121942 
L 82.075456 113.006997 
L 82.237804 113.184731 
L 82.399585 112.944994 
L 82.561917 112.966998 
L 82.724266 113.17137 
L 84.669982 112.863632 
L 85.804961 112.195279 
L 86.615714 111.802178 
L 86.93994 111.665947 
L 87.750644 111.291649 
L 88.561932 110.950997 
L 89.21019 110.544353 
L 90.183421 109.946807 
L 90.831631 109.523074 
L 92.615485 108.984878 
L 92.939809 109.043464 
L 93.101833 108.955273 
L 93.426286 109.018501 
L 93.588943 108.899381 
L 93.750334 109.032668 
L 94.074691 108.921984 
L 94.236942 109.043656 
L 94.561136 108.939868 
L 94.7235 109.032408 
L 95.048035 108.978257 
L 96.182901 109.141008 
L 96.669394 109.294674 
L 98.939466 109.105109 
L 99.101507 109.024299 
L 99.42583 109.068612 
L 100.723045 108.906235 
L 101.047287 108.928725 
L 101.209538 108.751688 
L 101.534462 108.790436 
L 101.696016 108.664477 
L 102.020275 108.725944 
L 102.182461 108.560326 
L 102.344874 108.642085 
L 102.831141 108.378705 
L 103.155449 108.306433 
L 103.804258 108.151605 
L 103.966088 108.203073 
L 104.128371 108.124205 
L 104.290428 108.191555 
L 104.614784 108.136399 
L 104.939027 108.202481 
L 105.425634 108.254479 
L 105.587804 108.37752 
L 105.911966 108.366128 
L 107.696111 108.243387 
L 108.34424 108.198564 
L 109.317357 108.314674 
L 109.803803 108.299544 
L 115.154797 106.472997 
L 115.316918 106.53506 
L 115.641258 106.343635 
L 115.803347 106.385291 
L 116.127849 106.221675 
L 117.262763 105.87882 
L 117.749095 105.878786 
L 118.884318 105.658857 
L 119.532803 105.34155 
L 119.695086 105.400483 
L 120.506131 105.080923 
L 120.667944 105.140504 
L 120.992544 104.966091 
L 121.154535 105.005273 
L 121.478875 104.914488 
L 122.613774 104.615463 
L 122.776171 104.480901 
L 123.100284 104.449477 
L 123.262454 104.307569 
L 123.424672 104.364385 
L 124.235344 104.077837 
L 124.5597 103.99727 
L 126.667618 103.488527 
L 128.937739 103.834504 
L 129.262209 103.944746 
L 129.424589 103.930638 
L 129.586338 104.09638 
L 130.072832 104.213466 
L 132.180912 104.862705 
L 133.478045 105.062794 
L 133.640247 105.031437 
L 133.964733 105.081651 
L 136.396878 105.58465 
L 137.045655 105.489967 
L 137.532165 105.572209 
L 137.694173 105.561974 
L 138.018594 105.662086 
L 138.180489 105.648673 
L 138.342724 105.765772 
L 138.667096 105.75688 
L 139.315598 105.904165 
L 139.802254 105.955633 
L 140.126399 106.08894 
L 140.450723 106.109485 
L 141.261476 106.115283 
L 142.072131 106.217507 
L 142.721022 106.280442 
L 145.153215 106.821372 
L 145.477458 106.823343 
L 146.126073 106.746363 
L 146.450413 106.765238 
L 147.098947 106.739062 
L 147.423352 106.745965 
L 148.072064 106.754994 
L 150.018007 106.583694 
L 150.179901 106.672652 
L 150.504241 106.549335 
L 150.828776 106.620155 
L 151.477164 106.592178 
L 151.801472 106.654182 
L 152.125682 106.603866 
L 152.287852 106.654926 
L 152.612225 106.566371 
L 153.423302 106.324798 
L 156.34181 105.577656 
L 156.50411 105.590651 
L 156.666037 105.475202 
L 156.990409 105.520584 
L 157.152887 105.384515 
L 157.476838 105.407272 
L 157.80134 105.30657 
L 158.449696 105.208797 
L 158.774279 105.082849 
L 159.26066 104.993122 
L 161.044189 104.744037 
L 161.36848 104.840261 
L 161.855347 104.868619 
L 163.152513 104.970331 
L 163.314375 104.905022 
L 163.639104 104.965709 
L 163.801031 104.909471 
L 164.125225 105.030578 
L 164.287573 104.947285 
L 164.611686 105.03802 
L 165.422422 105.142706 
L 166.071281 105.22727 
L 166.233256 105.195893 
L 166.557386 105.317151 
L 166.719718 105.238646 
L 166.882293 105.330619 
L 167.206211 105.302208 
L 167.530422 105.325918 
L 167.692624 105.230844 
L 168.016834 105.290378 
L 169.314049 105.447636 
L 169.638372 105.461574 
L 170.287052 105.61 
L 170.611782 105.723563 
L 171.422226 105.926745 
L 173.69225 105.667158 
L 174.016573 105.73825 
L 174.178695 105.695196 
L 174.503181 105.784397 
L 174.66548 105.701648 
L 174.989577 105.755553 
L 175.475941 105.716012 
L 175.962759 105.699036 
L 176.286743 105.6613 
L 178.719098 105.623065 
L 179.043389 105.676479 
L 179.367746 105.707241 
L 180.016442 105.75275 
L 180.340539 105.725194 
L 180.664862 105.737101 
L 181.313802 105.849298 
L 182.934918 106.112033 
L 184.070092 106.132128 
L 184.718561 106.038094 
L 186.340213 105.779827 
L 187.475435 105.581668 
L 188.448179 105.683233 
L 188.772487 105.778192 
L 189.421313 105.945289 
L 190.069685 105.948744 
L 190.394057 106.00881 
L 190.55626 105.937727 
L 190.88047 106.015909 
L 191.204794 106.005123 
L 191.853409 106.084883 
L 192.339919 106.021935 
L 192.988664 105.979795 
L 193.63723 105.881824 
L 194.285716 105.848377 
L 197.69114 105.357717 
L 198.339544 105.296322 
L 198.82633 105.184098 
L 199.150329 105.259583 
L 199.312872 105.196859 
L 199.636872 105.262418 
L 200.7719 105.457384 
L 201.096143 105.479912 
L 205.636627 106.287123 
L 205.798554 106.391465 
L 206.122975 106.380572 
L 209.041727 106.63067 
L 210.50163 106.749341 
L 212.122876 106.748312 
L 212.933515 106.530964 
L 213.257758 106.50612 
L 214.555134 106.53604 
L 215.041449 106.605336 
L 216.338647 106.663668 
L 216.662939 106.587901 
L 217.473821 106.639297 
L 220.878937 107.773179 
L 221.041415 107.870662 
L 221.365415 107.907893 
L 221.85186 108.000849 
L 222.824783 108.044192 
L 223.797689 108.002285 
L 224.933074 107.935216 
L 226.067939 107.669068 
L 226.554482 107.549461 
L 227.527307 107.145579 
L 228.338044 106.822419 
L 229.473137 106.328892 
L 230.770351 105.962103 
L 231.094626 105.922459 
L 235.472811 104.646829 
L 235.79754 104.643104 
L 236.607903 104.594078 
L 237.256746 104.581477 
L 237.580875 104.534634 
L 238.391644 104.613919 
L 240.823918 104.446185 
L 242.121132 104.932869 
L 242.770007 105.231725 
L 243.418654 105.427944 
L 244.067091 105.530348 
L 244.877941 105.674678 
L 251.850295 106.451281 
L 252.174635 106.427603 
L 252.337048 106.485386 
L 252.661177 106.460681 
L 253.147638 106.551066 
L 253.472432 106.521633 
L 253.63397 106.614624 
L 253.958278 106.56842 
L 254.282618 106.645825 
L 254.444771 106.598801 
L 254.76942 106.677323 
L 255.0935 106.714034 
L 255.255816 106.744946 
L 255.417791 106.65974 
L 255.742115 106.771984 
L 256.715087 106.750499 
L 257.039346 106.741175 
L 258.012285 106.746549 
L 259.796236 106.633766 
L 260.120284 106.677642 
L 260.44451 106.654878 
L 261.255685 106.494495 
L 262.066259 106.35451 
L 262.390356 106.265406 
L 263.039052 106.13426 
L 263.363278 106.009903 
L 263.525465 106.016409 
L 263.850388 105.862625 
L 264.336363 105.719191 
L 266.606387 104.969743 
L 266.768573 105.018087 
L 267.093464 104.93276 
L 267.903666 105.012166 
L 269.200766 105.002946 
L 269.687244 104.909134 
L 271.146871 104.901482 
L 271.633462 104.995621 
L 271.957608 104.984672 
L 272.606385 104.915096 
L 273.903291 104.769133 
L 274.389752 104.799777 
L 276.335614 105.257768 
L 277.146318 105.283653 
L 277.795014 105.221066 
L 282.983968 104.997787 
L 283.308276 105.025056 
L 283.794915 105.014674 
L 285.740696 105.077453 
L 286.875464 105.103344 
L 287.361991 105.081712 
L 288.983577 105.168915 
L 289.470022 105.16243 
L 291.253682 105.159776 
L 297.577614 104.947354 
L 298.55078 105.16704 
L 299.523736 105.512922 
L 301.469435 105.576075 
L 301.793937 105.647561 
L 302.280155 105.75278 
L 302.766682 105.826879 
L 303.901791 105.853013 
L 304.22592 105.758535 
L 304.388268 105.835678 
L 304.712462 105.774173 
L 305.361207 105.92612 
L 305.685531 105.908443 
L 306.010114 106.015814 
L 306.334114 105.988167 
L 306.820526 105.982893 
L 306.982777 105.998276 
L 307.144769 105.898764 
L 307.469158 105.942396 
L 307.793433 105.90593 
L 308.766437 105.928564 
L 310.063505 106.268331 
L 311.360832 106.314461 
L 312.009383 106.194497 
L 312.333755 106.162764 
L 312.98237 106.007097 
L 313.306645 106.001639 
L 313.631034 105.943253 
L 318.17134 105.192536 
L 319.306271 105.119513 
L 319.468554 105.011243 
L 319.792716 105.042472 
L 320.117218 105.007151 
L 320.928263 104.826196 
L 321.089946 104.903657 
L 321.414432 104.793012 
L 321.576375 104.860982 
L 321.90078 104.745671 
L 322.387177 104.712107 
L 323.03584 104.608792 
L 323.198367 104.645368 
L 323.522448 104.549088 
L 324.008828 104.527312 
L 324.65754 104.423052 
L 325.306026 104.411651 
L 325.954609 104.417293 
L 326.116908 104.496544 
L 326.279224 104.429019 
L 326.60337 104.532655 
L 327.252406 104.711517 
L 327.576276 104.922976 
L 327.900568 104.984136 
L 329.035839 105.089068 
L 329.684227 105.064484 
L 329.846445 105.10449 
L 330.170948 105.074824 
L 331.467967 105.181274 
L 331.792242 105.306176 
L 331.954445 105.253837 
L 332.278704 105.313756 
L 332.602881 105.297833 
L 334.710994 105.335643 
L 335.197342 105.400279 
L 335.68416 105.404013 
L 338.60275 105.468337 
L 340.224174 105.479553 
L 340.87279 105.609187 
L 341.19713 105.593659 
L 343.953776 105.626458 
L 344.278068 105.730378 
L 345.737338 106.11056 
L 346.872999 106.141335 
L 348.00754 106.057464 
L 350.115766 105.777735 
L 350.764317 105.714542 
L 357.73667 105.10785 
L 359.844848 105.628828 
L 360.169382 105.769081 
L 361.141981 105.939953 
L 361.304232 105.90181 
L 361.466305 106.011023 
L 362.277138 105.920906 
L 364.060765 105.935242 
L 364.385121 106.094775 
L 364.87155 106.152495 
L 366.49304 106.136569 
L 366.817298 106.16894 
L 367.141849 106.222609 
L 367.790367 106.305478 
L 370.22256 106.209792 
L 370.22256 106.209792 
" clip-path="url(#p0fcbfa84eb)" style="fill: none; stroke: #fa7c17; stroke-width: 0.4; stroke-linecap: round"/>
   </g>
   <g id="patch_3">
    <path d="M 46.89649 193.605677 
L 46.89649 3.00024 
" style="fill: none; stroke: #000000; stroke-linejoin: miter; stroke-linecap: square"/>
   </g>
   <g id="patch_4">
    <path d="M 46.89649 193.605677 
L 385.61904 193.605677 
" style="fill: none; stroke: #000000; stroke-linejoin: miter; stroke-linecap: square"/>
   </g>
   <g id="legend_1">
    <g id="line2d_33">
     <path d="M 250.35154 13.47899 
L 258.35154 13.47899 
L 266.35154 13.47899 
" style="fill: none; stroke: #2a2eec; stroke-width: 0.4; stroke-linecap: round"/>
    </g>
    <g id="text_18">
     <!-- original data -->
     <g style="fill: #262626" transform="translate(272.75154 16.27899) scale(0.08 -0.08)">
      <defs>
       <path id="DejaVuSerif-6f" d="M 1925 219 
Q 2388 219 2623 584 
Q 2859 950 2859 1663 
Q 2859 2375 2623 2739 
Q 2388 3103 1925 3103 
Q 1463 3103 1227 2739 
Q 991 2375 991 1663 
Q 991 950 1228 584 
Q 1466 219 1925 219 
z
M 1925 -91 
Q 1200 -91 759 389 
Q 319 869 319 1663 
Q 319 2456 758 2934 
Q 1197 3413 1925 3413 
Q 2653 3413 3092 2934 
Q 3531 2456 3531 1663 
Q 3531 869 3092 389 
Q 2653 -91 1925 -91 
z
" transform="scale(0.015625)"/>
       <path id="DejaVuSerif-72" d="M 3059 3328 
L 3059 2497 
L 2728 2497 
Q 2713 2744 2591 2866 
Q 2469 2988 2234 2988 
Q 1809 2988 1582 2694 
Q 1356 2400 1356 1850 
L 1356 331 
L 2022 331 
L 2022 0 
L 263 0 
L 263 331 
L 781 331 
L 781 2994 
L 231 2994 
L 231 3322 
L 1356 3322 
L 1356 2731 
Q 1525 3078 1790 3245 
Q 2056 3413 2438 3413 
Q 2578 3413 2733 3391 
Q 2888 3369 3059 3328 
z
" transform="scale(0.015625)"/>
       <path id="DejaVuSerif-67" d="M 3359 2988 
L 3359 72 
Q 3359 -644 2965 -1033 
Q 2572 -1422 1844 -1422 
Q 1516 -1422 1216 -1362 
Q 916 -1303 641 -1184 
L 641 -488 
L 941 -488 
Q 997 -813 1206 -963 
Q 1416 -1113 1806 -1113 
Q 2313 -1113 2548 -827 
Q 2784 -541 2784 72 
L 2784 519 
Q 2616 206 2355 57 
Q 2094 -91 1709 -91 
Q 1097 -91 708 395 
Q 319 881 319 1663 
Q 319 2444 706 2928 
Q 1094 3413 1709 3413 
Q 2094 3413 2355 3264 
Q 2616 3116 2784 2803 
L 2784 3322 
L 3909 3322 
L 3909 2988 
L 3359 2988 
z
M 2784 1825 
Q 2784 2422 2554 2737 
Q 2325 3053 1888 3053 
Q 1444 3053 1217 2703 
Q 991 2353 991 1663 
Q 991 975 1217 622 
Q 1444 269 1888 269 
Q 2325 269 2554 583 
Q 2784 897 2784 1497 
L 2784 1825 
z
" transform="scale(0.015625)"/>
       <path id="DejaVuSerif-6e" d="M 263 0 
L 263 331 
L 781 331 
L 781 2988 
L 231 2988 
L 231 3322 
L 1356 3322 
L 1356 2731 
Q 1516 3069 1770 3241 
Q 2025 3413 2363 3413 
Q 2913 3413 3172 3097 
Q 3431 2781 3431 2113 
L 3431 331 
L 3944 331 
L 3944 0 
L 2356 0 
L 2356 331 
L 2853 331 
L 2853 1931 
Q 2853 2541 2703 2767 
Q 2553 2994 2175 2994 
Q 1775 2994 1565 2701 
Q 1356 2409 1356 1850 
L 1356 331 
L 1856 331 
L 1856 0 
L 263 0 
z
" transform="scale(0.015625)"/>
       <path id="DejaVuSerif-61" d="M 2547 1044 
L 2547 1747 
L 1806 1747 
Q 1378 1747 1168 1562 
Q 959 1378 959 997 
Q 959 650 1171 447 
Q 1384 244 1747 244 
Q 2106 244 2326 466 
Q 2547 688 2547 1044 
z
M 3122 2075 
L 3122 331 
L 3634 331 
L 3634 0 
L 2547 0 
L 2547 359 
Q 2356 128 2106 18 
Q 1856 -91 1522 -91 
Q 969 -91 644 203 
Q 319 497 319 997 
Q 319 1513 691 1797 
Q 1063 2081 1741 2081 
L 2547 2081 
L 2547 2309 
Q 2547 2688 2317 2895 
Q 2088 3103 1672 3103 
Q 1328 3103 1125 2947 
Q 922 2791 872 2484 
L 575 2484 
L 575 3156 
Q 875 3284 1158 3348 
Q 1441 3413 1709 3413 
Q 2400 3413 2761 3070 
Q 3122 2728 3122 2075 
z
" transform="scale(0.015625)"/>
       <path id="DejaVuSerif-6c" d="M 1313 331 
L 1856 331 
L 1856 0 
L 184 0 
L 184 331 
L 738 331 
L 738 4531 
L 184 4531 
L 184 4863 
L 1313 4863 
L 1313 331 
z
" transform="scale(0.015625)"/>
       <path id="DejaVuSerif-64" d="M 3359 331 
L 3909 331 
L 3909 0 
L 2784 0 
L 2784 519 
Q 2616 206 2355 57 
Q 2094 -91 1709 -91 
Q 1097 -91 708 395 
Q 319 881 319 1663 
Q 319 2444 706 2928 
Q 1094 3413 1709 3413 
Q 2094 3413 2355 3264 
Q 2616 3116 2784 2803 
L 2784 4531 
L 2241 4531 
L 2241 4863 
L 3359 4863 
L 3359 331 
z
M 2784 1497 
L 2784 1825 
Q 2784 2422 2554 2737 
Q 2325 3053 1888 3053 
Q 1444 3053 1217 2703 
Q 991 2353 991 1663 
Q 991 975 1217 622 
Q 1444 269 1888 269 
Q 2325 269 2554 583 
Q 2784 897 2784 1497 
z
" transform="scale(0.015625)"/>
      </defs>
      <use xlink:href="#DejaVuSerif-6f"/>
      <use xlink:href="#DejaVuSerif-72" x="60.205078"/>
      <use xlink:href="#DejaVuSerif-69" x="108.007812"/>
      <use xlink:href="#DejaVuSerif-67" x="139.990234"/>
      <use xlink:href="#DejaVuSerif-69" x="204.003906"/>
      <use xlink:href="#DejaVuSerif-6e" x="235.986328"/>
      <use xlink:href="#DejaVuSerif-61" x="300.390625"/>
      <use xlink:href="#DejaVuSerif-6c" x="360.009766"/>
      <use xlink:href="#DejaVuSerif-20" x="391.992188"/>
      <use xlink:href="#DejaVuSerif-64" x="423.779297"/>
      <use xlink:href="#DejaVuSerif-61" x="487.792969"/>
      <use xlink:href="#DejaVuSerif-74" x="547.412109"/>
      <use xlink:href="#DejaVuSerif-61" x="587.597656"/>
     </g>
    </g>
    <g id="line2d_34">
     <path d="M 250.35154 25.33524 
L 258.35154 25.33524 
L 266.35154 25.33524 
" style="fill: none; stroke: #fa7c17; stroke-width: 0.4; stroke-linecap: round"/>
    </g>
    <g id="text_19">
     <!-- transformed to roll centre -->
     <g style="fill: #262626" transform="translate(272.75154 28.13524) scale(0.08 -0.08)">
      <defs>
       <path id="DejaVuSerif-73" d="M 359 184 
L 359 959 
L 691 959 
Q 703 588 923 403 
Q 1144 219 1575 219 
Q 1963 219 2166 364 
Q 2369 509 2369 788 
Q 2369 1006 2220 1140 
Q 2072 1275 1594 1428 
L 1178 1569 
Q 750 1706 558 1912 
Q 366 2119 366 2438 
Q 366 2894 700 3153 
Q 1034 3413 1625 3413 
Q 1888 3413 2178 3344 
Q 2469 3275 2778 3144 
L 2778 2419 
L 2447 2419 
Q 2434 2741 2221 2922 
Q 2009 3103 1644 3103 
Q 1281 3103 1095 2975 
Q 909 2847 909 2591 
Q 909 2381 1050 2254 
Q 1191 2128 1613 1997 
L 2069 1856 
Q 2541 1709 2748 1489 
Q 2956 1269 2956 922 
Q 2956 450 2595 179 
Q 2234 -91 1600 -91 
Q 1278 -91 972 -22 
Q 666 47 359 184 
z
" transform="scale(0.015625)"/>
       <path id="DejaVuSerif-66" d="M 2753 4078 
L 2450 4078 
Q 2447 4313 2317 4434 
Q 2188 4556 1941 4556 
Q 1619 4556 1487 4379 
Q 1356 4203 1356 3750 
L 1356 3322 
L 2284 3322 
L 2284 2988 
L 1356 2988 
L 1356 331 
L 2094 331 
L 2094 0 
L 231 0 
L 231 331 
L 781 331 
L 781 2988 
L 231 2988 
L 231 3322 
L 781 3322 
L 781 3738 
Q 781 4294 1070 4578 
Q 1359 4863 1919 4863 
Q 2128 4863 2337 4825 
Q 2547 4788 2753 4709 
L 2753 4078 
z
" transform="scale(0.015625)"/>
       <path id="DejaVuSerif-63" d="M 3291 997 
Q 3169 466 2822 187 
Q 2475 -91 1925 -91 
Q 1200 -91 759 389 
Q 319 869 319 1663 
Q 319 2459 759 2936 
Q 1200 3413 1925 3413 
Q 2241 3413 2553 3339 
Q 2866 3266 3181 3116 
L 3181 2266 
L 2847 2266 
Q 2781 2703 2561 2903 
Q 2341 3103 1931 3103 
Q 1466 3103 1228 2742 
Q 991 2381 991 1663 
Q 991 944 1227 581 
Q 1463 219 1931 219 
Q 2303 219 2525 412 
Q 2747 606 2828 997 
L 3291 997 
z
" transform="scale(0.015625)"/>
      </defs>
      <use xlink:href="#DejaVuSerif-74"/>
      <use xlink:href="#DejaVuSerif-72" x="40.185547"/>
      <use xlink:href="#DejaVuSerif-61" x="87.988281"/>
      <use xlink:href="#DejaVuSerif-6e" x="147.607422"/>
      <use xlink:href="#DejaVuSerif-73" x="212.011719"/>
      <use xlink:href="#DejaVuSerif-66" x="263.330078"/>
      <use xlink:href="#DejaVuSerif-6f" x="300.341797"/>
      <use xlink:href="#DejaVuSerif-72" x="360.546875"/>
      <use xlink:href="#DejaVuSerif-6d" x="408.349609"/>
      <use xlink:href="#DejaVuSerif-65" x="503.173828"/>
      <use xlink:href="#DejaVuSerif-64" x="562.353516"/>
      <use xlink:href="#DejaVuSerif-20" x="626.367188"/>
      <use xlink:href="#DejaVuSerif-74" x="658.154297"/>
      <use xlink:href="#DejaVuSerif-6f" x="698.339844"/>
      <use xlink:href="#DejaVuSerif-20" x="758.544922"/>
      <use xlink:href="#DejaVuSerif-72" x="790.332031"/>
      <use xlink:href="#DejaVuSerif-6f" x="838.134766"/>
      <use xlink:href="#DejaVuSerif-6c" x="898.339844"/>
      <use xlink:href="#DejaVuSerif-6c" x="930.322266"/>
      <use xlink:href="#DejaVuSerif-20" x="962.304688"/>
      <use xlink:href="#DejaVuSerif-63" x="994.091797"/>
      <use xlink:href="#DejaVuSerif-65" x="1050.097656"/>
      <use xlink:href="#DejaVuSerif-6e" x="1109.277344"/>
      <use xlink:href="#DejaVuSerif-74" x="1173.681641"/>
      <use xlink:href="#DejaVuSerif-72" x="1213.867188"/>
      <use xlink:href="#DejaVuSerif-65" x="1261.669922"/>
     </g>
    </g>
   </g>
  </g>
 </g>
 <defs>
  <clipPath id="p0fcbfa84eb">
   <rect x="46.89649" y="3.00024" width="338.72255" height="190.605437"/>
  </clipPath>
 </defs>
</svg>
