<?xml version="1.0" encoding="utf-8" standalone="no"?>
<!DOCTYPE svg PUBLIC "-//W3C//DTD SVG 1.1//EN"
  "http://www.w3.org/Graphics/SVG/1.1/DTD/svg11.dtd">
<svg xmlns:xlink="http://www.w3.org/1999/xlink" width="388.61928pt" height="218.623104pt" viewBox="0 0 388.61928 218.623104" xmlns="http://www.w3.org/2000/svg" version="1.1">
 <metadata>
  <rdf:RDF xmlns:dc="http://purl.org/dc/elements/1.1/" xmlns:cc="http://creativecommons.org/ns#" xmlns:rdf="http://www.w3.org/1999/02/22-rdf-syntax-ns#">
   <cc:Work>
    <dc:type rdf:resource="http://purl.org/dc/dcmitype/StillImage"/>
    <dc:date>2024-11-11T10:12:48.624466</dc:date>
    <dc:format>image/svg+xml</dc:format>
    <dc:creator>
     <cc:Agent>
      <dc:title>Matplotlib v3.8.2, https://matplotlib.org/</dc:title>
     </cc:Agent>
    </dc:creator>
   </cc:Work>
  </rdf:RDF>
 </metadata>
 <defs>
  <style type="text/css">*{stroke-linejoin: round; stroke-linecap: butt}</style>
 </defs>
 <g id="figure_1">
  <g id="patch_1">
   <path d="M 0 218.623104 
L 388.61928 218.623104 
L 388.61928 0 
L 0 0 
z
" style="fill: #ffffff"/>
  </g>
  <g id="axes_1">
   <g id="patch_2">
    <path d="M 43.86 90.201552 
L 188.90964 90.201552 
L 188.90964 10.8 
L 43.86 10.8 
z
" style="fill: #ffffff"/>
   </g>
   <g id="matplotlib.axis_1">
    <g id="xtick_1">
     <g id="line2d_1">
      <path d="M 50.453165 90.201552 
L 50.453165 10.8 
" clip-path="url(#p4bda1ad0ee)" style="fill: none; stroke: #b0b0b0; stroke-width: 0.1; stroke-linecap: round"/>
     </g>
     <g id="line2d_2"/>
    </g>
    <g id="xtick_2">
     <g id="line2d_3">
      <path d="M 86.759155 90.201552 
L 86.759155 10.8 
" clip-path="url(#p4bda1ad0ee)" style="fill: none; stroke: #b0b0b0; stroke-width: 0.1; stroke-linecap: round"/>
     </g>
     <g id="line2d_4"/>
    </g>
    <g id="xtick_3">
     <g id="line2d_5">
      <path d="M 123.065145 90.201552 
L 123.065145 10.8 
" clip-path="url(#p4bda1ad0ee)" style="fill: none; stroke: #b0b0b0; stroke-width: 0.1; stroke-linecap: round"/>
     </g>
     <g id="line2d_6"/>
    </g>
    <g id="xtick_4">
     <g id="line2d_7">
      <path d="M 159.371134 90.201552 
L 159.371134 10.8 
" clip-path="url(#p4bda1ad0ee)" style="fill: none; stroke: #b0b0b0; stroke-width: 0.1; stroke-linecap: round"/>
     </g>
     <g id="line2d_8"/>
    </g>
   </g>
   <g id="matplotlib.axis_2">
    <g id="ytick_1">
     <g id="line2d_9">
      <path d="M 43.86 90.201552 
L 188.90964 90.201552 
" clip-path="url(#p4bda1ad0ee)" style="fill: none; stroke: #b0b0b0; stroke-width: 0.1; stroke-linecap: round"/>
     </g>
     <g id="line2d_10"/>
     <g id="text_1">
      <!-- 0.00 -->
      <g style="fill: #262626" transform="translate(22.5475 93.240927) scale(0.08 -0.08)">
       <defs>
        <path id="DejaVuSerif-30" d="M 2034 219 
Q 2513 219 2750 744 
Q 2988 1269 2988 2328 
Q 2988 3391 2750 3916 
Q 2513 4441 2034 4441 
Q 1556 4441 1318 3916 
Q 1081 3391 1081 2328 
Q 1081 1269 1318 744 
Q 1556 219 2034 219 
z
M 2034 -91 
Q 1275 -91 848 546 
Q 422 1184 422 2328 
Q 422 3475 848 4112 
Q 1275 4750 2034 4750 
Q 2797 4750 3222 4112 
Q 3647 3475 3647 2328 
Q 3647 1184 3222 546 
Q 2797 -91 2034 -91 
z
" transform="scale(0.015625)"/>
        <path id="DejaVuSerif-2e" d="M 603 325 
Q 603 500 722 622 
Q 841 744 1019 744 
Q 1191 744 1312 622 
Q 1434 500 1434 325 
Q 1434 153 1312 31 
Q 1191 -91 1019 -91 
Q 841 -91 722 29 
Q 603 150 603 325 
z
" transform="scale(0.015625)"/>
       </defs>
       <use xlink:href="#DejaVuSerif-30"/>
       <use xlink:href="#DejaVuSerif-2e" x="63.623047"/>
       <use xlink:href="#DejaVuSerif-30" x="95.410156"/>
       <use xlink:href="#DejaVuSerif-30" x="159.033203"/>
      </g>
     </g>
    </g>
    <g id="ytick_2">
     <g id="line2d_11">
      <path d="M 43.86 69.466081 
L 188.90964 69.466081 
" clip-path="url(#p4bda1ad0ee)" style="fill: none; stroke: #b0b0b0; stroke-width: 0.1; stroke-linecap: round"/>
     </g>
     <g id="line2d_12"/>
     <g id="text_2">
      <!-- 0.25 -->
      <g style="fill: #262626" transform="translate(22.5475 72.505456) scale(0.08 -0.08)">
       <defs>
        <path id="DejaVuSerif-32" d="M 819 3553 
L 469 3553 
L 469 4384 
Q 803 4563 1142 4656 
Q 1481 4750 1806 4750 
Q 2534 4750 2956 4397 
Q 3378 4044 3378 3438 
Q 3378 2753 2422 1800 
Q 2347 1728 2309 1691 
L 1131 513 
L 3078 513 
L 3078 1088 
L 3444 1088 
L 3444 0 
L 434 0 
L 434 341 
L 1850 1753 
Q 2319 2222 2519 2614 
Q 2719 3006 2719 3438 
Q 2719 3909 2473 4175 
Q 2228 4441 1797 4441 
Q 1350 4441 1106 4219 
Q 863 3997 819 3553 
z
" transform="scale(0.015625)"/>
        <path id="DejaVuSerif-35" d="M 3219 4666 
L 3219 4153 
L 1081 4153 
L 1081 2816 
Q 1244 2928 1461 2984 
Q 1678 3041 1947 3041 
Q 2703 3041 3140 2622 
Q 3578 2203 3578 1478 
Q 3578 738 3136 323 
Q 2694 -91 1894 -91 
Q 1572 -91 1234 -12 
Q 897 66 544 225 
L 544 1131 
L 897 1131 
Q 925 688 1179 453 
Q 1434 219 1894 219 
Q 2388 219 2653 544 
Q 2919 869 2919 1478 
Q 2919 2084 2655 2407 
Q 2391 2731 1894 2731 
Q 1613 2731 1398 2631 
Q 1184 2531 1019 2322 
L 750 2322 
L 750 4666 
L 3219 4666 
z
" transform="scale(0.015625)"/>
       </defs>
       <use xlink:href="#DejaVuSerif-30"/>
       <use xlink:href="#DejaVuSerif-2e" x="63.623047"/>
       <use xlink:href="#DejaVuSerif-32" x="95.410156"/>
       <use xlink:href="#DejaVuSerif-35" x="159.033203"/>
      </g>
     </g>
    </g>
    <g id="ytick_3">
     <g id="line2d_13">
      <path d="M 43.86 48.730611 
L 188.90964 48.730611 
" clip-path="url(#p4bda1ad0ee)" style="fill: none; stroke: #b0b0b0; stroke-width: 0.1; stroke-linecap: round"/>
     </g>
     <g id="line2d_14"/>
     <g id="text_3">
      <!-- 0.50 -->
      <g style="fill: #262626" transform="translate(22.5475 51.769986) scale(0.08 -0.08)">
       <use xlink:href="#DejaVuSerif-30"/>
       <use xlink:href="#DejaVuSerif-2e" x="63.623047"/>
       <use xlink:href="#DejaVuSerif-35" x="95.410156"/>
       <use xlink:href="#DejaVuSerif-30" x="159.033203"/>
      </g>
     </g>
    </g>
    <g id="ytick_4">
     <g id="line2d_15">
      <path d="M 43.86 27.99514 
L 188.90964 27.99514 
" clip-path="url(#p4bda1ad0ee)" style="fill: none; stroke: #b0b0b0; stroke-width: 0.1; stroke-linecap: round"/>
     </g>
     <g id="line2d_16"/>
     <g id="text_4">
      <!-- 0.75 -->
      <g style="fill: #262626" transform="translate(22.5475 31.034515) scale(0.08 -0.08)">
       <defs>
        <path id="DejaVuSerif-37" d="M 3609 4347 
L 1784 0 
L 1319 0 
L 3059 4153 
L 903 4153 
L 903 3578 
L 538 3578 
L 538 4666 
L 3609 4666 
L 3609 4347 
z
" transform="scale(0.015625)"/>
       </defs>
       <use xlink:href="#DejaVuSerif-30"/>
       <use xlink:href="#DejaVuSerif-2e" x="63.623047"/>
       <use xlink:href="#DejaVuSerif-37" x="95.410156"/>
       <use xlink:href="#DejaVuSerif-35" x="159.033203"/>
      </g>
     </g>
    </g>
    <g id="text_5">
     <!-- $V$ -->
     <g style="fill: #262626" transform="translate(17.091719 52.915776) rotate(-90) scale(0.07 -0.07)">
      <defs>
       <path id="DejaVuSans-Oblique-56" d="M 1319 0 
L 500 4666 
L 1119 4666 
L 1797 653 
L 4063 4666 
L 4750 4666 
L 2053 0 
L 1319 0 
z
" transform="scale(0.015625)"/>
      </defs>
      <use xlink:href="#DejaVuSans-Oblique-56" transform="translate(0 0.09375)"/>
     </g>
    </g>
   </g>
   <g id="line2d_17">
    <path d="M 50.453165 12.221284 
L 50.888799 12.096513 
L 51.61493 12.151979 
L 53.448375 12.335187 
L 57.932219 12.942173 
L 60.800354 13.703641 
L 64.558004 15.440471 
L 66.645631 16.946735 
L 71.347221 19.655985 
L 72.745001 20.132267 
L 73.943099 20.613425 
L 75.15935 20.868032 
L 76.375599 20.872254 
L 77.174332 20.938919 
L 78.681034 21.164934 
L 80.205895 21.183561 
L 82.347939 21.042129 
L 83.818346 21.158386 
L 87.140323 21.052989 
L 91.370005 21.485498 
L 92.186859 21.769246 
L 93.766197 22.017983 
L 94.72832 22.163983 
L 95.52701 22.321238 
L 99.357294 24.093703 
L 101.626423 25.2845 
L 103.296504 26.294477 
L 104.839525 27.138799 
L 106.491424 28.21913 
L 107.925543 29.068739 
L 109.232534 29.939683 
L 110.358012 30.62927 
L 114.841802 32.865482 
L 116.802331 33.337027 
L 117.873356 33.511759 
L 120.451074 33.523061 
L 125.47947 32.890714 
L 129.27344 32.063043 
L 131.397331 31.561953 
L 133.012946 31.138142 
L 134.174747 30.968335 
L 135.754043 30.614731 
L 140.800594 30.214736 
L 141.780857 30.331742 
L 143.37837 30.481345 
L 145.82896 30.768316 
L 147.46273 31.135923 
L 148.570063 31.40207 
L 151.038919 32.273407 
L 154.760252 33.544692 
L 156.176182 33.869753 
L 157.229067 34.457672 
L 158.62682 35.10985 
L 165.652033 37.662945 
L 167.46739 37.854669 
L 169.155561 37.885883 
L 177.669315 36.468933 
L 182.316475 35.426556 
L 182.316475 35.426556 
" clip-path="url(#p4bda1ad0ee)" style="fill: none; stroke: #000000; stroke-width: 0.4; stroke-linecap: round"/>
   </g>
   <g id="line2d_18">
    <path d="M 50.453165 12.221284 
L 52.214006 12.282602 
L 58.204494 13.328048 
L 60.473619 13.952281 
L 62.615672 14.787631 
L 65.138938 16.040053 
L 71.438027 19.273771 
L 73.126256 19.78351 
L 75.849205 20.305482 
L 78.717378 20.619228 
L 83.219321 20.804405 
L 87.067756 20.993906 
L 89.935929 21.321854 
L 92.513654 21.819924 
L 95.000615 22.518717 
L 97.342351 23.45457 
L 99.502557 24.612309 
L 102.570414 26.554791 
L 108.470137 30.482616 
L 109.994989 31.161394 
L 111.356463 31.509055 
L 113.280681 31.748888 
L 115.586111 31.809529 
L 118.272754 31.63835 
L 121.122774 31.237161 
L 126.532367 30.477913 
L 129.128245 30.384367 
L 131.361063 30.540985 
L 133.394199 30.901749 
L 135.445487 31.473706 
L 138.041366 32.440789 
L 141.145528 33.846895 
L 143.904783 35.227222 
L 143.904783 35.227222 
" clip-path="url(#p4bda1ad0ee)" style="fill: none; stroke-dasharray: 1.48,0.64; stroke-dashoffset: 0; stroke: #0000ff; stroke-width: 0.4"/>
   </g>
   <g id="line2d_19">
    <path d="M 50.453165 12.221284 
L 52.431842 12.337183 
L 57.714363 13.277974 
L 59.983488 13.942472 
L 61.944011 14.739429 
L 64.303901 15.957953 
L 70.040247 19.091975 
L 71.674016 19.612966 
L 73.489316 19.972269 
L 76.466407 20.300917 
L 80.278536 20.472351 
L 85.797046 20.695947 
L 89.046432 21.055607 
L 92.259513 21.626114 
L 95.853806 22.500831 
L 98.740132 23.448652 
L 102.570414 24.954064 
L 113.371446 29.235935 
L 115.313816 29.608008 
L 117.76447 29.803251 
L 120.287737 29.762713 
L 124.136171 29.4773 
L 129.073786 29.166585 
L 132.014571 29.193365 
L 134.592297 29.450407 
L 137.061104 29.946544 
L 139.838512 30.754735 
L 142.906368 31.898338 
L 147.6443 33.855938 
L 147.6443 33.855938 
" clip-path="url(#p4bda1ad0ee)" style="fill: none; stroke-dasharray: 1.48,0.64; stroke-dashoffset: 0; stroke: #ff0000; stroke-width: 0.4"/>
   </g>
   <g id="patch_3">
    <path d="M 43.86 90.201552 
L 43.86 10.8 
" style="fill: none; stroke: #000000; stroke-linejoin: miter; stroke-linecap: square"/>
   </g>
   <g id="patch_4">
    <path d="M 43.86 90.201552 
L 188.90964 90.201552 
" style="fill: none; stroke: #000000; stroke-linejoin: miter; stroke-linecap: square"/>
   </g>
   <g id="legend_1">
    <g id="line2d_20">
     <path d="M 51.06 54.939052 
L 59.06 54.939052 
L 67.06 54.939052 
" style="fill: none; stroke: #000000; stroke-width: 0.4; stroke-linecap: round"/>
    </g>
    <g id="text_6">
     <!-- Experiment -->
     <g style="fill: #262626" transform="translate(73.46 57.739052) scale(0.08 -0.08)">
      <defs>
       <path id="DejaVuSerif-45" d="M 353 0 
L 353 331 
L 947 331 
L 947 4331 
L 353 4331 
L 353 4666 
L 4109 4666 
L 4109 3628 
L 3725 3628 
L 3725 4281 
L 1581 4281 
L 1581 2719 
L 3109 2719 
L 3109 3303 
L 3494 3303 
L 3494 1753 
L 3109 1753 
L 3109 2338 
L 1581 2338 
L 1581 384 
L 3775 384 
L 3775 1038 
L 4159 1038 
L 4159 0 
L 353 0 
z
" transform="scale(0.015625)"/>
       <path id="DejaVuSerif-78" d="M 1863 2028 
L 2559 2988 
L 2113 2988 
L 2113 3322 
L 3391 3322 
L 3391 2988 
L 2950 2988 
L 2059 1759 
L 3097 331 
L 3531 331 
L 3531 0 
L 1997 0 
L 1997 331 
L 2419 331 
L 1697 1325 
L 972 331 
L 1403 331 
L 1403 0 
L 141 0 
L 141 331 
L 581 331 
L 1497 1594 
L 488 2988 
L 78 2988 
L 78 3322 
L 1563 3322 
L 1563 2988 
L 1166 2988 
L 1863 2028 
z
" transform="scale(0.015625)"/>
       <path id="DejaVuSerif-70" d="M 1313 1825 
L 1313 1497 
Q 1313 897 1542 583 
Q 1772 269 2209 269 
Q 2650 269 2876 622 
Q 3103 975 3103 1663 
Q 3103 2353 2876 2703 
Q 2650 3053 2209 3053 
Q 1772 3053 1542 2737 
Q 1313 2422 1313 1825 
z
M 738 2988 
L 184 2988 
L 184 3322 
L 1313 3322 
L 1313 2803 
Q 1481 3116 1742 3264 
Q 2003 3413 2388 3413 
Q 3000 3413 3387 2928 
Q 3775 2444 3775 1663 
Q 3775 881 3387 395 
Q 3000 -91 2388 -91 
Q 2003 -91 1742 57 
Q 1481 206 1313 519 
L 1313 -997 
L 1856 -997 
L 1856 -1331 
L 184 -1331 
L 184 -997 
L 738 -997 
L 738 2988 
z
" transform="scale(0.015625)"/>
       <path id="DejaVuSerif-65" d="M 3469 1600 
L 991 1600 
L 991 1575 
Q 991 903 1244 561 
Q 1497 219 1991 219 
Q 2369 219 2611 417 
Q 2853 616 2950 1006 
L 3413 1006 
Q 3275 459 2904 184 
Q 2534 -91 1931 -91 
Q 1203 -91 761 389 
Q 319 869 319 1663 
Q 319 2450 753 2931 
Q 1188 3413 1894 3413 
Q 2647 3413 3050 2948 
Q 3453 2484 3469 1600 
z
M 2791 1931 
Q 2772 2513 2545 2808 
Q 2319 3103 1894 3103 
Q 1497 3103 1269 2806 
Q 1041 2509 991 1931 
L 2791 1931 
z
" transform="scale(0.015625)"/>
       <path id="DejaVuSerif-72" d="M 3059 3328 
L 3059 2497 
L 2728 2497 
Q 2713 2744 2591 2866 
Q 2469 2988 2234 2988 
Q 1809 2988 1582 2694 
Q 1356 2400 1356 1850 
L 1356 331 
L 2022 331 
L 2022 0 
L 263 0 
L 263 331 
L 781 331 
L 781 2994 
L 231 2994 
L 231 3322 
L 1356 3322 
L 1356 2731 
Q 1525 3078 1790 3245 
Q 2056 3413 2438 3413 
Q 2578 3413 2733 3391 
Q 2888 3369 3059 3328 
z
" transform="scale(0.015625)"/>
       <path id="DejaVuSerif-69" d="M 622 4353 
Q 622 4497 726 4603 
Q 831 4709 978 4709 
Q 1122 4709 1226 4603 
Q 1331 4497 1331 4353 
Q 1331 4206 1228 4103 
Q 1125 4000 978 4000 
Q 831 4000 726 4103 
Q 622 4206 622 4353 
z
M 1356 331 
L 1900 331 
L 1900 0 
L 231 0 
L 231 331 
L 781 331 
L 781 2988 
L 231 2988 
L 231 3322 
L 1356 3322 
L 1356 331 
z
" transform="scale(0.015625)"/>
       <path id="DejaVuSerif-6d" d="M 3316 2675 
Q 3481 3041 3739 3227 
Q 3997 3413 4341 3413 
Q 4863 3413 5119 3089 
Q 5375 2766 5375 2113 
L 5375 331 
L 5894 331 
L 5894 0 
L 4300 0 
L 4300 331 
L 4800 331 
L 4800 2047 
Q 4800 2556 4650 2772 
Q 4500 2988 4153 2988 
Q 3769 2988 3567 2697 
Q 3366 2406 3366 1850 
L 3366 331 
L 3866 331 
L 3866 0 
L 2291 0 
L 2291 331 
L 2791 331 
L 2791 2069 
Q 2791 2566 2641 2777 
Q 2491 2988 2144 2988 
Q 1759 2988 1557 2697 
Q 1356 2406 1356 1850 
L 1356 331 
L 1856 331 
L 1856 0 
L 263 0 
L 263 331 
L 781 331 
L 781 2994 
L 231 2994 
L 231 3322 
L 1356 3322 
L 1356 2731 
Q 1516 3063 1762 3238 
Q 2009 3413 2322 3413 
Q 2709 3413 2968 3220 
Q 3228 3028 3316 2675 
z
" transform="scale(0.015625)"/>
       <path id="DejaVuSerif-6e" d="M 263 0 
L 263 331 
L 781 331 
L 781 2988 
L 231 2988 
L 231 3322 
L 1356 3322 
L 1356 2731 
Q 1516 3069 1770 3241 
Q 2025 3413 2363 3413 
Q 2913 3413 3172 3097 
Q 3431 2781 3431 2113 
L 3431 331 
L 3944 331 
L 3944 0 
L 2356 0 
L 2356 331 
L 2853 331 
L 2853 1931 
Q 2853 2541 2703 2767 
Q 2553 2994 2175 2994 
Q 1775 2994 1565 2701 
Q 1356 2409 1356 1850 
L 1356 331 
L 1856 331 
L 1856 0 
L 263 0 
z
" transform="scale(0.015625)"/>
       <path id="DejaVuSerif-74" d="M 691 2988 
L 184 2988 
L 184 3322 
L 691 3322 
L 691 4353 
L 1269 4353 
L 1269 3322 
L 2350 3322 
L 2350 2988 
L 1269 2988 
L 1269 878 
Q 1269 456 1350 337 
Q 1431 219 1650 219 
Q 1875 219 1978 351 
Q 2081 484 2088 781 
L 2522 781 
Q 2497 328 2275 118 
Q 2053 -91 1600 -91 
Q 1103 -91 897 129 
Q 691 350 691 878 
L 691 2988 
z
" transform="scale(0.015625)"/>
      </defs>
      <use xlink:href="#DejaVuSerif-45"/>
      <use xlink:href="#DejaVuSerif-78" x="72.998047"/>
      <use xlink:href="#DejaVuSerif-70" x="129.394531"/>
      <use xlink:href="#DejaVuSerif-65" x="193.408203"/>
      <use xlink:href="#DejaVuSerif-72" x="252.587891"/>
      <use xlink:href="#DejaVuSerif-69" x="300.390625"/>
      <use xlink:href="#DejaVuSerif-6d" x="332.373047"/>
      <use xlink:href="#DejaVuSerif-65" x="427.197266"/>
      <use xlink:href="#DejaVuSerif-6e" x="486.376953"/>
      <use xlink:href="#DejaVuSerif-74" x="550.78125"/>
     </g>
    </g>
    <g id="line2d_21">
     <path d="M 51.06 66.681552 
L 59.06 66.681552 
L 67.06 66.681552 
" style="fill: none; stroke-dasharray: 1.48,0.64; stroke-dashoffset: 0; stroke: #0000ff; stroke-width: 0.4"/>
    </g>
    <g id="text_7">
     <!-- polynomial rudder -->
     <g style="fill: #262626" transform="translate(73.46 69.481552) scale(0.08 -0.08)">
      <defs>
       <path id="DejaVuSerif-6f" d="M 1925 219 
Q 2388 219 2623 584 
Q 2859 950 2859 1663 
Q 2859 2375 2623 2739 
Q 2388 3103 1925 3103 
Q 1463 3103 1227 2739 
Q 991 2375 991 1663 
Q 991 950 1228 584 
Q 1466 219 1925 219 
z
M 1925 -91 
Q 1200 -91 759 389 
Q 319 869 319 1663 
Q 319 2456 758 2934 
Q 1197 3413 1925 3413 
Q 2653 3413 3092 2934 
Q 3531 2456 3531 1663 
Q 3531 869 3092 389 
Q 2653 -91 1925 -91 
z
" transform="scale(0.015625)"/>
       <path id="DejaVuSerif-6c" d="M 1313 331 
L 1856 331 
L 1856 0 
L 184 0 
L 184 331 
L 738 331 
L 738 4531 
L 184 4531 
L 184 4863 
L 1313 4863 
L 1313 331 
z
" transform="scale(0.015625)"/>
       <path id="DejaVuSerif-79" d="M 1381 -609 
L 1600 -56 
L 359 2988 
L -19 2988 
L -19 3322 
L 1509 3322 
L 1509 2988 
L 978 2988 
L 1913 703 
L 2847 2988 
L 2350 2988 
L 2350 3322 
L 3597 3322 
L 3597 2988 
L 3225 2988 
L 1703 -750 
Q 1547 -1138 1356 -1280 
Q 1166 -1422 819 -1422 
Q 672 -1422 517 -1397 
Q 363 -1372 206 -1325 
L 206 -691 
L 500 -691 
Q 519 -903 608 -995 
Q 697 -1088 884 -1088 
Q 1056 -1088 1161 -992 
Q 1266 -897 1381 -609 
z
" transform="scale(0.015625)"/>
       <path id="DejaVuSerif-61" d="M 2547 1044 
L 2547 1747 
L 1806 1747 
Q 1378 1747 1168 1562 
Q 959 1378 959 997 
Q 959 650 1171 447 
Q 1384 244 1747 244 
Q 2106 244 2326 466 
Q 2547 688 2547 1044 
z
M 3122 2075 
L 3122 331 
L 3634 331 
L 3634 0 
L 2547 0 
L 2547 359 
Q 2356 128 2106 18 
Q 1856 -91 1522 -91 
Q 969 -91 644 203 
Q 319 497 319 997 
Q 319 1513 691 1797 
Q 1063 2081 1741 2081 
L 2547 2081 
L 2547 2309 
Q 2547 2688 2317 2895 
Q 2088 3103 1672 3103 
Q 1328 3103 1125 2947 
Q 922 2791 872 2484 
L 575 2484 
L 575 3156 
Q 875 3284 1158 3348 
Q 1441 3413 1709 3413 
Q 2400 3413 2761 3070 
Q 3122 2728 3122 2075 
z
" transform="scale(0.015625)"/>
       <path id="DejaVuSerif-20" transform="scale(0.015625)"/>
       <path id="DejaVuSerif-75" d="M 2266 3322 
L 3341 3322 
L 3341 331 
L 3884 331 
L 3884 0 
L 2766 0 
L 2766 588 
Q 2606 256 2353 82 
Q 2100 -91 1766 -91 
Q 1213 -91 952 223 
Q 691 538 691 1209 
L 691 2988 
L 172 2988 
L 172 3322 
L 1269 3322 
L 1269 1388 
Q 1269 781 1417 556 
Q 1566 331 1947 331 
Q 2347 331 2556 625 
Q 2766 919 2766 1478 
L 2766 2988 
L 2266 2988 
L 2266 3322 
z
" transform="scale(0.015625)"/>
       <path id="DejaVuSerif-64" d="M 3359 331 
L 3909 331 
L 3909 0 
L 2784 0 
L 2784 519 
Q 2616 206 2355 57 
Q 2094 -91 1709 -91 
Q 1097 -91 708 395 
Q 319 881 319 1663 
Q 319 2444 706 2928 
Q 1094 3413 1709 3413 
Q 2094 3413 2355 3264 
Q 2616 3116 2784 2803 
L 2784 4531 
L 2241 4531 
L 2241 4863 
L 3359 4863 
L 3359 331 
z
M 2784 1497 
L 2784 1825 
Q 2784 2422 2554 2737 
Q 2325 3053 1888 3053 
Q 1444 3053 1217 2703 
Q 991 2353 991 1663 
Q 991 975 1217 622 
Q 1444 269 1888 269 
Q 2325 269 2554 583 
Q 2784 897 2784 1497 
z
" transform="scale(0.015625)"/>
      </defs>
      <use xlink:href="#DejaVuSerif-70"/>
      <use xlink:href="#DejaVuSerif-6f" x="64.013672"/>
      <use xlink:href="#DejaVuSerif-6c" x="124.21875"/>
      <use xlink:href="#DejaVuSerif-79" x="156.201172"/>
      <use xlink:href="#DejaVuSerif-6e" x="212.695312"/>
      <use xlink:href="#DejaVuSerif-6f" x="277.099609"/>
      <use xlink:href="#DejaVuSerif-6d" x="337.304688"/>
      <use xlink:href="#DejaVuSerif-69" x="432.128906"/>
      <use xlink:href="#DejaVuSerif-61" x="464.111328"/>
      <use xlink:href="#DejaVuSerif-6c" x="523.730469"/>
      <use xlink:href="#DejaVuSerif-20" x="555.712891"/>
      <use xlink:href="#DejaVuSerif-72" x="587.5"/>
      <use xlink:href="#DejaVuSerif-75" x="635.302734"/>
      <use xlink:href="#DejaVuSerif-64" x="699.707031"/>
      <use xlink:href="#DejaVuSerif-64" x="763.720703"/>
      <use xlink:href="#DejaVuSerif-65" x="827.734375"/>
      <use xlink:href="#DejaVuSerif-72" x="886.914062"/>
     </g>
    </g>
    <g id="line2d_22">
     <path d="M 51.06 78.537802 
L 59.06 78.537802 
L 67.06 78.537802 
" style="fill: none; stroke-dasharray: 1.48,0.64; stroke-dashoffset: 0; stroke: #ff0000; stroke-width: 0.4"/>
    </g>
    <g id="text_8">
     <!-- semiempirical rudder -->
     <g style="fill: #262626" transform="translate(73.46 81.337802) scale(0.08 -0.08)">
      <defs>
       <path id="DejaVuSerif-73" d="M 359 184 
L 359 959 
L 691 959 
Q 703 588 923 403 
Q 1144 219 1575 219 
Q 1963 219 2166 364 
Q 2369 509 2369 788 
Q 2369 1006 2220 1140 
Q 2072 1275 1594 1428 
L 1178 1569 
Q 750 1706 558 1912 
Q 366 2119 366 2438 
Q 366 2894 700 3153 
Q 1034 3413 1625 3413 
Q 1888 3413 2178 3344 
Q 2469 3275 2778 3144 
L 2778 2419 
L 2447 2419 
Q 2434 2741 2221 2922 
Q 2009 3103 1644 3103 
Q 1281 3103 1095 2975 
Q 909 2847 909 2591 
Q 909 2381 1050 2254 
Q 1191 2128 1613 1997 
L 2069 1856 
Q 2541 1709 2748 1489 
Q 2956 1269 2956 922 
Q 2956 450 2595 179 
Q 2234 -91 1600 -91 
Q 1278 -91 972 -22 
Q 666 47 359 184 
z
" transform="scale(0.015625)"/>
       <path id="DejaVuSerif-63" d="M 3291 997 
Q 3169 466 2822 187 
Q 2475 -91 1925 -91 
Q 1200 -91 759 389 
Q 319 869 319 1663 
Q 319 2459 759 2936 
Q 1200 3413 1925 3413 
Q 2241 3413 2553 3339 
Q 2866 3266 3181 3116 
L 3181 2266 
L 2847 2266 
Q 2781 2703 2561 2903 
Q 2341 3103 1931 3103 
Q 1466 3103 1228 2742 
Q 991 2381 991 1663 
Q 991 944 1227 581 
Q 1463 219 1931 219 
Q 2303 219 2525 412 
Q 2747 606 2828 997 
L 3291 997 
z
" transform="scale(0.015625)"/>
      </defs>
      <use xlink:href="#DejaVuSerif-73"/>
      <use xlink:href="#DejaVuSerif-65" x="51.318359"/>
      <use xlink:href="#DejaVuSerif-6d" x="110.498047"/>
      <use xlink:href="#DejaVuSerif-69" x="205.322266"/>
      <use xlink:href="#DejaVuSerif-65" x="237.304688"/>
      <use xlink:href="#DejaVuSerif-6d" x="296.484375"/>
      <use xlink:href="#DejaVuSerif-70" x="391.308594"/>
      <use xlink:href="#DejaVuSerif-69" x="455.322266"/>
      <use xlink:href="#DejaVuSerif-72" x="487.304688"/>
      <use xlink:href="#DejaVuSerif-69" x="535.107422"/>
      <use xlink:href="#DejaVuSerif-63" x="567.089844"/>
      <use xlink:href="#DejaVuSerif-61" x="623.095703"/>
      <use xlink:href="#DejaVuSerif-6c" x="682.714844"/>
      <use xlink:href="#DejaVuSerif-20" x="714.697266"/>
      <use xlink:href="#DejaVuSerif-72" x="746.484375"/>
      <use xlink:href="#DejaVuSerif-75" x="794.287109"/>
      <use xlink:href="#DejaVuSerif-64" x="858.691406"/>
      <use xlink:href="#DejaVuSerif-64" x="922.705078"/>
      <use xlink:href="#DejaVuSerif-65" x="986.71875"/>
      <use xlink:href="#DejaVuSerif-72" x="1045.898438"/>
     </g>
    </g>
   </g>
  </g>
  <g id="axes_2">
   <g id="patch_5">
    <path d="M 232.76964 90.201552 
L 377.81928 90.201552 
L 377.81928 10.8 
L 232.76964 10.8 
z
" style="fill: #ffffff"/>
   </g>
   <g id="matplotlib.axis_3">
    <g id="xtick_5">
     <g id="line2d_23">
      <path d="M 239.362805 90.201552 
L 239.362805 10.8 
" clip-path="url(#p0a9075cd19)" style="fill: none; stroke: #b0b0b0; stroke-width: 0.1; stroke-linecap: round"/>
     </g>
     <g id="line2d_24"/>
    </g>
    <g id="xtick_6">
     <g id="line2d_25">
      <path d="M 275.668795 90.201552 
L 275.668795 10.8 
" clip-path="url(#p0a9075cd19)" style="fill: none; stroke: #b0b0b0; stroke-width: 0.1; stroke-linecap: round"/>
     </g>
     <g id="line2d_26"/>
    </g>
    <g id="xtick_7">
     <g id="line2d_27">
      <path d="M 311.974785 90.201552 
L 311.974785 10.8 
" clip-path="url(#p0a9075cd19)" style="fill: none; stroke: #b0b0b0; stroke-width: 0.1; stroke-linecap: round"/>
     </g>
     <g id="line2d_28"/>
    </g>
    <g id="xtick_8">
     <g id="line2d_29">
      <path d="M 348.280774 90.201552 
L 348.280774 10.8 
" clip-path="url(#p0a9075cd19)" style="fill: none; stroke: #b0b0b0; stroke-width: 0.1; stroke-linecap: round"/>
     </g>
     <g id="line2d_30"/>
    </g>
   </g>
   <g id="matplotlib.axis_4">
    <g id="ytick_5">
     <g id="line2d_31">
      <path d="M 232.76964 83.977087 
L 377.81928 83.977087 
" clip-path="url(#p0a9075cd19)" style="fill: none; stroke: #b0b0b0; stroke-width: 0.1; stroke-linecap: round"/>
     </g>
     <g id="line2d_32"/>
     <g id="text_9">
      <!-- −10 -->
      <g style="fill: #262626" transform="translate(212.38589 87.016462) scale(0.08 -0.08)">
       <defs>
        <path id="DejaVuSerif-2212" d="M 678 2259 
L 4684 2259 
L 4684 1753 
L 678 1753 
L 678 2259 
z
" transform="scale(0.015625)"/>
        <path id="DejaVuSerif-31" d="M 909 0 
L 909 331 
L 1722 331 
L 1722 4213 
L 781 3603 
L 781 4013 
L 1919 4750 
L 2350 4750 
L 2350 331 
L 3163 331 
L 3163 0 
L 909 0 
z
" transform="scale(0.015625)"/>
       </defs>
       <use xlink:href="#DejaVuSerif-2212"/>
       <use xlink:href="#DejaVuSerif-31" x="83.789062"/>
       <use xlink:href="#DejaVuSerif-30" x="147.412109"/>
      </g>
     </g>
    </g>
    <g id="ytick_6">
     <g id="line2d_33">
      <path d="M 232.76964 50.348109 
L 377.81928 50.348109 
" clip-path="url(#p0a9075cd19)" style="fill: none; stroke: #b0b0b0; stroke-width: 0.1; stroke-linecap: round"/>
     </g>
     <g id="line2d_34"/>
     <g id="text_10">
      <!-- 0 -->
      <g style="fill: #262626" transform="translate(224.17964 53.387484) scale(0.08 -0.08)">
       <use xlink:href="#DejaVuSerif-30"/>
      </g>
     </g>
    </g>
    <g id="ytick_7">
     <g id="line2d_35">
      <path d="M 232.76964 16.719132 
L 377.81928 16.719132 
" clip-path="url(#p0a9075cd19)" style="fill: none; stroke: #b0b0b0; stroke-width: 0.1; stroke-linecap: round"/>
     </g>
     <g id="line2d_36"/>
     <g id="text_11">
      <!-- 10 -->
      <g style="fill: #262626" transform="translate(219.08964 19.758507) scale(0.08 -0.08)">
       <use xlink:href="#DejaVuSerif-31"/>
       <use xlink:href="#DejaVuSerif-30" x="63.623047"/>
      </g>
     </g>
    </g>
    <g id="text_12">
     <!-- $beta$ [deg] -->
     <g style="fill: #262626" transform="translate(206.77589 68.805776) rotate(-90) scale(0.07 -0.07)">
      <defs>
       <path id="DejaVuSans-Oblique-62" d="M 3169 2138 
Q 3169 2591 2961 2847 
Q 2753 3103 2388 3103 
Q 2122 3103 1889 2973 
Q 1656 2844 1484 2597 
Q 1303 2338 1198 1995 
Q 1094 1653 1094 1313 
Q 1094 881 1298 636 
Q 1503 391 1863 391 
Q 2134 391 2365 517 
Q 2597 644 2772 891 
Q 2950 1147 3059 1487 
Q 3169 1828 3169 2138 
z
M 1381 2969 
Q 1594 3256 1914 3420 
Q 2234 3584 2584 3584 
Q 3122 3584 3439 3221 
Q 3756 2859 3756 2241 
Q 3756 1734 3570 1259 
Q 3384 784 3041 416 
Q 2816 172 2522 40 
Q 2228 -91 1906 -91 
Q 1566 -91 1316 65 
Q 1066 222 909 531 
L 806 0 
L 231 0 
L 1178 4863 
L 1753 4863 
L 1381 2969 
z
" transform="scale(0.015625)"/>
       <path id="DejaVuSans-Oblique-65" d="M 3078 2063 
Q 3088 2113 3092 2166 
Q 3097 2219 3097 2272 
Q 3097 2653 2873 2875 
Q 2650 3097 2266 3097 
Q 1838 3097 1509 2826 
Q 1181 2556 1013 2059 
L 3078 2063 
z
M 3578 1613 
L 903 1613 
Q 884 1494 878 1425 
Q 872 1356 872 1306 
Q 872 872 1139 634 
Q 1406 397 1894 397 
Q 2269 397 2603 481 
Q 2938 566 3225 728 
L 3116 159 
Q 2806 34 2476 -28 
Q 2147 -91 1806 -91 
Q 1078 -91 686 257 
Q 294 606 294 1247 
Q 294 1794 489 2264 
Q 684 2734 1063 3103 
Q 1306 3334 1642 3459 
Q 1978 3584 2356 3584 
Q 2950 3584 3301 3228 
Q 3653 2872 3653 2272 
Q 3653 2128 3634 1964 
Q 3616 1800 3578 1613 
z
" transform="scale(0.015625)"/>
       <path id="DejaVuSans-Oblique-74" d="M 2706 3500 
L 2619 3053 
L 1472 3053 
L 1100 1153 
Q 1081 1047 1072 975 
Q 1063 903 1063 863 
Q 1063 663 1183 572 
Q 1303 481 1569 481 
L 2150 481 
L 2053 0 
L 1503 0 
Q 991 0 739 200 
Q 488 400 488 806 
Q 488 878 497 964 
Q 506 1050 525 1153 
L 897 3053 
L 409 3053 
L 500 3500 
L 978 3500 
L 1172 4494 
L 1747 4494 
L 1556 3500 
L 2706 3500 
z
" transform="scale(0.015625)"/>
       <path id="DejaVuSans-Oblique-61" d="M 3438 1997 
L 3047 0 
L 2472 0 
L 2578 531 
Q 2325 219 2001 64 
Q 1678 -91 1281 -91 
Q 834 -91 548 182 
Q 263 456 263 884 
Q 263 1497 752 1853 
Q 1241 2209 2100 2209 
L 2900 2209 
L 2931 2363 
Q 2938 2388 2941 2417 
Q 2944 2447 2944 2509 
Q 2944 2788 2717 2942 
Q 2491 3097 2081 3097 
Q 1800 3097 1504 3025 
Q 1209 2953 897 2809 
L 997 3341 
Q 1322 3463 1633 3523 
Q 1944 3584 2234 3584 
Q 2853 3584 3176 3315 
Q 3500 3047 3500 2534 
Q 3500 2431 3484 2292 
Q 3469 2153 3438 1997 
z
M 2816 1759 
L 2241 1759 
Q 1534 1759 1195 1570 
Q 856 1381 856 984 
Q 856 709 1029 553 
Q 1203 397 1509 397 
Q 1978 397 2328 733 
Q 2678 1069 2791 1631 
L 2816 1759 
z
" transform="scale(0.015625)"/>
       <path id="DejaVuSerif-5b" d="M 550 4863 
L 2003 4863 
L 2003 4531 
L 1147 4531 
L 1147 -513 
L 2003 -513 
L 2003 -844 
L 550 -844 
L 550 4863 
z
" transform="scale(0.015625)"/>
       <path id="DejaVuSerif-67" d="M 3359 2988 
L 3359 72 
Q 3359 -644 2965 -1033 
Q 2572 -1422 1844 -1422 
Q 1516 -1422 1216 -1362 
Q 916 -1303 641 -1184 
L 641 -488 
L 941 -488 
Q 997 -813 1206 -963 
Q 1416 -1113 1806 -1113 
Q 2313 -1113 2548 -827 
Q 2784 -541 2784 72 
L 2784 519 
Q 2616 206 2355 57 
Q 2094 -91 1709 -91 
Q 1097 -91 708 395 
Q 319 881 319 1663 
Q 319 2444 706 2928 
Q 1094 3413 1709 3413 
Q 2094 3413 2355 3264 
Q 2616 3116 2784 2803 
L 2784 3322 
L 3909 3322 
L 3909 2988 
L 3359 2988 
z
M 2784 1825 
Q 2784 2422 2554 2737 
Q 2325 3053 1888 3053 
Q 1444 3053 1217 2703 
Q 991 2353 991 1663 
Q 991 975 1217 622 
Q 1444 269 1888 269 
Q 2325 269 2554 583 
Q 2784 897 2784 1497 
L 2784 1825 
z
" transform="scale(0.015625)"/>
       <path id="DejaVuSerif-5d" d="M 1947 4863 
L 1947 -844 
L 494 -844 
L 494 -513 
L 1350 -513 
L 1350 4531 
L 494 4531 
L 494 4863 
L 1947 4863 
z
" transform="scale(0.015625)"/>
      </defs>
      <use xlink:href="#DejaVuSans-Oblique-62" transform="translate(0 0.015625)"/>
      <use xlink:href="#DejaVuSans-Oblique-65" transform="translate(63.476562 0.015625)"/>
      <use xlink:href="#DejaVuSans-Oblique-74" transform="translate(125 0.015625)"/>
      <use xlink:href="#DejaVuSans-Oblique-61" transform="translate(164.208984 0.015625)"/>
      <use xlink:href="#DejaVuSerif-20" transform="translate(225.488281 0.015625)"/>
      <use xlink:href="#DejaVuSerif-5b" transform="translate(257.275391 0.015625)"/>
      <use xlink:href="#DejaVuSerif-64" transform="translate(296.289062 0.015625)"/>
      <use xlink:href="#DejaVuSerif-65" transform="translate(360.302734 0.015625)"/>
      <use xlink:href="#DejaVuSerif-67" transform="translate(419.482422 0.015625)"/>
      <use xlink:href="#DejaVuSerif-5d" transform="translate(483.496094 0.015625)"/>
     </g>
    </g>
   </g>
   <g id="line2d_37">
    <path d="M 239.362805 50.32737 
L 239.998133 50.216893 
L 240.66981 49.869823 
L 241.359653 49.243503 
L 244.227797 45.982496 
L 245.643754 43.940931 
L 247.186704 41.280163 
L 249.728118 36.41741 
L 252.614454 30.999278 
L 254.720199 27.556799 
L 255.573388 26.506575 
L 256.317665 25.917871 
L 257.080116 25.597392 
L 257.751766 25.538078 
L 258.278197 25.698173 
L 259.076945 26.245144 
L 261.709097 28.039496 
L 262.526 28.910536 
L 263.578862 30.37962 
L 265.176386 33.061647 
L 268.589089 39.386874 
L 276.703485 55.060566 
L 285.253558 71.350757 
L 287.740515 75.411408 
L 289.864395 78.440813 
L 291.988303 81.0307 
L 294.311904 83.30228 
L 295.945672 84.661821 
L 298.632314 86.391463 
L 299.213193 86.579394 
L 299.830388 86.544132 
L 300.52022 86.269114 
L 301.210037 85.780267 
L 301.954297 84.953258 
L 304.132653 82.363537 
L 306.075049 80.153383 
L 307.164201 78.423246 
L 308.81614 75.332362 
L 314.697694 63.769519 
L 317.765556 58.309944 
L 325.426118 43.643872 
L 329.347166 36.388897 
L 332.705476 30.670893 
L 335.482884 26.605453 
L 337.207422 24.420436 
L 339.403931 21.868713 
L 341.255536 20.037664 
L 343.688032 18.077088 
L 345.848237 16.678021 
L 347.191564 15.843367 
L 349.006907 15.027119 
L 350.912921 14.43297 
L 351.530117 14.663154 
L 352.583022 15.315 
L 353.345426 16.076466 
L 354.107862 17.165074 
L 355.178894 18.63541 
L 357.847359 21.968126 
L 359.245136 24.313573 
L 360.715538 27.244644 
L 364.79998 35.386043 
L 369.44713 44.345681 
L 370.881268 47.759009 
L 371.226115 48.633516 
L 371.226115 48.633516 
" clip-path="url(#p0a9075cd19)" style="fill: none; stroke: #000000; stroke-width: 0.4; stroke-linecap: round"/>
   </g>
   <g id="line2d_38">
    <path d="M 239.362805 50.348109 
L 239.925548 50.210326 
L 240.506444 49.824654 
L 241.123646 49.131932 
L 242.194673 47.484029 
L 243.919207 44.391169 
L 246.133873 39.919883 
L 250.073072 31.8909 
L 252.069902 28.367703 
L 254.084884 25.316561 
L 254.629474 24.804821 
L 255.137758 24.613049 
L 255.646042 24.657398 
L 256.226938 24.940011 
L 256.953057 25.560744 
L 258.151155 26.936828 
L 260.54735 30.017841 
L 262.308191 32.594603 
L 265.339741 37.500615 
L 267.844854 41.986406 
L 270.78564 47.78702 
L 274.071332 54.84829 
L 282.675851 73.537356 
L 284.563763 76.958007 
L 286.088614 79.297264 
L 287.468242 81.00415 
L 288.720798 82.256528 
L 290.154885 83.379998 
L 291.407442 84.101962 
L 292.986752 84.725441 
L 294.166697 84.975814 
L 294.54791 84.793975 
L 294.983582 84.321724 
L 295.618936 83.263151 
L 296.635504 81.067342 
L 299.267688 75.271604 
L 305.839073 62.441449 
L 307.76329 57.870688 
L 310.286556 51.204219 
L 317.747437 30.858629 
L 319.490125 27.001252 
L 320.996823 24.193168 
L 322.412757 22.0148 
L 323.683466 20.44973 
L 324.972329 19.218332 
L 326.297498 18.262047 
L 327.604513 17.588048 
L 329.020447 17.108841 
L 330.690522 16.813763 
L 332.778117 16.701729 
L 332.814423 16.701036 
L 332.814423 16.701036 
" clip-path="url(#p0a9075cd19)" style="fill: none; stroke-dasharray: 1.48,0.64; stroke-dashoffset: 0; stroke: #0000ff; stroke-width: 0.4"/>
   </g>
   <g id="line2d_39">
    <path d="M 239.362805 50.348109 
L 239.925548 50.18778 
L 240.488291 49.78464 
L 241.051034 49.101383 
L 241.904225 47.627946 
L 243.410923 44.623877 
L 245.879731 39.123092 
L 248.96574 32.301667 
L 250.799192 28.751975 
L 252.523727 25.895421 
L 253.721824 24.27224 
L 254.284567 23.88277 
L 254.811004 23.778317 
L 255.337441 23.907346 
L 255.900184 24.28959 
L 256.535539 25.011285 
L 257.279811 26.229417 
L 263.705972 37.778792 
L 268.934034 47.930513 
L 275.94109 61.712488 
L 278.682192 66.577436 
L 281.005776 70.280286 
L 283.165982 73.312091 
L 285.017587 75.554579 
L 286.760275 77.325374 
L 288.61188 78.890324 
L 290.42718 80.115383 
L 292.460315 81.209858 
L 294.584216 82.096974 
L 296.67181 82.725979 
L 297.2164 82.666134 
L 297.797296 82.3708 
L 298.450804 81.7711 
L 299.176923 80.787166 
L 300.048267 79.198153 
L 308.779858 61.331094 
L 311.956632 53.838532 
L 316.349657 42.848334 
L 319.599043 35.020004 
L 321.650331 30.620691 
L 323.483784 27.209152 
L 325.081247 24.718412 
L 326.587946 22.769621 
L 328.167256 21.103052 
L 329.601343 19.916215 
L 331.180653 18.898433 
L 332.79627 18.108361 
L 334.666028 17.428269 
L 336.55394 16.958064 
L 336.55394 16.958064 
" clip-path="url(#p0a9075cd19)" style="fill: none; stroke-dasharray: 1.48,0.64; stroke-dashoffset: 0; stroke: #ff0000; stroke-width: 0.4"/>
   </g>
   <g id="patch_6">
    <path d="M 232.76964 90.201552 
L 232.76964 10.8 
" style="fill: none; stroke: #000000; stroke-linejoin: miter; stroke-linecap: square"/>
   </g>
   <g id="patch_7">
    <path d="M 232.76964 90.201552 
L 377.81928 90.201552 
" style="fill: none; stroke: #000000; stroke-linejoin: miter; stroke-linecap: square"/>
   </g>
  </g>
  <g id="axes_3">
   <g id="patch_8">
    <path d="M 43.86 185.443104 
L 188.90964 185.443104 
L 188.90964 106.041552 
L 43.86 106.041552 
z
" style="fill: #ffffff"/>
   </g>
   <g id="matplotlib.axis_5">
    <g id="xtick_9">
     <g id="line2d_40">
      <path d="M 50.453165 185.443104 
L 50.453165 106.041552 
" clip-path="url(#pf051150889)" style="fill: none; stroke: #b0b0b0; stroke-width: 0.1; stroke-linecap: round"/>
     </g>
     <g id="line2d_41"/>
     <g id="text_13">
      <!-- 0 -->
      <g style="fill: #262626" transform="translate(47.908165 195.021854) scale(0.08 -0.08)">
       <use xlink:href="#DejaVuSerif-30"/>
      </g>
     </g>
    </g>
    <g id="xtick_10">
     <g id="line2d_42">
      <path d="M 86.759155 185.443104 
L 86.759155 106.041552 
" clip-path="url(#pf051150889)" style="fill: none; stroke: #b0b0b0; stroke-width: 0.1; stroke-linecap: round"/>
     </g>
     <g id="line2d_43"/>
     <g id="text_14">
      <!-- 20 -->
      <g style="fill: #262626" transform="translate(81.669155 195.021854) scale(0.08 -0.08)">
       <use xlink:href="#DejaVuSerif-32"/>
       <use xlink:href="#DejaVuSerif-30" x="63.623047"/>
      </g>
     </g>
    </g>
    <g id="xtick_11">
     <g id="line2d_44">
      <path d="M 123.065145 185.443104 
L 123.065145 106.041552 
" clip-path="url(#pf051150889)" style="fill: none; stroke: #b0b0b0; stroke-width: 0.1; stroke-linecap: round"/>
     </g>
     <g id="line2d_45"/>
     <g id="text_15">
      <!-- 40 -->
      <g style="fill: #262626" transform="translate(117.975145 195.021854) scale(0.08 -0.08)">
       <defs>
        <path id="DejaVuSerif-34" d="M 2234 1581 
L 2234 4063 
L 641 1581 
L 2234 1581 
z
M 3609 0 
L 1484 0 
L 1484 331 
L 2234 331 
L 2234 1247 
L 197 1247 
L 197 1588 
L 2241 4750 
L 2859 4750 
L 2859 1581 
L 3750 1581 
L 3750 1247 
L 2859 1247 
L 2859 331 
L 3609 331 
L 3609 0 
z
" transform="scale(0.015625)"/>
       </defs>
       <use xlink:href="#DejaVuSerif-34"/>
       <use xlink:href="#DejaVuSerif-30" x="63.623047"/>
      </g>
     </g>
    </g>
    <g id="xtick_12">
     <g id="line2d_46">
      <path d="M 159.371134 185.443104 
L 159.371134 106.041552 
" clip-path="url(#pf051150889)" style="fill: none; stroke: #b0b0b0; stroke-width: 0.1; stroke-linecap: round"/>
     </g>
     <g id="line2d_47"/>
     <g id="text_16">
      <!-- 60 -->
      <g style="fill: #262626" transform="translate(154.281134 195.021854) scale(0.08 -0.08)">
       <defs>
        <path id="DejaVuSerif-36" d="M 2094 219 
Q 2534 219 2771 542 
Q 3009 866 3009 1472 
Q 3009 2078 2771 2401 
Q 2534 2725 2094 2725 
Q 1647 2725 1412 2412 
Q 1178 2100 1178 1509 
Q 1178 888 1415 553 
Q 1653 219 2094 219 
z
M 1075 2569 
Q 1288 2803 1556 2918 
Q 1825 3034 2163 3034 
Q 2859 3034 3264 2615 
Q 3669 2197 3669 1472 
Q 3669 763 3233 336 
Q 2797 -91 2069 -91 
Q 1278 -91 853 498 
Q 428 1088 428 2181 
Q 428 3406 931 4078 
Q 1434 4750 2350 4750 
Q 2597 4750 2869 4703 
Q 3141 4656 3425 4563 
L 3425 3794 
L 3072 3794 
Q 3034 4109 2831 4275 
Q 2628 4441 2284 4441 
Q 1678 4441 1381 3981 
Q 1084 3522 1075 2569 
z
" transform="scale(0.015625)"/>
       </defs>
       <use xlink:href="#DejaVuSerif-36"/>
       <use xlink:href="#DejaVuSerif-30" x="63.623047"/>
      </g>
     </g>
    </g>
    <g id="text_17">
     <!-- Time [s] -->
     <g style="fill: #262626" transform="translate(101.900836 206.00451) scale(0.07 -0.07)">
      <defs>
       <path id="DejaVuSerif-54" d="M 1222 0 
L 1222 331 
L 1819 331 
L 1819 4294 
L 447 4294 
L 447 3566 
L 63 3566 
L 63 4666 
L 4206 4666 
L 4206 3566 
L 3822 3566 
L 3822 4294 
L 2450 4294 
L 2450 331 
L 3047 331 
L 3047 0 
L 1222 0 
z
" transform="scale(0.015625)"/>
      </defs>
      <use xlink:href="#DejaVuSerif-54"/>
      <use xlink:href="#DejaVuSerif-69" x="66.699219"/>
      <use xlink:href="#DejaVuSerif-6d" x="98.681641"/>
      <use xlink:href="#DejaVuSerif-65" x="193.505859"/>
      <use xlink:href="#DejaVuSerif-20" x="252.685547"/>
      <use xlink:href="#DejaVuSerif-5b" x="284.472656"/>
      <use xlink:href="#DejaVuSerif-73" x="323.486328"/>
      <use xlink:href="#DejaVuSerif-5d" x="374.804688"/>
     </g>
    </g>
   </g>
   <g id="matplotlib.axis_6">
    <g id="ytick_8">
     <g id="line2d_48">
      <path d="M 43.86 181.66954 
L 188.90964 181.66954 
" clip-path="url(#pf051150889)" style="fill: none; stroke: #b0b0b0; stroke-width: 0.1; stroke-linecap: round"/>
     </g>
     <g id="line2d_49"/>
     <g id="text_18">
      <!-- −20 -->
      <g style="fill: #262626" transform="translate(23.47625 184.708915) scale(0.08 -0.08)">
       <use xlink:href="#DejaVuSerif-2212"/>
       <use xlink:href="#DejaVuSerif-32" x="83.789062"/>
       <use xlink:href="#DejaVuSerif-30" x="147.412109"/>
      </g>
     </g>
    </g>
    <g id="ytick_9">
     <g id="line2d_50">
      <path d="M 43.86 145.736001 
L 188.90964 145.736001 
" clip-path="url(#pf051150889)" style="fill: none; stroke: #b0b0b0; stroke-width: 0.1; stroke-linecap: round"/>
     </g>
     <g id="line2d_51"/>
     <g id="text_19">
      <!-- 0 -->
      <g style="fill: #262626" transform="translate(35.27 148.775376) scale(0.08 -0.08)">
       <use xlink:href="#DejaVuSerif-30"/>
      </g>
     </g>
    </g>
    <g id="ytick_10">
     <g id="line2d_52">
      <path d="M 43.86 109.802462 
L 188.90964 109.802462 
" clip-path="url(#pf051150889)" style="fill: none; stroke: #b0b0b0; stroke-width: 0.1; stroke-linecap: round"/>
     </g>
     <g id="line2d_53"/>
     <g id="text_20">
      <!-- 20 -->
      <g style="fill: #262626" transform="translate(30.18 112.841837) scale(0.08 -0.08)">
       <use xlink:href="#DejaVuSerif-32"/>
       <use xlink:href="#DejaVuSerif-30" x="63.623047"/>
      </g>
     </g>
    </g>
    <g id="text_21">
     <!-- $delta$ [deg] -->
     <g style="fill: #262626" transform="translate(17.86625 165.027328) rotate(-90) scale(0.07 -0.07)">
      <defs>
       <path id="DejaVuSans-Oblique-64" d="M 2675 525 
Q 2444 222 2128 65 
Q 1813 -91 1428 -91 
Q 903 -91 598 267 
Q 294 625 294 1247 
Q 294 1766 478 2236 
Q 663 2706 1013 3078 
Q 1244 3325 1534 3454 
Q 1825 3584 2144 3584 
Q 2481 3584 2739 3421 
Q 2997 3259 3138 2956 
L 3513 4863 
L 4091 4863 
L 3144 0 
L 2566 0 
L 2675 525 
z
M 891 1350 
Q 891 897 1095 644 
Q 1300 391 1663 391 
Q 1931 391 2161 520 
Q 2391 650 2566 903 
Q 2750 1166 2856 1509 
Q 2963 1853 2963 2188 
Q 2963 2622 2758 2865 
Q 2553 3109 2194 3109 
Q 1922 3109 1687 2981 
Q 1453 2853 1288 2613 
Q 1106 2353 998 2009 
Q 891 1666 891 1350 
z
" transform="scale(0.015625)"/>
       <path id="DejaVuSans-Oblique-6c" d="M 1172 4863 
L 1747 4863 
L 800 0 
L 225 0 
L 1172 4863 
z
" transform="scale(0.015625)"/>
      </defs>
      <use xlink:href="#DejaVuSans-Oblique-64" transform="translate(0 0.015625)"/>
      <use xlink:href="#DejaVuSans-Oblique-65" transform="translate(63.476562 0.015625)"/>
      <use xlink:href="#DejaVuSans-Oblique-6c" transform="translate(125 0.015625)"/>
      <use xlink:href="#DejaVuSans-Oblique-74" transform="translate(152.783203 0.015625)"/>
      <use xlink:href="#DejaVuSans-Oblique-61" transform="translate(191.992188 0.015625)"/>
      <use xlink:href="#DejaVuSerif-20" transform="translate(253.271484 0.015625)"/>
      <use xlink:href="#DejaVuSerif-5b" transform="translate(285.058594 0.015625)"/>
      <use xlink:href="#DejaVuSerif-64" transform="translate(324.072266 0.015625)"/>
      <use xlink:href="#DejaVuSerif-65" transform="translate(388.085938 0.015625)"/>
      <use xlink:href="#DejaVuSerif-67" transform="translate(447.265625 0.015625)"/>
      <use xlink:href="#DejaVuSerif-5d" transform="translate(511.279297 0.015625)"/>
     </g>
    </g>
   </g>
   <g id="line2d_54">
    <path d="M 50.453165 145.175672 
L 51.106661 157.605541 
L 52.395496 181.833943 
L 52.558904 181.694739 
L 53.430222 181.666617 
L 54.156336 181.668023 
L 55.608601 181.671539 
L 56.189501 181.670836 
L 57.151584 181.668023 
L 57.877704 181.670836 
L 60.800354 181.668023 
L 63.632212 181.668727 
L 64.576154 181.668023 
L 65.538299 181.670133 
L 65.846898 181.668023 
L 65.937639 179.951183 
L 66.917901 161.416055 
L 69.658992 109.650713 
L 69.677187 109.693599 
L 70.258068 109.803275 
L 70.857115 109.808196 
L 109.613741 109.799759 
L 109.704502 111.527849 
L 112.572668 165.837517 
L 113.425865 181.815663 
L 113.534783 181.715128 
L 114.206445 181.670133 
L 117.074622 181.668023 
L 117.818886 181.670836 
L 119.289278 181.668023 
L 120.251391 181.671539 
L 120.850443 181.668727 
L 123.700458 181.668727 
L 126.514172 181.668727 
L 127.476279 181.671539 
L 128.438395 181.668023 
L 129.400551 181.671539 
L 130.144802 181.668023 
L 131.106903 181.670836 
L 132.522819 181.670836 
L 135.336529 181.66943 
L 138.168407 181.670836 
L 139.566204 181.668727 
L 161.277172 181.668727 
L 161.367938 179.949777 
L 162.202969 164.148095 
L 165.089293 109.657041 
L 165.234508 109.766716 
L 182.316475 109.802572 
L 182.316475 109.802572 
" clip-path="url(#pf051150889)" style="fill: none; stroke: #000000; stroke-width: 0.4; stroke-linecap: round"/>
   </g>
   <g id="line2d_55">
    <path d="M 50.453165 145.736001 
L 52.449995 181.66954 
L 65.048173 181.66954 
L 68.951067 109.802462 
L 105.057374 109.802462 
L 108.960268 181.66954 
L 143.904783 181.66954 
L 143.904783 181.66954 
" clip-path="url(#pf051150889)" style="fill: none; stroke-dasharray: 1.48,0.64; stroke-dashoffset: 0; stroke: #0000ff; stroke-width: 0.4"/>
   </g>
   <g id="line2d_56">
    <path d="M 50.453165 145.736001 
L 52.449995 181.66954 
L 64.376512 181.66954 
L 68.279406 109.802462 
L 107.526181 109.802462 
L 111.429075 181.66954 
L 147.6443 181.66954 
L 147.6443 181.66954 
" clip-path="url(#pf051150889)" style="fill: none; stroke-dasharray: 1.48,0.64; stroke-dashoffset: 0; stroke: #ff0000; stroke-width: 0.4"/>
   </g>
   <g id="patch_9">
    <path d="M 43.86 185.443104 
L 43.86 106.041552 
" style="fill: none; stroke: #000000; stroke-linejoin: miter; stroke-linecap: square"/>
   </g>
   <g id="patch_10">
    <path d="M 43.86 185.443104 
L 188.90964 185.443104 
" style="fill: none; stroke: #000000; stroke-linejoin: miter; stroke-linecap: square"/>
   </g>
  </g>
  <g id="axes_4">
   <g id="patch_11">
    <path d="M 232.76964 185.443104 
L 377.81928 185.443104 
L 377.81928 106.041552 
L 232.76964 106.041552 
z
" style="fill: #ffffff"/>
   </g>
   <g id="matplotlib.axis_7">
    <g id="xtick_13">
     <g id="line2d_57">
      <path d="M 239.362805 185.443104 
L 239.362805 106.041552 
" clip-path="url(#pfb9b1cd975)" style="fill: none; stroke: #b0b0b0; stroke-width: 0.1; stroke-linecap: round"/>
     </g>
     <g id="line2d_58"/>
     <g id="text_22">
      <!-- 0 -->
      <g style="fill: #262626" transform="translate(236.817805 195.021854) scale(0.08 -0.08)">
       <use xlink:href="#DejaVuSerif-30"/>
      </g>
     </g>
    </g>
    <g id="xtick_14">
     <g id="line2d_59">
      <path d="M 275.668795 185.443104 
L 275.668795 106.041552 
" clip-path="url(#pfb9b1cd975)" style="fill: none; stroke: #b0b0b0; stroke-width: 0.1; stroke-linecap: round"/>
     </g>
     <g id="line2d_60"/>
     <g id="text_23">
      <!-- 20 -->
      <g style="fill: #262626" transform="translate(270.578795 195.021854) scale(0.08 -0.08)">
       <use xlink:href="#DejaVuSerif-32"/>
       <use xlink:href="#DejaVuSerif-30" x="63.623047"/>
      </g>
     </g>
    </g>
    <g id="xtick_15">
     <g id="line2d_61">
      <path d="M 311.974785 185.443104 
L 311.974785 106.041552 
" clip-path="url(#pfb9b1cd975)" style="fill: none; stroke: #b0b0b0; stroke-width: 0.1; stroke-linecap: round"/>
     </g>
     <g id="line2d_62"/>
     <g id="text_24">
      <!-- 40 -->
      <g style="fill: #262626" transform="translate(306.884785 195.021854) scale(0.08 -0.08)">
       <use xlink:href="#DejaVuSerif-34"/>
       <use xlink:href="#DejaVuSerif-30" x="63.623047"/>
      </g>
     </g>
    </g>
    <g id="xtick_16">
     <g id="line2d_63">
      <path d="M 348.280774 185.443104 
L 348.280774 106.041552 
" clip-path="url(#pfb9b1cd975)" style="fill: none; stroke: #b0b0b0; stroke-width: 0.1; stroke-linecap: round"/>
     </g>
     <g id="line2d_64"/>
     <g id="text_25">
      <!-- 60 -->
      <g style="fill: #262626" transform="translate(343.190774 195.021854) scale(0.08 -0.08)">
       <use xlink:href="#DejaVuSerif-36"/>
       <use xlink:href="#DejaVuSerif-30" x="63.623047"/>
      </g>
     </g>
    </g>
    <g id="text_26">
     <!-- Time [s] -->
     <g style="fill: #262626" transform="translate(290.810476 206.00451) scale(0.07 -0.07)">
      <use xlink:href="#DejaVuSerif-54"/>
      <use xlink:href="#DejaVuSerif-69" x="66.699219"/>
      <use xlink:href="#DejaVuSerif-6d" x="98.681641"/>
      <use xlink:href="#DejaVuSerif-65" x="193.505859"/>
      <use xlink:href="#DejaVuSerif-20" x="252.685547"/>
      <use xlink:href="#DejaVuSerif-5b" x="284.472656"/>
      <use xlink:href="#DejaVuSerif-73" x="323.486328"/>
      <use xlink:href="#DejaVuSerif-5d" x="374.804688"/>
     </g>
    </g>
   </g>
   <g id="matplotlib.axis_8">
    <g id="ytick_11">
     <g id="line2d_65">
      <path d="M 232.76964 167.417026 
L 377.81928 167.417026 
" clip-path="url(#pfb9b1cd975)" style="fill: none; stroke: #b0b0b0; stroke-width: 0.1; stroke-linecap: round"/>
     </g>
     <g id="line2d_66"/>
     <g id="text_27">
      <!-- −25 -->
      <g style="fill: #262626" transform="translate(212.38589 170.456401) scale(0.08 -0.08)">
       <use xlink:href="#DejaVuSerif-2212"/>
       <use xlink:href="#DejaVuSerif-32" x="83.789062"/>
       <use xlink:href="#DejaVuSerif-35" x="147.412109"/>
      </g>
     </g>
    </g>
    <g id="ytick_12">
     <g id="line2d_67">
      <path d="M 232.76964 143.282085 
L 377.81928 143.282085 
" clip-path="url(#pfb9b1cd975)" style="fill: none; stroke: #b0b0b0; stroke-width: 0.1; stroke-linecap: round"/>
     </g>
     <g id="line2d_68"/>
     <g id="text_28">
      <!-- 0 -->
      <g style="fill: #262626" transform="translate(224.17964 146.32146) scale(0.08 -0.08)">
       <use xlink:href="#DejaVuSerif-30"/>
      </g>
     </g>
    </g>
    <g id="ytick_13">
     <g id="line2d_69">
      <path d="M 232.76964 119.147143 
L 377.81928 119.147143 
" clip-path="url(#pfb9b1cd975)" style="fill: none; stroke: #b0b0b0; stroke-width: 0.1; stroke-linecap: round"/>
     </g>
     <g id="line2d_70"/>
     <g id="text_29">
      <!-- 25 -->
      <g style="fill: #262626" transform="translate(219.08964 122.186518) scale(0.08 -0.08)">
       <use xlink:href="#DejaVuSerif-32"/>
       <use xlink:href="#DejaVuSerif-35" x="63.623047"/>
      </g>
     </g>
    </g>
    <g id="text_30">
     <!-- $psi$ [deg] -->
     <g style="fill: #262626" transform="translate(206.77589 161.177328) rotate(-90) scale(0.07 -0.07)">
      <defs>
       <path id="DejaVuSans-Oblique-70" d="M 3175 2156 
Q 3175 2616 2975 2859 
Q 2775 3103 2400 3103 
Q 2144 3103 1911 2972 
Q 1678 2841 1497 2591 
Q 1319 2344 1212 1994 
Q 1106 1644 1106 1300 
Q 1106 863 1306 627 
Q 1506 391 1875 391 
Q 2147 391 2380 519 
Q 2613 647 2778 891 
Q 2956 1147 3065 1494 
Q 3175 1841 3175 2156 
z
M 1394 2969 
Q 1625 3272 1939 3428 
Q 2253 3584 2638 3584 
Q 3175 3584 3472 3232 
Q 3769 2881 3769 2247 
Q 3769 1728 3584 1258 
Q 3400 788 3053 416 
Q 2822 169 2531 39 
Q 2241 -91 1919 -91 
Q 1547 -91 1294 64 
Q 1041 219 916 525 
L 556 -1331 
L -19 -1331 
L 922 3500 
L 1497 3500 
L 1394 2969 
z
" transform="scale(0.015625)"/>
       <path id="DejaVuSans-Oblique-73" d="M 3200 3397 
L 3091 2853 
Q 2863 2978 2609 3040 
Q 2356 3103 2088 3103 
Q 1634 3103 1373 2948 
Q 1113 2794 1113 2528 
Q 1113 2219 1719 2053 
Q 1766 2041 1788 2034 
L 1972 1978 
Q 2547 1819 2739 1644 
Q 2931 1469 2931 1166 
Q 2931 609 2489 259 
Q 2047 -91 1331 -91 
Q 1053 -91 747 -37 
Q 441 16 72 128 
L 184 722 
Q 500 559 806 475 
Q 1113 391 1394 391 
Q 1816 391 2080 572 
Q 2344 753 2344 1031 
Q 2344 1331 1650 1516 
L 1591 1531 
L 1394 1581 
Q 956 1697 753 1886 
Q 550 2075 550 2369 
Q 550 2928 970 3256 
Q 1391 3584 2113 3584 
Q 2397 3584 2667 3537 
Q 2938 3491 3200 3397 
z
" transform="scale(0.015625)"/>
       <path id="DejaVuSans-Oblique-69" d="M 1172 4863 
L 1747 4863 
L 1606 4134 
L 1031 4134 
L 1172 4863 
z
M 909 3500 
L 1484 3500 
L 800 0 
L 225 0 
L 909 3500 
z
" transform="scale(0.015625)"/>
      </defs>
      <use xlink:href="#DejaVuSans-Oblique-70" transform="translate(0 0.015625)"/>
      <use xlink:href="#DejaVuSans-Oblique-73" transform="translate(63.476562 0.015625)"/>
      <use xlink:href="#DejaVuSans-Oblique-69" transform="translate(115.576172 0.015625)"/>
      <use xlink:href="#DejaVuSerif-20" transform="translate(143.359375 0.015625)"/>
      <use xlink:href="#DejaVuSerif-5b" transform="translate(175.146484 0.015625)"/>
      <use xlink:href="#DejaVuSerif-64" transform="translate(214.160156 0.015625)"/>
      <use xlink:href="#DejaVuSerif-65" transform="translate(278.173828 0.015625)"/>
      <use xlink:href="#DejaVuSerif-67" transform="translate(337.353516 0.015625)"/>
      <use xlink:href="#DejaVuSerif-5d" transform="translate(401.367188 0.015625)"/>
     </g>
    </g>
   </g>
   <g id="line2d_71">
    <path d="M 239.362805 143.41169 
L 240.869477 143.327786 
L 241.81344 143.043948 
L 242.830051 142.495032 
L 243.991781 141.603341 
L 245.280644 140.325047 
L 246.696592 138.600239 
L 248.239584 136.358577 
L 249.982269 133.416966 
L 252.033583 129.499853 
L 254.683924 123.923217 
L 257.352376 118.384477 
L 258.586827 116.343604 
L 259.657812 115.001838 
L 260.819609 113.901019 
L 262.017707 113.064843 
L 263.233952 112.483483 
L 264.45021 112.146177 
L 265.684613 112.035038 
L 266.973476 112.142767 
L 268.334953 112.483418 
L 269.787181 113.08151 
L 271.348344 113.970068 
L 272.945802 115.136417 
L 274.634045 116.653193 
L 276.394937 118.542311 
L 278.192027 120.806519 
L 280.061785 123.531077 
L 282.022302 126.793449 
L 284.200657 130.861771 
L 287.050739 136.705024 
L 290.808351 144.926618 
L 295.891191 156.628441 
L 300.792502 167.800092 
L 302.081364 170.1338 
L 303.152388 171.636766 
L 304.350487 172.935618 
L 305.639377 174.008517 
L 307.019028 174.868393 
L 308.471244 175.511262 
L 310.014234 175.951096 
L 311.557237 176.162487 
L 313.100225 176.14577 
L 314.661439 175.906085 
L 316.204389 175.443367 
L 317.801851 174.727204 
L 319.453781 173.739047 
L 321.178306 172.441669 
L 323.011764 170.780969 
L 324.954138 168.711394 
L 326.969137 166.234422 
L 329.074859 163.285594 
L 331.471067 159.529372 
L 334.302925 154.661704 
L 338.133241 147.593701 
L 343.361271 137.467562 
L 353.01867 118.629346 
L 354.180492 117.024047 
L 355.269688 115.897397 
L 356.485894 114.959052 
L 357.756603 114.256594 
L 359.136224 113.749828 
L 360.642986 113.433756 
L 362.204092 113.33475 
L 363.747126 113.460887 
L 365.308264 113.812718 
L 366.960195 114.416005 
L 368.702877 115.293153 
L 370.372931 116.379454 
L 371.226115 117.050681 
L 371.226115 117.050681 
" clip-path="url(#pfb9b1cd975)" style="fill: none; stroke: #000000; stroke-width: 0.4; stroke-linecap: round"/>
   </g>
   <g id="line2d_72">
    <path d="M 239.362805 143.282085 
L 240.960269 143.173556 
L 241.922378 142.878334 
L 242.938945 142.327995 
L 244.046278 141.46638 
L 245.244376 140.243386 
L 246.551391 138.581418 
L 248.003631 136.358349 
L 249.637401 133.435429 
L 251.525312 129.582983 
L 253.721824 124.573465 
L 256.807833 117.4625 
L 258.06039 115.233757 
L 259.258488 113.547152 
L 260.474738 112.210371 
L 261.709142 111.179592 
L 262.925393 110.450351 
L 264.177949 109.958387 
L 265.448659 109.699217 
L 266.737522 109.663646 
L 268.026384 109.851406 
L 269.3334 110.269833 
L 270.676722 110.935901 
L 272.038196 111.859403 
L 273.45413 113.093849 
L 274.942675 114.695063 
L 276.48568 116.688537 
L 278.101296 119.148084 
L 279.789525 122.136852 
L 281.550365 125.715615 
L 283.401971 129.992669 
L 285.3988 135.183141 
L 287.667925 141.728735 
L 290.318262 150.075182 
L 293.331659 160.328979 
L 296.581045 171.375455 
L 297.742837 174.412631 
L 298.813864 176.614218 
L 299.88489 178.326083 
L 300.955917 179.628384 
L 302.026944 180.586841 
L 303.09797 181.249866 
L 304.168997 181.656243 
L 305.240024 181.826296 
L 306.329203 181.774088 
L 307.436536 181.498301 
L 308.580175 180.979395 
L 309.778272 180.183351 
L 311.030829 179.075101 
L 312.355998 177.594079 
L 313.771931 175.667156 
L 315.296783 173.204541 
L 316.930552 170.132333 
L 318.709546 166.300733 
L 320.688222 161.492235 
L 322.957347 155.367709 
L 325.662143 147.389303 
L 328.947835 136.976552 
L 332.814423 124.028629 
L 332.814423 124.028629 
" clip-path="url(#pfb9b1cd975)" style="fill: none; stroke-dasharray: 1.48,0.64; stroke-dashoffset: 0; stroke: #0000ff; stroke-width: 0.4"/>
   </g>
   <g id="line2d_73">
    <path d="M 239.362805 143.282085 
L 240.90581 143.17241 
L 241.81346 142.880374 
L 242.757415 142.335178 
L 243.792136 141.473743 
L 244.935775 140.223607 
L 246.224638 138.470145 
L 247.676877 136.099412 
L 249.3288 132.958776 
L 251.289323 128.728615 
L 253.667365 123.045209 
L 255.954643 117.665103 
L 257.134587 115.448073 
L 258.169308 113.967191 
L 259.222182 112.836663 
L 260.293208 112.002701 
L 261.400541 111.419247 
L 262.526027 111.073807 
L 263.724125 110.941034 
L 264.976681 111.026133 
L 266.320003 111.343861 
L 267.735936 111.91033 
L 269.188176 112.73101 
L 270.713028 113.854127 
L 272.310491 115.310368 
L 273.99872 117.156889 
L 275.832172 119.502422 
L 277.792696 122.380973 
L 279.916596 125.905382 
L 282.240179 130.203594 
L 284.817905 135.454056 
L 287.976526 142.423432 
L 292.278785 152.502026 
L 299.52183 169.553966 
L 300.647316 171.447945 
L 301.718343 172.824559 
L 302.807522 173.869163 
L 303.933008 174.641183 
L 305.058494 175.148858 
L 306.220285 175.430431 
L 307.40023 175.489945 
L 308.598328 175.329628 
L 309.850884 174.935934 
L 311.1579 174.289086 
L 312.519375 173.362002 
L 313.935308 172.123496 
L 315.423854 170.519365 
L 317.003164 168.479019 
L 318.691393 165.92277 
L 320.506692 162.758403 
L 322.539828 158.74781 
L 324.863411 153.649684 
L 327.731584 146.794157 
L 331.797855 136.438703 
L 336.55394 123.981793 
L 336.55394 123.981793 
" clip-path="url(#pfb9b1cd975)" style="fill: none; stroke-dasharray: 1.48,0.64; stroke-dashoffset: 0; stroke: #ff0000; stroke-width: 0.4"/>
   </g>
   <g id="patch_12">
    <path d="M 232.76964 185.443104 
L 232.76964 106.041552 
" style="fill: none; stroke: #000000; stroke-linejoin: miter; stroke-linecap: square"/>
   </g>
   <g id="patch_13">
    <path d="M 232.76964 185.443104 
L 377.81928 185.443104 
" style="fill: none; stroke: #000000; stroke-linejoin: miter; stroke-linecap: square"/>
   </g>
  </g>
  <g id="text_31">
   <!-- zigzag 20/20 stbd -->
   <g style="fill: #262626" transform="translate(158.457765 10.451212) scale(0.08 -0.08)">
    <defs>
     <path id="DejaVuSerif-7a" d="M 256 0 
L 256 269 
L 2338 2988 
L 691 2988 
L 691 2413 
L 359 2413 
L 359 3322 
L 3078 3322 
L 3078 3053 
L 997 331 
L 2803 331 
L 2803 934 
L 3138 934 
L 3138 0 
L 256 0 
z
" transform="scale(0.015625)"/>
     <path id="DejaVuSerif-2f" d="M 1656 4666 
L 2156 4666 
L 500 -594 
L 0 -594 
L 1656 4666 
z
" transform="scale(0.015625)"/>
     <path id="DejaVuSerif-62" d="M 738 331 
L 738 4531 
L 184 4531 
L 184 4863 
L 1313 4863 
L 1313 2803 
Q 1481 3116 1742 3264 
Q 2003 3413 2388 3413 
Q 3000 3413 3387 2928 
Q 3775 2444 3775 1663 
Q 3775 881 3387 395 
Q 3000 -91 2388 -91 
Q 2003 -91 1742 57 
Q 1481 206 1313 519 
L 1313 0 
L 184 0 
L 184 331 
L 738 331 
z
M 1313 1497 
Q 1313 897 1542 583 
Q 1772 269 2209 269 
Q 2650 269 2876 622 
Q 3103 975 3103 1663 
Q 3103 2353 2876 2703 
Q 2650 3053 2209 3053 
Q 1772 3053 1542 2737 
Q 1313 2422 1313 1825 
L 1313 1497 
z
" transform="scale(0.015625)"/>
    </defs>
    <use xlink:href="#DejaVuSerif-7a"/>
    <use xlink:href="#DejaVuSerif-69" x="52.685547"/>
    <use xlink:href="#DejaVuSerif-67" x="84.667969"/>
    <use xlink:href="#DejaVuSerif-7a" x="148.681641"/>
    <use xlink:href="#DejaVuSerif-61" x="201.367188"/>
    <use xlink:href="#DejaVuSerif-67" x="260.986328"/>
    <use xlink:href="#DejaVuSerif-20" x="325"/>
    <use xlink:href="#DejaVuSerif-32" x="356.787109"/>
    <use xlink:href="#DejaVuSerif-30" x="420.410156"/>
    <use xlink:href="#DejaVuSerif-2f" x="484.033203"/>
    <use xlink:href="#DejaVuSerif-32" x="517.724609"/>
    <use xlink:href="#DejaVuSerif-30" x="581.347656"/>
    <use xlink:href="#DejaVuSerif-20" x="644.970703"/>
    <use xlink:href="#DejaVuSerif-73" x="676.757812"/>
    <use xlink:href="#DejaVuSerif-74" x="728.076172"/>
    <use xlink:href="#DejaVuSerif-62" x="768.261719"/>
    <use xlink:href="#DejaVuSerif-64" x="832.275391"/>
   </g>
  </g>
 </g>
 <defs>
  <clipPath id="p4bda1ad0ee">
   <rect x="43.86" y="10.8" width="145.04964" height="79.401552"/>
  </clipPath>
  <clipPath id="p0a9075cd19">
   <rect x="232.76964" y="10.8" width="145.04964" height="79.401552"/>
  </clipPath>
  <clipPath id="pf051150889">
   <rect x="43.86" y="106.041552" width="145.04964" height="79.401552"/>
  </clipPath>
  <clipPath id="pfb9b1cd975">
   <rect x="232.76964" y="106.041552" width="145.04964" height="79.401552"/>
  </clipPath>
 </defs>
</svg>
