<?xml version="1.0" encoding="utf-8" standalone="no"?>
<!DOCTYPE svg PUBLIC "-//W3C//DTD SVG 1.1//EN"
  "http://www.w3.org/Graphics/SVG/1.1/DTD/svg11.dtd">
<svg xmlns:xlink="http://www.w3.org/1999/xlink" width="194.30964pt" height="218.623104pt" viewBox="0 0 194.30964 218.623104" xmlns="http://www.w3.org/2000/svg" version="1.1">
 <metadata>
  <rdf:RDF xmlns:dc="http://purl.org/dc/elements/1.1/" xmlns:cc="http://creativecommons.org/ns#" xmlns:rdf="http://www.w3.org/1999/02/22-rdf-syntax-ns#">
   <cc:Work>
    <dc:type rdf:resource="http://purl.org/dc/dcmitype/StillImage"/>
    <dc:date>2024-12-02T15:54:50.647039</dc:date>
    <dc:format>image/svg+xml</dc:format>
    <dc:creator>
     <cc:Agent>
      <dc:title>Matplotlib v3.8.2, https://matplotlib.org/</dc:title>
     </cc:Agent>
    </dc:creator>
   </cc:Work>
  </rdf:RDF>
 </metadata>
 <defs>
  <style type="text/css">*{stroke-linejoin: round; stroke-linecap: butt}</style>
 </defs>
 <g id="figure_1">
  <g id="patch_1">
   <path d="M 0 218.623104 
L 194.30964 218.623104 
L 194.30964 0 
L 0 0 
z
" style="fill: #ffffff"/>
  </g>
  <g id="axes_1">
   <g id="patch_2">
    <path d="M 42.225709 195.541302 
L 191.3094 195.541302 
L 191.3094 3.00024 
L 42.225709 3.00024 
z
" style="fill: #ffffff"/>
   </g>
   <g id="matplotlib.axis_1">
    <g id="xtick_1">
     <g id="line2d_1">
      <path d="M 77.478752 195.541302 
L 77.478752 3.00024 
" clip-path="url(#p89aaf6f878)" style="fill: none; stroke: #b0b0b0; stroke-width: 0.1; stroke-linecap: round"/>
     </g>
     <g id="line2d_2"/>
     <g id="text_1">
      <!-- 30 -->
      <g style="fill: #262626" transform="translate(73.025002 204.360208) scale(0.07 -0.07)">
       <defs>
        <path id="DejaVuSerif-33" d="M 622 4469 
Q 988 4606 1323 4678 
Q 1659 4750 1953 4750 
Q 2638 4750 3022 4454 
Q 3406 4159 3406 3634 
Q 3406 3213 3140 2930 
Q 2875 2647 2388 2547 
Q 2963 2466 3280 2130 
Q 3597 1794 3597 1259 
Q 3597 606 3158 257 
Q 2719 -91 1894 -91 
Q 1528 -91 1179 -12 
Q 831 66 488 225 
L 488 1131 
L 838 1131 
Q 869 681 1141 450 
Q 1413 219 1906 219 
Q 2384 219 2661 495 
Q 2938 772 2938 1253 
Q 2938 1803 2653 2086 
Q 2369 2369 1819 2369 
L 1522 2369 
L 1522 2688 
L 1678 2688 
Q 2225 2688 2498 2914 
Q 2772 3141 2772 3597 
Q 2772 4006 2547 4223 
Q 2322 4441 1900 4441 
Q 1478 4441 1245 4241 
Q 1013 4041 972 3647 
L 622 3647 
L 622 4469 
z
" transform="scale(0.015625)"/>
        <path id="DejaVuSerif-30" d="M 2034 219 
Q 2513 219 2750 744 
Q 2988 1269 2988 2328 
Q 2988 3391 2750 3916 
Q 2513 4441 2034 4441 
Q 1556 4441 1318 3916 
Q 1081 3391 1081 2328 
Q 1081 1269 1318 744 
Q 1556 219 2034 219 
z
M 2034 -91 
Q 1275 -91 848 546 
Q 422 1184 422 2328 
Q 422 3475 848 4112 
Q 1275 4750 2034 4750 
Q 2797 4750 3222 4112 
Q 3647 3475 3647 2328 
Q 3647 1184 3222 546 
Q 2797 -91 2034 -91 
z
" transform="scale(0.015625)"/>
       </defs>
       <use xlink:href="#DejaVuSerif-33"/>
       <use xlink:href="#DejaVuSerif-30" x="63.623047"/>
      </g>
     </g>
    </g>
    <g id="xtick_2">
     <g id="line2d_3">
      <path d="M 113.163541 195.541302 
L 113.163541 3.00024 
" clip-path="url(#p89aaf6f878)" style="fill: none; stroke: #b0b0b0; stroke-width: 0.1; stroke-linecap: round"/>
     </g>
     <g id="line2d_4"/>
     <g id="text_2">
      <!-- 35 -->
      <g style="fill: #262626" transform="translate(108.709791 204.360208) scale(0.07 -0.07)">
       <defs>
        <path id="DejaVuSerif-35" d="M 3219 4666 
L 3219 4153 
L 1081 4153 
L 1081 2816 
Q 1244 2928 1461 2984 
Q 1678 3041 1947 3041 
Q 2703 3041 3140 2622 
Q 3578 2203 3578 1478 
Q 3578 738 3136 323 
Q 2694 -91 1894 -91 
Q 1572 -91 1234 -12 
Q 897 66 544 225 
L 544 1131 
L 897 1131 
Q 925 688 1179 453 
Q 1434 219 1894 219 
Q 2388 219 2653 544 
Q 2919 869 2919 1478 
Q 2919 2084 2655 2407 
Q 2391 2731 1894 2731 
Q 1613 2731 1398 2631 
Q 1184 2531 1019 2322 
L 750 2322 
L 750 4666 
L 3219 4666 
z
" transform="scale(0.015625)"/>
       </defs>
       <use xlink:href="#DejaVuSerif-33"/>
       <use xlink:href="#DejaVuSerif-35" x="63.623047"/>
      </g>
     </g>
    </g>
    <g id="xtick_3">
     <g id="line2d_5">
      <path d="M 148.848329 195.541302 
L 148.848329 3.00024 
" clip-path="url(#p89aaf6f878)" style="fill: none; stroke: #b0b0b0; stroke-width: 0.1; stroke-linecap: round"/>
     </g>
     <g id="line2d_6"/>
     <g id="text_3">
      <!-- 40 -->
      <g style="fill: #262626" transform="translate(144.394579 204.360208) scale(0.07 -0.07)">
       <defs>
        <path id="DejaVuSerif-34" d="M 2234 1581 
L 2234 4063 
L 641 1581 
L 2234 1581 
z
M 3609 0 
L 1484 0 
L 1484 331 
L 2234 331 
L 2234 1247 
L 197 1247 
L 197 1588 
L 2241 4750 
L 2859 4750 
L 2859 1581 
L 3750 1581 
L 3750 1247 
L 2859 1247 
L 2859 331 
L 3609 331 
L 3609 0 
z
" transform="scale(0.015625)"/>
       </defs>
       <use xlink:href="#DejaVuSerif-34"/>
       <use xlink:href="#DejaVuSerif-30" x="63.623047"/>
      </g>
     </g>
    </g>
    <g id="xtick_4">
     <g id="line2d_7">
      <path d="M 184.533118 195.541302 
L 184.533118 3.00024 
" clip-path="url(#p89aaf6f878)" style="fill: none; stroke: #b0b0b0; stroke-width: 0.1; stroke-linecap: round"/>
     </g>
     <g id="line2d_8"/>
     <g id="text_4">
      <!-- 45 -->
      <g style="fill: #262626" transform="translate(180.079368 204.360208) scale(0.07 -0.07)">
       <use xlink:href="#DejaVuSerif-34"/>
       <use xlink:href="#DejaVuSerif-35" x="63.623047"/>
      </g>
     </g>
    </g>
    <g id="text_5">
     <!-- time -->
     <g style="fill: #262626" transform="translate(109.981929 214.375052) scale(0.06 -0.06)">
      <defs>
       <path id="DejaVuSerif-74" d="M 691 2988 
L 184 2988 
L 184 3322 
L 691 3322 
L 691 4353 
L 1269 4353 
L 1269 3322 
L 2350 3322 
L 2350 2988 
L 1269 2988 
L 1269 878 
Q 1269 456 1350 337 
Q 1431 219 1650 219 
Q 1875 219 1978 351 
Q 2081 484 2088 781 
L 2522 781 
Q 2497 328 2275 118 
Q 2053 -91 1600 -91 
Q 1103 -91 897 129 
Q 691 350 691 878 
L 691 2988 
z
" transform="scale(0.015625)"/>
       <path id="DejaVuSerif-69" d="M 622 4353 
Q 622 4497 726 4603 
Q 831 4709 978 4709 
Q 1122 4709 1226 4603 
Q 1331 4497 1331 4353 
Q 1331 4206 1228 4103 
Q 1125 4000 978 4000 
Q 831 4000 726 4103 
Q 622 4206 622 4353 
z
M 1356 331 
L 1900 331 
L 1900 0 
L 231 0 
L 231 331 
L 781 331 
L 781 2988 
L 231 2988 
L 231 3322 
L 1356 3322 
L 1356 331 
z
" transform="scale(0.015625)"/>
       <path id="DejaVuSerif-6d" d="M 3316 2675 
Q 3481 3041 3739 3227 
Q 3997 3413 4341 3413 
Q 4863 3413 5119 3089 
Q 5375 2766 5375 2113 
L 5375 331 
L 5894 331 
L 5894 0 
L 4300 0 
L 4300 331 
L 4800 331 
L 4800 2047 
Q 4800 2556 4650 2772 
Q 4500 2988 4153 2988 
Q 3769 2988 3567 2697 
Q 3366 2406 3366 1850 
L 3366 331 
L 3866 331 
L 3866 0 
L 2291 0 
L 2291 331 
L 2791 331 
L 2791 2069 
Q 2791 2566 2641 2777 
Q 2491 2988 2144 2988 
Q 1759 2988 1557 2697 
Q 1356 2406 1356 1850 
L 1356 331 
L 1856 331 
L 1856 0 
L 263 0 
L 263 331 
L 781 331 
L 781 2994 
L 231 2994 
L 231 3322 
L 1356 3322 
L 1356 2731 
Q 1516 3063 1762 3238 
Q 2009 3413 2322 3413 
Q 2709 3413 2968 3220 
Q 3228 3028 3316 2675 
z
" transform="scale(0.015625)"/>
       <path id="DejaVuSerif-65" d="M 3469 1600 
L 991 1600 
L 991 1575 
Q 991 903 1244 561 
Q 1497 219 1991 219 
Q 2369 219 2611 417 
Q 2853 616 2950 1006 
L 3413 1006 
Q 3275 459 2904 184 
Q 2534 -91 1931 -91 
Q 1203 -91 761 389 
Q 319 869 319 1663 
Q 319 2450 753 2931 
Q 1188 3413 1894 3413 
Q 2647 3413 3050 2948 
Q 3453 2484 3469 1600 
z
M 2791 1931 
Q 2772 2513 2545 2808 
Q 2319 3103 1894 3103 
Q 1497 3103 1269 2806 
Q 1041 2509 991 1931 
L 2791 1931 
z
" transform="scale(0.015625)"/>
      </defs>
      <use xlink:href="#DejaVuSerif-74"/>
      <use xlink:href="#DejaVuSerif-69" x="40.185547"/>
      <use xlink:href="#DejaVuSerif-6d" x="72.167969"/>
      <use xlink:href="#DejaVuSerif-65" x="166.992188"/>
     </g>
    </g>
   </g>
   <g id="matplotlib.axis_2">
    <g id="ytick_1">
     <g id="line2d_9">
      <path d="M 42.225709 192.019395 
L 191.3094 192.019395 
" clip-path="url(#p89aaf6f878)" style="fill: none; stroke: #b0b0b0; stroke-width: 0.1; stroke-linecap: round"/>
     </g>
     <g id="line2d_10"/>
     <g id="text_6">
      <!-- −0.015 -->
      <g style="fill: #262626" transform="translate(12.82024 194.678848) scale(0.07 -0.07)">
       <defs>
        <path id="DejaVuSerif-2212" d="M 678 2259 
L 4684 2259 
L 4684 1753 
L 678 1753 
L 678 2259 
z
" transform="scale(0.015625)"/>
        <path id="DejaVuSerif-2e" d="M 603 325 
Q 603 500 722 622 
Q 841 744 1019 744 
Q 1191 744 1312 622 
Q 1434 500 1434 325 
Q 1434 153 1312 31 
Q 1191 -91 1019 -91 
Q 841 -91 722 29 
Q 603 150 603 325 
z
" transform="scale(0.015625)"/>
        <path id="DejaVuSerif-31" d="M 909 0 
L 909 331 
L 1722 331 
L 1722 4213 
L 781 3603 
L 781 4013 
L 1919 4750 
L 2350 4750 
L 2350 331 
L 3163 331 
L 3163 0 
L 909 0 
z
" transform="scale(0.015625)"/>
       </defs>
       <use xlink:href="#DejaVuSerif-2212"/>
       <use xlink:href="#DejaVuSerif-30" x="83.789062"/>
       <use xlink:href="#DejaVuSerif-2e" x="147.412109"/>
       <use xlink:href="#DejaVuSerif-30" x="179.199219"/>
       <use xlink:href="#DejaVuSerif-31" x="242.822266"/>
       <use xlink:href="#DejaVuSerif-35" x="306.445312"/>
      </g>
     </g>
    </g>
    <g id="ytick_2">
     <g id="line2d_11">
      <path d="M 42.225709 163.53885 
L 191.3094 163.53885 
" clip-path="url(#p89aaf6f878)" style="fill: none; stroke: #b0b0b0; stroke-width: 0.1; stroke-linecap: round"/>
     </g>
     <g id="line2d_12"/>
     <g id="text_7">
      <!-- −0.010 -->
      <g style="fill: #262626" transform="translate(12.82024 166.198304) scale(0.07 -0.07)">
       <use xlink:href="#DejaVuSerif-2212"/>
       <use xlink:href="#DejaVuSerif-30" x="83.789062"/>
       <use xlink:href="#DejaVuSerif-2e" x="147.412109"/>
       <use xlink:href="#DejaVuSerif-30" x="179.199219"/>
       <use xlink:href="#DejaVuSerif-31" x="242.822266"/>
       <use xlink:href="#DejaVuSerif-30" x="306.445312"/>
      </g>
     </g>
    </g>
    <g id="ytick_3">
     <g id="line2d_13">
      <path d="M 42.225709 135.058306 
L 191.3094 135.058306 
" clip-path="url(#p89aaf6f878)" style="fill: none; stroke: #b0b0b0; stroke-width: 0.1; stroke-linecap: round"/>
     </g>
     <g id="line2d_14"/>
     <g id="text_8">
      <!-- −0.005 -->
      <g style="fill: #262626" transform="translate(12.82024 137.717759) scale(0.07 -0.07)">
       <use xlink:href="#DejaVuSerif-2212"/>
       <use xlink:href="#DejaVuSerif-30" x="83.789062"/>
       <use xlink:href="#DejaVuSerif-2e" x="147.412109"/>
       <use xlink:href="#DejaVuSerif-30" x="179.199219"/>
       <use xlink:href="#DejaVuSerif-30" x="242.822266"/>
       <use xlink:href="#DejaVuSerif-35" x="306.445312"/>
      </g>
     </g>
    </g>
    <g id="ytick_4">
     <g id="line2d_15">
      <path d="M 42.225709 106.577761 
L 191.3094 106.577761 
" clip-path="url(#p89aaf6f878)" style="fill: none; stroke: #b0b0b0; stroke-width: 0.1; stroke-linecap: round"/>
     </g>
     <g id="line2d_16"/>
     <g id="text_9">
      <!-- 0.000 -->
      <g style="fill: #262626" transform="translate(18.686021 109.237214) scale(0.07 -0.07)">
       <use xlink:href="#DejaVuSerif-30"/>
       <use xlink:href="#DejaVuSerif-2e" x="63.623047"/>
       <use xlink:href="#DejaVuSerif-30" x="95.410156"/>
       <use xlink:href="#DejaVuSerif-30" x="159.033203"/>
       <use xlink:href="#DejaVuSerif-30" x="222.65625"/>
      </g>
     </g>
    </g>
    <g id="ytick_5">
     <g id="line2d_17">
      <path d="M 42.225709 78.097217 
L 191.3094 78.097217 
" clip-path="url(#p89aaf6f878)" style="fill: none; stroke: #b0b0b0; stroke-width: 0.1; stroke-linecap: round"/>
     </g>
     <g id="line2d_18"/>
     <g id="text_10">
      <!-- 0.005 -->
      <g style="fill: #262626" transform="translate(18.686021 80.75667) scale(0.07 -0.07)">
       <use xlink:href="#DejaVuSerif-30"/>
       <use xlink:href="#DejaVuSerif-2e" x="63.623047"/>
       <use xlink:href="#DejaVuSerif-30" x="95.410156"/>
       <use xlink:href="#DejaVuSerif-30" x="159.033203"/>
       <use xlink:href="#DejaVuSerif-35" x="222.65625"/>
      </g>
     </g>
    </g>
    <g id="ytick_6">
     <g id="line2d_19">
      <path d="M 42.225709 49.616672 
L 191.3094 49.616672 
" clip-path="url(#p89aaf6f878)" style="fill: none; stroke: #b0b0b0; stroke-width: 0.1; stroke-linecap: round"/>
     </g>
     <g id="line2d_20"/>
     <g id="text_11">
      <!-- 0.010 -->
      <g style="fill: #262626" transform="translate(18.686021 52.276125) scale(0.07 -0.07)">
       <use xlink:href="#DejaVuSerif-30"/>
       <use xlink:href="#DejaVuSerif-2e" x="63.623047"/>
       <use xlink:href="#DejaVuSerif-30" x="95.410156"/>
       <use xlink:href="#DejaVuSerif-31" x="159.033203"/>
       <use xlink:href="#DejaVuSerif-30" x="222.65625"/>
      </g>
     </g>
    </g>
    <g id="ytick_7">
     <g id="line2d_21">
      <path d="M 42.225709 21.136127 
L 191.3094 21.136127 
" clip-path="url(#p89aaf6f878)" style="fill: none; stroke: #b0b0b0; stroke-width: 0.1; stroke-linecap: round"/>
     </g>
     <g id="line2d_22"/>
     <g id="text_12">
      <!-- 0.015 -->
      <g style="fill: #262626" transform="translate(18.686021 23.795581) scale(0.07 -0.07)">
       <use xlink:href="#DejaVuSerif-30"/>
       <use xlink:href="#DejaVuSerif-2e" x="63.623047"/>
       <use xlink:href="#DejaVuSerif-30" x="95.410156"/>
       <use xlink:href="#DejaVuSerif-31" x="159.033203"/>
       <use xlink:href="#DejaVuSerif-35" x="222.65625"/>
      </g>
     </g>
    </g>
    <g id="text_13">
     <!-- $y_0$ [m] -->
     <g style="fill: #262626" transform="translate(7.56024 108.630771) rotate(-90) scale(0.06 -0.06)">
      <defs>
       <path id="DejaVuSans-Oblique-79" d="M 1588 -325 
Q 1188 -997 936 -1164 
Q 684 -1331 294 -1331 
L -159 -1331 
L -63 -850 
L 269 -850 
Q 509 -850 678 -719 
Q 847 -588 1056 -206 
L 1234 128 
L 459 3500 
L 1069 3500 
L 1650 819 
L 3256 3500 
L 3859 3500 
L 1588 -325 
z
" transform="scale(0.015625)"/>
       <path id="DejaVuSans-30" d="M 2034 4250 
Q 1547 4250 1301 3770 
Q 1056 3291 1056 2328 
Q 1056 1369 1301 889 
Q 1547 409 2034 409 
Q 2525 409 2770 889 
Q 3016 1369 3016 2328 
Q 3016 3291 2770 3770 
Q 2525 4250 2034 4250 
z
M 2034 4750 
Q 2819 4750 3233 4129 
Q 3647 3509 3647 2328 
Q 3647 1150 3233 529 
Q 2819 -91 2034 -91 
Q 1250 -91 836 529 
Q 422 1150 422 2328 
Q 422 3509 836 4129 
Q 1250 4750 2034 4750 
z
" transform="scale(0.015625)"/>
       <path id="DejaVuSerif-20" transform="scale(0.015625)"/>
       <path id="DejaVuSerif-5b" d="M 550 4863 
L 2003 4863 
L 2003 4531 
L 1147 4531 
L 1147 -513 
L 2003 -513 
L 2003 -844 
L 550 -844 
L 550 4863 
z
" transform="scale(0.015625)"/>
       <path id="DejaVuSerif-5d" d="M 1947 4863 
L 1947 -844 
L 494 -844 
L 494 -513 
L 1350 -513 
L 1350 4531 
L 494 4531 
L 494 4863 
L 1947 4863 
z
" transform="scale(0.015625)"/>
      </defs>
      <use xlink:href="#DejaVuSans-Oblique-79" transform="translate(0 0.015625)"/>
      <use xlink:href="#DejaVuSans-30" transform="translate(59.179688 -16.390625) scale(0.7)"/>
      <use xlink:href="#DejaVuSerif-20" transform="translate(106.450195 0.015625)"/>
      <use xlink:href="#DejaVuSerif-5b" transform="translate(138.237305 0.015625)"/>
      <use xlink:href="#DejaVuSerif-6d" transform="translate(177.250977 0.015625)"/>
      <use xlink:href="#DejaVuSerif-5d" transform="translate(272.075195 0.015625)"/>
     </g>
    </g>
   </g>
   <g id="line2d_23">
    <path d="M 49.00224 116.894782 
L 51.000488 43.151387 
L 51.714099 25.268388 
L 52.285048 16.195884 
L 52.71323 12.63896 
L 52.998801 11.775961 
L 53.141497 11.805288 
L 53.284365 12.160601 
L 53.5697 13.890247 
L 53.926555 17.686503 
L 54.426114 25.725628 
L 55.068469 40.419016 
L 55.924939 66.440744 
L 59.065165 166.887822 
L 59.707534 178.716468 
L 60.207057 184.251958 
L 60.564133 186.287445 
L 60.778099 186.752663 
L 60.920767 186.774853 
L 61.06352 186.558492 
L 61.277808 185.747855 
L 61.634548 183.035588 
L 62.062687 177.890103 
L 62.705106 166.967072 
L 63.490079 149.647916 
L 64.846137 112.971164 
L 66.344905 74.680436 
L 67.129935 60.290647 
L 67.700955 53.23396 
L 68.12918 50.204048 
L 68.414601 49.200323 
L 68.628703 49.044627 
L 68.771535 49.200106 
L 68.985758 49.807616 
L 69.342434 51.686912 
L 69.770744 55.363206 
L 70.341551 62.432565 
L 71.126674 75.717576 
L 72.411347 102.072761 
L 73.767277 129.14011 
L 74.623897 142.116485 
L 75.194732 148.094131 
L 75.623021 150.755732 
L 75.979748 151.941656 
L 76.265255 152.26622 
L 76.408015 152.184834 
L 76.622088 151.732958 
L 76.978915 150.19795 
L 77.478502 146.747676 
L 78.120871 140.377907 
L 78.905908 129.975605 
L 80.190596 109.335584 
L 81.617973 87.298757 
L 82.403003 78.220202 
L 83.04535 73.223429 
L 83.544959 71.016346 
L 83.830451 70.464859 
L 84.044503 70.405539 
L 84.258812 70.602284 
L 84.544176 71.270635 
L 84.900995 72.829077 
L 85.400568 76.176462 
L 86.042887 81.946638 
L 87.042111 93.478381 
L 89.468655 123.049782 
L 90.253742 129.49818 
L 90.824684 132.498299 
L 91.252952 133.847293 
L 91.538309 134.235025 
L 91.752432 134.274799 
L 91.966762 134.106152 
L 92.252112 133.55053 
L 92.751584 131.8865 
L 93.2512 129.330487 
L 93.822192 125.312388 
L 94.67872 117.720556 
L 97.390628 92.989093 
L 98.104481 88.408051 
L 98.675345 86.106235 
L 99.103584 85.209218 
L 99.460353 84.907341 
L 99.745803 84.976241 
L 100.031296 85.329588 
L 100.316774 86.03093 
L 100.816475 87.967602 
L 101.458709 91.513833 
L 102.315136 97.514557 
L 104.884455 116.225196 
L 105.526939 119.64879 
L 106.169086 122.00172 
L 106.668673 123.025004 
L 107.025571 123.308515 
L 107.239616 123.248103 
L 107.596585 122.809404 
L 108.096058 121.626991 
L 108.738377 119.453468 
L 109.594862 115.350537 
L 111.164935 106.652233 
L 112.520979 99.658644 
L 113.306137 96.582362 
L 113.877051 95.137164 
L 114.305183 94.538455 
L 114.733421 94.272829 
L 115.23303 94.230693 
L 115.447146 94.365956 
L 115.73261 94.809935 
L 116.232211 96.132624 
L 117.160116 99.387854 
L 117.87384 103.010528 
L 119.586574 112.009083 
L 120.371632 114.989745 
L 121.013966 116.617974 
L 121.513588 117.305857 
L 121.870408 117.471539 
L 122.227234 117.372085 
L 122.65573 116.98114 
L 123.36934 116.016263 
L 123.868785 114.748636 
L 124.725162 111.956169 
L 127.151749 102.833478 
L 127.794133 100.950246 
L 128.293698 100.175482 
L 129.150155 99.169398 
L 129.649835 98.878928 
L 130.078002 98.852949 
L 130.506319 99.05784 
L 131.0057 99.593258 
L 131.57672 100.55477 
L 132.361757 102.379493 
L 133.503628 105.698939 
L 135.145185 110.408928 
L 135.930365 112.046153 
L 136.501214 112.826738 
L 136.929482 113.114526 
L 137.357642 113.140444 
L 137.785831 112.92367 
L 138.285461 112.420753 
L 139.570099 110.607382 
L 140.069629 109.669703 
L 142.710467 104.028142 
L 143.566745 102.714054 
L 144.351811 101.733117 
L 144.994122 101.273643 
L 145.493817 101.17747 
L 145.993411 101.307268 
L 146.564289 101.713587 
L 147.278006 102.542747 
L 148.205868 104.020983 
L 150.846514 108.356052 
L 151.631579 109.133208 
L 152.488164 109.630973 
L 153.058878 110.044719 
L 153.415833 110.288681 
L 153.772695 110.269222 
L 154.772062 109.810286 
L 155.200065 109.387518 
L 157.840661 106.201013 
L 158.340248 105.769358 
L 160.409966 103.662383 
L 160.980922 103.458627 
L 161.623298 103.475671 
L 162.336923 103.72092 
L 163.336118 104.340849 
L 164.478103 105.305504 
L 165.263104 106.216829 
L 166.547806 108.000546 
L 168.117951 108.844992 
L 169.759402 108.540492 
L 170.544446 108.110882 
L 171.329525 107.464809 
L 171.757757 107.191695 
L 173.042524 106.029312 
L 173.898866 105.876098 
L 176.11128 104.661125 
L 176.82499 104.6462 
L 178.038223 104.882032 
L 178.752061 105.213326 
L 179.322918 105.687136 
L 179.822505 106.372757 
L 180.464853 107.318755 
L 181.035809 107.705303 
L 181.820846 108.19276 
L 182.391788 108.638671 
L 183.605071 108.975567 
L 184.532869 108.843864 
L 184.532869 108.843864 
" clip-path="url(#p89aaf6f878)" style="fill: none; stroke: #2a2eec; stroke-width: 0.4; stroke-linecap: round"/>
   </g>
   <g id="line2d_24">
    <path d="M 49.00224 91.254319 
L 49.644381 94.93441 
L 51.642693 103.892616 
L 51.856845 104.648196 
L 52.285048 106.404581 
L 52.927381 109.105166 
L 53.355635 110.342664 
L 53.498302 110.599507 
L 53.855193 111.402388 
L 54.640201 113.092916 
L 54.78294 113.289237 
L 55.068469 113.574253 
L 55.211179 113.624596 
L 55.496708 113.759521 
L 55.568213 113.746449 
L 55.782172 113.920614 
L 56.495875 114.234026 
L 56.781339 114.196527 
L 56.924071 114.239756 
L 57.209556 114.232381 
L 57.352531 114.219777 
L 57.423658 114.127206 
L 57.495134 114.182198 
L 57.709207 114.124131 
L 57.780663 114.30367 
L 57.851868 114.061499 
L 57.923316 114.083726 
L 58.065984 114.272795 
L 58.280442 114.206129 
L 58.636962 114.125038 
L 58.922412 113.868647 
L 58.993924 113.862585 
L 59.564766 113.017899 
L 59.92165 112.673843 
L 60.207057 112.391363 
L 60.635282 111.918761 
L 61.134933 111.239753 
L 61.777373 110.437199 
L 62.776697 109.974802 
L 62.847731 110.109442 
L 62.919194 110.05246 
L 62.990492 109.997635 
L 63.061904 110.120542 
L 63.133367 110.062517 
L 63.204593 110.015699 
L 63.276056 110.10918 
L 63.347383 110.0435 
L 63.918389 110.218883 
L 64.132512 110.374109 
L 65.131651 110.182619 
L 65.20297 110.100989 
L 65.274333 110.171846 
L 65.9882 110.004742 
L 66.059377 110.004443 
L 66.130789 109.825609 
L 66.202201 109.856652 
L 66.273799 109.86475 
L 66.344905 109.737512 
L 66.416317 109.800928 
L 66.487623 109.799604 
L 66.559006 109.632303 
L 66.63049 109.714893 
L 66.844513 109.448839 
L 66.987252 109.375832 
L 67.272816 109.219432 
L 67.486797 109.259788 
L 67.629557 109.204072 
L 67.91505 109.354409 
L 67.986441 109.32335 
L 68.057818 109.447641 
L 68.12918 109.398395 
L 68.34331 109.406983 
L 68.842804 109.312645 
L 68.985758 109.312146 
L 69.271022 109.266868 
L 69.699325 109.384157 
L 69.913427 109.368873 
L 72.482696 107.393102 
L 72.554037 107.435181 
L 72.839629 107.059065 
L 73.124958 106.976364 
L 73.267847 106.959491 
L 73.481841 106.901115 
L 75.194732 105.870305 
L 75.551545 105.64738 
L 75.694284 105.537772 
L 76.978915 104.567208 
L 77.121697 104.512947 
L 77.692611 104.635479 
L 78.192283 104.843213 
L 78.334944 104.85849 
L 78.691835 105.128442 
L 78.763383 105.129211 
L 79.048733 105.428115 
L 79.476936 105.712668 
L 79.691052 105.876534 
L 80.904327 106.313466 
L 81.403943 106.637603 
L 81.546639 106.594677 
L 81.832089 106.609575 
L 81.974842 106.578698 
L 82.331747 106.704631 
L 82.403003 106.691083 
L 82.474408 106.809371 
L 82.54582 106.754886 
L 83.259466 107.135821 
L 83.402213 107.156574 
L 83.759053 107.162431 
L 84.115851 107.265693 
L 84.401451 107.329267 
L 85.614655 107.877681 
L 85.900133 107.799919 
L 86.042887 107.818986 
L 86.32833 107.792544 
L 86.471112 107.799518 
L 86.756633 107.808638 
L 87.61311 107.635599 
L 87.684366 107.72546 
L 87.755842 107.649126 
L 87.898532 107.665056 
L 88.612149 107.707554 
L 88.826265 107.590986 
L 89.183141 107.325833 
L 89.468655 107.053699 
L 89.89693 106.811799 
L 90.467872 106.632471 
L 90.610547 106.549608 
L 90.681909 106.561693 
L 90.824684 106.448822 
L 91.110077 106.343251 
L 91.252952 106.244063 
L 91.395584 106.141654 
L 92.680236 105.849137 
L 93.2512 105.95966 
L 94.393135 106.179978 
L 94.67872 106.2654 
L 94.750011 106.233704 
L 94.892672 106.356193 
L 94.96412 106.276892 
L 95.106823 106.328067 
L 96.534229 106.652016 
L 96.819693 106.896253 
L 96.962482 106.895648 
L 97.105286 106.949365 
L 97.747498 106.773545 
L 97.818867 106.676471 
L 97.961606 106.759253 
L 98.104481 106.794525 
L 98.889425 106.715007 
L 99.103584 106.768258 
L 99.246287 106.694817 
L 99.460353 106.680902 
L 99.745803 106.666762 
L 99.960197 106.622934 
L 100.102729 106.680907 
L 100.245469 106.665214 
L 100.388201 106.719171 
L 100.530961 106.750245 
L 100.816475 106.796217 
L 100.959122 106.768381 
L 101.101868 106.780409 
L 101.387489 106.893744 
L 102.243895 107.21074 
L 102.74334 107.098156 
L 102.886043 107.084458 
L 103.599789 106.823568 
L 104.170753 106.622501 
L 104.813064 106.857235 
L 104.955889 106.990711 
L 105.241261 106.994201 
L 105.384028 107.054877 
L 105.455419 106.983072 
L 105.526939 107.05934 
L 106.526006 107.025567 
L 106.882775 106.937497 
L 107.096884 106.892814 
L 108.595731 106.397171 
L 108.881116 106.335153 
L 109.095368 106.221789 
L 109.237971 106.298041 
L 109.309512 106.23468 
L 109.380703 106.318579 
L 109.523592 106.337364 
L 109.880347 106.466732 
L 110.879443 106.857873 
L 111.022218 106.869135 
L 111.593196 107.132231 
L 111.664665 107.10756 
L 111.735935 107.242644 
L 111.80729 107.176021 
L 112.520979 107.439063 
L 114.305183 107.810482 
L 114.662059 107.802465 
L 114.804934 107.79114 
L 115.161639 107.727461 
L 115.37584 107.619325 
L 115.589878 107.554735 
L 116.018167 107.587461 
L 116.374915 107.731344 
L 116.731791 107.679933 
L 116.874495 107.634965 
L 117.374096 107.742473 
L 118.230652 108.40645 
L 118.873007 108.935636 
L 119.01561 108.973245 
L 119.301096 109.090744 
L 119.515283 109.071179 
L 119.657929 109.110928 
L 120.08614 109.068596 
L 120.585862 109.000846 
L 121.085357 108.731994 
L 121.299501 108.611173 
L 121.799088 108.155461 
L 122.298625 107.674249 
L 122.65573 107.321659 
L 122.941073 107.094741 
L 123.440517 106.883498 
L 124.154213 106.390375 
L 124.582409 106.182146 
L 125.224771 105.679065 
L 125.367696 105.675302 
L 125.724365 105.625778 
L 126.009943 105.613048 
L 126.152604 105.56573 
L 126.509452 105.64582 
L 127.579981 105.476383 
L 128.150931 105.968009 
L 128.507971 106.33968 
L 128.864691 106.517683 
L 129.364299 106.717351 
L 132.433077 107.501841 
L 132.57583 107.477922 
L 132.861394 107.570108 
L 133.075453 107.571664 
L 133.432279 107.683076 
L 134.502787 107.820351 
L 134.788423 107.809738 
L 134.931019 107.77535 
L 135.430628 107.808987 
L 135.716092 107.73526 
L 135.858852 107.770939 
L 135.930365 107.686179 
L 136.001584 107.760594 
L 137.64317 106.954707 
L 139.284606 105.966831 
L 139.998466 106.058103 
L 140.854716 105.933872 
L 141.782563 105.8839 
L 142.067984 105.798917 
L 142.496194 105.889506 
L 142.924405 106.214303 
L 143.281388 106.314752 
L 143.566745 106.322355 
L 143.92365 106.250263 
L 146.564289 106.047882 
L 146.707171 106.041471 
L 147.206801 106.128452 
L 147.420752 106.126964 
L 147.7776 106.105345 
L 147.991652 106.128804 
L 148.419926 106.138549 
L 148.705369 106.192807 
L 149.419051 106.243591 
L 149.704536 106.188545 
L 150.346855 106.170662 
L 150.632341 106.132597 
L 151.203326 106.071913 
L 151.488968 106.014229 
L 152.059732 105.933653 
L 153.130326 106.323292 
L 153.415833 106.553952 
L 154.272203 106.617747 
L 154.557796 106.755003 
L 155.05724 106.920432 
L 155.271342 106.870239 
L 155.414224 106.813906 
L 155.84247 106.82649 
L 156.48481 107.067862 
L 156.627406 107.028697 
L 156.698819 107.044235 
L 156.770117 106.943713 
L 156.841494 107.017345 
L 157.269883 106.940134 
L 157.698 107.085333 
L 157.983514 107.318858 
L 159.053972 107.210394 
L 159.33945 107.053146 
L 159.482175 107.047632 
L 159.767654 106.855734 
L 159.910443 106.860006 
L 160.053132 106.785163 
L 160.55284 106.55633 
L 160.980922 106.382463 
L 161.195052 106.358353 
L 161.551879 106.222434 
L 161.908741 106.172608 
L 162.051566 106.134978 
L 162.122821 106.156549 
L 162.265689 106.07928 
L 162.551188 106.002443 
L 162.693871 105.986218 
L 164.835151 105.435191 
L 165.120422 105.527253 
L 165.191863 105.459042 
L 165.548668 105.739863 
L 165.620195 105.74441 
L 165.905473 106.019797 
L 166.405146 106.125794 
L 166.690524 106.100961 
L 166.904747 106.111406 
L 167.475611 106.218937 
L 167.689727 106.292237 
L 167.832444 106.352765 
L 168.117951 106.292313 
L 168.688951 106.284801 
L 168.974608 106.435758 
L 169.11704 106.440166 
L 169.331306 106.443937 
L 170.615879 106.508915 
L 171.329525 106.520245 
L 171.686359 106.68289 
L 171.900446 106.657094 
L 172.828301 106.585012 
L 173.18522 106.828528 
L 173.827482 107.177109 
L 174.184401 107.194998 
L 174.969481 107.027675 
L 175.683162 106.821455 
L 175.968612 106.75762 
L 179.03739 106.144768 
L 179.965273 106.671036 
L 180.179367 106.851152 
L 180.464853 107.024821 
L 180.607599 106.94679 
L 180.750331 107.015801 
L 180.893113 106.98043 
L 181.10725 106.966205 
L 181.249911 106.957763 
L 181.820846 106.980562 
L 182.035133 107.12481 
L 182.320405 107.256952 
L 182.67731 107.163361 
L 182.820006 107.183777 
L 183.176939 107.270847 
L 183.462375 107.354557 
L 184.532869 107.2579 
L 184.532869 107.2579 
" clip-path="url(#p89aaf6f878)" style="fill: none; stroke: #fa7c17; stroke-width: 0.4; stroke-linecap: round"/>
   </g>
   <g id="patch_3">
    <path d="M 42.225709 195.541302 
L 42.225709 3.00024 
" style="fill: none; stroke: #000000; stroke-linejoin: miter; stroke-linecap: square"/>
   </g>
   <g id="patch_4">
    <path d="M 42.225709 195.541302 
L 191.3094 195.541302 
" style="fill: none; stroke: #000000; stroke-linejoin: miter; stroke-linecap: square"/>
   </g>
   <g id="legend_1">
    <g id="line2d_25">
     <path d="M 72.950337 12.169146 
L 79.950337 12.169146 
L 86.950337 12.169146 
" style="fill: none; stroke: #2a2eec; stroke-width: 0.4; stroke-linecap: round"/>
    </g>
    <g id="text_14">
     <!-- original data -->
     <g style="fill: #262626" transform="translate(92.550337 14.619146) scale(0.07 -0.07)">
      <defs>
       <path id="DejaVuSerif-6f" d="M 1925 219 
Q 2388 219 2623 584 
Q 2859 950 2859 1663 
Q 2859 2375 2623 2739 
Q 2388 3103 1925 3103 
Q 1463 3103 1227 2739 
Q 991 2375 991 1663 
Q 991 950 1228 584 
Q 1466 219 1925 219 
z
M 1925 -91 
Q 1200 -91 759 389 
Q 319 869 319 1663 
Q 319 2456 758 2934 
Q 1197 3413 1925 3413 
Q 2653 3413 3092 2934 
Q 3531 2456 3531 1663 
Q 3531 869 3092 389 
Q 2653 -91 1925 -91 
z
" transform="scale(0.015625)"/>
       <path id="DejaVuSerif-72" d="M 3059 3328 
L 3059 2497 
L 2728 2497 
Q 2713 2744 2591 2866 
Q 2469 2988 2234 2988 
Q 1809 2988 1582 2694 
Q 1356 2400 1356 1850 
L 1356 331 
L 2022 331 
L 2022 0 
L 263 0 
L 263 331 
L 781 331 
L 781 2994 
L 231 2994 
L 231 3322 
L 1356 3322 
L 1356 2731 
Q 1525 3078 1790 3245 
Q 2056 3413 2438 3413 
Q 2578 3413 2733 3391 
Q 2888 3369 3059 3328 
z
" transform="scale(0.015625)"/>
       <path id="DejaVuSerif-67" d="M 3359 2988 
L 3359 72 
Q 3359 -644 2965 -1033 
Q 2572 -1422 1844 -1422 
Q 1516 -1422 1216 -1362 
Q 916 -1303 641 -1184 
L 641 -488 
L 941 -488 
Q 997 -813 1206 -963 
Q 1416 -1113 1806 -1113 
Q 2313 -1113 2548 -827 
Q 2784 -541 2784 72 
L 2784 519 
Q 2616 206 2355 57 
Q 2094 -91 1709 -91 
Q 1097 -91 708 395 
Q 319 881 319 1663 
Q 319 2444 706 2928 
Q 1094 3413 1709 3413 
Q 2094 3413 2355 3264 
Q 2616 3116 2784 2803 
L 2784 3322 
L 3909 3322 
L 3909 2988 
L 3359 2988 
z
M 2784 1825 
Q 2784 2422 2554 2737 
Q 2325 3053 1888 3053 
Q 1444 3053 1217 2703 
Q 991 2353 991 1663 
Q 991 975 1217 622 
Q 1444 269 1888 269 
Q 2325 269 2554 583 
Q 2784 897 2784 1497 
L 2784 1825 
z
" transform="scale(0.015625)"/>
       <path id="DejaVuSerif-6e" d="M 263 0 
L 263 331 
L 781 331 
L 781 2988 
L 231 2988 
L 231 3322 
L 1356 3322 
L 1356 2731 
Q 1516 3069 1770 3241 
Q 2025 3413 2363 3413 
Q 2913 3413 3172 3097 
Q 3431 2781 3431 2113 
L 3431 331 
L 3944 331 
L 3944 0 
L 2356 0 
L 2356 331 
L 2853 331 
L 2853 1931 
Q 2853 2541 2703 2767 
Q 2553 2994 2175 2994 
Q 1775 2994 1565 2701 
Q 1356 2409 1356 1850 
L 1356 331 
L 1856 331 
L 1856 0 
L 263 0 
z
" transform="scale(0.015625)"/>
       <path id="DejaVuSerif-61" d="M 2547 1044 
L 2547 1747 
L 1806 1747 
Q 1378 1747 1168 1562 
Q 959 1378 959 997 
Q 959 650 1171 447 
Q 1384 244 1747 244 
Q 2106 244 2326 466 
Q 2547 688 2547 1044 
z
M 3122 2075 
L 3122 331 
L 3634 331 
L 3634 0 
L 2547 0 
L 2547 359 
Q 2356 128 2106 18 
Q 1856 -91 1522 -91 
Q 969 -91 644 203 
Q 319 497 319 997 
Q 319 1513 691 1797 
Q 1063 2081 1741 2081 
L 2547 2081 
L 2547 2309 
Q 2547 2688 2317 2895 
Q 2088 3103 1672 3103 
Q 1328 3103 1125 2947 
Q 922 2791 872 2484 
L 575 2484 
L 575 3156 
Q 875 3284 1158 3348 
Q 1441 3413 1709 3413 
Q 2400 3413 2761 3070 
Q 3122 2728 3122 2075 
z
" transform="scale(0.015625)"/>
       <path id="DejaVuSerif-6c" d="M 1313 331 
L 1856 331 
L 1856 0 
L 184 0 
L 184 331 
L 738 331 
L 738 4531 
L 184 4531 
L 184 4863 
L 1313 4863 
L 1313 331 
z
" transform="scale(0.015625)"/>
       <path id="DejaVuSerif-64" d="M 3359 331 
L 3909 331 
L 3909 0 
L 2784 0 
L 2784 519 
Q 2616 206 2355 57 
Q 2094 -91 1709 -91 
Q 1097 -91 708 395 
Q 319 881 319 1663 
Q 319 2444 706 2928 
Q 1094 3413 1709 3413 
Q 2094 3413 2355 3264 
Q 2616 3116 2784 2803 
L 2784 4531 
L 2241 4531 
L 2241 4863 
L 3359 4863 
L 3359 331 
z
M 2784 1497 
L 2784 1825 
Q 2784 2422 2554 2737 
Q 2325 3053 1888 3053 
Q 1444 3053 1217 2703 
Q 991 2353 991 1663 
Q 991 975 1217 622 
Q 1444 269 1888 269 
Q 2325 269 2554 583 
Q 2784 897 2784 1497 
z
" transform="scale(0.015625)"/>
      </defs>
      <use xlink:href="#DejaVuSerif-6f"/>
      <use xlink:href="#DejaVuSerif-72" x="60.205078"/>
      <use xlink:href="#DejaVuSerif-69" x="108.007812"/>
      <use xlink:href="#DejaVuSerif-67" x="139.990234"/>
      <use xlink:href="#DejaVuSerif-69" x="204.003906"/>
      <use xlink:href="#DejaVuSerif-6e" x="235.986328"/>
      <use xlink:href="#DejaVuSerif-61" x="300.390625"/>
      <use xlink:href="#DejaVuSerif-6c" x="360.009766"/>
      <use xlink:href="#DejaVuSerif-20" x="391.992188"/>
      <use xlink:href="#DejaVuSerif-64" x="423.779297"/>
      <use xlink:href="#DejaVuSerif-61" x="487.792969"/>
      <use xlink:href="#DejaVuSerif-74" x="547.412109"/>
      <use xlink:href="#DejaVuSerif-61" x="587.597656"/>
     </g>
    </g>
    <g id="line2d_26">
     <path d="M 72.950337 22.543365 
L 79.950337 22.543365 
L 86.950337 22.543365 
" style="fill: none; stroke: #fa7c17; stroke-width: 0.4; stroke-linecap: round"/>
    </g>
    <g id="text_15">
     <!-- transformed to roll centre -->
     <g style="fill: #262626" transform="translate(92.550337 24.993365) scale(0.07 -0.07)">
      <defs>
       <path id="DejaVuSerif-73" d="M 359 184 
L 359 959 
L 691 959 
Q 703 588 923 403 
Q 1144 219 1575 219 
Q 1963 219 2166 364 
Q 2369 509 2369 788 
Q 2369 1006 2220 1140 
Q 2072 1275 1594 1428 
L 1178 1569 
Q 750 1706 558 1912 
Q 366 2119 366 2438 
Q 366 2894 700 3153 
Q 1034 3413 1625 3413 
Q 1888 3413 2178 3344 
Q 2469 3275 2778 3144 
L 2778 2419 
L 2447 2419 
Q 2434 2741 2221 2922 
Q 2009 3103 1644 3103 
Q 1281 3103 1095 2975 
Q 909 2847 909 2591 
Q 909 2381 1050 2254 
Q 1191 2128 1613 1997 
L 2069 1856 
Q 2541 1709 2748 1489 
Q 2956 1269 2956 922 
Q 2956 450 2595 179 
Q 2234 -91 1600 -91 
Q 1278 -91 972 -22 
Q 666 47 359 184 
z
" transform="scale(0.015625)"/>
       <path id="DejaVuSerif-66" d="M 2753 4078 
L 2450 4078 
Q 2447 4313 2317 4434 
Q 2188 4556 1941 4556 
Q 1619 4556 1487 4379 
Q 1356 4203 1356 3750 
L 1356 3322 
L 2284 3322 
L 2284 2988 
L 1356 2988 
L 1356 331 
L 2094 331 
L 2094 0 
L 231 0 
L 231 331 
L 781 331 
L 781 2988 
L 231 2988 
L 231 3322 
L 781 3322 
L 781 3738 
Q 781 4294 1070 4578 
Q 1359 4863 1919 4863 
Q 2128 4863 2337 4825 
Q 2547 4788 2753 4709 
L 2753 4078 
z
" transform="scale(0.015625)"/>
       <path id="DejaVuSerif-63" d="M 3291 997 
Q 3169 466 2822 187 
Q 2475 -91 1925 -91 
Q 1200 -91 759 389 
Q 319 869 319 1663 
Q 319 2459 759 2936 
Q 1200 3413 1925 3413 
Q 2241 3413 2553 3339 
Q 2866 3266 3181 3116 
L 3181 2266 
L 2847 2266 
Q 2781 2703 2561 2903 
Q 2341 3103 1931 3103 
Q 1466 3103 1228 2742 
Q 991 2381 991 1663 
Q 991 944 1227 581 
Q 1463 219 1931 219 
Q 2303 219 2525 412 
Q 2747 606 2828 997 
L 3291 997 
z
" transform="scale(0.015625)"/>
      </defs>
      <use xlink:href="#DejaVuSerif-74"/>
      <use xlink:href="#DejaVuSerif-72" x="40.185547"/>
      <use xlink:href="#DejaVuSerif-61" x="87.988281"/>
      <use xlink:href="#DejaVuSerif-6e" x="147.607422"/>
      <use xlink:href="#DejaVuSerif-73" x="212.011719"/>
      <use xlink:href="#DejaVuSerif-66" x="263.330078"/>
      <use xlink:href="#DejaVuSerif-6f" x="300.341797"/>
      <use xlink:href="#DejaVuSerif-72" x="360.546875"/>
      <use xlink:href="#DejaVuSerif-6d" x="408.349609"/>
      <use xlink:href="#DejaVuSerif-65" x="503.173828"/>
      <use xlink:href="#DejaVuSerif-64" x="562.353516"/>
      <use xlink:href="#DejaVuSerif-20" x="626.367188"/>
      <use xlink:href="#DejaVuSerif-74" x="658.154297"/>
      <use xlink:href="#DejaVuSerif-6f" x="698.339844"/>
      <use xlink:href="#DejaVuSerif-20" x="758.544922"/>
      <use xlink:href="#DejaVuSerif-72" x="790.332031"/>
      <use xlink:href="#DejaVuSerif-6f" x="838.134766"/>
      <use xlink:href="#DejaVuSerif-6c" x="898.339844"/>
      <use xlink:href="#DejaVuSerif-6c" x="930.322266"/>
      <use xlink:href="#DejaVuSerif-20" x="962.304688"/>
      <use xlink:href="#DejaVuSerif-63" x="994.091797"/>
      <use xlink:href="#DejaVuSerif-65" x="1050.097656"/>
      <use xlink:href="#DejaVuSerif-6e" x="1109.277344"/>
      <use xlink:href="#DejaVuSerif-74" x="1173.681641"/>
      <use xlink:href="#DejaVuSerif-72" x="1213.867188"/>
      <use xlink:href="#DejaVuSerif-65" x="1261.669922"/>
     </g>
    </g>
   </g>
  </g>
 </g>
 <defs>
  <clipPath id="p89aaf6f878">
   <rect x="42.225709" y="3.00024" width="149.083691" height="192.541062"/>
  </clipPath>
 </defs>
</svg>
