<?xml version="1.0" encoding="utf-8" standalone="no"?>
<!DOCTYPE svg PUBLIC "-//W3C//DTD SVG 1.1//EN"
  "http://www.w3.org/Graphics/SVG/1.1/DTD/svg11.dtd">
<svg xmlns:xlink="http://www.w3.org/1999/xlink" width="388.61928pt" height="218.623104pt" viewBox="0 0 388.61928 218.623104" xmlns="http://www.w3.org/2000/svg" version="1.1">
 <metadata>
  <rdf:RDF xmlns:dc="http://purl.org/dc/elements/1.1/" xmlns:cc="http://creativecommons.org/ns#" xmlns:rdf="http://www.w3.org/1999/02/22-rdf-syntax-ns#">
   <cc:Work>
    <dc:type rdf:resource="http://purl.org/dc/dcmitype/StillImage"/>
    <dc:date>2024-11-11T10:12:42.348758</dc:date>
    <dc:format>image/svg+xml</dc:format>
    <dc:creator>
     <cc:Agent>
      <dc:title>Matplotlib v3.8.2, https://matplotlib.org/</dc:title>
     </cc:Agent>
    </dc:creator>
   </cc:Work>
  </rdf:RDF>
 </metadata>
 <defs>
  <style type="text/css">*{stroke-linejoin: round; stroke-linecap: butt}</style>
 </defs>
 <g id="figure_1">
  <g id="patch_1">
   <path d="M 0 218.623104 
L 388.61928 218.623104 
L 388.61928 0 
L 0 0 
z
" style="fill: #ffffff"/>
  </g>
  <g id="axes_1">
   <g id="patch_2">
    <path d="M 43.86 90.201552 
L 188.90964 90.201552 
L 188.90964 10.8 
L 43.86 10.8 
z
" style="fill: #ffffff"/>
   </g>
   <g id="matplotlib.axis_1">
    <g id="xtick_1">
     <g id="line2d_1">
      <path d="M 50.453165 90.201552 
L 50.453165 10.8 
" clip-path="url(#pb6fb123367)" style="fill: none; stroke: #b0b0b0; stroke-width: 0.1; stroke-linecap: round"/>
     </g>
     <g id="line2d_2"/>
    </g>
    <g id="xtick_2">
     <g id="line2d_3">
      <path d="M 93.405372 90.201552 
L 93.405372 10.8 
" clip-path="url(#pb6fb123367)" style="fill: none; stroke: #b0b0b0; stroke-width: 0.1; stroke-linecap: round"/>
     </g>
     <g id="line2d_4"/>
    </g>
    <g id="xtick_3">
     <g id="line2d_5">
      <path d="M 136.357579 90.201552 
L 136.357579 10.8 
" clip-path="url(#pb6fb123367)" style="fill: none; stroke: #b0b0b0; stroke-width: 0.1; stroke-linecap: round"/>
     </g>
     <g id="line2d_6"/>
    </g>
    <g id="xtick_4">
     <g id="line2d_7">
      <path d="M 179.309786 90.201552 
L 179.309786 10.8 
" clip-path="url(#pb6fb123367)" style="fill: none; stroke: #b0b0b0; stroke-width: 0.1; stroke-linecap: round"/>
     </g>
     <g id="line2d_8"/>
    </g>
   </g>
   <g id="matplotlib.axis_2">
    <g id="ytick_1">
     <g id="line2d_9">
      <path d="M 43.86 90.201552 
L 188.90964 90.201552 
" clip-path="url(#pb6fb123367)" style="fill: none; stroke: #b0b0b0; stroke-width: 0.1; stroke-linecap: round"/>
     </g>
     <g id="line2d_10"/>
     <g id="text_1">
      <!-- 0.00 -->
      <g style="fill: #262626" transform="translate(22.5475 93.240927) scale(0.08 -0.08)">
       <defs>
        <path id="DejaVuSerif-30" d="M 2034 219 
Q 2513 219 2750 744 
Q 2988 1269 2988 2328 
Q 2988 3391 2750 3916 
Q 2513 4441 2034 4441 
Q 1556 4441 1318 3916 
Q 1081 3391 1081 2328 
Q 1081 1269 1318 744 
Q 1556 219 2034 219 
z
M 2034 -91 
Q 1275 -91 848 546 
Q 422 1184 422 2328 
Q 422 3475 848 4112 
Q 1275 4750 2034 4750 
Q 2797 4750 3222 4112 
Q 3647 3475 3647 2328 
Q 3647 1184 3222 546 
Q 2797 -91 2034 -91 
z
" transform="scale(0.015625)"/>
        <path id="DejaVuSerif-2e" d="M 603 325 
Q 603 500 722 622 
Q 841 744 1019 744 
Q 1191 744 1312 622 
Q 1434 500 1434 325 
Q 1434 153 1312 31 
Q 1191 -91 1019 -91 
Q 841 -91 722 29 
Q 603 150 603 325 
z
" transform="scale(0.015625)"/>
       </defs>
       <use xlink:href="#DejaVuSerif-30"/>
       <use xlink:href="#DejaVuSerif-2e" x="63.623047"/>
       <use xlink:href="#DejaVuSerif-30" x="95.410156"/>
       <use xlink:href="#DejaVuSerif-30" x="159.033203"/>
      </g>
     </g>
    </g>
    <g id="ytick_2">
     <g id="line2d_11">
      <path d="M 43.86 69.288465 
L 188.90964 69.288465 
" clip-path="url(#pb6fb123367)" style="fill: none; stroke: #b0b0b0; stroke-width: 0.1; stroke-linecap: round"/>
     </g>
     <g id="line2d_12"/>
     <g id="text_2">
      <!-- 0.25 -->
      <g style="fill: #262626" transform="translate(22.5475 72.32784) scale(0.08 -0.08)">
       <defs>
        <path id="DejaVuSerif-32" d="M 819 3553 
L 469 3553 
L 469 4384 
Q 803 4563 1142 4656 
Q 1481 4750 1806 4750 
Q 2534 4750 2956 4397 
Q 3378 4044 3378 3438 
Q 3378 2753 2422 1800 
Q 2347 1728 2309 1691 
L 1131 513 
L 3078 513 
L 3078 1088 
L 3444 1088 
L 3444 0 
L 434 0 
L 434 341 
L 1850 1753 
Q 2319 2222 2519 2614 
Q 2719 3006 2719 3438 
Q 2719 3909 2473 4175 
Q 2228 4441 1797 4441 
Q 1350 4441 1106 4219 
Q 863 3997 819 3553 
z
" transform="scale(0.015625)"/>
        <path id="DejaVuSerif-35" d="M 3219 4666 
L 3219 4153 
L 1081 4153 
L 1081 2816 
Q 1244 2928 1461 2984 
Q 1678 3041 1947 3041 
Q 2703 3041 3140 2622 
Q 3578 2203 3578 1478 
Q 3578 738 3136 323 
Q 2694 -91 1894 -91 
Q 1572 -91 1234 -12 
Q 897 66 544 225 
L 544 1131 
L 897 1131 
Q 925 688 1179 453 
Q 1434 219 1894 219 
Q 2388 219 2653 544 
Q 2919 869 2919 1478 
Q 2919 2084 2655 2407 
Q 2391 2731 1894 2731 
Q 1613 2731 1398 2631 
Q 1184 2531 1019 2322 
L 750 2322 
L 750 4666 
L 3219 4666 
z
" transform="scale(0.015625)"/>
       </defs>
       <use xlink:href="#DejaVuSerif-30"/>
       <use xlink:href="#DejaVuSerif-2e" x="63.623047"/>
       <use xlink:href="#DejaVuSerif-32" x="95.410156"/>
       <use xlink:href="#DejaVuSerif-35" x="159.033203"/>
      </g>
     </g>
    </g>
    <g id="ytick_3">
     <g id="line2d_13">
      <path d="M 43.86 48.375377 
L 188.90964 48.375377 
" clip-path="url(#pb6fb123367)" style="fill: none; stroke: #b0b0b0; stroke-width: 0.1; stroke-linecap: round"/>
     </g>
     <g id="line2d_14"/>
     <g id="text_3">
      <!-- 0.50 -->
      <g style="fill: #262626" transform="translate(22.5475 51.414752) scale(0.08 -0.08)">
       <use xlink:href="#DejaVuSerif-30"/>
       <use xlink:href="#DejaVuSerif-2e" x="63.623047"/>
       <use xlink:href="#DejaVuSerif-35" x="95.410156"/>
       <use xlink:href="#DejaVuSerif-30" x="159.033203"/>
      </g>
     </g>
    </g>
    <g id="ytick_4">
     <g id="line2d_15">
      <path d="M 43.86 27.46229 
L 188.90964 27.46229 
" clip-path="url(#pb6fb123367)" style="fill: none; stroke: #b0b0b0; stroke-width: 0.1; stroke-linecap: round"/>
     </g>
     <g id="line2d_16"/>
     <g id="text_4">
      <!-- 0.75 -->
      <g style="fill: #262626" transform="translate(22.5475 30.501665) scale(0.08 -0.08)">
       <defs>
        <path id="DejaVuSerif-37" d="M 3609 4347 
L 1784 0 
L 1319 0 
L 3059 4153 
L 903 4153 
L 903 3578 
L 538 3578 
L 538 4666 
L 3609 4666 
L 3609 4347 
z
" transform="scale(0.015625)"/>
       </defs>
       <use xlink:href="#DejaVuSerif-30"/>
       <use xlink:href="#DejaVuSerif-2e" x="63.623047"/>
       <use xlink:href="#DejaVuSerif-37" x="95.410156"/>
       <use xlink:href="#DejaVuSerif-35" x="159.033203"/>
      </g>
     </g>
    </g>
    <g id="text_5">
     <!-- $V$ -->
     <g style="fill: #262626" transform="translate(17.091719 52.915776) rotate(-90) scale(0.07 -0.07)">
      <defs>
       <path id="DejaVuSans-Oblique-56" d="M 1319 0 
L 500 4666 
L 1119 4666 
L 1797 653 
L 4063 4666 
L 4750 4666 
L 2053 0 
L 1319 0 
z
" transform="scale(0.015625)"/>
      </defs>
      <use xlink:href="#DejaVuSans-Oblique-56" transform="translate(0 0.09375)"/>
     </g>
    </g>
   </g>
   <g id="line2d_17">
    <path d="M 50.453165 11.273271 
L 51.204851 11.427525 
L 52.579302 11.457723 
L 54.748378 11.451078 
L 56.573883 11.502236 
L 58.893272 11.547805 
L 61.448924 11.658089 
L 62.651599 11.701207 
L 65.37907 12.074571 
L 66.839467 12.118157 
L 68.83674 12.688841 
L 70.662196 13.071045 
L 78.28621 14.228706 
L 79.596236 14.085532 
L 80.283531 14.143723 
L 81.636461 14.369812 
L 83.311604 14.32963 
L 84.879372 14.13696 
L 87.13435 14.495672 
L 88.294083 14.36974 
L 93.448395 14.15841 
L 94.264468 14.127959 
L 96.841549 14.256963 
L 99.59049 14.286494 
L 101.437428 14.383901 
L 105.711182 14.68831 
L 106.613178 14.730458 
L 107.944692 14.788221 
L 109.619824 14.986358 
L 112.154017 15.271401 
L 119.412946 16.810096 
L 120.701504 17.257644 
L 122.720264 17.926089 
L 127.702716 19.407926 
L 129.871796 19.779116 
L 131.396597 20.015806 
L 132.749611 20.129222 
L 134.94021 20.289908 
L 135.734772 20.311792 
L 137.796499 20.562808 
L 144.518515 20.371476 
L 147.61107 20.123194 
L 148.47014 19.971946 
L 151.45528 19.892054 
L 155.686102 19.535641 
L 156.974645 19.398497 
L 159.251107 19.190049 
L 161.033678 18.907181 
L 166.87512 18.621749 
L 169.344865 18.605186 
L 170.590498 18.50926 
L 172.308587 18.272257 
L 173.511234 18.460601 
L 174.756875 18.570213 
L 176.754129 18.561093 
L 178.300432 18.797375 
L 181.242678 19.24109 
L 182.316475 19.332913 
L 182.316475 19.332913 
" clip-path="url(#pb6fb123367)" style="fill: none; stroke: #000000; stroke-width: 0.4; stroke-linecap: round"/>
   </g>
   <g id="line2d_18">
    <path d="M 50.453165 11.273277 
L 54.641006 11.329153 
L 62.780449 11.576581 
L 66.817956 11.925209 
L 70.511846 12.472839 
L 74.119831 13.003674 
L 78.350624 13.362286 
L 83.354556 13.526991 
L 103.606521 13.79646 
L 109.061452 14.219922 
L 114.237192 14.841746 
L 118.596841 15.539181 
L 122.097446 16.330465 
L 124.309485 16.751568 
L 127.144331 17.072681 
L 131.396599 17.282379 
L 136.228722 17.24307 
L 141.554796 16.983794 
L 153.044511 16.417339 
L 158.477965 16.379688 
L 162.451045 16.543676 
L 167.175787 16.985238 
L 172.716622 17.817257 
L 173.253525 17.914893 
L 173.253525 17.914893 
" clip-path="url(#pb6fb123367)" style="fill: none; stroke-dasharray: 1.48,0.64; stroke-dashoffset: 0; stroke: #0000ff; stroke-width: 0.4"/>
   </g>
   <g id="line2d_19">
    <path d="M 50.453165 11.273277 
L 56.122857 11.460204 
L 61.685168 11.773152 
L 65.894484 12.240595 
L 69.631326 12.908552 
L 73.5185 13.513905 
L 77.276819 13.874064 
L 81.249898 14.060723 
L 87.950442 14.125116 
L 102.253527 14.322031 
L 109.576878 14.799743 
L 115.439854 15.408618 
L 120.164597 16.082337 
L 124.051772 16.800317 
L 127.831566 17.51424 
L 131.010029 17.832901 
L 134.961632 17.999854 
L 139.364233 17.968332 
L 150.531807 17.538655 
L 156.545116 17.426502 
L 160.668528 17.524199 
L 164.491274 17.812484 
L 168.356973 18.312601 
L 172.308576 19.021598 
L 173.983712 19.374522 
L 173.983712 19.374522 
" clip-path="url(#pb6fb123367)" style="fill: none; stroke-dasharray: 1.48,0.64; stroke-dashoffset: 0; stroke: #ff0000; stroke-width: 0.4"/>
   </g>
   <g id="patch_3">
    <path d="M 43.86 90.201552 
L 43.86 10.8 
" style="fill: none; stroke: #000000; stroke-linejoin: miter; stroke-linecap: square"/>
   </g>
   <g id="patch_4">
    <path d="M 43.86 90.201552 
L 188.90964 90.201552 
" style="fill: none; stroke: #000000; stroke-linejoin: miter; stroke-linecap: square"/>
   </g>
   <g id="legend_1">
    <g id="line2d_20">
     <path d="M 51.06 54.939052 
L 59.06 54.939052 
L 67.06 54.939052 
" style="fill: none; stroke: #000000; stroke-width: 0.4; stroke-linecap: round"/>
    </g>
    <g id="text_6">
     <!-- Experiment -->
     <g style="fill: #262626" transform="translate(73.46 57.739052) scale(0.08 -0.08)">
      <defs>
       <path id="DejaVuSerif-45" d="M 353 0 
L 353 331 
L 947 331 
L 947 4331 
L 353 4331 
L 353 4666 
L 4109 4666 
L 4109 3628 
L 3725 3628 
L 3725 4281 
L 1581 4281 
L 1581 2719 
L 3109 2719 
L 3109 3303 
L 3494 3303 
L 3494 1753 
L 3109 1753 
L 3109 2338 
L 1581 2338 
L 1581 384 
L 3775 384 
L 3775 1038 
L 4159 1038 
L 4159 0 
L 353 0 
z
" transform="scale(0.015625)"/>
       <path id="DejaVuSerif-78" d="M 1863 2028 
L 2559 2988 
L 2113 2988 
L 2113 3322 
L 3391 3322 
L 3391 2988 
L 2950 2988 
L 2059 1759 
L 3097 331 
L 3531 331 
L 3531 0 
L 1997 0 
L 1997 331 
L 2419 331 
L 1697 1325 
L 972 331 
L 1403 331 
L 1403 0 
L 141 0 
L 141 331 
L 581 331 
L 1497 1594 
L 488 2988 
L 78 2988 
L 78 3322 
L 1563 3322 
L 1563 2988 
L 1166 2988 
L 1863 2028 
z
" transform="scale(0.015625)"/>
       <path id="DejaVuSerif-70" d="M 1313 1825 
L 1313 1497 
Q 1313 897 1542 583 
Q 1772 269 2209 269 
Q 2650 269 2876 622 
Q 3103 975 3103 1663 
Q 3103 2353 2876 2703 
Q 2650 3053 2209 3053 
Q 1772 3053 1542 2737 
Q 1313 2422 1313 1825 
z
M 738 2988 
L 184 2988 
L 184 3322 
L 1313 3322 
L 1313 2803 
Q 1481 3116 1742 3264 
Q 2003 3413 2388 3413 
Q 3000 3413 3387 2928 
Q 3775 2444 3775 1663 
Q 3775 881 3387 395 
Q 3000 -91 2388 -91 
Q 2003 -91 1742 57 
Q 1481 206 1313 519 
L 1313 -997 
L 1856 -997 
L 1856 -1331 
L 184 -1331 
L 184 -997 
L 738 -997 
L 738 2988 
z
" transform="scale(0.015625)"/>
       <path id="DejaVuSerif-65" d="M 3469 1600 
L 991 1600 
L 991 1575 
Q 991 903 1244 561 
Q 1497 219 1991 219 
Q 2369 219 2611 417 
Q 2853 616 2950 1006 
L 3413 1006 
Q 3275 459 2904 184 
Q 2534 -91 1931 -91 
Q 1203 -91 761 389 
Q 319 869 319 1663 
Q 319 2450 753 2931 
Q 1188 3413 1894 3413 
Q 2647 3413 3050 2948 
Q 3453 2484 3469 1600 
z
M 2791 1931 
Q 2772 2513 2545 2808 
Q 2319 3103 1894 3103 
Q 1497 3103 1269 2806 
Q 1041 2509 991 1931 
L 2791 1931 
z
" transform="scale(0.015625)"/>
       <path id="DejaVuSerif-72" d="M 3059 3328 
L 3059 2497 
L 2728 2497 
Q 2713 2744 2591 2866 
Q 2469 2988 2234 2988 
Q 1809 2988 1582 2694 
Q 1356 2400 1356 1850 
L 1356 331 
L 2022 331 
L 2022 0 
L 263 0 
L 263 331 
L 781 331 
L 781 2994 
L 231 2994 
L 231 3322 
L 1356 3322 
L 1356 2731 
Q 1525 3078 1790 3245 
Q 2056 3413 2438 3413 
Q 2578 3413 2733 3391 
Q 2888 3369 3059 3328 
z
" transform="scale(0.015625)"/>
       <path id="DejaVuSerif-69" d="M 622 4353 
Q 622 4497 726 4603 
Q 831 4709 978 4709 
Q 1122 4709 1226 4603 
Q 1331 4497 1331 4353 
Q 1331 4206 1228 4103 
Q 1125 4000 978 4000 
Q 831 4000 726 4103 
Q 622 4206 622 4353 
z
M 1356 331 
L 1900 331 
L 1900 0 
L 231 0 
L 231 331 
L 781 331 
L 781 2988 
L 231 2988 
L 231 3322 
L 1356 3322 
L 1356 331 
z
" transform="scale(0.015625)"/>
       <path id="DejaVuSerif-6d" d="M 3316 2675 
Q 3481 3041 3739 3227 
Q 3997 3413 4341 3413 
Q 4863 3413 5119 3089 
Q 5375 2766 5375 2113 
L 5375 331 
L 5894 331 
L 5894 0 
L 4300 0 
L 4300 331 
L 4800 331 
L 4800 2047 
Q 4800 2556 4650 2772 
Q 4500 2988 4153 2988 
Q 3769 2988 3567 2697 
Q 3366 2406 3366 1850 
L 3366 331 
L 3866 331 
L 3866 0 
L 2291 0 
L 2291 331 
L 2791 331 
L 2791 2069 
Q 2791 2566 2641 2777 
Q 2491 2988 2144 2988 
Q 1759 2988 1557 2697 
Q 1356 2406 1356 1850 
L 1356 331 
L 1856 331 
L 1856 0 
L 263 0 
L 263 331 
L 781 331 
L 781 2994 
L 231 2994 
L 231 3322 
L 1356 3322 
L 1356 2731 
Q 1516 3063 1762 3238 
Q 2009 3413 2322 3413 
Q 2709 3413 2968 3220 
Q 3228 3028 3316 2675 
z
" transform="scale(0.015625)"/>
       <path id="DejaVuSerif-6e" d="M 263 0 
L 263 331 
L 781 331 
L 781 2988 
L 231 2988 
L 231 3322 
L 1356 3322 
L 1356 2731 
Q 1516 3069 1770 3241 
Q 2025 3413 2363 3413 
Q 2913 3413 3172 3097 
Q 3431 2781 3431 2113 
L 3431 331 
L 3944 331 
L 3944 0 
L 2356 0 
L 2356 331 
L 2853 331 
L 2853 1931 
Q 2853 2541 2703 2767 
Q 2553 2994 2175 2994 
Q 1775 2994 1565 2701 
Q 1356 2409 1356 1850 
L 1356 331 
L 1856 331 
L 1856 0 
L 263 0 
z
" transform="scale(0.015625)"/>
       <path id="DejaVuSerif-74" d="M 691 2988 
L 184 2988 
L 184 3322 
L 691 3322 
L 691 4353 
L 1269 4353 
L 1269 3322 
L 2350 3322 
L 2350 2988 
L 1269 2988 
L 1269 878 
Q 1269 456 1350 337 
Q 1431 219 1650 219 
Q 1875 219 1978 351 
Q 2081 484 2088 781 
L 2522 781 
Q 2497 328 2275 118 
Q 2053 -91 1600 -91 
Q 1103 -91 897 129 
Q 691 350 691 878 
L 691 2988 
z
" transform="scale(0.015625)"/>
      </defs>
      <use xlink:href="#DejaVuSerif-45"/>
      <use xlink:href="#DejaVuSerif-78" x="72.998047"/>
      <use xlink:href="#DejaVuSerif-70" x="129.394531"/>
      <use xlink:href="#DejaVuSerif-65" x="193.408203"/>
      <use xlink:href="#DejaVuSerif-72" x="252.587891"/>
      <use xlink:href="#DejaVuSerif-69" x="300.390625"/>
      <use xlink:href="#DejaVuSerif-6d" x="332.373047"/>
      <use xlink:href="#DejaVuSerif-65" x="427.197266"/>
      <use xlink:href="#DejaVuSerif-6e" x="486.376953"/>
      <use xlink:href="#DejaVuSerif-74" x="550.78125"/>
     </g>
    </g>
    <g id="line2d_21">
     <path d="M 51.06 66.681552 
L 59.06 66.681552 
L 67.06 66.681552 
" style="fill: none; stroke-dasharray: 1.48,0.64; stroke-dashoffset: 0; stroke: #0000ff; stroke-width: 0.4"/>
    </g>
    <g id="text_7">
     <!-- polynomial rudder -->
     <g style="fill: #262626" transform="translate(73.46 69.481552) scale(0.08 -0.08)">
      <defs>
       <path id="DejaVuSerif-6f" d="M 1925 219 
Q 2388 219 2623 584 
Q 2859 950 2859 1663 
Q 2859 2375 2623 2739 
Q 2388 3103 1925 3103 
Q 1463 3103 1227 2739 
Q 991 2375 991 1663 
Q 991 950 1228 584 
Q 1466 219 1925 219 
z
M 1925 -91 
Q 1200 -91 759 389 
Q 319 869 319 1663 
Q 319 2456 758 2934 
Q 1197 3413 1925 3413 
Q 2653 3413 3092 2934 
Q 3531 2456 3531 1663 
Q 3531 869 3092 389 
Q 2653 -91 1925 -91 
z
" transform="scale(0.015625)"/>
       <path id="DejaVuSerif-6c" d="M 1313 331 
L 1856 331 
L 1856 0 
L 184 0 
L 184 331 
L 738 331 
L 738 4531 
L 184 4531 
L 184 4863 
L 1313 4863 
L 1313 331 
z
" transform="scale(0.015625)"/>
       <path id="DejaVuSerif-79" d="M 1381 -609 
L 1600 -56 
L 359 2988 
L -19 2988 
L -19 3322 
L 1509 3322 
L 1509 2988 
L 978 2988 
L 1913 703 
L 2847 2988 
L 2350 2988 
L 2350 3322 
L 3597 3322 
L 3597 2988 
L 3225 2988 
L 1703 -750 
Q 1547 -1138 1356 -1280 
Q 1166 -1422 819 -1422 
Q 672 -1422 517 -1397 
Q 363 -1372 206 -1325 
L 206 -691 
L 500 -691 
Q 519 -903 608 -995 
Q 697 -1088 884 -1088 
Q 1056 -1088 1161 -992 
Q 1266 -897 1381 -609 
z
" transform="scale(0.015625)"/>
       <path id="DejaVuSerif-61" d="M 2547 1044 
L 2547 1747 
L 1806 1747 
Q 1378 1747 1168 1562 
Q 959 1378 959 997 
Q 959 650 1171 447 
Q 1384 244 1747 244 
Q 2106 244 2326 466 
Q 2547 688 2547 1044 
z
M 3122 2075 
L 3122 331 
L 3634 331 
L 3634 0 
L 2547 0 
L 2547 359 
Q 2356 128 2106 18 
Q 1856 -91 1522 -91 
Q 969 -91 644 203 
Q 319 497 319 997 
Q 319 1513 691 1797 
Q 1063 2081 1741 2081 
L 2547 2081 
L 2547 2309 
Q 2547 2688 2317 2895 
Q 2088 3103 1672 3103 
Q 1328 3103 1125 2947 
Q 922 2791 872 2484 
L 575 2484 
L 575 3156 
Q 875 3284 1158 3348 
Q 1441 3413 1709 3413 
Q 2400 3413 2761 3070 
Q 3122 2728 3122 2075 
z
" transform="scale(0.015625)"/>
       <path id="DejaVuSerif-20" transform="scale(0.015625)"/>
       <path id="DejaVuSerif-75" d="M 2266 3322 
L 3341 3322 
L 3341 331 
L 3884 331 
L 3884 0 
L 2766 0 
L 2766 588 
Q 2606 256 2353 82 
Q 2100 -91 1766 -91 
Q 1213 -91 952 223 
Q 691 538 691 1209 
L 691 2988 
L 172 2988 
L 172 3322 
L 1269 3322 
L 1269 1388 
Q 1269 781 1417 556 
Q 1566 331 1947 331 
Q 2347 331 2556 625 
Q 2766 919 2766 1478 
L 2766 2988 
L 2266 2988 
L 2266 3322 
z
" transform="scale(0.015625)"/>
       <path id="DejaVuSerif-64" d="M 3359 331 
L 3909 331 
L 3909 0 
L 2784 0 
L 2784 519 
Q 2616 206 2355 57 
Q 2094 -91 1709 -91 
Q 1097 -91 708 395 
Q 319 881 319 1663 
Q 319 2444 706 2928 
Q 1094 3413 1709 3413 
Q 2094 3413 2355 3264 
Q 2616 3116 2784 2803 
L 2784 4531 
L 2241 4531 
L 2241 4863 
L 3359 4863 
L 3359 331 
z
M 2784 1497 
L 2784 1825 
Q 2784 2422 2554 2737 
Q 2325 3053 1888 3053 
Q 1444 3053 1217 2703 
Q 991 2353 991 1663 
Q 991 975 1217 622 
Q 1444 269 1888 269 
Q 2325 269 2554 583 
Q 2784 897 2784 1497 
z
" transform="scale(0.015625)"/>
      </defs>
      <use xlink:href="#DejaVuSerif-70"/>
      <use xlink:href="#DejaVuSerif-6f" x="64.013672"/>
      <use xlink:href="#DejaVuSerif-6c" x="124.21875"/>
      <use xlink:href="#DejaVuSerif-79" x="156.201172"/>
      <use xlink:href="#DejaVuSerif-6e" x="212.695312"/>
      <use xlink:href="#DejaVuSerif-6f" x="277.099609"/>
      <use xlink:href="#DejaVuSerif-6d" x="337.304688"/>
      <use xlink:href="#DejaVuSerif-69" x="432.128906"/>
      <use xlink:href="#DejaVuSerif-61" x="464.111328"/>
      <use xlink:href="#DejaVuSerif-6c" x="523.730469"/>
      <use xlink:href="#DejaVuSerif-20" x="555.712891"/>
      <use xlink:href="#DejaVuSerif-72" x="587.5"/>
      <use xlink:href="#DejaVuSerif-75" x="635.302734"/>
      <use xlink:href="#DejaVuSerif-64" x="699.707031"/>
      <use xlink:href="#DejaVuSerif-64" x="763.720703"/>
      <use xlink:href="#DejaVuSerif-65" x="827.734375"/>
      <use xlink:href="#DejaVuSerif-72" x="886.914062"/>
     </g>
    </g>
    <g id="line2d_22">
     <path d="M 51.06 78.537802 
L 59.06 78.537802 
L 67.06 78.537802 
" style="fill: none; stroke-dasharray: 1.48,0.64; stroke-dashoffset: 0; stroke: #ff0000; stroke-width: 0.4"/>
    </g>
    <g id="text_8">
     <!-- semiempirical rudder -->
     <g style="fill: #262626" transform="translate(73.46 81.337802) scale(0.08 -0.08)">
      <defs>
       <path id="DejaVuSerif-73" d="M 359 184 
L 359 959 
L 691 959 
Q 703 588 923 403 
Q 1144 219 1575 219 
Q 1963 219 2166 364 
Q 2369 509 2369 788 
Q 2369 1006 2220 1140 
Q 2072 1275 1594 1428 
L 1178 1569 
Q 750 1706 558 1912 
Q 366 2119 366 2438 
Q 366 2894 700 3153 
Q 1034 3413 1625 3413 
Q 1888 3413 2178 3344 
Q 2469 3275 2778 3144 
L 2778 2419 
L 2447 2419 
Q 2434 2741 2221 2922 
Q 2009 3103 1644 3103 
Q 1281 3103 1095 2975 
Q 909 2847 909 2591 
Q 909 2381 1050 2254 
Q 1191 2128 1613 1997 
L 2069 1856 
Q 2541 1709 2748 1489 
Q 2956 1269 2956 922 
Q 2956 450 2595 179 
Q 2234 -91 1600 -91 
Q 1278 -91 972 -22 
Q 666 47 359 184 
z
" transform="scale(0.015625)"/>
       <path id="DejaVuSerif-63" d="M 3291 997 
Q 3169 466 2822 187 
Q 2475 -91 1925 -91 
Q 1200 -91 759 389 
Q 319 869 319 1663 
Q 319 2459 759 2936 
Q 1200 3413 1925 3413 
Q 2241 3413 2553 3339 
Q 2866 3266 3181 3116 
L 3181 2266 
L 2847 2266 
Q 2781 2703 2561 2903 
Q 2341 3103 1931 3103 
Q 1466 3103 1228 2742 
Q 991 2381 991 1663 
Q 991 944 1227 581 
Q 1463 219 1931 219 
Q 2303 219 2525 412 
Q 2747 606 2828 997 
L 3291 997 
z
" transform="scale(0.015625)"/>
      </defs>
      <use xlink:href="#DejaVuSerif-73"/>
      <use xlink:href="#DejaVuSerif-65" x="51.318359"/>
      <use xlink:href="#DejaVuSerif-6d" x="110.498047"/>
      <use xlink:href="#DejaVuSerif-69" x="205.322266"/>
      <use xlink:href="#DejaVuSerif-65" x="237.304688"/>
      <use xlink:href="#DejaVuSerif-6d" x="296.484375"/>
      <use xlink:href="#DejaVuSerif-70" x="391.308594"/>
      <use xlink:href="#DejaVuSerif-69" x="455.322266"/>
      <use xlink:href="#DejaVuSerif-72" x="487.304688"/>
      <use xlink:href="#DejaVuSerif-69" x="535.107422"/>
      <use xlink:href="#DejaVuSerif-63" x="567.089844"/>
      <use xlink:href="#DejaVuSerif-61" x="623.095703"/>
      <use xlink:href="#DejaVuSerif-6c" x="682.714844"/>
      <use xlink:href="#DejaVuSerif-20" x="714.697266"/>
      <use xlink:href="#DejaVuSerif-72" x="746.484375"/>
      <use xlink:href="#DejaVuSerif-75" x="794.287109"/>
      <use xlink:href="#DejaVuSerif-64" x="858.691406"/>
      <use xlink:href="#DejaVuSerif-64" x="922.705078"/>
      <use xlink:href="#DejaVuSerif-65" x="986.71875"/>
      <use xlink:href="#DejaVuSerif-72" x="1045.898438"/>
     </g>
    </g>
   </g>
  </g>
  <g id="axes_2">
   <g id="patch_5">
    <path d="M 232.76964 90.201552 
L 377.81928 90.201552 
L 377.81928 10.8 
L 232.76964 10.8 
z
" style="fill: #ffffff"/>
   </g>
   <g id="matplotlib.axis_3">
    <g id="xtick_5">
     <g id="line2d_23">
      <path d="M 239.362805 90.201552 
L 239.362805 10.8 
" clip-path="url(#pb1819a95dd)" style="fill: none; stroke: #b0b0b0; stroke-width: 0.1; stroke-linecap: round"/>
     </g>
     <g id="line2d_24"/>
    </g>
    <g id="xtick_6">
     <g id="line2d_25">
      <path d="M 282.315012 90.201552 
L 282.315012 10.8 
" clip-path="url(#pb1819a95dd)" style="fill: none; stroke: #b0b0b0; stroke-width: 0.1; stroke-linecap: round"/>
     </g>
     <g id="line2d_26"/>
    </g>
    <g id="xtick_7">
     <g id="line2d_27">
      <path d="M 325.267219 90.201552 
L 325.267219 10.8 
" clip-path="url(#pb1819a95dd)" style="fill: none; stroke: #b0b0b0; stroke-width: 0.1; stroke-linecap: round"/>
     </g>
     <g id="line2d_28"/>
    </g>
    <g id="xtick_8">
     <g id="line2d_29">
      <path d="M 368.219426 90.201552 
L 368.219426 10.8 
" clip-path="url(#pb1819a95dd)" style="fill: none; stroke: #b0b0b0; stroke-width: 0.1; stroke-linecap: round"/>
     </g>
     <g id="line2d_30"/>
    </g>
   </g>
   <g id="matplotlib.axis_4">
    <g id="ytick_5">
     <g id="line2d_31">
      <path d="M 232.76964 77.625122 
L 377.81928 77.625122 
" clip-path="url(#pb1819a95dd)" style="fill: none; stroke: #b0b0b0; stroke-width: 0.1; stroke-linecap: round"/>
     </g>
     <g id="line2d_32"/>
     <g id="text_9">
      <!-- −5 -->
      <g style="fill: #262626" transform="translate(217.47589 80.664497) scale(0.08 -0.08)">
       <defs>
        <path id="DejaVuSerif-2212" d="M 678 2259 
L 4684 2259 
L 4684 1753 
L 678 1753 
L 678 2259 
z
" transform="scale(0.015625)"/>
       </defs>
       <use xlink:href="#DejaVuSerif-2212"/>
       <use xlink:href="#DejaVuSerif-35" x="83.789062"/>
      </g>
     </g>
    </g>
    <g id="ytick_6">
     <g id="line2d_33">
      <path d="M 232.76964 52.244293 
L 377.81928 52.244293 
" clip-path="url(#pb1819a95dd)" style="fill: none; stroke: #b0b0b0; stroke-width: 0.1; stroke-linecap: round"/>
     </g>
     <g id="line2d_34"/>
     <g id="text_10">
      <!-- 0 -->
      <g style="fill: #262626" transform="translate(224.17964 55.283668) scale(0.08 -0.08)">
       <use xlink:href="#DejaVuSerif-30"/>
      </g>
     </g>
    </g>
    <g id="ytick_7">
     <g id="line2d_35">
      <path d="M 232.76964 26.863465 
L 377.81928 26.863465 
" clip-path="url(#pb1819a95dd)" style="fill: none; stroke: #b0b0b0; stroke-width: 0.1; stroke-linecap: round"/>
     </g>
     <g id="line2d_36"/>
     <g id="text_11">
      <!-- 5 -->
      <g style="fill: #262626" transform="translate(224.17964 29.90284) scale(0.08 -0.08)">
       <use xlink:href="#DejaVuSerif-35"/>
      </g>
     </g>
    </g>
    <g id="text_12">
     <!-- $beta$ [deg] -->
     <g style="fill: #262626" transform="translate(211.86589 68.805776) rotate(-90) scale(0.07 -0.07)">
      <defs>
       <path id="DejaVuSans-Oblique-62" d="M 3169 2138 
Q 3169 2591 2961 2847 
Q 2753 3103 2388 3103 
Q 2122 3103 1889 2973 
Q 1656 2844 1484 2597 
Q 1303 2338 1198 1995 
Q 1094 1653 1094 1313 
Q 1094 881 1298 636 
Q 1503 391 1863 391 
Q 2134 391 2365 517 
Q 2597 644 2772 891 
Q 2950 1147 3059 1487 
Q 3169 1828 3169 2138 
z
M 1381 2969 
Q 1594 3256 1914 3420 
Q 2234 3584 2584 3584 
Q 3122 3584 3439 3221 
Q 3756 2859 3756 2241 
Q 3756 1734 3570 1259 
Q 3384 784 3041 416 
Q 2816 172 2522 40 
Q 2228 -91 1906 -91 
Q 1566 -91 1316 65 
Q 1066 222 909 531 
L 806 0 
L 231 0 
L 1178 4863 
L 1753 4863 
L 1381 2969 
z
" transform="scale(0.015625)"/>
       <path id="DejaVuSans-Oblique-65" d="M 3078 2063 
Q 3088 2113 3092 2166 
Q 3097 2219 3097 2272 
Q 3097 2653 2873 2875 
Q 2650 3097 2266 3097 
Q 1838 3097 1509 2826 
Q 1181 2556 1013 2059 
L 3078 2063 
z
M 3578 1613 
L 903 1613 
Q 884 1494 878 1425 
Q 872 1356 872 1306 
Q 872 872 1139 634 
Q 1406 397 1894 397 
Q 2269 397 2603 481 
Q 2938 566 3225 728 
L 3116 159 
Q 2806 34 2476 -28 
Q 2147 -91 1806 -91 
Q 1078 -91 686 257 
Q 294 606 294 1247 
Q 294 1794 489 2264 
Q 684 2734 1063 3103 
Q 1306 3334 1642 3459 
Q 1978 3584 2356 3584 
Q 2950 3584 3301 3228 
Q 3653 2872 3653 2272 
Q 3653 2128 3634 1964 
Q 3616 1800 3578 1613 
z
" transform="scale(0.015625)"/>
       <path id="DejaVuSans-Oblique-74" d="M 2706 3500 
L 2619 3053 
L 1472 3053 
L 1100 1153 
Q 1081 1047 1072 975 
Q 1063 903 1063 863 
Q 1063 663 1183 572 
Q 1303 481 1569 481 
L 2150 481 
L 2053 0 
L 1503 0 
Q 991 0 739 200 
Q 488 400 488 806 
Q 488 878 497 964 
Q 506 1050 525 1153 
L 897 3053 
L 409 3053 
L 500 3500 
L 978 3500 
L 1172 4494 
L 1747 4494 
L 1556 3500 
L 2706 3500 
z
" transform="scale(0.015625)"/>
       <path id="DejaVuSans-Oblique-61" d="M 3438 1997 
L 3047 0 
L 2472 0 
L 2578 531 
Q 2325 219 2001 64 
Q 1678 -91 1281 -91 
Q 834 -91 548 182 
Q 263 456 263 884 
Q 263 1497 752 1853 
Q 1241 2209 2100 2209 
L 2900 2209 
L 2931 2363 
Q 2938 2388 2941 2417 
Q 2944 2447 2944 2509 
Q 2944 2788 2717 2942 
Q 2491 3097 2081 3097 
Q 1800 3097 1504 3025 
Q 1209 2953 897 2809 
L 997 3341 
Q 1322 3463 1633 3523 
Q 1944 3584 2234 3584 
Q 2853 3584 3176 3315 
Q 3500 3047 3500 2534 
Q 3500 2431 3484 2292 
Q 3469 2153 3438 1997 
z
M 2816 1759 
L 2241 1759 
Q 1534 1759 1195 1570 
Q 856 1381 856 984 
Q 856 709 1029 553 
Q 1203 397 1509 397 
Q 1978 397 2328 733 
Q 2678 1069 2791 1631 
L 2816 1759 
z
" transform="scale(0.015625)"/>
       <path id="DejaVuSerif-5b" d="M 550 4863 
L 2003 4863 
L 2003 4531 
L 1147 4531 
L 1147 -513 
L 2003 -513 
L 2003 -844 
L 550 -844 
L 550 4863 
z
" transform="scale(0.015625)"/>
       <path id="DejaVuSerif-67" d="M 3359 2988 
L 3359 72 
Q 3359 -644 2965 -1033 
Q 2572 -1422 1844 -1422 
Q 1516 -1422 1216 -1362 
Q 916 -1303 641 -1184 
L 641 -488 
L 941 -488 
Q 997 -813 1206 -963 
Q 1416 -1113 1806 -1113 
Q 2313 -1113 2548 -827 
Q 2784 -541 2784 72 
L 2784 519 
Q 2616 206 2355 57 
Q 2094 -91 1709 -91 
Q 1097 -91 708 395 
Q 319 881 319 1663 
Q 319 2444 706 2928 
Q 1094 3413 1709 3413 
Q 2094 3413 2355 3264 
Q 2616 3116 2784 2803 
L 2784 3322 
L 3909 3322 
L 3909 2988 
L 3359 2988 
z
M 2784 1825 
Q 2784 2422 2554 2737 
Q 2325 3053 1888 3053 
Q 1444 3053 1217 2703 
Q 991 2353 991 1663 
Q 991 975 1217 622 
Q 1444 269 1888 269 
Q 2325 269 2554 583 
Q 2784 897 2784 1497 
L 2784 1825 
z
" transform="scale(0.015625)"/>
       <path id="DejaVuSerif-5d" d="M 1947 4863 
L 1947 -844 
L 494 -844 
L 494 -513 
L 1350 -513 
L 1350 4531 
L 494 4531 
L 494 4863 
L 1947 4863 
z
" transform="scale(0.015625)"/>
      </defs>
      <use xlink:href="#DejaVuSans-Oblique-62" transform="translate(0 0.015625)"/>
      <use xlink:href="#DejaVuSans-Oblique-65" transform="translate(63.476562 0.015625)"/>
      <use xlink:href="#DejaVuSans-Oblique-74" transform="translate(125 0.015625)"/>
      <use xlink:href="#DejaVuSans-Oblique-61" transform="translate(164.208984 0.015625)"/>
      <use xlink:href="#DejaVuSerif-20" transform="translate(225.488281 0.015625)"/>
      <use xlink:href="#DejaVuSerif-5b" transform="translate(257.275391 0.015625)"/>
      <use xlink:href="#DejaVuSerif-64" transform="translate(296.289062 0.015625)"/>
      <use xlink:href="#DejaVuSerif-65" transform="translate(360.302734 0.015625)"/>
      <use xlink:href="#DejaVuSerif-67" transform="translate(419.482422 0.015625)"/>
      <use xlink:href="#DejaVuSerif-5d" transform="translate(483.496094 0.015625)"/>
     </g>
    </g>
   </g>
   <g id="line2d_37">
    <path d="M 239.362805 52.133003 
L 239.98561 52.08977 
L 240.586995 51.830674 
L 244.817727 49.203921 
L 246.084828 48.009545 
L 247.631105 46.255201 
L 250.444509 42.672169 
L 257.789319 33.228808 
L 258.433592 32.935767 
L 259.013449 32.916753 
L 260.151734 32.927453 
L 263.158332 32.749068 
L 264.146231 32.964309 
L 265.241506 33.447114 
L 266.444183 34.218355 
L 267.883069 35.400384 
L 270.417313 37.829579 
L 277.482908 44.712791 
L 279.093601 46.26517 
L 281.627766 49.060082 
L 285.51498 53.577001 
L 288.951124 57.929664 
L 304.156205 77.421142 
L 307.356215 81.546969 
L 310.491679 85.203369 
L 311.544004 86.224193 
L 312.145331 86.460331 
L 312.660774 86.437853 
L 313.240603 86.17326 
L 314.314406 85.755871 
L 315.409685 85.5632 
L 317.063371 85.238439 
L 318.115672 84.851483 
L 319.125088 84.255556 
L 320.54247 83.131448 
L 322.131708 81.482225 
L 324.021609 79.333082 
L 326.577255 76.48159 
L 328.681954 74.352043 
L 340.536726 62.846805 
L 343.586339 59.671793 
L 346.227924 57.054444 
L 348.311078 54.646851 
L 354.217015 47.427669 
L 359.779345 40.295472 
L 361.647738 37.914707 
L 367.05971 30.689898 
L 370.066379 26.852184 
L 371.226115 25.528549 
L 371.226115 25.528549 
" clip-path="url(#pb1819a95dd)" style="fill: none; stroke: #000000; stroke-width: 0.4; stroke-linecap: round"/>
   </g>
   <g id="line2d_38">
    <path d="M 239.362805 52.244293 
L 239.899708 52.105561 
L 240.458087 51.718861 
L 241.961414 50.187736 
L 244.001644 47.814033 
L 246.836489 44.169257 
L 252.592085 36.286071 
L 256.114166 31.662322 
L 256.736973 31.136493 
L 257.295352 30.941415 
L 257.832254 30.983917 
L 258.498014 31.28232 
L 260.430863 32.430447 
L 262.599949 34.011124 
L 264.876416 35.940886 
L 268.140784 39.040301 
L 271.534008 42.568886 
L 276.172847 47.762904 
L 281.176779 53.710418 
L 287.34042 61.389621 
L 300.870366 78.408709 
L 304.65016 82.684899 
L 307.377625 85.465011 
L 308.601763 86.495116 
L 309.095713 86.590394 
L 309.568187 86.443816 
L 310.126566 86.014343 
L 310.98561 85.015913 
L 314.743928 80.244874 
L 318.974721 74.526266 
L 324.257842 66.98105 
L 329.476535 59.234994 
L 345.948707 34.385734 
L 349.535216 29.453927 
L 352.43449 25.826284 
L 355.333764 22.552896 
L 357.88942 20.024587 
L 360.380648 17.846013 
L 362.163165 16.477811 
L 362.163165 16.477811 
" clip-path="url(#pb1819a95dd)" style="fill: none; stroke-dasharray: 1.48,0.64; stroke-dashoffset: 0; stroke: #0000ff; stroke-width: 0.4"/>
   </g>
   <g id="line2d_39">
    <path d="M 239.362805 52.244293 
L 239.899708 52.077757 
L 240.458087 51.65729 
L 241.939938 49.997347 
L 243.722454 47.674257 
L 246.084826 44.215509 
L 249.306241 39.093676 
L 255.255122 29.614592 
L 255.856453 29.102557 
L 256.371879 28.934067 
L 256.86583 29.009994 
L 257.574541 29.397718 
L 259.78658 30.902266 
L 262.170427 32.828449 
L 264.85494 35.294833 
L 268.570306 39.032119 
L 273.767523 44.638927 
L 280.51102 52.286977 
L 287.361897 60.431773 
L 297.820759 72.850299 
L 302.11598 77.542628 
L 305.552156 80.969722 
L 308.515858 83.625294 
L 311.243323 85.781086 
L 311.801702 86.006419 
L 312.317129 85.981671 
L 312.832555 85.726634 
L 313.41241 85.173555 
L 315.688877 82.491357 
L 319.232434 78.054913 
L 323.076656 72.895809 
L 327.307449 66.895908 
L 332.440237 59.22249 
L 337.16498 51.798684 
L 342.942052 42.17151 
L 349.878833 30.65656 
L 352.92844 26.029338 
L 355.634429 22.297327 
L 358.190085 19.154975 
L 360.445076 16.715773 
L 362.871876 14.427774 
L 362.893352 14.409161 
L 362.893352 14.409161 
" clip-path="url(#pb1819a95dd)" style="fill: none; stroke-dasharray: 1.48,0.64; stroke-dashoffset: 0; stroke: #ff0000; stroke-width: 0.4"/>
   </g>
   <g id="patch_6">
    <path d="M 232.76964 90.201552 
L 232.76964 10.8 
" style="fill: none; stroke: #000000; stroke-linejoin: miter; stroke-linecap: square"/>
   </g>
   <g id="patch_7">
    <path d="M 232.76964 90.201552 
L 377.81928 90.201552 
" style="fill: none; stroke: #000000; stroke-linejoin: miter; stroke-linecap: square"/>
   </g>
  </g>
  <g id="axes_3">
   <g id="patch_8">
    <path d="M 43.86 185.443104 
L 188.90964 185.443104 
L 188.90964 106.041552 
L 43.86 106.041552 
z
" style="fill: #ffffff"/>
   </g>
   <g id="matplotlib.axis_5">
    <g id="xtick_9">
     <g id="line2d_40">
      <path d="M 50.453165 185.443104 
L 50.453165 106.041552 
" clip-path="url(#p80be16b448)" style="fill: none; stroke: #b0b0b0; stroke-width: 0.1; stroke-linecap: round"/>
     </g>
     <g id="line2d_41"/>
     <g id="text_13">
      <!-- 0 -->
      <g style="fill: #262626" transform="translate(47.908165 195.021854) scale(0.08 -0.08)">
       <use xlink:href="#DejaVuSerif-30"/>
      </g>
     </g>
    </g>
    <g id="xtick_10">
     <g id="line2d_42">
      <path d="M 93.405372 185.443104 
L 93.405372 106.041552 
" clip-path="url(#p80be16b448)" style="fill: none; stroke: #b0b0b0; stroke-width: 0.1; stroke-linecap: round"/>
     </g>
     <g id="line2d_43"/>
     <g id="text_14">
      <!-- 20 -->
      <g style="fill: #262626" transform="translate(88.315372 195.021854) scale(0.08 -0.08)">
       <use xlink:href="#DejaVuSerif-32"/>
       <use xlink:href="#DejaVuSerif-30" x="63.623047"/>
      </g>
     </g>
    </g>
    <g id="xtick_11">
     <g id="line2d_44">
      <path d="M 136.357579 185.443104 
L 136.357579 106.041552 
" clip-path="url(#p80be16b448)" style="fill: none; stroke: #b0b0b0; stroke-width: 0.1; stroke-linecap: round"/>
     </g>
     <g id="line2d_45"/>
     <g id="text_15">
      <!-- 40 -->
      <g style="fill: #262626" transform="translate(131.267579 195.021854) scale(0.08 -0.08)">
       <defs>
        <path id="DejaVuSerif-34" d="M 2234 1581 
L 2234 4063 
L 641 1581 
L 2234 1581 
z
M 3609 0 
L 1484 0 
L 1484 331 
L 2234 331 
L 2234 1247 
L 197 1247 
L 197 1588 
L 2241 4750 
L 2859 4750 
L 2859 1581 
L 3750 1581 
L 3750 1247 
L 2859 1247 
L 2859 331 
L 3609 331 
L 3609 0 
z
" transform="scale(0.015625)"/>
       </defs>
       <use xlink:href="#DejaVuSerif-34"/>
       <use xlink:href="#DejaVuSerif-30" x="63.623047"/>
      </g>
     </g>
    </g>
    <g id="xtick_12">
     <g id="line2d_46">
      <path d="M 179.309786 185.443104 
L 179.309786 106.041552 
" clip-path="url(#p80be16b448)" style="fill: none; stroke: #b0b0b0; stroke-width: 0.1; stroke-linecap: round"/>
     </g>
     <g id="line2d_47"/>
     <g id="text_16">
      <!-- 60 -->
      <g style="fill: #262626" transform="translate(174.219786 195.021854) scale(0.08 -0.08)">
       <defs>
        <path id="DejaVuSerif-36" d="M 2094 219 
Q 2534 219 2771 542 
Q 3009 866 3009 1472 
Q 3009 2078 2771 2401 
Q 2534 2725 2094 2725 
Q 1647 2725 1412 2412 
Q 1178 2100 1178 1509 
Q 1178 888 1415 553 
Q 1653 219 2094 219 
z
M 1075 2569 
Q 1288 2803 1556 2918 
Q 1825 3034 2163 3034 
Q 2859 3034 3264 2615 
Q 3669 2197 3669 1472 
Q 3669 763 3233 336 
Q 2797 -91 2069 -91 
Q 1278 -91 853 498 
Q 428 1088 428 2181 
Q 428 3406 931 4078 
Q 1434 4750 2350 4750 
Q 2597 4750 2869 4703 
Q 3141 4656 3425 4563 
L 3425 3794 
L 3072 3794 
Q 3034 4109 2831 4275 
Q 2628 4441 2284 4441 
Q 1678 4441 1381 3981 
Q 1084 3522 1075 2569 
z
" transform="scale(0.015625)"/>
       </defs>
       <use xlink:href="#DejaVuSerif-36"/>
       <use xlink:href="#DejaVuSerif-30" x="63.623047"/>
      </g>
     </g>
    </g>
    <g id="text_17">
     <!-- Time [s] -->
     <g style="fill: #262626" transform="translate(101.900836 206.00451) scale(0.07 -0.07)">
      <defs>
       <path id="DejaVuSerif-54" d="M 1222 0 
L 1222 331 
L 1819 331 
L 1819 4294 
L 447 4294 
L 447 3566 
L 63 3566 
L 63 4666 
L 4206 4666 
L 4206 3566 
L 3822 3566 
L 3822 4294 
L 2450 4294 
L 2450 331 
L 3047 331 
L 3047 0 
L 1222 0 
z
" transform="scale(0.015625)"/>
      </defs>
      <use xlink:href="#DejaVuSerif-54"/>
      <use xlink:href="#DejaVuSerif-69" x="66.699219"/>
      <use xlink:href="#DejaVuSerif-6d" x="98.681641"/>
      <use xlink:href="#DejaVuSerif-65" x="193.505859"/>
      <use xlink:href="#DejaVuSerif-20" x="252.685547"/>
      <use xlink:href="#DejaVuSerif-5b" x="284.472656"/>
      <use xlink:href="#DejaVuSerif-73" x="323.486328"/>
      <use xlink:href="#DejaVuSerif-5d" x="374.804688"/>
     </g>
    </g>
   </g>
   <g id="matplotlib.axis_6">
    <g id="ytick_8">
     <g id="line2d_48">
      <path d="M 43.86 181.554365 
L 188.90964 181.554365 
" clip-path="url(#p80be16b448)" style="fill: none; stroke: #b0b0b0; stroke-width: 0.1; stroke-linecap: round"/>
     </g>
     <g id="line2d_49"/>
     <g id="text_18">
      <!-- −10 -->
      <g style="fill: #262626" transform="translate(23.47625 184.59374) scale(0.08 -0.08)">
       <defs>
        <path id="DejaVuSerif-31" d="M 909 0 
L 909 331 
L 1722 331 
L 1722 4213 
L 781 3603 
L 781 4013 
L 1919 4750 
L 2350 4750 
L 2350 331 
L 3163 331 
L 3163 0 
L 909 0 
z
" transform="scale(0.015625)"/>
       </defs>
       <use xlink:href="#DejaVuSerif-2212"/>
       <use xlink:href="#DejaVuSerif-31" x="83.789062"/>
       <use xlink:href="#DejaVuSerif-30" x="147.412109"/>
      </g>
     </g>
    </g>
    <g id="ytick_9">
     <g id="line2d_50">
      <path d="M 43.86 145.726907 
L 188.90964 145.726907 
" clip-path="url(#p80be16b448)" style="fill: none; stroke: #b0b0b0; stroke-width: 0.1; stroke-linecap: round"/>
     </g>
     <g id="line2d_51"/>
     <g id="text_19">
      <!-- 0 -->
      <g style="fill: #262626" transform="translate(35.27 148.766282) scale(0.08 -0.08)">
       <use xlink:href="#DejaVuSerif-30"/>
      </g>
     </g>
    </g>
    <g id="ytick_10">
     <g id="line2d_52">
      <path d="M 43.86 109.899449 
L 188.90964 109.899449 
" clip-path="url(#p80be16b448)" style="fill: none; stroke: #b0b0b0; stroke-width: 0.1; stroke-linecap: round"/>
     </g>
     <g id="line2d_53"/>
     <g id="text_20">
      <!-- 10 -->
      <g style="fill: #262626" transform="translate(30.18 112.938824) scale(0.08 -0.08)">
       <use xlink:href="#DejaVuSerif-31"/>
       <use xlink:href="#DejaVuSerif-30" x="63.623047"/>
      </g>
     </g>
    </g>
    <g id="text_21">
     <!-- $delta$ [deg] -->
     <g style="fill: #262626" transform="translate(17.86625 165.027328) rotate(-90) scale(0.07 -0.07)">
      <defs>
       <path id="DejaVuSans-Oblique-64" d="M 2675 525 
Q 2444 222 2128 65 
Q 1813 -91 1428 -91 
Q 903 -91 598 267 
Q 294 625 294 1247 
Q 294 1766 478 2236 
Q 663 2706 1013 3078 
Q 1244 3325 1534 3454 
Q 1825 3584 2144 3584 
Q 2481 3584 2739 3421 
Q 2997 3259 3138 2956 
L 3513 4863 
L 4091 4863 
L 3144 0 
L 2566 0 
L 2675 525 
z
M 891 1350 
Q 891 897 1095 644 
Q 1300 391 1663 391 
Q 1931 391 2161 520 
Q 2391 650 2566 903 
Q 2750 1166 2856 1509 
Q 2963 1853 2963 2188 
Q 2963 2622 2758 2865 
Q 2553 3109 2194 3109 
Q 1922 3109 1687 2981 
Q 1453 2853 1288 2613 
Q 1106 2353 998 2009 
Q 891 1666 891 1350 
z
" transform="scale(0.015625)"/>
       <path id="DejaVuSans-Oblique-6c" d="M 1172 4863 
L 1747 4863 
L 800 0 
L 225 0 
L 1172 4863 
z
" transform="scale(0.015625)"/>
      </defs>
      <use xlink:href="#DejaVuSans-Oblique-64" transform="translate(0 0.015625)"/>
      <use xlink:href="#DejaVuSans-Oblique-65" transform="translate(63.476562 0.015625)"/>
      <use xlink:href="#DejaVuSans-Oblique-6c" transform="translate(125 0.015625)"/>
      <use xlink:href="#DejaVuSans-Oblique-74" transform="translate(152.783203 0.015625)"/>
      <use xlink:href="#DejaVuSans-Oblique-61" transform="translate(191.992188 0.015625)"/>
      <use xlink:href="#DejaVuSerif-20" transform="translate(253.271484 0.015625)"/>
      <use xlink:href="#DejaVuSerif-5b" transform="translate(285.058594 0.015625)"/>
      <use xlink:href="#DejaVuSerif-64" transform="translate(324.072266 0.015625)"/>
      <use xlink:href="#DejaVuSerif-65" transform="translate(388.085938 0.015625)"/>
      <use xlink:href="#DejaVuSerif-67" transform="translate(447.265625 0.015625)"/>
      <use xlink:href="#DejaVuSerif-5d" transform="translate(511.279297 0.015625)"/>
     </g>
    </g>
   </g>
   <g id="line2d_54">
    <path d="M 50.453165 144.452541 
L 50.947144 160.465531 
L 51.634349 181.833943 
L 51.698779 181.737208 
L 51.849112 181.639073 
L 52.042395 181.577387 
L 67.7629 181.552152 
L 67.805857 180.258159 
L 68.3428 163.052115 
L 70.039402 109.650713 
L 70.189711 109.82876 
L 71.134666 109.905867 
L 71.585645 109.900259 
L 72.380261 109.901661 
L 72.93865 109.900259 
L 73.368174 109.898857 
L 75.043302 109.897455 
L 75.601687 109.898857 
L 76.396288 109.897455 
L 76.954681 109.900259 
L 78.586876 109.898857 
L 79.402964 109.900259 
L 81.035143 109.900259 
L 81.593524 109.901661 
L 121.882677 109.89325 
L 121.968583 112.513481 
L 122.61289 133.204754 
L 124.159154 181.740012 
L 124.266539 181.65169 
L 182.316475 181.552152 
L 182.316475 181.552152 
" clip-path="url(#p80be16b448)" style="fill: none; stroke: #000000; stroke-width: 0.4; stroke-linecap: round"/>
   </g>
   <g id="line2d_55">
    <path d="M 50.453165 145.726907 
L 51.677303 181.554365 
L 67.011241 181.554365 
L 69.352136 109.899449 
L 119.219648 109.899449 
L 121.560544 181.554365 
L 173.253525 181.554365 
L 173.253525 181.554365 
" clip-path="url(#p80be16b448)" style="fill: none; stroke-dasharray: 1.48,0.64; stroke-dashoffset: 0; stroke: #0000ff; stroke-width: 0.4"/>
   </g>
   <g id="line2d_56">
    <path d="M 50.453165 145.726907 
L 51.677303 181.554365 
L 65.873008 181.554365 
L 68.213903 109.899449 
L 122.183351 109.899449 
L 124.524246 181.554365 
L 173.983712 181.554365 
L 173.983712 181.554365 
" clip-path="url(#p80be16b448)" style="fill: none; stroke-dasharray: 1.48,0.64; stroke-dashoffset: 0; stroke: #ff0000; stroke-width: 0.4"/>
   </g>
   <g id="patch_9">
    <path d="M 43.86 185.443104 
L 43.86 106.041552 
" style="fill: none; stroke: #000000; stroke-linejoin: miter; stroke-linecap: square"/>
   </g>
   <g id="patch_10">
    <path d="M 43.86 185.443104 
L 188.90964 185.443104 
" style="fill: none; stroke: #000000; stroke-linejoin: miter; stroke-linecap: square"/>
   </g>
  </g>
  <g id="axes_4">
   <g id="patch_11">
    <path d="M 232.76964 185.443104 
L 377.81928 185.443104 
L 377.81928 106.041552 
L 232.76964 106.041552 
z
" style="fill: #ffffff"/>
   </g>
   <g id="matplotlib.axis_7">
    <g id="xtick_13">
     <g id="line2d_57">
      <path d="M 239.362805 185.443104 
L 239.362805 106.041552 
" clip-path="url(#p560a09d99c)" style="fill: none; stroke: #b0b0b0; stroke-width: 0.1; stroke-linecap: round"/>
     </g>
     <g id="line2d_58"/>
     <g id="text_22">
      <!-- 0 -->
      <g style="fill: #262626" transform="translate(236.817805 195.021854) scale(0.08 -0.08)">
       <use xlink:href="#DejaVuSerif-30"/>
      </g>
     </g>
    </g>
    <g id="xtick_14">
     <g id="line2d_59">
      <path d="M 282.315012 185.443104 
L 282.315012 106.041552 
" clip-path="url(#p560a09d99c)" style="fill: none; stroke: #b0b0b0; stroke-width: 0.1; stroke-linecap: round"/>
     </g>
     <g id="line2d_60"/>
     <g id="text_23">
      <!-- 20 -->
      <g style="fill: #262626" transform="translate(277.225012 195.021854) scale(0.08 -0.08)">
       <use xlink:href="#DejaVuSerif-32"/>
       <use xlink:href="#DejaVuSerif-30" x="63.623047"/>
      </g>
     </g>
    </g>
    <g id="xtick_15">
     <g id="line2d_61">
      <path d="M 325.267219 185.443104 
L 325.267219 106.041552 
" clip-path="url(#p560a09d99c)" style="fill: none; stroke: #b0b0b0; stroke-width: 0.1; stroke-linecap: round"/>
     </g>
     <g id="line2d_62"/>
     <g id="text_24">
      <!-- 40 -->
      <g style="fill: #262626" transform="translate(320.177219 195.021854) scale(0.08 -0.08)">
       <use xlink:href="#DejaVuSerif-34"/>
       <use xlink:href="#DejaVuSerif-30" x="63.623047"/>
      </g>
     </g>
    </g>
    <g id="xtick_16">
     <g id="line2d_63">
      <path d="M 368.219426 185.443104 
L 368.219426 106.041552 
" clip-path="url(#p560a09d99c)" style="fill: none; stroke: #b0b0b0; stroke-width: 0.1; stroke-linecap: round"/>
     </g>
     <g id="line2d_64"/>
     <g id="text_25">
      <!-- 60 -->
      <g style="fill: #262626" transform="translate(363.129426 195.021854) scale(0.08 -0.08)">
       <use xlink:href="#DejaVuSerif-36"/>
       <use xlink:href="#DejaVuSerif-30" x="63.623047"/>
      </g>
     </g>
    </g>
    <g id="text_26">
     <!-- Time [s] -->
     <g style="fill: #262626" transform="translate(290.810476 206.00451) scale(0.07 -0.07)">
      <use xlink:href="#DejaVuSerif-54"/>
      <use xlink:href="#DejaVuSerif-69" x="66.699219"/>
      <use xlink:href="#DejaVuSerif-6d" x="98.681641"/>
      <use xlink:href="#DejaVuSerif-65" x="193.505859"/>
      <use xlink:href="#DejaVuSerif-20" x="252.685547"/>
      <use xlink:href="#DejaVuSerif-5b" x="284.472656"/>
      <use xlink:href="#DejaVuSerif-73" x="323.486328"/>
      <use xlink:href="#DejaVuSerif-5d" x="374.804688"/>
     </g>
    </g>
   </g>
   <g id="matplotlib.axis_8">
    <g id="ytick_11">
     <g id="line2d_65">
      <path d="M 232.76964 170.586903 
L 377.81928 170.586903 
" clip-path="url(#p560a09d99c)" style="fill: none; stroke: #b0b0b0; stroke-width: 0.1; stroke-linecap: round"/>
     </g>
     <g id="line2d_66"/>
     <g id="text_27">
      <!-- −20 -->
      <g style="fill: #262626" transform="translate(212.38589 173.626278) scale(0.08 -0.08)">
       <use xlink:href="#DejaVuSerif-2212"/>
       <use xlink:href="#DejaVuSerif-32" x="83.789062"/>
       <use xlink:href="#DejaVuSerif-30" x="147.412109"/>
      </g>
     </g>
    </g>
    <g id="ytick_12">
     <g id="line2d_67">
      <path d="M 232.76964 139.417378 
L 377.81928 139.417378 
" clip-path="url(#p560a09d99c)" style="fill: none; stroke: #b0b0b0; stroke-width: 0.1; stroke-linecap: round"/>
     </g>
     <g id="line2d_68"/>
     <g id="text_28">
      <!-- 0 -->
      <g style="fill: #262626" transform="translate(224.17964 142.456753) scale(0.08 -0.08)">
       <use xlink:href="#DejaVuSerif-30"/>
      </g>
     </g>
    </g>
    <g id="ytick_13">
     <g id="line2d_69">
      <path d="M 232.76964 108.247852 
L 377.81928 108.247852 
" clip-path="url(#p560a09d99c)" style="fill: none; stroke: #b0b0b0; stroke-width: 0.1; stroke-linecap: round"/>
     </g>
     <g id="line2d_70"/>
     <g id="text_29">
      <!-- 20 -->
      <g style="fill: #262626" transform="translate(219.08964 111.287227) scale(0.08 -0.08)">
       <use xlink:href="#DejaVuSerif-32"/>
       <use xlink:href="#DejaVuSerif-30" x="63.623047"/>
      </g>
     </g>
    </g>
    <g id="text_30">
     <!-- $psi$ [deg] -->
     <g style="fill: #262626" transform="translate(206.77589 161.177328) rotate(-90) scale(0.07 -0.07)">
      <defs>
       <path id="DejaVuSans-Oblique-70" d="M 3175 2156 
Q 3175 2616 2975 2859 
Q 2775 3103 2400 3103 
Q 2144 3103 1911 2972 
Q 1678 2841 1497 2591 
Q 1319 2344 1212 1994 
Q 1106 1644 1106 1300 
Q 1106 863 1306 627 
Q 1506 391 1875 391 
Q 2147 391 2380 519 
Q 2613 647 2778 891 
Q 2956 1147 3065 1494 
Q 3175 1841 3175 2156 
z
M 1394 2969 
Q 1625 3272 1939 3428 
Q 2253 3584 2638 3584 
Q 3175 3584 3472 3232 
Q 3769 2881 3769 2247 
Q 3769 1728 3584 1258 
Q 3400 788 3053 416 
Q 2822 169 2531 39 
Q 2241 -91 1919 -91 
Q 1547 -91 1294 64 
Q 1041 219 916 525 
L 556 -1331 
L -19 -1331 
L 922 3500 
L 1497 3500 
L 1394 2969 
z
" transform="scale(0.015625)"/>
       <path id="DejaVuSans-Oblique-73" d="M 3200 3397 
L 3091 2853 
Q 2863 2978 2609 3040 
Q 2356 3103 2088 3103 
Q 1634 3103 1373 2948 
Q 1113 2794 1113 2528 
Q 1113 2219 1719 2053 
Q 1766 2041 1788 2034 
L 1972 1978 
Q 2547 1819 2739 1644 
Q 2931 1469 2931 1166 
Q 2931 609 2489 259 
Q 2047 -91 1331 -91 
Q 1053 -91 747 -37 
Q 441 16 72 128 
L 184 722 
Q 500 559 806 475 
Q 1113 391 1394 391 
Q 1816 391 2080 572 
Q 2344 753 2344 1031 
Q 2344 1331 1650 1516 
L 1591 1531 
L 1394 1581 
Q 956 1697 753 1886 
Q 550 2075 550 2369 
Q 550 2928 970 3256 
Q 1391 3584 2113 3584 
Q 2397 3584 2667 3537 
Q 2938 3491 3200 3397 
z
" transform="scale(0.015625)"/>
       <path id="DejaVuSans-Oblique-69" d="M 1172 4863 
L 1747 4863 
L 1606 4134 
L 1031 4134 
L 1172 4863 
z
M 909 3500 
L 1484 3500 
L 800 0 
L 225 0 
L 909 3500 
z
" transform="scale(0.015625)"/>
      </defs>
      <use xlink:href="#DejaVuSans-Oblique-70" transform="translate(0 0.015625)"/>
      <use xlink:href="#DejaVuSans-Oblique-73" transform="translate(63.476562 0.015625)"/>
      <use xlink:href="#DejaVuSans-Oblique-69" transform="translate(115.576172 0.015625)"/>
      <use xlink:href="#DejaVuSerif-20" transform="translate(143.359375 0.015625)"/>
      <use xlink:href="#DejaVuSerif-5b" transform="translate(175.146484 0.015625)"/>
      <use xlink:href="#DejaVuSerif-64" transform="translate(214.160156 0.015625)"/>
      <use xlink:href="#DejaVuSerif-65" transform="translate(278.173828 0.015625)"/>
      <use xlink:href="#DejaVuSerif-67" transform="translate(337.353516 0.015625)"/>
      <use xlink:href="#DejaVuSerif-5d" transform="translate(401.367188 0.015625)"/>
     </g>
    </g>
   </g>
   <g id="line2d_71">
    <path d="M 239.362805 139.642194 
L 240.909078 139.581822 
L 242.111747 139.283532 
L 243.443257 138.718561 
L 244.94659 137.831639 
L 246.600274 136.595062 
L 248.382777 134.97877 
L 250.251203 132.977459 
L 252.226983 130.525872 
L 254.224263 127.687217 
L 256.457797 124.104667 
L 259.378557 119.401126 
L 260.753 117.708441 
L 262.213429 116.262868 
L 263.759661 115.042805 
L 265.391888 114.036213 
L 267.066987 113.263963 
L 268.828034 112.699678 
L 270.782347 112.310251 
L 272.779672 112.137816 
L 274.905772 112.179449 
L 276.988943 112.441035 
L 279.007699 112.921403 
L 281.005 113.626442 
L 282.916339 114.538096 
L 284.999551 115.786749 
L 287.211568 117.370386 
L 289.466552 119.262515 
L 291.6786 121.411357 
L 293.89063 123.873361 
L 296.016764 126.573609 
L 298.164368 129.667609 
L 300.333474 133.187742 
L 302.566978 137.245139 
L 304.993773 142.13053 
L 307.936001 148.576044 
L 314.421787 163.040169 
L 316.118457 165.838986 
L 318.008324 168.525981 
L 320.005582 170.985459 
L 322.088754 173.201378 
L 324.193416 175.118605 
L 326.319542 176.758435 
L 328.467152 178.133119 
L 330.829566 179.378031 
L 333.148968 180.352366 
L 335.489844 181.097597 
L 337.723404 181.577631 
L 339.849504 181.809091 
L 341.846835 181.802842 
L 343.844059 181.574338 
L 345.798406 181.127846 
L 347.731232 180.458618 
L 349.664102 179.552315 
L 351.639876 178.377429 
L 353.658628 176.917175 
L 355.741823 175.131496 
L 357.889416 172.992362 
L 360.080013 170.492033 
L 362.313521 167.603234 
L 364.56849 164.312077 
L 366.93089 160.460107 
L 369.529477 155.781036 
L 371.226115 152.51977 
L 371.226115 152.51977 
" clip-path="url(#p560a09d99c)" style="fill: none; stroke: #000000; stroke-width: 0.4; stroke-linecap: round"/>
   </g>
   <g id="line2d_72">
    <path d="M 239.362805 139.417378 
L 240.973513 139.30842 
L 242.197651 138.975602 
L 243.52917 138.375424 
L 244.968068 137.476551 
L 246.535824 136.228361 
L 248.232436 134.587465 
L 250.079381 132.4815 
L 252.055183 129.881894 
L 254.202793 126.681953 
L 256.651069 122.619583 
L 258.540966 119.606585 
L 260.001341 117.720282 
L 261.54762 116.086174 
L 263.158328 114.704587 
L 264.833464 113.557997 
L 266.573028 112.637923 
L 268.334069 111.958278 
L 270.116585 111.507472 
L 271.899102 111.285333 
L 273.681619 111.285488 
L 275.485611 111.507539 
L 277.31108 111.956482 
L 279.158025 112.641441 
L 281.047922 113.583828 
L 282.959295 114.788228 
L 284.913621 116.285619 
L 286.953851 118.134733 
L 289.037033 120.329913 
L 291.184643 122.922925 
L 293.396682 125.947153 
L 295.694625 129.471305 
L 298.099948 133.575505 
L 300.634128 138.345757 
L 303.318641 143.88406 
L 306.174963 150.301968 
L 311.522513 162.513447 
L 312.91846 164.823016 
L 314.378835 166.815617 
L 315.882162 168.496994 
L 317.428441 169.897307 
L 319.039149 171.059128 
L 320.649857 171.948207 
L 322.282041 172.596796 
L 323.914224 173.008612 
L 325.567884 173.198585 
L 327.221544 173.163853 
L 328.89668 172.90455 
L 330.571816 172.419209 
L 332.289905 171.688616 
L 334.050945 170.696272 
L 335.854938 169.424603 
L 337.744835 167.81424 
L 339.69916 165.850691 
L 341.73939 163.480404 
L 343.865524 160.664871 
L 346.099039 157.330099 
L 348.439935 153.429231 
L 350.995591 148.728123 
L 353.80896 143.071068 
L 356.901519 136.333188 
L 360.402124 128.165067 
L 362.163165 123.873753 
L 362.163165 123.873753 
" clip-path="url(#p560a09d99c)" style="fill: none; stroke-dasharray: 1.48,0.64; stroke-dashoffset: 0; stroke: #0000ff; stroke-width: 0.4"/>
   </g>
   <g id="line2d_73">
    <path d="M 239.362805 139.417378 
L 240.909085 139.307706 
L 242.068794 138.979918 
L 243.314408 138.392217 
L 244.667403 137.498713 
L 246.127778 136.257692 
L 247.695534 134.626494 
L 249.392146 132.532202 
L 251.239091 129.887144 
L 253.236368 126.625648 
L 255.448407 122.571581 
L 257.424208 119.051164 
L 258.798679 117.07963 
L 260.28053 115.341169 
L 261.848286 113.845255 
L 263.48047 112.591055 
L 265.177082 111.563185 
L 266.959598 110.743164 
L 268.763591 110.157513 
L 270.610536 109.793072 
L 272.478957 109.652666 
L 274.368854 109.73424 
L 276.258751 110.038633 
L 278.213076 110.57914 
L 280.167402 111.354171 
L 282.143203 112.379883 
L 284.161957 113.682779 
L 286.223663 115.283952 
L 288.349797 117.220464 
L 290.54036 119.521175 
L 292.838303 122.265363 
L 295.22215 125.466016 
L 297.713378 129.189439 
L 300.354939 133.541511 
L 303.168309 138.613097 
L 306.217915 144.58186 
L 309.61114 151.729639 
L 314.099645 161.227264 
L 315.517068 163.501153 
L 316.998919 165.466761 
L 318.545199 167.151917 
L 320.13443 168.558978 
L 321.745138 169.695579 
L 323.398798 170.592213 
L 325.052458 171.240833 
L 326.706118 171.653786 
L 328.359778 171.838912 
L 330.013438 171.801217 
L 331.688574 171.53907 
L 333.385186 171.044831 
L 335.103274 170.308583 
L 336.821363 169.327283 
L 338.560927 168.073275 
L 340.343444 166.509959 
L 342.190388 164.587345 
L 344.101762 162.270832 
L 346.099039 159.494368 
L 348.225173 156.145647 
L 350.480164 152.166355 
L 352.92844 147.381553 
L 355.591477 141.674222 
L 358.576655 134.736071 
L 362.055784 126.053156 
L 362.893352 123.883758 
L 362.893352 123.883758 
" clip-path="url(#p560a09d99c)" style="fill: none; stroke-dasharray: 1.48,0.64; stroke-dashoffset: 0; stroke: #ff0000; stroke-width: 0.4"/>
   </g>
   <g id="patch_12">
    <path d="M 232.76964 185.443104 
L 232.76964 106.041552 
" style="fill: none; stroke: #000000; stroke-linejoin: miter; stroke-linecap: square"/>
   </g>
   <g id="patch_13">
    <path d="M 232.76964 185.443104 
L 377.81928 185.443104 
" style="fill: none; stroke: #000000; stroke-linejoin: miter; stroke-linecap: square"/>
   </g>
  </g>
  <g id="text_31">
   <!-- zigzag 10/10 stbd -->
   <g style="fill: #262626" transform="translate(158.457765 10.451212) scale(0.08 -0.08)">
    <defs>
     <path id="DejaVuSerif-7a" d="M 256 0 
L 256 269 
L 2338 2988 
L 691 2988 
L 691 2413 
L 359 2413 
L 359 3322 
L 3078 3322 
L 3078 3053 
L 997 331 
L 2803 331 
L 2803 934 
L 3138 934 
L 3138 0 
L 256 0 
z
" transform="scale(0.015625)"/>
     <path id="DejaVuSerif-2f" d="M 1656 4666 
L 2156 4666 
L 500 -594 
L 0 -594 
L 1656 4666 
z
" transform="scale(0.015625)"/>
     <path id="DejaVuSerif-62" d="M 738 331 
L 738 4531 
L 184 4531 
L 184 4863 
L 1313 4863 
L 1313 2803 
Q 1481 3116 1742 3264 
Q 2003 3413 2388 3413 
Q 3000 3413 3387 2928 
Q 3775 2444 3775 1663 
Q 3775 881 3387 395 
Q 3000 -91 2388 -91 
Q 2003 -91 1742 57 
Q 1481 206 1313 519 
L 1313 0 
L 184 0 
L 184 331 
L 738 331 
z
M 1313 1497 
Q 1313 897 1542 583 
Q 1772 269 2209 269 
Q 2650 269 2876 622 
Q 3103 975 3103 1663 
Q 3103 2353 2876 2703 
Q 2650 3053 2209 3053 
Q 1772 3053 1542 2737 
Q 1313 2422 1313 1825 
L 1313 1497 
z
" transform="scale(0.015625)"/>
    </defs>
    <use xlink:href="#DejaVuSerif-7a"/>
    <use xlink:href="#DejaVuSerif-69" x="52.685547"/>
    <use xlink:href="#DejaVuSerif-67" x="84.667969"/>
    <use xlink:href="#DejaVuSerif-7a" x="148.681641"/>
    <use xlink:href="#DejaVuSerif-61" x="201.367188"/>
    <use xlink:href="#DejaVuSerif-67" x="260.986328"/>
    <use xlink:href="#DejaVuSerif-20" x="325"/>
    <use xlink:href="#DejaVuSerif-31" x="356.787109"/>
    <use xlink:href="#DejaVuSerif-30" x="420.410156"/>
    <use xlink:href="#DejaVuSerif-2f" x="484.033203"/>
    <use xlink:href="#DejaVuSerif-31" x="517.724609"/>
    <use xlink:href="#DejaVuSerif-30" x="581.347656"/>
    <use xlink:href="#DejaVuSerif-20" x="644.970703"/>
    <use xlink:href="#DejaVuSerif-73" x="676.757812"/>
    <use xlink:href="#DejaVuSerif-74" x="728.076172"/>
    <use xlink:href="#DejaVuSerif-62" x="768.261719"/>
    <use xlink:href="#DejaVuSerif-64" x="832.275391"/>
   </g>
  </g>
 </g>
 <defs>
  <clipPath id="pb6fb123367">
   <rect x="43.86" y="10.8" width="145.04964" height="79.401552"/>
  </clipPath>
  <clipPath id="pb1819a95dd">
   <rect x="232.76964" y="10.8" width="145.04964" height="79.401552"/>
  </clipPath>
  <clipPath id="p80be16b448">
   <rect x="43.86" y="106.041552" width="145.04964" height="79.401552"/>
  </clipPath>
  <clipPath id="p560a09d99c">
   <rect x="232.76964" y="106.041552" width="145.04964" height="79.401552"/>
  </clipPath>
 </defs>
</svg>
