<?xml version="1.0" encoding="utf-8" standalone="no"?>
<!DOCTYPE svg PUBLIC "-//W3C//DTD SVG 1.1//EN"
  "http://www.w3.org/Graphics/SVG/1.1/DTD/svg11.dtd">
<svg xmlns:xlink="http://www.w3.org/1999/xlink" width="388.61928pt" height="218.623104pt" viewBox="0 0 388.61928 218.623104" xmlns="http://www.w3.org/2000/svg" version="1.1">
 <metadata>
  <rdf:RDF xmlns:dc="http://purl.org/dc/elements/1.1/" xmlns:cc="http://creativecommons.org/ns#" xmlns:rdf="http://www.w3.org/1999/02/22-rdf-syntax-ns#">
   <cc:Work>
    <dc:type rdf:resource="http://purl.org/dc/dcmitype/StillImage"/>
    <dc:date>2024-11-11T10:12:45.133895</dc:date>
    <dc:format>image/svg+xml</dc:format>
    <dc:creator>
     <cc:Agent>
      <dc:title>Matplotlib v3.8.2, https://matplotlib.org/</dc:title>
     </cc:Agent>
    </dc:creator>
   </cc:Work>
  </rdf:RDF>
 </metadata>
 <defs>
  <style type="text/css">*{stroke-linejoin: round; stroke-linecap: butt}</style>
 </defs>
 <g id="figure_1">
  <g id="patch_1">
   <path d="M 0 218.623104 
L 388.61928 218.623104 
L 388.61928 0 
L 0 0 
z
" style="fill: #ffffff"/>
  </g>
  <g id="axes_1">
   <g id="patch_2">
    <path d="M 27.454928 193.590364 
L 385.61904 193.590364 
L 385.61904 28.82197 
L 27.454928 28.82197 
z
" style="fill: #ffffff"/>
   </g>
   <g id="matplotlib.axis_1">
    <g id="xtick_1">
     <g id="line2d_1">
      <path d="M 50.248028 193.590364 
L 50.248028 28.82197 
" clip-path="url(#p590ee0ffef)" style="fill: none; stroke: #b0b0b0; stroke-width: 0.1; stroke-linecap: round"/>
     </g>
     <g id="line2d_2"/>
     <g id="text_1">
      <!-- −60 -->
      <g style="fill: #262626" transform="translate(41.806153 203.169114) scale(0.08 -0.08)">
       <defs>
        <path id="DejaVuSerif-2212" d="M 678 2259 
L 4684 2259 
L 4684 1753 
L 678 1753 
L 678 2259 
z
" transform="scale(0.015625)"/>
        <path id="DejaVuSerif-36" d="M 2094 219 
Q 2534 219 2771 542 
Q 3009 866 3009 1472 
Q 3009 2078 2771 2401 
Q 2534 2725 2094 2725 
Q 1647 2725 1412 2412 
Q 1178 2100 1178 1509 
Q 1178 888 1415 553 
Q 1653 219 2094 219 
z
M 1075 2569 
Q 1288 2803 1556 2918 
Q 1825 3034 2163 3034 
Q 2859 3034 3264 2615 
Q 3669 2197 3669 1472 
Q 3669 763 3233 336 
Q 2797 -91 2069 -91 
Q 1278 -91 853 498 
Q 428 1088 428 2181 
Q 428 3406 931 4078 
Q 1434 4750 2350 4750 
Q 2597 4750 2869 4703 
Q 3141 4656 3425 4563 
L 3425 3794 
L 3072 3794 
Q 3034 4109 2831 4275 
Q 2628 4441 2284 4441 
Q 1678 4441 1381 3981 
Q 1084 3522 1075 2569 
z
" transform="scale(0.015625)"/>
        <path id="DejaVuSerif-30" d="M 2034 219 
Q 2513 219 2750 744 
Q 2988 1269 2988 2328 
Q 2988 3391 2750 3916 
Q 2513 4441 2034 4441 
Q 1556 4441 1318 3916 
Q 1081 3391 1081 2328 
Q 1081 1269 1318 744 
Q 1556 219 2034 219 
z
M 2034 -91 
Q 1275 -91 848 546 
Q 422 1184 422 2328 
Q 422 3475 848 4112 
Q 1275 4750 2034 4750 
Q 2797 4750 3222 4112 
Q 3647 3475 3647 2328 
Q 3647 1184 3222 546 
Q 2797 -91 2034 -91 
z
" transform="scale(0.015625)"/>
       </defs>
       <use xlink:href="#DejaVuSerif-2212"/>
       <use xlink:href="#DejaVuSerif-36" x="83.789062"/>
       <use xlink:href="#DejaVuSerif-30" x="147.412109"/>
      </g>
     </g>
    </g>
    <g id="xtick_2">
     <g id="line2d_3">
      <path d="M 102.337066 193.590364 
L 102.337066 28.82197 
" clip-path="url(#p590ee0ffef)" style="fill: none; stroke: #b0b0b0; stroke-width: 0.1; stroke-linecap: round"/>
     </g>
     <g id="line2d_4"/>
     <g id="text_2">
      <!-- −40 -->
      <g style="fill: #262626" transform="translate(93.895191 203.169114) scale(0.08 -0.08)">
       <defs>
        <path id="DejaVuSerif-34" d="M 2234 1581 
L 2234 4063 
L 641 1581 
L 2234 1581 
z
M 3609 0 
L 1484 0 
L 1484 331 
L 2234 331 
L 2234 1247 
L 197 1247 
L 197 1588 
L 2241 4750 
L 2859 4750 
L 2859 1581 
L 3750 1581 
L 3750 1247 
L 2859 1247 
L 2859 331 
L 3609 331 
L 3609 0 
z
" transform="scale(0.015625)"/>
       </defs>
       <use xlink:href="#DejaVuSerif-2212"/>
       <use xlink:href="#DejaVuSerif-34" x="83.789062"/>
       <use xlink:href="#DejaVuSerif-30" x="147.412109"/>
      </g>
     </g>
    </g>
    <g id="xtick_3">
     <g id="line2d_5">
      <path d="M 154.426103 193.590364 
L 154.426103 28.82197 
" clip-path="url(#p590ee0ffef)" style="fill: none; stroke: #b0b0b0; stroke-width: 0.1; stroke-linecap: round"/>
     </g>
     <g id="line2d_6"/>
     <g id="text_3">
      <!-- −20 -->
      <g style="fill: #262626" transform="translate(145.984228 203.169114) scale(0.08 -0.08)">
       <defs>
        <path id="DejaVuSerif-32" d="M 819 3553 
L 469 3553 
L 469 4384 
Q 803 4563 1142 4656 
Q 1481 4750 1806 4750 
Q 2534 4750 2956 4397 
Q 3378 4044 3378 3438 
Q 3378 2753 2422 1800 
Q 2347 1728 2309 1691 
L 1131 513 
L 3078 513 
L 3078 1088 
L 3444 1088 
L 3444 0 
L 434 0 
L 434 341 
L 1850 1753 
Q 2319 2222 2519 2614 
Q 2719 3006 2719 3438 
Q 2719 3909 2473 4175 
Q 2228 4441 1797 4441 
Q 1350 4441 1106 4219 
Q 863 3997 819 3553 
z
" transform="scale(0.015625)"/>
       </defs>
       <use xlink:href="#DejaVuSerif-2212"/>
       <use xlink:href="#DejaVuSerif-32" x="83.789062"/>
       <use xlink:href="#DejaVuSerif-30" x="147.412109"/>
      </g>
     </g>
    </g>
    <g id="xtick_4">
     <g id="line2d_7">
      <path d="M 206.515141 193.590364 
L 206.515141 28.82197 
" clip-path="url(#p590ee0ffef)" style="fill: none; stroke: #b0b0b0; stroke-width: 0.1; stroke-linecap: round"/>
     </g>
     <g id="line2d_8"/>
     <g id="text_4">
      <!-- 0 -->
      <g style="fill: #262626" transform="translate(203.970141 203.169114) scale(0.08 -0.08)">
       <use xlink:href="#DejaVuSerif-30"/>
      </g>
     </g>
    </g>
    <g id="xtick_5">
     <g id="line2d_9">
      <path d="M 258.604179 193.590364 
L 258.604179 28.82197 
" clip-path="url(#p590ee0ffef)" style="fill: none; stroke: #b0b0b0; stroke-width: 0.1; stroke-linecap: round"/>
     </g>
     <g id="line2d_10"/>
     <g id="text_5">
      <!-- 20 -->
      <g style="fill: #262626" transform="translate(253.514179 203.169114) scale(0.08 -0.08)">
       <use xlink:href="#DejaVuSerif-32"/>
       <use xlink:href="#DejaVuSerif-30" x="63.623047"/>
      </g>
     </g>
    </g>
    <g id="xtick_6">
     <g id="line2d_11">
      <path d="M 310.693217 193.590364 
L 310.693217 28.82197 
" clip-path="url(#p590ee0ffef)" style="fill: none; stroke: #b0b0b0; stroke-width: 0.1; stroke-linecap: round"/>
     </g>
     <g id="line2d_12"/>
     <g id="text_6">
      <!-- 40 -->
      <g style="fill: #262626" transform="translate(305.603217 203.169114) scale(0.08 -0.08)">
       <use xlink:href="#DejaVuSerif-34"/>
       <use xlink:href="#DejaVuSerif-30" x="63.623047"/>
      </g>
     </g>
    </g>
    <g id="xtick_7">
     <g id="line2d_13">
      <path d="M 362.782255 193.590364 
L 362.782255 28.82197 
" clip-path="url(#p590ee0ffef)" style="fill: none; stroke: #b0b0b0; stroke-width: 0.1; stroke-linecap: round"/>
     </g>
     <g id="line2d_14"/>
     <g id="text_7">
      <!-- 60 -->
      <g style="fill: #262626" transform="translate(357.692255 203.169114) scale(0.08 -0.08)">
       <use xlink:href="#DejaVuSerif-36"/>
       <use xlink:href="#DejaVuSerif-30" x="63.623047"/>
      </g>
     </g>
    </g>
    <g id="text_8">
     <!-- $y_0$ $[m]$ -->
     <g style="fill: #262626" transform="translate(195.546984 214.152864) scale(0.07 -0.07)">
      <defs>
       <path id="DejaVuSans-Oblique-79" d="M 1588 -325 
Q 1188 -997 936 -1164 
Q 684 -1331 294 -1331 
L -159 -1331 
L -63 -850 
L 269 -850 
Q 509 -850 678 -719 
Q 847 -588 1056 -206 
L 1234 128 
L 459 3500 
L 1069 3500 
L 1650 819 
L 3256 3500 
L 3859 3500 
L 1588 -325 
z
" transform="scale(0.015625)"/>
       <path id="DejaVuSans-30" d="M 2034 4250 
Q 1547 4250 1301 3770 
Q 1056 3291 1056 2328 
Q 1056 1369 1301 889 
Q 1547 409 2034 409 
Q 2525 409 2770 889 
Q 3016 1369 3016 2328 
Q 3016 3291 2770 3770 
Q 2525 4250 2034 4250 
z
M 2034 4750 
Q 2819 4750 3233 4129 
Q 3647 3509 3647 2328 
Q 3647 1150 3233 529 
Q 2819 -91 2034 -91 
Q 1250 -91 836 529 
Q 422 1150 422 2328 
Q 422 3509 836 4129 
Q 1250 4750 2034 4750 
z
" transform="scale(0.015625)"/>
       <path id="DejaVuSerif-20" transform="scale(0.015625)"/>
       <path id="DejaVuSans-5b" d="M 550 4863 
L 1875 4863 
L 1875 4416 
L 1125 4416 
L 1125 -397 
L 1875 -397 
L 1875 -844 
L 550 -844 
L 550 4863 
z
" transform="scale(0.015625)"/>
       <path id="DejaVuSans-Oblique-6d" d="M 5747 2113 
L 5338 0 
L 4763 0 
L 5166 2094 
Q 5191 2228 5203 2325 
Q 5216 2422 5216 2491 
Q 5216 2772 5059 2928 
Q 4903 3084 4622 3084 
Q 4203 3084 3875 2770 
Q 3547 2456 3450 1953 
L 3066 0 
L 2491 0 
L 2900 2094 
Q 2925 2209 2937 2307 
Q 2950 2406 2950 2484 
Q 2950 2769 2794 2926 
Q 2638 3084 2363 3084 
Q 1938 3084 1609 2770 
Q 1281 2456 1184 1953 
L 800 0 
L 225 0 
L 909 3500 
L 1484 3500 
L 1375 2956 
Q 1609 3263 1923 3423 
Q 2238 3584 2597 3584 
Q 2978 3584 3223 3384 
Q 3469 3184 3519 2828 
Q 3781 3197 4126 3390 
Q 4472 3584 4856 3584 
Q 5306 3584 5551 3325 
Q 5797 3066 5797 2591 
Q 5797 2488 5784 2364 
Q 5772 2241 5747 2113 
z
" transform="scale(0.015625)"/>
       <path id="DejaVuSans-5d" d="M 1947 4863 
L 1947 -844 
L 622 -844 
L 622 -397 
L 1369 -397 
L 1369 4416 
L 622 4416 
L 622 4863 
L 1947 4863 
z
" transform="scale(0.015625)"/>
      </defs>
      <use xlink:href="#DejaVuSans-Oblique-79" transform="translate(0 0.015625)"/>
      <use xlink:href="#DejaVuSans-30" transform="translate(59.179688 -16.390625) scale(0.7)"/>
      <use xlink:href="#DejaVuSerif-20" transform="translate(106.450195 0.015625)"/>
      <use xlink:href="#DejaVuSans-5b" transform="translate(138.237305 0.015625)"/>
      <use xlink:href="#DejaVuSans-Oblique-6d" transform="translate(177.250977 0.015625)"/>
      <use xlink:href="#DejaVuSans-5d" transform="translate(274.663086 0.015625)"/>
     </g>
    </g>
   </g>
   <g id="matplotlib.axis_2">
    <g id="ytick_1">
     <g id="line2d_15">
      <path d="M 27.454928 179.87223 
L 385.61904 179.87223 
" clip-path="url(#p590ee0ffef)" style="fill: none; stroke: #b0b0b0; stroke-width: 0.1; stroke-linecap: round"/>
     </g>
     <g id="line2d_16"/>
     <g id="text_9">
      <!-- 0 -->
      <g style="fill: #262626" transform="translate(18.864928 182.911605) scale(0.08 -0.08)">
       <use xlink:href="#DejaVuSerif-30"/>
      </g>
     </g>
    </g>
    <g id="ytick_2">
     <g id="line2d_17">
      <path d="M 27.454928 153.827711 
L 385.61904 153.827711 
" clip-path="url(#p590ee0ffef)" style="fill: none; stroke: #b0b0b0; stroke-width: 0.1; stroke-linecap: round"/>
     </g>
     <g id="line2d_18"/>
     <g id="text_10">
      <!-- 10 -->
      <g style="fill: #262626" transform="translate(13.774928 156.867086) scale(0.08 -0.08)">
       <defs>
        <path id="DejaVuSerif-31" d="M 909 0 
L 909 331 
L 1722 331 
L 1722 4213 
L 781 3603 
L 781 4013 
L 1919 4750 
L 2350 4750 
L 2350 331 
L 3163 331 
L 3163 0 
L 909 0 
z
" transform="scale(0.015625)"/>
       </defs>
       <use xlink:href="#DejaVuSerif-31"/>
       <use xlink:href="#DejaVuSerif-30" x="63.623047"/>
      </g>
     </g>
    </g>
    <g id="ytick_3">
     <g id="line2d_19">
      <path d="M 27.454928 127.783192 
L 385.61904 127.783192 
" clip-path="url(#p590ee0ffef)" style="fill: none; stroke: #b0b0b0; stroke-width: 0.1; stroke-linecap: round"/>
     </g>
     <g id="line2d_20"/>
     <g id="text_11">
      <!-- 20 -->
      <g style="fill: #262626" transform="translate(13.774928 130.822567) scale(0.08 -0.08)">
       <use xlink:href="#DejaVuSerif-32"/>
       <use xlink:href="#DejaVuSerif-30" x="63.623047"/>
      </g>
     </g>
    </g>
    <g id="ytick_4">
     <g id="line2d_21">
      <path d="M 27.454928 101.738673 
L 385.61904 101.738673 
" clip-path="url(#p590ee0ffef)" style="fill: none; stroke: #b0b0b0; stroke-width: 0.1; stroke-linecap: round"/>
     </g>
     <g id="line2d_22"/>
     <g id="text_12">
      <!-- 30 -->
      <g style="fill: #262626" transform="translate(13.774928 104.778048) scale(0.08 -0.08)">
       <defs>
        <path id="DejaVuSerif-33" d="M 622 4469 
Q 988 4606 1323 4678 
Q 1659 4750 1953 4750 
Q 2638 4750 3022 4454 
Q 3406 4159 3406 3634 
Q 3406 3213 3140 2930 
Q 2875 2647 2388 2547 
Q 2963 2466 3280 2130 
Q 3597 1794 3597 1259 
Q 3597 606 3158 257 
Q 2719 -91 1894 -91 
Q 1528 -91 1179 -12 
Q 831 66 488 225 
L 488 1131 
L 838 1131 
Q 869 681 1141 450 
Q 1413 219 1906 219 
Q 2384 219 2661 495 
Q 2938 772 2938 1253 
Q 2938 1803 2653 2086 
Q 2369 2369 1819 2369 
L 1522 2369 
L 1522 2688 
L 1678 2688 
Q 2225 2688 2498 2914 
Q 2772 3141 2772 3597 
Q 2772 4006 2547 4223 
Q 2322 4441 1900 4441 
Q 1478 4441 1245 4241 
Q 1013 4041 972 3647 
L 622 3647 
L 622 4469 
z
" transform="scale(0.015625)"/>
       </defs>
       <use xlink:href="#DejaVuSerif-33"/>
       <use xlink:href="#DejaVuSerif-30" x="63.623047"/>
      </g>
     </g>
    </g>
    <g id="ytick_5">
     <g id="line2d_23">
      <path d="M 27.454928 75.694154 
L 385.61904 75.694154 
" clip-path="url(#p590ee0ffef)" style="fill: none; stroke: #b0b0b0; stroke-width: 0.1; stroke-linecap: round"/>
     </g>
     <g id="line2d_24"/>
     <g id="text_13">
      <!-- 40 -->
      <g style="fill: #262626" transform="translate(13.774928 78.733529) scale(0.08 -0.08)">
       <use xlink:href="#DejaVuSerif-34"/>
       <use xlink:href="#DejaVuSerif-30" x="63.623047"/>
      </g>
     </g>
    </g>
    <g id="ytick_6">
     <g id="line2d_25">
      <path d="M 27.454928 49.649635 
L 385.61904 49.649635 
" clip-path="url(#p590ee0ffef)" style="fill: none; stroke: #b0b0b0; stroke-width: 0.1; stroke-linecap: round"/>
     </g>
     <g id="line2d_26"/>
     <g id="text_14">
      <!-- 50 -->
      <g style="fill: #262626" transform="translate(13.774928 52.68901) scale(0.08 -0.08)">
       <defs>
        <path id="DejaVuSerif-35" d="M 3219 4666 
L 3219 4153 
L 1081 4153 
L 1081 2816 
Q 1244 2928 1461 2984 
Q 1678 3041 1947 3041 
Q 2703 3041 3140 2622 
Q 3578 2203 3578 1478 
Q 3578 738 3136 323 
Q 2694 -91 1894 -91 
Q 1572 -91 1234 -12 
Q 897 66 544 225 
L 544 1131 
L 897 1131 
Q 925 688 1179 453 
Q 1434 219 1894 219 
Q 2388 219 2653 544 
Q 2919 869 2919 1478 
Q 2919 2084 2655 2407 
Q 2391 2731 1894 2731 
Q 1613 2731 1398 2631 
Q 1184 2531 1019 2322 
L 750 2322 
L 750 4666 
L 3219 4666 
z
" transform="scale(0.015625)"/>
       </defs>
       <use xlink:href="#DejaVuSerif-35"/>
       <use xlink:href="#DejaVuSerif-30" x="63.623047"/>
      </g>
     </g>
    </g>
    <g id="text_15">
     <!-- $x_0$ $[m]$ -->
     <g style="fill: #262626" transform="translate(8.319146 122.196167) rotate(-90) scale(0.07 -0.07)">
      <defs>
       <path id="DejaVuSans-Oblique-78" d="M 3841 3500 
L 2234 1784 
L 3219 0 
L 2559 0 
L 1819 1388 
L 531 0 
L -166 0 
L 1556 1844 
L 641 3500 
L 1300 3500 
L 1972 2234 
L 3144 3500 
L 3841 3500 
z
" transform="scale(0.015625)"/>
      </defs>
      <use xlink:href="#DejaVuSans-Oblique-78" transform="translate(0 0.015625)"/>
      <use xlink:href="#DejaVuSans-30" transform="translate(59.179688 -16.390625) scale(0.7)"/>
      <use xlink:href="#DejaVuSerif-20" transform="translate(106.450195 0.015625)"/>
      <use xlink:href="#DejaVuSans-5b" transform="translate(138.237305 0.015625)"/>
      <use xlink:href="#DejaVuSans-Oblique-6d" transform="translate(177.250977 0.015625)"/>
      <use xlink:href="#DejaVuSans-5d" transform="translate(274.663086 0.015625)"/>
     </g>
    </g>
   </g>
   <g id="line2d_27">
    <path d="M 206.510369 178.167807 
L 206.588494 167.065285 
L 206.863925 161.725289 
L 207.305228 157.378529 
L 207.925629 153.464503 
L 208.954324 148.477225 
L 210.386103 142.666552 
L 212.735932 134.176358 
L 215.760212 123.089265 
L 217.070968 117.417997 
L 217.909886 112.825715 
L 218.418546 108.825619 
L 218.6584 105.203611 
L 218.661553 101.839918 
L 218.445693 98.66559 
L 218.00785 95.557713 
L 217.279652 92.0017 
L 216.295703 88.310055 
L 215.02068 84.406712 
L 213.329259 79.966623 
L 211.126399 74.827728 
L 208.054126 68.265129 
L 202.333849 56.10366 
L 200.334701 51.274392 
L 198.856114 47.13618 
L 197.759897 43.41504 
L 197.522137 42.473171 
L 197.522137 42.473171 
" clip-path="url(#p590ee0ffef)" style="fill: none; stroke: #000000; stroke-width: 0.4; stroke-linecap: round"/>
   </g>
   <g id="line2d_28">
    <path d="M 206.515141 179.87223 
L 206.625278 166.963678 
L 206.927858 162.180563 
L 207.398563 158.168871 
L 208.092422 154.267999 
L 209.141123 149.682003 
L 210.661989 144.076527 
L 213.381283 135.048552 
L 215.828403 126.637988 
L 217.118207 121.41137 
L 217.975488 117.030954 
L 218.519058 113.121153 
L 218.799568 109.511459 
L 218.840913 106.14639 
L 218.660651 102.995851 
L 218.269066 100.054286 
L 217.58978 96.696808 
L 216.573823 92.826243 
L 215.118212 88.19159 
L 212.863822 81.82471 
L 208.97127 70.86914 
L 207.543621 66.115711 
L 206.557961 62.075558 
L 205.891559 58.422055 
L 205.490589 54.997426 
L 205.332717 51.753692 
L 205.384106 48.977536 
L 205.384106 48.977536 
" clip-path="url(#p590ee0ffef)" style="fill: none; stroke-dasharray: 1.48,0.64; stroke-dashoffset: 0; stroke: #0000ff; stroke-width: 0.4"/>
   </g>
   <g id="line2d_29">
    <path d="M 206.515141 179.87223 
L 206.625921 167.152483 
L 206.929092 162.632335 
L 207.391064 158.934324 
L 208.104145 155.135341 
L 209.17768 150.66028 
L 210.714008 145.249175 
L 213.210051 137.367436 
L 216.555595 126.703639 
L 218.001471 121.318311 
L 218.987217 116.809096 
L 219.649454 112.759244 
L 220.041492 108.999522 
L 220.188033 105.475427 
L 220.10631 102.111365 
L 219.814488 99.014425 
L 219.276274 95.769078 
L 218.426008 92.029838 
L 217.191071 87.635036 
L 215.376945 82.053042 
L 210.279931 66.766961 
L 209.179145 62.515031 
L 208.446897 58.817258 
L 207.99886 55.432905 
L 207.798532 52.248653 
L 207.821848 49.370809 
L 207.821848 49.370809 
" clip-path="url(#p590ee0ffef)" style="fill: none; stroke-dasharray: 1.48,0.64; stroke-dashoffset: 0; stroke: #ff0000; stroke-width: 0.4"/>
   </g>
   <g id="line2d_30">
    <path d="M 206.512096 178.176692 
L 206.384244 167.181634 
L 206.073325 161.75515 
L 205.603084 157.3235 
L 204.965167 153.414062 
L 203.945912 148.60428 
L 202.579322 143.239719 
L 200.706916 136.843142 
L 195.592438 119.832519 
L 194.467557 115.076411 
L 193.720399 110.972539 
L 193.26872 107.266383 
L 193.068798 103.810724 
L 193.097478 100.491413 
L 193.345335 97.343692 
L 193.834574 94.099284 
L 194.613857 90.438548 
L 195.659885 86.605944 
L 197.04297 82.404091 
L 198.898827 77.503376 
L 201.499708 71.298134 
L 208.155607 55.69867 
L 209.983789 50.704586 
L 211.310461 46.452442 
L 211.964894 43.955322 
L 211.964894 43.955322 
" clip-path="url(#p590ee0ffef)" style="fill: none; stroke: #000000; stroke-width: 0.4; stroke-linecap: round"/>
   </g>
   <g id="line2d_31">
    <path d="M 206.515141 179.87223 
L 206.404574 166.305791 
L 206.103752 161.185812 
L 205.637749 156.932219 
L 204.983105 153.06859 
L 203.932709 148.268183 
L 202.145879 141.257113 
L 199.503763 130.821413 
L 198.472678 125.787516 
L 197.827297 121.549396 
L 197.467622 117.726549 
L 197.356171 114.19579 
L 197.471539 110.85759 
L 197.796454 107.77523 
L 198.373001 104.50368 
L 199.250863 100.829578 
L 200.470372 96.705514 
L 202.082172 92.059145 
L 204.308538 86.358641 
L 211.757391 67.779235 
L 213.139546 63.434583 
L 214.135622 59.581321 
L 214.823584 56.047514 
L 215.248431 52.721303 
L 215.431997 49.554297 
L 215.398744 46.741352 
L 215.398744 46.741352 
" clip-path="url(#p590ee0ffef)" style="fill: none; stroke-dasharray: 1.48,0.64; stroke-dashoffset: 0; stroke: #0000ff; stroke-width: 0.4"/>
   </g>
   <g id="line2d_32">
    <path d="M 206.515141 179.87223 
L 206.404372 166.020225 
L 206.103687 160.81029 
L 205.632935 156.419662 
L 204.982993 152.49124 
L 203.933749 147.581707 
L 202.071316 140.072471 
L 199.877812 131.03297 
L 198.940894 126.210668 
L 198.377385 122.1657 
L 198.096061 118.565859 
L 198.055471 115.217928 
L 198.238364 112.093024 
L 198.635089 109.162629 
L 199.310236 105.872708 
L 200.299973 102.173465 
L 201.659968 97.974139 
L 203.458369 93.165616 
L 205.970171 87.125269 
L 212.942408 70.67047 
L 214.59314 66.01338 
L 215.816146 61.908413 
L 216.708539 58.146142 
L 217.324591 54.596206 
L 217.68856 51.211948 
L 217.817234 47.943756 
L 217.763521 45.550318 
L 217.763521 45.550318 
" clip-path="url(#p590ee0ffef)" style="fill: none; stroke-dasharray: 1.48,0.64; stroke-dashoffset: 0; stroke: #ff0000; stroke-width: 0.4"/>
   </g>
   <g id="patch_3">
    <path d="M 27.454928 193.590364 
L 27.454928 28.82197 
" style="fill: none; stroke: #000000; stroke-linejoin: miter; stroke-linecap: square"/>
   </g>
   <g id="patch_4">
    <path d="M 27.454927 193.590364 
L 385.61904 193.590364 
" style="fill: none; stroke: #000000; stroke-linejoin: miter; stroke-linecap: square"/>
   </g>
   <g id="text_16">
    <!-- Track plot -->
    <g style="fill: #262626" transform="translate(185.781359 22.82197) scale(0.08 -0.08)">
     <defs>
      <path id="DejaVuSerif-54" d="M 1222 0 
L 1222 331 
L 1819 331 
L 1819 4294 
L 447 4294 
L 447 3566 
L 63 3566 
L 63 4666 
L 4206 4666 
L 4206 3566 
L 3822 3566 
L 3822 4294 
L 2450 4294 
L 2450 331 
L 3047 331 
L 3047 0 
L 1222 0 
z
" transform="scale(0.015625)"/>
      <path id="DejaVuSerif-72" d="M 3059 3328 
L 3059 2497 
L 2728 2497 
Q 2713 2744 2591 2866 
Q 2469 2988 2234 2988 
Q 1809 2988 1582 2694 
Q 1356 2400 1356 1850 
L 1356 331 
L 2022 331 
L 2022 0 
L 263 0 
L 263 331 
L 781 331 
L 781 2994 
L 231 2994 
L 231 3322 
L 1356 3322 
L 1356 2731 
Q 1525 3078 1790 3245 
Q 2056 3413 2438 3413 
Q 2578 3413 2733 3391 
Q 2888 3369 3059 3328 
z
" transform="scale(0.015625)"/>
      <path id="DejaVuSerif-61" d="M 2547 1044 
L 2547 1747 
L 1806 1747 
Q 1378 1747 1168 1562 
Q 959 1378 959 997 
Q 959 650 1171 447 
Q 1384 244 1747 244 
Q 2106 244 2326 466 
Q 2547 688 2547 1044 
z
M 3122 2075 
L 3122 331 
L 3634 331 
L 3634 0 
L 2547 0 
L 2547 359 
Q 2356 128 2106 18 
Q 1856 -91 1522 -91 
Q 969 -91 644 203 
Q 319 497 319 997 
Q 319 1513 691 1797 
Q 1063 2081 1741 2081 
L 2547 2081 
L 2547 2309 
Q 2547 2688 2317 2895 
Q 2088 3103 1672 3103 
Q 1328 3103 1125 2947 
Q 922 2791 872 2484 
L 575 2484 
L 575 3156 
Q 875 3284 1158 3348 
Q 1441 3413 1709 3413 
Q 2400 3413 2761 3070 
Q 3122 2728 3122 2075 
z
" transform="scale(0.015625)"/>
      <path id="DejaVuSerif-63" d="M 3291 997 
Q 3169 466 2822 187 
Q 2475 -91 1925 -91 
Q 1200 -91 759 389 
Q 319 869 319 1663 
Q 319 2459 759 2936 
Q 1200 3413 1925 3413 
Q 2241 3413 2553 3339 
Q 2866 3266 3181 3116 
L 3181 2266 
L 2847 2266 
Q 2781 2703 2561 2903 
Q 2341 3103 1931 3103 
Q 1466 3103 1228 2742 
Q 991 2381 991 1663 
Q 991 944 1227 581 
Q 1463 219 1931 219 
Q 2303 219 2525 412 
Q 2747 606 2828 997 
L 3291 997 
z
" transform="scale(0.015625)"/>
      <path id="DejaVuSerif-6b" d="M 1831 0 
L 219 0 
L 219 331 
L 738 331 
L 738 4531 
L 184 4531 
L 184 4863 
L 1313 4863 
L 1313 1697 
L 2713 2988 
L 2234 2988 
L 2234 3322 
L 3738 3322 
L 3738 2988 
L 3169 2988 
L 2181 2075 
L 3444 331 
L 3922 331 
L 3922 0 
L 2284 0 
L 2284 331 
L 2759 331 
L 1766 1697 
L 1313 1275 
L 1313 331 
L 1831 331 
L 1831 0 
z
" transform="scale(0.015625)"/>
      <path id="DejaVuSerif-70" d="M 1313 1825 
L 1313 1497 
Q 1313 897 1542 583 
Q 1772 269 2209 269 
Q 2650 269 2876 622 
Q 3103 975 3103 1663 
Q 3103 2353 2876 2703 
Q 2650 3053 2209 3053 
Q 1772 3053 1542 2737 
Q 1313 2422 1313 1825 
z
M 738 2988 
L 184 2988 
L 184 3322 
L 1313 3322 
L 1313 2803 
Q 1481 3116 1742 3264 
Q 2003 3413 2388 3413 
Q 3000 3413 3387 2928 
Q 3775 2444 3775 1663 
Q 3775 881 3387 395 
Q 3000 -91 2388 -91 
Q 2003 -91 1742 57 
Q 1481 206 1313 519 
L 1313 -997 
L 1856 -997 
L 1856 -1331 
L 184 -1331 
L 184 -997 
L 738 -997 
L 738 2988 
z
" transform="scale(0.015625)"/>
      <path id="DejaVuSerif-6c" d="M 1313 331 
L 1856 331 
L 1856 0 
L 184 0 
L 184 331 
L 738 331 
L 738 4531 
L 184 4531 
L 184 4863 
L 1313 4863 
L 1313 331 
z
" transform="scale(0.015625)"/>
      <path id="DejaVuSerif-6f" d="M 1925 219 
Q 2388 219 2623 584 
Q 2859 950 2859 1663 
Q 2859 2375 2623 2739 
Q 2388 3103 1925 3103 
Q 1463 3103 1227 2739 
Q 991 2375 991 1663 
Q 991 950 1228 584 
Q 1466 219 1925 219 
z
M 1925 -91 
Q 1200 -91 759 389 
Q 319 869 319 1663 
Q 319 2456 758 2934 
Q 1197 3413 1925 3413 
Q 2653 3413 3092 2934 
Q 3531 2456 3531 1663 
Q 3531 869 3092 389 
Q 2653 -91 1925 -91 
z
" transform="scale(0.015625)"/>
      <path id="DejaVuSerif-74" d="M 691 2988 
L 184 2988 
L 184 3322 
L 691 3322 
L 691 4353 
L 1269 4353 
L 1269 3322 
L 2350 3322 
L 2350 2988 
L 1269 2988 
L 1269 878 
Q 1269 456 1350 337 
Q 1431 219 1650 219 
Q 1875 219 1978 351 
Q 2081 484 2088 781 
L 2522 781 
Q 2497 328 2275 118 
Q 2053 -91 1600 -91 
Q 1103 -91 897 129 
Q 691 350 691 878 
L 691 2988 
z
" transform="scale(0.015625)"/>
     </defs>
     <use xlink:href="#DejaVuSerif-54"/>
     <use xlink:href="#DejaVuSerif-72" x="66.699219"/>
     <use xlink:href="#DejaVuSerif-61" x="114.501953"/>
     <use xlink:href="#DejaVuSerif-63" x="174.121094"/>
     <use xlink:href="#DejaVuSerif-6b" x="230.126953"/>
     <use xlink:href="#DejaVuSerif-20" x="290.722656"/>
     <use xlink:href="#DejaVuSerif-70" x="322.509766"/>
     <use xlink:href="#DejaVuSerif-6c" x="386.523438"/>
     <use xlink:href="#DejaVuSerif-6f" x="418.505859"/>
     <use xlink:href="#DejaVuSerif-74" x="478.710938"/>
    </g>
   </g>
   <g id="legend_1">
    <g id="line2d_33">
     <path d="M 268.52154 39.30072 
L 276.52154 39.30072 
L 284.52154 39.30072 
" style="fill: none; stroke: #000000; stroke-width: 0.4; stroke-linecap: round"/>
    </g>
    <g id="text_17">
     <!-- Experiment -->
     <g style="fill: #262626" transform="translate(290.92154 42.10072) scale(0.08 -0.08)">
      <defs>
       <path id="DejaVuSerif-45" d="M 353 0 
L 353 331 
L 947 331 
L 947 4331 
L 353 4331 
L 353 4666 
L 4109 4666 
L 4109 3628 
L 3725 3628 
L 3725 4281 
L 1581 4281 
L 1581 2719 
L 3109 2719 
L 3109 3303 
L 3494 3303 
L 3494 1753 
L 3109 1753 
L 3109 2338 
L 1581 2338 
L 1581 384 
L 3775 384 
L 3775 1038 
L 4159 1038 
L 4159 0 
L 353 0 
z
" transform="scale(0.015625)"/>
       <path id="DejaVuSerif-78" d="M 1863 2028 
L 2559 2988 
L 2113 2988 
L 2113 3322 
L 3391 3322 
L 3391 2988 
L 2950 2988 
L 2059 1759 
L 3097 331 
L 3531 331 
L 3531 0 
L 1997 0 
L 1997 331 
L 2419 331 
L 1697 1325 
L 972 331 
L 1403 331 
L 1403 0 
L 141 0 
L 141 331 
L 581 331 
L 1497 1594 
L 488 2988 
L 78 2988 
L 78 3322 
L 1563 3322 
L 1563 2988 
L 1166 2988 
L 1863 2028 
z
" transform="scale(0.015625)"/>
       <path id="DejaVuSerif-65" d="M 3469 1600 
L 991 1600 
L 991 1575 
Q 991 903 1244 561 
Q 1497 219 1991 219 
Q 2369 219 2611 417 
Q 2853 616 2950 1006 
L 3413 1006 
Q 3275 459 2904 184 
Q 2534 -91 1931 -91 
Q 1203 -91 761 389 
Q 319 869 319 1663 
Q 319 2450 753 2931 
Q 1188 3413 1894 3413 
Q 2647 3413 3050 2948 
Q 3453 2484 3469 1600 
z
M 2791 1931 
Q 2772 2513 2545 2808 
Q 2319 3103 1894 3103 
Q 1497 3103 1269 2806 
Q 1041 2509 991 1931 
L 2791 1931 
z
" transform="scale(0.015625)"/>
       <path id="DejaVuSerif-69" d="M 622 4353 
Q 622 4497 726 4603 
Q 831 4709 978 4709 
Q 1122 4709 1226 4603 
Q 1331 4497 1331 4353 
Q 1331 4206 1228 4103 
Q 1125 4000 978 4000 
Q 831 4000 726 4103 
Q 622 4206 622 4353 
z
M 1356 331 
L 1900 331 
L 1900 0 
L 231 0 
L 231 331 
L 781 331 
L 781 2988 
L 231 2988 
L 231 3322 
L 1356 3322 
L 1356 331 
z
" transform="scale(0.015625)"/>
       <path id="DejaVuSerif-6d" d="M 3316 2675 
Q 3481 3041 3739 3227 
Q 3997 3413 4341 3413 
Q 4863 3413 5119 3089 
Q 5375 2766 5375 2113 
L 5375 331 
L 5894 331 
L 5894 0 
L 4300 0 
L 4300 331 
L 4800 331 
L 4800 2047 
Q 4800 2556 4650 2772 
Q 4500 2988 4153 2988 
Q 3769 2988 3567 2697 
Q 3366 2406 3366 1850 
L 3366 331 
L 3866 331 
L 3866 0 
L 2291 0 
L 2291 331 
L 2791 331 
L 2791 2069 
Q 2791 2566 2641 2777 
Q 2491 2988 2144 2988 
Q 1759 2988 1557 2697 
Q 1356 2406 1356 1850 
L 1356 331 
L 1856 331 
L 1856 0 
L 263 0 
L 263 331 
L 781 331 
L 781 2994 
L 231 2994 
L 231 3322 
L 1356 3322 
L 1356 2731 
Q 1516 3063 1762 3238 
Q 2009 3413 2322 3413 
Q 2709 3413 2968 3220 
Q 3228 3028 3316 2675 
z
" transform="scale(0.015625)"/>
       <path id="DejaVuSerif-6e" d="M 263 0 
L 263 331 
L 781 331 
L 781 2988 
L 231 2988 
L 231 3322 
L 1356 3322 
L 1356 2731 
Q 1516 3069 1770 3241 
Q 2025 3413 2363 3413 
Q 2913 3413 3172 3097 
Q 3431 2781 3431 2113 
L 3431 331 
L 3944 331 
L 3944 0 
L 2356 0 
L 2356 331 
L 2853 331 
L 2853 1931 
Q 2853 2541 2703 2767 
Q 2553 2994 2175 2994 
Q 1775 2994 1565 2701 
Q 1356 2409 1356 1850 
L 1356 331 
L 1856 331 
L 1856 0 
L 263 0 
z
" transform="scale(0.015625)"/>
      </defs>
      <use xlink:href="#DejaVuSerif-45"/>
      <use xlink:href="#DejaVuSerif-78" x="72.998047"/>
      <use xlink:href="#DejaVuSerif-70" x="129.394531"/>
      <use xlink:href="#DejaVuSerif-65" x="193.408203"/>
      <use xlink:href="#DejaVuSerif-72" x="252.587891"/>
      <use xlink:href="#DejaVuSerif-69" x="300.390625"/>
      <use xlink:href="#DejaVuSerif-6d" x="332.373047"/>
      <use xlink:href="#DejaVuSerif-65" x="427.197266"/>
      <use xlink:href="#DejaVuSerif-6e" x="486.376953"/>
      <use xlink:href="#DejaVuSerif-74" x="550.78125"/>
     </g>
    </g>
    <g id="line2d_34">
     <path d="M 268.52154 51.04322 
L 276.52154 51.04322 
L 284.52154 51.04322 
" style="fill: none; stroke-dasharray: 1.48,0.64; stroke-dashoffset: 0; stroke: #0000ff; stroke-width: 0.4"/>
    </g>
    <g id="text_18">
     <!-- polynomial rudder -->
     <g style="fill: #262626" transform="translate(290.92154 53.84322) scale(0.08 -0.08)">
      <defs>
       <path id="DejaVuSerif-79" d="M 1381 -609 
L 1600 -56 
L 359 2988 
L -19 2988 
L -19 3322 
L 1509 3322 
L 1509 2988 
L 978 2988 
L 1913 703 
L 2847 2988 
L 2350 2988 
L 2350 3322 
L 3597 3322 
L 3597 2988 
L 3225 2988 
L 1703 -750 
Q 1547 -1138 1356 -1280 
Q 1166 -1422 819 -1422 
Q 672 -1422 517 -1397 
Q 363 -1372 206 -1325 
L 206 -691 
L 500 -691 
Q 519 -903 608 -995 
Q 697 -1088 884 -1088 
Q 1056 -1088 1161 -992 
Q 1266 -897 1381 -609 
z
" transform="scale(0.015625)"/>
       <path id="DejaVuSerif-75" d="M 2266 3322 
L 3341 3322 
L 3341 331 
L 3884 331 
L 3884 0 
L 2766 0 
L 2766 588 
Q 2606 256 2353 82 
Q 2100 -91 1766 -91 
Q 1213 -91 952 223 
Q 691 538 691 1209 
L 691 2988 
L 172 2988 
L 172 3322 
L 1269 3322 
L 1269 1388 
Q 1269 781 1417 556 
Q 1566 331 1947 331 
Q 2347 331 2556 625 
Q 2766 919 2766 1478 
L 2766 2988 
L 2266 2988 
L 2266 3322 
z
" transform="scale(0.015625)"/>
       <path id="DejaVuSerif-64" d="M 3359 331 
L 3909 331 
L 3909 0 
L 2784 0 
L 2784 519 
Q 2616 206 2355 57 
Q 2094 -91 1709 -91 
Q 1097 -91 708 395 
Q 319 881 319 1663 
Q 319 2444 706 2928 
Q 1094 3413 1709 3413 
Q 2094 3413 2355 3264 
Q 2616 3116 2784 2803 
L 2784 4531 
L 2241 4531 
L 2241 4863 
L 3359 4863 
L 3359 331 
z
M 2784 1497 
L 2784 1825 
Q 2784 2422 2554 2737 
Q 2325 3053 1888 3053 
Q 1444 3053 1217 2703 
Q 991 2353 991 1663 
Q 991 975 1217 622 
Q 1444 269 1888 269 
Q 2325 269 2554 583 
Q 2784 897 2784 1497 
z
" transform="scale(0.015625)"/>
      </defs>
      <use xlink:href="#DejaVuSerif-70"/>
      <use xlink:href="#DejaVuSerif-6f" x="64.013672"/>
      <use xlink:href="#DejaVuSerif-6c" x="124.21875"/>
      <use xlink:href="#DejaVuSerif-79" x="156.201172"/>
      <use xlink:href="#DejaVuSerif-6e" x="212.695312"/>
      <use xlink:href="#DejaVuSerif-6f" x="277.099609"/>
      <use xlink:href="#DejaVuSerif-6d" x="337.304688"/>
      <use xlink:href="#DejaVuSerif-69" x="432.128906"/>
      <use xlink:href="#DejaVuSerif-61" x="464.111328"/>
      <use xlink:href="#DejaVuSerif-6c" x="523.730469"/>
      <use xlink:href="#DejaVuSerif-20" x="555.712891"/>
      <use xlink:href="#DejaVuSerif-72" x="587.5"/>
      <use xlink:href="#DejaVuSerif-75" x="635.302734"/>
      <use xlink:href="#DejaVuSerif-64" x="699.707031"/>
      <use xlink:href="#DejaVuSerif-64" x="763.720703"/>
      <use xlink:href="#DejaVuSerif-65" x="827.734375"/>
      <use xlink:href="#DejaVuSerif-72" x="886.914062"/>
     </g>
    </g>
    <g id="line2d_35">
     <path d="M 268.52154 62.89947 
L 276.52154 62.89947 
L 284.52154 62.89947 
" style="fill: none; stroke-dasharray: 1.48,0.64; stroke-dashoffset: 0; stroke: #ff0000; stroke-width: 0.4"/>
    </g>
    <g id="text_19">
     <!-- semiempirical rudder -->
     <g style="fill: #262626" transform="translate(290.92154 65.69947) scale(0.08 -0.08)">
      <defs>
       <path id="DejaVuSerif-73" d="M 359 184 
L 359 959 
L 691 959 
Q 703 588 923 403 
Q 1144 219 1575 219 
Q 1963 219 2166 364 
Q 2369 509 2369 788 
Q 2369 1006 2220 1140 
Q 2072 1275 1594 1428 
L 1178 1569 
Q 750 1706 558 1912 
Q 366 2119 366 2438 
Q 366 2894 700 3153 
Q 1034 3413 1625 3413 
Q 1888 3413 2178 3344 
Q 2469 3275 2778 3144 
L 2778 2419 
L 2447 2419 
Q 2434 2741 2221 2922 
Q 2009 3103 1644 3103 
Q 1281 3103 1095 2975 
Q 909 2847 909 2591 
Q 909 2381 1050 2254 
Q 1191 2128 1613 1997 
L 2069 1856 
Q 2541 1709 2748 1489 
Q 2956 1269 2956 922 
Q 2956 450 2595 179 
Q 2234 -91 1600 -91 
Q 1278 -91 972 -22 
Q 666 47 359 184 
z
" transform="scale(0.015625)"/>
      </defs>
      <use xlink:href="#DejaVuSerif-73"/>
      <use xlink:href="#DejaVuSerif-65" x="51.318359"/>
      <use xlink:href="#DejaVuSerif-6d" x="110.498047"/>
      <use xlink:href="#DejaVuSerif-69" x="205.322266"/>
      <use xlink:href="#DejaVuSerif-65" x="237.304688"/>
      <use xlink:href="#DejaVuSerif-6d" x="296.484375"/>
      <use xlink:href="#DejaVuSerif-70" x="391.308594"/>
      <use xlink:href="#DejaVuSerif-69" x="455.322266"/>
      <use xlink:href="#DejaVuSerif-72" x="487.304688"/>
      <use xlink:href="#DejaVuSerif-69" x="535.107422"/>
      <use xlink:href="#DejaVuSerif-63" x="567.089844"/>
      <use xlink:href="#DejaVuSerif-61" x="623.095703"/>
      <use xlink:href="#DejaVuSerif-6c" x="682.714844"/>
      <use xlink:href="#DejaVuSerif-20" x="714.697266"/>
      <use xlink:href="#DejaVuSerif-72" x="746.484375"/>
      <use xlink:href="#DejaVuSerif-75" x="794.287109"/>
      <use xlink:href="#DejaVuSerif-64" x="858.691406"/>
      <use xlink:href="#DejaVuSerif-64" x="922.705078"/>
      <use xlink:href="#DejaVuSerif-65" x="986.71875"/>
      <use xlink:href="#DejaVuSerif-72" x="1045.898438"/>
     </g>
    </g>
   </g>
   <g id="line2d_36">
    <path d="M 206.494687 171.939166 
L 205.921746 172.563476 
L 205.636059 173.187064 
L 205.351941 174.433515 
L 205.373895 183.153614 
L 205.46164 183.776261 
L 205.664287 184.398619 
L 207.387815 184.39428 
L 207.587326 183.770909 
L 207.671934 183.147828 
L 207.649979 174.427729 
L 207.359588 173.182724 
L 207.070765 172.560583 
L 206.494687 171.939166 
" clip-path="url(#p590ee0ffef)" style="fill: none; stroke: #0000ff; stroke-opacity: 0.2; stroke-width: 0.4; stroke-linecap: round"/>
   </g>
   <g id="patch_5">
    <path d="M 206.494687 171.939166 
L 205.921746 172.563476 
L 205.636059 173.187064 
L 205.351941 174.433515 
L 205.373895 183.153614 
L 205.46164 183.776261 
L 205.664287 184.398619 
L 207.387815 184.39428 
L 207.587326 183.770909 
L 207.671934 183.147828 
L 207.649979 174.427729 
L 207.359588 173.182724 
L 207.070765 172.560583 
z
" clip-path="url(#p590ee0ffef)" style="fill: #0000ff; opacity: 0.2"/>
   </g>
   <g id="line2d_37">
    <path d="M 207.416278 156.939695 
L 206.779973 157.499286 
L 206.42936 158.088819 
L 206.013824 159.297824 
L 205.10491 167.970452 
L 205.125695 168.598908 
L 205.260756 169.23934 
L 206.974903 169.418987 
L 207.239809 168.820473 
L 207.390439 168.209982 
L 208.299353 159.537354 
L 208.143506 158.268466 
L 207.922738 157.619051 
L 207.416278 156.939695 
" clip-path="url(#p590ee0ffef)" style="fill: none; stroke: #0000ff; stroke-opacity: 0.2; stroke-width: 0.4; stroke-linecap: round"/>
   </g>
   <g id="patch_6">
    <path d="M 207.416278 156.939695 
L 206.779973 157.499286 
L 206.42936 158.088819 
L 206.013824 159.297824 
L 205.10491 167.970452 
L 205.125695 168.598908 
L 205.260756 169.23934 
L 206.974903 169.418987 
L 207.239809 168.820473 
L 207.390439 168.209982 
L 208.299353 159.537354 
L 208.143506 158.268466 
L 207.922738 157.619051 
z
" clip-path="url(#p590ee0ffef)" style="fill: #0000ff; opacity: 0.2"/>
   </g>
   <g id="line2d_38">
    <path d="M 210.697325 142.571253 
L 209.970322 143.006559 
L 209.518886 143.522973 
L 208.89158 144.636909 
L 206.429416 153.002215 
L 206.336217 153.624069 
L 206.353245 154.278366 
L 208.006649 154.765014 
L 208.375416 154.224267 
L 208.633955 153.651078 
L 211.096119 145.285772 
L 211.17229 144.00962 
L 211.072591 143.33099 
L 210.697325 142.571253 
" clip-path="url(#p590ee0ffef)" style="fill: none; stroke: #0000ff; stroke-opacity: 0.2; stroke-width: 0.4; stroke-linecap: round"/>
   </g>
   <g id="patch_7">
    <path d="M 210.697325 142.571253 
L 209.970322 143.006559 
L 209.518886 143.522973 
L 208.89158 144.636909 
L 206.429416 153.002215 
L 206.336217 153.624069 
L 206.353245 154.278366 
L 208.006649 154.765014 
L 208.375416 154.224267 
L 208.633955 153.651078 
L 211.096119 145.285772 
L 211.17229 144.00962 
L 211.072591 143.33099 
z
" clip-path="url(#p590ee0ffef)" style="fill: #0000ff; opacity: 0.2"/>
   </g>
   <g id="line2d_39">
    <path d="M 214.462293 128.561366 
L 213.730647 128.988824 
L 213.27368 129.50035 
L 212.634425 130.607471 
L 210.082387 138.945799 
L 209.982502 139.566614 
L 209.992489 140.221057 
L 211.64056 140.725468 
L 212.015124 140.188721 
L 212.279816 139.618346 
L 214.831854 131.280019 
L 214.921752 130.004761 
L 214.829362 129.325098 
L 214.462293 128.561366 
" clip-path="url(#p590ee0ffef)" style="fill: none; stroke: #0000ff; stroke-opacity: 0.2; stroke-width: 0.4; stroke-linecap: round"/>
   </g>
   <g id="patch_8">
    <path d="M 214.462293 128.561366 
L 213.730647 128.988824 
L 213.27368 129.50035 
L 212.634425 130.607471 
L 210.082387 138.945799 
L 209.982502 139.566614 
L 209.992489 140.221057 
L 211.64056 140.725468 
L 212.015124 140.188721 
L 212.279816 139.618346 
L 214.831854 131.280019 
L 214.921752 130.004761 
L 214.829362 129.325098 
z
" clip-path="url(#p590ee0ffef)" style="fill: #0000ff; opacity: 0.2"/>
   </g>
   <g id="line2d_40">
    <path d="M 217.60617 114.38949 
L 216.921069 114.888151 
L 216.517692 115.442917 
L 215.992661 116.608553 
L 214.289509 125.160738 
L 214.252373 125.78844 
L 214.327925 126.438584 
L 216.018266 126.775212 
L 216.337126 126.203615 
L 216.543297 125.609576 
L 218.246449 117.057391 
L 218.208033 115.779545 
L 218.047963 115.11257 
L 217.60617 114.38949 
" clip-path="url(#p590ee0ffef)" style="fill: none; stroke: #0000ff; stroke-opacity: 0.2; stroke-width: 0.4; stroke-linecap: round"/>
   </g>
   <g id="patch_9">
    <path d="M 217.60617 114.38949 
L 216.921069 114.888151 
L 216.517692 115.442917 
L 215.992661 116.608553 
L 214.289509 125.160738 
L 214.252373 125.78844 
L 214.327925 126.438584 
L 216.018266 126.775212 
L 216.337126 126.203615 
L 216.543297 125.609576 
L 218.246449 117.057391 
L 218.208033 115.779545 
L 218.047963 115.11257 
z
" clip-path="url(#p590ee0ffef)" style="fill: #0000ff; opacity: 0.2"/>
   </g>
   <g id="line2d_41">
    <path d="M 218.374964 100.107915 
L 217.824207 100.751882 
L 217.560505 101.385079 
L 217.320153 102.640705 
L 217.647068 111.354701 
L 217.756535 111.973899 
L 217.980824 112.588789 
L 219.703146 112.524174 
L 219.880733 111.894207 
L 219.943498 111.268548 
L 219.616583 102.554552 
L 219.282827 101.320465 
L 218.972423 100.708805 
L 218.374964 100.107915 
" clip-path="url(#p590ee0ffef)" style="fill: none; stroke: #0000ff; stroke-opacity: 0.2; stroke-width: 0.4; stroke-linecap: round"/>
   </g>
   <g id="patch_10">
    <path d="M 218.374964 100.107915 
L 217.824207 100.751882 
L 217.560505 101.385079 
L 217.320153 102.640705 
L 217.647068 111.354701 
L 217.756535 111.973899 
L 217.980824 112.588789 
L 219.703146 112.524174 
L 219.880733 111.894207 
L 219.943498 111.268548 
L 219.616583 102.554552 
L 219.282827 101.320465 
L 218.972423 100.708805 
z
" clip-path="url(#p590ee0ffef)" style="fill: #0000ff; opacity: 0.2"/>
   </g>
   <g id="line2d_42">
    <path d="M 215.387067 86.734572 
L 215.047614 87.510972 
L 214.979649 88.193511 
L 215.115208 89.464726 
L 217.964536 97.706202 
L 218.249506 98.266721 
L 218.643071 98.789694 
L 220.272 98.226524 
L 220.258519 97.572144 
L 220.136442 96.955309 
L 217.287113 88.713832 
L 216.608578 87.63034 
L 216.133567 87.135525 
L 215.387067 86.734572 
" clip-path="url(#p590ee0ffef)" style="fill: none; stroke: #0000ff; stroke-opacity: 0.2; stroke-width: 0.4; stroke-linecap: round"/>
   </g>
   <g id="patch_11">
    <path d="M 215.387067 86.734572 
L 215.047614 87.510972 
L 214.979649 88.193511 
L 215.115208 89.464726 
L 217.964536 97.706202 
L 218.249506 98.266721 
L 218.643071 98.789694 
L 220.272 98.226524 
L 220.258519 97.572144 
L 220.136442 96.955309 
L 217.287113 88.713832 
L 216.608578 87.63034 
L 216.133567 87.135525 
z
" clip-path="url(#p590ee0ffef)" style="fill: #0000ff; opacity: 0.2"/>
   </g>
   <g id="line2d_43">
    <path d="M 210.593761 74.322656 
L 210.348807 75.133842 
L 210.36229 75.819624 
L 210.647692 77.065782 
L 214.454565 84.911056 
L 214.804016 85.433811 
L 215.256841 85.906404 
L 216.80746 85.153975 
L 216.716446 84.505815 
L 216.522058 83.907817 
L 212.715185 76.062543 
L 211.912909 75.067195 
L 211.382553 74.632223 
L 210.593761 74.322656 
" clip-path="url(#p590ee0ffef)" style="fill: none; stroke: #0000ff; stroke-opacity: 0.2; stroke-width: 0.4; stroke-linecap: round"/>
   </g>
   <g id="patch_12">
    <path d="M 210.593761 74.322656 
L 210.348807 75.133842 
L 210.36229 75.819624 
L 210.647692 77.065782 
L 214.454565 84.911056 
L 214.804016 85.433811 
L 215.256841 85.906404 
L 216.80746 85.153975 
L 216.716446 84.505815 
L 216.522058 83.907817 
L 212.715185 76.062543 
L 211.912909 75.067195 
L 211.382553 74.632223 
z
" clip-path="url(#p590ee0ffef)" style="fill: #0000ff; opacity: 0.2"/>
   </g>
   <g id="line2d_44">
    <path d="M 204.967187 62.156253 
L 204.736934 62.971734 
L 204.762809 63.65716 
L 205.070686 64.897956 
L 209.018725 72.673147 
L 209.377567 73.189501 
L 209.838859 73.653833 
L 211.375627 72.873502 
L 211.272913 72.227093 
L 211.067749 71.632706 
L 207.11971 63.857515 
L 206.299576 62.876829 
L 205.761445 62.451513 
L 204.967187 62.156253 
" clip-path="url(#p590ee0ffef)" style="fill: none; stroke: #0000ff; stroke-opacity: 0.2; stroke-width: 0.4; stroke-linecap: round"/>
   </g>
   <g id="patch_13">
    <path d="M 204.967187 62.156253 
L 204.736934 62.971734 
L 204.762809 63.65716 
L 205.070686 64.897956 
L 209.018725 72.673147 
L 209.377567 73.189501 
L 209.838859 73.653833 
L 211.375627 72.873502 
L 211.272913 72.227093 
L 211.067749 71.632706 
L 207.11971 63.857515 
L 206.299576 62.876829 
L 205.761445 62.451513 
z
" clip-path="url(#p590ee0ffef)" style="fill: #0000ff; opacity: 0.2"/>
   </g>
   <g id="line2d_45">
    <path d="M 199.73658 49.570264 
L 199.429499 50.360028 
L 199.389796 51.044792 
L 199.577767 52.30932 
L 202.765208 60.42602 
L 203.073096 60.974284 
L 203.487935 61.480549 
L 205.092202 60.850551 
L 205.051692 60.197286 
L 204.904231 59.586022 
L 201.716789 51.469322 
L 200.994063 50.414794 
L 200.49901 49.940029 
L 199.73658 49.570264 
" clip-path="url(#p590ee0ffef)" style="fill: none; stroke: #0000ff; stroke-opacity: 0.2; stroke-width: 0.4; stroke-linecap: round"/>
   </g>
   <g id="patch_14">
    <path d="M 199.73658 49.570264 
L 199.429499 50.360028 
L 199.389796 51.044792 
L 199.577767 52.30932 
L 202.765208 60.42602 
L 203.073096 60.974284 
L 203.487935 61.480549 
L 205.092202 60.850551 
L 205.051692 60.197286 
L 204.904231 59.586022 
L 201.716789 51.469322 
L 200.994063 50.414794 
L 200.49901 49.940029 
z
" clip-path="url(#p590ee0ffef)" style="fill: #0000ff; opacity: 0.2"/>
   </g>
   <g id="line2d_46">
    <path d="M 196.611463 36.311442 
L 196.134193 37.011613 
L 195.941091 37.669785 
L 195.839057 38.944129 
L 197.114001 47.570549 
L 197.290319 48.174122 
L 197.580304 48.760896 
L 199.285318 48.508903 
L 199.393169 47.863331 
L 199.387352 47.234559 
L 198.112408 38.608139 
L 197.646104 37.417792 
L 197.270868 36.843618 
L 196.611463 36.311442 
" clip-path="url(#p590ee0ffef)" style="fill: none; stroke: #ff0000; stroke-opacity: 0.2; stroke-width: 0.4; stroke-linecap: round"/>
   </g>
   <g id="patch_15">
    <path d="M 196.611463 36.311442 
L 196.134193 37.011613 
L 195.941091 37.669785 
L 195.839057 38.944129 
L 197.114001 47.570549 
L 197.290319 48.174122 
L 197.580304 48.760896 
L 199.285318 48.508903 
L 199.393169 47.863331 
L 199.387352 47.234559 
L 198.112408 38.608139 
L 197.646104 37.417792 
L 197.270868 36.843618 
z
" clip-path="url(#p590ee0ffef)" style="fill: #ff0000; opacity: 0.2"/>
   </g>
   <g id="line2d_47">
    <path d="M 206.515141 173.643568 
L 205.94063 174.266435 
L 205.653374 174.889301 
L 205.366118 176.135033 
L 205.366118 184.855159 
L 205.452295 185.478025 
L 205.653374 186.100892 
L 207.376908 186.100892 
L 207.577987 185.478025 
L 207.664164 184.855159 
L 207.664164 176.135033 
L 207.376908 174.889301 
L 207.089653 174.266435 
L 206.515141 173.643568 
" clip-path="url(#p590ee0ffef)" style="fill: none; stroke: #0000ff; stroke-opacity: 0.2; stroke-width: 0.4; stroke-linecap: round"/>
   </g>
   <g id="patch_16">
    <path d="M 206.515141 173.643568 
L 205.94063 174.266435 
L 205.653374 174.889301 
L 205.366118 176.135033 
L 205.366118 184.855159 
L 205.452295 185.478025 
L 205.653374 186.100892 
L 207.376908 186.100892 
L 207.577987 185.478025 
L 207.664164 184.855159 
L 207.664164 176.135033 
L 207.376908 174.889301 
L 207.089653 174.266435 
z
" clip-path="url(#p590ee0ffef)" style="fill: #0000ff; opacity: 0.2"/>
   </g>
   <g id="line2d_48">
    <path d="M 207.522717 158.117195 
L 206.876655 158.665492 
L 206.515712 159.248757 
L 206.078945 160.450256 
L 205.017411 169.105528 
L 205.027123 169.734253 
L 205.150883 170.376965 
L 206.861599 170.586777 
L 207.137006 169.993021 
L 207.298366 169.385278 
L 208.359899 160.730005 
L 208.226428 159.458569 
L 208.017132 158.805366 
L 207.522717 158.117195 
" clip-path="url(#p590ee0ffef)" style="fill: none; stroke: #0000ff; stroke-opacity: 0.2; stroke-width: 0.4; stroke-linecap: round"/>
   </g>
   <g id="patch_17">
    <path d="M 207.522717 158.117195 
L 206.876655 158.665492 
L 206.515712 159.248757 
L 206.078945 160.450256 
L 205.017411 169.105528 
L 205.027123 169.734253 
L 205.150883 170.376965 
L 206.861599 170.586777 
L 207.137006 169.993021 
L 207.298366 169.385278 
L 208.359899 160.730005 
L 208.226428 159.458569 
L 208.017132 158.805366 
z
" clip-path="url(#p590ee0ffef)" style="fill: #0000ff; opacity: 0.2"/>
   </g>
   <g id="line2d_49">
    <path d="M 211.11234 143.221375 
L 210.379321 143.646474 
L 209.920709 144.156526 
L 209.277892 145.261583 
L 206.699013 153.591648 
L 206.59713 154.212139 
L 206.605008 154.86661 
L 208.251447 155.376326 
L 208.627737 154.840788 
L 208.894265 154.271269 
L 211.473143 145.941204 
L 211.567148 144.666242 
L 211.476947 143.986285 
L 211.11234 143.221375 
" clip-path="url(#p590ee0ffef)" style="fill: none; stroke: #0000ff; stroke-opacity: 0.2; stroke-width: 0.4; stroke-linecap: round"/>
   </g>
   <g id="patch_18">
    <path d="M 211.11234 143.221375 
L 210.379321 143.646474 
L 209.920709 144.156526 
L 209.277892 145.261583 
L 206.699013 153.591648 
L 206.59713 154.212139 
L 206.605008 154.86661 
L 208.251447 155.376326 
L 208.627737 154.840788 
L 208.894265 154.271269 
L 211.473143 145.941204 
L 211.567148 144.666242 
L 211.476947 143.986285 
z
" clip-path="url(#p590ee0ffef)" style="fill: #0000ff; opacity: 0.2"/>
   </g>
   <g id="line2d_50">
    <path d="M 215.324316 128.630094 
L 214.59403 129.059871 
L 214.138688 129.572844 
L 213.502947 130.681987 
L 210.977371 139.028368 
L 210.879455 139.649497 
L 210.891518 140.303904 
L 212.541181 140.803085 
L 212.91404 140.265153 
L 213.176922 139.693942 
L 215.702498 131.347562 
L 215.788351 130.072025 
L 215.693806 129.392658 
L 215.324316 128.630094 
" clip-path="url(#p590ee0ffef)" style="fill: none; stroke: #0000ff; stroke-opacity: 0.2; stroke-width: 0.4; stroke-linecap: round"/>
   </g>
   <g id="patch_19">
    <path d="M 215.324316 128.630094 
L 214.59403 129.059871 
L 214.138688 129.572844 
L 213.502947 130.681987 
L 210.977371 139.028368 
L 210.879455 139.649497 
L 210.891518 140.303904 
L 212.541181 140.803085 
L 212.91404 140.265153 
L 213.176922 139.693942 
L 215.702498 131.347562 
L 215.788351 130.072025 
L 215.693806 129.392658 
z
" clip-path="url(#p590ee0ffef)" style="fill: #0000ff; opacity: 0.2"/>
   </g>
   <g id="line2d_51">
    <path d="M 218.307663 113.803936 
L 217.650772 114.339213 
L 217.278246 114.915149 
L 216.817557 116.10768 
L 215.583277 124.740012 
L 215.580424 125.368805 
L 215.691316 126.013861 
L 217.397497 126.257817 
L 217.684715 125.669683 
L 217.858187 125.065286 
L 219.092466 116.432954 
L 218.984428 115.159104 
L 218.788227 114.50185 
L 218.307663 113.803936 
" clip-path="url(#p590ee0ffef)" style="fill: none; stroke: #0000ff; stroke-opacity: 0.2; stroke-width: 0.4; stroke-linecap: round"/>
   </g>
   <g id="patch_20">
    <path d="M 218.307663 113.803936 
L 217.650772 114.339213 
L 217.278246 114.915149 
L 216.817557 116.10768 
L 215.583277 124.740012 
L 215.580424 125.368805 
L 215.691316 126.013861 
L 217.397497 126.257817 
L 217.684715 125.669683 
L 217.858187 125.065286 
L 219.092466 116.432954 
L 218.984428 115.159104 
L 218.788227 114.50185 
z
" clip-path="url(#p590ee0ffef)" style="fill: #0000ff; opacity: 0.2"/>
   </g>
   <g id="line2d_52">
    <path d="M 217.820766 98.97305 
L 217.352135 99.679032 
L 217.167135 100.339526 
L 217.080766 101.615028 
L 218.461605 110.225132 
L 218.645326 110.826493 
L 218.942499 111.409659 
L 220.644288 111.136736 
L 220.744198 110.489888 
L 220.730656 109.861234 
L 219.349817 101.251131 
L 218.868923 100.066603 
L 218.48666 99.497083 
L 217.820766 98.97305 
" clip-path="url(#p590ee0ffef)" style="fill: none; stroke: #0000ff; stroke-opacity: 0.2; stroke-width: 0.4; stroke-linecap: round"/>
   </g>
   <g id="patch_21">
    <path d="M 217.820766 98.97305 
L 217.352135 99.679032 
L 217.167135 100.339526 
L 217.080766 101.615028 
L 218.461605 110.225132 
L 218.645326 110.826493 
L 218.942499 111.409659 
L 220.644288 111.136736 
L 220.744198 110.489888 
L 220.730656 109.861234 
L 219.349817 101.251131 
L 218.868923 100.066603 
L 218.48666 99.497083 
z
" clip-path="url(#p590ee0ffef)" style="fill: #0000ff; opacity: 0.2"/>
   </g>
   <g id="line2d_53">
    <path d="M 213.756484 85.077679 
L 213.443888 85.865276 
L 213.399398 86.549746 
L 213.578522 87.815557 
L 216.70913 95.954347 
L 217.013176 96.504751 
L 217.424465 97.013904 
L 219.033098 96.395139 
L 218.997157 95.741607 
L 218.853974 95.129327 
L 215.723366 86.990537 
L 215.008031 85.93098 
L 214.51631 85.452766 
L 213.756484 85.077679 
" clip-path="url(#p590ee0ffef)" style="fill: none; stroke: #0000ff; stroke-opacity: 0.2; stroke-width: 0.4; stroke-linecap: round"/>
   </g>
   <g id="patch_22">
    <path d="M 213.756484 85.077679 
L 213.443888 85.865276 
L 213.399398 86.549746 
L 213.578522 87.815557 
L 216.70913 95.954347 
L 217.013176 96.504751 
L 217.424465 97.013904 
L 219.033098 96.395139 
L 218.997157 95.741607 
L 218.853974 95.129327 
L 215.723366 86.990537 
L 215.008031 85.93098 
L 214.51631 85.452766 
z
" clip-path="url(#p590ee0ffef)" style="fill: #0000ff; opacity: 0.2"/>
   </g>
   <g id="line2d_54">
    <path d="M 209.088752 71.394449 
L 208.758127 72.17465 
L 208.697908 72.857915 
L 208.847876 74.127511 
L 211.790495 82.336141 
L 212.081804 82.893391 
L 212.481275 83.411867 
L 214.103712 82.830258 
L 214.082809 82.176073 
L 213.953744 81.560662 
L 211.011125 73.352033 
L 210.320345 72.276306 
L 209.839752 71.78691 
L 209.088752 71.394449 
" clip-path="url(#p590ee0ffef)" style="fill: none; stroke: #0000ff; stroke-opacity: 0.2; stroke-width: 0.4; stroke-linecap: round"/>
   </g>
   <g id="patch_23">
    <path d="M 209.088752 71.394449 
L 208.758127 72.17465 
L 208.697908 72.857915 
L 208.847876 74.127511 
L 211.790495 82.336141 
L 212.081804 82.893391 
L 212.481275 83.411867 
L 214.103712 82.830258 
L 214.082809 82.176073 
L 213.953744 81.560662 
L 211.011125 73.352033 
L 210.320345 72.276306 
L 209.839752 71.78691 
z
" clip-path="url(#p590ee0ffef)" style="fill: #0000ff; opacity: 0.2"/>
   </g>
   <g id="line2d_55">
    <path d="M 205.877914 57.19988 
L 205.406908 57.90428 
L 205.219684 58.564147 
L 205.12902 59.839351 
L 206.480851 68.454057 
L 206.662545 69.056034 
L 206.957753 69.640198 
L 208.660451 69.373008 
L 208.762539 68.7265 
L 208.751115 68.097804 
L 207.399284 59.483098 
L 206.922382 58.296958 
L 206.54204 57.726153 
L 205.877914 57.19988 
" clip-path="url(#p590ee0ffef)" style="fill: none; stroke: #0000ff; stroke-opacity: 0.2; stroke-width: 0.4; stroke-linecap: round"/>
   </g>
   <g id="patch_24">
    <path d="M 205.877914 57.19988 
L 205.406908 57.90428 
L 205.219684 58.564147 
L 205.12902 59.839351 
L 206.480851 68.454057 
L 206.662545 69.056034 
L 206.957753 69.640198 
L 208.660451 69.373008 
L 208.762539 68.7265 
L 208.751115 68.097804 
L 207.399284 59.483098 
L 206.922382 58.296958 
L 206.54204 57.726153 
z
" clip-path="url(#p590ee0ffef)" style="fill: #0000ff; opacity: 0.2"/>
   </g>
   <g id="line2d_56">
    <path d="M 206.462875 42.843004 
L 205.789169 43.356955 
L 205.398378 43.920657 
L 204.899709 45.097812 
L 203.389432 53.686157 
L 203.366429 54.314535 
L 203.456592 54.962814 
L 205.15408 55.261321 
L 205.459997 54.682694 
L 205.652748 54.084166 
L 207.163026 45.495821 
L 207.095865 44.219164 
L 206.920828 43.555959 
L 206.462875 42.843004 
" clip-path="url(#p590ee0ffef)" style="fill: none; stroke: #ff0000; stroke-opacity: 0.2; stroke-width: 0.4; stroke-linecap: round"/>
   </g>
   <g id="patch_25">
    <path d="M 206.462875 42.843004 
L 205.789169 43.356955 
L 205.398378 43.920657 
L 204.899709 45.097812 
L 203.389432 53.686157 
L 203.366429 54.314535 
L 203.456592 54.962814 
L 205.15408 55.261321 
L 205.459997 54.682694 
L 205.652748 54.084166 
L 207.163026 45.495821 
L 207.095865 44.219164 
L 206.920828 43.555959 
z
" clip-path="url(#p590ee0ffef)" style="fill: #ff0000; opacity: 0.2"/>
   </g>
   <g id="line2d_57">
    <path d="M 206.515141 173.643568 
L 205.94063 174.266435 
L 205.653374 174.889301 
L 205.366118 176.135033 
L 205.366118 184.855159 
L 205.452295 185.478025 
L 205.653374 186.100892 
L 207.376908 186.100892 
L 207.577987 185.478025 
L 207.664164 184.855159 
L 207.664164 176.135033 
L 207.376908 174.889301 
L 207.089653 174.266435 
L 206.515141 173.643568 
" clip-path="url(#p590ee0ffef)" style="fill: none; stroke: #0000ff; stroke-opacity: 0.2; stroke-width: 0.4; stroke-linecap: round"/>
   </g>
   <g id="patch_26">
    <path d="M 206.515141 173.643568 
L 205.94063 174.266435 
L 205.653374 174.889301 
L 205.366118 176.135033 
L 205.366118 184.855159 
L 205.452295 185.478025 
L 205.653374 186.100892 
L 207.376908 186.100892 
L 207.577987 185.478025 
L 207.664164 184.855159 
L 207.664164 176.135033 
L 207.376908 174.889301 
L 207.089653 174.266435 
z
" clip-path="url(#p590ee0ffef)" style="fill: #0000ff; opacity: 0.2"/>
   </g>
   <g id="line2d_58">
    <path d="M 207.665669 158.064034 
L 207.009674 158.600407 
L 206.638111 159.176965 
L 206.179415 160.370264 
L 204.959563 169.004647 
L 204.95776 169.633444 
L 205.06973 170.278314 
L 206.776317 170.519418 
L 207.062551 169.930805 
L 207.235013 169.326119 
L 208.454864 160.691736 
L 208.344698 159.418069 
L 208.147399 158.761143 
L 207.665669 158.064034 
" clip-path="url(#p590ee0ffef)" style="fill: none; stroke: #0000ff; stroke-opacity: 0.2; stroke-width: 0.4; stroke-linecap: round"/>
   </g>
   <g id="patch_27">
    <path d="M 207.665669 158.064034 
L 207.009674 158.600407 
L 206.638111 159.176965 
L 206.179415 160.370264 
L 204.959563 169.004647 
L 204.95776 169.633444 
L 205.06973 170.278314 
L 206.776317 170.519418 
L 207.062551 169.930805 
L 207.235013 169.326119 
L 208.454864 160.691736 
L 208.344698 159.418069 
L 208.147399 158.761143 
z
" clip-path="url(#p590ee0ffef)" style="fill: #0000ff; opacity: 0.2"/>
   </g>
   <g id="line2d_59">
    <path d="M 211.541239 143.257017 
L 210.799773 143.667205 
L 210.33094 144.167878 
L 209.665906 145.259709 
L 206.919096 153.535918 
L 206.804685 154.154221 
L 206.799327 154.808718 
L 208.435121 155.351626 
L 208.822164 154.823807 
L 209.100155 154.259795 
L 211.846965 145.983586 
L 211.966734 144.710786 
L 211.890303 144.029144 
L 211.541239 143.257017 
" clip-path="url(#p590ee0ffef)" style="fill: none; stroke: #0000ff; stroke-opacity: 0.2; stroke-width: 0.4; stroke-linecap: round"/>
   </g>
   <g id="patch_28">
    <path d="M 211.541239 143.257017 
L 210.799773 143.667205 
L 210.33094 144.167878 
L 209.665906 145.259709 
L 206.919096 153.535918 
L 206.804685 154.154221 
L 206.799327 154.808718 
L 208.435121 155.351626 
L 208.822164 154.823807 
L 209.100155 154.259795 
L 211.846965 145.983586 
L 211.966734 144.710786 
L 211.890303 144.029144 
z
" clip-path="url(#p590ee0ffef)" style="fill: #0000ff; opacity: 0.2"/>
   </g>
   <g id="line2d_60">
    <path d="M 215.986439 128.781518 
L 215.248317 129.197692 
L 214.78355 129.702142 
L 214.127371 130.799318 
L 211.447612 139.09748 
L 211.338207 139.716689 
L 211.338145 140.371208 
L 212.978278 140.900862 
L 213.361038 140.36993 
L 213.634456 139.803687 
L 216.314215 131.505525 
L 216.423683 130.231797 
L 216.341739 129.550795 
L 215.986439 128.781518 
" clip-path="url(#p590ee0ffef)" style="fill: none; stroke: #0000ff; stroke-opacity: 0.2; stroke-width: 0.4; stroke-linecap: round"/>
   </g>
   <g id="patch_29">
    <path d="M 215.986439 128.781518 
L 215.248317 129.197692 
L 214.78355 129.702142 
L 214.127371 130.799318 
L 211.447612 139.09748 
L 211.338207 139.716689 
L 211.338145 140.371208 
L 212.978278 140.900862 
L 213.361038 140.36993 
L 213.634456 139.803687 
L 216.314215 131.505525 
L 216.423683 130.231797 
L 216.341739 129.550795 
z
" clip-path="url(#p590ee0ffef)" style="fill: #0000ff; opacity: 0.2"/>
   </g>
   <g id="line2d_61">
    <path d="M 219.330433 114.056569 
L 218.658178 114.572416 
L 218.268976 115.137217 
L 217.773627 116.315773 
L 216.287556 124.908339 
L 216.266324 125.53678 
L 216.358314 126.184802 
L 218.056636 126.478524 
L 218.360922 125.899037 
L 218.551986 125.299969 
L 220.038056 116.707402 
L 219.967299 115.430939 
L 219.790393 114.768231 
L 219.330433 114.056569 
" clip-path="url(#p590ee0ffef)" style="fill: none; stroke: #0000ff; stroke-opacity: 0.2; stroke-width: 0.4; stroke-linecap: round"/>
   </g>
   <g id="patch_30">
    <path d="M 219.330433 114.056569 
L 218.658178 114.572416 
L 218.268976 115.137217 
L 217.773627 116.315773 
L 216.287556 124.908339 
L 216.266324 125.53678 
L 216.358314 126.184802 
L 218.056636 126.478524 
L 218.360922 125.899037 
L 218.551986 125.299969 
L 220.038056 116.707402 
L 219.967299 115.430939 
L 219.790393 114.768231 
z
" clip-path="url(#p590ee0ffef)" style="fill: #0000ff; opacity: 0.2"/>
   </g>
   <g id="line2d_62">
    <path d="M 219.574784 99.207684 
L 219.064451 99.884136 
L 218.839976 100.532279 
L 218.676884 101.800256 
L 219.536236 110.477935 
L 219.683376 111.089276 
L 219.944859 111.689294 
L 221.660003 111.519443 
L 221.798721 110.879793 
L 221.823096 110.251466 
L 220.963743 101.573787 
L 220.555121 100.362427 
L 220.207881 99.770902 
L 219.574784 99.207684 
" clip-path="url(#p590ee0ffef)" style="fill: none; stroke: #0000ff; stroke-opacity: 0.2; stroke-width: 0.4; stroke-linecap: round"/>
   </g>
   <g id="patch_31">
    <path d="M 219.574784 99.207684 
L 219.064451 99.884136 
L 218.839976 100.532279 
L 218.676884 101.800256 
L 219.536236 110.477935 
L 219.683376 111.089276 
L 219.944859 111.689294 
L 221.660003 111.519443 
L 221.798721 110.879793 
L 221.823096 110.251466 
L 220.963743 101.573787 
L 220.555121 100.362427 
L 220.207881 99.770902 
z
" clip-path="url(#p590ee0ffef)" style="fill: #0000ff; opacity: 0.2"/>
   </g>
   <g id="line2d_63">
    <path d="M 216.099995 85.175265 
L 215.765142 85.953661 
L 215.701218 86.63659 
L 215.844297 87.906981 
L 218.742346 96.131451 
L 219.030628 96.690273 
L 219.427281 97.210909 
L 221.052849 96.638109 
L 221.035495 95.98382 
L 220.90977 95.367718 
L 218.011721 87.143247 
L 217.326786 86.06379 
L 216.848854 85.571794 
L 216.099995 85.175265 
" clip-path="url(#p590ee0ffef)" style="fill: none; stroke: #0000ff; stroke-opacity: 0.2; stroke-width: 0.4; stroke-linecap: round"/>
   </g>
   <g id="patch_32">
    <path d="M 216.099995 85.175265 
L 215.765142 85.953661 
L 215.701218 86.63659 
L 215.844297 87.906981 
L 218.742346 96.131451 
L 219.030628 96.690273 
L 219.427281 97.210909 
L 221.052849 96.638109 
L 221.035495 95.98382 
L 220.90977 95.367718 
L 218.011721 87.143247 
L 217.326786 86.06379 
L 216.848854 85.571794 
z
" clip-path="url(#p590ee0ffef)" style="fill: #0000ff; opacity: 0.2"/>
   </g>
   <g id="line2d_64">
    <path d="M 211.650093 71.503897 
L 211.319384 72.284061 
L 211.259091 72.96732 
L 211.408922 74.236933 
L 214.350656 82.445879 
L 214.641905 83.003161 
L 215.04132 83.52168 
L 216.66382 82.940246 
L 216.642987 82.286059 
L 216.513989 81.670634 
L 213.572255 73.461687 
L 212.881591 72.385886 
L 212.40105 71.896438 
L 211.650093 71.503897 
" clip-path="url(#p590ee0ffef)" style="fill: none; stroke: #0000ff; stroke-opacity: 0.2; stroke-width: 0.4; stroke-linecap: round"/>
   </g>
   <g id="patch_33">
    <path d="M 211.650093 71.503897 
L 211.319384 72.284061 
L 211.259091 72.96732 
L 211.408922 74.236933 
L 214.350656 82.445879 
L 214.641905 83.003161 
L 215.04132 83.52168 
L 216.66382 82.940246 
L 216.642987 82.286059 
L 216.513989 81.670634 
L 213.572255 73.461687 
L 212.881591 72.385886 
L 212.40105 71.896438 
z
" clip-path="url(#p590ee0ffef)" style="fill: #0000ff; opacity: 0.2"/>
   </g>
   <g id="line2d_65">
    <path d="M 208.377585 57.43264 
L 207.916499 58.143573 
L 207.738544 58.806 
L 207.665764 60.08235 
L 209.138225 68.677259 
L 209.32834 69.276629 
L 209.631707 69.856598 
L 211.330492 69.565566 
L 211.423508 68.91769 
L 211.403271 68.289216 
L 209.930811 59.694307 
L 209.437329 58.514968 
L 209.049022 57.949552 
L 208.377585 57.43264 
" clip-path="url(#p590ee0ffef)" style="fill: none; stroke: #0000ff; stroke-opacity: 0.2; stroke-width: 0.4; stroke-linecap: round"/>
   </g>
   <g id="patch_34">
    <path d="M 208.377585 57.43264 
L 207.916499 58.143573 
L 207.738544 58.806 
L 207.665764 60.08235 
L 209.138225 68.677259 
L 209.32834 69.276629 
L 209.631707 69.856598 
L 211.330492 69.565566 
L 211.423508 68.91769 
L 211.403271 68.289216 
L 209.930811 59.694307 
L 209.437329 58.514968 
L 209.049022 57.949552 
z
" clip-path="url(#p590ee0ffef)" style="fill: #0000ff; opacity: 0.2"/>
   </g>
   <g id="line2d_66">
    <path d="M 208.89993 43.236156 
L 208.226282 43.750183 
L 207.835553 44.313929 
L 207.337016 45.49114 
L 205.827701 54.079654 
L 205.804769 54.708035 
L 205.895005 55.356304 
L 207.592526 55.65462 
L 207.898378 55.075958 
L 208.091063 54.477409 
L 209.600378 45.888895 
L 209.533074 44.612245 
L 209.357962 43.94906 
L 208.89993 43.236156 
" clip-path="url(#p590ee0ffef)" style="fill: none; stroke: #ff0000; stroke-opacity: 0.2; stroke-width: 0.4; stroke-linecap: round"/>
   </g>
   <g id="patch_35">
    <path d="M 208.89993 43.236156 
L 208.226282 43.750183 
L 207.835553 44.313929 
L 207.337016 45.49114 
L 205.827701 54.079654 
L 205.804769 54.708035 
L 205.895005 55.356304 
L 207.592526 55.65462 
L 207.898378 55.075958 
L 208.091063 54.477409 
L 209.600378 45.888895 
L 209.533074 44.612245 
L 209.357962 43.94906 
z
" clip-path="url(#p590ee0ffef)" style="fill: #ff0000; opacity: 0.2"/>
   </g>
   <g id="line2d_67">
    <path d="M 206.493745 171.948058 
L 205.921071 172.572614 
L 205.635652 173.196324 
L 205.352068 174.442897 
L 205.37776 183.162985 
L 205.465771 183.785595 
L 205.668685 184.407866 
L 207.392212 184.402788 
L 207.591455 183.779332 
L 207.675796 183.156215 
L 207.650103 174.436126 
L 207.359179 173.191246 
L 207.070089 172.569228 
L 206.493745 171.948058 
" clip-path="url(#p590ee0ffef)" style="fill: none; stroke: #0000ff; stroke-opacity: 0.2; stroke-width: 0.4; stroke-linecap: round"/>
   </g>
   <g id="patch_36">
    <path d="M 206.493745 171.948058 
L 205.921071 172.572614 
L 205.635652 173.196324 
L 205.352068 174.442897 
L 205.37776 183.162985 
L 205.465771 183.785595 
L 205.668685 184.407866 
L 207.392212 184.402788 
L 207.591455 183.779332 
L 207.675796 183.156215 
L 207.650103 174.436126 
L 207.359179 173.191246 
L 207.070089 172.569228 
z
" clip-path="url(#p590ee0ffef)" style="fill: #0000ff; opacity: 0.2"/>
   </g>
   <g id="line2d_68">
    <path d="M 205.508596 157.115092 
L 205.005378 157.796853 
L 204.787705 158.447311 
L 204.637905 159.716927 
L 205.588119 168.385128 
L 205.741655 168.994894 
L 206.00941 169.59214 
L 207.722681 169.40433 
L 207.85469 168.763262 
L 207.872481 168.134714 
L 206.922266 159.466514 
L 206.500976 158.259501 
L 206.147558 157.671646 
L 205.508596 157.115092 
" clip-path="url(#p590ee0ffef)" style="fill: none; stroke: #0000ff; stroke-opacity: 0.2; stroke-width: 0.4; stroke-linecap: round"/>
   </g>
   <g id="patch_37">
    <path d="M 205.508596 157.115092 
L 205.005378 157.796853 
L 204.787705 158.447311 
L 204.637905 159.716927 
L 205.588119 168.385128 
L 205.741655 168.994894 
L 206.00941 169.59214 
L 207.722681 169.40433 
L 207.85469 168.763262 
L 207.872481 168.134714 
L 206.922266 159.466514 
L 206.500976 158.259501 
L 206.147558 157.671646 
z
" clip-path="url(#p590ee0ffef)" style="fill: #0000ff; opacity: 0.2"/>
   </g>
   <g id="line2d_69">
    <path d="M 202.235536 142.911797 
L 201.862338 143.672553 
L 201.764485 144.351451 
L 201.844125 145.627391 
L 204.329026 153.985971 
L 204.589123 154.558456 
L 204.959357 155.098197 
L 206.611432 154.607056 
L 206.626681 153.952715 
L 206.531792 153.331116 
L 204.046891 144.972536 
L 203.41656 143.86031 
L 202.963721 143.345125 
L 202.235536 142.911797 
" clip-path="url(#p590ee0ffef)" style="fill: none; stroke: #0000ff; stroke-opacity: 0.2; stroke-width: 0.4; stroke-linecap: round"/>
   </g>
   <g id="patch_38">
    <path d="M 202.235536 142.911797 
L 201.862338 143.672553 
L 201.764485 144.351451 
L 201.844125 145.627391 
L 204.329026 153.985971 
L 204.589123 154.558456 
L 204.959357 155.098197 
L 206.611432 154.607056 
L 206.626681 153.952715 
L 206.531792 153.331116 
L 204.046891 144.972536 
L 203.41656 143.86031 
L 202.963721 143.345125 
z
" clip-path="url(#p590ee0ffef)" style="fill: #0000ff; opacity: 0.2"/>
   </g>
   <g id="line2d_70">
    <path d="M 198.163051 129.076137 
L 197.814815 129.848637 
L 197.739113 130.530361 
L 197.860245 131.803032 
L 200.615917 140.076295 
L 200.894512 140.640009 
L 201.28212 141.167413 
L 202.917332 140.622754 
L 202.911273 139.968263 
L 202.796199 139.350083 
L 200.040527 131.07682 
L 199.374325 129.985702 
L 198.904956 129.485531 
L 198.163051 129.076137 
" clip-path="url(#p590ee0ffef)" style="fill: none; stroke: #0000ff; stroke-opacity: 0.2; stroke-width: 0.4; stroke-linecap: round"/>
   </g>
   <g id="patch_39">
    <path d="M 198.163051 129.076137 
L 197.814815 129.848637 
L 197.739113 130.530361 
L 197.860245 131.803032 
L 200.615917 140.076295 
L 200.894512 140.640009 
L 201.28212 141.167413 
L 202.917332 140.622754 
L 202.911273 139.968263 
L 202.796199 139.350083 
L 200.040527 131.07682 
L 199.374325 129.985702 
L 198.904956 129.485531 
z
" clip-path="url(#p590ee0ffef)" style="fill: #0000ff; opacity: 0.2"/>
   </g>
   <g id="line2d_71">
    <path d="M 194.517365 115.103688 
L 194.101212 115.841823 
L 193.964641 116.514003 
L 193.971079 117.79241 
L 195.973223 126.279578 
L 196.200108 126.866018 
L 196.538825 127.426076 
L 198.216315 127.030352 
L 198.269012 126.377958 
L 198.209877 125.751946 
L 196.207733 117.264778 
L 195.642131 116.118279 
L 195.219539 115.578007 
L 194.517365 115.103688 
" clip-path="url(#p590ee0ffef)" style="fill: none; stroke: #0000ff; stroke-opacity: 0.2; stroke-width: 0.4; stroke-linecap: round"/>
   </g>
   <g id="patch_40">
    <path d="M 194.517365 115.103688 
L 194.101212 115.841823 
L 193.964641 116.514003 
L 193.971079 117.79241 
L 195.973223 126.279578 
L 196.200108 126.866018 
L 196.538825 127.426076 
L 198.216315 127.030352 
L 198.269012 126.377958 
L 198.209877 125.751946 
L 196.207733 117.264778 
L 195.642131 116.118279 
L 195.219539 115.578007 
z
" clip-path="url(#p590ee0ffef)" style="fill: #0000ff; opacity: 0.2"/>
   </g>
   <g id="line2d_72">
    <path d="M 193.295621 100.876104 
L 192.717001 101.495154 
L 192.42563 102.116106 
L 192.130137 103.35991 
L 192.072433 112.079846 
L 192.154486 112.703268 
L 192.351439 113.327451 
L 194.074935 113.338857 
L 194.280132 112.717335 
L 194.370428 112.095052 
L 194.428132 103.375117 
L 194.149126 102.127511 
L 193.865999 101.502758 
L 193.295621 100.876104 
" clip-path="url(#p590ee0ffef)" style="fill: none; stroke: #0000ff; stroke-opacity: 0.2; stroke-width: 0.4; stroke-linecap: round"/>
   </g>
   <g id="patch_41">
    <path d="M 193.295621 100.876104 
L 192.717001 101.495154 
L 192.42563 102.116106 
L 192.130137 103.35991 
L 192.072433 112.079846 
L 192.154486 112.703268 
L 192.351439 113.327451 
L 194.074935 113.338857 
L 194.280132 112.717335 
L 194.370428 112.095052 
L 194.428132 103.375117 
L 194.149126 102.127511 
L 193.865999 101.502758 
z
" clip-path="url(#p590ee0ffef)" style="fill: #0000ff; opacity: 0.2"/>
   </g>
   <g id="line2d_73">
    <path d="M 195.816289 87.556592 
L 195.081334 87.978335 
L 194.620395 88.486285 
L 193.972531 89.588391 
L 191.355591 97.906577 
L 191.250872 98.526595 
L 191.255758 99.181096 
L 192.899849 99.698335 
L 193.278584 99.164523 
L 193.547713 98.596229 
L 196.164652 90.278042 
L 196.264486 89.003523 
L 196.177395 88.323161 
L 195.816289 87.556592 
" clip-path="url(#p590ee0ffef)" style="fill: none; stroke: #0000ff; stroke-opacity: 0.2; stroke-width: 0.4; stroke-linecap: round"/>
   </g>
   <g id="patch_42">
    <path d="M 195.816289 87.556592 
L 195.081334 87.978335 
L 194.620395 88.486285 
L 193.972531 89.588391 
L 191.355591 97.906577 
L 191.250872 98.526595 
L 191.255758 99.181096 
L 192.899849 99.698335 
L 193.278584 99.164523 
L 193.547713 98.596229 
L 196.164652 90.278042 
L 196.264486 89.003523 
L 196.177395 88.323161 
z
" clip-path="url(#p590ee0ffef)" style="fill: #0000ff; opacity: 0.2"/>
   </g>
   <g id="line2d_74">
    <path d="M 200.129438 75.249946 
L 199.350118 75.582639 
L 198.832819 76.033062 
L 198.060244 77.051636 
L 194.486377 85.005759 
L 194.309708 85.609229 
L 194.237847 86.259792 
L 195.809981 86.966167 
L 196.248673 86.480426 
L 196.582556 85.947593 
L 200.156423 77.99347 
L 200.404953 76.739437 
L 200.398207 76.053556 
L 200.129438 75.249946 
" clip-path="url(#p590ee0ffef)" style="fill: none; stroke: #0000ff; stroke-opacity: 0.2; stroke-width: 0.4; stroke-linecap: round"/>
   </g>
   <g id="patch_43">
    <path d="M 200.129438 75.249946 
L 199.350118 75.582639 
L 198.832819 76.033062 
L 198.060244 77.051636 
L 194.486377 85.005759 
L 194.309708 85.609229 
L 194.237847 86.259792 
L 195.809981 86.966167 
L 196.248673 86.480426 
L 196.582556 85.947593 
L 200.156423 77.99347 
L 200.404953 76.739437 
L 200.398207 76.053556 
z
" clip-path="url(#p590ee0ffef)" style="fill: #0000ff; opacity: 0.2"/>
   </g>
   <g id="line2d_75">
    <path d="M 205.223794 63.177372 
L 204.439405 63.497934 
L 203.915181 63.940277 
L 203.126896 64.946742 
L 199.430051 72.844459 
L 199.24404 73.445116 
L 199.162095 74.094485 
L 200.72308 74.825167 
L 201.169255 74.34629 
L 201.511365 73.818702 
L 205.208209 65.920984 
L 205.476166 64.670959 
L 205.480062 63.985056 
L 205.223794 63.177372 
" clip-path="url(#p590ee0ffef)" style="fill: none; stroke: #0000ff; stroke-opacity: 0.2; stroke-width: 0.4; stroke-linecap: round"/>
   </g>
   <g id="patch_44">
    <path d="M 205.223794 63.177372 
L 204.439405 63.497934 
L 203.915181 63.940277 
L 203.126896 64.946742 
L 199.430051 72.844459 
L 199.24404 73.445116 
L 199.162095 74.094485 
L 200.72308 74.825167 
L 201.169255 74.34629 
L 201.511365 73.818702 
L 205.208209 65.920984 
L 205.476166 64.670959 
L 205.480062 63.985056 
z
" clip-path="url(#p590ee0ffef)" style="fill: #0000ff; opacity: 0.2"/>
   </g>
   <g id="line2d_76">
    <path d="M 209.949625 50.774032 
L 209.195038 51.15955 
L 208.709951 51.644492 
L 208.009279 52.713801 
L 204.991074 60.894941 
L 204.856338 61.509135 
L 204.829403 62.1631 
L 206.446406 62.759648 
L 206.850643 62.244879 
L 207.147079 61.690339 
L 210.165283 53.5092 
L 210.326955 52.241041 
L 210.27304 51.557249 
L 209.949625 50.774032 
" clip-path="url(#p590ee0ffef)" style="fill: none; stroke: #0000ff; stroke-opacity: 0.2; stroke-width: 0.4; stroke-linecap: round"/>
   </g>
   <g id="patch_45">
    <path d="M 209.949625 50.774032 
L 209.195038 51.15955 
L 208.709951 51.644492 
L 208.009279 52.713801 
L 204.991074 60.894941 
L 204.856338 61.509135 
L 204.829403 62.1631 
L 206.446406 62.759648 
L 206.850643 62.244879 
L 207.147079 61.690339 
L 210.165283 53.5092 
L 210.326955 52.241041 
L 210.27304 51.557249 
z
" clip-path="url(#p590ee0ffef)" style="fill: #0000ff; opacity: 0.2"/>
   </g>
   <g id="line2d_77">
    <path d="M 212.934223 37.802548 
L 212.269778 38.328417 
L 211.889089 38.898991 
L 211.411467 40.084842 
L 210.054407 48.698725 
L 210.042601 49.327414 
L 210.144297 49.973984 
L 211.846833 50.242207 
L 212.142395 49.658222 
L 212.324454 49.056356 
L 213.681515 40.442473 
L 213.591625 39.167214 
L 213.404802 38.507233 
L 212.934223 37.802548 
" clip-path="url(#p590ee0ffef)" style="fill: none; stroke: #ff0000; stroke-opacity: 0.2; stroke-width: 0.4; stroke-linecap: round"/>
   </g>
   <g id="patch_46">
    <path d="M 212.934223 37.802548 
L 212.269778 38.328417 
L 211.889089 38.898991 
L 211.411467 40.084842 
L 210.054407 48.698725 
L 210.042601 49.327414 
L 210.144297 49.973984 
L 211.846833 50.242207 
L 212.142395 49.658222 
L 212.324454 49.056356 
L 213.681515 40.442473 
L 213.591625 39.167214 
L 213.404802 38.507233 
z
" clip-path="url(#p590ee0ffef)" style="fill: #ff0000; opacity: 0.2"/>
   </g>
   <g id="line2d_78">
    <path d="M 206.515141 173.643568 
L 205.94063 174.266435 
L 205.653374 174.889301 
L 205.366118 176.135033 
L 205.366118 184.855159 
L 205.452295 185.478025 
L 205.653374 186.100892 
L 207.376908 186.100892 
L 207.577987 185.478025 
L 207.664164 184.855159 
L 207.664164 176.135033 
L 207.376908 174.889301 
L 207.089653 174.266435 
L 206.515141 173.643568 
" clip-path="url(#p590ee0ffef)" style="fill: none; stroke: #0000ff; stroke-opacity: 0.2; stroke-width: 0.4; stroke-linecap: round"/>
   </g>
   <g id="patch_47">
    <path d="M 206.515141 173.643568 
L 205.94063 174.266435 
L 205.653374 174.889301 
L 205.366118 176.135033 
L 205.366118 184.855159 
L 205.452295 185.478025 
L 205.653374 186.100892 
L 207.376908 186.100892 
L 207.577987 185.478025 
L 207.664164 184.855159 
L 207.664164 176.135033 
L 207.376908 174.889301 
L 207.089653 174.266435 
z
" clip-path="url(#p590ee0ffef)" style="fill: #0000ff; opacity: 0.2"/>
   </g>
   <g id="line2d_79">
    <path d="M 205.641363 157.766512 
L 205.135506 158.446317 
L 204.915313 159.095927 
L 204.760592 160.364953 
L 205.677196 169.036771 
L 205.828367 169.647128 
L 206.093804 170.245408 
L 207.80779 170.064241 
L 207.942284 169.423689 
L 207.962511 168.795215 
L 207.045907 160.123397 
L 206.629299 158.91476 
L 206.278163 158.325539 
L 205.641363 157.766512 
" clip-path="url(#p590ee0ffef)" style="fill: none; stroke: #0000ff; stroke-opacity: 0.2; stroke-width: 0.4; stroke-linecap: round"/>
   </g>
   <g id="patch_48">
    <path d="M 205.641363 157.766512 
L 205.135506 158.446317 
L 204.915313 159.095927 
L 204.760592 160.364953 
L 205.677196 169.036771 
L 205.828367 169.647128 
L 206.093804 170.245408 
L 207.80779 170.064241 
L 207.942284 169.423689 
L 207.962511 168.795215 
L 207.045907 160.123397 
L 206.629299 158.91476 
L 206.278163 158.325539 
z
" clip-path="url(#p590ee0ffef)" style="fill: #0000ff; opacity: 0.2"/>
   </g>
   <g id="line2d_80">
    <path d="M 202.272677 142.439552 
L 201.889855 143.19551 
L 201.783395 143.873112 
L 201.846838 145.14996 
L 204.225472 153.5394 
L 204.478283 154.115139 
L 204.841639 154.659535 
L 206.499813 154.189398 
L 206.523364 153.535303 
L 206.436371 152.91255 
L 204.057737 144.52311 
L 203.441569 143.402975 
L 202.995305 142.882085 
L 202.272677 142.439552 
" clip-path="url(#p590ee0ffef)" style="fill: none; stroke: #0000ff; stroke-opacity: 0.2; stroke-width: 0.4; stroke-linecap: round"/>
   </g>
   <g id="patch_49">
    <path d="M 202.272677 142.439552 
L 201.889855 143.19551 
L 201.783395 143.873112 
L 201.846838 145.14996 
L 204.225472 153.5394 
L 204.478283 154.115139 
L 204.841639 154.659535 
L 206.499813 154.189398 
L 206.523364 153.535303 
L 206.436371 152.91255 
L 204.057737 144.52311 
L 203.441569 143.402975 
L 202.995305 142.882085 
z
" clip-path="url(#p590ee0ffef)" style="fill: #0000ff; opacity: 0.2"/>
   </g>
   <g id="line2d_81">
    <path d="M 198.760828 127.239733 
L 198.333087 127.971213 
L 198.185933 128.641157 
L 198.172213 129.919506 
L 200.040277 138.43719 
L 200.257886 139.027135 
L 200.58773 139.592464 
L 202.271251 139.223241 
L 202.334229 138.571759 
L 202.284972 137.944892 
L 200.416908 129.427208 
L 199.869455 128.271934 
L 199.455435 127.725065 
L 198.760828 127.239733 
" clip-path="url(#p590ee0ffef)" style="fill: none; stroke: #0000ff; stroke-opacity: 0.2; stroke-width: 0.4; stroke-linecap: round"/>
   </g>
   <g id="patch_50">
    <path d="M 198.760828 127.239733 
L 198.333087 127.971213 
L 198.185933 128.641157 
L 198.172213 129.919506 
L 200.040277 138.43719 
L 200.257886 139.027135 
L 200.58773 139.592464 
L 202.271251 139.223241 
L 202.334229 138.571759 
L 202.284972 137.944892 
L 200.416908 129.427208 
L 199.869455 128.271934 
L 199.455435 127.725065 
z
" clip-path="url(#p590ee0ffef)" style="fill: #0000ff; opacity: 0.2"/>
   </g>
   <g id="line2d_82">
    <path d="M 197.621254 111.78426 
L 197.033379 112.394529 
L 196.732692 113.011024 
L 196.418507 114.250238 
L 196.229527 122.968317 
L 196.302185 123.592904 
L 196.489718 124.219982 
L 198.212848 124.257334 
L 198.427378 123.638971 
L 198.527033 123.018119 
L 198.716013 114.300041 
L 198.455822 113.048376 
L 198.182132 112.419431 
L 197.621254 111.78426 
" clip-path="url(#p590ee0ffef)" style="fill: none; stroke: #0000ff; stroke-opacity: 0.2; stroke-width: 0.4; stroke-linecap: round"/>
   </g>
   <g id="patch_51">
    <path d="M 197.621254 111.78426 
L 197.033379 112.394529 
L 196.732692 113.011024 
L 196.418507 114.250238 
L 196.229527 122.968317 
L 196.302185 123.592904 
L 196.489718 124.219982 
L 198.212848 124.257334 
L 198.427378 123.638971 
L 198.527033 123.018119 
L 198.716013 114.300041 
L 198.455822 113.048376 
L 198.182132 112.419431 
z
" clip-path="url(#p590ee0ffef)" style="fill: #0000ff; opacity: 0.2"/>
   </g>
   <g id="line2d_83">
    <path d="M 200.692144 97.05167 
L 199.949654 97.460001 
L 199.479569 97.959499 
L 198.811805 99.049662 
L 196.044288 107.31897 
L 195.92833 107.936985 
L 195.921333 108.591467 
L 197.555763 109.138467 
L 197.944127 108.611619 
L 198.223528 108.048304 
L 200.991045 99.778996 
L 201.113999 98.5065 
L 201.039274 97.824668 
L 200.692144 97.05167 
" clip-path="url(#p590ee0ffef)" style="fill: none; stroke: #0000ff; stroke-opacity: 0.2; stroke-width: 0.4; stroke-linecap: round"/>
   </g>
   <g id="patch_52">
    <path d="M 200.692144 97.05167 
L 199.949654 97.460001 
L 199.479569 97.959499 
L 198.811805 99.049662 
L 196.044288 107.31897 
L 195.92833 107.936985 
L 195.921333 108.591467 
L 197.555763 109.138467 
L 197.944127 108.611619 
L 198.223528 108.048304 
L 200.991045 99.778996 
L 201.113999 98.5065 
L 201.039274 97.824668 
z
" clip-path="url(#p590ee0ffef)" style="fill: #0000ff; opacity: 0.2"/>
   </g>
   <g id="line2d_84">
    <path d="M 205.790235 83.251097 
L 205.012895 83.588393 
L 204.498269 84.041867 
L 203.731732 85.064992 
L 200.20497 93.040113 
L 200.031872 93.644618 
L 199.96386 94.295593 
L 201.540144 94.992659 
L 201.975956 94.504331 
L 202.306681 93.969533 
L 205.833444 85.994413 
L 206.074553 84.738932 
L 206.063751 84.053103 
L 205.790235 83.251097 
" clip-path="url(#p590ee0ffef)" style="fill: none; stroke: #0000ff; stroke-opacity: 0.2; stroke-width: 0.4; stroke-linecap: round"/>
   </g>
   <g id="patch_53">
    <path d="M 205.790235 83.251097 
L 205.012895 83.588393 
L 204.498269 84.041867 
L 203.731732 85.064992 
L 200.20497 93.040113 
L 200.031872 93.644618 
L 199.96386 94.295593 
L 201.540144 94.992659 
L 201.975956 94.504331 
L 202.306681 93.969533 
L 205.833444 85.994413 
L 206.074553 84.738932 
L 206.063751 84.053103 
z
" clip-path="url(#p590ee0ffef)" style="fill: #0000ff; opacity: 0.2"/>
   </g>
   <g id="line2d_85">
    <path d="M 211.149649 69.499792 
L 210.388822 69.872845 
L 209.895824 70.349742 
L 209.177657 71.407382 
L 206.025285 79.537766 
L 205.880465 80.149662 
L 205.842775 80.803094 
L 207.449747 81.426161 
L 207.862397 80.91811 
L 208.167915 80.368522 
L 211.320286 72.238137 
L 211.502796 70.972809 
L 211.460137 70.288223 
L 211.149649 69.499792 
" clip-path="url(#p590ee0ffef)" style="fill: none; stroke: #0000ff; stroke-opacity: 0.2; stroke-width: 0.4; stroke-linecap: round"/>
   </g>
   <g id="patch_54">
    <path d="M 211.149649 69.499792 
L 210.388822 69.872845 
L 209.895824 70.349742 
L 209.177657 71.407382 
L 206.025285 79.537766 
L 205.880465 80.149662 
L 205.842775 80.803094 
L 207.449747 81.426161 
L 207.862397 80.91811 
L 208.167915 80.368522 
L 211.320286 72.238137 
L 211.502796 70.972809 
L 211.460137 70.288223 
z
" clip-path="url(#p590ee0ffef)" style="fill: #0000ff; opacity: 0.2"/>
   </g>
   <g id="line2d_86">
    <path d="M 214.785564 55.131815 
L 214.113682 55.648149 
L 213.724889 56.213231 
L 213.230393 57.392145 
L 211.750538 65.985784 
L 211.72976 66.61424 
L 211.822219 67.262196 
L 213.520753 67.554689 
L 213.824619 66.974982 
L 214.01525 66.375775 
L 215.495105 57.782136 
L 215.423423 56.505725 
L 215.246038 55.843144 
L 214.785564 55.131815 
" clip-path="url(#p590ee0ffef)" style="fill: none; stroke: #0000ff; stroke-opacity: 0.2; stroke-width: 0.4; stroke-linecap: round"/>
   </g>
   <g id="patch_55">
    <path d="M 214.785564 55.131815 
L 214.113682 55.648149 
L 213.724889 56.213231 
L 213.230393 57.392145 
L 211.750538 65.985784 
L 211.72976 66.61424 
L 211.822219 67.262196 
L 213.520753 67.554689 
L 213.824619 66.974982 
L 214.01525 66.375775 
L 215.495105 57.782136 
L 215.423423 56.505725 
L 215.246038 55.843144 
z
" clip-path="url(#p590ee0ffef)" style="fill: #0000ff; opacity: 0.2"/>
   </g>
   <g id="line2d_87">
    <path d="M 214.317433 40.607268 
L 213.859776 41.320413 
L 213.685013 41.983689 
L 213.618381 43.260375 
L 215.132217 51.848093 
L 215.325216 52.446541 
L 215.631373 53.025041 
L 217.328737 52.725832 
L 217.418632 52.077515 
L 217.395369 51.449146 
L 215.881533 42.861428 
L 215.382377 41.68448 
L 214.991352 41.120939 
L 214.317433 40.607268 
" clip-path="url(#p590ee0ffef)" style="fill: none; stroke: #ff0000; stroke-opacity: 0.2; stroke-width: 0.4; stroke-linecap: round"/>
   </g>
   <g id="patch_56">
    <path d="M 214.317433 40.607268 
L 213.859776 41.320413 
L 213.685013 41.983689 
L 213.618381 43.260375 
L 215.132217 51.848093 
L 215.325216 52.446541 
L 215.631373 53.025041 
L 217.328737 52.725832 
L 217.418632 52.077515 
L 217.395369 51.449146 
L 215.881533 42.861428 
L 215.382377 41.68448 
L 214.991352 41.120939 
z
" clip-path="url(#p590ee0ffef)" style="fill: #ff0000; opacity: 0.2"/>
   </g>
   <g id="line2d_88">
    <path d="M 206.515141 173.643568 
L 205.94063 174.266435 
L 205.653374 174.889301 
L 205.366118 176.135033 
L 205.366118 184.855159 
L 205.452295 185.478025 
L 205.653374 186.100892 
L 207.376908 186.100892 
L 207.577987 185.478025 
L 207.664164 184.855159 
L 207.664164 176.135033 
L 207.376908 174.889301 
L 207.089653 174.266435 
L 206.515141 173.643568 
" clip-path="url(#p590ee0ffef)" style="fill: none; stroke: #0000ff; stroke-opacity: 0.2; stroke-width: 0.4; stroke-linecap: round"/>
   </g>
   <g id="patch_57">
    <path d="M 206.515141 173.643568 
L 205.94063 174.266435 
L 205.653374 174.889301 
L 205.366118 176.135033 
L 205.366118 184.855159 
L 205.452295 185.478025 
L 205.653374 186.100892 
L 207.376908 186.100892 
L 207.577987 185.478025 
L 207.664164 184.855159 
L 207.664164 176.135033 
L 207.376908 174.889301 
L 207.089653 174.266435 
z
" clip-path="url(#p590ee0ffef)" style="fill: #0000ff; opacity: 0.2"/>
   </g>
   <g id="line2d_89">
    <path d="M 205.842353 159.008305 
L 205.322956 159.677821 
L 205.089771 160.322882 
L 204.909615 161.588547 
L 205.652013 170.277013 
L 205.790905 170.890281 
L 206.044283 171.493767 
L 207.761559 171.347032 
L 207.90888 170.709308 
L 207.941715 170.081367 
L 207.199318 161.3929 
L 206.807048 160.176147 
L 206.467807 159.579998 
L 205.842353 159.008305 
" clip-path="url(#p590ee0ffef)" style="fill: none; stroke: #0000ff; stroke-opacity: 0.2; stroke-width: 0.4; stroke-linecap: round"/>
   </g>
   <g id="patch_58">
    <path d="M 205.842353 159.008305 
L 205.322956 159.677821 
L 205.089771 160.322882 
L 204.909615 161.588547 
L 205.652013 170.277013 
L 205.790905 170.890281 
L 206.044283 171.493767 
L 207.761559 171.347032 
L 207.90888 170.709308 
L 207.941715 170.081367 
L 207.199318 161.3929 
L 206.807048 160.176147 
L 206.467807 159.579998 
z
" clip-path="url(#p590ee0ffef)" style="fill: #0000ff; opacity: 0.2"/>
   </g>
   <g id="line2d_90">
    <path d="M 203.068739 144.84121 
L 202.672256 145.590094 
L 202.553513 146.265652 
L 202.593766 147.543441 
L 204.819711 155.974678 
L 205.062028 156.554912 
L 205.415442 157.105815 
L 207.081877 156.665856 
L 207.117299 156.012297 
L 207.041625 155.388067 
L 204.81568 146.956829 
L 204.219948 145.825693 
L 203.783213 145.296788 
L 203.068739 144.84121 
" clip-path="url(#p590ee0ffef)" style="fill: none; stroke: #0000ff; stroke-opacity: 0.2; stroke-width: 0.4; stroke-linecap: round"/>
   </g>
   <g id="patch_59">
    <path d="M 203.068739 144.84121 
L 202.672256 145.590094 
L 202.553513 146.265652 
L 202.593766 147.543441 
L 204.819711 155.974678 
L 205.062028 156.554912 
L 205.415442 157.105815 
L 207.081877 156.665856 
L 207.117299 156.012297 
L 207.041625 155.388067 
L 204.81568 146.956829 
L 204.219948 145.825693 
L 203.783213 145.296788 
z
" clip-path="url(#p590ee0ffef)" style="fill: #0000ff; opacity: 0.2"/>
   </g>
   <g id="line2d_91">
    <path d="M 199.816672 130.911097 
L 199.404941 131.651706 
L 199.272391 132.324691 
L 199.286475 133.603037 
L 201.339334 142.07808 
L 201.569722 142.663153 
L 201.911782 143.221176 
L 203.586876 142.815428 
L 203.635671 142.162731 
L 203.572793 141.537083 
L 201.519933 133.062039 
L 200.947485 131.918943 
L 200.52167 131.381208 
L 199.816672 130.911097 
" clip-path="url(#p590ee0ffef)" style="fill: none; stroke: #0000ff; stroke-opacity: 0.2; stroke-width: 0.4; stroke-linecap: round"/>
   </g>
   <g id="patch_60">
    <path d="M 199.816672 130.911097 
L 199.404941 131.651706 
L 199.272391 132.324691 
L 199.286475 133.603037 
L 201.339334 142.07808 
L 201.569722 142.663153 
L 201.911782 143.221176 
L 203.586876 142.815428 
L 203.635671 142.162731 
L 203.572793 141.537083 
L 201.519933 133.062039 
L 200.947485 131.918943 
L 200.52167 131.381208 
z
" clip-path="url(#p590ee0ffef)" style="fill: #0000ff; opacity: 0.2"/>
   </g>
   <g id="line2d_92">
    <path d="M 198.219995 116.789703 
L 197.671513 117.435607 
L 197.410045 118.069731 
L 197.174123 119.326196 
L 197.531764 128.038985 
L 197.643414 128.657793 
L 197.86987 129.271888 
L 199.591954 129.2012 
L 199.767318 128.570611 
L 199.827877 127.944735 
L 199.470235 119.231946 
L 199.132129 117.999043 
L 198.819569 117.388482 
L 198.219995 116.789703 
" clip-path="url(#p590ee0ffef)" style="fill: none; stroke: #0000ff; stroke-opacity: 0.2; stroke-width: 0.4; stroke-linecap: round"/>
   </g>
   <g id="patch_61">
    <path d="M 198.219995 116.789703 
L 197.671513 117.435607 
L 197.410045 118.069731 
L 197.174123 119.326196 
L 197.531764 128.038985 
L 197.643414 128.657793 
L 197.86987 129.271888 
L 199.591954 129.2012 
L 199.767318 128.570611 
L 199.827877 127.944735 
L 199.470235 119.231946 
L 199.132129 117.999043 
L 198.819569 117.388482 
z
" clip-path="url(#p590ee0ffef)" style="fill: #0000ff; opacity: 0.2"/>
   </g>
   <g id="line2d_93">
    <path d="M 200.368955 103.156571 
L 199.644047 103.595358 
L 199.195092 104.113931 
L 198.573136 105.230862 
L 196.151116 113.60788 
L 196.0609 114.230174 
L 196.081066 114.884382 
L 197.736785 115.363095 
L 198.102953 114.820586 
L 198.358741 114.246163 
L 200.780761 105.869146 
L 200.850811 104.592644 
L 200.74786 103.9145 
L 200.368955 103.156571 
" clip-path="url(#p590ee0ffef)" style="fill: none; stroke: #0000ff; stroke-opacity: 0.2; stroke-width: 0.4; stroke-linecap: round"/>
   </g>
   <g id="patch_62">
    <path d="M 200.368955 103.156571 
L 199.644047 103.595358 
L 199.195092 104.113931 
L 198.573136 105.230862 
L 196.151116 113.60788 
L 196.0609 114.230174 
L 196.081066 114.884382 
L 197.736785 115.363095 
L 198.102953 114.820586 
L 198.358741 114.246163 
L 200.780761 105.869146 
L 200.850811 104.592644 
L 200.74786 103.9145 
z
" clip-path="url(#p590ee0ffef)" style="fill: #0000ff; opacity: 0.2"/>
   </g>
   <g id="line2d_94">
    <path d="M 204.805248 90.532429 
L 204.027921 90.869753 
L 203.513311 91.323245 
L 202.74681 92.346398 
L 199.220333 100.321645 
L 199.047257 100.926155 
L 198.979268 101.577134 
L 200.555577 102.274143 
L 200.991371 101.7858 
L 201.322077 101.25099 
L 204.848555 93.275743 
L 205.08962 92.020254 
L 205.078793 91.334426 
L 204.805248 90.532429 
" clip-path="url(#p590ee0ffef)" style="fill: none; stroke: #0000ff; stroke-opacity: 0.2; stroke-width: 0.4; stroke-linecap: round"/>
   </g>
   <g id="patch_63">
    <path d="M 204.805248 90.532429 
L 204.027921 90.869753 
L 203.513311 91.323245 
L 202.74681 92.346398 
L 199.220333 100.321645 
L 199.047257 100.926155 
L 198.979268 101.577134 
L 200.555577 102.274143 
L 200.991371 101.7858 
L 201.322077 101.25099 
L 204.848555 93.275743 
L 205.08962 92.020254 
L 205.078793 91.334426 
z
" clip-path="url(#p590ee0ffef)" style="fill: #0000ff; opacity: 0.2"/>
   </g>
   <g id="line2d_95">
    <path d="M 209.950178 78.235556 
L 209.169348 78.564691 
L 208.65 79.012748 
L 207.872787 80.027788 
L 204.262673 87.965525 
L 204.083252 88.568184 
L 204.008425 89.218411 
L 205.57732 89.931951 
L 206.018223 89.448216 
L 206.354533 88.916912 
L 209.964647 80.979174 
L 210.218895 79.726288 
L 210.215278 79.040384 
L 209.950178 78.235556 
" clip-path="url(#p590ee0ffef)" style="fill: none; stroke: #0000ff; stroke-opacity: 0.2; stroke-width: 0.4; stroke-linecap: round"/>
   </g>
   <g id="patch_64">
    <path d="M 209.950178 78.235556 
L 209.169348 78.564691 
L 208.65 79.012748 
L 207.872787 80.027788 
L 204.262673 87.965525 
L 204.083252 88.568184 
L 204.008425 89.218411 
L 205.57732 89.931951 
L 206.018223 89.448216 
L 206.354533 88.916912 
L 209.964647 80.979174 
L 210.218895 79.726288 
L 210.215278 79.040384 
z
" clip-path="url(#p590ee0ffef)" style="fill: #0000ff; opacity: 0.2"/>
   </g>
   <g id="line2d_96">
    <path d="M 214.629731 65.665022 
L 213.8838 66.067033 
L 213.40949 66.56252 
L 212.73249 67.646972 
L 209.894836 75.892475 
L 209.773633 76.509483 
L 209.761078 77.163881 
L 211.390803 77.724744 
L 211.783627 77.201213 
L 212.067803 76.640292 
L 214.905456 68.394789 
L 215.039215 67.123383 
L 214.970283 66.440941 
L 214.629731 65.665022 
" clip-path="url(#p590ee0ffef)" style="fill: none; stroke: #0000ff; stroke-opacity: 0.2; stroke-width: 0.4; stroke-linecap: round"/>
   </g>
   <g id="patch_65">
    <path d="M 214.629731 65.665022 
L 213.8838 66.067033 
L 213.40949 66.56252 
L 212.73249 67.646972 
L 209.894836 75.892475 
L 209.773633 76.509483 
L 209.761078 77.163881 
L 211.390803 77.724744 
L 211.783627 77.201213 
L 212.067803 76.640292 
L 214.905456 68.394789 
L 215.039215 67.123383 
L 214.970283 66.440941 
z
" clip-path="url(#p590ee0ffef)" style="fill: #0000ff; opacity: 0.2"/>
   </g>
   <g id="line2d_97">
    <path d="M 217.351566 52.535507 
L 216.705061 53.083282 
L 216.343648 53.666256 
L 215.905912 54.867402 
L 214.837398 63.521816 
L 214.846603 64.150548 
L 214.969844 64.79336 
L 216.68039 65.004551 
L 216.956276 64.411018 
L 217.118126 63.803405 
L 218.18664 55.148991 
L 218.054194 53.877448 
L 217.845425 53.224077 
L 217.351566 52.535507 
" clip-path="url(#p590ee0ffef)" style="fill: none; stroke: #0000ff; stroke-opacity: 0.2; stroke-width: 0.4; stroke-linecap: round"/>
   </g>
   <g id="patch_66">
    <path d="M 217.351566 52.535507 
L 216.705061 53.083282 
L 216.343648 53.666256 
L 215.905912 54.867402 
L 214.837398 63.521816 
L 214.846603 64.150548 
L 214.969844 64.79336 
L 216.68039 65.004551 
L 216.956276 64.411018 
L 217.118126 63.803405 
L 218.18664 55.148991 
L 218.054194 53.877448 
L 217.845425 53.224077 
z
" clip-path="url(#p590ee0ffef)" style="fill: #0000ff; opacity: 0.2"/>
   </g>
   <g id="line2d_98">
    <path d="M 216.682942 39.416104 
L 216.2252 40.129195 
L 216.050358 40.792451 
L 215.983574 42.069128 
L 217.496383 50.657027 
L 217.689311 51.255498 
L 217.995399 51.834035 
L 219.692798 51.535028 
L 219.782771 50.886722 
L 219.759583 50.258351 
L 218.246773 41.670452 
L 217.747758 40.493444 
L 217.3568 39.929857 
L 216.682942 39.416104 
" clip-path="url(#p590ee0ffef)" style="fill: none; stroke: #ff0000; stroke-opacity: 0.2; stroke-width: 0.4; stroke-linecap: round"/>
   </g>
   <g id="patch_67">
    <path d="M 216.682942 39.416104 
L 216.2252 40.129195 
L 216.050358 40.792451 
L 215.983574 42.069128 
L 217.496383 50.657027 
L 217.689311 51.255498 
L 217.995399 51.834035 
L 219.692798 51.535028 
L 219.782771 50.886722 
L 219.759583 50.258351 
L 218.246773 41.670452 
L 217.747758 40.493444 
L 217.3568 39.929857 
z
" clip-path="url(#p590ee0ffef)" style="fill: #ff0000; opacity: 0.2"/>
   </g>
  </g>
  <g id="text_20">
   <!-- zigzag 10/10 -->
   <g style="fill: #262626" transform="translate(168.510265 8.96524) scale(0.08 -0.08)">
    <defs>
     <path id="DejaVuSerif-7a" d="M 256 0 
L 256 269 
L 2338 2988 
L 691 2988 
L 691 2413 
L 359 2413 
L 359 3322 
L 3078 3322 
L 3078 3053 
L 997 331 
L 2803 331 
L 2803 934 
L 3138 934 
L 3138 0 
L 256 0 
z
" transform="scale(0.015625)"/>
     <path id="DejaVuSerif-67" d="M 3359 2988 
L 3359 72 
Q 3359 -644 2965 -1033 
Q 2572 -1422 1844 -1422 
Q 1516 -1422 1216 -1362 
Q 916 -1303 641 -1184 
L 641 -488 
L 941 -488 
Q 997 -813 1206 -963 
Q 1416 -1113 1806 -1113 
Q 2313 -1113 2548 -827 
Q 2784 -541 2784 72 
L 2784 519 
Q 2616 206 2355 57 
Q 2094 -91 1709 -91 
Q 1097 -91 708 395 
Q 319 881 319 1663 
Q 319 2444 706 2928 
Q 1094 3413 1709 3413 
Q 2094 3413 2355 3264 
Q 2616 3116 2784 2803 
L 2784 3322 
L 3909 3322 
L 3909 2988 
L 3359 2988 
z
M 2784 1825 
Q 2784 2422 2554 2737 
Q 2325 3053 1888 3053 
Q 1444 3053 1217 2703 
Q 991 2353 991 1663 
Q 991 975 1217 622 
Q 1444 269 1888 269 
Q 2325 269 2554 583 
Q 2784 897 2784 1497 
L 2784 1825 
z
" transform="scale(0.015625)"/>
     <path id="DejaVuSerif-2f" d="M 1656 4666 
L 2156 4666 
L 500 -594 
L 0 -594 
L 1656 4666 
z
" transform="scale(0.015625)"/>
    </defs>
    <use xlink:href="#DejaVuSerif-7a"/>
    <use xlink:href="#DejaVuSerif-69" x="52.685547"/>
    <use xlink:href="#DejaVuSerif-67" x="84.667969"/>
    <use xlink:href="#DejaVuSerif-7a" x="148.681641"/>
    <use xlink:href="#DejaVuSerif-61" x="201.367188"/>
    <use xlink:href="#DejaVuSerif-67" x="260.986328"/>
    <use xlink:href="#DejaVuSerif-20" x="325"/>
    <use xlink:href="#DejaVuSerif-31" x="356.787109"/>
    <use xlink:href="#DejaVuSerif-30" x="420.410156"/>
    <use xlink:href="#DejaVuSerif-2f" x="484.033203"/>
    <use xlink:href="#DejaVuSerif-31" x="517.724609"/>
    <use xlink:href="#DejaVuSerif-30" x="581.347656"/>
   </g>
  </g>
 </g>
 <defs>
  <clipPath id="p590ee0ffef">
   <rect x="27.454928" y="28.82197" width="358.164112" height="164.768394"/>
  </clipPath>
 </defs>
</svg>
