<?xml version="1.0" encoding="utf-8" standalone="no"?>
<!DOCTYPE svg PUBLIC "-//W3C//DTD SVG 1.1//EN"
  "http://www.w3.org/Graphics/SVG/1.1/DTD/svg11.dtd">
<svg xmlns:xlink="http://www.w3.org/1999/xlink" width="210.912921pt" height="137.452464pt" viewBox="0 0 210.912921 137.452464" xmlns="http://www.w3.org/2000/svg" version="1.1">
 <metadata>
  <rdf:RDF xmlns:dc="http://purl.org/dc/elements/1.1/" xmlns:cc="http://creativecommons.org/ns#" xmlns:rdf="http://www.w3.org/1999/02/22-rdf-syntax-ns#">
   <cc:Work>
    <dc:type rdf:resource="http://purl.org/dc/dcmitype/StillImage"/>
    <dc:date>2025-04-15T09:24:08.470632</dc:date>
    <dc:format>image/svg+xml</dc:format>
    <dc:creator>
     <cc:Agent>
      <dc:title>Matplotlib v3.8.2, https://matplotlib.org/</dc:title>
     </cc:Agent>
    </dc:creator>
   </cc:Work>
  </rdf:RDF>
 </metadata>
 <defs>
  <style type="text/css">*{stroke-linejoin: round; stroke-linecap: butt}</style>
 </defs>
 <g id="figure_1">
  <g id="patch_1">
   <path d="M 0 137.452464 
L 210.912921 137.452464 
L 210.912921 0 
L 0 0 
z
" style="fill: #ffffff"/>
  </g>
  <g id="axes_1">
   <g id="patch_2">
    <path d="M 35.413281 62.310125 
L 109.258101 62.310125 
L 109.258101 21.889349 
L 35.413281 21.889349 
z
" style="fill: #ffffff"/>
   </g>
   <g id="matplotlib.axis_1">
    <g id="xtick_1">
     <g id="line2d_1"/>
    </g>
    <g id="xtick_2">
     <g id="line2d_2"/>
    </g>
   </g>
   <g id="matplotlib.axis_2">
    <g id="ytick_1">
     <g id="line2d_3"/>
     <g id="text_1">
      <!-- 0.0 -->
      <g style="fill: #262626" transform="translate(20.781094 64.969578) scale(0.07 -0.07)">
       <defs>
        <path id="DejaVuSerif-30" d="M 2034 219 
Q 2513 219 2750 744 
Q 2988 1269 2988 2328 
Q 2988 3391 2750 3916 
Q 2513 4441 2034 4441 
Q 1556 4441 1318 3916 
Q 1081 3391 1081 2328 
Q 1081 1269 1318 744 
Q 1556 219 2034 219 
z
M 2034 -91 
Q 1275 -91 848 546 
Q 422 1184 422 2328 
Q 422 3475 848 4112 
Q 1275 4750 2034 4750 
Q 2797 4750 3222 4112 
Q 3647 3475 3647 2328 
Q 3647 1184 3222 546 
Q 2797 -91 2034 -91 
z
" transform="scale(0.015625)"/>
        <path id="DejaVuSerif-2e" d="M 603 325 
Q 603 500 722 622 
Q 841 744 1019 744 
Q 1191 744 1312 622 
Q 1434 500 1434 325 
Q 1434 153 1312 31 
Q 1191 -91 1019 -91 
Q 841 -91 722 29 
Q 603 150 603 325 
z
" transform="scale(0.015625)"/>
       </defs>
       <use xlink:href="#DejaVuSerif-30"/>
       <use xlink:href="#DejaVuSerif-2e" x="63.623047"/>
       <use xlink:href="#DejaVuSerif-30" x="95.410156"/>
      </g>
     </g>
    </g>
    <g id="ytick_2">
     <g id="line2d_4"/>
     <g id="text_2">
      <!-- 0.5 -->
      <g style="fill: #262626" transform="translate(20.781094 44.058617) scale(0.07 -0.07)">
       <defs>
        <path id="DejaVuSerif-35" d="M 3219 4666 
L 3219 4153 
L 1081 4153 
L 1081 2816 
Q 1244 2928 1461 2984 
Q 1678 3041 1947 3041 
Q 2703 3041 3140 2622 
Q 3578 2203 3578 1478 
Q 3578 738 3136 323 
Q 2694 -91 1894 -91 
Q 1572 -91 1234 -12 
Q 897 66 544 225 
L 544 1131 
L 897 1131 
Q 925 688 1179 453 
Q 1434 219 1894 219 
Q 2388 219 2653 544 
Q 2919 869 2919 1478 
Q 2919 2084 2655 2407 
Q 2391 2731 1894 2731 
Q 1613 2731 1398 2631 
Q 1184 2531 1019 2322 
L 750 2322 
L 750 4666 
L 3219 4666 
z
" transform="scale(0.015625)"/>
       </defs>
       <use xlink:href="#DejaVuSerif-30"/>
       <use xlink:href="#DejaVuSerif-2e" x="63.623047"/>
       <use xlink:href="#DejaVuSerif-35" x="95.410156"/>
      </g>
     </g>
    </g>
    <g id="text_3">
     <!-- $V$ [m/s] -->
     <g style="fill: #262626" transform="translate(15.533281 52.869737) rotate(-90) scale(0.06 -0.06)">
      <defs>
       <path id="DejaVuSans-Oblique-56" d="M 1319 0 
L 500 4666 
L 1119 4666 
L 1797 653 
L 4063 4666 
L 4750 4666 
L 2053 0 
L 1319 0 
z
" transform="scale(0.015625)"/>
       <path id="DejaVuSerif-20" transform="scale(0.015625)"/>
       <path id="DejaVuSerif-5b" d="M 550 4863 
L 2003 4863 
L 2003 4531 
L 1147 4531 
L 1147 -513 
L 2003 -513 
L 2003 -844 
L 550 -844 
L 550 4863 
z
" transform="scale(0.015625)"/>
       <path id="DejaVuSerif-6d" d="M 3316 2675 
Q 3481 3041 3739 3227 
Q 3997 3413 4341 3413 
Q 4863 3413 5119 3089 
Q 5375 2766 5375 2113 
L 5375 331 
L 5894 331 
L 5894 0 
L 4300 0 
L 4300 331 
L 4800 331 
L 4800 2047 
Q 4800 2556 4650 2772 
Q 4500 2988 4153 2988 
Q 3769 2988 3567 2697 
Q 3366 2406 3366 1850 
L 3366 331 
L 3866 331 
L 3866 0 
L 2291 0 
L 2291 331 
L 2791 331 
L 2791 2069 
Q 2791 2566 2641 2777 
Q 2491 2988 2144 2988 
Q 1759 2988 1557 2697 
Q 1356 2406 1356 1850 
L 1356 331 
L 1856 331 
L 1856 0 
L 263 0 
L 263 331 
L 781 331 
L 781 2994 
L 231 2994 
L 231 3322 
L 1356 3322 
L 1356 2731 
Q 1516 3063 1762 3238 
Q 2009 3413 2322 3413 
Q 2709 3413 2968 3220 
Q 3228 3028 3316 2675 
z
" transform="scale(0.015625)"/>
       <path id="DejaVuSerif-2f" d="M 1656 4666 
L 2156 4666 
L 500 -594 
L 0 -594 
L 1656 4666 
z
" transform="scale(0.015625)"/>
       <path id="DejaVuSerif-73" d="M 359 184 
L 359 959 
L 691 959 
Q 703 588 923 403 
Q 1144 219 1575 219 
Q 1963 219 2166 364 
Q 2369 509 2369 788 
Q 2369 1006 2220 1140 
Q 2072 1275 1594 1428 
L 1178 1569 
Q 750 1706 558 1912 
Q 366 2119 366 2438 
Q 366 2894 700 3153 
Q 1034 3413 1625 3413 
Q 1888 3413 2178 3344 
Q 2469 3275 2778 3144 
L 2778 2419 
L 2447 2419 
Q 2434 2741 2221 2922 
Q 2009 3103 1644 3103 
Q 1281 3103 1095 2975 
Q 909 2847 909 2591 
Q 909 2381 1050 2254 
Q 1191 2128 1613 1997 
L 2069 1856 
Q 2541 1709 2748 1489 
Q 2956 1269 2956 922 
Q 2956 450 2595 179 
Q 2234 -91 1600 -91 
Q 1278 -91 972 -22 
Q 666 47 359 184 
z
" transform="scale(0.015625)"/>
       <path id="DejaVuSerif-5d" d="M 1947 4863 
L 1947 -844 
L 494 -844 
L 494 -513 
L 1350 -513 
L 1350 4531 
L 494 4531 
L 494 4863 
L 1947 4863 
z
" transform="scale(0.015625)"/>
      </defs>
      <use xlink:href="#DejaVuSans-Oblique-56" transform="translate(0 0.015625)"/>
      <use xlink:href="#DejaVuSerif-20" transform="translate(68.408203 0.015625)"/>
      <use xlink:href="#DejaVuSerif-5b" transform="translate(100.195312 0.015625)"/>
      <use xlink:href="#DejaVuSerif-6d" transform="translate(139.208984 0.015625)"/>
      <use xlink:href="#DejaVuSerif-2f" transform="translate(234.033203 0.015625)"/>
      <use xlink:href="#DejaVuSerif-73" transform="translate(267.724609 0.015625)"/>
      <use xlink:href="#DejaVuSerif-5d" transform="translate(319.042969 0.015625)"/>
     </g>
    </g>
   </g>
   <g id="line2d_5">
    <path d="M 38.769864 22.397221 
L 41.059509 22.543715 
L 45.263449 23.4058 
L 48.735452 24.267791 
L 53.314743 25.469311 
L 55.510551 26.143137 
L 56.749211 26.455815 
L 58.738575 26.679567 
L 65.23216 27.203413 
L 68.197439 27.701756 
L 72.38261 28.611522 
L 79.45799 30.282677 
L 82.929993 31.115276 
L 84.224957 31.311447 
L 85.951575 31.358343 
L 88.485199 31.192564 
L 93.383539 30.884748 
L 96.011001 30.995822 
L 99.933426 31.363748 
L 103.912154 32.017842 
L 105.901519 32.369328 
L 105.901519 32.369328 
" clip-path="url(#pb60820d871)" style="fill: none; stroke: #0000ff; stroke-width: 0.4; stroke-linecap: round"/>
   </g>
   <g id="patch_3">
    <path d="M 35.413281 62.310125 
L 35.413281 21.889349 
" style="fill: none; stroke: #000000; stroke-linejoin: miter; stroke-linecap: square"/>
   </g>
   <g id="patch_4">
    <path d="M 35.413281 62.310125 
L 109.258101 62.310125 
" style="fill: none; stroke: #000000; stroke-linejoin: miter; stroke-linecap: square"/>
   </g>
   <g id="legend_1">
    <g id="line2d_6">
     <path d="M 57.12586 12.868906 
L 64.12586 12.868906 
L 71.12586 12.868906 
" style="fill: none; stroke: #000000; stroke-width: 0.7; stroke-linecap: round"/>
    </g>
    <g id="text_4">
     <!-- FRMT -->
     <g style="fill: #262626" transform="translate(76.72586 15.318906) scale(0.07 -0.07)">
      <defs>
       <path id="DejaVuSerif-46" d="M 353 0 
L 353 331 
L 947 331 
L 947 4331 
L 353 4331 
L 353 4666 
L 4172 4666 
L 4172 3628 
L 3788 3628 
L 3788 4281 
L 1581 4281 
L 1581 2719 
L 3175 2719 
L 3175 3303 
L 3559 3303 
L 3559 1753 
L 3175 1753 
L 3175 2338 
L 1581 2338 
L 1581 331 
L 2328 331 
L 2328 0 
L 353 0 
z
" transform="scale(0.015625)"/>
       <path id="DejaVuSerif-52" d="M 3066 2316 
Q 3284 2256 3442 2114 
Q 3600 1972 3725 1716 
L 4403 331 
L 4972 331 
L 4972 0 
L 3872 0 
L 3144 1484 
Q 2934 1916 2759 2042 
Q 2584 2169 2278 2169 
L 1581 2169 
L 1581 331 
L 2241 331 
L 2241 0 
L 353 0 
L 353 331 
L 947 331 
L 947 4331 
L 353 4331 
L 353 4666 
L 2719 4666 
Q 3400 4666 3770 4341 
Q 4141 4016 4141 3419 
Q 4141 2938 3870 2661 
Q 3600 2384 3066 2316 
z
M 1581 2503 
L 2503 2503 
Q 2975 2503 3200 2726 
Q 3425 2950 3425 3419 
Q 3425 3888 3200 4109 
Q 2975 4331 2503 4331 
L 1581 4331 
L 1581 2503 
z
" transform="scale(0.015625)"/>
       <path id="DejaVuSerif-4d" d="M 353 0 
L 353 331 
L 947 331 
L 947 4331 
L 319 4331 
L 319 4666 
L 1678 4666 
L 3316 1344 
L 4953 4666 
L 6228 4666 
L 6228 4331 
L 5606 4331 
L 5606 331 
L 6203 331 
L 6203 0 
L 4378 0 
L 4378 331 
L 4972 331 
L 4972 3938 
L 3372 684 
L 2931 684 
L 1331 3938 
L 1331 331 
L 1925 331 
L 1925 0 
L 353 0 
z
" transform="scale(0.015625)"/>
       <path id="DejaVuSerif-54" d="M 1222 0 
L 1222 331 
L 1819 331 
L 1819 4294 
L 447 4294 
L 447 3566 
L 63 3566 
L 63 4666 
L 4206 4666 
L 4206 3566 
L 3822 3566 
L 3822 4294 
L 2450 4294 
L 2450 331 
L 3047 331 
L 3047 0 
L 1222 0 
z
" transform="scale(0.015625)"/>
      </defs>
      <use xlink:href="#DejaVuSerif-46"/>
      <use xlink:href="#DejaVuSerif-52" x="69.384766"/>
      <use xlink:href="#DejaVuSerif-4d" x="144.677734"/>
      <use xlink:href="#DejaVuSerif-54" x="247.070312"/>
     </g>
    </g>
    <g id="line2d_7">
     <path d="M 112.690548 12.868906 
L 119.690548 12.868906 
L 126.690548 12.868906 
" style="fill: none; stroke: #0000ff; stroke-width: 0.4; stroke-linecap: round"/>
    </g>
    <g id="text_5">
     <!-- model -->
     <g style="fill: #262626" transform="translate(132.290548 15.318906) scale(0.07 -0.07)">
      <defs>
       <path id="DejaVuSerif-6f" d="M 1925 219 
Q 2388 219 2623 584 
Q 2859 950 2859 1663 
Q 2859 2375 2623 2739 
Q 2388 3103 1925 3103 
Q 1463 3103 1227 2739 
Q 991 2375 991 1663 
Q 991 950 1228 584 
Q 1466 219 1925 219 
z
M 1925 -91 
Q 1200 -91 759 389 
Q 319 869 319 1663 
Q 319 2456 758 2934 
Q 1197 3413 1925 3413 
Q 2653 3413 3092 2934 
Q 3531 2456 3531 1663 
Q 3531 869 3092 389 
Q 2653 -91 1925 -91 
z
" transform="scale(0.015625)"/>
       <path id="DejaVuSerif-64" d="M 3359 331 
L 3909 331 
L 3909 0 
L 2784 0 
L 2784 519 
Q 2616 206 2355 57 
Q 2094 -91 1709 -91 
Q 1097 -91 708 395 
Q 319 881 319 1663 
Q 319 2444 706 2928 
Q 1094 3413 1709 3413 
Q 2094 3413 2355 3264 
Q 2616 3116 2784 2803 
L 2784 4531 
L 2241 4531 
L 2241 4863 
L 3359 4863 
L 3359 331 
z
M 2784 1497 
L 2784 1825 
Q 2784 2422 2554 2737 
Q 2325 3053 1888 3053 
Q 1444 3053 1217 2703 
Q 991 2353 991 1663 
Q 991 975 1217 622 
Q 1444 269 1888 269 
Q 2325 269 2554 583 
Q 2784 897 2784 1497 
z
" transform="scale(0.015625)"/>
       <path id="DejaVuSerif-65" d="M 3469 1600 
L 991 1600 
L 991 1575 
Q 991 903 1244 561 
Q 1497 219 1991 219 
Q 2369 219 2611 417 
Q 2853 616 2950 1006 
L 3413 1006 
Q 3275 459 2904 184 
Q 2534 -91 1931 -91 
Q 1203 -91 761 389 
Q 319 869 319 1663 
Q 319 2450 753 2931 
Q 1188 3413 1894 3413 
Q 2647 3413 3050 2948 
Q 3453 2484 3469 1600 
z
M 2791 1931 
Q 2772 2513 2545 2808 
Q 2319 3103 1894 3103 
Q 1497 3103 1269 2806 
Q 1041 2509 991 1931 
L 2791 1931 
z
" transform="scale(0.015625)"/>
       <path id="DejaVuSerif-6c" d="M 1313 331 
L 1856 331 
L 1856 0 
L 184 0 
L 184 331 
L 738 331 
L 738 4531 
L 184 4531 
L 184 4863 
L 1313 4863 
L 1313 331 
z
" transform="scale(0.015625)"/>
      </defs>
      <use xlink:href="#DejaVuSerif-6d"/>
      <use xlink:href="#DejaVuSerif-6f" x="94.824219"/>
      <use xlink:href="#DejaVuSerif-64" x="155.029297"/>
      <use xlink:href="#DejaVuSerif-65" x="219.042969"/>
      <use xlink:href="#DejaVuSerif-6c" x="278.222656"/>
     </g>
    </g>
   </g>
   <g id="line2d_8">
    <path d="M 38.769864 22.397212 
L 41.753901 22.595887 
L 46.276915 23.415689 
L 48.566542 23.90387 
L 50.405769 24.402194 
L 55.078919 25.529516 
L 60.33382 26.248839 
L 64.819275 26.486503 
L 66.527127 26.513061 
L 69.867754 26.8298 
L 70.76865 26.86355 
L 73.865302 27.435595 
L 76.605323 27.858032 
L 78.519622 28.190793 
L 80.978165 28.648992 
L 87.133944 29.693553 
L 91.825863 29.909112 
L 94.190558 29.764159 
L 98.263141 29.510179 
L 100.890571 29.407922 
L 105.882749 29.478623 
L 105.882749 29.478623 
" clip-path="url(#pb60820d871)" style="fill: none; stroke: #000000; stroke-width: 0.7; stroke-linecap: round"/>
   </g>
  </g>
  <g id="axes_2">
   <g id="patch_5">
    <path d="M 129.868101 62.310125 
L 203.712921 62.310125 
L 203.712921 21.889349 
L 129.868101 21.889349 
z
" style="fill: #ffffff"/>
   </g>
   <g id="matplotlib.axis_3">
    <g id="xtick_3">
     <g id="line2d_9"/>
    </g>
    <g id="xtick_4">
     <g id="line2d_10"/>
    </g>
   </g>
   <g id="matplotlib.axis_4">
    <g id="ytick_3">
     <g id="line2d_11"/>
     <g id="text_6">
      <!-- −10 -->
      <g style="fill: #262626" transform="translate(111.59482 57.851074) scale(0.07 -0.07)">
       <defs>
        <path id="DejaVuSerif-2212" d="M 678 2259 
L 4684 2259 
L 4684 1753 
L 678 1753 
L 678 2259 
z
" transform="scale(0.015625)"/>
        <path id="DejaVuSerif-31" d="M 909 0 
L 909 331 
L 1722 331 
L 1722 4213 
L 781 3603 
L 781 4013 
L 1919 4750 
L 2350 4750 
L 2350 331 
L 3163 331 
L 3163 0 
L 909 0 
z
" transform="scale(0.015625)"/>
       </defs>
       <use xlink:href="#DejaVuSerif-2212"/>
       <use xlink:href="#DejaVuSerif-31" x="83.789062"/>
       <use xlink:href="#DejaVuSerif-30" x="147.412109"/>
      </g>
     </g>
    </g>
    <g id="ytick_4">
     <g id="line2d_12"/>
     <g id="text_7">
      <!-- 0 -->
      <g style="fill: #262626" transform="translate(121.914351 44.849886) scale(0.07 -0.07)">
       <use xlink:href="#DejaVuSerif-30"/>
      </g>
     </g>
    </g>
    <g id="ytick_5">
     <g id="line2d_13"/>
     <g id="text_8">
      <!-- 10 -->
      <g style="fill: #262626" transform="translate(117.460601 31.848699) scale(0.07 -0.07)">
       <use xlink:href="#DejaVuSerif-31"/>
       <use xlink:href="#DejaVuSerif-30" x="63.623047"/>
      </g>
     </g>
    </g>
    <g id="text_9">
     <!-- $\beta$ [deg] -->
     <g style="fill: #262626" transform="translate(106.21482 52.929737) rotate(-90) scale(0.06 -0.06)">
      <defs>
       <path id="DejaVuSans-Oblique-3b2" d="M 872 216 
L 572 -1331 
L -6 -1331 
L 928 3478 
Q 1206 4903 2538 4903 
Q 3888 4903 3659 3700 
Q 3503 2844 2894 2531 
Q 3713 2250 3553 1416 
Q 3272 -69 1759 -66 
Q 1097 -63 872 216 
z
M 1019 966 
Q 1259 422 1875 425 
Q 2775 425 2966 1406 
Q 3138 2288 1675 2219 
L 1778 2750 
Q 2909 2731 3106 3750 
Q 3241 4438 2509 4434 
Q 1691 4434 1503 3459 
L 1019 966 
z
" transform="scale(0.015625)"/>
       <path id="DejaVuSerif-67" d="M 3359 2988 
L 3359 72 
Q 3359 -644 2965 -1033 
Q 2572 -1422 1844 -1422 
Q 1516 -1422 1216 -1362 
Q 916 -1303 641 -1184 
L 641 -488 
L 941 -488 
Q 997 -813 1206 -963 
Q 1416 -1113 1806 -1113 
Q 2313 -1113 2548 -827 
Q 2784 -541 2784 72 
L 2784 519 
Q 2616 206 2355 57 
Q 2094 -91 1709 -91 
Q 1097 -91 708 395 
Q 319 881 319 1663 
Q 319 2444 706 2928 
Q 1094 3413 1709 3413 
Q 2094 3413 2355 3264 
Q 2616 3116 2784 2803 
L 2784 3322 
L 3909 3322 
L 3909 2988 
L 3359 2988 
z
M 2784 1825 
Q 2784 2422 2554 2737 
Q 2325 3053 1888 3053 
Q 1444 3053 1217 2703 
Q 991 2353 991 1663 
Q 991 975 1217 622 
Q 1444 269 1888 269 
Q 2325 269 2554 583 
Q 2784 897 2784 1497 
L 2784 1825 
z
" transform="scale(0.015625)"/>
      </defs>
      <use xlink:href="#DejaVuSans-Oblique-3b2" transform="translate(0 0.390625)"/>
      <use xlink:href="#DejaVuSerif-20" transform="translate(63.818359 0.390625)"/>
      <use xlink:href="#DejaVuSerif-5b" transform="translate(95.605469 0.390625)"/>
      <use xlink:href="#DejaVuSerif-64" transform="translate(134.619141 0.390625)"/>
      <use xlink:href="#DejaVuSerif-65" transform="translate(198.632812 0.390625)"/>
      <use xlink:href="#DejaVuSerif-67" transform="translate(257.8125 0.390625)"/>
      <use xlink:href="#DejaVuSerif-5d" transform="translate(321.826172 0.390625)"/>
     </g>
    </g>
   </g>
   <g id="line2d_14">
    <path d="M 133.224684 42.190433 
L 133.881549 42.079795 
L 134.519647 41.743998 
L 135.19528 41.122983 
L 135.964752 40.086815 
L 140.037318 34.227446 
L 141.914076 31.961372 
L 143.678229 30.170353 
L 145.254706 28.860884 
L 145.855269 28.661168 
L 146.437064 28.696483 
L 147.037627 28.959762 
L 147.71326 29.516713 
L 148.463964 30.439394 
L 149.308505 31.854849 
L 150.303187 34.013699 
L 154.413288 43.156704 
L 156.252512 46.582103 
L 157.997897 49.338211 
L 159.818353 51.787107 
L 161.563739 53.740709 
L 163.42173 55.463911 
L 165.20465 56.835533 
L 167.325387 58.191076 
L 169.464892 59.312763 
L 172.036051 60.396481 
L 172.655382 60.467183 
L 173.255945 60.302716 
L 173.91281 59.878067 
L 174.663514 59.102108 
L 175.489287 57.909694 
L 176.390131 56.20284 
L 177.478651 53.615895 
L 181.269704 44.476318 
L 183.202765 40.406207 
L 185.004453 37.094595 
L 186.674768 34.477481 
L 188.307548 32.3075 
L 189.996631 30.417696 
L 191.87339 28.656625 
L 193.975359 26.998532 
L 195.739512 25.883659 
L 197.93532 24.749436 
L 200.356339 23.726657 
L 200.356339 23.726657 
" clip-path="url(#p8e266d6caa)" style="fill: none; stroke: #0000ff; stroke-width: 0.4; stroke-linecap: round"/>
   </g>
   <g id="patch_6">
    <path d="M 129.868101 62.310125 
L 129.868101 21.889349 
" style="fill: none; stroke: #000000; stroke-linejoin: miter; stroke-linecap: square"/>
   </g>
   <g id="patch_7">
    <path d="M 129.868101 62.310125 
L 203.712921 62.310125 
" style="fill: none; stroke: #000000; stroke-linejoin: miter; stroke-linecap: square"/>
   </g>
   <g id="line2d_15">
    <path d="M 133.224684 42.141944 
L 133.900315 41.996729 
L 134.613528 41.607489 
L 135.345429 40.951017 
L 136.358869 39.695713 
L 140.825554 34.200287 
L 142.777398 32.188729 
L 144.898136 30.324805 
L 146.812439 28.913535 
L 147.450518 28.656743 
L 148.069871 28.637506 
L 148.651641 28.837853 
L 149.270974 29.296113 
L 150.002908 30.128705 
L 150.847505 31.444601 
L 151.804596 33.367131 
L 154.244376 38.428164 
L 156.365125 42.349926 
L 158.204343 45.263191 
L 159.705768 47.243239 
L 161.939098 49.736879 
L 163.778317 51.50831 
L 166.480855 53.687196 
L 168.188698 54.865083 
L 170.328201 56.072154 
L 172.505266 57.077087 
L 175.545603 58.18626 
L 177.478672 58.659158 
L 179.674453 58.949406 
L 180.275095 58.73388 
L 180.950662 58.231783 
L 181.720131 57.360293 
L 182.583472 56.015553 
L 183.615654 53.966437 
L 188.157415 44.222784 
L 189.996639 41.049437 
L 191.516804 38.844815 
L 193.168357 36.857567 
L 194.894977 35.119499 
L 197.015708 33.310215 
L 199.549351 31.406176 
L 200.337569 30.852016 
L 200.337569 30.852016 
" clip-path="url(#p8e266d6caa)" style="fill: none; stroke: #000000; stroke-width: 0.7; stroke-linecap: round"/>
   </g>
  </g>
  <g id="axes_3">
   <g id="patch_8">
    <path d="M 35.413281 110.170901 
L 109.258101 110.170901 
L 109.258101 69.750125 
L 35.413281 69.750125 
z
" style="fill: #ffffff"/>
   </g>
   <g id="matplotlib.axis_5">
    <g id="xtick_5">
     <g id="line2d_16"/>
     <g id="text_10">
      <!-- 0 -->
      <g style="fill: #262626" transform="translate(36.542989 118.989807) scale(0.07 -0.07)">
       <use xlink:href="#DejaVuSerif-30"/>
      </g>
     </g>
    </g>
    <g id="xtick_6">
     <g id="line2d_17"/>
     <g id="text_11">
      <!-- 20 -->
      <g style="fill: #262626" transform="translate(71.851286 118.989807) scale(0.07 -0.07)">
       <defs>
        <path id="DejaVuSerif-32" d="M 819 3553 
L 469 3553 
L 469 4384 
Q 803 4563 1142 4656 
Q 1481 4750 1806 4750 
Q 2534 4750 2956 4397 
Q 3378 4044 3378 3438 
Q 3378 2753 2422 1800 
Q 2347 1728 2309 1691 
L 1131 513 
L 3078 513 
L 3078 1088 
L 3444 1088 
L 3444 0 
L 434 0 
L 434 341 
L 1850 1753 
Q 2319 2222 2519 2614 
Q 2719 3006 2719 3438 
Q 2719 3909 2473 4175 
Q 2228 4441 1797 4441 
Q 1350 4441 1106 4219 
Q 863 3997 819 3553 
z
" transform="scale(0.015625)"/>
       </defs>
       <use xlink:href="#DejaVuSerif-32"/>
       <use xlink:href="#DejaVuSerif-30" x="63.623047"/>
      </g>
     </g>
    </g>
    <g id="text_12">
     <!-- Time [s] -->
     <g style="fill: #262626" transform="translate(59.920847 129.004651) scale(0.06 -0.06)">
      <defs>
       <path id="DejaVuSerif-69" d="M 622 4353 
Q 622 4497 726 4603 
Q 831 4709 978 4709 
Q 1122 4709 1226 4603 
Q 1331 4497 1331 4353 
Q 1331 4206 1228 4103 
Q 1125 4000 978 4000 
Q 831 4000 726 4103 
Q 622 4206 622 4353 
z
M 1356 331 
L 1900 331 
L 1900 0 
L 231 0 
L 231 331 
L 781 331 
L 781 2988 
L 231 2988 
L 231 3322 
L 1356 3322 
L 1356 331 
z
" transform="scale(0.015625)"/>
      </defs>
      <use xlink:href="#DejaVuSerif-54"/>
      <use xlink:href="#DejaVuSerif-69" x="66.699219"/>
      <use xlink:href="#DejaVuSerif-6d" x="98.681641"/>
      <use xlink:href="#DejaVuSerif-65" x="193.505859"/>
      <use xlink:href="#DejaVuSerif-20" x="252.685547"/>
      <use xlink:href="#DejaVuSerif-5b" x="284.472656"/>
      <use xlink:href="#DejaVuSerif-73" x="323.486328"/>
      <use xlink:href="#DejaVuSerif-5d" x="374.804688"/>
     </g>
    </g>
   </g>
   <g id="matplotlib.axis_6">
    <g id="ytick_6">
     <g id="line2d_18"/>
     <g id="text_13">
      <!-- −20 -->
      <g style="fill: #262626" transform="translate(17.14 110.953246) scale(0.07 -0.07)">
       <use xlink:href="#DejaVuSerif-2212"/>
       <use xlink:href="#DejaVuSerif-32" x="83.789062"/>
       <use xlink:href="#DejaVuSerif-30" x="147.412109"/>
      </g>
     </g>
    </g>
    <g id="ytick_7">
     <g id="line2d_19"/>
     <g id="text_14">
      <!-- 0 -->
      <g style="fill: #262626" transform="translate(27.459531 92.600936) scale(0.07 -0.07)">
       <use xlink:href="#DejaVuSerif-30"/>
      </g>
     </g>
    </g>
    <g id="ytick_8">
     <g id="line2d_20"/>
     <g id="text_15">
      <!-- 20 -->
      <g style="fill: #262626" transform="translate(23.005781 74.248625) scale(0.07 -0.07)">
       <use xlink:href="#DejaVuSerif-32"/>
       <use xlink:href="#DejaVuSerif-30" x="63.623047"/>
      </g>
     </g>
    </g>
    <g id="text_16">
     <!-- $\delta$ [deg] -->
     <g style="fill: #262626" transform="translate(11.76 100.730513) rotate(-90) scale(0.06 -0.06)">
      <defs>
       <path id="DejaVuSans-Oblique-3b4" d="M 3472 4053 
Q 3197 4272 2450 4272 
Q 1659 4272 1588 3906 
Q 1531 3619 2328 3469 
Q 2953 3353 3253 3003 
Q 3616 2581 3447 1716 
Q 3284 888 2763 400 
Q 2238 -91 1488 -91 
Q 741 -91 406 400 
Q 72 888 241 1747 
Q 363 2384 891 2900 
Q 1097 3100 1353 3213 
Q 913 3459 1000 3900 
Q 1166 4750 2544 4750 
Q 3234 4750 3566 4531 
L 3472 4053 
z
M 1753 3056 
Q 1525 2966 1306 2738 
Q 969 2384 847 1747 
Q 722 1113 919 756 
Q 1119 397 1584 397 
Q 2044 397 2381 759 
Q 2722 1122 2838 1716 
Q 2956 2338 2731 2638 
Q 2491 2959 2103 2994 
Q 1906 3013 1753 3056 
z
" transform="scale(0.015625)"/>
      </defs>
      <use xlink:href="#DejaVuSans-Oblique-3b4" transform="translate(0 0.015625)"/>
      <use xlink:href="#DejaVuSerif-20" transform="translate(61.181641 0.015625)"/>
      <use xlink:href="#DejaVuSerif-5b" transform="translate(92.96875 0.015625)"/>
      <use xlink:href="#DejaVuSerif-64" transform="translate(131.982422 0.015625)"/>
      <use xlink:href="#DejaVuSerif-65" transform="translate(195.996094 0.015625)"/>
      <use xlink:href="#DejaVuSerif-67" transform="translate(255.175781 0.015625)"/>
      <use xlink:href="#DejaVuSerif-5d" transform="translate(319.189453 0.015625)"/>
     </g>
    </g>
   </g>
   <g id="line2d_21">
    <path d="M 38.769864 89.941483 
L 41.397326 108.293793 
L 50.368232 108.293793 
L 55.510551 71.589172 
L 77.487394 71.589172 
L 82.629712 108.293793 
L 105.901519 108.293793 
L 105.901519 108.293793 
" clip-path="url(#p36aa485bf4)" style="fill: none; stroke: #0000ff; stroke-width: 0.4; stroke-linecap: round"/>
   </g>
   <g id="patch_9">
    <path d="M 35.413281 110.170901 
L 35.413281 69.750125 
" style="fill: none; stroke: #000000; stroke-linejoin: miter; stroke-linecap: square"/>
   </g>
   <g id="patch_10">
    <path d="M 35.413281 110.170901 
L 109.258101 110.170901 
" style="fill: none; stroke: #000000; stroke-linejoin: miter; stroke-linecap: square"/>
   </g>
   <g id="line2d_22">
    <path d="M 38.769864 90.016887 
L 41.303514 108.333593 
L 41.341025 108.31564 
L 41.603781 108.293019 
L 52.226227 108.208638 
L 54.628476 90.665002 
L 56.242481 78.917778 
L 57.424842 71.588151 
L 84.619074 71.66176 
L 89.029485 103.84526 
L 89.686332 108.322103 
L 89.705109 108.315281 
L 90.155522 108.293019 
L 105.882749 108.293737 
L 105.882749 108.293737 
" clip-path="url(#p36aa485bf4)" style="fill: none; stroke: #000000; stroke-width: 0.7; stroke-linecap: round"/>
   </g>
  </g>
  <g id="axes_4">
   <g id="patch_11">
    <path d="M 129.868101 110.170901 
L 203.712921 110.170901 
L 203.712921 69.750125 
L 129.868101 69.750125 
z
" style="fill: #ffffff"/>
   </g>
   <g id="matplotlib.axis_7">
    <g id="xtick_7">
     <g id="line2d_23"/>
     <g id="text_17">
      <!-- 0 -->
      <g style="fill: #262626" transform="translate(130.997809 118.989807) scale(0.07 -0.07)">
       <use xlink:href="#DejaVuSerif-30"/>
      </g>
     </g>
    </g>
    <g id="xtick_8">
     <g id="line2d_24"/>
     <g id="text_18">
      <!-- 20 -->
      <g style="fill: #262626" transform="translate(166.306106 118.989807) scale(0.07 -0.07)">
       <use xlink:href="#DejaVuSerif-32"/>
       <use xlink:href="#DejaVuSerif-30" x="63.623047"/>
      </g>
     </g>
    </g>
    <g id="text_19">
     <!-- Time [s] -->
     <g style="fill: #262626" transform="translate(154.375668 129.004651) scale(0.06 -0.06)">
      <use xlink:href="#DejaVuSerif-54"/>
      <use xlink:href="#DejaVuSerif-69" x="66.699219"/>
      <use xlink:href="#DejaVuSerif-6d" x="98.681641"/>
      <use xlink:href="#DejaVuSerif-65" x="193.505859"/>
      <use xlink:href="#DejaVuSerif-20" x="252.685547"/>
      <use xlink:href="#DejaVuSerif-5b" x="284.472656"/>
      <use xlink:href="#DejaVuSerif-73" x="323.486328"/>
      <use xlink:href="#DejaVuSerif-5d" x="374.804688"/>
     </g>
    </g>
   </g>
   <g id="matplotlib.axis_8">
    <g id="ytick_9">
     <g id="line2d_25"/>
     <g id="text_20">
      <!-- −25 -->
      <g style="fill: #262626" transform="translate(111.59482 108.519389) scale(0.07 -0.07)">
       <use xlink:href="#DejaVuSerif-2212"/>
       <use xlink:href="#DejaVuSerif-32" x="83.789062"/>
       <use xlink:href="#DejaVuSerif-35" x="147.412109"/>
      </g>
     </g>
    </g>
    <g id="ytick_10">
     <g id="line2d_26"/>
     <g id="text_21">
      <!-- 0 -->
      <g style="fill: #262626" transform="translate(121.914351 92.585017) scale(0.07 -0.07)">
       <use xlink:href="#DejaVuSerif-30"/>
      </g>
     </g>
    </g>
    <g id="ytick_11">
     <g id="line2d_27"/>
     <g id="text_22">
      <!-- 25 -->
      <g style="fill: #262626" transform="translate(117.460601 76.650646) scale(0.07 -0.07)">
       <use xlink:href="#DejaVuSerif-32"/>
       <use xlink:href="#DejaVuSerif-35" x="63.623047"/>
      </g>
     </g>
    </g>
    <g id="text_23">
     <!-- $\psi$ [deg] -->
     <g style="fill: #262626" transform="translate(106.21482 100.850513) rotate(-90) scale(0.06 -0.06)">
      <defs>
       <path id="DejaVuSans-Oblique-3c8" d="M 1591 -78 
Q 891 38 616 341 
Q 278 713 425 1472 
L 819 3500 
L 1400 3500 
L 1009 1494 
Q 900 922 1119 684 
Q 1313 478 1691 434 
L 2284 3500 
L 2856 3500 
L 2263 438 
Q 2681 481 2928 688 
Q 3247 950 3353 1497 
L 3741 3500 
L 4322 3500 
L 3928 1475 
Q 3775 688 3300 344 
Q 2872 34 2163 -75 
L 1919 -1331 
L 1347 -1331 
L 1591 -78 
z
" transform="scale(0.015625)"/>
      </defs>
      <use xlink:href="#DejaVuSans-Oblique-3c8" transform="translate(0 0.015625)"/>
      <use xlink:href="#DejaVuSerif-20" transform="translate(65.966797 0.015625)"/>
      <use xlink:href="#DejaVuSerif-5b" transform="translate(97.753906 0.015625)"/>
      <use xlink:href="#DejaVuSerif-64" transform="translate(136.767578 0.015625)"/>
      <use xlink:href="#DejaVuSerif-65" transform="translate(200.78125 0.015625)"/>
      <use xlink:href="#DejaVuSerif-67" transform="translate(259.960938 0.015625)"/>
      <use xlink:href="#DejaVuSerif-5d" transform="translate(323.974609 0.015625)"/>
     </g>
    </g>
   </g>
   <g id="line2d_28">
    <path d="M 133.224684 89.925564 
L 134.763626 89.815895 
L 135.645703 89.517496 
L 136.490244 88.983182 
L 137.503694 88.064368 
L 138.779889 86.587756 
L 140.431437 84.310011 
L 142.646012 80.843304 
L 147.488049 73.120359 
L 148.407661 72.230384 
L 149.1959 71.762959 
L 149.909068 71.592061 
L 150.622236 71.657098 
L 151.44801 71.968888 
L 152.423924 72.591117 
L 153.587515 73.609086 
L 155.013851 75.16674 
L 156.759237 77.421371 
L 158.955044 80.638658 
L 161.86402 85.333189 
L 166.987571 94.091843 
L 173.762669 105.602154 
L 174.851189 106.969243 
L 175.752033 107.766674 
L 176.540272 108.185823 
L 177.272208 108.331327 
L 178.060447 108.252748 
L 178.980058 107.927225 
L 180.068578 107.292579 
L 181.326006 106.294334 
L 182.789878 104.837281 
L 184.478961 102.832077 
L 186.50586 100.059732 
L 189.114555 96.087453 
L 192.886839 89.903642 
L 200.356339 77.195979 
L 200.356339 77.195979 
" clip-path="url(#pd539ed66af)" style="fill: none; stroke: #0000ff; stroke-width: 0.4; stroke-linecap: round"/>
   </g>
   <g id="patch_12">
    <path d="M 129.868101 110.170901 
L 129.868101 69.750125 
" style="fill: none; stroke: #000000; stroke-linejoin: miter; stroke-linecap: square"/>
   </g>
   <g id="patch_13">
    <path d="M 129.868101 110.170901 
L 203.712921 110.170901 
" style="fill: none; stroke: #000000; stroke-linejoin: miter; stroke-linecap: square"/>
   </g>
   <g id="line2d_29">
    <path d="M 133.224684 89.963607 
L 134.763656 89.852627 
L 135.720773 89.554181 
L 136.659188 89.015965 
L 137.822754 88.076256 
L 139.305386 86.575979 
L 141.332279 84.185585 
L 144.109888 80.537258 
L 149.06453 73.961926 
L 150.021696 73.175233 
L 150.866237 72.756042 
L 151.635686 72.613354 
L 152.423947 72.69895 
L 153.381084 73.041775 
L 154.563422 73.717973 
L 156.008552 74.816559 
L 157.810244 76.483554 
L 160.306323 79.124442 
L 163.722017 83.084078 
L 168.620353 89.128111 
L 175.339143 97.821492 
L 180.70671 104.749316 
L 181.832726 105.802461 
L 182.771112 106.391771 
L 183.615654 106.672455 
L 184.422662 106.712121 
L 185.342283 106.523638 
L 186.505888 106.04434 
L 187.969724 105.186438 
L 189.677588 103.919222 
L 191.817085 102.032506 
L 195.063879 98.847997 
L 198.329484 95.348102 
L 200.337569 93.046371 
L 200.337569 93.046371 
" clip-path="url(#pd539ed66af)" style="fill: none; stroke: #000000; stroke-width: 0.7; stroke-linecap: round"/>
   </g>
  </g>
 </g>
 <defs>
  <clipPath id="pb60820d871">
   <rect x="35.413281" y="21.889349" width="73.84482" height="40.420776"/>
  </clipPath>
  <clipPath id="p8e266d6caa">
   <rect x="129.868101" y="21.889349" width="73.84482" height="40.420776"/>
  </clipPath>
  <clipPath id="p36aa485bf4">
   <rect x="35.413281" y="69.750125" width="73.84482" height="40.420776"/>
  </clipPath>
  <clipPath id="pd539ed66af">
   <rect x="129.868101" y="69.750125" width="73.84482" height="40.420776"/>
  </clipPath>
 </defs>
</svg>
