<?xml version="1.0" encoding="utf-8" standalone="no"?>
<!DOCTYPE svg PUBLIC "-//W3C//DTD SVG 1.1//EN"
  "http://www.w3.org/Graphics/SVG/1.1/DTD/svg11.dtd">
<svg xmlns:xlink="http://www.w3.org/1999/xlink" width="194.30964pt" height="145.748736pt" viewBox="0 0 194.30964 145.748736" xmlns="http://www.w3.org/2000/svg" version="1.1">
 <metadata>
  <rdf:RDF xmlns:dc="http://purl.org/dc/elements/1.1/" xmlns:cc="http://creativecommons.org/ns#" xmlns:rdf="http://www.w3.org/1999/02/22-rdf-syntax-ns#">
   <cc:Work>
    <dc:type rdf:resource="http://purl.org/dc/dcmitype/StillImage"/>
    <dc:date>2024-11-13T17:57:16.795166</dc:date>
    <dc:format>image/svg+xml</dc:format>
    <dc:creator>
     <cc:Agent>
      <dc:title>Matplotlib v3.8.2, https://matplotlib.org/</dc:title>
     </cc:Agent>
    </dc:creator>
   </cc:Work>
  </rdf:RDF>
 </metadata>
 <defs>
  <style type="text/css">*{stroke-linejoin: round; stroke-linecap: butt}</style>
 </defs>
 <g id="figure_1">
  <g id="patch_1">
   <path d="M 0 145.748736 
L 194.30964 145.748736 
L 194.30964 0 
L 0 0 
z
" style="fill: #ffffff"/>
  </g>
  <g id="axes_1">
   <g id="patch_2">
    <path d="M 20.61 62.283094 
L 187.809249 62.283094 
L 187.809249 7.2 
L 20.61 7.2 
z
" style="fill: #ffffff"/>
   </g>
   <g id="matplotlib.axis_1">
    <g id="xtick_1">
     <g id="line2d_1"/>
    </g>
    <g id="xtick_2">
     <g id="line2d_2"/>
    </g>
    <g id="xtick_3">
     <g id="line2d_3"/>
    </g>
    <g id="xtick_4">
     <g id="line2d_4"/>
    </g>
   </g>
   <g id="matplotlib.axis_2">
    <g id="ytick_1">
     <g id="line2d_5"/>
     <g id="text_1">
      <!-- −5 -->
      <g style="fill: #262626" transform="translate(6.790469 56.287417) scale(0.07 -0.07)">
       <defs>
        <path id="DejaVuSerif-2212" d="M 678 2259 
L 4684 2259 
L 4684 1753 
L 678 1753 
L 678 2259 
z
" transform="scale(0.015625)"/>
        <path id="DejaVuSerif-35" d="M 3219 4666 
L 3219 4153 
L 1081 4153 
L 1081 2816 
Q 1244 2928 1461 2984 
Q 1678 3041 1947 3041 
Q 2703 3041 3140 2622 
Q 3578 2203 3578 1478 
Q 3578 738 3136 323 
Q 2694 -91 1894 -91 
Q 1572 -91 1234 -12 
Q 897 66 544 225 
L 544 1131 
L 897 1131 
Q 925 688 1179 453 
Q 1434 219 1894 219 
Q 2388 219 2653 544 
Q 2919 869 2919 1478 
Q 2919 2084 2655 2407 
Q 2391 2731 1894 2731 
Q 1613 2731 1398 2631 
Q 1184 2531 1019 2322 
L 750 2322 
L 750 4666 
L 3219 4666 
z
" transform="scale(0.015625)"/>
       </defs>
       <use xlink:href="#DejaVuSerif-2212"/>
       <use xlink:href="#DejaVuSerif-35" x="83.789062"/>
      </g>
     </g>
    </g>
    <g id="ytick_2">
     <g id="line2d_6"/>
     <g id="text_2">
      <!-- 0 -->
      <g style="fill: #262626" transform="translate(12.65625 38.650139) scale(0.07 -0.07)">
       <defs>
        <path id="DejaVuSerif-30" d="M 2034 219 
Q 2513 219 2750 744 
Q 2988 1269 2988 2328 
Q 2988 3391 2750 3916 
Q 2513 4441 2034 4441 
Q 1556 4441 1318 3916 
Q 1081 3391 1081 2328 
Q 1081 1269 1318 744 
Q 1556 219 2034 219 
z
M 2034 -91 
Q 1275 -91 848 546 
Q 422 1184 422 2328 
Q 422 3475 848 4112 
Q 1275 4750 2034 4750 
Q 2797 4750 3222 4112 
Q 3647 3475 3647 2328 
Q 3647 1184 3222 546 
Q 2797 -91 2034 -91 
z
" transform="scale(0.015625)"/>
       </defs>
       <use xlink:href="#DejaVuSerif-30"/>
      </g>
     </g>
    </g>
    <g id="ytick_3">
     <g id="line2d_7"/>
     <g id="text_3">
      <!-- 5 -->
      <g style="fill: #262626" transform="translate(12.65625 21.012861) scale(0.07 -0.07)">
       <use xlink:href="#DejaVuSerif-35"/>
      </g>
     </g>
    </g>
    <g id="text_4">
     <!-- $\beta$ [deg] -->
     <g style="fill: #262626" transform="translate(1.410469 45.571547) rotate(-90) scale(0.06 -0.06)">
      <defs>
       <path id="DejaVuSans-Oblique-3b2" d="M 872 216 
L 572 -1331 
L -6 -1331 
L 928 3478 
Q 1206 4903 2538 4903 
Q 3888 4903 3659 3700 
Q 3503 2844 2894 2531 
Q 3713 2250 3553 1416 
Q 3272 -69 1759 -66 
Q 1097 -63 872 216 
z
M 1019 966 
Q 1259 422 1875 425 
Q 2775 425 2966 1406 
Q 3138 2288 1675 2219 
L 1778 2750 
Q 2909 2731 3106 3750 
Q 3241 4438 2509 4434 
Q 1691 4434 1503 3459 
L 1019 966 
z
" transform="scale(0.015625)"/>
       <path id="DejaVuSerif-20" transform="scale(0.015625)"/>
       <path id="DejaVuSerif-5b" d="M 550 4863 
L 2003 4863 
L 2003 4531 
L 1147 4531 
L 1147 -513 
L 2003 -513 
L 2003 -844 
L 550 -844 
L 550 4863 
z
" transform="scale(0.015625)"/>
       <path id="DejaVuSerif-64" d="M 3359 331 
L 3909 331 
L 3909 0 
L 2784 0 
L 2784 519 
Q 2616 206 2355 57 
Q 2094 -91 1709 -91 
Q 1097 -91 708 395 
Q 319 881 319 1663 
Q 319 2444 706 2928 
Q 1094 3413 1709 3413 
Q 2094 3413 2355 3264 
Q 2616 3116 2784 2803 
L 2784 4531 
L 2241 4531 
L 2241 4863 
L 3359 4863 
L 3359 331 
z
M 2784 1497 
L 2784 1825 
Q 2784 2422 2554 2737 
Q 2325 3053 1888 3053 
Q 1444 3053 1217 2703 
Q 991 2353 991 1663 
Q 991 975 1217 622 
Q 1444 269 1888 269 
Q 2325 269 2554 583 
Q 2784 897 2784 1497 
z
" transform="scale(0.015625)"/>
       <path id="DejaVuSerif-65" d="M 3469 1600 
L 991 1600 
L 991 1575 
Q 991 903 1244 561 
Q 1497 219 1991 219 
Q 2369 219 2611 417 
Q 2853 616 2950 1006 
L 3413 1006 
Q 3275 459 2904 184 
Q 2534 -91 1931 -91 
Q 1203 -91 761 389 
Q 319 869 319 1663 
Q 319 2450 753 2931 
Q 1188 3413 1894 3413 
Q 2647 3413 3050 2948 
Q 3453 2484 3469 1600 
z
M 2791 1931 
Q 2772 2513 2545 2808 
Q 2319 3103 1894 3103 
Q 1497 3103 1269 2806 
Q 1041 2509 991 1931 
L 2791 1931 
z
" transform="scale(0.015625)"/>
       <path id="DejaVuSerif-67" d="M 3359 2988 
L 3359 72 
Q 3359 -644 2965 -1033 
Q 2572 -1422 1844 -1422 
Q 1516 -1422 1216 -1362 
Q 916 -1303 641 -1184 
L 641 -488 
L 941 -488 
Q 997 -813 1206 -963 
Q 1416 -1113 1806 -1113 
Q 2313 -1113 2548 -827 
Q 2784 -541 2784 72 
L 2784 519 
Q 2616 206 2355 57 
Q 2094 -91 1709 -91 
Q 1097 -91 708 395 
Q 319 881 319 1663 
Q 319 2444 706 2928 
Q 1094 3413 1709 3413 
Q 2094 3413 2355 3264 
Q 2616 3116 2784 2803 
L 2784 3322 
L 3909 3322 
L 3909 2988 
L 3359 2988 
z
M 2784 1825 
Q 2784 2422 2554 2737 
Q 2325 3053 1888 3053 
Q 1444 3053 1217 2703 
Q 991 2353 991 1663 
Q 991 975 1217 622 
Q 1444 269 1888 269 
Q 2325 269 2554 583 
Q 2784 897 2784 1497 
L 2784 1825 
z
" transform="scale(0.015625)"/>
       <path id="DejaVuSerif-5d" d="M 1947 4863 
L 1947 -844 
L 494 -844 
L 494 -513 
L 1350 -513 
L 1350 4531 
L 494 4531 
L 494 4863 
L 1947 4863 
z
" transform="scale(0.015625)"/>
      </defs>
      <use xlink:href="#DejaVuSans-Oblique-3b2" transform="translate(0 0.390625)"/>
      <use xlink:href="#DejaVuSerif-20" transform="translate(63.818359 0.390625)"/>
      <use xlink:href="#DejaVuSerif-5b" transform="translate(95.605469 0.390625)"/>
      <use xlink:href="#DejaVuSerif-64" transform="translate(134.619141 0.390625)"/>
      <use xlink:href="#DejaVuSerif-65" transform="translate(198.632812 0.390625)"/>
      <use xlink:href="#DejaVuSerif-67" transform="translate(257.8125 0.390625)"/>
      <use xlink:href="#DejaVuSerif-5d" transform="translate(321.826172 0.390625)"/>
     </g>
    </g>
   </g>
   <g id="line2d_8">
    <path d="M 28.209966 35.990686 
L 28.911258 35.879662 
L 29.748283 35.497772 
L 31.987892 34.193174 
L 34.770436 32.304082 
L 38.390006 29.561278 
L 43.796739 25.153113 
L 48.230712 21.603704 
L 48.909382 21.415783 
L 49.588051 21.471956 
L 50.673922 21.836362 
L 52.913531 22.803803 
L 55.628209 24.227447 
L 59.202534 26.366432 
L 63.975842 29.494858 
L 69.812398 33.58884 
L 75.897801 38.128648 
L 82.503516 43.34348 
L 95.443478 53.637638 
L 99.492872 56.498035 
L 103.135065 58.798154 
L 104.537648 59.497996 
L 105.171073 59.53143 
L 105.82712 59.335628 
L 106.777257 58.773141 
L 116.708452 52.404398 
L 136.525598 39.258261 
L 143.538515 34.30661 
L 150.619299 29.025315 
L 165.911982 17.491347 
L 170.051865 14.73614 
L 173.580946 12.6521 
L 176.929048 10.930184 
L 178.51261 10.204952 
L 178.51261 10.204952 
" clip-path="url(#p2c7fa7effe)" style="fill: none; stroke: #bf00bf; stroke-width: 0.4; stroke-linecap: round"/>
   </g>
   <g id="line2d_9">
    <path d="M 28.209966 35.990686 
L 28.93388 35.882938 
L 29.725661 35.526433 
L 32.055759 34.178197 
L 35.019282 32.192782 
L 39.091298 29.175181 
L 48.683159 21.951581 
L 49.38445 21.880657 
L 50.085742 22.041317 
L 52.212239 22.881774 
L 54.836428 24.169413 
L 58.252397 26.107702 
L 62.889971 29.013577 
L 68.658661 32.897408 
L 74.879796 37.356924 
L 81.779602 42.589227 
L 94.154007 52.035679 
L 98.248645 54.833911 
L 101.822971 57.027811 
L 104.56027 58.484386 
L 105.261562 58.592967 
L 105.872365 58.493884 
L 106.70939 58.102905 
L 112.342346 54.771271 
L 123.563013 47.819495 
L 135.439727 40.28043 
L 142.678867 35.415567 
L 149.963251 30.242877 
L 165.550025 19.053564 
L 169.825642 16.342576 
L 173.513079 14.265043 
L 176.996915 12.554949 
L 180.209283 11.201996 
L 180.209283 11.201996 
" clip-path="url(#p2c7fa7effe)" style="fill: none; stroke: #ff0000; stroke-width: 0.4; stroke-linecap: round"/>
   </g>
   <g id="line2d_10">
    <path d="M 28.209966 35.990686 
L 28.888635 35.832869 
L 29.589927 35.428268 
L 31.467579 33.985589 
L 33.797677 31.884981 
L 36.715955 28.943241 
L 45.335056 20.021392 
L 45.991103 19.805015 
L 46.601906 19.834281 
L 47.484176 20.151411 
L 49.950008 21.272619 
L 52.777797 22.811268 
L 56.03541 24.834795 
L 60.107426 27.594491 
L 66.102339 31.926983 
L 73.929659 37.857526 
L 93.384848 52.926554 
L 97.479487 55.668375 
L 101.03119 57.785457 
L 104.085202 59.356148 
L 104.763871 59.464851 
L 105.397296 59.3437 
L 106.053343 58.986934 
L 107.998862 57.493863 
L 112.545947 53.752924 
L 117.025165 49.764912 
L 121.934206 45.121847 
L 128.200587 38.865508 
L 133.109629 33.652803 
L 147.452175 18.137497 
L 150.393075 15.428152 
L 153.198242 13.130912 
L 155.91292 11.19331 
L 158.333507 9.703777 
L 158.333507 9.703777 
" clip-path="url(#p2c7fa7effe)" style="fill: none; stroke: #0000ff; stroke-width: 0.4; stroke-linecap: round"/>
   </g>
   <g id="patch_3">
    <path d="M 20.61 62.283094 
L 20.61 7.2 
" style="fill: none; stroke: #000000; stroke-linejoin: miter; stroke-linecap: square"/>
   </g>
   <g id="patch_4">
    <path d="M 20.61 62.283094 
L 187.809249 62.283094 
" style="fill: none; stroke: #000000; stroke-linejoin: miter; stroke-linecap: square"/>
   </g>
   <g id="legend_1">
    <g id="line2d_11">
     <path d="M 82.983155 16.368906 
L 89.983155 16.368906 
L 96.983155 16.368906 
" style="fill: none; stroke: #000000; stroke-width: 0.7; stroke-linecap: round"/>
    </g>
    <g id="text_5">
     <!-- experiment -->
     <g style="fill: #262626" transform="translate(102.583155 18.818906) scale(0.07 -0.07)">
      <defs>
       <path id="DejaVuSerif-78" d="M 1863 2028 
L 2559 2988 
L 2113 2988 
L 2113 3322 
L 3391 3322 
L 3391 2988 
L 2950 2988 
L 2059 1759 
L 3097 331 
L 3531 331 
L 3531 0 
L 1997 0 
L 1997 331 
L 2419 331 
L 1697 1325 
L 972 331 
L 1403 331 
L 1403 0 
L 141 0 
L 141 331 
L 581 331 
L 1497 1594 
L 488 2988 
L 78 2988 
L 78 3322 
L 1563 3322 
L 1563 2988 
L 1166 2988 
L 1863 2028 
z
" transform="scale(0.015625)"/>
       <path id="DejaVuSerif-70" d="M 1313 1825 
L 1313 1497 
Q 1313 897 1542 583 
Q 1772 269 2209 269 
Q 2650 269 2876 622 
Q 3103 975 3103 1663 
Q 3103 2353 2876 2703 
Q 2650 3053 2209 3053 
Q 1772 3053 1542 2737 
Q 1313 2422 1313 1825 
z
M 738 2988 
L 184 2988 
L 184 3322 
L 1313 3322 
L 1313 2803 
Q 1481 3116 1742 3264 
Q 2003 3413 2388 3413 
Q 3000 3413 3387 2928 
Q 3775 2444 3775 1663 
Q 3775 881 3387 395 
Q 3000 -91 2388 -91 
Q 2003 -91 1742 57 
Q 1481 206 1313 519 
L 1313 -997 
L 1856 -997 
L 1856 -1331 
L 184 -1331 
L 184 -997 
L 738 -997 
L 738 2988 
z
" transform="scale(0.015625)"/>
       <path id="DejaVuSerif-72" d="M 3059 3328 
L 3059 2497 
L 2728 2497 
Q 2713 2744 2591 2866 
Q 2469 2988 2234 2988 
Q 1809 2988 1582 2694 
Q 1356 2400 1356 1850 
L 1356 331 
L 2022 331 
L 2022 0 
L 263 0 
L 263 331 
L 781 331 
L 781 2994 
L 231 2994 
L 231 3322 
L 1356 3322 
L 1356 2731 
Q 1525 3078 1790 3245 
Q 2056 3413 2438 3413 
Q 2578 3413 2733 3391 
Q 2888 3369 3059 3328 
z
" transform="scale(0.015625)"/>
       <path id="DejaVuSerif-69" d="M 622 4353 
Q 622 4497 726 4603 
Q 831 4709 978 4709 
Q 1122 4709 1226 4603 
Q 1331 4497 1331 4353 
Q 1331 4206 1228 4103 
Q 1125 4000 978 4000 
Q 831 4000 726 4103 
Q 622 4206 622 4353 
z
M 1356 331 
L 1900 331 
L 1900 0 
L 231 0 
L 231 331 
L 781 331 
L 781 2988 
L 231 2988 
L 231 3322 
L 1356 3322 
L 1356 331 
z
" transform="scale(0.015625)"/>
       <path id="DejaVuSerif-6d" d="M 3316 2675 
Q 3481 3041 3739 3227 
Q 3997 3413 4341 3413 
Q 4863 3413 5119 3089 
Q 5375 2766 5375 2113 
L 5375 331 
L 5894 331 
L 5894 0 
L 4300 0 
L 4300 331 
L 4800 331 
L 4800 2047 
Q 4800 2556 4650 2772 
Q 4500 2988 4153 2988 
Q 3769 2988 3567 2697 
Q 3366 2406 3366 1850 
L 3366 331 
L 3866 331 
L 3866 0 
L 2291 0 
L 2291 331 
L 2791 331 
L 2791 2069 
Q 2791 2566 2641 2777 
Q 2491 2988 2144 2988 
Q 1759 2988 1557 2697 
Q 1356 2406 1356 1850 
L 1356 331 
L 1856 331 
L 1856 0 
L 263 0 
L 263 331 
L 781 331 
L 781 2994 
L 231 2994 
L 231 3322 
L 1356 3322 
L 1356 2731 
Q 1516 3063 1762 3238 
Q 2009 3413 2322 3413 
Q 2709 3413 2968 3220 
Q 3228 3028 3316 2675 
z
" transform="scale(0.015625)"/>
       <path id="DejaVuSerif-6e" d="M 263 0 
L 263 331 
L 781 331 
L 781 2988 
L 231 2988 
L 231 3322 
L 1356 3322 
L 1356 2731 
Q 1516 3069 1770 3241 
Q 2025 3413 2363 3413 
Q 2913 3413 3172 3097 
Q 3431 2781 3431 2113 
L 3431 331 
L 3944 331 
L 3944 0 
L 2356 0 
L 2356 331 
L 2853 331 
L 2853 1931 
Q 2853 2541 2703 2767 
Q 2553 2994 2175 2994 
Q 1775 2994 1565 2701 
Q 1356 2409 1356 1850 
L 1356 331 
L 1856 331 
L 1856 0 
L 263 0 
z
" transform="scale(0.015625)"/>
       <path id="DejaVuSerif-74" d="M 691 2988 
L 184 2988 
L 184 3322 
L 691 3322 
L 691 4353 
L 1269 4353 
L 1269 3322 
L 2350 3322 
L 2350 2988 
L 1269 2988 
L 1269 878 
Q 1269 456 1350 337 
Q 1431 219 1650 219 
Q 1875 219 1978 351 
Q 2081 484 2088 781 
L 2522 781 
Q 2497 328 2275 118 
Q 2053 -91 1600 -91 
Q 1103 -91 897 129 
Q 691 350 691 878 
L 691 2988 
z
" transform="scale(0.015625)"/>
      </defs>
      <use xlink:href="#DejaVuSerif-65"/>
      <use xlink:href="#DejaVuSerif-78" x="59.179688"/>
      <use xlink:href="#DejaVuSerif-70" x="115.576172"/>
      <use xlink:href="#DejaVuSerif-65" x="179.589844"/>
      <use xlink:href="#DejaVuSerif-72" x="238.769531"/>
      <use xlink:href="#DejaVuSerif-69" x="286.572266"/>
      <use xlink:href="#DejaVuSerif-6d" x="318.554688"/>
      <use xlink:href="#DejaVuSerif-65" x="413.378906"/>
      <use xlink:href="#DejaVuSerif-6e" x="472.558594"/>
      <use xlink:href="#DejaVuSerif-74" x="536.962891"/>
     </g>
    </g>
    <g id="line2d_12">
     <path d="M 82.983155 26.643594 
L 89.983155 26.643594 
L 96.983155 26.643594 
" style="fill: none; stroke: #bf00bf; stroke-width: 0.4; stroke-linecap: round"/>
    </g>
    <g id="text_6">
     <!-- complex -->
     <g style="fill: #262626" transform="translate(102.583155 29.093594) scale(0.07 -0.07)">
      <defs>
       <path id="DejaVuSerif-63" d="M 3291 997 
Q 3169 466 2822 187 
Q 2475 -91 1925 -91 
Q 1200 -91 759 389 
Q 319 869 319 1663 
Q 319 2459 759 2936 
Q 1200 3413 1925 3413 
Q 2241 3413 2553 3339 
Q 2866 3266 3181 3116 
L 3181 2266 
L 2847 2266 
Q 2781 2703 2561 2903 
Q 2341 3103 1931 3103 
Q 1466 3103 1228 2742 
Q 991 2381 991 1663 
Q 991 944 1227 581 
Q 1463 219 1931 219 
Q 2303 219 2525 412 
Q 2747 606 2828 997 
L 3291 997 
z
" transform="scale(0.015625)"/>
       <path id="DejaVuSerif-6f" d="M 1925 219 
Q 2388 219 2623 584 
Q 2859 950 2859 1663 
Q 2859 2375 2623 2739 
Q 2388 3103 1925 3103 
Q 1463 3103 1227 2739 
Q 991 2375 991 1663 
Q 991 950 1228 584 
Q 1466 219 1925 219 
z
M 1925 -91 
Q 1200 -91 759 389 
Q 319 869 319 1663 
Q 319 2456 758 2934 
Q 1197 3413 1925 3413 
Q 2653 3413 3092 2934 
Q 3531 2456 3531 1663 
Q 3531 869 3092 389 
Q 2653 -91 1925 -91 
z
" transform="scale(0.015625)"/>
       <path id="DejaVuSerif-6c" d="M 1313 331 
L 1856 331 
L 1856 0 
L 184 0 
L 184 331 
L 738 331 
L 738 4531 
L 184 4531 
L 184 4863 
L 1313 4863 
L 1313 331 
z
" transform="scale(0.015625)"/>
      </defs>
      <use xlink:href="#DejaVuSerif-63"/>
      <use xlink:href="#DejaVuSerif-6f" x="56.005859"/>
      <use xlink:href="#DejaVuSerif-6d" x="116.210938"/>
      <use xlink:href="#DejaVuSerif-70" x="211.035156"/>
      <use xlink:href="#DejaVuSerif-6c" x="275.048828"/>
      <use xlink:href="#DejaVuSerif-65" x="307.03125"/>
      <use xlink:href="#DejaVuSerif-78" x="366.210938"/>
     </g>
    </g>
    <g id="line2d_13">
     <path d="M 82.983155 36.918281 
L 89.983155 36.918281 
L 96.983155 36.918281 
" style="fill: none; stroke: #ff0000; stroke-width: 0.4; stroke-linecap: round"/>
    </g>
    <g id="text_7">
     <!-- polynomial rudder -->
     <g style="fill: #262626" transform="translate(102.583155 39.368281) scale(0.07 -0.07)">
      <defs>
       <path id="DejaVuSerif-79" d="M 1381 -609 
L 1600 -56 
L 359 2988 
L -19 2988 
L -19 3322 
L 1509 3322 
L 1509 2988 
L 978 2988 
L 1913 703 
L 2847 2988 
L 2350 2988 
L 2350 3322 
L 3597 3322 
L 3597 2988 
L 3225 2988 
L 1703 -750 
Q 1547 -1138 1356 -1280 
Q 1166 -1422 819 -1422 
Q 672 -1422 517 -1397 
Q 363 -1372 206 -1325 
L 206 -691 
L 500 -691 
Q 519 -903 608 -995 
Q 697 -1088 884 -1088 
Q 1056 -1088 1161 -992 
Q 1266 -897 1381 -609 
z
" transform="scale(0.015625)"/>
       <path id="DejaVuSerif-61" d="M 2547 1044 
L 2547 1747 
L 1806 1747 
Q 1378 1747 1168 1562 
Q 959 1378 959 997 
Q 959 650 1171 447 
Q 1384 244 1747 244 
Q 2106 244 2326 466 
Q 2547 688 2547 1044 
z
M 3122 2075 
L 3122 331 
L 3634 331 
L 3634 0 
L 2547 0 
L 2547 359 
Q 2356 128 2106 18 
Q 1856 -91 1522 -91 
Q 969 -91 644 203 
Q 319 497 319 997 
Q 319 1513 691 1797 
Q 1063 2081 1741 2081 
L 2547 2081 
L 2547 2309 
Q 2547 2688 2317 2895 
Q 2088 3103 1672 3103 
Q 1328 3103 1125 2947 
Q 922 2791 872 2484 
L 575 2484 
L 575 3156 
Q 875 3284 1158 3348 
Q 1441 3413 1709 3413 
Q 2400 3413 2761 3070 
Q 3122 2728 3122 2075 
z
" transform="scale(0.015625)"/>
       <path id="DejaVuSerif-75" d="M 2266 3322 
L 3341 3322 
L 3341 331 
L 3884 331 
L 3884 0 
L 2766 0 
L 2766 588 
Q 2606 256 2353 82 
Q 2100 -91 1766 -91 
Q 1213 -91 952 223 
Q 691 538 691 1209 
L 691 2988 
L 172 2988 
L 172 3322 
L 1269 3322 
L 1269 1388 
Q 1269 781 1417 556 
Q 1566 331 1947 331 
Q 2347 331 2556 625 
Q 2766 919 2766 1478 
L 2766 2988 
L 2266 2988 
L 2266 3322 
z
" transform="scale(0.015625)"/>
      </defs>
      <use xlink:href="#DejaVuSerif-70"/>
      <use xlink:href="#DejaVuSerif-6f" x="64.013672"/>
      <use xlink:href="#DejaVuSerif-6c" x="124.21875"/>
      <use xlink:href="#DejaVuSerif-79" x="156.201172"/>
      <use xlink:href="#DejaVuSerif-6e" x="212.695312"/>
      <use xlink:href="#DejaVuSerif-6f" x="277.099609"/>
      <use xlink:href="#DejaVuSerif-6d" x="337.304688"/>
      <use xlink:href="#DejaVuSerif-69" x="432.128906"/>
      <use xlink:href="#DejaVuSerif-61" x="464.111328"/>
      <use xlink:href="#DejaVuSerif-6c" x="523.730469"/>
      <use xlink:href="#DejaVuSerif-20" x="555.712891"/>
      <use xlink:href="#DejaVuSerif-72" x="587.5"/>
      <use xlink:href="#DejaVuSerif-75" x="635.302734"/>
      <use xlink:href="#DejaVuSerif-64" x="699.707031"/>
      <use xlink:href="#DejaVuSerif-64" x="763.720703"/>
      <use xlink:href="#DejaVuSerif-65" x="827.734375"/>
      <use xlink:href="#DejaVuSerif-72" x="886.914062"/>
     </g>
    </g>
    <g id="line2d_14">
     <path d="M 82.983155 47.2925 
L 89.983155 47.2925 
L 96.983155 47.2925 
" style="fill: none; stroke: #0000ff; stroke-width: 0.4; stroke-linecap: round"/>
    </g>
    <g id="text_8">
     <!-- semi-empirical rudder -->
     <g style="fill: #262626" transform="translate(102.583155 49.7425) scale(0.07 -0.07)">
      <defs>
       <path id="DejaVuSerif-73" d="M 359 184 
L 359 959 
L 691 959 
Q 703 588 923 403 
Q 1144 219 1575 219 
Q 1963 219 2166 364 
Q 2369 509 2369 788 
Q 2369 1006 2220 1140 
Q 2072 1275 1594 1428 
L 1178 1569 
Q 750 1706 558 1912 
Q 366 2119 366 2438 
Q 366 2894 700 3153 
Q 1034 3413 1625 3413 
Q 1888 3413 2178 3344 
Q 2469 3275 2778 3144 
L 2778 2419 
L 2447 2419 
Q 2434 2741 2221 2922 
Q 2009 3103 1644 3103 
Q 1281 3103 1095 2975 
Q 909 2847 909 2591 
Q 909 2381 1050 2254 
Q 1191 2128 1613 1997 
L 2069 1856 
Q 2541 1709 2748 1489 
Q 2956 1269 2956 922 
Q 2956 450 2595 179 
Q 2234 -91 1600 -91 
Q 1278 -91 972 -22 
Q 666 47 359 184 
z
" transform="scale(0.015625)"/>
       <path id="DejaVuSerif-2d" d="M 281 1959 
L 1881 1959 
L 1881 1472 
L 281 1472 
L 281 1959 
z
" transform="scale(0.015625)"/>
      </defs>
      <use xlink:href="#DejaVuSerif-73"/>
      <use xlink:href="#DejaVuSerif-65" x="51.318359"/>
      <use xlink:href="#DejaVuSerif-6d" x="110.498047"/>
      <use xlink:href="#DejaVuSerif-69" x="205.322266"/>
      <use xlink:href="#DejaVuSerif-2d" x="237.304688"/>
      <use xlink:href="#DejaVuSerif-65" x="271.09375"/>
      <use xlink:href="#DejaVuSerif-6d" x="330.273438"/>
      <use xlink:href="#DejaVuSerif-70" x="425.097656"/>
      <use xlink:href="#DejaVuSerif-69" x="489.111328"/>
      <use xlink:href="#DejaVuSerif-72" x="521.09375"/>
      <use xlink:href="#DejaVuSerif-69" x="568.896484"/>
      <use xlink:href="#DejaVuSerif-63" x="600.878906"/>
      <use xlink:href="#DejaVuSerif-61" x="656.884766"/>
      <use xlink:href="#DejaVuSerif-6c" x="716.503906"/>
      <use xlink:href="#DejaVuSerif-20" x="748.486328"/>
      <use xlink:href="#DejaVuSerif-72" x="780.273438"/>
      <use xlink:href="#DejaVuSerif-75" x="828.076172"/>
      <use xlink:href="#DejaVuSerif-64" x="892.480469"/>
      <use xlink:href="#DejaVuSerif-64" x="956.494141"/>
      <use xlink:href="#DejaVuSerif-65" x="1020.507812"/>
      <use xlink:href="#DejaVuSerif-72" x="1079.6875"/>
     </g>
    </g>
   </g>
   <g id="line2d_15">
    <path d="M 28.209966 35.913349 
L 29.001769 35.857855 
L 29.906633 35.547475 
L 33.729808 33.997963 
L 35.17764 33.125031 
L 37.123157 31.665191 
L 40.720109 28.615799 
L 47.461547 22.851401 
L 48.25338 22.580591 
L 48.977287 22.564385 
L 50.425086 22.545065 
L 53.207617 22.438859 
L 54.474464 22.629307 
L 55.89967 23.092877 
L 57.505863 23.860731 
L 59.790714 25.238929 
L 64.202074 28.157082 
L 67.210839 30.108931 
L 70.287467 31.992607 
L 74.13333 34.821621 
L 77.798073 37.70532 
L 91.801282 49.363362 
L 95.760245 52.860106 
L 100.126293 56.591337 
L 103.0446 58.827721 
L 104.334059 59.638325 
L 105.035343 59.778737 
L 105.6914 59.686421 
L 107.433297 59.233835 
L 111.188606 58.642596 
L 112.478143 58.120109 
L 114.039051 57.253283 
L 116.369154 55.609635 
L 121.866369 51.630753 
L 127.929117 47.847863 
L 133.426346 44.320903 
L 142.791969 37.803466 
L 149.850212 32.081439 
L 155.958164 26.961517 
L 158.31088 24.852722 
L 158.31088 24.852722 
" clip-path="url(#p2c7fa7effe)" style="fill: none; stroke: #000000; stroke-width: 0.7; stroke-linecap: round"/>
   </g>
  </g>
  <g id="axes_2">
   <g id="patch_5">
    <path d="M 20.61 124.908736 
L 187.809249 124.908736 
L 187.809249 69.825642 
L 20.61 69.825642 
z
" style="fill: #ffffff"/>
   </g>
   <g id="matplotlib.axis_3">
    <g id="xtick_5">
     <g id="line2d_16"/>
     <g id="text_9">
      <!-- 0 -->
      <g style="fill: #262626" transform="translate(25.983091 133.727642) scale(0.07 -0.07)">
       <use xlink:href="#DejaVuSerif-30"/>
      </g>
     </g>
    </g>
    <g id="xtick_6">
     <g id="line2d_17"/>
     <g id="text_10">
      <!-- 20 -->
      <g style="fill: #262626" transform="translate(69.000841 133.727642) scale(0.07 -0.07)">
       <defs>
        <path id="DejaVuSerif-32" d="M 819 3553 
L 469 3553 
L 469 4384 
Q 803 4563 1142 4656 
Q 1481 4750 1806 4750 
Q 2534 4750 2956 4397 
Q 3378 4044 3378 3438 
Q 3378 2753 2422 1800 
Q 2347 1728 2309 1691 
L 1131 513 
L 3078 513 
L 3078 1088 
L 3444 1088 
L 3444 0 
L 434 0 
L 434 341 
L 1850 1753 
Q 2319 2222 2519 2614 
Q 2719 3006 2719 3438 
Q 2719 3909 2473 4175 
Q 2228 4441 1797 4441 
Q 1350 4441 1106 4219 
Q 863 3997 819 3553 
z
" transform="scale(0.015625)"/>
       </defs>
       <use xlink:href="#DejaVuSerif-32"/>
       <use xlink:href="#DejaVuSerif-30" x="63.623047"/>
      </g>
     </g>
    </g>
    <g id="xtick_7">
     <g id="line2d_18"/>
     <g id="text_11">
      <!-- 40 -->
      <g style="fill: #262626" transform="translate(114.245466 133.727642) scale(0.07 -0.07)">
       <defs>
        <path id="DejaVuSerif-34" d="M 2234 1581 
L 2234 4063 
L 641 1581 
L 2234 1581 
z
M 3609 0 
L 1484 0 
L 1484 331 
L 2234 331 
L 2234 1247 
L 197 1247 
L 197 1588 
L 2241 4750 
L 2859 4750 
L 2859 1581 
L 3750 1581 
L 3750 1247 
L 2859 1247 
L 2859 331 
L 3609 331 
L 3609 0 
z
" transform="scale(0.015625)"/>
       </defs>
       <use xlink:href="#DejaVuSerif-34"/>
       <use xlink:href="#DejaVuSerif-30" x="63.623047"/>
      </g>
     </g>
    </g>
    <g id="xtick_8">
     <g id="line2d_19"/>
     <g id="text_12">
      <!-- 60 -->
      <g style="fill: #262626" transform="translate(159.490091 133.727642) scale(0.07 -0.07)">
       <defs>
        <path id="DejaVuSerif-36" d="M 2094 219 
Q 2534 219 2771 542 
Q 3009 866 3009 1472 
Q 3009 2078 2771 2401 
Q 2534 2725 2094 2725 
Q 1647 2725 1412 2412 
Q 1178 2100 1178 1509 
Q 1178 888 1415 553 
Q 1653 219 2094 219 
z
M 1075 2569 
Q 1288 2803 1556 2918 
Q 1825 3034 2163 3034 
Q 2859 3034 3264 2615 
Q 3669 2197 3669 1472 
Q 3669 763 3233 336 
Q 2797 -91 2069 -91 
Q 1278 -91 853 498 
Q 428 1088 428 2181 
Q 428 3406 931 4078 
Q 1434 4750 2350 4750 
Q 2597 4750 2869 4703 
Q 3141 4656 3425 4563 
L 3425 3794 
L 3072 3794 
Q 3034 4109 2831 4275 
Q 2628 4441 2284 4441 
Q 1678 4441 1381 3981 
Q 1084 3522 1075 2569 
z
" transform="scale(0.015625)"/>
       </defs>
       <use xlink:href="#DejaVuSerif-36"/>
       <use xlink:href="#DejaVuSerif-30" x="63.623047"/>
      </g>
     </g>
    </g>
    <g id="text_13">
     <!-- Time [s] -->
     <g style="fill: #262626" transform="translate(91.794781 143.742486) scale(0.06 -0.06)">
      <defs>
       <path id="DejaVuSerif-54" d="M 1222 0 
L 1222 331 
L 1819 331 
L 1819 4294 
L 447 4294 
L 447 3566 
L 63 3566 
L 63 4666 
L 4206 4666 
L 4206 3566 
L 3822 3566 
L 3822 4294 
L 2450 4294 
L 2450 331 
L 3047 331 
L 3047 0 
L 1222 0 
z
" transform="scale(0.015625)"/>
      </defs>
      <use xlink:href="#DejaVuSerif-54"/>
      <use xlink:href="#DejaVuSerif-69" x="66.699219"/>
      <use xlink:href="#DejaVuSerif-6d" x="98.681641"/>
      <use xlink:href="#DejaVuSerif-65" x="193.505859"/>
      <use xlink:href="#DejaVuSerif-20" x="252.685547"/>
      <use xlink:href="#DejaVuSerif-5b" x="284.472656"/>
      <use xlink:href="#DejaVuSerif-73" x="323.486328"/>
      <use xlink:href="#DejaVuSerif-5d" x="374.804688"/>
     </g>
    </g>
   </g>
   <g id="matplotlib.axis_4">
    <g id="ytick_4">
     <g id="line2d_20"/>
     <g id="text_14">
      <!-- −20 -->
      <g style="fill: #262626" transform="translate(2.336719 117.262024) scale(0.07 -0.07)">
       <use xlink:href="#DejaVuSerif-2212"/>
       <use xlink:href="#DejaVuSerif-32" x="83.789062"/>
       <use xlink:href="#DejaVuSerif-30" x="147.412109"/>
      </g>
     </g>
    </g>
    <g id="ytick_5">
     <g id="line2d_21"/>
     <g id="text_15">
      <!-- 0 -->
      <g style="fill: #262626" transform="translate(12.65625 95.638846) scale(0.07 -0.07)">
       <use xlink:href="#DejaVuSerif-30"/>
      </g>
     </g>
    </g>
    <g id="ytick_6">
     <g id="line2d_22"/>
     <g id="text_16">
      <!-- 20 -->
      <g style="fill: #262626" transform="translate(8.2025 74.015668) scale(0.07 -0.07)">
       <use xlink:href="#DejaVuSerif-32"/>
       <use xlink:href="#DejaVuSerif-30" x="63.623047"/>
      </g>
     </g>
    </g>
    <g id="text_17">
     <!-- $\psi$ [deg] -->
     <g style="fill: #262626" transform="translate(-3.043281 108.257189) rotate(-90) scale(0.06 -0.06)">
      <defs>
       <path id="DejaVuSans-Oblique-3c8" d="M 1591 -78 
Q 891 38 616 341 
Q 278 713 425 1472 
L 819 3500 
L 1400 3500 
L 1009 1494 
Q 900 922 1119 684 
Q 1313 478 1691 434 
L 2284 3500 
L 2856 3500 
L 2263 438 
Q 2681 481 2928 688 
Q 3247 950 3353 1497 
L 3741 3500 
L 4322 3500 
L 3928 1475 
Q 3775 688 3300 344 
Q 2872 34 2163 -75 
L 1919 -1331 
L 1347 -1331 
L 1591 -78 
z
" transform="scale(0.015625)"/>
      </defs>
      <use xlink:href="#DejaVuSans-Oblique-3c8" transform="translate(0 0.015625)"/>
      <use xlink:href="#DejaVuSerif-20" transform="translate(65.966797 0.015625)"/>
      <use xlink:href="#DejaVuSerif-5b" transform="translate(97.753906 0.015625)"/>
      <use xlink:href="#DejaVuSerif-64" transform="translate(136.767578 0.015625)"/>
      <use xlink:href="#DejaVuSerif-65" transform="translate(200.78125 0.015625)"/>
      <use xlink:href="#DejaVuSerif-67" transform="translate(259.960938 0.015625)"/>
      <use xlink:href="#DejaVuSerif-5d" transform="translate(323.974609 0.015625)"/>
     </g>
    </g>
   </g>
   <g id="line2d_23">
    <path d="M 28.209966 92.979393 
L 30.336463 92.870705 
L 32.101004 92.529912 
L 34.001278 91.93137 
L 36.037286 91.051431 
L 38.186406 89.875733 
L 40.448637 88.379241 
L 42.801357 86.551724 
L 45.244567 84.369734 
L 47.823511 81.762442 
L 50.334587 79.248966 
L 51.963394 77.97504 
L 53.727934 76.875306 
L 55.650831 75.939418 
L 57.732084 75.176628 
L 59.926448 74.609016 
L 62.233924 74.241825 
L 64.609267 74.089054 
L 67.029854 74.156972 
L 69.473064 74.449818 
L 71.916274 74.968162 
L 74.359483 75.715153 
L 76.802693 76.695662 
L 79.268525 77.92772 
L 81.756979 79.423603 
L 84.268056 81.194979 
L 86.847 83.291157 
L 89.49381 85.734579 
L 92.23111 88.568574 
L 95.104144 91.867959 
L 98.158156 95.719647 
L 101.461014 100.250032 
L 107.817883 109.117732 
L 109.582424 110.918633 
L 111.527943 112.58354 
L 113.65444 114.107267 
L 115.961916 115.484845 
L 118.427748 116.697278 
L 121.029314 117.727429 
L 123.698747 118.545835 
L 126.413424 119.145846 
L 129.128102 119.518756 
L 131.820157 119.665725 
L 134.48959 119.58994 
L 137.1364 119.292198 
L 139.760589 118.771691 
L 142.339532 118.03417 
L 144.918476 117.06465 
L 147.497419 115.85515 
L 150.076363 114.398213 
L 152.677929 112.671279 
L 155.32474 110.644415 
L 158.039417 108.280541 
L 160.844584 105.536455 
L 163.762862 102.36475 
L 166.862119 98.66015 
L 170.187599 94.331296 
L 173.875036 89.155101 
L 178.082786 82.850257 
L 178.51261 82.186262 
L 178.51261 82.186262 
" clip-path="url(#pf06a5d6c3d)" style="fill: none; stroke: #bf00bf; stroke-width: 0.4; stroke-linecap: round"/>
   </g>
   <g id="line2d_24">
    <path d="M 28.209966 92.979393 
L 30.381708 92.868514 
L 32.146248 92.524591 
L 34.046522 91.923368 
L 36.082531 91.043165 
L 38.254273 89.858196 
L 40.539126 88.354303 
L 42.937091 86.505033 
L 45.448168 84.281966 
L 48.094979 81.63536 
L 50.492944 79.285064 
L 52.144372 78.011246 
L 53.931535 76.911116 
L 55.877054 75.974863 
L 57.958307 75.219125 
L 60.175293 74.650428 
L 62.482769 74.287156 
L 64.858112 74.137791 
L 67.256077 74.20818 
L 69.676665 74.501021 
L 72.097252 75.017271 
L 74.517839 75.760049 
L 76.961049 76.743994 
L 79.404259 77.968143 
L 81.892713 79.466475 
L 84.426412 81.256209 
L 87.005356 83.352858 
L 89.674789 85.81314 
L 92.457333 88.684522 
L 95.398234 92.045122 
L 98.542735 95.983293 
L 101.981327 100.656097 
L 107.953617 108.887631 
L 109.763402 110.759051 
L 111.731543 112.473696 
L 113.880663 114.051616 
L 116.210761 115.487142 
L 118.699216 116.760029 
L 121.323404 117.851785 
L 124.015459 118.730692 
L 126.730137 119.384478 
L 129.444814 119.811383 
L 132.136869 120.011845 
L 134.806302 119.989131 
L 137.453113 119.744266 
L 140.077301 119.276942 
L 142.678867 118.586098 
L 145.25781 117.67055 
L 147.836754 116.518425 
L 150.43832 115.110127 
L 153.062508 113.434022 
L 155.731941 111.462365 
L 158.469241 109.160753 
L 161.29703 106.489143 
L 164.260553 103.378894 
L 167.405054 99.750937 
L 170.798401 95.490151 
L 174.553705 90.409483 
L 178.851944 84.207791 
L 180.209283 82.179488 
L 180.209283 82.179488 
" clip-path="url(#pf06a5d6c3d)" style="fill: none; stroke: #ff0000; stroke-width: 0.4; stroke-linecap: round"/>
   </g>
   <g id="line2d_25">
    <path d="M 28.209966 92.979393 
L 30.087618 92.869536 
L 31.58069 92.533835 
L 33.164252 91.94566 
L 34.860926 91.073855 
L 36.670711 89.888998 
L 38.61623 88.340878 
L 40.67486 86.413551 
L 42.891847 84.027832 
L 45.402923 80.982356 
L 47.371065 78.710425 
L 48.909382 77.292632 
L 50.606055 76.030541 
L 52.438463 74.943298 
L 54.429226 74.021724 
L 56.533101 73.292795 
L 58.750088 72.758637 
L 61.034941 72.436424 
L 63.387662 72.329436 
L 65.785627 72.44433 
L 68.206214 72.784859 
L 70.626802 73.347072 
L 73.047389 74.137156 
L 75.490599 75.169058 
L 77.956431 76.453738 
L 80.49013 78.027849 
L 83.069074 79.896484 
L 85.715884 82.090574 
L 88.453184 84.649864 
L 91.34884 87.667714 
L 94.38023 91.153371 
L 97.61522 95.216927 
L 101.166924 100.045003 
L 107.410682 108.646299 
L 109.016866 110.233967 
L 110.736162 111.618148 
L 112.545947 112.788754 
L 114.446221 113.754968 
L 116.414362 114.508658 
L 118.45037 115.053798 
L 120.509001 115.377682 
L 122.590253 115.481675 
L 124.694128 115.363591 
L 126.820626 115.019246 
L 128.947123 114.449327 
L 131.050998 113.654009 
L 133.154873 112.619176 
L 135.281371 111.322266 
L 137.453113 109.733298 
L 139.670099 107.832133 
L 142.000198 105.534362 
L 144.443407 102.804568 
L 147.044973 99.556793 
L 149.872762 95.661184 
L 152.994641 90.972022 
L 156.568967 85.188318 
L 158.333507 82.200419 
L 158.333507 82.200419 
" clip-path="url(#pf06a5d6c3d)" style="fill: none; stroke: #0000ff; stroke-width: 0.4; stroke-linecap: round"/>
   </g>
   <g id="patch_6">
    <path d="M 20.61 124.908736 
L 20.61 69.825642 
" style="fill: none; stroke: #000000; stroke-linejoin: miter; stroke-linecap: square"/>
   </g>
   <g id="patch_7">
    <path d="M 20.61 124.908736 
L 187.809249 124.908736 
" style="fill: none; stroke: #000000; stroke-linejoin: miter; stroke-linecap: square"/>
   </g>
   <g id="line2d_26">
    <path d="M 28.209966 93.135354 
L 30.087645 93.06515 
L 31.625935 92.759747 
L 33.367855 92.1812 
L 35.313374 91.296473 
L 37.394629 90.103433 
L 39.566369 88.597476 
L 41.828605 86.751578 
L 44.090825 84.614862 
L 46.647146 81.877322 
L 49.203513 79.175799 
L 50.741785 77.919292 
L 52.415833 76.838196 
L 54.270926 75.90747 
L 56.261627 75.159371 
L 58.342882 74.615791 
L 60.695634 74.238264 
L 63.206692 74.05985 
L 65.876136 74.095156 
L 68.477711 74.347828 
L 71.011395 74.819576 
L 73.409344 75.488265 
L 75.875212 76.412908 
L 78.544622 77.650152 
L 81.214064 79.132907 
L 83.793017 80.818245 
L 86.326691 82.738149 
L 88.747276 84.854563 
L 91.190479 87.292352 
L 93.611078 90.027085 
L 96.144811 93.2326 
L 99.085714 97.332437 
L 102.660044 102.714238 
L 106.34746 108.224285 
L 108.044165 110.239623 
L 110.012254 112.232026 
L 112.229271 114.157246 
L 114.581948 115.903394 
L 117.002574 117.427179 
L 119.513621 118.745938 
L 122.069933 119.837594 
L 124.942963 120.818949 
L 127.816019 121.566087 
L 130.689039 122.087138 
L 133.426346 122.358834 
L 135.960047 122.390543 
L 138.493757 122.198466 
L 140.959582 121.787808 
L 143.357563 121.164271 
L 145.755524 120.310219 
L 148.198709 119.202287 
L 150.664552 117.837698 
L 153.19826 116.175503 
L 155.731991 114.244385 
L 158.265674 112.034191 
L 158.31088 111.992068 
L 158.31088 111.992068 
" clip-path="url(#pf06a5d6c3d)" style="fill: none; stroke: #000000; stroke-width: 0.7; stroke-linecap: round"/>
   </g>
  </g>
 </g>
 <defs>
  <clipPath id="p2c7fa7effe">
   <rect x="20.61" y="7.2" width="167.199249" height="55.083094"/>
  </clipPath>
  <clipPath id="pf06a5d6c3d">
   <rect x="20.61" y="69.825642" width="167.199249" height="55.083094"/>
  </clipPath>
 </defs>
</svg>
