<?xml version="1.0" encoding="utf-8" standalone="no"?>
<!DOCTYPE svg PUBLIC "-//W3C//DTD SVG 1.1//EN"
  "http://www.w3.org/Graphics/SVG/1.1/DTD/svg11.dtd">
<svg xmlns:xlink="http://www.w3.org/1999/xlink" width="194.30964pt" height="145.748736pt" viewBox="0 0 194.30964 145.748736" xmlns="http://www.w3.org/2000/svg" version="1.1">
 <metadata>
  <rdf:RDF xmlns:dc="http://purl.org/dc/elements/1.1/" xmlns:cc="http://creativecommons.org/ns#" xmlns:rdf="http://www.w3.org/1999/02/22-rdf-syntax-ns#">
   <cc:Work>
    <dc:type rdf:resource="http://purl.org/dc/dcmitype/StillImage"/>
    <dc:date>2024-11-13T17:57:26.770025</dc:date>
    <dc:format>image/svg+xml</dc:format>
    <dc:creator>
     <cc:Agent>
      <dc:title>Matplotlib v3.8.2, https://matplotlib.org/</dc:title>
     </cc:Agent>
    </dc:creator>
   </cc:Work>
  </rdf:RDF>
 </metadata>
 <defs>
  <style type="text/css">*{stroke-linejoin: round; stroke-linecap: butt}</style>
 </defs>
 <g id="figure_1">
  <g id="patch_1">
   <path d="M 0 145.748736 
L 194.30964 145.748736 
L 194.30964 0 
L 0 0 
z
" style="fill: #ffffff"/>
  </g>
  <g id="axes_1">
   <g id="patch_2">
    <path d="M 20.61 61.935547 
L 188.90964 61.935547 
L 188.90964 7.2 
L 20.61 7.2 
z
" style="fill: #ffffff"/>
   </g>
   <g id="matplotlib.axis_1">
    <g id="xtick_1">
     <g id="line2d_1"/>
    </g>
    <g id="xtick_2">
     <g id="line2d_2"/>
    </g>
    <g id="xtick_3">
     <g id="line2d_3"/>
    </g>
    <g id="xtick_4">
     <g id="line2d_4"/>
    </g>
    <g id="xtick_5">
     <g id="line2d_5"/>
    </g>
   </g>
   <g id="matplotlib.axis_2">
    <g id="ytick_1">
     <g id="line2d_6"/>
     <g id="text_1">
      <!-- −10 -->
      <g style="fill: #262626" transform="translate(2.336719 62.789843) scale(0.07 -0.07)">
       <defs>
        <path id="DejaVuSerif-2212" d="M 678 2259 
L 4684 2259 
L 4684 1753 
L 678 1753 
L 678 2259 
z
" transform="scale(0.015625)"/>
        <path id="DejaVuSerif-31" d="M 909 0 
L 909 331 
L 1722 331 
L 1722 4213 
L 781 3603 
L 781 4013 
L 1919 4750 
L 2350 4750 
L 2350 331 
L 3163 331 
L 3163 0 
L 909 0 
z
" transform="scale(0.015625)"/>
        <path id="DejaVuSerif-30" d="M 2034 219 
Q 2513 219 2750 744 
Q 2988 1269 2988 2328 
Q 2988 3391 2750 3916 
Q 2513 4441 2034 4441 
Q 1556 4441 1318 3916 
Q 1081 3391 1081 2328 
Q 1081 1269 1318 744 
Q 1556 219 2034 219 
z
M 2034 -91 
Q 1275 -91 848 546 
Q 422 1184 422 2328 
Q 422 3475 848 4112 
Q 1275 4750 2034 4750 
Q 2797 4750 3222 4112 
Q 3647 3475 3647 2328 
Q 3647 1184 3222 546 
Q 2797 -91 2034 -91 
z
" transform="scale(0.015625)"/>
       </defs>
       <use xlink:href="#DejaVuSerif-2212"/>
       <use xlink:href="#DejaVuSerif-31" x="83.789062"/>
       <use xlink:href="#DejaVuSerif-30" x="147.412109"/>
      </g>
     </g>
    </g>
    <g id="ytick_2">
     <g id="line2d_7"/>
     <g id="text_2">
      <!-- 0 -->
      <g style="fill: #262626" transform="translate(12.65625 38.585764) scale(0.07 -0.07)">
       <use xlink:href="#DejaVuSerif-30"/>
      </g>
     </g>
    </g>
    <g id="ytick_3">
     <g id="line2d_8"/>
     <g id="text_3">
      <!-- 10 -->
      <g style="fill: #262626" transform="translate(8.2025 14.381685) scale(0.07 -0.07)">
       <use xlink:href="#DejaVuSerif-31"/>
       <use xlink:href="#DejaVuSerif-30" x="63.623047"/>
      </g>
     </g>
    </g>
    <g id="text_4">
     <!-- $\beta$ [deg] -->
     <g style="fill: #262626" transform="translate(-3.043281 45.397773) rotate(-90) scale(0.06 -0.06)">
      <defs>
       <path id="DejaVuSans-Oblique-3b2" d="M 872 216 
L 572 -1331 
L -6 -1331 
L 928 3478 
Q 1206 4903 2538 4903 
Q 3888 4903 3659 3700 
Q 3503 2844 2894 2531 
Q 3713 2250 3553 1416 
Q 3272 -69 1759 -66 
Q 1097 -63 872 216 
z
M 1019 966 
Q 1259 422 1875 425 
Q 2775 425 2966 1406 
Q 3138 2288 1675 2219 
L 1778 2750 
Q 2909 2731 3106 3750 
Q 3241 4438 2509 4434 
Q 1691 4434 1503 3459 
L 1019 966 
z
" transform="scale(0.015625)"/>
       <path id="DejaVuSerif-20" transform="scale(0.015625)"/>
       <path id="DejaVuSerif-5b" d="M 550 4863 
L 2003 4863 
L 2003 4531 
L 1147 4531 
L 1147 -513 
L 2003 -513 
L 2003 -844 
L 550 -844 
L 550 4863 
z
" transform="scale(0.015625)"/>
       <path id="DejaVuSerif-64" d="M 3359 331 
L 3909 331 
L 3909 0 
L 2784 0 
L 2784 519 
Q 2616 206 2355 57 
Q 2094 -91 1709 -91 
Q 1097 -91 708 395 
Q 319 881 319 1663 
Q 319 2444 706 2928 
Q 1094 3413 1709 3413 
Q 2094 3413 2355 3264 
Q 2616 3116 2784 2803 
L 2784 4531 
L 2241 4531 
L 2241 4863 
L 3359 4863 
L 3359 331 
z
M 2784 1497 
L 2784 1825 
Q 2784 2422 2554 2737 
Q 2325 3053 1888 3053 
Q 1444 3053 1217 2703 
Q 991 2353 991 1663 
Q 991 975 1217 622 
Q 1444 269 1888 269 
Q 2325 269 2554 583 
Q 2784 897 2784 1497 
z
" transform="scale(0.015625)"/>
       <path id="DejaVuSerif-65" d="M 3469 1600 
L 991 1600 
L 991 1575 
Q 991 903 1244 561 
Q 1497 219 1991 219 
Q 2369 219 2611 417 
Q 2853 616 2950 1006 
L 3413 1006 
Q 3275 459 2904 184 
Q 2534 -91 1931 -91 
Q 1203 -91 761 389 
Q 319 869 319 1663 
Q 319 2450 753 2931 
Q 1188 3413 1894 3413 
Q 2647 3413 3050 2948 
Q 3453 2484 3469 1600 
z
M 2791 1931 
Q 2772 2513 2545 2808 
Q 2319 3103 1894 3103 
Q 1497 3103 1269 2806 
Q 1041 2509 991 1931 
L 2791 1931 
z
" transform="scale(0.015625)"/>
       <path id="DejaVuSerif-67" d="M 3359 2988 
L 3359 72 
Q 3359 -644 2965 -1033 
Q 2572 -1422 1844 -1422 
Q 1516 -1422 1216 -1362 
Q 916 -1303 641 -1184 
L 641 -488 
L 941 -488 
Q 997 -813 1206 -963 
Q 1416 -1113 1806 -1113 
Q 2313 -1113 2548 -827 
Q 2784 -541 2784 72 
L 2784 519 
Q 2616 206 2355 57 
Q 2094 -91 1709 -91 
Q 1097 -91 708 395 
Q 319 881 319 1663 
Q 319 2444 706 2928 
Q 1094 3413 1709 3413 
Q 2094 3413 2355 3264 
Q 2616 3116 2784 2803 
L 2784 3322 
L 3909 3322 
L 3909 2988 
L 3359 2988 
z
M 2784 1825 
Q 2784 2422 2554 2737 
Q 2325 3053 1888 3053 
Q 1444 3053 1217 2703 
Q 991 2353 991 1663 
Q 991 975 1217 622 
Q 1444 269 1888 269 
Q 2325 269 2554 583 
Q 2784 897 2784 1497 
L 2784 1825 
z
" transform="scale(0.015625)"/>
       <path id="DejaVuSerif-5d" d="M 1947 4863 
L 1947 -844 
L 494 -844 
L 494 -513 
L 1350 -513 
L 1350 4531 
L 494 4531 
L 494 4863 
L 1947 4863 
z
" transform="scale(0.015625)"/>
      </defs>
      <use xlink:href="#DejaVuSans-Oblique-3b2" transform="translate(0 0.390625)"/>
      <use xlink:href="#DejaVuSerif-20" transform="translate(63.818359 0.390625)"/>
      <use xlink:href="#DejaVuSerif-5b" transform="translate(95.605469 0.390625)"/>
      <use xlink:href="#DejaVuSerif-64" transform="translate(134.619141 0.390625)"/>
      <use xlink:href="#DejaVuSerif-65" transform="translate(198.632812 0.390625)"/>
      <use xlink:href="#DejaVuSerif-67" transform="translate(257.8125 0.390625)"/>
      <use xlink:href="#DejaVuSerif-5d" transform="translate(321.826172 0.390625)"/>
     </g>
    </g>
   </g>
   <g id="line2d_9">
    <path d="M 28.259984 35.926311 
L 28.993888 36.040219 
L 29.843671 36.418363 
L 31.948817 37.702631 
L 34.305035 39.415948 
L 37.221338 41.826867 
L 41.354376 45.563606 
L 48.616163 52.144736 
L 49.620453 52.841479 
L 50.277104 53.030365 
L 50.895128 52.982508 
L 51.590406 52.698101 
L 52.652635 51.983614 
L 59.856483 46.632934 
L 68.431572 39.85728 
L 75.828551 33.782145 
L 82.143989 28.290313 
L 90.410065 21.105527 
L 93.731947 18.535205 
L 96.493743 16.667955 
L 98.965841 15.269172 
L 101.302746 14.198896 
L 103.987289 13.231093 
L 106.749086 12.483466 
L 107.521617 12.417915 
L 108.178268 12.59863 
L 108.873545 13.035513 
L 109.800582 13.910176 
L 112.794138 16.924772 
L 115.71044 19.336297 
L 121.176094 23.535896 
L 129.326291 29.497485 
L 143.811239 40.051669 
L 151.922809 46.339456 
L 157.639535 50.666607 
L 161.270429 53.126476 
L 164.302611 54.924722 
L 167.103034 56.332589 
L 169.787578 57.437494 
L 172.607314 58.362529 
L 175.562244 59.09675 
L 177.397004 59.447568 
L 177.397004 59.447568 
" clip-path="url(#p4a9810ab99)" style="fill: none; stroke: #bf00bf; stroke-width: 0.4; stroke-linecap: round"/>
   </g>
   <g id="line2d_10">
    <path d="M 28.259984 35.926311 
L 29.013201 36.036703 
L 29.747105 36.37071 
L 30.558262 37.002409 
L 32.547528 38.926429 
L 35.174132 41.804795 
L 43.324329 50.950905 
L 45.583981 53.032623 
L 46.298572 53.453882 
L 46.974536 53.603922 
L 47.669813 53.533144 
L 48.423031 53.224585 
L 49.272814 52.620259 
L 52.131177 50.034248 
L 58.176229 44.503477 
L 63.506689 39.309307 
L 68.856463 33.781394 
L 79.401505 22.765768 
L 82.182615 20.276348 
L 84.616086 18.391179 
L 86.914365 16.888968 
L 89.174016 15.675812 
L 91.491608 14.682433 
L 93.983019 13.859212 
L 96.725502 13.190581 
L 98.849961 12.865003 
L 99.564552 13.029338 
L 100.414336 13.465516 
L 101.457252 14.264549 
L 106.169688 18.264152 
L 110.167534 20.979433 
L 128.843459 33.387452 
L 137.07091 39.237938 
L 148.040843 47.036027 
L 152.424954 49.858086 
L 156.113787 51.975282 
L 159.512922 53.670813 
L 162.854116 55.088189 
L 166.214624 56.272384 
L 169.748951 57.279901 
L 173.592291 58.141036 
L 177.937775 58.881252 
L 181.259656 59.320354 
L 181.259656 59.320354 
" clip-path="url(#p4a9810ab99)" style="fill: none; stroke: #ff0000; stroke-width: 0.4; stroke-linecap: round"/>
   </g>
   <g id="line2d_11">
    <path d="M 28.259984 35.926311 
L 28.993888 35.998005 
L 29.689165 36.295956 
L 30.384443 36.845062 
L 32.161263 38.661418 
L 34.826493 41.728641 
L 41.373689 49.391686 
L 43.729908 51.789595 
L 45.583981 53.386112 
L 46.317885 53.732291 
L 47.013162 53.814259 
L 47.689127 53.669514 
L 48.384404 53.292276 
L 49.137621 52.622251 
L 51.802852 49.520622 
L 54.21701 46.418329 
L 57.423011 41.85067 
L 60.339314 37.334541 
L 64.33716 30.622963 
L 67.852174 24.871766 
L 70.092512 21.624885 
L 71.907959 19.360979 
L 73.665466 17.514116 
L 75.365033 16.058507 
L 77.161167 14.814632 
L 78.976613 13.82064 
L 80.830687 13.060236 
L 83.109652 12.356014 
L 84.905785 11.990557 
L 85.562436 12.11687 
L 86.277027 12.487318 
L 87.107497 13.185091 
L 88.034534 14.27053 
L 93.268428 21.135594 
L 97.903611 27.014709 
L 101.766264 32.282224 
L 111.384269 45.401986 
L 114.030186 48.518934 
L 116.367091 50.938288 
L 118.54949 52.871814 
L 120.751202 54.507971 
L 122.856348 55.802226 
L 125.05806 56.894279 
L 127.588097 57.900154 
L 130.156761 58.667618 
L 132.995811 59.268569 
L 134.077354 59.436438 
L 134.077354 59.436438 
" clip-path="url(#p4a9810ab99)" style="fill: none; stroke: #0000ff; stroke-width: 0.4; stroke-linecap: round"/>
   </g>
   <g id="patch_3">
    <path d="M 20.61 61.935547 
L 20.61 7.2 
" style="fill: none; stroke: #000000; stroke-linejoin: miter; stroke-linecap: square"/>
   </g>
   <g id="patch_4">
    <path d="M 20.61 61.935547 
L 188.90964 61.935547 
" style="fill: none; stroke: #000000; stroke-linejoin: miter; stroke-linecap: square"/>
   </g>
   <g id="legend_1"/>
   <g id="line2d_12">
    <path d="M 28.259984 36.120522 
L 28.99387 36.326444 
L 29.785722 36.790553 
L 31.369423 38.092081 
L 34.903752 41.017169 
L 36.332912 42.563959 
L 38.244914 44.995446 
L 42.938039 51.05775 
L 44.714859 52.892981 
L 45.526107 53.36578 
L 46.337171 53.589294 
L 47.129025 53.576389 
L 47.901551 53.333232 
L 49.543179 52.608803 
L 51.339328 51.85358 
L 52.517435 51.066188 
L 53.714851 49.971441 
L 55.337154 48.158202 
L 60.667622 42.108002 
L 62.869336 39.466906 
L 67.098935 33.805199 
L 74.0517 24.44137 
L 76.311373 21.729383 
L 79.28561 18.463927 
L 81.274909 16.628864 
L 83.65045 14.659486 
L 85.156883 13.578412 
L 88.053878 11.867248 
L 90.216909 10.824409 
L 91.93579 10.181413 
L 93.867124 9.700917 
L 94.658964 9.742071 
L 95.373562 10.016654 
L 96.570981 10.719078 
L 97.324192 11.444703 
L 98.347786 12.42913 
L 101.360657 15.123372 
L 103.485139 17.734277 
L 105.667516 20.876291 
L 108.12032 24.339382 
L 110.379993 27.00882 
L 113.392831 30.708548 
L 119.611737 38.547539 
L 127.665333 48.313873 
L 130.060203 50.832527 
L 132.570917 53.197428 
L 134.077333 54.536864 
L 134.077333 54.536864 
" clip-path="url(#p4a9810ab99)" style="fill: none; stroke: #000000; stroke-width: 0.7; stroke-linecap: round"/>
   </g>
  </g>
  <g id="axes_2">
   <g id="patch_5">
    <path d="M 20.61 124.908736 
L 188.90964 124.908736 
L 188.90964 70.173189 
L 20.61 70.173189 
z
" style="fill: #ffffff"/>
   </g>
   <g id="matplotlib.axis_3">
    <g id="xtick_6">
     <g id="line2d_13"/>
     <g id="text_5">
      <!-- 0 -->
      <g style="fill: #262626" transform="translate(26.033109 133.727642) scale(0.07 -0.07)">
       <use xlink:href="#DejaVuSerif-30"/>
      </g>
     </g>
    </g>
    <g id="xtick_7">
     <g id="line2d_14"/>
     <g id="text_6">
      <!-- 20 -->
      <g style="fill: #262626" transform="translate(62.43276 133.727642) scale(0.07 -0.07)">
       <defs>
        <path id="DejaVuSerif-32" d="M 819 3553 
L 469 3553 
L 469 4384 
Q 803 4563 1142 4656 
Q 1481 4750 1806 4750 
Q 2534 4750 2956 4397 
Q 3378 4044 3378 3438 
Q 3378 2753 2422 1800 
Q 2347 1728 2309 1691 
L 1131 513 
L 3078 513 
L 3078 1088 
L 3444 1088 
L 3444 0 
L 434 0 
L 434 341 
L 1850 1753 
Q 2319 2222 2519 2614 
Q 2719 3006 2719 3438 
Q 2719 3909 2473 4175 
Q 2228 4441 1797 4441 
Q 1350 4441 1106 4219 
Q 863 3997 819 3553 
z
" transform="scale(0.015625)"/>
       </defs>
       <use xlink:href="#DejaVuSerif-32"/>
       <use xlink:href="#DejaVuSerif-30" x="63.623047"/>
      </g>
     </g>
    </g>
    <g id="xtick_8">
     <g id="line2d_15"/>
     <g id="text_7">
      <!-- 40 -->
      <g style="fill: #262626" transform="translate(101.059287 133.727642) scale(0.07 -0.07)">
       <defs>
        <path id="DejaVuSerif-34" d="M 2234 1581 
L 2234 4063 
L 641 1581 
L 2234 1581 
z
M 3609 0 
L 1484 0 
L 1484 331 
L 2234 331 
L 2234 1247 
L 197 1247 
L 197 1588 
L 2241 4750 
L 2859 4750 
L 2859 1581 
L 3750 1581 
L 3750 1247 
L 2859 1247 
L 2859 331 
L 3609 331 
L 3609 0 
z
" transform="scale(0.015625)"/>
       </defs>
       <use xlink:href="#DejaVuSerif-34"/>
       <use xlink:href="#DejaVuSerif-30" x="63.623047"/>
      </g>
     </g>
    </g>
    <g id="xtick_9">
     <g id="line2d_16"/>
     <g id="text_8">
      <!-- 60 -->
      <g style="fill: #262626" transform="translate(139.685814 133.727642) scale(0.07 -0.07)">
       <defs>
        <path id="DejaVuSerif-36" d="M 2094 219 
Q 2534 219 2771 542 
Q 3009 866 3009 1472 
Q 3009 2078 2771 2401 
Q 2534 2725 2094 2725 
Q 1647 2725 1412 2412 
Q 1178 2100 1178 1509 
Q 1178 888 1415 553 
Q 1653 219 2094 219 
z
M 1075 2569 
Q 1288 2803 1556 2918 
Q 1825 3034 2163 3034 
Q 2859 3034 3264 2615 
Q 3669 2197 3669 1472 
Q 3669 763 3233 336 
Q 2797 -91 2069 -91 
Q 1278 -91 853 498 
Q 428 1088 428 2181 
Q 428 3406 931 4078 
Q 1434 4750 2350 4750 
Q 2597 4750 2869 4703 
Q 3141 4656 3425 4563 
L 3425 3794 
L 3072 3794 
Q 3034 4109 2831 4275 
Q 2628 4441 2284 4441 
Q 1678 4441 1381 3981 
Q 1084 3522 1075 2569 
z
" transform="scale(0.015625)"/>
       </defs>
       <use xlink:href="#DejaVuSerif-36"/>
       <use xlink:href="#DejaVuSerif-30" x="63.623047"/>
      </g>
     </g>
    </g>
    <g id="xtick_10">
     <g id="line2d_17"/>
     <g id="text_9">
      <!-- 80 -->
      <g style="fill: #262626" transform="translate(178.312341 133.727642) scale(0.07 -0.07)">
       <defs>
        <path id="DejaVuSerif-38" d="M 2981 1275 
Q 2981 1775 2732 2051 
Q 2484 2328 2034 2328 
Q 1584 2328 1336 2051 
Q 1088 1775 1088 1275 
Q 1088 772 1336 495 
Q 1584 219 2034 219 
Q 2484 219 2732 495 
Q 2981 772 2981 1275 
z
M 2853 3541 
Q 2853 3966 2637 4203 
Q 2422 4441 2034 4441 
Q 1650 4441 1433 4203 
Q 1216 3966 1216 3541 
Q 1216 3113 1433 2875 
Q 1650 2638 2034 2638 
Q 2422 2638 2637 2875 
Q 2853 3113 2853 3541 
z
M 2516 2484 
Q 3047 2413 3344 2092 
Q 3641 1772 3641 1275 
Q 3641 619 3225 264 
Q 2809 -91 2034 -91 
Q 1263 -91 845 264 
Q 428 619 428 1275 
Q 428 1772 725 2092 
Q 1022 2413 1556 2484 
Q 1084 2569 832 2842 
Q 581 3116 581 3541 
Q 581 4103 968 4426 
Q 1356 4750 2034 4750 
Q 2713 4750 3100 4426 
Q 3488 4103 3488 3541 
Q 3488 3116 3236 2842 
Q 2984 2569 2516 2484 
z
" transform="scale(0.015625)"/>
       </defs>
       <use xlink:href="#DejaVuSerif-38"/>
       <use xlink:href="#DejaVuSerif-30" x="63.623047"/>
      </g>
     </g>
    </g>
    <g id="text_10">
     <!-- Time [s] -->
     <g style="fill: #262626" transform="translate(92.344976 143.742486) scale(0.06 -0.06)">
      <defs>
       <path id="DejaVuSerif-54" d="M 1222 0 
L 1222 331 
L 1819 331 
L 1819 4294 
L 447 4294 
L 447 3566 
L 63 3566 
L 63 4666 
L 4206 4666 
L 4206 3566 
L 3822 3566 
L 3822 4294 
L 2450 4294 
L 2450 331 
L 3047 331 
L 3047 0 
L 1222 0 
z
" transform="scale(0.015625)"/>
       <path id="DejaVuSerif-69" d="M 622 4353 
Q 622 4497 726 4603 
Q 831 4709 978 4709 
Q 1122 4709 1226 4603 
Q 1331 4497 1331 4353 
Q 1331 4206 1228 4103 
Q 1125 4000 978 4000 
Q 831 4000 726 4103 
Q 622 4206 622 4353 
z
M 1356 331 
L 1900 331 
L 1900 0 
L 231 0 
L 231 331 
L 781 331 
L 781 2988 
L 231 2988 
L 231 3322 
L 1356 3322 
L 1356 331 
z
" transform="scale(0.015625)"/>
       <path id="DejaVuSerif-6d" d="M 3316 2675 
Q 3481 3041 3739 3227 
Q 3997 3413 4341 3413 
Q 4863 3413 5119 3089 
Q 5375 2766 5375 2113 
L 5375 331 
L 5894 331 
L 5894 0 
L 4300 0 
L 4300 331 
L 4800 331 
L 4800 2047 
Q 4800 2556 4650 2772 
Q 4500 2988 4153 2988 
Q 3769 2988 3567 2697 
Q 3366 2406 3366 1850 
L 3366 331 
L 3866 331 
L 3866 0 
L 2291 0 
L 2291 331 
L 2791 331 
L 2791 2069 
Q 2791 2566 2641 2777 
Q 2491 2988 2144 2988 
Q 1759 2988 1557 2697 
Q 1356 2406 1356 1850 
L 1356 331 
L 1856 331 
L 1856 0 
L 263 0 
L 263 331 
L 781 331 
L 781 2994 
L 231 2994 
L 231 3322 
L 1356 3322 
L 1356 2731 
Q 1516 3063 1762 3238 
Q 2009 3413 2322 3413 
Q 2709 3413 2968 3220 
Q 3228 3028 3316 2675 
z
" transform="scale(0.015625)"/>
       <path id="DejaVuSerif-73" d="M 359 184 
L 359 959 
L 691 959 
Q 703 588 923 403 
Q 1144 219 1575 219 
Q 1963 219 2166 364 
Q 2369 509 2369 788 
Q 2369 1006 2220 1140 
Q 2072 1275 1594 1428 
L 1178 1569 
Q 750 1706 558 1912 
Q 366 2119 366 2438 
Q 366 2894 700 3153 
Q 1034 3413 1625 3413 
Q 1888 3413 2178 3344 
Q 2469 3275 2778 3144 
L 2778 2419 
L 2447 2419 
Q 2434 2741 2221 2922 
Q 2009 3103 1644 3103 
Q 1281 3103 1095 2975 
Q 909 2847 909 2591 
Q 909 2381 1050 2254 
Q 1191 2128 1613 1997 
L 2069 1856 
Q 2541 1709 2748 1489 
Q 2956 1269 2956 922 
Q 2956 450 2595 179 
Q 2234 -91 1600 -91 
Q 1278 -91 972 -22 
Q 666 47 359 184 
z
" transform="scale(0.015625)"/>
      </defs>
      <use xlink:href="#DejaVuSerif-54"/>
      <use xlink:href="#DejaVuSerif-69" x="66.699219"/>
      <use xlink:href="#DejaVuSerif-6d" x="98.681641"/>
      <use xlink:href="#DejaVuSerif-65" x="193.505859"/>
      <use xlink:href="#DejaVuSerif-20" x="252.685547"/>
      <use xlink:href="#DejaVuSerif-5b" x="284.472656"/>
      <use xlink:href="#DejaVuSerif-73" x="323.486328"/>
      <use xlink:href="#DejaVuSerif-5d" x="374.804688"/>
     </g>
    </g>
   </g>
   <g id="matplotlib.axis_4">
    <g id="ytick_4">
     <g id="line2d_18"/>
     <g id="text_11">
      <!-- −25 -->
      <g style="fill: #262626" transform="translate(2.336719 118.829907) scale(0.07 -0.07)">
       <defs>
        <path id="DejaVuSerif-35" d="M 3219 4666 
L 3219 4153 
L 1081 4153 
L 1081 2816 
Q 1244 2928 1461 2984 
Q 1678 3041 1947 3041 
Q 2703 3041 3140 2622 
Q 3578 2203 3578 1478 
Q 3578 738 3136 323 
Q 2694 -91 1894 -91 
Q 1572 -91 1234 -12 
Q 897 66 544 225 
L 544 1131 
L 897 1131 
Q 925 688 1179 453 
Q 1434 219 1894 219 
Q 2388 219 2653 544 
Q 2919 869 2919 1478 
Q 2919 2084 2655 2407 
Q 2391 2731 1894 2731 
Q 1613 2731 1398 2631 
Q 1184 2531 1019 2322 
L 750 2322 
L 750 4666 
L 3219 4666 
z
" transform="scale(0.015625)"/>
       </defs>
       <use xlink:href="#DejaVuSerif-2212"/>
       <use xlink:href="#DejaVuSerif-32" x="83.789062"/>
       <use xlink:href="#DejaVuSerif-35" x="147.412109"/>
      </g>
     </g>
    </g>
    <g id="ytick_5">
     <g id="line2d_19"/>
     <g id="text_12">
      <!-- 0 -->
      <g style="fill: #262626" transform="translate(12.65625 101.870653) scale(0.07 -0.07)">
       <use xlink:href="#DejaVuSerif-30"/>
      </g>
     </g>
    </g>
    <g id="ytick_6">
     <g id="line2d_20"/>
     <g id="text_13">
      <!-- 25 -->
      <g style="fill: #262626" transform="translate(8.2025 84.911399) scale(0.07 -0.07)">
       <use xlink:href="#DejaVuSerif-32"/>
       <use xlink:href="#DejaVuSerif-35" x="63.623047"/>
      </g>
     </g>
    </g>
    <g id="text_14">
     <!-- $\psi$ [deg] -->
     <g style="fill: #262626" transform="translate(-3.043281 108.430963) rotate(-90) scale(0.06 -0.06)">
      <defs>
       <path id="DejaVuSans-Oblique-3c8" d="M 1591 -78 
Q 891 38 616 341 
Q 278 713 425 1472 
L 819 3500 
L 1400 3500 
L 1009 1494 
Q 900 922 1119 684 
Q 1313 478 1691 434 
L 2284 3500 
L 2856 3500 
L 2263 438 
Q 2681 481 2928 688 
Q 3247 950 3353 1497 
L 3741 3500 
L 4322 3500 
L 3928 1475 
Q 3775 688 3300 344 
Q 2872 34 2163 -75 
L 1919 -1331 
L 1347 -1331 
L 1591 -78 
z
" transform="scale(0.015625)"/>
      </defs>
      <use xlink:href="#DejaVuSans-Oblique-3c8" transform="translate(0 0.015625)"/>
      <use xlink:href="#DejaVuSerif-20" transform="translate(65.966797 0.015625)"/>
      <use xlink:href="#DejaVuSerif-5b" transform="translate(97.753906 0.015625)"/>
      <use xlink:href="#DejaVuSerif-64" transform="translate(136.767578 0.015625)"/>
      <use xlink:href="#DejaVuSerif-65" transform="translate(200.78125 0.015625)"/>
      <use xlink:href="#DejaVuSerif-67" transform="translate(259.960938 0.015625)"/>
      <use xlink:href="#DejaVuSerif-5d" transform="translate(323.974609 0.015625)"/>
     </g>
    </g>
   </g>
   <g id="line2d_21">
    <path d="M 28.259984 99.2112 
L 30.384443 99.320167 
L 32.08401 99.658618 
L 33.880143 100.244871 
L 35.772843 101.098322 
L 37.742796 102.232137 
L 39.790002 103.669887 
L 41.914461 105.438826 
L 44.116173 107.567452 
L 46.414451 110.104108 
L 48.867236 113.150093 
L 52.015298 117.090015 
L 53.386539 118.384806 
L 54.873661 119.482871 
L 56.515288 120.417947 
L 58.311422 121.185347 
L 60.281374 121.783938 
L 62.405833 122.19463 
L 64.646172 122.399255 
L 66.963764 122.385939 
L 69.319982 122.14816 
L 71.6762 121.685934 
L 74.013105 121.001548 
L 76.35001 120.084288 
L 78.667601 118.93481 
L 80.985193 117.535884 
L 83.322098 115.86263 
L 85.697629 113.883303 
L 88.1311 111.560812 
L 90.661138 108.833203 
L 93.345681 105.605705 
L 96.281297 101.71901 
L 99.603179 96.939288 
L 103.581711 90.806144 
L 110.302727 80.351462 
L 111.673968 78.839082 
L 113.16109 77.529229 
L 114.82203 76.363022 
L 116.676104 75.335915 
L 118.742623 74.449954 
L 121.002275 73.724936 
L 123.455059 73.172085 
L 126.06235 72.812722 
L 128.766206 72.664561 
L 131.50869 72.736834 
L 134.251173 73.032071 
L 136.95503 73.546734 
L 139.62026 74.280876 
L 142.227551 75.229217 
L 144.796215 76.399569 
L 147.345566 77.80641 
L 149.894917 79.470285 
L 152.444267 81.40123 
L 155.051558 83.65825 
L 157.736102 86.280013 
L 160.555838 89.349932 
L 163.568707 92.964861 
L 166.890588 97.306135 
L 170.695301 102.65615 
L 175.330484 109.576466 
L 177.397004 112.761913 
L 177.397004 112.761913 
" clip-path="url(#p4ed71be28b)" style="fill: none; stroke: #bf00bf; stroke-width: 0.4; stroke-linecap: round"/>
   </g>
   <g id="line2d_22">
    <path d="M 28.259984 99.2112 
L 30.345816 99.319975 
L 31.659118 99.632168 
L 33.088299 100.205281 
L 34.633361 101.068632 
L 36.313614 102.26887 
L 38.129061 103.847962 
L 40.079701 105.846858 
L 42.223473 108.372733 
L 44.618318 111.551588 
L 49.176248 117.73322 
L 50.470237 118.972647 
L 51.841478 119.969979 
L 53.3286 120.772104 
L 54.9316 121.383443 
L 56.669794 121.80806 
L 58.523867 122.032439 
L 60.474507 122.045059 
L 62.5024 121.834325 
L 64.568919 121.393793 
L 66.654751 120.719663 
L 68.759897 119.802607 
L 70.884356 118.631076 
L 73.047441 117.179559 
L 75.268467 115.415777 
L 77.586058 113.284551 
L 80.058156 110.699991 
L 82.762013 107.541093 
L 85.871448 103.551522 
L 89.734101 98.211736 
L 95.875719 89.285847 
L 100.916481 82.077434 
L 102.461542 80.295259 
L 103.910036 78.962314 
L 105.513037 77.792889 
L 107.289858 76.776241 
L 109.25981 75.907454 
L 111.461522 75.181409 
L 113.914307 74.609473 
L 116.59885 74.213814 
L 119.476527 74.015046 
L 122.508709 74.030063 
L 125.618144 74.269403 
L 128.746893 74.733405 
L 131.875642 75.42174 
L 135.00439 76.338743 
L 138.113826 77.482745 
L 141.223261 78.864509 
L 144.371323 80.509236 
L 147.577325 82.437605 
L 150.91852 84.711276 
L 154.452847 87.390193 
L 158.334813 90.619274 
L 162.776863 94.613783 
L 168.358396 99.950219 
L 178.32404 109.85226 
L 181.259656 112.769272 
L 181.259656 112.769272 
" clip-path="url(#p4ed71be28b)" style="fill: none; stroke: #ff0000; stroke-width: 0.4; stroke-linecap: round"/>
   </g>
   <g id="line2d_23">
    <path d="M 28.259984 99.2112 
L 30.403756 99.319164 
L 31.659118 99.632602 
L 33.049673 100.216136 
L 34.575421 101.105591 
L 36.236361 102.336269 
L 38.071121 103.97942 
L 40.079701 106.083262 
L 42.2621 108.70159 
L 44.753511 112.054588 
L 48.59685 117.293992 
L 49.813586 118.503709 
L 50.991695 119.361738 
L 52.227744 119.99033 
L 53.521732 120.399491 
L 54.873661 120.591776 
L 56.283529 120.565614 
L 57.77065 120.314359 
L 59.315711 119.825205 
L 60.880086 119.093999 
L 62.463773 118.105527 
L 64.105401 116.815001 
L 65.843594 115.157579 
L 67.716981 113.052322 
L 69.764187 110.408311 
L 72.101092 107.01394 
L 74.978768 102.420307 
L 78.880047 95.745905 
L 87.918654 80.105351 
L 89.116077 78.672551 
L 90.313499 77.586106 
L 91.588174 76.729943 
L 92.940103 76.089122 
L 94.388598 75.648128 
L 95.952972 75.405762 
L 97.613913 75.375207 
L 99.352106 75.567695 
L 101.14824 75.993337 
L 103.002313 76.664183 
L 104.914326 77.594459 
L 106.903592 78.812403 
L 108.989425 80.354003 
L 111.191137 82.262554 
L 113.547355 84.606332 
L 116.135332 87.501343 
L 119.109575 91.174772 
L 122.643902 95.905806 
L 127.105266 102.269935 
L 132.821992 110.843114 
L 134.077354 112.760881 
L 134.077354 112.760881 
" clip-path="url(#p4ed71be28b)" style="fill: none; stroke: #0000ff; stroke-width: 0.4; stroke-linecap: round"/>
   </g>
   <g id="patch_6">
    <path d="M 20.61 124.908736 
L 20.61 70.173189 
" style="fill: none; stroke: #000000; stroke-linejoin: miter; stroke-linecap: square"/>
   </g>
   <g id="patch_7">
    <path d="M 20.61 124.908736 
L 188.90964 124.908736 
" style="fill: none; stroke: #000000; stroke-linejoin: miter; stroke-linecap: square"/>
   </g>
   <g id="line2d_24">
    <path d="M 28.259984 99.334229 
L 30.05609 99.508566 
L 31.272833 99.859705 
L 32.624764 100.487954 
L 34.111881 101.431912 
L 35.734188 102.730958 
L 37.530323 104.464313 
L 39.442336 106.625348 
L 41.508861 109.305041 
L 44.019585 112.949362 
L 46.974546 117.227541 
L 48.268503 118.688964 
L 49.523867 119.760383 
L 50.972364 120.699404 
L 52.536744 121.450034 
L 54.159054 121.986044 
L 55.78137 122.289517 
L 57.423013 122.372175 
L 59.08396 122.234968 
L 60.783508 121.87097 
L 62.541003 121.265559 
L 64.35645 120.401187 
L 66.287801 119.228508 
L 68.315678 117.73532 
L 70.401509 115.921876 
L 72.603211 113.706891 
L 75.036686 110.931532 
L 78.010929 107.186886 
L 81.989467 101.780651 
L 87.184739 94.335972 
L 95.643958 82.223065 
L 97.053849 80.665208 
L 98.251241 79.661658 
L 99.622469 78.805952 
L 101.128954 78.126999 
L 102.809169 77.616134 
L 104.682553 77.278405 
L 106.59459 77.156198 
L 108.506568 77.256947 
L 110.476579 77.585254 
L 112.543036 78.156933 
L 114.648184 78.971707 
L 116.811285 80.049425 
L 119.070946 81.425989 
L 121.38852 83.101098 
L 123.725435 85.06615 
L 126.081659 87.341422 
L 128.573049 90.065185 
L 131.566622 93.688998 
L 134.077333 96.902863 
L 134.077333 96.902863 
" clip-path="url(#p4ed71be28b)" style="fill: none; stroke: #000000; stroke-width: 0.7; stroke-linecap: round"/>
   </g>
  </g>
 </g>
 <defs>
  <clipPath id="p4a9810ab99">
   <rect x="20.61" y="7.2" width="168.29964" height="54.735547"/>
  </clipPath>
  <clipPath id="p4ed71be28b">
   <rect x="20.61" y="70.173189" width="168.29964" height="54.735547"/>
  </clipPath>
 </defs>
</svg>
